<svg width="75" height="83" viewBox="0 0 75 83" fill="none" xmlns="http://www.w3.org/2000/svg">
<path d="M5.61719 8.79688H3.86719L3.27344 12H1.96094L2.55469 8.79688H0.75V7.5625H2.78906L3.24219 5.11719H1.34375V3.875H3.47656L4.08594 0.625H5.39062L4.78125 3.875H6.53906L7.14844 0.625H8.45312L7.84375 3.875H9.46875V5.11719H7.60938L7.15625 7.5625H8.88281V8.79688H6.92188L6.32812 12H5.02344L5.61719 8.79688ZM4.10156 7.5625H5.85156L6.30469 5.11719H4.55469L4.10156 7.5625ZM20.7216 8.29688C20.607 9.51042 20.1591 10.4583 19.3778 11.1406C18.5966 11.8177 17.5575 12.1562 16.2606 12.1562C15.3544 12.1562 14.5549 11.9427 13.8622 11.5156C13.1747 11.0833 12.6434 10.4714 12.2684 9.67969C11.8934 8.88802 11.6981 7.96875 11.6825 6.92188V5.85938C11.6825 4.78646 11.8726 3.84115 12.2528 3.02344C12.633 2.20573 13.1773 1.57552 13.8856 1.13281C14.5992 0.690104 15.4221 0.46875 16.3544 0.46875C17.6096 0.46875 18.62 0.809896 19.3856 1.49219C20.1512 2.17448 20.5966 3.13802 20.7216 4.38281H18.7528C18.6591 3.5651 18.4195 2.97656 18.0341 2.61719C17.6539 2.2526 17.094 2.07031 16.3544 2.07031C15.495 2.07031 14.8335 2.38542 14.37 3.01562C13.9117 3.64062 13.6773 4.5599 13.6669 5.77344V6.78125C13.6669 8.01042 13.8856 8.94792 14.3231 9.59375C14.7658 10.2396 15.4117 10.5625 16.2606 10.5625C17.0367 10.5625 17.62 10.388 18.0106 10.0391C18.4012 9.6901 18.6486 9.10938 18.7528 8.29688H20.7216ZM30.2634 6.92188H25.5916V10.4219H31.0525V12H23.615V0.625H30.9978V2.21875H25.5916V5.35938H30.2634V6.92188ZM42.4616 8.29688C42.347 9.51042 41.8991 10.4583 41.1178 11.1406C40.3366 11.8177 39.2975 12.1562 38.0006 12.1562C37.0944 12.1562 36.2949 11.9427 35.6022 11.5156C34.9147 11.0833 34.3834 10.4714 34.0084 9.67969C33.6334 8.88802 33.4381 7.96875 33.4225 6.92188V5.85938C33.4225 4.78646 33.6126 3.84115 33.9928 3.02344C34.373 2.20573 34.9173 1.57552 35.6256 1.13281C36.3392 0.690104 37.1621 0.46875 38.0944 0.46875C39.3496 0.46875 40.36 0.809896 41.1256 1.49219C41.8913 2.17448 42.3366 3.13802 42.4616 4.38281H40.4928C40.3991 3.5651 40.1595 2.97656 39.7741 2.61719C39.3939 2.2526 38.834 2.07031 38.0944 2.07031C37.235 2.07031 36.5735 2.38542 36.11 3.01562C35.6517 3.64062 35.4173 4.5599 35.4069 5.77344V6.78125C35.4069 8.01042 35.6256 8.94792 36.0631 9.59375C36.5058 10.2396 37.1517 10.5625 38.0006 10.5625C38.7767 10.5625 39.36 10.388 39.7506 10.0391C40.1413 9.6901 40.3886 9.10938 40.4928 8.29688H42.4616ZM52.0034 6.92188H47.3316V10.4219H52.7925V12H45.355V0.625H52.7378V2.21875H47.3316V5.35938H52.0034V6.92188ZM64.2016 8.29688C64.087 9.51042 63.6391 10.4583 62.8578 11.1406C62.0766 11.8177 61.0375 12.1562 59.7406 12.1562C58.8344 12.1562 58.0349 11.9427 57.3422 11.5156C56.6547 11.0833 56.1234 10.4714 55.7484 9.67969C55.3734 8.88802 55.1781 7.96875 55.1625 6.92188V5.85938C55.1625 4.78646 55.3526 3.84115 55.7328 3.02344C56.113 2.20573 56.6573 1.57552 57.3656 1.13281C58.0792 0.690104 58.9021 0.46875 59.8344 0.46875C61.0896 0.46875 62.1 0.809896 62.8656 1.49219C63.6312 2.17448 64.0766 3.13802 64.2016 4.38281H62.2328C62.1391 3.5651 61.8995 2.97656 61.5141 2.61719C61.1339 2.2526 60.574 2.07031 59.8344 2.07031C58.975 2.07031 58.3135 2.38542 57.85 3.01562C57.3917 3.64062 57.1573 4.5599 57.1469 5.77344V6.78125C57.1469 8.01042 57.3656 8.94792 57.8031 9.59375C58.2458 10.2396 58.8917 10.5625 59.7406 10.5625C60.5167 10.5625 61.1 10.388 61.4906 10.0391C61.8812 9.6901 62.1286 9.10938 62.2328 8.29688H64.2016ZM73.7434 6.92188H69.0716V10.4219H74.5325V12H67.095V0.625H74.4778V2.21875H69.0716V5.35938H73.7434V6.92188ZM5.61719 43.7969H3.86719L3.27344 47H1.96094L2.55469 43.7969H0.75V42.5625H2.78906L3.24219 40.1172H1.34375V38.875H3.47656L4.08594 35.625H5.39062L4.78125 38.875H6.53906L7.14844 35.625H8.45312L7.84375 38.875H9.46875V40.1172H7.60938L7.15625 42.5625H8.88281V43.7969H6.92188L6.32812 47H5.02344L5.61719 43.7969ZM4.10156 42.5625H5.85156L6.30469 40.1172H4.55469L4.10156 42.5625ZM19.3856 47H11.7372V45.6953L15.5262 41.5625C16.0731 40.9531 16.4611 40.4453 16.6903 40.0391C16.9247 39.6276 17.0419 39.2161 17.0419 38.8047C17.0419 38.263 16.8882 37.8255 16.5809 37.4922C16.2789 37.1589 15.87 36.9922 15.3544 36.9922C14.7398 36.9922 14.2632 37.1797 13.9247 37.5547C13.5861 37.9297 13.4169 38.4427 13.4169 39.0938H11.5184C11.5184 38.401 11.6747 37.7786 11.9872 37.2266C12.3049 36.6693 12.7554 36.237 13.3387 35.9297C13.9273 35.6224 14.6044 35.4688 15.37 35.4688C16.4742 35.4688 17.344 35.7474 17.9794 36.3047C18.62 36.8568 18.9403 37.6224 18.9403 38.6016C18.9403 39.1693 18.7789 39.7656 18.4559 40.3906C18.1382 41.0104 17.6148 41.7161 16.8856 42.5078L14.1044 45.4844H19.3856V47ZM27.0916 47H25.2009V37.8672L22.4119 38.8203V37.2188L26.8494 35.5859H27.0916V47ZM39.8131 47H32.1647V45.6953L35.9538 41.5625C36.5006 40.9531 36.8886 40.4453 37.1178 40.0391C37.3522 39.6276 37.4694 39.2161 37.4694 38.8047C37.4694 38.263 37.3157 37.8255 37.0084 37.4922C36.7064 37.1589 36.2975 36.9922 35.7819 36.9922C35.1673 36.9922 34.6907 37.1797 34.3522 37.5547C34.0136 37.9297 33.8444 38.4427 33.8444 39.0938H31.9459C31.9459 38.401 32.1022 37.7786 32.4147 37.2266C32.7324 36.6693 33.1829 36.237 33.7663 35.9297C34.3548 35.6224 35.0319 35.4688 35.7975 35.4688C36.9017 35.4688 37.7715 35.7474 38.4069 36.3047C39.0475 36.8568 39.3678 37.6224 39.3678 38.6016C39.3678 39.1693 39.2064 39.7656 38.8834 40.3906C38.5657 41.0104 38.0423 41.7161 37.3131 42.5078L34.5319 45.4844H39.8131V47ZM47.5191 47H45.6284V37.8672L42.8394 38.8203V37.2188L47.2769 35.5859H47.5191V47ZM60.2406 47H52.5922V45.6953L56.3812 41.5625C56.9281 40.9531 57.3161 40.4453 57.5453 40.0391C57.7797 39.6276 57.8969 39.2161 57.8969 38.8047C57.8969 38.263 57.7432 37.8255 57.4359 37.4922C57.1339 37.1589 56.725 36.9922 56.2094 36.9922C55.5948 36.9922 55.1182 37.1797 54.7797 37.5547C54.4411 37.9297 54.2719 38.4427 54.2719 39.0938H52.3734C52.3734 38.401 52.5297 37.7786 52.8422 37.2266C53.1599 36.6693 53.6104 36.237 54.1937 35.9297C54.7823 35.6224 55.4594 35.4688 56.225 35.4688C57.3292 35.4688 58.199 35.7474 58.8344 36.3047C59.475 36.8568 59.7953 37.6224 59.7953 38.6016C59.7953 39.1693 59.6339 39.7656 59.3109 40.3906C58.9932 41.0104 58.4698 41.7161 57.7406 42.5078L54.9594 45.4844H60.2406V47ZM67.9466 47H66.0559V37.8672L63.2669 38.8203V37.2188L67.7044 35.5859H67.9466V47ZM5.61719 78.7969H3.86719L3.27344 82H1.96094L2.55469 78.7969H0.75V77.5625H2.78906L3.24219 75.1172H1.34375V73.875H3.47656L4.08594 70.625H5.39062L4.78125 73.875H6.53906L7.14844 70.625H8.45312L7.84375 73.875H9.46875V75.1172H7.60938L7.15625 77.5625H8.88281V78.7969H6.92188L6.32812 82H5.02344L5.61719 78.7969ZM4.10156 77.5625H5.85156L6.30469 75.1172H4.55469L4.10156 77.5625ZM19.1512 77.2109C19.1512 78.8464 18.844 80.0807 18.2294 80.9141C17.62 81.7422 16.6903 82.1562 15.4403 82.1562C14.2111 82.1562 13.2841 81.7526 12.6591 80.9453C12.0393 80.1328 11.7216 78.9323 11.7059 77.3438V75.375C11.7059 73.7396 12.0106 72.513 12.62 71.6953C13.2346 70.8776 14.1695 70.4688 15.4247 70.4688C16.6695 70.4688 17.5966 70.8672 18.2059 71.6641C18.8205 72.4609 19.1356 73.6536 19.1512 75.2422V77.2109ZM17.2528 75.0859C17.2528 74.0182 17.107 73.237 16.8153 72.7422C16.5236 72.2422 16.0601 71.9922 15.4247 71.9922C14.8049 71.9922 14.3492 72.2292 14.0575 72.7031C13.7658 73.1719 13.6122 73.9062 13.5966 74.9062V77.4844C13.5966 78.5469 13.745 79.3385 14.0419 79.8594C14.3387 80.3802 14.8049 80.6406 15.4403 80.6406C16.0497 80.6406 16.5002 80.401 16.7919 79.9219C17.0835 79.4375 17.2372 78.6823 17.2528 77.6562V75.0859ZM29.365 77.2109C29.365 78.8464 29.0577 80.0807 28.4431 80.9141C27.8337 81.7422 26.9041 82.1562 25.6541 82.1562C24.4249 82.1562 23.4978 81.7526 22.8728 80.9453C22.253 80.1328 21.9353 78.9323 21.9197 77.3438V75.375C21.9197 73.7396 22.2244 72.513 22.8337 71.6953C23.4483 70.8776 24.3832 70.4688 25.6384 70.4688C26.8832 70.4688 27.8103 70.8672 28.4197 71.6641C29.0343 72.4609 29.3494 73.6536 29.365 75.2422V77.2109ZM27.4666 75.0859C27.4666 74.0182 27.3207 73.237 27.0291 72.7422C26.7374 72.2422 26.2739 71.9922 25.6384 71.9922C25.0186 71.9922 24.5629 72.2292 24.2712 72.7031C23.9796 73.1719 23.8259 73.9062 23.8103 74.9062V77.4844C23.8103 78.5469 23.9587 79.3385 24.2556 79.8594C24.5525 80.3802 25.0186 80.6406 25.6541 80.6406C26.2634 80.6406 26.714 80.401 27.0056 79.9219C27.2973 79.4375 27.4509 78.6823 27.4666 77.6562V75.0859ZM39.5788 77.2109C39.5788 78.8464 39.2715 80.0807 38.6569 80.9141C38.0475 81.7422 37.1178 82.1562 35.8678 82.1562C34.6386 82.1562 33.7116 81.7526 33.0866 80.9453C32.4668 80.1328 32.1491 78.9323 32.1334 77.3438V75.375C32.1334 73.7396 32.4381 72.513 33.0475 71.6953C33.6621 70.8776 34.597 70.4688 35.8522 70.4688C37.097 70.4688 38.0241 70.8672 38.6334 71.6641C39.248 72.4609 39.5631 73.6536 39.5788 75.2422V77.2109ZM37.6803 75.0859C37.6803 74.0182 37.5345 73.237 37.2428 72.7422C36.9511 72.2422 36.4876 71.9922 35.8522 71.9922C35.2324 71.9922 34.7767 72.2292 34.485 72.7031C34.1933 73.1719 34.0397 73.9062 34.0241 74.9062V77.4844C34.0241 78.5469 34.1725 79.3385 34.4694 79.8594C34.7663 80.3802 35.2324 80.6406 35.8678 80.6406C36.4772 80.6406 36.9277 80.401 37.2194 79.9219C37.511 79.4375 37.6647 78.6823 37.6803 77.6562V75.0859ZM49.7925 77.2109C49.7925 78.8464 49.4852 80.0807 48.8706 80.9141C48.2612 81.7422 47.3316 82.1562 46.0816 82.1562C44.8524 82.1562 43.9253 81.7526 43.3003 80.9453C42.6805 80.1328 42.3628 78.9323 42.3472 77.3438V75.375C42.3472 73.7396 42.6519 72.513 43.2612 71.6953C43.8758 70.8776 44.8107 70.4688 46.0659 70.4688C47.3107 70.4688 48.2378 70.8672 48.8472 71.6641C49.4618 72.4609 49.7769 73.6536 49.7925 75.2422V77.2109ZM47.8941 75.0859C47.8941 74.0182 47.7482 73.237 47.4566 72.7422C47.1649 72.2422 46.7014 71.9922 46.0659 71.9922C45.4461 71.9922 44.9904 72.2292 44.6987 72.7031C44.4071 73.1719 44.2534 73.9062 44.2378 74.9062V77.4844C44.2378 78.5469 44.3862 79.3385 44.6831 79.8594C44.98 80.3802 45.4461 80.6406 46.0816 80.6406C46.6909 80.6406 47.1415 80.401 47.4331 79.9219C47.7248 79.4375 47.8784 78.6823 47.8941 77.6562V75.0859ZM60.0062 77.2109C60.0062 78.8464 59.699 80.0807 59.0844 80.9141C58.475 81.7422 57.5453 82.1562 56.2953 82.1562C55.0661 82.1562 54.1391 81.7526 53.5141 80.9453C52.8943 80.1328 52.5766 78.9323 52.5609 77.3438V75.375C52.5609 73.7396 52.8656 72.513 53.475 71.6953C54.0896 70.8776 55.0245 70.4688 56.2797 70.4688C57.5245 70.4688 58.4516 70.8672 59.0609 71.6641C59.6755 72.4609 59.9906 73.6536 60.0062 75.2422V77.2109ZM58.1078 75.0859C58.1078 74.0182 57.962 73.237 57.6703 72.7422C57.3786 72.2422 56.9151 71.9922 56.2797 71.9922C55.6599 71.9922 55.2042 72.2292 54.9125 72.7031C54.6208 73.1719 54.4672 73.9062 54.4516 74.9062V77.4844C54.4516 78.5469 54.6 79.3385 54.8969 79.8594C55.1937 80.3802 55.6599 80.6406 56.2953 80.6406C56.9047 80.6406 57.3552 80.401 57.6469 79.9219C57.9385 79.4375 58.0922 78.6823 58.1078 77.6562V75.0859ZM70.22 77.2109C70.22 78.8464 69.9127 80.0807 69.2981 80.9141C68.6888 81.7422 67.7591 82.1562 66.5091 82.1562C65.2799 82.1562 64.3528 81.7526 63.7278 80.9453C63.108 80.1328 62.7903 78.9323 62.7747 77.3438V75.375C62.7747 73.7396 63.0794 72.513 63.6888 71.6953C64.3033 70.8776 65.2382 70.4688 66.4934 70.4688C67.7382 70.4688 68.6653 70.8672 69.2747 71.6641C69.8893 72.4609 70.2044 73.6536 70.22 75.2422V77.2109ZM68.3216 75.0859C68.3216 74.0182 68.1757 73.237 67.8841 72.7422C67.5924 72.2422 67.1289 71.9922 66.4934 71.9922C65.8736 71.9922 65.4179 72.2292 65.1263 72.7031C64.8346 73.1719 64.6809 73.9062 64.6653 74.9062V77.4844C64.6653 78.5469 64.8138 79.3385 65.1106 79.8594C65.4075 80.3802 65.8736 80.6406 66.5091 80.6406C67.1184 80.6406 67.569 80.401 67.8606 79.9219C68.1523 79.4375 68.3059 78.6823 68.3216 77.6562V75.0859Z" fill="#CCCCCC"/>
</svg>
