<svg width="72" height="175" viewBox="0 0 72 175" fill="none" xmlns="http://www.w3.org/2000/svg">
<path d="M11.416 2.14697H6.24023V15.8384H5.71289V2.14697H0.537109V1.61963H11.416V2.14697ZM14.1602 7.73291C14.5052 6.9126 15.013 6.26481 15.6836 5.78955C16.3542 5.31429 17.0964 5.07666 17.9102 5.07666C19.043 5.07666 19.8828 5.39893 20.4297 6.04346C20.9831 6.68148 21.263 7.64827 21.2695 8.94385V15.8384H20.7422V8.92432C20.7357 7.7915 20.5046 6.95492 20.0488 6.41455C19.5931 5.86768 18.8704 5.59424 17.8809 5.59424C16.9694 5.59424 16.1784 5.91976 15.5078 6.5708C14.8438 7.21533 14.3945 8.04867 14.1602 9.0708V15.8384H13.6328V0.838379H14.1602V7.73291ZM25.2441 15.8384H24.7168V5.27197H25.2441V15.8384ZM24.4434 1.97119C24.4434 1.82145 24.4954 1.6945 24.5996 1.59033C24.7038 1.47965 24.8307 1.42432 24.9805 1.42432C25.1302 1.42432 25.2572 1.47965 25.3613 1.59033C25.472 1.6945 25.5273 1.82145 25.5273 1.97119C25.5273 2.12093 25.472 2.24788 25.3613 2.35205C25.2572 2.45622 25.1302 2.5083 24.9805 2.5083C24.8307 2.5083 24.7038 2.45622 24.5996 2.35205C24.4954 2.24788 24.4434 2.12093 24.4434 1.97119ZM29.2383 7.73291C29.5833 6.9126 30.0911 6.26481 30.7617 5.78955C31.4323 5.31429 32.1745 5.07666 32.9883 5.07666C34.1211 5.07666 34.9609 5.39893 35.5078 6.04346C36.0612 6.68148 36.3411 7.64827 36.3477 8.94385V15.8384H35.8203V8.92432C35.8138 7.7915 35.5827 6.95492 35.127 6.41455C34.6712 5.86768 33.9486 5.59424 32.959 5.59424C32.0475 5.59424 31.2565 5.91976 30.5859 6.5708C29.9219 7.21533 29.4727 8.04867 29.2383 9.0708V15.8384H28.7109V5.27197H29.2383V7.73291ZM3.00781 53.8228H10.0293V54.8384H1.79688V40.6196H3.00781V53.8228ZM13.3789 54.8384H12.207V44.272H13.3789V54.8384ZM12.002 41.2153C12.002 40.994 12.0736 40.8084 12.2168 40.6587C12.36 40.5024 12.5553 40.4243 12.8027 40.4243C13.0501 40.4243 13.2454 40.5024 13.3887 40.6587C13.5384 40.8084 13.6133 40.994 13.6133 41.2153C13.6133 41.4367 13.5384 41.6222 13.3887 41.772C13.2454 41.9217 13.0501 41.9966 12.8027 41.9966C12.5553 41.9966 12.36 41.9217 12.2168 41.772C12.0736 41.6222 12.002 41.4367 12.002 41.2153ZM16.0938 49.4575C16.0938 47.8039 16.4583 46.4953 17.1875 45.5317C17.9232 44.5617 18.9193 44.0767 20.1758 44.0767C21.6146 44.0767 22.7083 44.6496 23.457 45.7954L23.5156 44.272H24.6094V54.6235C24.6094 55.9842 24.2285 57.0617 23.4668 57.856C22.7051 58.6502 21.6732 59.0474 20.3711 59.0474C19.6354 59.0474 18.9323 58.8813 18.2617 58.5493C17.5977 58.2238 17.0736 57.7876 16.6895 57.2407L17.3438 56.5376C18.1706 57.5532 19.1536 58.061 20.293 58.061C21.2695 58.061 22.0312 57.7713 22.5781 57.1919C23.125 56.619 23.4082 55.8215 23.4277 54.7993V53.4712C22.679 54.5129 21.5885 55.0337 20.1562 55.0337C18.9323 55.0337 17.9492 54.5454 17.207 53.5688C16.4648 52.5923 16.0938 51.2739 16.0938 49.6138V49.4575ZM17.2754 49.6626C17.2754 51.0103 17.5456 52.0747 18.0859 52.856C18.6263 53.6307 19.388 54.0181 20.3711 54.0181C21.8099 54.0181 22.8288 53.3735 23.4277 52.0845V47.1724C23.1543 46.4953 22.7604 45.981 22.2461 45.6294C21.7318 45.2713 21.1133 45.0923 20.3906 45.0923C19.4076 45.0923 18.6426 45.4797 18.0957 46.2544C17.5488 47.0226 17.2754 48.1587 17.2754 49.6626ZM28.8184 46.0591C29.2025 45.4276 29.694 44.9393 30.293 44.5942C30.8919 44.2492 31.5462 44.0767 32.2559 44.0767C33.3887 44.0767 34.2318 44.3957 34.7852 45.0337C35.3385 45.6717 35.6185 46.6287 35.625 47.9048V54.8384H34.4629V47.895C34.4564 46.951 34.2546 46.2479 33.8574 45.7856C33.4668 45.3234 32.8385 45.0923 31.9727 45.0923C31.25 45.0923 30.6087 45.3201 30.0488 45.7759C29.4954 46.2251 29.0853 46.8338 28.8184 47.6021V54.8384H27.6562V39.8384H28.8184V46.0591ZM40.4492 41.5669V44.272H42.6367V45.229H40.4492V52.27C40.4492 52.856 40.5534 53.2922 40.7617 53.5786C40.9766 53.8651 41.3314 54.0083 41.8262 54.0083C42.0215 54.0083 42.3372 53.9757 42.7734 53.9106L42.8223 54.8677C42.5163 54.9784 42.0996 55.0337 41.5723 55.0337C40.7715 55.0337 40.1888 54.8026 39.8242 54.3403C39.4596 53.8716 39.2773 53.1847 39.2773 52.2798V45.229H37.334V44.272H39.2773V41.5669H40.4492ZM4.64844 80.6196L8.75 91.5181L12.8418 80.6196H16.0352V94.8384H13.5742V90.1509L13.8184 83.8813L9.61914 94.8384H7.85156L3.66211 83.8911L3.90625 90.1509V94.8384H1.44531V80.6196H4.64844ZM23.3887 95.0337C21.8848 95.0337 20.6641 94.5617 19.7266 93.6177C18.7956 92.6672 18.3301 91.4041 18.3301 89.8286V89.5356C18.3301 88.481 18.5319 87.5402 18.9355 86.7134C19.3457 85.88 19.9186 85.2323 20.6543 84.77C21.39 84.3078 22.2103 84.0767 23.1152 84.0767C24.554 84.0767 25.6641 84.5356 26.4453 85.4536C27.2331 86.3716 27.627 87.6704 27.627 89.3501V90.3071H20.7227C20.7943 91.1795 21.084 91.8696 21.5918 92.3774C22.1061 92.8853 22.7507 93.1392 23.5254 93.1392C24.6126 93.1392 25.498 92.6997 26.1816 91.8208L27.4609 93.0415C27.0378 93.673 26.4714 94.1646 25.7617 94.5161C25.0586 94.8612 24.2676 95.0337 23.3887 95.0337ZM23.1055 85.981C22.4544 85.981 21.9271 86.2088 21.5234 86.6646C21.1263 87.1203 20.8724 87.755 20.7617 88.5688H25.2832V88.3931C25.2311 87.5988 25.0195 86.9998 24.6484 86.5962C24.2773 86.186 23.763 85.981 23.1055 85.981ZM29.0332 89.4771C29.0332 87.8494 29.4108 86.5441 30.166 85.561C30.9212 84.5715 31.9336 84.0767 33.2031 84.0767C34.3229 84.0767 35.2279 84.4673 35.918 85.2485V79.8384H38.291V94.8384H36.1426L36.0254 93.7446C35.3158 94.604 34.3685 95.0337 33.1836 95.0337C31.9466 95.0337 30.944 94.5356 30.1758 93.5396C29.4141 92.5435 29.0332 91.1893 29.0332 89.4771ZM31.4062 89.6821C31.4062 90.7563 31.6113 91.5962 32.0215 92.2017C32.4382 92.8006 33.0273 93.1001 33.7891 93.1001C34.7591 93.1001 35.4688 92.6672 35.918 91.8013V87.2896C35.4818 86.4432 34.7786 86.02 33.8086 86.02C33.0404 86.02 32.4479 86.326 32.0312 86.938C31.6146 87.5435 31.4062 88.4582 31.4062 89.6821ZM43.291 94.8384H40.918V84.272H43.291V94.8384ZM40.7715 81.5278C40.7715 81.1632 40.8854 80.8605 41.1133 80.6196C41.3477 80.3787 41.6797 80.2583 42.1094 80.2583C42.5391 80.2583 42.8711 80.3787 43.1055 80.6196C43.3398 80.8605 43.457 81.1632 43.457 81.5278C43.457 81.8859 43.3398 82.1854 43.1055 82.4263C42.8711 82.6606 42.5391 82.7778 42.1094 82.7778C41.6797 82.7778 41.3477 82.6606 41.1133 82.4263C40.8854 82.1854 40.7715 81.8859 40.7715 81.5278ZM52.2852 93.8032C51.5885 94.6235 50.599 95.0337 49.3164 95.0337C48.1706 95.0337 47.3014 94.6984 46.709 94.0278C46.123 93.3573 45.8301 92.3872 45.8301 91.1177V84.272H48.2031V91.0884C48.2031 92.4295 48.7598 93.1001 49.873 93.1001C51.0254 93.1001 51.8034 92.6867 52.207 91.8599V84.272H54.5801V94.8384H52.3438L52.2852 93.8032ZM59.2285 84.272L59.2969 85.3755C60.0391 84.5096 61.0547 84.0767 62.3438 84.0767C63.7565 84.0767 64.7233 84.617 65.2441 85.6978C66.0124 84.617 67.0931 84.0767 68.4863 84.0767C69.6517 84.0767 70.5176 84.3989 71.084 85.0435C71.6569 85.688 71.9499 86.6385 71.9629 87.895V94.8384H69.5898V87.9634C69.5898 87.2928 69.4434 86.8013 69.1504 86.4888C68.8574 86.1763 68.3724 86.02 67.6953 86.02C67.1549 86.02 66.7122 86.1665 66.3672 86.4595C66.0286 86.7459 65.791 87.1235 65.6543 87.5923L65.6641 94.8384H63.291V87.8853C63.2585 86.6418 62.6237 86.02 61.3867 86.02C60.4362 86.02 59.7624 86.4074 59.3652 87.1821V94.8384H56.9922V84.272H59.2285ZM1.26953 133.838V119.62H6.25C7.97526 119.62 9.28385 119.952 10.1758 120.616C11.0677 121.273 11.5137 122.24 11.5137 123.516C11.5137 124.213 11.3346 124.828 10.9766 125.362C10.6185 125.889 10.1204 126.277 9.48242 126.524C10.2116 126.706 10.7845 127.074 11.2012 127.627C11.6243 128.181 11.8359 128.858 11.8359 129.659C11.8359 131.026 11.3997 132.061 10.5273 132.764C9.65495 133.467 8.41146 133.825 6.79688 133.838H1.26953ZM4.19922 127.647V131.485H6.70898C7.39909 131.485 7.9362 131.322 8.32031 130.997C8.71094 130.665 8.90625 130.209 8.90625 129.629C8.90625 128.327 8.23242 127.667 6.88477 127.647H4.19922ZM4.19922 125.577H6.36719C7.84505 125.551 8.58398 124.961 8.58398 123.809C8.58398 123.165 8.39518 122.702 8.01758 122.422C7.64648 122.136 7.05729 121.993 6.25 121.993H4.19922V125.577ZM13.418 128.458C13.418 127.409 13.6198 126.475 14.0234 125.655C14.4271 124.834 15.0065 124.2 15.7617 123.75C16.5234 123.301 17.4056 123.077 18.4082 123.077C19.834 123.077 20.9961 123.513 21.8945 124.385C22.7995 125.258 23.304 126.443 23.4082 127.94L23.4277 128.663C23.4277 130.284 22.9753 131.586 22.0703 132.569C21.1654 133.545 19.9512 134.034 18.4277 134.034C16.9043 134.034 15.6868 133.545 14.7754 132.569C13.8704 131.592 13.418 130.264 13.418 128.584V128.458ZM16.2402 128.663C16.2402 129.665 16.429 130.433 16.8066 130.967C17.1842 131.495 17.7246 131.758 18.4277 131.758C19.1113 131.758 19.6452 131.498 20.0293 130.977C20.4134 130.45 20.6055 129.61 20.6055 128.458C20.6055 127.474 20.4134 126.713 20.0293 126.172C19.6452 125.632 19.1048 125.362 18.4082 125.362C17.7181 125.362 17.1842 125.632 16.8066 126.172C16.429 126.706 16.2402 127.536 16.2402 128.663ZM28.1445 133.838H25.3125V118.838H28.1445V133.838ZM30.0391 128.477C30.0391 126.83 30.4069 125.518 31.1426 124.542C31.8848 123.565 32.8971 123.077 34.1797 123.077C35.2083 123.077 36.0579 123.461 36.7285 124.229V118.838H39.5605V133.838H37.0117L36.875 132.715C36.1719 133.594 35.2669 134.034 34.1602 134.034C32.9167 134.034 31.9173 133.545 31.1621 132.569C30.4134 131.586 30.0391 130.222 30.0391 128.477ZM32.8613 128.682C32.8613 129.672 33.0339 130.43 33.3789 130.958C33.724 131.485 34.2253 131.749 34.8828 131.749C35.7552 131.749 36.3704 131.381 36.7285 130.645V126.475C36.377 125.739 35.7682 125.372 34.9023 125.372C33.5417 125.372 32.8613 126.475 32.8613 128.682ZM1.65039 173.838V159.62H6.29883C7.8418 159.62 9.00065 159.939 9.77539 160.577C10.5566 161.215 10.9473 162.159 10.9473 163.409C10.9473 164.073 10.7585 164.662 10.3809 165.176C10.0033 165.684 9.48893 166.078 8.83789 166.358C9.60612 166.573 10.2116 166.983 10.6543 167.588C11.1035 168.187 11.3281 168.903 11.3281 169.737C11.3281 171.013 10.9147 172.015 10.0879 172.745C9.26107 173.474 8.09245 173.838 6.58203 173.838H1.65039ZM3.52539 167.188V172.305H6.62109C7.49349 172.305 8.18034 172.081 8.68164 171.631C9.18945 171.176 9.44336 170.551 9.44336 169.756C9.44336 168.044 8.51237 167.188 6.65039 167.188H3.52539ZM3.52539 165.684H6.35742C7.17773 165.684 7.83203 165.479 8.32031 165.069C8.8151 164.659 9.0625 164.102 9.0625 163.399C9.0625 162.618 8.83464 162.051 8.37891 161.7C7.92318 161.342 7.22982 161.163 6.29883 161.163H3.52539V165.684ZM15.791 173.838H13.9844V158.838H15.791V173.838ZM25.2148 173.838C25.1107 173.63 25.026 173.259 24.9609 172.725C24.1211 173.597 23.1185 174.034 21.9531 174.034C20.9115 174.034 20.0553 173.741 19.3848 173.155C18.7207 172.562 18.3887 171.814 18.3887 170.909C18.3887 169.808 18.8053 168.956 19.6387 168.35C20.4785 167.738 21.6569 167.432 23.1738 167.432H24.9316V166.602C24.9316 165.971 24.7428 165.469 24.3652 165.098C23.9876 164.721 23.431 164.532 22.6953 164.532C22.0508 164.532 21.5104 164.694 21.0742 165.02C20.638 165.346 20.4199 165.739 20.4199 166.202H18.6035C18.6035 165.674 18.7891 165.167 19.1602 164.678C19.5378 164.183 20.0456 163.793 20.6836 163.506C21.3281 163.22 22.0345 163.077 22.8027 163.077C24.0202 163.077 24.974 163.383 25.6641 163.995C26.3542 164.6 26.7122 165.437 26.7383 166.504V171.368C26.7383 172.338 26.862 173.109 27.1094 173.682V173.838H25.2148ZM22.2168 172.461C22.7832 172.461 23.3203 172.315 23.8281 172.022C24.3359 171.729 24.7038 171.348 24.9316 170.879V168.711H23.5156C21.3021 168.711 20.1953 169.359 20.1953 170.655C20.1953 171.221 20.3841 171.664 20.7617 171.983C21.1393 172.302 21.6243 172.461 22.2168 172.461ZM33.8086 172.559C34.4531 172.559 35.0163 172.364 35.498 171.973C35.9798 171.583 36.2467 171.094 36.2988 170.508H38.0078C37.9753 171.114 37.7669 171.69 37.3828 172.237C36.9987 172.784 36.4844 173.22 35.8398 173.545C35.2018 173.871 34.5247 174.034 33.8086 174.034C32.3698 174.034 31.224 173.555 30.3711 172.598C29.5247 171.635 29.1016 170.319 29.1016 168.653V168.35C29.1016 167.321 29.2904 166.407 29.668 165.606C30.0456 164.805 30.5859 164.183 31.2891 163.741C31.9987 163.298 32.8353 163.077 33.7988 163.077C34.9837 163.077 35.9668 163.431 36.748 164.141C37.5358 164.851 37.9557 165.772 38.0078 166.905H36.2988C36.2467 166.221 35.9863 165.661 35.5176 165.225C35.0553 164.782 34.4824 164.561 33.7988 164.561C32.8809 164.561 32.168 164.893 31.6602 165.557C31.1589 166.215 30.9082 167.168 30.9082 168.418V168.76C30.9082 169.978 31.1589 170.915 31.6602 171.573C32.1615 172.23 32.8776 172.559 33.8086 172.559ZM42.9883 168.946L41.8555 170.127V173.838H40.0488V158.838H41.8555V167.911L42.8223 166.749L46.1133 163.272H48.3105L44.1992 167.686L48.7891 173.838H46.6699L42.9883 168.946Z" fill="#434343"/>
</svg>
