<svg width="448" height="676" viewBox="0 0 448 676" fill="none" xmlns="http://www.w3.org/2000/svg">
<circle opacity="0.08" cx="110" cy="338" r="284" stroke="#FF9900" stroke-width="108"/>
<circle opacity="0.08" cx="110" cy="341" r="204" stroke="#FF6C9F" stroke-width="108"/>
<path opacity="0.08" d="M237 338C237 407.721 179.89 465 108.5 465C37.1104 465 -20 407.721 -20 338C-20 268.279 37.1104 211 108.5 211C179.89 211 237 268.279 237 338Z" stroke="#D70584" stroke-width="108"/>
<g opacity="0.08">
<mask id="path-4-inside-1" fill="white">
<ellipse cx="108" cy="338" rx="106" ry="108"/>
</mask>
<path d="M106 338C106 338.279 105.974 338.436 105.961 338.5C105.947 338.569 105.933 338.609 105.923 338.631C105.898 338.692 105.867 338.726 105.875 338.717C105.885 338.707 106.064 338.526 106.518 338.331C106.75 338.23 107.024 338.141 107.32 338.079C107.623 338.016 107.864 338 108 338V554C228.083 554 322 455.381 322 338H106ZM108 338C108.136 338 108.377 338.016 108.68 338.079C108.976 338.141 109.25 338.23 109.482 338.331C109.936 338.526 110.115 338.707 110.125 338.717C110.133 338.726 110.102 338.692 110.077 338.631C110.067 338.609 110.053 338.569 110.039 338.5C110.026 338.436 110 338.279 110 338H-106C-106 455.381 -12.0832 554 108 554V338ZM110 338C110 337.721 110.026 337.564 110.039 337.5C110.053 337.431 110.067 337.391 110.077 337.369C110.102 337.308 110.133 337.274 110.125 337.283C110.115 337.293 109.936 337.474 109.482 337.669C109.25 337.77 108.976 337.859 108.68 337.921C108.377 337.984 108.136 338 108 338V122C-12.0832 122 -106 220.619 -106 338H110ZM108 338C107.864 338 107.623 337.984 107.32 337.921C107.024 337.859 106.75 337.77 106.518 337.669C106.064 337.474 105.885 337.293 105.875 337.283C105.867 337.274 105.898 337.308 105.923 337.369C105.933 337.391 105.947 337.431 105.961 337.5C105.974 337.564 106 337.721 106 338H322C322 220.619 228.083 122 108 122V338Z" fill="#0062BB" mask="url(#path-4-inside-1)"/>
</g>
</svg>
