<svg width="332" height="332" viewBox="0 0 332 332" fill="none" xmlns="http://www.w3.org/2000/svg">
<g filter="url(#filter0_d)">
<circle cx="166" cy="162" r="134" fill="white"/>
</g>
<circle opacity="0.74" cx="166" cy="162" r="92.5" stroke="#FF9900" stroke-width="35"/>
<circle opacity="0.74" cx="166" cy="163" r="66.5" stroke="#FF6C9F" stroke-width="35"/>
<path opacity="0.74" d="M207.5 162C207.5 184.781 188.835 203.5 165.5 203.5C142.165 203.5 123.5 184.781 123.5 162C123.5 139.219 142.165 120.5 165.5 120.5C188.835 120.5 207.5 139.219 207.5 162Z" stroke="#D70584" stroke-width="35"/>
<g opacity="0.74">
<mask id="path-5-inside-1" fill="white">
<ellipse cx="165.5" cy="162" rx="34.5" ry="35"/>
</mask>
<path d="M165 162C165 162.08 164.992 162.121 164.99 162.133C164.987 162.147 164.985 162.153 164.984 162.155C164.983 162.158 164.98 162.163 164.976 162.169C164.972 162.176 164.969 162.179 164.969 162.179C164.969 162.178 164.979 162.169 165.002 162.153C165.027 162.136 165.068 162.111 165.128 162.086C165.189 162.059 165.261 162.036 165.339 162.02C165.418 162.003 165.477 162 165.5 162V232C204.357 232 235 200.183 235 162H165ZM165.5 162C165.523 162 165.582 162.003 165.661 162.02C165.739 162.036 165.811 162.059 165.872 162.086C165.932 162.111 165.973 162.136 165.998 162.153C166.021 162.169 166.031 162.178 166.031 162.179C166.031 162.179 166.028 162.176 166.024 162.169C166.02 162.163 166.017 162.158 166.016 162.155C166.015 162.153 166.013 162.147 166.01 162.133C166.008 162.121 166 162.08 166 162H96C96 200.183 126.643 232 165.5 232V162ZM166 162C166 161.92 166.008 161.879 166.01 161.867C166.013 161.853 166.015 161.847 166.016 161.845C166.017 161.842 166.02 161.837 166.024 161.831C166.028 161.824 166.031 161.821 166.031 161.821C166.031 161.822 166.021 161.831 165.998 161.847C165.973 161.864 165.932 161.889 165.872 161.914C165.811 161.941 165.739 161.964 165.661 161.98C165.582 161.997 165.523 162 165.5 162V92C126.643 92 96 123.817 96 162H166ZM165.5 162C165.477 162 165.418 161.997 165.339 161.98C165.261 161.964 165.189 161.941 165.128 161.914C165.068 161.889 165.027 161.864 165.002 161.847C164.979 161.831 164.969 161.822 164.969 161.821C164.969 161.821 164.972 161.824 164.976 161.831C164.98 161.837 164.983 161.842 164.984 161.845C164.985 161.847 164.987 161.853 164.99 161.867C164.992 161.879 165 161.92 165 162H235C235 123.817 204.357 92 165.5 92V162Z" fill="#0062BB" mask="url(#path-5-inside-1)"/>
</g>
<defs>
<filter id="filter0_d" x="0" y="0" width="332" height="332" filterUnits="userSpaceOnUse" color-interpolation-filters="sRGB">
<feFlood flood-opacity="0" result="BackgroundImageFix"/>
<feColorMatrix in="SourceAlpha" type="matrix" values="0 0 0 0 0 0 0 0 0 0 0 0 0 0 0 0 0 0 127 0"/>
<feOffset dy="4"/>
<feGaussianBlur stdDeviation="16"/>
<feColorMatrix type="matrix" values="0 0 0 0 0 0 0 0 0 0 0 0 0 0 0 0 0 0 0.16 0"/>
<feBlend mode="normal" in2="BackgroundImageFix" result="effect1_dropShadow"/>
<feBlend mode="normal" in="SourceGraphic" in2="effect1_dropShadow" result="shape"/>
</filter>
</defs>
</svg>
