<svg width="80" height="119" viewBox="0 0 80 119" fill="none" xmlns="http://www.w3.org/2000/svg">
<path d="M5.61719 9.79688H3.86719L3.27344 13H1.96094L2.55469 9.79688H0.75V8.5625H2.78906L3.24219 6.11719H1.34375V4.875H3.47656L4.08594 1.625H5.39062L4.78125 4.875H6.53906L7.14844 1.625H8.45312L7.84375 4.875H9.46875V6.11719H7.60938L7.15625 8.5625H8.88281V9.79688H6.92188L6.32812 13H5.02344L5.61719 9.79688ZM4.10156 8.5625H5.85156L6.30469 6.11719H4.55469L4.10156 8.5625ZM19.3856 13H11.7372V11.6953L15.5262 7.5625C16.0731 6.95312 16.4611 6.44531 16.6903 6.03906C16.9247 5.6276 17.0419 5.21615 17.0419 4.80469C17.0419 4.26302 16.8882 3.82552 16.5809 3.49219C16.2789 3.15885 15.87 2.99219 15.3544 2.99219C14.7398 2.99219 14.2632 3.17969 13.9247 3.55469C13.5861 3.92969 13.4169 4.44271 13.4169 5.09375H11.5184C11.5184 4.40104 11.6747 3.77865 11.9872 3.22656C12.3049 2.66927 12.7554 2.23698 13.3387 1.92969C13.9273 1.6224 14.6044 1.46875 15.37 1.46875C16.4742 1.46875 17.344 1.7474 17.9794 2.30469C18.62 2.85677 18.9403 3.6224 18.9403 4.60156C18.9403 5.16927 18.7789 5.76562 18.4559 6.39062C18.1382 7.01042 17.6148 7.71615 16.8856 8.50781L14.1044 11.4844H19.3856V13ZM29.115 4.625C29.115 5.18229 28.9718 5.67969 28.6853 6.11719C28.3989 6.54948 28.0082 6.89062 27.5134 7.14062C28.1072 7.41667 28.5629 7.79427 28.8806 8.27344C29.2035 8.7526 29.365 9.29427 29.365 9.89844C29.365 10.8984 29.0265 11.6927 28.3494 12.2812C27.6723 12.8646 26.7712 13.1562 25.6462 13.1562C24.516 13.1562 23.6098 12.862 22.9275 12.2734C22.2504 11.6849 21.9119 10.8932 21.9119 9.89844C21.9119 9.28906 22.0733 8.74219 22.3962 8.25781C22.7192 7.77344 23.1723 7.40104 23.7556 7.14062C23.266 6.89062 22.878 6.54948 22.5916 6.11719C22.3103 5.67969 22.1697 5.18229 22.1697 4.625C22.1697 3.65625 22.4822 2.88802 23.1072 2.32031C23.7322 1.7526 24.5759 1.46875 25.6384 1.46875C26.7061 1.46875 27.5525 1.7526 28.1775 2.32031C28.8025 2.88802 29.115 3.65625 29.115 4.625ZM27.4666 9.80469C27.4666 9.24219 27.2973 8.78906 26.9587 8.44531C26.6254 8.09635 26.1827 7.92188 25.6306 7.92188C25.0785 7.92188 24.6358 8.09375 24.3025 8.4375C23.9744 8.78125 23.8103 9.23698 23.8103 9.80469C23.8103 10.362 23.9718 10.8073 24.2947 11.1406C24.6228 11.474 25.0733 11.6406 25.6462 11.6406C26.2192 11.6406 26.6645 11.4792 26.9822 11.1562C27.3051 10.8333 27.4666 10.3828 27.4666 9.80469ZM27.2244 4.69531C27.2244 4.20052 27.0811 3.79427 26.7947 3.47656C26.5082 3.15365 26.1228 2.99219 25.6384 2.99219C25.1541 2.99219 24.7712 3.14583 24.49 3.45312C24.2087 3.75521 24.0681 4.16927 24.0681 4.69531C24.0681 5.21615 24.2087 5.63021 24.49 5.9375C24.7765 6.24479 25.1619 6.39844 25.6462 6.39844C26.1306 6.39844 26.5134 6.24479 26.7947 5.9375C27.0811 5.63021 27.2244 5.21615 27.2244 4.69531ZM41.5006 13H39.5319V7.94531H34.4459V13H32.4694V1.625H34.4459V6.35938H39.5319V1.625H41.5006V13ZM48.5034 13.1562C47.3003 13.1562 46.3237 12.7786 45.5737 12.0234C44.829 11.263 44.4566 10.2526 44.4566 8.99219V8.75781C44.4566 7.91406 44.618 7.16146 44.9409 6.5C45.2691 5.83333 45.7274 5.3151 46.3159 4.94531C46.9045 4.57552 47.5607 4.39062 48.2847 4.39062C49.4357 4.39062 50.3237 4.75781 50.9487 5.49219C51.579 6.22656 51.8941 7.26562 51.8941 8.60938V9.375H46.3706C46.4279 10.0729 46.6597 10.625 47.0659 11.0312C47.4774 11.4375 47.993 11.6406 48.6128 11.6406C49.4826 11.6406 50.1909 11.2891 50.7378 10.5859L51.7612 11.5625C51.4227 12.0677 50.9696 12.4609 50.4019 12.7422C49.8394 13.0182 49.2066 13.1562 48.5034 13.1562ZM48.2769 5.91406C47.756 5.91406 47.3342 6.09635 47.0112 6.46094C46.6935 6.82552 46.4904 7.33333 46.4019 7.98438H50.0191V7.84375C49.9774 7.20833 49.8081 6.72917 49.5112 6.40625C49.2144 6.07812 48.8029 5.91406 48.2769 5.91406ZM55.1625 13V5.95312H53.8734V4.54688H55.1625V3.77344C55.1625 2.83594 55.4229 2.11198 55.9437 1.60156C56.4646 1.09115 57.1937 0.835938 58.1312 0.835938C58.4646 0.835938 58.8187 0.882812 59.1937 0.976562L59.1469 2.46094C58.9385 2.41927 58.6964 2.39844 58.4203 2.39844C57.5141 2.39844 57.0609 2.86458 57.0609 3.79688V4.54688H58.7797V5.95312H57.0609V13H55.1625ZM63.3606 6.44531H64.5169C65.1002 6.4401 65.5611 6.28906 65.8997 5.99219C66.2434 5.69531 66.4153 5.26562 66.4153 4.70312C66.4153 4.16146 66.2721 3.74219 65.9856 3.44531C65.7044 3.14323 65.2721 2.99219 64.6888 2.99219C64.1783 2.99219 63.7591 3.14062 63.4309 3.4375C63.1028 3.72917 62.9388 4.11198 62.9388 4.58594H61.0403C61.0403 4.0026 61.194 3.47135 61.5013 2.99219C61.8138 2.51302 62.246 2.14062 62.7981 1.875C63.3554 1.60417 63.9778 1.46875 64.6653 1.46875C65.8007 1.46875 66.6914 1.75521 67.3372 2.32812C67.9882 2.89583 68.3138 3.6875 68.3138 4.70312C68.3138 5.21354 68.1497 5.69531 67.8216 6.14844C67.4986 6.59635 67.0794 6.9349 66.5638 7.16406C67.1888 7.3776 67.6627 7.71354 67.9856 8.17188C68.3138 8.63021 68.4778 9.17708 68.4778 9.8125C68.4778 10.8333 68.1263 11.6458 67.4231 12.25C66.7252 12.8542 65.8059 13.1562 64.6653 13.1562C63.5716 13.1562 62.6757 12.8646 61.9778 12.2812C61.2799 11.6979 60.9309 10.9219 60.9309 9.95312H62.8294C62.8294 10.4531 62.996 10.8594 63.3294 11.1719C63.6679 11.4844 64.121 11.6406 64.6888 11.6406C65.2773 11.6406 65.7408 11.4844 66.0794 11.1719C66.4179 10.8594 66.5872 10.4062 66.5872 9.8125C66.5872 9.21354 66.4101 8.7526 66.0559 8.42969C65.7018 8.10677 65.1757 7.94531 64.4778 7.94531H63.3606V6.44531ZM79.0275 13H71.3791V11.6953L75.1681 7.5625C75.715 6.95312 76.103 6.44531 76.3322 6.03906C76.5666 5.6276 76.6837 5.21615 76.6837 4.80469C76.6837 4.26302 76.5301 3.82552 76.2228 3.49219C75.9207 3.15885 75.5119 2.99219 74.9962 2.99219C74.3817 2.99219 73.9051 3.17969 73.5666 3.55469C73.228 3.92969 73.0587 4.44271 73.0587 5.09375H71.1603C71.1603 4.40104 71.3166 3.77865 71.6291 3.22656C71.9468 2.66927 72.3973 2.23698 72.9806 1.92969C73.5692 1.6224 74.2462 1.46875 75.0119 1.46875C76.116 1.46875 76.9858 1.7474 77.6212 2.30469C78.2619 2.85677 78.5822 3.6224 78.5822 4.60156C78.5822 5.16927 78.4207 5.76562 78.0978 6.39062C77.7801 7.01042 77.2567 7.71615 76.5275 8.50781L73.7462 11.4844H79.0275V13ZM5.61719 44.7969H3.86719L3.27344 48H1.96094L2.55469 44.7969H0.75V43.5625H2.78906L3.24219 41.1172H1.34375V39.875H3.47656L4.08594 36.625H5.39062L4.78125 39.875H6.53906L7.14844 36.625H8.45312L7.84375 39.875H9.46875V41.1172H7.60938L7.15625 43.5625H8.88281V44.7969H6.92188L6.32812 48H5.02344L5.61719 44.7969ZM4.10156 43.5625H5.85156L6.30469 41.1172H4.55469L4.10156 43.5625ZM19.1512 43.2109C19.1512 44.8464 18.844 46.0807 18.2294 46.9141C17.62 47.7422 16.6903 48.1562 15.4403 48.1562C14.2111 48.1562 13.2841 47.7526 12.6591 46.9453C12.0393 46.1328 11.7216 44.9323 11.7059 43.3438V41.375C11.7059 39.7396 12.0106 38.513 12.62 37.6953C13.2346 36.8776 14.1695 36.4688 15.4247 36.4688C16.6695 36.4688 17.5966 36.8672 18.2059 37.6641C18.8205 38.4609 19.1356 39.6536 19.1512 41.2422V43.2109ZM17.2528 41.0859C17.2528 40.0182 17.107 39.237 16.8153 38.7422C16.5236 38.2422 16.0601 37.9922 15.4247 37.9922C14.8049 37.9922 14.3492 38.2292 14.0575 38.7031C13.7658 39.1719 13.6122 39.9062 13.5966 40.9062V43.4844C13.5966 44.5469 13.745 45.3385 14.0419 45.8594C14.3387 46.3802 14.8049 46.6406 15.4403 46.6406C16.0497 46.6406 16.5002 46.401 16.7919 45.9219C17.0835 45.4375 17.2372 44.6823 17.2528 43.6562V41.0859ZM29.365 43.2109C29.365 44.8464 29.0577 46.0807 28.4431 46.9141C27.8337 47.7422 26.9041 48.1562 25.6541 48.1562C24.4249 48.1562 23.4978 47.7526 22.8728 46.9453C22.253 46.1328 21.9353 44.9323 21.9197 43.3438V41.375C21.9197 39.7396 22.2244 38.513 22.8337 37.6953C23.4483 36.8776 24.3832 36.4688 25.6384 36.4688C26.8832 36.4688 27.8103 36.8672 28.4197 37.6641C29.0343 38.4609 29.3494 39.6536 29.365 41.2422V43.2109ZM27.4666 41.0859C27.4666 40.0182 27.3207 39.237 27.0291 38.7422C26.7374 38.2422 26.2739 37.9922 25.6384 37.9922C25.0186 37.9922 24.5629 38.2292 24.2712 38.7031C23.9796 39.1719 23.8259 39.9062 23.8103 40.9062V43.4844C23.8103 44.5469 23.9587 45.3385 24.2556 45.8594C24.5525 46.3802 25.0186 46.6406 25.6541 46.6406C26.2634 46.6406 26.714 46.401 27.0056 45.9219C27.2973 45.4375 27.4509 44.6823 27.4666 43.6562V41.0859ZM39.3288 39.625C39.3288 40.1823 39.1855 40.6797 38.8991 41.1172C38.6126 41.5495 38.222 41.8906 37.7272 42.1406C38.3209 42.4167 38.7767 42.7943 39.0944 43.2734C39.4173 43.7526 39.5788 44.2943 39.5788 44.8984C39.5788 45.8984 39.2402 46.6927 38.5631 47.2812C37.886 47.8646 36.985 48.1562 35.86 48.1562C34.7298 48.1562 33.8235 47.862 33.1413 47.2734C32.4642 46.6849 32.1256 45.8932 32.1256 44.8984C32.1256 44.2891 32.2871 43.7422 32.61 43.2578C32.9329 42.7734 33.386 42.401 33.9694 42.1406C33.4798 41.8906 33.0918 41.5495 32.8053 41.1172C32.5241 40.6797 32.3834 40.1823 32.3834 39.625C32.3834 38.6562 32.6959 37.888 33.3209 37.3203C33.9459 36.7526 34.7897 36.4688 35.8522 36.4688C36.9199 36.4688 37.7663 36.7526 38.3913 37.3203C39.0163 37.888 39.3288 38.6562 39.3288 39.625ZM37.6803 44.8047C37.6803 44.2422 37.511 43.7891 37.1725 43.4453C36.8392 43.0964 36.3965 42.9219 35.8444 42.9219C35.2923 42.9219 34.8496 43.0938 34.5163 43.4375C34.1881 43.7812 34.0241 44.237 34.0241 44.8047C34.0241 45.362 34.1855 45.8073 34.5084 46.1406C34.8366 46.474 35.2871 46.6406 35.86 46.6406C36.4329 46.6406 36.8782 46.4792 37.1959 46.1562C37.5189 45.8333 37.6803 45.3828 37.6803 44.8047ZM37.4381 39.6953C37.4381 39.2005 37.2949 38.7943 37.0084 38.4766C36.722 38.1536 36.3366 37.9922 35.8522 37.9922C35.3678 37.9922 34.985 38.1458 34.7038 38.4531C34.4225 38.7552 34.2819 39.1693 34.2819 39.6953C34.2819 40.2161 34.4225 40.6302 34.7038 40.9375C34.9902 41.2448 35.3756 41.3984 35.86 41.3984C36.3444 41.3984 36.7272 41.2448 37.0084 40.9375C37.2949 40.6302 37.4381 40.2161 37.4381 39.6953ZM42.8862 42.3594L43.5034 36.625H49.6128V38.2656H45.0816L44.7691 40.9844C45.2951 40.6823 45.8889 40.5312 46.5503 40.5312C47.6336 40.5312 48.4748 40.8776 49.0737 41.5703C49.6779 42.263 49.98 43.1953 49.98 44.3672C49.98 45.5234 49.6467 46.4453 48.98 47.1328C48.3133 47.8151 47.3993 48.1562 46.2378 48.1562C45.1961 48.1562 44.3316 47.862 43.6441 47.2734C42.9618 46.6797 42.592 45.8984 42.5347 44.9297H44.3706C44.4435 45.4818 44.6415 45.9062 44.9644 46.2031C45.2873 46.4948 45.7092 46.6406 46.23 46.6406C46.8133 46.6406 47.2665 46.4323 47.5894 46.0156C47.9175 45.599 48.0816 45.0312 48.0816 44.3125C48.0816 43.6198 47.9019 43.0729 47.5425 42.6719C47.1831 42.2656 46.6883 42.0625 46.0581 42.0625C45.7144 42.0625 45.4227 42.1094 45.1831 42.2031C44.9435 42.2917 44.6831 42.4688 44.4019 42.7344L42.8862 42.3594ZM57.0766 43.6172H54.8734V48H52.8969V36.625H56.8969C58.2094 36.625 59.2224 36.9193 59.9359 37.5078C60.6495 38.0964 61.0062 38.9479 61.0062 40.0625C61.0062 40.8229 60.8214 41.4609 60.4516 41.9766C60.087 42.487 59.5766 42.8802 58.9203 43.1562L61.475 47.8984V48H59.3578L57.0766 43.6172ZM54.8734 42.0312H56.9047C57.5714 42.0312 58.0922 41.8646 58.4672 41.5312C58.8422 41.1927 59.0297 40.7318 59.0297 40.1484C59.0297 39.5391 58.8552 39.0677 58.5062 38.7344C58.1625 38.401 57.6469 38.2292 56.9594 38.2188H54.8734V42.0312ZM71.8294 38.2188H68.2825V48H66.3216V38.2188H62.8059V36.625H71.8294V38.2188ZM76.2462 39.5469V48.75C76.2462 49.6146 76.0301 50.2734 75.5978 50.7266C75.1707 51.1849 74.5431 51.4141 73.715 51.4141C73.366 51.4141 73.0301 51.3698 72.7072 51.2812V49.7812C72.9051 49.8281 73.1291 49.8516 73.3791 49.8516C74.0093 49.8516 74.3322 49.5078 74.3478 48.8203V39.5469H76.2462ZM74.1837 37.3516C74.1837 37.0599 74.2749 36.8177 74.4572 36.625C74.6447 36.4323 74.9103 36.3359 75.2541 36.3359C75.5978 36.3359 75.8634 36.4323 76.0509 36.625C76.2384 36.8177 76.3322 37.0599 76.3322 37.3516C76.3322 37.638 76.2384 37.8776 76.0509 38.0703C75.8634 38.2578 75.5978 38.3516 75.2541 38.3516C74.9103 38.3516 74.6447 38.2578 74.4572 38.0703C74.2749 37.8776 74.1837 37.638 74.1837 37.3516ZM5.61719 79.7969H3.86719L3.27344 83H1.96094L2.55469 79.7969H0.75V78.5625H2.78906L3.24219 76.1172H1.34375V74.875H3.47656L4.08594 71.625H5.39062L4.78125 74.875H6.53906L7.14844 71.625H8.45312L7.84375 74.875H9.46875V76.1172H7.60938L7.15625 78.5625H8.88281V79.7969H6.92188L6.32812 83H5.02344L5.61719 79.7969ZM4.10156 78.5625H5.85156L6.30469 76.1172H4.55469L4.10156 78.5625ZM16.8778 83H14.9872V73.8672L12.1981 74.8203V73.2188L16.6356 71.5859H16.8778V83ZM29.5994 83H21.9509V81.6953L25.74 77.5625C26.2869 76.9531 26.6749 76.4453 26.9041 76.0391C27.1384 75.6276 27.2556 75.2161 27.2556 74.8047C27.2556 74.263 27.102 73.8255 26.7947 73.4922C26.4926 73.1589 26.0837 72.9922 25.5681 72.9922C24.9535 72.9922 24.477 73.1797 24.1384 73.5547C23.7999 73.9297 23.6306 74.4427 23.6306 75.0938H21.7322C21.7322 74.401 21.8884 73.7786 22.2009 73.2266C22.5186 72.6693 22.9692 72.237 23.5525 71.9297C24.141 71.6224 24.8181 71.4688 25.5837 71.4688C26.6879 71.4688 27.5577 71.7474 28.1931 72.3047C28.8337 72.8568 29.1541 73.6224 29.1541 74.6016C29.1541 75.1693 28.9926 75.7656 28.6697 76.3906C28.352 77.0104 27.8285 77.7161 27.0994 78.5078L24.3181 81.4844H29.5994V83ZM34.6647 72.4922V74.5469H36.1569V75.9531H34.6647V80.6719C34.6647 80.9948 34.7272 81.2292 34.8522 81.375C34.9824 81.5156 35.2116 81.5859 35.5397 81.5859C35.7584 81.5859 35.9798 81.5599 36.2038 81.5078V82.9766C35.7715 83.0964 35.3548 83.1562 34.9538 83.1562C33.4954 83.1562 32.7663 82.3516 32.7663 80.7422V75.9531H31.3756V74.5469H32.7663V72.4922H34.6647ZM43.1597 76.2812C42.9097 76.2396 42.6519 76.2188 42.3862 76.2188C41.5165 76.2188 40.9305 76.5521 40.6284 77.2188V83H38.73V74.5469H40.5425L40.5894 75.4922C41.0477 74.7578 41.6831 74.3906 42.4956 74.3906C42.7665 74.3906 42.9904 74.4271 43.1675 74.5L43.1597 76.2812ZM53.0062 83H45.3578V81.6953L49.1469 77.5625C49.6937 76.9531 50.0818 76.4453 50.3109 76.0391C50.5453 75.6276 50.6625 75.2161 50.6625 74.8047C50.6625 74.263 50.5089 73.8255 50.2016 73.4922C49.8995 73.1589 49.4906 72.9922 48.975 72.9922C48.3604 72.9922 47.8839 73.1797 47.5453 73.5547C47.2068 73.9297 47.0375 74.4427 47.0375 75.0938H45.1391C45.1391 74.401 45.2953 73.7786 45.6078 73.2266C45.9255 72.6693 46.376 72.237 46.9594 71.9297C47.5479 71.6224 48.225 71.4688 48.9906 71.4688C50.0948 71.4688 50.9646 71.7474 51.6 72.3047C52.2406 72.8568 52.5609 73.6224 52.5609 74.6016C52.5609 75.1693 52.3995 75.7656 52.0766 76.3906C51.7589 77.0104 51.2354 77.7161 50.5062 78.5078L47.725 81.4844H53.0062V83ZM57.7669 76.4453H58.9231C59.5065 76.4401 59.9674 76.2891 60.3059 75.9922C60.6497 75.6953 60.8216 75.2656 60.8216 74.7031C60.8216 74.1615 60.6783 73.7422 60.3919 73.4453C60.1106 73.1432 59.6783 72.9922 59.095 72.9922C58.5846 72.9922 58.1653 73.1406 57.8372 73.4375C57.5091 73.7292 57.345 74.112 57.345 74.5859H55.4466C55.4466 74.0026 55.6002 73.4714 55.9075 72.9922C56.22 72.513 56.6523 72.1406 57.2044 71.875C57.7617 71.6042 58.3841 71.4688 59.0716 71.4688C60.207 71.4688 61.0976 71.7552 61.7434 72.3281C62.3945 72.8958 62.72 73.6875 62.72 74.7031C62.72 75.2135 62.5559 75.6953 62.2278 76.1484C61.9049 76.5964 61.4856 76.9349 60.97 77.1641C61.595 77.3776 62.069 77.7135 62.3919 78.1719C62.72 78.6302 62.8841 79.1771 62.8841 79.8125C62.8841 80.8333 62.5325 81.6458 61.8294 82.25C61.1315 82.8542 60.2122 83.1562 59.0716 83.1562C57.9778 83.1562 57.082 82.8646 56.3841 82.2812C55.6861 81.6979 55.3372 80.9219 55.3372 79.9531H57.2356C57.2356 80.4531 57.4023 80.8594 57.7356 81.1719C58.0742 81.4844 58.5273 81.6406 59.095 81.6406C59.6835 81.6406 60.1471 81.4844 60.4856 81.1719C60.8242 80.8594 60.9934 80.4062 60.9934 79.8125C60.9934 79.2135 60.8164 78.7526 60.4622 78.4297C60.108 78.1068 59.582 77.9453 58.8841 77.9453H57.7669V76.4453ZM75.1212 83H73.1525V77.9453H68.0666V83H66.09V71.625H68.0666V76.3594H73.1525V71.625H75.1212V83ZM5.61719 114.797H3.86719L3.27344 118H1.96094L2.55469 114.797H0.75V113.562H2.78906L3.24219 111.117H1.34375V109.875H3.47656L4.08594 106.625H5.39062L4.78125 109.875H6.53906L7.14844 106.625H8.45312L7.84375 109.875H9.46875V111.117H7.60938L7.15625 113.562H8.88281V114.797H6.92188L6.32812 118H5.02344L5.61719 114.797ZM4.10156 113.562H5.85156L6.30469 111.117H4.55469L4.10156 113.562ZM19.3856 118H11.7372V116.695L15.5262 112.562C16.0731 111.953 16.4611 111.445 16.6903 111.039C16.9247 110.628 17.0419 110.216 17.0419 109.805C17.0419 109.263 16.8882 108.826 16.5809 108.492C16.2789 108.159 15.87 107.992 15.3544 107.992C14.7398 107.992 14.2632 108.18 13.9247 108.555C13.5861 108.93 13.4169 109.443 13.4169 110.094H11.5184C11.5184 109.401 11.6747 108.779 11.9872 108.227C12.3049 107.669 12.7554 107.237 13.3387 106.93C13.9273 106.622 14.6044 106.469 15.37 106.469C16.4742 106.469 17.344 106.747 17.9794 107.305C18.62 107.857 18.9403 108.622 18.9403 109.602C18.9403 110.169 18.7789 110.766 18.4559 111.391C18.1382 112.01 17.6148 112.716 16.8856 113.508L14.1044 116.484H19.3856V118ZM29.115 109.625C29.115 110.182 28.9718 110.68 28.6853 111.117C28.3989 111.549 28.0082 111.891 27.5134 112.141C28.1072 112.417 28.5629 112.794 28.8806 113.273C29.2035 113.753 29.365 114.294 29.365 114.898C29.365 115.898 29.0265 116.693 28.3494 117.281C27.6723 117.865 26.7712 118.156 25.6462 118.156C24.516 118.156 23.6098 117.862 22.9275 117.273C22.2504 116.685 21.9119 115.893 21.9119 114.898C21.9119 114.289 22.0733 113.742 22.3962 113.258C22.7192 112.773 23.1723 112.401 23.7556 112.141C23.266 111.891 22.878 111.549 22.5916 111.117C22.3103 110.68 22.1697 110.182 22.1697 109.625C22.1697 108.656 22.4822 107.888 23.1072 107.32C23.7322 106.753 24.5759 106.469 25.6384 106.469C26.7061 106.469 27.5525 106.753 28.1775 107.32C28.8025 107.888 29.115 108.656 29.115 109.625ZM27.4666 114.805C27.4666 114.242 27.2973 113.789 26.9587 113.445C26.6254 113.096 26.1827 112.922 25.6306 112.922C25.0785 112.922 24.6358 113.094 24.3025 113.438C23.9744 113.781 23.8103 114.237 23.8103 114.805C23.8103 115.362 23.9718 115.807 24.2947 116.141C24.6228 116.474 25.0733 116.641 25.6462 116.641C26.2192 116.641 26.6645 116.479 26.9822 116.156C27.3051 115.833 27.4666 115.383 27.4666 114.805ZM27.2244 109.695C27.2244 109.201 27.0811 108.794 26.7947 108.477C26.5082 108.154 26.1228 107.992 25.6384 107.992C25.1541 107.992 24.7712 108.146 24.49 108.453C24.2087 108.755 24.0681 109.169 24.0681 109.695C24.0681 110.216 24.2087 110.63 24.49 110.938C24.7765 111.245 25.1619 111.398 25.6462 111.398C26.1306 111.398 26.5134 111.245 26.7947 110.938C27.0811 110.63 27.2244 110.216 27.2244 109.695ZM41.5006 118H39.5319V112.945H34.4459V118H32.4694V106.625H34.4459V111.359H39.5319V106.625H41.5006V118ZM48.5034 118.156C47.3003 118.156 46.3237 117.779 45.5737 117.023C44.829 116.263 44.4566 115.253 44.4566 113.992V113.758C44.4566 112.914 44.618 112.161 44.9409 111.5C45.2691 110.833 45.7274 110.315 46.3159 109.945C46.9045 109.576 47.5607 109.391 48.2847 109.391C49.4357 109.391 50.3237 109.758 50.9487 110.492C51.579 111.227 51.8941 112.266 51.8941 113.609V114.375H46.3706C46.4279 115.073 46.6597 115.625 47.0659 116.031C47.4774 116.438 47.993 116.641 48.6128 116.641C49.4826 116.641 50.1909 116.289 50.7378 115.586L51.7612 116.562C51.4227 117.068 50.9696 117.461 50.4019 117.742C49.8394 118.018 49.2066 118.156 48.5034 118.156ZM48.2769 110.914C47.756 110.914 47.3342 111.096 47.0112 111.461C46.6935 111.826 46.4904 112.333 46.4019 112.984H50.0191V112.844C49.9774 112.208 49.8081 111.729 49.5112 111.406C49.2144 111.078 48.8029 110.914 48.2769 110.914ZM55.1625 118V110.953H53.8734V109.547H55.1625V108.773C55.1625 107.836 55.4229 107.112 55.9437 106.602C56.4646 106.091 57.1937 105.836 58.1312 105.836C58.4646 105.836 58.8187 105.883 59.1937 105.977L59.1469 107.461C58.9385 107.419 58.6964 107.398 58.4203 107.398C57.5141 107.398 57.0609 107.865 57.0609 108.797V109.547H58.7797V110.953H57.0609V118H55.1625ZM63.3606 111.445H64.5169C65.1002 111.44 65.5611 111.289 65.8997 110.992C66.2434 110.695 66.4153 110.266 66.4153 109.703C66.4153 109.161 66.2721 108.742 65.9856 108.445C65.7044 108.143 65.2721 107.992 64.6888 107.992C64.1783 107.992 63.7591 108.141 63.4309 108.438C63.1028 108.729 62.9388 109.112 62.9388 109.586H61.0403C61.0403 109.003 61.194 108.471 61.5013 107.992C61.8138 107.513 62.246 107.141 62.7981 106.875C63.3554 106.604 63.9778 106.469 64.6653 106.469C65.8007 106.469 66.6914 106.755 67.3372 107.328C67.9882 107.896 68.3138 108.688 68.3138 109.703C68.3138 110.214 68.1497 110.695 67.8216 111.148C67.4986 111.596 67.0794 111.935 66.5638 112.164C67.1888 112.378 67.6627 112.714 67.9856 113.172C68.3138 113.63 68.4778 114.177 68.4778 114.812C68.4778 115.833 68.1263 116.646 67.4231 117.25C66.7252 117.854 65.8059 118.156 64.6653 118.156C63.5716 118.156 62.6757 117.865 61.9778 117.281C61.2799 116.698 60.9309 115.922 60.9309 114.953H62.8294C62.8294 115.453 62.996 115.859 63.3294 116.172C63.6679 116.484 64.121 116.641 64.6888 116.641C65.2773 116.641 65.7408 116.484 66.0794 116.172C66.4179 115.859 66.5872 115.406 66.5872 114.812C66.5872 114.214 66.4101 113.753 66.0559 113.43C65.7018 113.107 65.1757 112.945 64.4778 112.945H63.3606V111.445ZM79.0275 118H71.3791V116.695L75.1681 112.562C75.715 111.953 76.103 111.445 76.3322 111.039C76.5666 110.628 76.6837 110.216 76.6837 109.805C76.6837 109.263 76.5301 108.826 76.2228 108.492C75.9207 108.159 75.5119 107.992 74.9962 107.992C74.3817 107.992 73.9051 108.18 73.5666 108.555C73.228 108.93 73.0587 109.443 73.0587 110.094H71.1603C71.1603 109.401 71.3166 108.779 71.6291 108.227C71.9468 107.669 72.3973 107.237 72.9806 106.93C73.5692 106.622 74.2462 106.469 75.0119 106.469C76.116 106.469 76.9858 106.747 77.6212 107.305C78.2619 107.857 78.5822 108.622 78.5822 109.602C78.5822 110.169 78.4207 110.766 78.0978 111.391C77.7801 112.01 77.2567 112.716 76.5275 113.508L73.7462 116.484H79.0275V118Z" fill="#CCCCCC"/>
</svg>
