<svg width="184" height="184" viewBox="0 0 184 184" fill="none" xmlns="http://www.w3.org/2000/svg">
<path opacity="0.15" d="M129.118 144.257H127.204V125.613C127.212 124.894 127.069 124.182 126.785 123.522C126.5 122.863 126.08 122.27 125.553 121.782C125.025 121.295 124.401 120.923 123.721 120.691C123.041 120.46 122.32 120.373 121.604 120.438L64.3984 124.621V172.966H121.462C122.947 172.962 124.369 172.371 125.419 171.322C126.468 170.272 127.059 168.85 127.062 167.366V163.822C127.121 163.47 127.145 163.114 127.133 162.759V153.402H129.047V144.258L129.118 144.257Z" fill="black"/>
<path d="M99.5599 90.5246C105.942 90.5246 111.115 85.3512 111.115 78.9696C111.115 72.5879 105.942 67.4146 99.5599 67.4146C93.1782 67.4146 88.0049 72.5879 88.0049 78.9696C88.0049 85.3512 93.1782 90.5246 99.5599 90.5246Z" fill="#61C0E4"/>
<path d="M99.559 88.2355C104.677 88.2355 108.826 84.0866 108.826 78.9685C108.826 73.8505 104.677 69.7015 99.559 69.7015C94.441 69.7015 90.292 73.8505 90.292 78.9685C90.292 84.0866 94.441 88.2355 99.559 88.2355Z" fill="#3C9FD9"/>
<path d="M104.369 76.9756C104.367 76.1983 104.057 75.4535 103.508 74.9039C102.958 74.3544 102.213 74.0447 101.436 74.0426H100.854V72.8696H99.5641V74.0426H98.3911V72.8696H97.1011V74.0426H95.4541V75.8026H96.6271V82.1956H95.4541V83.9556H97.0961V85.1286H98.3861V83.9556H99.5591V85.1286H100.854V83.9556H101.441C102.017 83.9532 102.581 83.7818 103.06 83.4625C103.54 83.1432 103.916 82.6902 104.141 82.1594C104.366 81.6287 104.43 81.0437 104.325 80.4768C104.221 79.91 103.952 79.3863 103.553 78.9706C103.814 78.7087 104.021 78.3974 104.161 78.0549C104.301 77.7125 104.372 77.3456 104.369 76.9756ZM101.495 82.1956H98.4451V79.9086H101.495C101.806 79.9096 102.104 80.0335 102.323 80.2533C102.543 80.473 102.667 80.7708 102.668 81.0816C102.636 81.3758 102.5 81.6491 102.285 81.853C102.071 82.0569 101.791 82.1782 101.495 82.1956ZM101.495 78.0896H98.4451V75.8026H101.495C101.806 75.8034 102.104 75.9272 102.324 76.147C102.543 76.3668 102.667 76.6647 102.668 76.9756C102.647 77.2741 102.515 77.5538 102.298 77.7599C102.081 77.966 101.794 78.0836 101.495 78.0896Z" fill="white"/>
<path d="M124.936 166.018L67.7305 170.201V121.856L124.936 117.674C125.653 117.603 126.377 117.685 127.06 117.914C127.743 118.143 128.37 118.514 128.899 119.003C129.428 119.492 129.847 120.088 130.13 120.75C130.412 121.413 130.551 122.128 130.536 122.849V160.065C130.511 161.576 129.923 163.023 128.887 164.124C127.852 165.224 126.443 165.9 124.936 166.018Z" fill="#3C9FD9"/>
<path d="M90.6279 112.145V125.897" stroke="white" stroke-width="1.436" stroke-miterlimit="10"/>
<path d="M90.6279 102.008V110.373" stroke="white" stroke-width="1.436" stroke-miterlimit="10"/>
<path d="M108.988 114.271V125.896" stroke="white" stroke-width="1.436" stroke-miterlimit="10"/>
<path d="M108.988 101.937V112.641" stroke="white" stroke-width="1.436" stroke-miterlimit="10"/>
<path d="M96.7236 112.641V125.897" stroke="white" stroke-width="1.436" stroke-miterlimit="10"/>
<path d="M96.7236 106.048V110.656" stroke="white" stroke-width="1.436" stroke-miterlimit="10"/>
<path d="M102.891 115.406V125.897" stroke="white" stroke-width="1.436" stroke-miterlimit="10"/>
<path d="M102.891 106.048V114.271" stroke="white" stroke-width="1.436" stroke-miterlimit="10"/>
<path d="M125.787 170.272H67.7305V121.927H125.786C126.392 121.925 126.992 122.044 127.551 122.275C128.111 122.506 128.619 122.846 129.047 123.274C129.475 123.702 129.815 124.21 130.046 124.77C130.277 125.329 130.396 125.929 130.394 126.535V165.665C130.395 166.27 130.277 166.869 130.046 167.429C129.814 167.988 129.475 168.496 129.047 168.924C128.619 169.352 128.111 169.692 127.552 169.923C126.992 170.154 126.393 170.272 125.787 170.272Z" fill="#61C0E4"/>
<path d="M132.45 150.707H120.75C120.256 150.709 119.766 150.614 119.309 150.426C118.852 150.238 118.437 149.962 118.087 149.612C117.738 149.263 117.461 148.848 117.273 148.391C117.086 147.933 116.99 147.444 116.993 146.95V145.39C116.99 144.895 117.086 144.406 117.273 143.948C117.461 143.491 117.738 143.076 118.087 142.727C118.437 142.377 118.852 142.101 119.309 141.913C119.766 141.725 120.256 141.63 120.75 141.633H132.45V150.707Z" fill="#FA6975"/>
<path d="M120.896 147.941C121.914 147.941 122.739 147.116 122.739 146.098C122.739 145.081 121.914 144.255 120.896 144.255C119.878 144.255 119.053 145.081 119.053 146.098C119.053 147.116 119.878 147.941 120.896 147.941Z" fill="#296D94"/>
<path opacity="0.15" d="M75.0315 121.927H67.7305V170.272H75.0315V121.927Z" fill="black"/>
<path d="M71.1332 68.4065L48.8042 86.0575C48.4035 86.3623 47.9015 86.5026 47.4009 86.4498C46.9002 86.397 46.4386 86.1551 46.1102 85.7735L36.1102 73.1555C35.8054 72.7548 35.6651 72.2529 35.7179 71.7522C35.7707 71.2515 36.0126 70.7899 36.3942 70.4615L58.7232 52.8105C59.1239 52.5058 59.6259 52.3655 60.1265 52.4182C60.6272 52.471 61.0888 52.7129 61.4172 53.0945L71.4172 65.7125C71.5843 65.9042 71.71 66.1282 71.7866 66.3706C71.8632 66.613 71.8889 66.8686 71.8623 67.1214C71.8356 67.3742 71.7571 67.6189 71.6317 67.84C71.5062 68.0611 71.3366 68.254 71.1332 68.4065Z" fill="#FA6975"/>
<path d="M64.6431 57.1535L39.3047 77.2235L42.4738 81.2245L67.8122 61.1545L64.6431 57.1535Z" fill="white"/>
<path d="M42.7919 70.9237L39.3467 73.6525L39.9626 74.4301L43.4078 71.7013L42.7919 70.9237Z" fill="#61C0E4"/>
<path d="M47.3309 67.3507L43.8857 70.0795L44.5017 70.8571L47.9469 68.1283L47.3309 67.3507Z" fill="#61C0E4"/>
<path d="M66.9513 65.2165C66.8478 65.0768 66.7167 64.9598 66.5661 64.8728C66.4156 64.7857 66.2487 64.7305 66.076 64.7106C65.9032 64.6906 65.7282 64.7063 65.5618 64.7567C65.3953 64.8071 65.241 64.8911 65.1083 65.0035L64.8953 65.1455L64.5413 64.7205L64.0413 65.0745L64.3953 65.4995L63.9703 65.8535L63.6163 65.4285L63.1163 65.7825L63.4703 66.2075L62.9033 66.7075L63.4033 67.3455L63.8283 66.9915L65.6713 69.2595L65.2463 69.6135L65.7463 70.2515L66.3133 69.7515L66.6673 70.1765L67.1673 69.8225L66.8133 69.3975L67.2383 69.0435L67.5923 69.4685L68.0923 69.1145L67.7383 68.6895L67.9513 68.5475C68.091 68.444 68.208 68.3129 68.2951 68.1623C68.3821 68.0118 68.4373 67.8449 68.4573 67.6722C68.4772 67.4994 68.4616 67.3244 68.4112 67.158C68.3608 66.9915 68.2767 66.8372 68.1643 66.7045C67.9445 66.4474 67.6449 66.2714 67.3133 66.2045C67.2678 65.8523 67.1441 65.5147 66.9513 65.2165ZM67.3763 67.9105L66.2423 68.7615L65.6043 67.9105L66.7383 67.0595C66.7876 67.0135 66.8462 66.9786 66.9101 66.957C66.974 66.9354 67.0418 66.9277 67.1089 66.9345C67.176 66.9412 67.2409 66.9622 67.2993 66.996C67.3576 67.0298 67.4081 67.0756 67.4473 67.1305C67.5408 67.2436 67.5857 67.389 67.5724 67.5351C67.5591 67.6812 67.4887 67.8162 67.3763 67.9105ZM66.2423 66.4215L65.1083 67.2725L64.4703 66.4215L65.6043 65.5705C65.6536 65.5245 65.7122 65.4896 65.7761 65.468C65.84 65.4464 65.9078 65.4387 65.9749 65.4455C66.042 65.4522 66.1069 65.4732 66.1653 65.507C66.2236 65.5408 66.2741 65.5866 66.3133 65.6415C66.4543 65.9285 66.4543 66.2795 66.2423 66.4215Z" fill="white"/>
<path d="M50.7512 82.0409C51.7024 81.2875 51.8627 79.9057 51.1093 78.9545C50.3559 78.0034 48.9741 77.8431 48.023 78.5965C47.0718 79.3498 46.9115 80.7316 47.6649 81.6828C48.4183 82.6339 49.8001 82.7942 50.7512 82.0409Z" fill="white"/>
<path d="M53.217 80.0589C54.1682 79.3055 54.3285 77.9237 53.5751 76.9725C52.8217 76.0214 51.44 75.8611 50.4888 76.6145C49.5377 77.3678 49.3773 78.7496 50.1307 79.7008C50.8841 80.6519 52.2659 80.8122 53.217 80.0589Z" fill="white"/>
<path d="M51.1426 78.8976C51.4668 79.3532 51.6415 79.8983 51.6426 80.4576C51.3594 80.4244 51.0865 80.3314 50.842 80.1847C50.5976 80.0379 50.3871 79.8409 50.2246 79.6066C49.9004 79.1509 49.7257 78.6058 49.7246 78.0466C50.2617 78.2056 50.7496 78.4984 51.1426 78.8976Z" fill="#FF756E"/>
<g opacity="0.18">
<path opacity="0.18" d="M98.7086 0.000512143V0.709513C75.1766 0.700512 52.4187 9.11535 34.5532 24.4313C16.6877 39.7472 4.89481 60.9524 1.30862 84.2095L0.599609 84.0675C2.66598 70.8672 7.36404 58.2167 14.4148 46.8674C21.4655 35.5181 30.7251 25.7015 41.6436 18.0005C58.3371 6.22527 78.2801 -0.0653632 98.7086 0.000512143Z" fill="#18191D"/>
</g>
<g opacity="0.18">
<path opacity="0.18" d="M98.7104 14.8155C120.565 14.8103 141.568 23.2868 157.297 38.4597C173.026 53.6326 182.253 74.3176 183.034 96.1581C183.815 117.999 176.089 139.29 161.484 155.547C146.879 171.805 126.534 181.76 104.735 183.316L104.664 182.678C148.264 179.63 182.427 142.91 182.427 99.1015C182.431 82.7735 177.663 66.8004 168.711 53.1454C159.758 39.4904 147.011 28.7486 132.036 22.2403C117.062 15.732 100.511 13.7409 84.4203 16.5116C68.3291 19.2823 53.398 26.6941 41.4623 37.836C29.5266 48.978 21.1064 63.3645 17.2366 79.2273C13.3669 95.0901 14.2162 111.738 19.6802 127.125C25.1442 142.511 34.9848 155.966 47.9924 165.835C61 175.705 76.6078 181.559 92.8974 182.678L92.8264 183.316C70.9869 181.832 50.5794 171.917 35.916 155.664C21.2526 139.412 13.4818 118.095 14.2458 96.2188C15.0097 74.3423 24.2484 53.6197 40.0098 38.4295C55.7713 23.2394 76.8207 14.7716 98.7104 14.8155Z" fill="#18191D"/>
</g>
<g opacity="0.18">
<g opacity="0.18">
<path opacity="0.18" d="M98.7091 7.65649C121.32 7.65597 143.133 16.0127 159.955 31.1205L159.175 31.9715C141.958 16.4889 119.456 8.20319 96.309 8.823C73.1624 9.44281 51.136 18.9209 34.7718 35.3027C18.4077 51.6846 8.95344 73.7212 8.35865 96.8685C7.76386 120.016 16.0739 142.509 31.5751 159.71L30.7241 160.49C18.8768 147.34 11.0949 131.039 8.32041 113.559C5.5459 96.0789 7.89772 78.1693 15.0912 61.998C22.2847 45.8268 34.0114 32.0874 48.8518 22.4429C63.6922 12.7984 81.0101 7.66238 98.7091 7.65649Z" fill="#18191D"/>
</g>
</g>
<path d="M39.2385 149.077C38.6732 149.074 38.1213 148.905 37.6513 148.591C37.1813 148.277 36.8139 147.831 36.5949 147.31C36.3758 146.789 36.3148 146.215 36.4192 145.66C36.5237 145.104 36.7891 144.591 37.1825 144.186L38.6005 142.768L35.4105 139.578L33.9925 140.996C33.5906 141.4 33.0772 141.675 32.5181 141.785C31.9589 141.896 31.3796 141.837 30.8542 141.616C30.3288 141.395 29.8813 141.022 29.569 140.545C29.2567 140.069 29.094 139.509 29.1015 138.94V136.884H24.6355V138.94C24.6325 139.505 24.4635 140.057 24.1495 140.527C23.8355 140.997 23.3902 141.364 22.8691 141.583C22.348 141.802 21.7741 141.863 21.2185 141.759C20.663 141.654 20.1504 141.389 19.7445 140.996L18.3265 139.578L15.1365 142.768L16.5545 144.186C16.9586 144.587 17.2335 145.101 17.344 145.66C17.4545 146.219 17.3955 146.798 17.1747 147.324C16.9538 147.849 16.5811 148.297 16.1043 148.609C15.6275 148.921 15.0684 149.084 14.4985 149.077H12.4385V153.543H14.4945C15.0597 153.545 15.6117 153.714 16.0817 154.029C16.5517 154.343 16.919 154.788 17.1381 155.309C17.3571 155.83 17.4182 156.404 17.3138 156.96C17.2093 157.515 16.9439 158.028 16.5505 158.434L15.1325 159.852L18.3225 163.042L19.7405 161.624C20.1424 161.219 20.6558 160.945 21.2149 160.834C21.774 160.724 22.3534 160.783 22.8788 161.003C23.4042 161.224 23.8517 161.597 24.164 162.074C24.4762 162.551 24.639 163.11 24.6315 163.68V165.736H29.0975V163.684C29.1005 163.118 29.2694 162.566 29.5835 162.096C29.8975 161.626 30.3428 161.259 30.8639 161.04C31.385 160.821 31.9589 160.76 32.5145 160.864C33.07 160.969 33.5826 161.234 33.9885 161.628L35.4065 163.046L38.5965 159.856L37.1785 158.438C36.7744 158.036 36.4995 157.522 36.389 156.963C36.2785 156.404 36.3375 155.825 36.5583 155.299C36.7792 154.774 37.1519 154.326 37.6287 154.014C38.1054 153.702 38.6646 153.539 39.2345 153.547H41.2905V149.081L39.2385 149.077ZM26.9045 156.237C25.9371 156.237 24.9915 155.95 24.1872 155.412C23.3829 154.875 22.756 154.111 22.3858 153.217C22.0156 152.324 21.9188 151.34 22.1075 150.391C22.2962 149.443 22.762 148.571 23.446 147.887C24.13 147.203 25.0015 146.737 25.9503 146.549C26.899 146.36 27.8825 146.457 28.7762 146.827C29.6699 147.197 30.4338 147.824 30.9712 148.628C31.5086 149.433 31.7955 150.378 31.7955 151.346C31.7929 152.643 31.276 153.886 30.3582 154.802C29.4404 155.719 28.1966 156.234 26.8995 156.236L26.9045 156.237Z" fill="#61C0E4"/>
<path d="M36.3277 151.345C36.3277 149.48 35.7747 147.657 34.7388 146.107C33.7028 144.556 32.2304 143.348 30.5076 142.634C28.7849 141.921 26.8892 141.734 25.0604 142.098C23.2315 142.462 21.5516 143.359 20.2331 144.678C18.9146 145.997 18.0166 147.676 17.6528 149.505C17.2891 151.334 17.4758 153.23 18.1894 154.953C18.9029 156.675 20.1113 158.148 21.6618 159.184C23.2122 160.22 25.035 160.773 26.8997 160.773C28.1379 160.773 29.3641 160.53 30.5082 160.056C31.6523 159.582 32.6919 158.888 33.5675 158.012C34.4431 157.137 35.1375 156.097 35.6111 154.953C36.0847 153.809 36.3282 152.583 36.3277 151.345ZM26.8997 156.236C25.9323 156.236 24.9867 155.949 24.1824 155.411C23.3781 154.874 22.7512 154.11 22.381 153.216C22.0108 152.323 21.9139 151.339 22.1027 150.39C22.2914 149.442 22.7572 148.57 23.4412 147.886C24.1252 147.202 24.9967 146.736 25.9455 146.548C26.8943 146.359 27.8777 146.456 28.7714 146.826C29.6651 147.196 30.429 147.823 30.9664 148.627C31.5038 149.432 31.7907 150.377 31.7907 151.345C31.7883 152.641 31.2723 153.884 30.3555 154.8C29.4388 155.717 28.1961 156.233 26.8997 156.236Z" fill="#61C0E4"/>
<path d="M156.339 67.4855C171.373 67.4855 183.56 55.2983 183.56 40.2645C183.56 25.2308 171.373 13.0435 156.339 13.0435C141.305 13.0435 129.118 25.2308 129.118 40.2645C129.118 55.2983 141.305 67.4855 156.339 67.4855Z" fill="#61C0E4"/>
<path d="M156.34 14.8155C151.321 14.8155 146.414 16.3039 142.241 19.0925C138.067 21.8811 134.815 25.8446 132.894 30.4818C130.973 35.119 130.47 40.2217 131.45 45.1445C132.429 50.0674 134.846 54.5893 138.395 58.1385C141.944 61.6877 146.466 64.1047 151.389 65.0839C156.312 66.0631 161.414 65.5605 166.052 63.6397C170.689 61.7189 174.652 58.4662 177.441 54.2928C180.23 50.1194 181.718 45.2128 181.718 40.1935C181.701 33.4681 179.022 27.0231 174.266 22.2675C169.51 17.5119 163.065 14.8327 156.34 14.8155ZM156.34 64.0155C152.44 64.0155 148.897 58.5575 147.196 50.7595C153.248 49.7198 159.433 49.7198 165.485 50.7595C163.712 58.4815 160.238 64.0155 156.34 64.0155ZM156.34 48.3495C153.178 48.345 150.022 48.6298 146.912 49.2005C146.463 46.5284 146.202 43.8281 146.132 41.1195H166.547C166.515 43.8304 166.254 46.5337 165.767 49.2005C162.657 48.6286 159.502 48.3424 156.34 48.3455V48.3495ZM156.34 16.4495C160.24 16.4495 163.783 21.9075 165.484 29.7055C162.463 30.2174 159.404 30.4783 156.34 30.4855C153.276 30.4783 150.217 30.2174 147.196 29.7055C148.896 21.9755 152.441 16.4455 156.34 16.4455V16.4495ZM156.34 32.1155C159.502 32.1201 162.658 31.8352 165.768 31.2645C166.217 33.9366 166.477 36.6369 166.548 39.3455H146.132C146.164 36.6347 146.425 33.9314 146.912 31.2645C150.022 31.8352 153.178 32.1201 156.34 32.1155ZM144.502 39.4155H132.592C132.731 35.3924 133.876 31.4684 135.924 28.0025C138.913 29.3011 142.023 30.2983 145.21 30.9795C144.783 33.7722 144.546 36.5907 144.501 39.4155H144.502ZM144.502 41.0455C144.534 43.8739 144.795 46.6951 145.282 49.4815C142.095 50.1627 138.985 51.16 135.996 52.4585C133.938 48.9963 132.791 45.0691 132.662 41.0435L144.502 41.0455ZM168.178 41.0455H180.087C179.948 45.0686 178.802 48.9926 176.755 52.4585C173.766 51.16 170.656 50.1627 167.469 49.4815C167.861 46.6841 168.098 43.8671 168.178 41.0435V41.0455ZM168.178 39.4155C168.149 36.6104 167.888 33.8126 167.398 31.0505C170.585 30.3693 173.695 29.3721 176.684 28.0735C178.741 31.5354 179.887 35.4618 180.016 39.4865H168.178V39.4155ZM175.834 26.6555C173.03 27.8733 170.108 28.7998 167.115 29.4205C165.91 23.8205 163.783 19.4205 161.16 16.9445C167.098 18.2216 172.337 21.6879 175.834 26.6535V26.6555ZM151.52 16.9435C148.897 19.4245 146.771 23.8195 145.565 29.4195C142.569 28.8092 139.646 27.8823 136.846 26.6545C140.342 21.6881 145.581 18.2206 151.519 16.9425L151.52 16.9435ZM136.846 53.8035C139.65 52.5858 142.572 51.6593 145.565 51.0385C146.77 56.6385 148.897 61.0385 151.52 63.5145C145.582 62.2369 140.343 58.7698 136.846 53.8035ZM161.162 63.5155C163.785 61.0345 165.911 56.6395 167.117 51.0395C170.113 51.6498 173.036 52.5767 175.836 53.8045C172.339 58.7709 167.1 62.238 161.162 63.5155Z" fill="white"/>
<path d="M146.841 114.483L132.876 102.361C132.633 102.137 132.484 101.831 132.457 101.502C132.431 101.174 132.53 100.847 132.734 100.589L139.539 92.7205C139.762 92.4777 140.069 92.3282 140.397 92.3018C140.726 92.2755 141.052 92.3743 141.311 92.5785L155.276 104.701C155.519 104.924 155.668 105.23 155.695 105.559C155.721 105.887 155.622 106.214 155.418 106.473L148.613 114.341C148.511 114.474 148.383 114.585 148.236 114.665C148.089 114.746 147.926 114.795 147.759 114.808C147.591 114.821 147.423 114.799 147.265 114.743C147.107 114.687 146.962 114.598 146.841 114.483Z" fill="#36B54F"/>
<path d="M135.206 97.7975L137.389 95.2785L153.252 109.022L151.069 111.541L135.206 97.7975Z" fill="white"/>
<path d="M141.799 96.7515L139.655 94.8945L139.237 95.3769L141.381 97.2338L141.799 96.7515Z" fill="#61C0E4"/>
<path d="M144.644 99.1824L142.501 97.3255L142.083 97.8078L144.226 99.6648L144.644 99.1824Z" fill="#61C0E4"/>
<path d="M148.33 111.435C148.475 111.263 148.548 111.042 148.534 110.818C148.521 110.594 148.423 110.383 148.259 110.23L148.117 110.088L148.33 109.804L148.046 109.52L147.833 109.804L147.549 109.591L147.762 109.307L147.478 109.023L147.265 109.307L146.911 108.953L146.557 109.378L146.841 109.591L145.636 111.009L145.352 110.796L144.998 111.221L145.352 111.575L145.139 111.859L145.423 112.143L145.636 111.859L145.92 112.072L145.707 112.356L145.991 112.64L146.204 112.356L146.346 112.498C146.518 112.642 146.739 112.715 146.963 112.702C147.187 112.689 147.397 112.59 147.551 112.427C147.684 112.24 147.759 112.018 147.764 111.789C147.988 111.741 148.189 111.615 148.33 111.435ZM146.7 112.073L145.991 111.506L146.416 111.006L147.125 111.573C147.159 111.605 147.186 111.643 147.205 111.686C147.224 111.729 147.233 111.776 147.233 111.823C147.233 111.869 147.224 111.916 147.205 111.959C147.186 112.002 147.159 112.04 147.125 112.073C147.066 112.125 146.99 112.154 146.912 112.154C146.833 112.154 146.757 112.125 146.698 112.073H146.7ZM147.48 111.151L146.771 110.584L147.196 110.084L147.905 110.651C147.939 110.683 147.967 110.721 147.985 110.764C148.004 110.807 148.014 110.854 148.014 110.901C148.014 110.947 148.004 110.994 147.985 111.037C147.967 111.08 147.939 111.119 147.905 111.151C147.847 111.203 147.771 111.233 147.693 111.233C147.614 111.234 147.538 111.205 147.479 111.154L147.48 111.151Z" fill="white"/>
<path d="M137.671 103.027C138.184 102.435 138.12 101.539 137.528 101.026C136.936 100.513 136.04 100.577 135.527 101.17C135.014 101.762 135.079 102.657 135.671 103.17C136.263 103.683 137.158 103.619 137.671 103.027Z" fill="white"/>
<path d="M139.231 104.364C139.744 103.772 139.68 102.876 139.088 102.363C138.496 101.85 137.6 101.914 137.087 102.506C136.574 103.099 136.638 103.994 137.23 104.507C137.822 105.02 138.718 104.956 139.231 104.364Z" fill="white"/>
<path d="M137.696 102.999C137.432 103.274 137.082 103.45 136.704 103.499C136.692 103.318 136.718 103.137 136.778 102.966C136.839 102.795 136.934 102.639 137.058 102.507C137.322 102.231 137.672 102.055 138.05 102.007C138.062 102.187 138.037 102.369 137.976 102.539C137.915 102.71 137.82 102.866 137.696 102.999Z" fill="#36B54F"/>
<path d="M45.4665 20.4485C44.7846 20.4449 44.1189 20.241 43.5519 19.8622C42.985 19.4833 42.5419 18.9462 42.2777 18.3176C42.0135 17.6891 41.9398 16.9967 42.0658 16.3266C42.1918 15.6565 42.512 15.0382 42.9865 14.5485L44.6965 12.8385L40.8475 8.99149L39.1375 10.7015C38.6526 11.1887 38.0333 11.52 37.3589 11.6531C36.6846 11.7863 35.9858 11.7151 35.3522 11.4487C34.7185 11.1824 34.1787 10.733 33.802 10.158C33.4253 9.58309 33.2287 8.90881 33.2375 8.2215V5.74249H27.8505V8.22249C27.8469 8.90434 27.643 9.57009 27.2641 10.137C26.8853 10.704 26.3482 11.1471 25.7196 11.4113C25.0911 11.6755 24.3987 11.7492 23.7285 11.6232C23.0584 11.4972 22.4401 11.177 21.9505 10.7025L20.2405 8.99249L16.3925 12.8405L18.1025 14.5505C18.5896 15.0354 18.921 15.6547 19.0541 16.329C19.1872 17.0034 19.1161 17.7021 18.8497 18.3358C18.5833 18.9695 18.134 19.5092 17.559 19.886C16.9841 20.2627 16.3098 20.4592 15.6225 20.4505H13.1475V25.8375H15.6275C16.3093 25.8411 16.9751 26.045 17.542 26.4238C18.109 26.8027 18.552 27.3398 18.8163 27.9683C19.0805 28.5969 19.1542 29.2893 19.0281 29.9594C18.9021 30.6295 18.582 31.2478 18.1075 31.7375L16.3975 33.4475L20.2455 37.2955L21.9555 35.5855C22.4404 35.0983 23.0597 34.767 23.734 34.6339C24.4084 34.5007 25.1071 34.5719 25.7408 34.8383C26.3744 35.1046 26.9142 35.554 27.2909 36.129C27.6677 36.7039 27.8642 37.3782 27.8555 38.0655V40.5455H33.2425V38.0655C33.2461 37.3836 33.45 36.7179 33.8288 36.151C34.2076 35.584 34.7447 35.1409 35.3733 34.8767C36.0019 34.6125 36.6943 34.5388 37.3644 34.6648C38.0345 34.7908 38.6528 35.111 39.1425 35.5855L40.8525 37.2955L44.7005 33.4475L42.9905 31.7375C42.5033 31.2526 42.1719 30.6333 42.0388 29.9589C41.9057 29.2846 41.9769 28.5858 42.2432 27.9522C42.5096 27.3185 42.959 26.7788 43.5339 26.402C44.1089 26.0253 44.7831 25.8287 45.4705 25.8375H47.9475V20.4505L45.4665 20.4485ZM30.5895 29.0845C29.4226 29.0845 28.2819 28.7385 27.3116 28.0902C26.3414 27.4419 25.5851 26.5204 25.1386 25.4423C24.692 24.3642 24.5752 23.1779 24.8028 22.0335C25.0305 20.889 25.5924 19.8377 26.4175 19.0126C27.2427 18.1874 28.294 17.6255 29.4384 17.3979C30.5829 17.1702 31.7692 17.287 32.8473 17.7336C33.9254 18.1802 34.8468 18.9364 35.4951 19.9066C36.1434 20.8769 36.4895 22.0176 36.4895 23.1845C36.4866 24.7484 35.864 26.2474 34.7582 27.3532C33.6523 28.459 32.1534 29.0816 30.5895 29.0845Z" fill="#FA6975"/>
<path d="M41.9618 23.1845C41.9618 20.9353 41.2948 18.7367 40.0452 16.8666C38.7957 14.9964 37.0196 13.5389 34.9416 12.6781C32.8637 11.8174 30.5771 11.5922 28.3712 12.031C26.1652 12.4698 24.1389 13.5529 22.5485 15.1433C20.9581 16.7337 19.8751 18.76 19.4363 20.9659C18.9975 23.1719 19.2227 25.4584 20.0834 27.5364C20.9441 29.6143 22.4017 31.3904 24.2718 32.64C26.1419 33.8896 28.3406 34.5565 30.5898 34.5565C32.0833 34.5572 33.5624 34.2635 34.9424 33.6922C36.3224 33.1209 37.5763 32.2833 38.6325 31.2272C39.6886 30.1711 40.5262 28.9172 41.0975 27.5372C41.6687 26.1571 41.9624 24.6781 41.9618 23.1845ZM30.5898 29.0845C29.4229 29.0845 28.2822 28.7385 27.3119 28.0902C26.3417 27.4419 25.5854 26.5204 25.1389 25.4423C24.6923 24.3642 24.5755 23.178 24.8031 22.0335C25.0308 20.889 25.5927 19.8377 26.4178 19.0126C27.243 18.1874 28.2942 17.6255 29.4387 17.3979C30.5832 17.1702 31.7695 17.2871 32.8476 17.7336C33.9257 18.1802 34.8471 18.9364 35.4954 19.9066C36.1437 20.8769 36.4898 22.0176 36.4898 23.1845C36.4866 24.748 35.8641 26.2466 34.7585 27.3522C33.6529 28.4578 32.1543 29.0803 30.5908 29.0835L30.5898 29.0845Z" fill="#FA6975"/>
<path d="M169.239 160.348C168.907 160.345 168.583 160.246 168.307 160.062C168.032 159.877 167.816 159.616 167.688 159.31C167.559 159.004 167.523 158.667 167.584 158.341C167.646 158.015 167.801 157.714 168.032 157.475L168.865 156.643L166.992 154.77L166.159 155.602C165.923 155.84 165.621 156.001 165.293 156.066C164.965 156.13 164.625 156.096 164.316 155.966C164.008 155.836 163.745 155.618 163.562 155.338C163.379 155.058 163.283 154.73 163.287 154.395V153.188H160.664V154.395C160.662 154.726 160.562 155.05 160.378 155.326C160.194 155.602 159.932 155.817 159.626 155.946C159.32 156.074 158.983 156.11 158.657 156.049C158.331 155.988 158.03 155.832 157.792 155.602L156.959 154.768L155.086 156.641L155.919 157.475C156.156 157.711 156.317 158.012 156.382 158.34C156.447 158.668 156.412 159.008 156.282 159.317C156.153 159.625 155.934 159.888 155.654 160.071C155.375 160.255 155.046 160.351 154.712 160.346H153.504V162.969H154.711C155.043 162.971 155.367 163.07 155.642 163.254C155.918 163.439 156.134 163.7 156.262 164.006C156.391 164.312 156.427 164.649 156.366 164.975C156.304 165.301 156.149 165.602 155.918 165.84L155.085 166.673L156.958 168.546L157.791 167.714C158.027 167.476 158.328 167.315 158.657 167.25C158.985 167.186 159.325 167.22 159.633 167.35C159.942 167.48 160.204 167.698 160.388 167.978C160.571 168.258 160.667 168.586 160.663 168.921V170.128H163.285V168.921C163.287 168.589 163.386 168.265 163.571 167.989C163.755 167.713 164.017 167.498 164.323 167.369C164.628 167.241 164.965 167.205 165.291 167.266C165.618 167.327 165.918 167.483 166.157 167.714L166.99 168.546L168.863 166.673L168.03 165.84C167.793 165.604 167.632 165.303 167.567 164.975C167.502 164.647 167.537 164.306 167.666 163.998C167.796 163.69 168.015 163.427 168.294 163.244C168.574 163.06 168.902 162.964 169.237 162.969H170.444V160.348H169.239ZM161.996 164.548C161.428 164.548 160.873 164.379 160.4 164.063C159.928 163.748 159.56 163.299 159.343 162.775C159.125 162.25 159.068 161.672 159.179 161.115C159.29 160.558 159.563 160.046 159.965 159.645C160.367 159.243 160.878 158.97 161.436 158.859C161.993 158.748 162.57 158.805 163.095 159.022C163.62 159.24 164.068 159.608 164.384 160.08C164.699 160.552 164.868 161.107 164.868 161.676C164.867 162.437 164.565 163.168 164.026 163.707C163.488 164.246 162.758 164.55 161.996 164.551V164.548Z" fill="#36B54F"/>
<path d="M167.532 161.679C167.532 160.585 167.207 159.514 166.599 158.604C165.991 157.693 165.126 156.984 164.115 156.565C163.103 156.146 161.99 156.036 160.916 156.25C159.842 156.463 158.856 156.991 158.081 157.765C157.307 158.539 156.78 159.526 156.566 160.599C156.353 161.673 156.462 162.786 156.881 163.798C157.3 164.81 158.01 165.674 158.92 166.283C159.831 166.891 160.901 167.215 161.996 167.215C162.723 167.216 163.443 167.073 164.115 166.795C164.787 166.517 165.397 166.109 165.911 165.595C166.425 165.081 166.833 164.47 167.111 163.798C167.389 163.127 167.532 162.407 167.532 161.679ZM161.996 164.551C161.428 164.551 160.873 164.383 160.4 164.067C159.928 163.752 159.56 163.303 159.343 162.779C159.125 162.254 159.068 161.676 159.179 161.119C159.29 160.562 159.563 160.05 159.965 159.649C160.367 159.247 160.879 158.973 161.436 158.863C161.993 158.752 162.57 158.809 163.095 159.026C163.62 159.243 164.068 159.612 164.384 160.084C164.7 160.556 164.868 161.111 164.868 161.679C164.867 162.441 164.564 163.171 164.025 163.71C163.487 164.248 162.757 164.551 161.995 164.552L161.996 164.551Z" fill="#36B54F"/>
<path d="M71.1332 68.4065L48.8042 86.0575C48.4035 86.3623 47.9015 86.5026 47.4009 86.4498C46.9002 86.397 46.4386 86.1551 46.1102 85.7735L36.1102 73.1555C35.8054 72.7548 35.6651 72.2529 35.7179 71.7522C35.7707 71.2515 36.0126 70.7899 36.3942 70.4615L58.7232 52.8105C59.1239 52.5058 59.6259 52.3655 60.1265 52.4182C60.6272 52.471 61.0888 52.7129 61.4172 53.0945L71.4172 65.7125C71.5843 65.9042 71.71 66.1282 71.7866 66.3706C71.8632 66.613 71.8889 66.8686 71.8623 67.1214C71.8356 67.3742 71.7571 67.6189 71.6317 67.84C71.5062 68.0611 71.3366 68.254 71.1332 68.4065Z" fill="#FA6975"/>
<path d="M64.6431 57.1535L39.3047 77.2235L42.4738 81.2245L67.8122 61.1545L64.6431 57.1535Z" fill="white"/>
<path d="M42.7919 70.9237L39.3467 73.6525L39.9626 74.4301L43.4078 71.7013L42.7919 70.9237Z" fill="#61C0E4"/>
<path d="M47.3309 67.3507L43.8857 70.0795L44.5017 70.8571L47.9469 68.1283L47.3309 67.3507Z" fill="#61C0E4"/>
<path d="M66.9513 65.2165C66.8478 65.0768 66.7167 64.9598 66.5661 64.8728C66.4156 64.7857 66.2487 64.7305 66.076 64.7106C65.9032 64.6906 65.7282 64.7063 65.5618 64.7567C65.3953 64.8071 65.241 64.8911 65.1083 65.0035L64.8953 65.1455L64.5413 64.7205L64.0413 65.0745L64.3953 65.4995L63.9703 65.8535L63.6163 65.4285L63.1163 65.7825L63.4703 66.2075L62.9033 66.7075L63.4033 67.3455L63.8283 66.9915L65.6713 69.2595L65.2463 69.6135L65.7463 70.2515L66.3133 69.7515L66.6673 70.1765L67.1673 69.8225L66.8133 69.3975L67.2383 69.0435L67.5923 69.4685L68.0923 69.1145L67.7383 68.6895L67.9513 68.5475C68.091 68.444 68.208 68.3129 68.2951 68.1623C68.3821 68.0118 68.4373 67.8449 68.4573 67.6722C68.4772 67.4994 68.4616 67.3244 68.4112 67.158C68.3608 66.9915 68.2767 66.8372 68.1643 66.7045C67.9445 66.4474 67.6449 66.2714 67.3133 66.2045C67.2678 65.8523 67.1441 65.5147 66.9513 65.2165ZM67.3763 67.9105L66.2423 68.7615L65.6043 67.9105L66.7383 67.0595C66.7876 67.0135 66.8462 66.9786 66.9101 66.957C66.974 66.9354 67.0418 66.9277 67.1089 66.9345C67.176 66.9412 67.2409 66.9622 67.2993 66.996C67.3576 67.0298 67.4081 67.0756 67.4473 67.1305C67.5408 67.2436 67.5857 67.389 67.5724 67.5351C67.5591 67.6812 67.4887 67.8162 67.3763 67.9105ZM66.2423 66.4215L65.1083 67.2725L64.4703 66.4215L65.6043 65.5705C65.6536 65.5245 65.7122 65.4896 65.7761 65.468C65.84 65.4464 65.9078 65.4387 65.9749 65.4455C66.042 65.4522 66.1069 65.4732 66.1653 65.507C66.2236 65.5408 66.2741 65.5866 66.3133 65.6415C66.4543 65.9285 66.4543 66.2795 66.2423 66.4215Z" fill="white"/>
<path d="M50.7512 82.0409C51.7024 81.2875 51.8627 79.9057 51.1093 78.9545C50.3559 78.0034 48.9741 77.8431 48.023 78.5965C47.0718 79.3498 46.9115 80.7316 47.6649 81.6828C48.4183 82.6339 49.8001 82.7942 50.7512 82.0409Z" fill="white"/>
<path d="M53.217 80.0589C54.1682 79.3055 54.3285 77.9237 53.5751 76.9725C52.8217 76.0214 51.44 75.8611 50.4888 76.6145C49.5377 77.3678 49.3773 78.7496 50.1307 79.7008C50.8841 80.6519 52.2659 80.8122 53.217 80.0589Z" fill="white"/>
<path d="M51.1426 78.8976C51.4668 79.3532 51.6415 79.8983 51.6426 80.4576C51.3594 80.4244 51.0865 80.3314 50.842 80.1847C50.5976 80.0379 50.3871 79.8409 50.2246 79.6066C49.9004 79.1509 49.7257 78.6058 49.7246 78.0466C50.2617 78.2056 50.7496 78.4984 51.1426 78.8976Z" fill="#FF756E"/>
</svg>
