<svg width="389" height="251" viewBox="0 0 389 251" fill="none" xmlns="http://www.w3.org/2000/svg">
<path d="M15.847 16.4873V19.5563C15.847 21.4263 15.385 22.8673 14.461 23.8793C13.559 24.8693 12.217 25.3643 10.435 25.3643C8.653 25.3643 7.3 24.8693 6.376 23.8793C5.474 22.8673 5.023 21.4263 5.023 19.5563V7.54434C5.023 5.67434 5.474 4.24434 6.376 3.25434C7.3 2.24234 8.653 1.73634 10.435 1.73634C12.217 1.73634 13.559 2.24234 14.461 3.25434C15.385 4.24434 15.847 5.67434 15.847 7.54434V9.78834H12.415V7.31334C12.415 6.47734 12.239 5.89434 11.887 5.56434C11.557 5.21234 11.106 5.03634 10.534 5.03634C9.962 5.03634 9.5 5.21234 9.148 5.56434C8.818 5.89434 8.653 6.47734 8.653 7.31334V19.7873C8.653 20.6233 8.818 21.2063 9.148 21.5363C9.5 21.8663 9.962 22.0313 10.534 22.0313C11.106 22.0313 11.557 21.8663 11.887 21.5363C12.239 21.2063 12.415 20.6233 12.415 19.7873V16.4873H15.847ZM21.3825 19.7873C21.3825 20.6233 21.5475 21.2173 21.8775 21.5693C22.2295 21.8993 22.6915 22.0643 23.2635 22.0643C23.8355 22.0643 24.2865 21.8993 24.6165 21.5693C24.9685 21.2173 25.1445 20.6233 25.1445 19.7873V7.31334C25.1445 6.47734 24.9685 5.89434 24.6165 5.56434C24.2865 5.21234 23.8355 5.03634 23.2635 5.03634C22.6915 5.03634 22.2295 5.21234 21.8775 5.56434C21.5475 5.89434 21.3825 6.47734 21.3825 7.31334V19.7873ZM17.7525 7.54434C17.7525 5.67434 18.2255 4.24434 19.1715 3.25434C20.1175 2.24234 21.4815 1.73634 23.2635 1.73634C25.0455 1.73634 26.4095 2.24234 27.3555 3.25434C28.3015 4.24434 28.7745 5.67434 28.7745 7.54434V19.5563C28.7745 21.4263 28.3015 22.8673 27.3555 23.8793C26.4095 24.8693 25.0455 25.3643 23.2635 25.3643C21.4815 25.3643 20.1175 24.8693 19.1715 23.8793C18.2255 22.8673 17.7525 21.4263 17.7525 19.5563V7.54434ZM31.1335 2.00034H34.7635V21.8003H40.7365V25.1003H31.1335V2.00034ZM45.6491 19.7873C45.6491 20.6233 45.8141 21.2173 46.1441 21.5693C46.4961 21.8993 46.9581 22.0643 47.5301 22.0643C48.1021 22.0643 48.5531 21.8993 48.8831 21.5693C49.2351 21.2173 49.4111 20.6233 49.4111 19.7873V7.31334C49.4111 6.47734 49.2351 5.89434 48.8831 5.56434C48.5531 5.21234 48.1021 5.03634 47.5301 5.03634C46.9581 5.03634 46.4961 5.21234 46.1441 5.56434C45.8141 5.89434 45.6491 6.47734 45.6491 7.31334V19.7873ZM42.0191 7.54434C42.0191 5.67434 42.4921 4.24434 43.4381 3.25434C44.3841 2.24234 45.7481 1.73634 47.5301 1.73634C49.3121 1.73634 50.6761 2.24234 51.6221 3.25434C52.5681 4.24434 53.0411 5.67434 53.0411 7.54434V19.5563C53.0411 21.4263 52.5681 22.8673 51.6221 23.8793C50.6761 24.8693 49.3121 25.3643 47.5301 25.3643C45.7481 25.3643 44.3841 24.8693 43.4381 23.8793C42.4921 22.8673 42.0191 21.4263 42.0191 19.5563V7.54434ZM62.9901 25.1003C62.9461 24.9463 62.9021 24.8033 62.8581 24.6713C62.8141 24.5393 62.7701 24.3743 62.7261 24.1763C62.7041 23.9783 62.6821 23.7253 62.6601 23.4173C62.6601 23.1093 62.6601 22.7243 62.6601 22.2623V18.6323C62.6601 17.5543 62.4731 16.7953 62.0991 16.3553C61.7251 15.9153 61.1201 15.6953 60.2841 15.6953H59.0301V25.1003H55.4001V2.00034H60.8781C62.7701 2.00034 64.1341 2.44034 64.9701 3.32034C65.8281 4.20034 66.2571 5.53134 66.2571 7.31334V9.12834C66.2571 11.5043 65.4651 13.0663 63.8811 13.8143C64.8051 14.1883 65.4321 14.8043 65.7621 15.6623C66.1141 16.4983 66.2901 17.5213 66.2901 18.7313V22.2953C66.2901 22.8673 66.3121 23.3733 66.3561 23.8133C66.4001 24.2313 66.5101 24.6603 66.6861 25.1003H62.9901ZM59.0301 5.30034V12.3953H60.4491C61.1311 12.3953 61.6591 12.2193 62.0331 11.8673C62.4291 11.5153 62.6271 10.8773 62.6271 9.95334V7.67634C62.6271 6.84034 62.4731 6.23534 62.1651 5.86134C61.8791 5.48734 61.4171 5.30034 60.7791 5.30034H59.0301Z" fill="white"/>
<path d="M39.5 171.1C47.3124 171.1 54.9493 173.417 61.445 177.757C67.9408 182.098 73.0036 188.267 75.9932 195.484C78.9829 202.702 79.7651 210.644 78.241 218.306C76.7169 225.969 72.9549 233.007 67.4307 238.531C61.9065 244.055 54.8683 247.817 47.2061 249.341C39.5438 250.865 31.6017 250.083 24.384 247.094C17.1663 244.104 10.9973 239.041 6.65695 232.545C2.31663 226.05 0 218.413 0 210.6C0 200.124 4.1616 190.077 11.5693 182.67C18.977 175.262 29.0239 171.1 39.5 171.1Z" fill="#61C0E4"/>
<path d="M194.5 250.1C216.315 250.1 234 232.416 234 210.6C234 188.785 216.315 171.1 194.5 171.1C172.685 171.1 155 188.785 155 210.6C155 232.416 172.685 250.1 194.5 250.1Z" fill="#36B54F"/>
<path d="M349.5 250.1C371.315 250.1 389 232.416 389 210.6C389 188.785 371.315 171.1 349.5 171.1C327.685 171.1 310 188.785 310 210.6C310 232.416 327.685 250.1 349.5 250.1Z" fill="#FA6975"/>
<path d="M24.251 141.964L23.978 144.629H24.706L24.628 145.357H23.9L23.614 148.1H22.782L23.068 145.357H21.885L21.586 148.1H20.754L21.053 145.357H20.299L20.377 144.629H21.118L21.404 141.964H20.637L20.715 141.236H21.469L21.703 139H22.535L22.301 141.236H23.497L23.731 139H24.563L24.329 141.236H25.057L24.979 141.964H24.251ZM23.419 141.964H22.236L21.95 144.629H23.146L23.419 141.964ZM27.9054 138.909C28.6074 138.909 29.1231 139.113 29.4524 139.52C29.7904 139.928 29.9594 140.482 29.9594 141.184V141.353H29.0104V141.119C29.0104 140.703 28.9238 140.383 28.7504 140.157C28.5771 139.932 28.3041 139.819 27.9314 139.819C27.5414 139.819 27.2598 139.941 27.0864 140.183C26.9131 140.426 26.8264 140.794 26.8264 141.288V143.329C26.9478 143.017 27.1298 142.779 27.3724 142.614C27.6238 142.441 27.9314 142.354 28.2954 142.354C28.8848 142.354 29.3138 142.549 29.5824 142.939C29.8511 143.329 29.9854 143.854 29.9854 144.512V145.89C29.9854 146.592 29.8121 147.151 29.4654 147.567C29.1274 147.983 28.6074 148.191 27.9054 148.191C27.2034 148.191 26.6791 147.983 26.3324 147.567C25.9858 147.151 25.8124 146.592 25.8124 145.89V141.249C25.8124 140.521 25.9771 139.949 26.3064 139.533C26.6444 139.117 27.1774 138.909 27.9054 138.909ZM27.9054 143.277C27.5328 143.277 27.2598 143.394 27.0864 143.628C26.9131 143.854 26.8264 144.174 26.8264 144.59V145.955C26.8264 146.371 26.9131 146.696 27.0864 146.93C27.2598 147.156 27.5328 147.268 27.9054 147.268C28.2694 147.268 28.5381 147.156 28.7114 146.93C28.8934 146.696 28.9844 146.371 28.9844 145.955V144.59C28.9844 144.174 28.8934 143.854 28.7114 143.628C28.5381 143.394 28.2694 143.277 27.9054 143.277ZM32.7892 140.651C32.6158 140.755 32.4208 140.842 32.2042 140.911C31.9962 140.981 31.7708 141.024 31.5282 141.041V140.209C31.7708 140.201 31.9788 140.162 32.1522 140.092C32.3255 140.023 32.4685 139.936 32.5812 139.832C32.7025 139.72 32.8022 139.594 32.8802 139.455C32.9582 139.308 33.0275 139.156 33.0882 139H33.7902V148.1H32.7892V140.651ZM37.2857 138.909C37.9877 138.909 38.5034 139.117 38.8327 139.533C39.1707 139.949 39.3397 140.504 39.3397 141.197V142.016H38.3777V141.145C38.3777 140.729 38.2911 140.409 38.1177 140.183C37.9531 139.949 37.6844 139.832 37.3117 139.832C36.9477 139.832 36.6791 139.949 36.5057 140.183C36.3324 140.409 36.2457 140.729 36.2457 141.145V145.955C36.2457 146.371 36.3324 146.696 36.5057 146.93C36.6791 147.156 36.9477 147.268 37.3117 147.268C37.6844 147.268 37.9531 147.156 38.1177 146.93C38.2911 146.696 38.3777 146.371 38.3777 145.955V144.772H39.3397V145.903C39.3397 146.597 39.1707 147.151 38.8327 147.567C38.5034 147.983 37.9877 148.191 37.2857 148.191C36.5924 148.191 36.0767 147.983 35.7387 147.567C35.4094 147.151 35.2447 146.597 35.2447 145.903V141.197C35.2447 140.851 35.2837 140.539 35.3617 140.261C35.4484 139.975 35.5741 139.733 35.7387 139.533C35.9121 139.334 36.1244 139.182 36.3757 139.078C36.6357 138.966 36.9391 138.909 37.2857 138.909ZM40.1832 141.197C40.1832 140.495 40.3522 139.941 40.6902 139.533C41.0369 139.117 41.5612 138.909 42.2632 138.909C42.9652 138.909 43.4895 139.117 43.8362 139.533C44.1829 139.941 44.3562 140.495 44.3562 141.197V145.89C44.3562 146.592 44.1829 147.151 43.8362 147.567C43.4895 147.983 42.9652 148.191 42.2632 148.191C41.5612 148.191 41.0369 147.983 40.6902 147.567C40.3522 147.151 40.1832 146.592 40.1832 145.89V141.197ZM41.1842 145.955C41.1842 146.371 41.2709 146.696 41.4442 146.93C41.6262 147.156 41.8992 147.268 42.2632 147.268C42.6359 147.268 42.9089 147.156 43.0822 146.93C43.2555 146.696 43.3422 146.371 43.3422 145.955V141.145C43.3422 140.729 43.2555 140.404 43.0822 140.17C42.9089 139.936 42.6359 139.819 42.2632 139.819C41.8992 139.819 41.6262 139.936 41.4442 140.17C41.2709 140.404 41.1842 140.729 41.1842 141.145V145.955ZM48.5509 143.03V143.94H46.3279V147.177H49.0579V148.1H45.3139V139H49.0579V139.923H46.3279V143.03H48.5509ZM53.6905 146.267V148.1H52.7025V146.267H49.7645V145.344L52.5855 139H53.6905V145.344H54.4185V146.267H53.6905ZM50.7005 145.344H52.7025V140.898L50.7005 145.344Z" fill="#B8B8B8"/>
<path d="M179.251 141.964L178.978 144.629H179.706L179.628 145.357H178.9L178.614 148.1H177.782L178.068 145.357H176.885L176.586 148.1H175.754L176.053 145.357H175.299L175.377 144.629H176.118L176.404 141.964H175.637L175.715 141.236H176.469L176.703 139H177.535L177.301 141.236H178.497L178.731 139H179.563L179.329 141.236H180.057L179.979 141.964H179.251ZM178.419 141.964H177.236L176.95 144.629H178.146L178.419 141.964ZM182.905 138.909C183.607 138.909 184.123 139.113 184.452 139.52C184.79 139.928 184.959 140.482 184.959 141.184V141.353H184.01V141.119C184.01 140.703 183.924 140.383 183.75 140.157C183.577 139.932 183.304 139.819 182.931 139.819C182.541 139.819 182.26 139.941 182.086 140.183C181.913 140.426 181.826 140.794 181.826 141.288V143.329C181.948 143.017 182.13 142.779 182.372 142.614C182.624 142.441 182.931 142.354 183.295 142.354C183.885 142.354 184.314 142.549 184.582 142.939C184.851 143.329 184.985 143.854 184.985 144.512V145.89C184.985 146.592 184.812 147.151 184.465 147.567C184.127 147.983 183.607 148.191 182.905 148.191C182.203 148.191 181.679 147.983 181.332 147.567C180.986 147.151 180.812 146.592 180.812 145.89V141.249C180.812 140.521 180.977 139.949 181.306 139.533C181.644 139.117 182.177 138.909 182.905 138.909ZM182.905 143.277C182.533 143.277 182.26 143.394 182.086 143.628C181.913 143.854 181.826 144.174 181.826 144.59V145.955C181.826 146.371 181.913 146.696 182.086 146.93C182.26 147.156 182.533 147.268 182.905 147.268C183.269 147.268 183.538 147.156 183.711 146.93C183.893 146.696 183.984 146.371 183.984 145.955V144.59C183.984 144.174 183.893 143.854 183.711 143.628C183.538 143.394 183.269 143.277 182.905 143.277ZM187.789 140.651C187.616 140.755 187.421 140.842 187.204 140.911C186.996 140.981 186.771 141.024 186.528 141.041V140.209C186.771 140.201 186.979 140.162 187.152 140.092C187.325 140.023 187.468 139.936 187.581 139.832C187.702 139.72 187.802 139.594 187.88 139.455C187.958 139.308 188.027 139.156 188.088 139H188.79V148.1H187.789V140.651ZM192.286 138.909C192.988 138.909 193.503 139.117 193.833 139.533C194.171 139.949 194.34 140.504 194.34 141.197V142.016H193.378V141.145C193.378 140.729 193.291 140.409 193.118 140.183C192.953 139.949 192.684 139.832 192.312 139.832C191.948 139.832 191.679 139.949 191.506 140.183C191.332 140.409 191.246 140.729 191.246 141.145V145.955C191.246 146.371 191.332 146.696 191.506 146.93C191.679 147.156 191.948 147.268 192.312 147.268C192.684 147.268 192.953 147.156 193.118 146.93C193.291 146.696 193.378 146.371 193.378 145.955V144.772H194.34V145.903C194.34 146.597 194.171 147.151 193.833 147.567C193.503 147.983 192.988 148.191 192.286 148.191C191.592 148.191 191.077 147.983 190.739 147.567C190.409 147.151 190.245 146.597 190.245 145.903V141.197C190.245 140.851 190.284 140.539 190.362 140.261C190.448 139.975 190.574 139.733 190.739 139.533C190.912 139.334 191.124 139.182 191.376 139.078C191.636 138.966 191.939 138.909 192.286 138.909ZM195.183 141.197C195.183 140.495 195.352 139.941 195.69 139.533C196.037 139.117 196.561 138.909 197.263 138.909C197.965 138.909 198.49 139.117 198.836 139.533C199.183 139.941 199.356 140.495 199.356 141.197V145.89C199.356 146.592 199.183 147.151 198.836 147.567C198.49 147.983 197.965 148.191 197.263 148.191C196.561 148.191 196.037 147.983 195.69 147.567C195.352 147.151 195.183 146.592 195.183 145.89V141.197ZM196.184 145.955C196.184 146.371 196.271 146.696 196.444 146.93C196.626 147.156 196.899 147.268 197.263 147.268C197.636 147.268 197.909 147.156 198.082 146.93C198.256 146.696 198.342 146.371 198.342 145.955V141.145C198.342 140.729 198.256 140.404 198.082 140.17C197.909 139.936 197.636 139.819 197.263 139.819C196.899 139.819 196.626 139.936 196.444 140.17C196.271 140.404 196.184 140.729 196.184 141.145V145.955ZM203.551 143.03V143.94H201.328V147.177H204.058V148.1H200.314V139H204.058V139.923H201.328V143.03H203.551ZM208.691 146.267V148.1H207.703V146.267H204.765V145.344L207.586 139H208.691V145.344H209.419V146.267H208.691ZM205.701 145.344H207.703V140.898L205.701 145.344Z" fill="#B8B8B8"/>
<path d="M334.251 141.964L333.978 144.629H334.706L334.628 145.357H333.9L333.614 148.1H332.782L333.068 145.357H331.885L331.586 148.1H330.754L331.053 145.357H330.299L330.377 144.629H331.118L331.404 141.964H330.637L330.715 141.236H331.469L331.703 139H332.535L332.301 141.236H333.497L333.731 139H334.563L334.329 141.236H335.057L334.979 141.964H334.251ZM333.419 141.964H332.236L331.95 144.629H333.146L333.419 141.964ZM337.905 138.909C338.607 138.909 339.123 139.113 339.452 139.52C339.79 139.928 339.959 140.482 339.959 141.184V141.353H339.01V141.119C339.01 140.703 338.924 140.383 338.75 140.157C338.577 139.932 338.304 139.819 337.931 139.819C337.541 139.819 337.26 139.941 337.086 140.183C336.913 140.426 336.826 140.794 336.826 141.288V143.329C336.948 143.017 337.13 142.779 337.372 142.614C337.624 142.441 337.931 142.354 338.295 142.354C338.885 142.354 339.314 142.549 339.582 142.939C339.851 143.329 339.985 143.854 339.985 144.512V145.89C339.985 146.592 339.812 147.151 339.465 147.567C339.127 147.983 338.607 148.191 337.905 148.191C337.203 148.191 336.679 147.983 336.332 147.567C335.986 147.151 335.812 146.592 335.812 145.89V141.249C335.812 140.521 335.977 139.949 336.306 139.533C336.644 139.117 337.177 138.909 337.905 138.909ZM337.905 143.277C337.533 143.277 337.26 143.394 337.086 143.628C336.913 143.854 336.826 144.174 336.826 144.59V145.955C336.826 146.371 336.913 146.696 337.086 146.93C337.26 147.156 337.533 147.268 337.905 147.268C338.269 147.268 338.538 147.156 338.711 146.93C338.893 146.696 338.984 146.371 338.984 145.955V144.59C338.984 144.174 338.893 143.854 338.711 143.628C338.538 143.394 338.269 143.277 337.905 143.277ZM342.789 140.651C342.616 140.755 342.421 140.842 342.204 140.911C341.996 140.981 341.771 141.024 341.528 141.041V140.209C341.771 140.201 341.979 140.162 342.152 140.092C342.325 140.023 342.468 139.936 342.581 139.832C342.702 139.72 342.802 139.594 342.88 139.455C342.958 139.308 343.027 139.156 343.088 139H343.79V148.1H342.789V140.651ZM347.286 138.909C347.988 138.909 348.503 139.117 348.833 139.533C349.171 139.949 349.34 140.504 349.34 141.197V142.016H348.378V141.145C348.378 140.729 348.291 140.409 348.118 140.183C347.953 139.949 347.684 139.832 347.312 139.832C346.948 139.832 346.679 139.949 346.506 140.183C346.332 140.409 346.246 140.729 346.246 141.145V145.955C346.246 146.371 346.332 146.696 346.506 146.93C346.679 147.156 346.948 147.268 347.312 147.268C347.684 147.268 347.953 147.156 348.118 146.93C348.291 146.696 348.378 146.371 348.378 145.955V144.772H349.34V145.903C349.34 146.597 349.171 147.151 348.833 147.567C348.503 147.983 347.988 148.191 347.286 148.191C346.592 148.191 346.077 147.983 345.739 147.567C345.409 147.151 345.245 146.597 345.245 145.903V141.197C345.245 140.851 345.284 140.539 345.362 140.261C345.448 139.975 345.574 139.733 345.739 139.533C345.912 139.334 346.124 139.182 346.376 139.078C346.636 138.966 346.939 138.909 347.286 138.909ZM350.183 141.197C350.183 140.495 350.352 139.941 350.69 139.533C351.037 139.117 351.561 138.909 352.263 138.909C352.965 138.909 353.49 139.117 353.836 139.533C354.183 139.941 354.356 140.495 354.356 141.197V145.89C354.356 146.592 354.183 147.151 353.836 147.567C353.49 147.983 352.965 148.191 352.263 148.191C351.561 148.191 351.037 147.983 350.69 147.567C350.352 147.151 350.183 146.592 350.183 145.89V141.197ZM351.184 145.955C351.184 146.371 351.271 146.696 351.444 146.93C351.626 147.156 351.899 147.268 352.263 147.268C352.636 147.268 352.909 147.156 353.082 146.93C353.256 146.696 353.342 146.371 353.342 145.955V141.145C353.342 140.729 353.256 140.404 353.082 140.17C352.909 139.936 352.636 139.819 352.263 139.819C351.899 139.819 351.626 139.936 351.444 140.17C351.271 140.404 351.184 140.729 351.184 141.145V145.955ZM358.551 143.03V143.94H356.328V147.177H359.058V148.1H355.314V139H359.058V139.923H356.328V143.03H358.551ZM363.691 146.267V148.1H362.703V146.267H359.765V145.344L362.586 139H363.691V145.344H364.419V146.267H363.691ZM360.701 145.344H362.703V140.898L360.701 145.344Z" fill="#B8B8B8"/>
</svg>
