<svg width="189" height="197" viewBox="0 0 189 197" fill="none" xmlns="http://www.w3.org/2000/svg">
<path d="M4.17883 103.778H20.4118C20.6551 103.774 20.8872 103.676 21.0592 103.504C21.2313 103.332 21.3297 103.1 21.3338 102.856C21.3297 102.613 21.2313 102.381 21.0592 102.209C20.8872 102.037 20.6551 101.939 20.4118 101.934H4.17883C3.93559 101.939 3.70346 102.037 3.53143 102.209C3.35941 102.381 3.26095 102.613 3.25684 102.856C3.26095 103.1 3.35941 103.332 3.53143 103.504C3.70346 103.676 3.93559 103.774 4.17883 103.778Z" fill="white"/>
<path opacity="0.22" d="M155.668 174.666L155.168 174.166C171.75 157.471 181.809 135.391 183.526 111.923C185.242 88.4539 178.502 65.1459 164.525 46.2154L165.092 45.7904C172.999 56.5529 178.666 68.7922 181.759 81.7839C184.851 94.7756 185.306 108.256 183.097 121.426C179.683 141.584 170.1 160.185 155.668 174.666Z" fill="#18191D"/>
<path opacity="0.22" d="M145.173 164.173C129.771 179.677 108.955 188.6 87.1065 189.065C65.2578 189.53 44.081 181.5 28.0337 166.665C11.9865 151.831 2.32062 131.349 1.07083 109.531C-0.178962 87.7132 7.0848 66.2614 21.3331 49.6913L21.8331 50.1164C11.1806 62.4762 4.36949 77.6779 2.23616 93.8548C0.102834 110.032 2.74016 126.479 9.82429 141.178C16.9084 155.877 28.1309 168.187 42.1137 176.597C56.0965 185.007 72.2309 189.15 88.5356 188.518C104.84 187.886 120.605 182.506 133.895 173.038C147.185 163.571 157.421 150.429 163.345 135.226C169.27 120.023 170.626 103.42 167.247 87.4572C163.867 71.4941 155.9 56.8653 144.322 45.3674C113.132 14.4604 62.9441 12.9013 30.0521 41.8943L29.6271 41.3943C46.0538 26.9341 67.4577 19.4246 89.3182 20.4519C111.179 21.4792 131.784 30.9629 146.782 46.9C161.78 62.837 169.997 83.9796 169.697 105.862C169.397 127.745 160.603 148.654 145.173 164.173Z" fill="#18191D"/>
<path opacity="0.22" d="M150.205 169.207C134.303 185.269 113.012 194.866 90.4467 196.144L90.3757 195.01C113.494 193.697 135.227 183.563 151.093 166.698C166.96 149.832 175.749 127.521 175.649 104.366C175.549 81.2103 166.568 58.9761 150.556 42.248C134.545 25.52 112.726 15.5738 89.5967 14.4604L89.6677 13.3264C107.351 14.1622 124.412 20.1113 138.781 30.4521C153.151 40.793 164.21 55.0812 170.619 71.5837C177.028 88.0862 178.511 106.094 174.887 123.422C171.264 140.751 162.69 156.656 150.206 169.207H150.205Z" fill="#18191D"/>
<path d="M121.141 71.7373C120.842 71.5733 120.557 71.3836 120.29 71.1703C120.219 71.0993 120.148 71.0283 120.148 70.9573C120.448 71.2556 120.781 71.5174 121.141 71.7373Z" fill="#FBD099"/>
<path d="M62.229 153.971C69.8339 153.971 75.999 147.304 75.999 139.08C75.999 130.856 69.8339 124.189 62.229 124.189C54.624 124.189 48.459 130.856 48.459 139.08C48.459 147.304 54.624 153.971 62.229 153.971Z" fill="#111111"/>
<path d="M88.1691 162.217V165.259H37.4111V162.217C37.4111 154.051 39.1721 147.006 48.6991 144.043L53.0221 143.243C54.1371 143.23 55.205 142.792 56.0082 142.018C56.8114 141.245 57.2895 140.194 57.3451 139.08V135.958C52.3011 132.836 48.6991 125.47 48.6991 116.904C48.6991 105.536 55.0241 99.6913 62.7891 99.6913C70.5551 99.6913 76.8791 105.535 76.8791 116.904C76.8791 125.47 73.3561 132.756 68.2331 135.958V139.08C68.2571 140.191 68.7144 141.248 69.5072 142.026C70.3 142.803 71.3655 143.24 72.4761 143.243L76.7991 144.043C86.4111 147.091 88.1691 154.131 88.1691 162.217Z" fill="#FBD099"/>
<path d="M89.37 163.183V166.305H36.29V163.183C36.29 154.697 38.131 147.331 48.059 144.209L52.542 143.409L54.942 142.688H70.634L73.034 143.409L77.517 144.209C87.528 147.246 89.37 154.612 89.37 163.183Z" fill="#FA6975"/>
<path d="M83.2846 148.366C80.6426 150.287 77.3606 148.766 74.7986 146.845C73.8497 146.153 72.9655 145.375 72.1566 144.523C71.0356 143.402 70.3156 142.523 70.3156 142.523C70.3905 142.344 70.4442 142.156 70.4756 141.963C70.5556 141.563 70.7956 140.842 70.9556 139.963C72.3166 134.119 74.7186 120.108 68.3136 116.906C60.2276 112.906 57.3456 104.577 57.3456 104.577C44.9366 120.109 54.5456 131.877 53.9826 143.166C53.9826 143.166 45.8166 150.371 40.6126 146.609C35.4086 142.847 37.4126 135.321 37.4126 135.321C37.4126 135.321 38.6936 140.765 41.8126 140.765C51.0196 140.765 45.5756 127.475 44.7746 124.113C43.7336 119.87 41.8926 93.1304 62.7876 95.5324C83.6826 97.9344 80.6406 118.669 79.5196 124.113C78.3986 129.477 74.0756 141.326 80.8006 141.966C85.4436 142.366 86.4846 137.082 86.4846 137.082C86.4846 137.082 88.4886 144.605 83.2846 148.366Z" fill="#1A1A1A"/>
<path d="M136.444 79.5963L133.082 78.9564C132.204 78.9556 131.361 78.6121 130.733 77.999C130.105 77.386 129.741 76.5518 129.719 75.6743V73.1924C133.719 70.7104 136.524 64.9463 136.524 58.2213C136.524 49.2543 131.56 44.6114 125.396 44.6114C119.231 44.6114 114.268 49.1743 114.268 58.2213C114.268 64.9463 117.068 70.7904 121.073 73.1924V75.6743C121.051 76.5519 120.687 77.3862 120.059 77.9993C119.431 78.6124 118.588 78.9559 117.71 78.9564L114.347 79.5963C106.821 81.9183 105.46 87.5223 105.46 93.9273V96.3274H145.49V93.9273C145.331 87.4423 143.97 81.9183 136.444 79.5963Z" fill="#FBD099"/>
<path d="M145.331 93.8473V96.2473H105.301V93.8473C105.301 87.4473 106.662 81.8383 114.188 79.5163L117.551 78.8763C118.208 78.8887 118.853 78.6926 119.392 78.3163C120.059 79.2649 120.947 80.0372 121.979 80.567C123.011 81.0969 124.156 81.3684 125.316 81.3583C126.472 81.3502 127.611 81.0707 128.64 80.5423C129.669 80.014 130.559 79.2516 131.24 78.3163C131.774 78.7032 132.422 78.9003 133.081 78.8763L136.444 79.5163C143.97 81.9153 145.331 87.4423 145.331 93.8473Z" fill="#61C0E4"/>
<path d="M131 47.8123C131 47.8123 122.674 49.4123 118.431 53.8123C114.188 58.1353 116.831 61.5784 115.631 66.7024C113.222 63.1014 112.199 58.7504 112.749 54.4533C113.549 46.9273 117.472 41.5633 125.318 42.2843C126.341 41.7322 127.469 41.4039 128.629 41.3212C129.788 41.2384 130.952 41.4031 132.043 41.8043C136.126 43.0043 143.091 58.9373 134.525 67.4233C134.443 67.3473 139.166 54.1373 131 47.8123Z" fill="#1A1A1A"/>
<path d="M115.148 65.8253C116.032 65.8253 116.749 64.535 116.749 62.9433C116.749 61.3517 116.032 60.0613 115.148 60.0613C114.264 60.0613 113.547 61.3517 113.547 62.9433C113.547 64.535 114.264 65.8253 115.148 65.8253Z" fill="#FBD099"/>
<path d="M135.404 65.8253C136.288 65.8253 137.005 64.535 137.005 62.9433C137.005 61.3517 136.288 60.0613 135.404 60.0613C134.52 60.0613 133.803 61.3517 133.803 62.9433C133.803 64.535 134.52 65.8253 135.404 65.8253Z" fill="#FBD099"/>
<path d="M117.068 54.9373C117.148 54.5373 116.668 55.4174 114.268 59.9014C114.268 59.9014 114.348 60.2213 114.588 60.2213C115.068 60.3013 115.148 60.7014 116.588 62.9434C116.23 60.2687 116.393 57.5501 117.068 54.9373Z" fill="#111111"/>
<path d="M118.431 53.8174C117.931 55.185 117.609 56.6109 117.47 58.0604C117.47 58.0604 116.109 56.4603 116.27 55.2603C116.35 54.0573 118.431 53.8174 118.431 53.8174Z" fill="#111111"/>
<path d="M119.392 78.3954L122.354 96.2484H129.719L131.16 78.3954C131.16 78.3954 125.957 84.7204 119.392 78.3954Z" fill="white"/>
<path d="M128.519 84.7203C128.519 84.9325 128.434 85.136 128.284 85.286C128.134 85.436 127.931 85.5203 127.719 85.5203H124.435C124.223 85.5203 124.019 85.436 123.869 85.286C123.719 85.136 123.635 84.9325 123.635 84.7203V82.7983C123.635 82.5862 123.719 82.3827 123.869 82.2327C124.019 82.0826 124.223 81.9984 124.435 81.9984H127.717C127.822 81.9984 127.926 82.019 128.023 82.0592C128.12 82.0994 128.208 82.1584 128.282 82.2327C128.357 82.307 128.416 82.3951 128.456 82.4922C128.496 82.5892 128.517 82.6933 128.517 82.7983L128.519 84.7203Z" fill="#1A1A1A"/>
<path d="M120.514 77.2744L125.878 81.3574L123.396 86.3214L119.396 78.3954L120.514 77.2744Z" fill="white"/>
<path d="M130.12 77.2744L125.877 81.3574L128.359 86.3214L131.159 78.3954L130.12 77.2744Z" fill="white"/>
<path d="M125.236 85.5203L122.994 96.2483H128.518L126.518 85.5203H125.236Z" fill="#1A1A1A"/>
<path d="M63.4303 81.3574C66.16 75.6719 70.7551 71.0931 76.4502 68.3836C82.1454 65.6741 88.5969 64.9975 94.7303 66.4664C95.5303 66.6264 95.8513 65.4254 95.0503 65.2664C88.6483 63.7043 81.9042 64.3864 75.9446 67.1986C69.985 70.0108 65.1708 74.7828 62.3063 80.7174C61.9863 81.4384 63.0273 82.0784 63.4273 81.3584L63.4303 81.3574Z" fill="#61C0E4"/>
<path d="M99.5367 132.835C112.026 134.835 124.676 128.512 128.679 116.183C128.919 115.462 127.798 115.142 127.558 115.863C123.795 127.472 111.706 133.556 99.9367 131.715C99.1367 131.555 98.7367 132.756 99.5367 132.836V132.835Z" fill="#61C0E4"/>
<path d="M40.7131 65.7194L26.8971 69.1584L24.7851 60.8324C24.3586 59.0108 24.6664 57.0946 25.6417 55.4981C26.617 53.9016 28.1816 52.7533 29.997 52.3014C31.8124 51.8494 33.7328 52.1303 35.3427 53.0832C36.9527 54.0361 38.1228 55.5844 38.6001 57.3933L40.7131 65.7194ZM28.3451 66.7484L38.2991 64.2744L36.6701 57.8794C36.3256 56.5772 35.4827 55.4628 34.3235 54.7769C33.1643 54.0911 31.7817 53.8887 30.4746 54.2136C29.1674 54.5385 28.0405 55.3645 27.3373 56.5133C26.634 57.6621 26.4109 59.0415 26.7161 60.3534L28.3451 66.7484Z" fill="#121316"/>
<path d="M45.7803 82.3714L30.2803 86.2324C30.0822 86.2811 29.8765 86.2901 29.6749 86.2588C29.4733 86.2274 29.28 86.1564 29.106 86.0498C28.9321 85.9432 28.7811 85.8032 28.6616 85.6378C28.5422 85.4724 28.4568 85.285 28.4103 85.0864L24.3103 68.7974C24.2616 68.5993 24.2526 68.3935 24.2839 68.1919C24.3153 67.9904 24.3863 67.797 24.4929 67.6231C24.5995 67.4491 24.7395 67.2981 24.9049 67.1787C25.0703 67.0593 25.2577 66.9738 25.4563 66.9274L40.9563 63.0663C41.1544 63.0176 41.3602 63.0086 41.5617 63.04C41.7633 63.0713 41.9567 63.1423 42.1306 63.2489C42.3045 63.3555 42.4556 63.4955 42.575 63.6609C42.6944 63.8263 42.7798 64.0137 42.8263 64.2123L46.9263 80.5013C46.9962 80.8992 46.9183 81.3089 46.7073 81.6533C46.4962 81.9977 46.1665 82.2531 45.7803 82.3714Z" fill="#36B54F"/>
<path opacity="0.15" d="M31.4824 85.9293L30.2754 86.2293C30.0774 86.2781 29.8716 86.287 29.67 86.2557C29.4684 86.2244 29.2751 86.1534 29.1012 86.0468C28.9272 85.9402 28.7762 85.8001 28.6568 85.6348C28.5373 85.4694 28.4519 85.282 28.4054 85.0833L24.3054 68.7943C24.2567 68.5963 24.2477 68.3905 24.279 68.1889C24.3104 67.9873 24.3814 67.794 24.488 67.6201C24.5946 67.4461 24.7346 67.2951 24.9 67.1757C25.0654 67.0562 25.2528 66.9708 25.4514 66.9243L26.6584 66.6243L31.4824 85.9293Z" fill="black"/>
<path opacity="0.15" d="M41.3769 70.9084C41.1515 70.0258 40.5898 69.2666 39.8118 68.793C39.0337 68.3194 38.1013 68.1692 37.2139 68.3744L36.9139 68.4344L36.4919 66.7454L34.9839 67.1074L34.7429 67.5904L35.1049 68.9174L34.0789 69.1584L33.6569 67.4694L32.1489 67.8314L31.9079 68.3144L32.1489 69.2794L30.5799 69.6414L30.3389 70.1244L30.8219 72.1754L32.1489 71.8134L33.8989 78.7513L32.9339 78.9923L32.6929 79.4753L33.1759 81.5263L35.1069 81.0433L35.4689 82.3704L36.9769 82.0084L37.2179 81.5254L36.9769 80.5604L38.0029 80.3193L38.3649 81.6464L39.8729 81.2844L40.1139 80.8014L39.8729 79.8363L40.1729 79.7763C41.0554 79.551 41.8146 78.9893 42.2882 78.2112C42.7618 77.4332 42.9121 76.5007 42.7069 75.6133C42.4812 74.7478 41.9443 73.9958 41.1989 73.5013C41.5012 72.671 41.5629 71.7722 41.3769 70.9084ZM39.5069 77.7253L36.0069 78.6253L35.3429 75.9703L38.8429 75.0703C39.1931 74.9872 39.562 75.0454 39.8696 75.2324C40.1771 75.4194 40.3986 75.7201 40.486 76.0693C40.5734 76.4185 40.5196 76.7881 40.3363 77.0979C40.153 77.4077 39.855 77.6328 39.5069 77.7243V77.7253ZM38.3609 73.0804L34.8019 73.9803L34.1379 71.3253L37.6379 70.4254C37.8082 70.3805 37.9858 70.37 38.1602 70.3944C38.3347 70.4187 38.5026 70.4775 38.6541 70.5673C38.8057 70.6571 38.9379 70.7761 39.0431 70.9174C39.1482 71.0586 39.2243 71.2194 39.2669 71.3904C39.3281 71.5605 39.353 71.7416 39.3398 71.9219C39.3266 72.1022 39.2756 72.2777 39.1901 72.4371C39.1047 72.5964 38.9868 72.736 38.8439 72.8469C38.701 72.9577 38.5365 73.0372 38.3609 73.0804Z" fill="black"/>
<path d="M141.207 164.783L133.782 156.983L126.433 164.783H129.615V175.083H138.025V164.783H141.207Z" fill="#FA6975"/>
<path d="M112.636 167.283L119.985 175.083L127.41 167.283H124.228V156.983H115.818V167.283H112.636Z" fill="#61C0E4"/>
<path d="M12.4731 101.581L12.3311 95.3434C12.5522 97.4151 12.5997 99.5017 12.4731 101.581Z" fill="#00FCFF"/>
<path d="M81.4443 21.1553L90.5183 15.2653L100.229 20.9963L90.6773 27.2053L81.4443 21.1553Z" fill="#519AB5"/>
<path d="M90.3594 0.141327L90.6774 25.6123L100.07 19.0854L90.3594 0.141327Z" fill="#5CADCC"/>
<path d="M81.4443 19.5633L90.6773 25.6123L90.3593 0.141327L81.4443 19.5633Z" fill="#61C0E4"/>
<path d="M81.4443 21.1553L90.6773 27.2043L90.8363 38.5043L81.4443 21.1553Z" fill="#61C0E4"/>
<path d="M90.6777 27.2054L100.23 20.9964L90.8367 38.5074L90.6777 27.2054Z" fill="#5CADCC"/>
<path d="M0.931641 144.919L8.35065 140.103L16.2906 144.789L8.48164 149.865L0.931641 144.919Z" fill="#519AB5"/>
<path d="M8.2207 127.738L8.4807 148.563L16.1597 143.227L8.2207 127.738Z" fill="#5CADCC"/>
<path d="M0.931641 143.617L8.48064 148.563L8.22064 127.738L0.931641 143.617Z" fill="#61C0E4"/>
<path d="M0.931641 144.919L8.48064 149.865L8.61064 159.106L0.931641 144.919Z" fill="#61C0E4"/>
<path d="M8.48047 149.864L16.2895 144.788L8.61046 159.105L8.48047 149.864Z" fill="#5CADCC"/>
<path d="M165.801 117.688L176.767 110.57L188.502 117.496L176.959 124.996L165.801 117.688Z" fill="#519AB5"/>
<path d="M176.574 92.2944L176.959 123.075L188.31 115.187L176.574 92.2944Z" fill="#5CADCC"/>
<path d="M165.801 115.765L176.959 123.075L176.574 92.2944L165.801 115.765Z" fill="#61C0E4"/>
<path d="M165.801 117.688L176.959 124.999L177.151 138.658L165.801 117.688Z" fill="#61C0E4"/>
<path d="M176.959 124.996L188.502 117.496L177.151 138.658L176.959 124.996Z" fill="#5CADCC"/>
</svg>
