<svg width="511" height="663" viewBox="0 0 511 663" fill="none" xmlns="http://www.w3.org/2000/svg">
<path opacity="0.06" d="M193.075 246.319C193.075 296.728 152.21 352.418 101.789 370.826C51.3688 389.16 10.5039 363.141 10.5039 312.732C10.5039 262.323 51.3688 206.633 101.789 188.225C152.21 169.817 193.075 195.914 193.075 246.319Z" stroke="#306F9E" stroke-width="20.308" stroke-miterlimit="10"/>
<path opacity="0.06" d="M159.742 260.16C159.742 290.063 135.504 323.23 105.515 334.104C75.5268 344.978 51.29 329.599 51.29 299.618C51.29 269.636 75.5287 236.546 105.517 225.675C135.506 214.804 159.742 230.179 159.742 260.16Z" stroke="#306F9E" stroke-width="20.308" stroke-miterlimit="10"/>
<path opacity="0.06" d="M133.953 271.029C133.953 287.34 121.212 305.36 105.44 311.262C89.7444 317.165 76.9277 308.777 76.9277 292.466C76.9277 276.154 89.6688 258.135 105.44 252.232C121.212 246.33 133.953 254.722 133.953 271.029Z" stroke="#306F9E" stroke-width="20.308" stroke-miterlimit="10"/>
<path d="M286.205 206.204V277.274L359.311 320.071V249.545L286.205 206.204Z" fill="url(#paint0_linear)"/>
<path d="M286.137 206.287H289.866L361.651 248.23V318.911L359.242 320.076V249.473L286.137 206.287Z" fill="#306F9E"/>
<path d="M49.8145 435.784L54.4759 433.299L59.2149 435.784L54.4759 438.347L49.8145 435.784Z" fill="#00A8FF"/>
<path d="M54.4756 426.852V437.723L59.2146 435.004L54.4756 426.852Z" fill="#00E2FF"/>
<path d="M49.8145 435.085L54.476 437.726V426.852L49.8145 435.085Z" fill="#00C6FF"/>
<path d="M49.8145 435.784L54.476 438.347V443.24L49.8145 435.784Z" fill="#00E2FF"/>
<path d="M54.4756 438.347L59.2146 435.784L54.4756 443.241V438.347Z" fill="#00C6FF"/>
<path d="M54.4756 443.64V438.825C54.5903 440.428 54.5903 442.037 54.4756 443.64Z" fill="#00FCFF"/>
<path d="M59.2146 435.765L54.4756 438.328C56.1154 437.589 57.6993 436.733 59.2146 435.765Z" fill="#00FCFF"/>
<path d="M49.8145 435.765L54.476 438.328C52.8751 437.562 51.3188 436.706 49.8145 435.765Z" fill="#00FCFF"/>
<path d="M54.4756 426.482V437.434C54.4756 437.353 54.553 429.201 54.4756 426.482Z" fill="#00FCFF"/>
<path d="M212.443 210.04L94.0449 270.546V384.261L212.443 321.813V210.04Z" fill="#282849"/>
<path d="M213.505 394.665V331.677L258.099 305.965V370.743C258.104 372.271 257.705 373.774 256.941 375.097C256.177 376.421 255.076 377.518 253.749 378.277L219.488 398.084C217.677 399.115 215.629 399.657 213.545 399.657C211.461 399.657 209.412 399.115 207.602 398.084L213.505 394.665Z" fill="#DEDEDE"/>
<path d="M213.505 366.315V394.665C213.5 395.363 213.312 396.047 212.96 396.649C212.608 397.251 212.104 397.751 211.498 398.097C210.892 398.443 210.206 398.624 209.508 398.621C208.811 398.619 208.126 398.433 207.522 398.083C205.895 397.149 204.542 395.803 203.601 394.18C202.66 392.558 202.164 390.715 202.162 388.839V387.364L193.383 377.659L213.505 366.315Z" fill="#DEDEDE"/>
<path d="M193.383 377.657C193.922 377.446 194.501 377.357 195.079 377.398C195.657 377.438 196.218 377.606 196.723 377.889C198.405 378.852 199.801 380.244 200.77 381.922C201.739 383.6 202.246 385.505 202.239 387.442V388.841C202.241 390.716 202.737 392.559 203.679 394.181C204.62 395.804 205.972 397.15 207.6 398.084C209.411 399.115 211.459 399.657 213.543 399.657C215.627 399.657 217.675 399.115 219.486 398.084L235.568 388.841V408.881L190.975 434.745V381.229C190.946 380.455 191.163 379.692 191.596 379.05C192.028 378.408 192.654 377.92 193.383 377.657Z" fill="#DEDEDE"/>
<path d="M227.333 360.879L199.598 376.879" stroke="#758EA2" stroke-width="1.36" stroke-miterlimit="10" stroke-linecap="round" stroke-linejoin="round"/>
<path d="M227.333 367.947L199.598 383.947" stroke="#758EA2" stroke-width="1.36" stroke-miterlimit="10" stroke-linecap="round" stroke-linejoin="round"/>
<path d="M227.333 375.015L199.598 391.016" stroke="#758EA2" stroke-width="1.36" stroke-miterlimit="10" stroke-linecap="round" stroke-linejoin="round"/>
<path d="M227.333 382.006L199.598 398.006" stroke="#758EA2" stroke-width="1.36" stroke-miterlimit="10" stroke-linecap="round" stroke-linejoin="round"/>
<path d="M227.333 389.074L199.598 405.074" stroke="#758EA2" stroke-width="1.36" stroke-miterlimit="10" stroke-linecap="round" stroke-linejoin="round"/>
<path d="M227.333 396.142L199.598 412.142" stroke="#758EA2" stroke-width="1.36" stroke-miterlimit="10" stroke-linecap="round" stroke-linejoin="round"/>
<path d="M227.333 403.21L199.598 419.21" stroke="#758EA2" stroke-width="1.36" stroke-miterlimit="10" stroke-linecap="round" stroke-linejoin="round"/>
<path d="M249.644 323.647L221.909 339.648" stroke="#758EA2" stroke-width="1.36" stroke-miterlimit="10" stroke-linecap="round" stroke-linejoin="round"/>
<path d="M249.644 330.716L221.909 346.716" stroke="#758EA2" stroke-width="1.36" stroke-miterlimit="10" stroke-linecap="round" stroke-linejoin="round"/>
<path d="M249.644 337.784L221.909 353.784" stroke="#758EA2" stroke-width="1.36" stroke-miterlimit="10" stroke-linecap="round" stroke-linejoin="round"/>
<path d="M249.644 344.774L221.909 360.852" stroke="#758EA2" stroke-width="1.36" stroke-miterlimit="10" stroke-linecap="round" stroke-linejoin="round"/>
<path d="M249.644 351.842L221.909 367.843" stroke="#758EA2" stroke-width="1.36" stroke-miterlimit="10" stroke-linecap="round" stroke-linejoin="round"/>
<path d="M249.644 358.91L221.909 374.911" stroke="#758EA2" stroke-width="1.36" stroke-miterlimit="10" stroke-linecap="round" stroke-linejoin="round"/>
<path d="M249.644 365.979L221.909 381.979" stroke="#758EA2" stroke-width="1.36" stroke-miterlimit="10" stroke-linecap="round" stroke-linejoin="round"/>
<path d="M232.23 429.495L72.1123 519.75C71.2613 520.527 65.5882 525.653 65.7413 533.731C65.8877 537.286 67.038 540.726 69.0591 543.654C71.0802 546.581 73.8894 548.877 77.1614 550.274L225.859 640.45C240.237 645.529 255.922 645.529 270.299 640.45C322.817 609.926 375.336 579.427 427.854 548.954C432.29 545.075 435.024 539.609 435.468 533.734C436.089 523.326 428.709 516.724 427.854 515.947C376.19 487.131 324.501 458.341 272.787 429.577C266.146 426.054 258.704 424.314 251.189 424.528C244.568 424.68 238.075 426.382 232.23 429.495Z" fill="url(#paint1_linear)"/>
<path d="M65.7412 533.731V561.692L229.666 659.559C235.091 660.922 240.63 661.781 246.213 662.122C255.2 662.643 264.214 661.779 272.938 659.559C327.166 627.403 381.393 595.221 435.62 563.013V533.809L270.297 629.034C262.891 631.209 255.161 632.077 247.456 631.596C242.713 631.268 238.023 630.409 233.472 629.034C177.536 597.266 121.626 565.498 65.7412 533.731Z" fill="url(#paint2_linear)"/>
<path d="M253.191 1.03613V132.456L388.449 211.759V81.193L253.191 1.03613Z" fill="#282849"/>
<path d="M253.036 1.03613H259.795L392.799 78.7852V209.507L388.292 211.759V81.0379L253.036 1.03613Z" fill="#202328" stroke="#18191D" stroke-width="1.451" stroke-miterlimit="10"/>
<path d="M422.378 208.327L431.39 199.317C455.785 213.609 480.205 227.875 504.651 242.115L506.908 195.899L422.378 148.598V208.327Z" fill="#306F9E"/>
<path d="M293.931 369.799L306.361 363.042L319.102 369.799L306.361 376.712L293.931 369.799Z" fill="#00A8FF"/>
<path d="M306.361 345.721V375.003L319.102 367.624L306.361 345.721Z" fill="#00E2FF"/>
<path d="M293.931 367.857L306.36 375.003V345.721L293.931 367.857Z" fill="#00C6FF"/>
<path d="M293.931 369.799L306.36 376.712V389.683L293.931 369.799Z" fill="#00E2FF"/>
<path d="M306.361 376.712L319.102 369.799L306.361 389.682V376.712Z" fill="#00C6FF"/>
<path d="M306.361 389.683V376.712C306.361 376.712 306.828 380.285 306.361 389.683Z" fill="#00FCFF"/>
<path d="M319.102 369.799L306.361 376.712C310.765 374.709 315.023 372.399 319.102 369.799Z" fill="#00FCFF"/>
<path d="M293.931 369.799L306.36 376.712C306.36 376.712 300.223 373.682 293.931 369.799Z" fill="#00FCFF"/>
<path d="M306.361 345.721V375.003C306.361 375.003 306.673 353.021 306.361 345.721Z" fill="#00FCFF"/>
<path d="M379.293 477.947L356.374 485.636V514.452C356.374 520.277 364.142 525.015 373.699 525.015C383.255 525.015 391.024 520.277 391.024 514.452V485.636L379.293 477.947Z" fill="#FFF9FF"/>
<path d="M373.776 496.199C383.344 496.199 391.101 491.47 391.101 485.636C391.101 479.802 383.344 475.073 373.776 475.073C364.208 475.073 356.451 479.802 356.451 485.636C356.451 491.47 364.208 496.199 373.776 496.199Z" fill="#D3BAE7"/>
<path d="M359.016 491.229C362.042 494.254 367.562 496.277 373.777 496.277C379.992 496.277 385.508 494.258 388.537 491.229C388.754 490.631 388.859 489.999 388.848 489.364C388.848 484.315 382.09 480.195 373.777 480.195C365.463 480.195 358.705 484.312 358.705 489.364C358.694 489.999 358.8 490.631 359.016 491.229Z" fill="#752939"/>
<path d="M373.776 476.316C382.555 476.316 389.935 480.588 389.935 485.637C389.935 490.686 382.554 494.958 373.776 494.958C364.998 494.958 357.617 490.686 357.617 485.637C357.617 480.588 364.998 476.316 373.776 476.316ZM373.776 475.073C364.221 475.073 356.451 479.811 356.451 485.636C356.451 491.461 364.22 496.199 373.776 496.199C383.333 496.199 391.101 491.461 391.101 485.636C391.101 479.811 383.332 475.073 373.776 475.073Z" fill="#BCBACE"/>
<path d="M388.492 432.486C387.016 435.594 387.016 439.088 387.016 442.507V454.002C387.016 458.35 387.016 462.779 385.85 466.972C384.684 471.166 382.121 475.206 378.237 477.148C376.295 478.08 373.887 478.471 372.022 477.303C371.241 476.74 370.58 476.028 370.08 475.206C365.652 468.293 369.769 459.05 372.954 452.37C376.581 444.664 381.891 437.869 388.492 432.486Z" fill="#1A685A"/>
<path d="M355.466 464.174C354.379 449.882 355.078 435.279 351.582 421.377C361.183 433.195 365.733 448.323 364.246 463.475C367.431 453.611 370.616 443.513 370.538 433.105C370.538 428.134 373.564 416.405 373.564 416.405C373.564 416.405 375.351 427.59 376.982 433.027C378.148 436.755 378.306 440.638 378.535 444.522L379.468 461.532C384.207 447.318 396.793 427.667 396.793 427.667C396.793 427.667 392.131 465.026 389.723 473.649C386.926 483.358 377.837 489.96 367.426 487.629C358.031 485.689 356.01 472.096 355.466 464.174Z" fill="url(#paint3_linear)"/>
<path d="M363.266 479.135C361.324 473.697 363.111 467.717 364.353 462.047C365.829 455.29 366.373 448.222 364.897 441.542C369.898 452.049 374.282 462.838 378.027 473.854C379.037 476.728 379.969 479.758 379.037 482.631C378.186 485.35 373.288 490.088 370.025 489.311C367.464 488.688 364.123 481.542 363.266 479.135Z" fill="url(#paint4_linear)"/>
<path d="M428.274 403.853C450.281 403.421 467.636 378.35 467.037 347.857C466.438 317.363 448.112 292.994 426.105 293.426C404.098 293.858 386.743 318.928 387.342 349.422C387.941 379.915 406.267 404.285 428.274 403.853Z" fill="#FA6975"/>
<path d="M421.756 147.989H426.34L510.788 195.29L508.535 240.418L504.028 241.505L506.281 195.29L421.756 147.989Z" fill="#255675"/>
<path d="M463.708 350.565C464.33 381.013 447.005 406.101 424.942 406.567C402.955 407.033 384.62 382.644 384.077 352.117C383.456 321.669 400.78 296.581 422.844 296.115C444.907 295.649 463.165 320.114 463.708 350.565Z" fill="url(#paint5_linear)"/>
<path d="M212.62 209.536H209.202L89.7148 268.256V381.889L94.2213 384.219V270.353L212.62 209.536Z" fill="#242454"/>
<path opacity="0.49" d="M337.448 292.748L304.119 273.64C303.867 273.502 303.655 273.301 303.506 273.055C303.357 272.81 303.275 272.529 303.268 272.242L303.19 238.066C303.194 237.776 303.273 237.492 303.418 237.241C303.563 236.99 303.771 236.781 304.02 236.633C304.269 236.484 304.553 236.403 304.843 236.396C305.133 236.388 305.42 236.455 305.676 236.591L338.306 255.308C338.771 255.576 339.159 255.96 339.431 256.423C339.704 256.886 339.851 257.412 339.859 257.949L339.937 291.27C339.936 291.562 339.86 291.849 339.716 292.102C339.571 292.356 339.363 292.568 339.112 292.716C338.861 292.865 338.576 292.947 338.284 292.952C337.992 292.958 337.704 292.887 337.448 292.748Z" fill="#18191D"/>
<path d="M326.649 263.543C326.649 266.806 324.396 268.126 321.521 266.495C320.023 265.533 318.777 264.228 317.885 262.688C316.993 261.148 316.482 259.417 316.394 257.64C316.394 254.378 318.647 253.057 321.521 254.689C323.008 255.662 324.245 256.97 325.136 258.508C326.026 260.045 326.544 261.77 326.649 263.543Z" fill="#0F294C"/>
<path d="M321.521 266.494C318.023 264.474 315.229 266.105 315.229 270.144L327.892 277.367C327.739 275.187 327.084 273.072 325.979 271.186C324.874 269.299 323.348 267.694 321.521 266.494Z" fill="#0F294C"/>
<path d="M54.3203 54.4744C54.3203 59.7558 57.972 61.8535 62.5549 59.2123C67.1379 56.5711 70.7905 50.2025 70.7905 44.9211C70.7905 39.6397 67.1389 37.542 62.5549 40.1832C58.0495 42.8235 54.3203 49.2695 54.3203 54.4744Z" fill="url(#paint6_linear)"/>
<path d="M57.04 52.9206C57.04 56.4939 59.5258 57.892 62.5563 56.1053C64.1644 55.0425 65.501 53.6177 66.4589 51.9452C67.4169 50.2727 67.9695 48.3991 68.0725 46.4745C68.0725 42.9013 65.5867 41.5032 62.5563 43.2898C60.9548 44.3596 59.6233 45.7861 58.6662 47.4571C57.709 49.1282 57.1524 50.9983 57.04 52.9206Z" fill="#FA6975"/>
<path d="M62.2478 49.3471C63.025 48.4963 63.2576 48.104 63.2576 47.7164C63.2576 47.3289 63.0241 47.0954 62.4066 47.4054C62.0022 47.6335 61.6564 47.9526 61.3968 48.3375L61.3193 48.415L61.0867 47.794L61.1642 47.7164C61.4882 47.3408 61.8529 47.0022 62.2516 46.7068V45.7748L62.9513 45.3862V46.3958C63.7285 46.0848 64.275 46.4733 64.275 47.3279C64.1484 48.3677 63.6184 49.3162 62.799 49.9691C62.1778 50.6677 61.8667 51.1337 61.8667 51.5998C61.8667 52.1433 62.2554 52.2984 62.799 51.9108C63.2563 51.6301 63.6524 51.2604 63.9639 50.8237L64.0415 50.7462L64.275 51.4448L64.1975 51.5223C63.862 51.987 63.4398 52.3825 62.9541 52.6869V53.6965L62.2544 54.085V53.0754C61.4772 53.3864 60.9307 52.9979 60.9307 52.1433C60.9818 51.0736 61.4555 50.0679 62.2478 49.3471Z" fill="white"/>
<path d="M33.5781 89.8142C33.5781 94.0085 36.5301 95.7176 40.1817 93.62C42.1036 92.3709 43.7034 90.6858 44.8509 88.7018C45.9984 86.7178 46.6612 84.491 46.7853 82.2025C46.7853 78.0082 43.8333 76.2991 40.1817 78.3967C38.2598 79.6458 36.66 81.3309 35.5125 83.3149C34.365 85.2989 33.7022 87.5257 33.5781 89.8142Z" fill="url(#paint7_linear)"/>
<path d="M35.6748 88.5742C35.6748 91.3705 37.6945 92.5351 40.1027 91.137C41.3972 90.2976 42.4738 89.1628 43.2436 87.8259C44.0134 86.4891 44.4546 84.9885 44.5306 83.4478C44.5306 80.6515 42.511 79.4869 40.1027 80.885C38.8198 81.7367 37.7522 82.8744 36.9838 84.2087C36.2154 85.543 35.7674 87.0374 35.6748 88.5742Z" fill="#FA6975"/>
<path opacity="0.5" d="M262.897 531.379V531.068C262.82 530.679 262.276 530.368 262.276 530.368C262.276 530.368 231.822 512.815 230.423 511.96C229.984 511.716 229.489 511.588 228.986 511.588C228.483 511.588 227.988 511.716 227.549 511.96C227.549 511.96 214.5 519.495 213.098 520.349C212.555 520.66 212.399 520.97 212.477 521.281V522.757C212.4 523.3 213.098 523.689 213.098 523.689C213.098 523.689 243.553 541.242 244.951 542.097C245.358 542.323 245.811 542.455 246.275 542.485C246.816 542.476 247.347 542.343 247.829 542.097L260.877 534.563L262.353 533.712C262.617 533.571 262.833 533.355 262.974 533.091V531.382L262.897 531.379Z" fill="#647DDD"/>
<path opacity="0.49" d="M265.875 533.122V531.181L262.457 530.481C254.843 526.133 234.563 514.403 233.4 513.704C232.961 513.459 232.466 513.331 231.963 513.331C231.46 513.331 230.966 513.459 230.526 513.704C230.526 513.704 220.503 519.451 217.086 521.47L215.455 521.16V522.792C215.378 523.335 216.076 523.724 216.076 523.724C216.076 523.724 246.531 541.278 247.93 542.132C248.337 542.358 248.789 542.49 249.253 542.521C249.794 542.511 250.325 542.378 250.807 542.132L263.855 534.598L265.331 533.747C265.558 533.585 265.744 533.373 265.875 533.126V533.122Z" fill="#18191D"/>
<path d="M263.78 532.708L250.732 540.242C250.291 540.483 249.797 540.609 249.295 540.609C248.793 540.609 248.299 540.483 247.858 540.242C246.382 539.391 216.005 521.834 216.005 521.834C216.005 521.834 214.529 520.983 216.005 520.126C217.481 519.268 230.455 511.737 230.455 511.737C230.896 511.497 231.39 511.371 231.892 511.371C232.395 511.371 232.889 511.497 233.33 511.737C234.806 512.588 265.183 530.145 265.183 530.145C265.183 530.145 266.659 530.996 265.183 531.853L263.78 532.708Z" fill="#282849"/>
<path d="M259.471 528.317L233.445 513.249L218.917 521.56L245.02 536.629L259.471 528.317Z" fill="#FFF2FF"/>
<path d="M258.653 542.974L258.421 542.819C258.248 542.704 258.045 542.644 257.838 542.644C257.63 542.644 257.428 542.704 257.255 542.819L249.796 547.091C249.726 547.128 249.667 547.184 249.626 547.253C249.585 547.321 249.563 547.399 249.563 547.479C249.563 547.559 249.585 547.637 249.626 547.706C249.667 547.774 249.726 547.83 249.796 547.868L249.874 547.945C250.076 548.06 250.304 548.121 250.536 548.121C250.768 548.121 250.996 548.06 251.198 547.945L258.578 543.673C258.644 543.644 258.7 543.599 258.743 543.541C258.785 543.484 258.811 543.416 258.818 543.345C258.826 543.274 258.815 543.202 258.786 543.137C258.757 543.072 258.711 543.016 258.653 542.974Z" fill="#FFF2FF"/>
<path d="M225.224 515.19C225.61 515.19 225.923 515.051 225.923 514.879C225.923 514.707 225.61 514.568 225.224 514.568C224.838 514.568 224.525 514.707 224.525 514.879C224.525 515.051 224.838 515.19 225.224 515.19Z" fill="#FFF2FF"/>
<path opacity="0.5" d="M283.391 485.016L241.905 461.093L205.469 478.647L254.336 506.687L283.392 489.988V489.288L282.848 488.977L283.392 488.666V486.724L282.382 486.181L283.392 485.637L283.391 485.016Z" fill="#647DDD"/>
<path opacity="0.8" d="M202.387 560.687C202.076 560.998 187.004 570.474 187.004 570.474C187.004 570.474 167.659 559.211 168.282 559.366C168.98 559.596 202.387 560.687 202.387 560.687Z" fill="#647DDD"/>
<path d="M202.387 560.683L184.209 550.197L168.282 559.367L184.286 568.61L188.714 568.533L202.387 560.683Z" fill="url(#paint8_linear)"/>
<path d="M186.231 565.965L188.485 568.528L184.057 568.606L186.231 565.965Z" fill="#B99255"/>
<path d="M288.56 485.972L247.152 462.049L218.174 478.748L259.582 502.671L288.56 485.972Z" fill="url(#paint9_linear)"/>
<path d="M218.174 478.127V478.748L259.582 502.671L288.56 485.973V485.274L218.174 478.127Z" fill="url(#paint10_linear)"/>
<path d="M288.56 485.273L247.152 461.35L218.174 478.127L259.582 502.05L288.56 485.273Z" fill="url(#paint11_linear)"/>
<path d="M288.56 484.48L247.152 460.557L218.174 477.334L259.582 501.257L288.56 484.48Z" fill="#FF85AB"/>
<path d="M218.174 475.392V477.334L259.582 501.257L288.56 484.479V482.538L218.174 475.392Z" fill="#FFE5EA"/>
<path d="M288.56 482.538L247.152 458.615L218.174 475.392L259.582 499.315L288.56 482.538Z" fill="#FFF9FF"/>
<path d="M288.56 481.153L247.152 457.23L218.174 473.929L259.582 497.852L288.56 481.153Z" fill="url(#paint12_linear)"/>
<path d="M218.174 473.308V473.929L259.582 497.852L288.56 481.154V480.455L218.174 473.308Z" fill="url(#paint13_linear)"/>
<path d="M288.56 480.454L247.152 456.609L218.174 473.308L259.582 497.231L288.56 480.454Z" fill="url(#paint14_linear)"/>
<path d="M260.16 498.039V503.01L218.752 479.086V474.116L260.16 498.039Z" fill="url(#paint15_linear)"/>
<path d="M291.382 476.811L249.974 452.888L220.996 469.665L262.405 493.588L291.382 476.811Z" fill="#87CEFF"/>
<path d="M220.996 469.044V469.665L262.405 493.588L291.383 476.811V476.19L220.996 469.044Z" fill="#87CEFF"/>
<path d="M291.382 476.19L249.974 452.267L220.996 469.044L262.405 492.89L291.382 476.19Z" fill="#4CA6F1"/>
<path d="M291.382 475.569L249.974 451.646L220.996 468.345L262.405 492.268L291.382 475.569Z" fill="#87CEFF"/>
<path d="M220.996 466.403V468.345L262.405 492.268L291.382 475.573V473.631L220.996 466.403Z" fill="#FFE4E3"/>
<path d="M291.382 473.627L249.974 449.704L220.996 466.404L262.405 490.327L291.382 473.627Z" fill="#FFF9FF"/>
<path d="M291.382 472.462L249.974 448.539L220.996 465.316L262.405 489.239L291.382 472.462Z" fill="#87CEFF"/>
<path d="M220.996 464.695V465.316L262.405 489.239L291.383 472.462V471.84L220.996 464.695Z" fill="#4CA6F1"/>
<path d="M291.382 471.841L249.974 447.917L220.996 464.695L262.405 488.54L291.382 471.841Z" fill="#87CEFF"/>
<path d="M233.426 464.694L249.973 455.141L278.873 471.841L262.402 481.394L233.426 464.694Z" fill="#FFF2FF"/>
<path d="M262.405 488.54V493.589L220.996 469.666V464.695L262.405 488.54Z" fill="#4CA6F1"/>
<path d="M39.8698 85.776C40.491 85.0774 40.7208 84.7663 40.7208 84.4525C40.7208 84.1387 40.5657 83.909 40.022 84.219C39.6887 84.4177 39.3992 84.6821 39.1711 84.9961L39.0935 85.0736L38.8609 84.53L38.9385 84.4525C39.1838 84.1544 39.4704 83.8928 39.7894 83.6755V82.8984L40.3331 82.5874V83.3644C40.9543 83.1319 41.3429 83.442 41.3429 84.064C41.2398 84.887 40.8224 85.6382 40.1781 86.1607C39.6344 86.7043 39.4008 87.0928 39.4008 87.4841C39.4008 87.8755 39.7119 88.0277 40.1781 87.7951C40.5556 87.5947 40.8763 87.302 41.1103 86.9444L41.1879 86.8668L41.4205 87.4104V87.4879C41.1417 87.8559 40.7998 88.1715 40.4106 88.42V89.1971L39.867 89.5081V88.6573C39.7446 88.7246 39.6056 88.7559 39.4662 88.7477C39.3267 88.7394 39.1924 88.692 39.0788 88.6108C38.9651 88.5295 38.8767 88.4179 38.8238 88.2886C38.7709 88.1594 38.7556 88.0178 38.7796 87.8802C38.8646 87.0665 39.254 86.3148 39.8698 85.776Z" fill="white"/>
<path d="M47.0947 111.872C47.0947 114.125 48.6482 114.979 50.5932 113.891C51.6175 113.234 52.4695 112.341 53.0782 111.287C53.6868 110.233 54.0343 109.048 54.0916 107.833C54.0916 105.58 52.5381 104.725 50.5932 105.814C49.5803 106.483 48.7371 107.379 48.1299 108.431C47.5228 109.482 47.1684 110.66 47.0947 111.872Z" fill="url(#paint16_linear)"/>
<path opacity="0.5" d="M195.784 471.308C204.108 471.308 210.855 468.526 210.855 465.095C210.855 461.663 204.108 458.881 195.784 458.881C187.46 458.881 180.712 461.663 180.712 465.095C180.712 468.526 187.46 471.308 195.784 471.308Z" fill="#647DDD"/>
<path d="M203.775 439.995L189.869 444.655V462.21C189.869 465.783 194.608 468.657 200.434 468.657C206.261 468.657 211 465.783 211 462.21V444.655L203.775 439.995Z" fill="#FFF9FF"/>
<path d="M200.36 449.789C206.195 449.789 210.926 446.903 210.926 443.342C210.926 439.781 206.195 436.895 200.36 436.895C194.525 436.895 189.795 439.781 189.795 443.342C189.795 446.903 194.525 449.789 200.36 449.789Z" fill="#FFF9FF"/>
<path d="M191.409 446.778C193.273 448.642 196.614 449.803 200.42 449.803C204.227 449.803 207.568 448.56 209.432 446.778C209.584 446.408 209.663 446.012 209.666 445.613C209.666 442.505 205.548 440.02 200.494 440.02C195.44 440.02 191.322 442.505 191.322 445.613C191.258 445.803 191.232 446.004 191.247 446.204C191.262 446.404 191.317 446.599 191.409 446.778Z" fill="url(#paint17_linear)"/>
<path d="M200.36 437.672C205.643 437.672 210.149 440.313 210.149 443.344C210.149 446.375 205.643 449.016 200.36 449.016C195.078 449.016 190.571 446.375 190.571 443.344C190.571 440.313 195.078 437.672 200.36 437.672ZM200.36 436.895C194.534 436.895 189.795 439.769 189.795 443.342C189.795 446.915 194.534 449.789 200.36 449.789C206.187 449.789 210.926 446.915 210.926 443.342C210.926 439.769 206.187 436.895 200.36 436.895Z" fill="#BCBACE"/>
<path d="M208.894 451.764L208.505 451.53V453.317C209.394 453.918 210.121 454.728 210.622 455.676C211.124 456.624 211.384 457.682 211.379 458.754C211.376 459.426 211.158 460.079 210.758 460.618H210.369V462.172C211.138 462.168 211.89 461.954 212.544 461.551C213.214 461.169 213.77 460.615 214.152 459.945C214.535 459.276 214.73 458.516 214.719 457.745C212.933 455.879 211.379 453.239 208.894 451.764Z" fill="#FFF9FF"/>
<path d="M207.029 452.774L206.64 452.54V454.327C207.529 454.927 208.256 455.738 208.758 456.686C209.259 457.634 209.519 458.692 209.514 459.764C209.51 460.272 209.371 460.769 209.112 461.206C208.852 461.642 208.482 462.002 208.038 462.249C207.585 462.495 207.079 462.629 206.562 462.638V464.191C207.331 464.188 208.083 463.973 208.737 463.57C209.407 463.188 209.963 462.634 210.345 461.964C210.728 461.295 210.923 460.535 210.912 459.764C210.967 458.355 210.635 456.958 209.95 455.725C209.265 454.492 208.254 453.471 207.029 452.774Z" fill="#BCBACE"/>
<path d="M48.2608 111.174C48.2079 111.465 48.2448 111.764 48.3666 112.033C48.4884 112.302 48.6892 112.528 48.9424 112.679C49.1956 112.831 49.489 112.902 49.7837 112.883C50.0783 112.864 50.3601 112.756 50.5915 112.572C51.2804 112.122 51.8515 111.513 52.2569 110.797C52.6624 110.081 52.8905 109.278 52.9223 108.456C52.9751 108.165 52.9382 107.866 52.8164 107.597C52.6947 107.328 52.4938 107.102 52.2406 106.951C51.9875 106.799 51.694 106.728 51.3994 106.747C51.1047 106.766 50.8229 106.874 50.5915 107.058C49.921 107.527 49.3639 108.14 48.9606 108.853C48.5574 109.565 48.3183 110.358 48.2608 111.174Z" fill="#FA6975"/>
<path opacity="0.8" d="M289.362 602.707C289.051 603.018 273.979 612.494 273.979 612.494C273.979 612.494 254.635 601.231 255.258 601.386C255.878 601.616 289.362 602.707 289.362 602.707Z" fill="#647DDD"/>
<path d="M289.362 602.703L271.106 592.218L255.257 601.387L271.261 610.631L275.69 610.553L289.362 602.703Z" fill="url(#paint18_linear)"/>
<path d="M273.419 607.985L275.672 610.548L271.244 610.625L273.419 607.985Z" fill="#B99255"/>
<path d="M50.5139 109.699C50.825 109.31 50.98 109.155 50.98 109C50.98 108.845 50.9025 108.689 50.5914 108.845C50.4231 108.959 50.2669 109.089 50.1253 109.234L50.0477 108.923C50.1831 108.771 50.3402 108.64 50.5139 108.534V108.146L50.825 107.991V108.379C51.1361 108.224 51.3687 108.379 51.3687 108.768C51.3028 109.194 51.0815 109.582 50.7474 109.855C50.4364 110.166 50.3588 110.321 50.3588 110.554C50.3588 110.786 50.5139 110.865 50.7474 110.709C50.9424 110.57 51.1244 110.414 51.2911 110.243V110.164L51.3687 110.475C51.2136 110.63 51.0576 110.864 50.825 110.941V111.33L50.5139 111.485V111.015C50.2028 111.17 49.9702 111.015 49.9702 110.626C49.8917 110.475 50.1253 110.087 50.5139 109.699Z" fill="white"/>
<path d="M19.5938 42.0468C19.5938 44.9981 21.6909 46.2412 24.2552 44.7655C25.6189 43.8684 26.7517 42.6624 27.5617 41.2454C28.3716 39.8284 28.8358 38.2404 28.9167 36.6103C28.9167 33.6591 26.8195 32.416 24.2552 33.8916C22.8915 34.7888 21.7587 35.9948 20.9488 37.4118C20.1388 38.8288 19.6746 40.4168 19.5938 42.0468Z" fill="url(#paint19_linear)"/>
<path d="M21.1465 41.1148C21.1465 43.134 22.5449 43.911 24.332 42.9014C25.2512 42.2888 26.0168 41.4726 26.5693 40.5161C27.1218 39.5596 27.4462 38.4886 27.5175 37.3864C27.5175 35.3672 26.119 34.5901 24.332 35.5997C23.4076 36.2069 22.6381 37.0219 22.085 37.9795C21.5319 38.9371 21.2105 40.0108 21.1465 41.1148Z" fill="#FA6975"/>
<path d="M24.1737 39.0941C24.6399 38.6281 24.7174 38.3956 24.7174 38.1621C24.7174 37.9286 24.5624 37.7735 24.2513 38.007C24.012 38.1477 23.8013 38.3321 23.6301 38.5506L23.5525 38.6281L23.3975 38.2396C23.5664 38.019 23.7776 37.8342 24.0187 37.696V37.1525L24.4073 36.9199V37.4635C24.8735 37.3084 25.107 37.541 25.107 38.007C25.076 38.2987 24.9843 38.5808 24.8378 38.8349C24.6912 39.0891 24.493 39.3097 24.256 39.4827C23.9642 39.7141 23.7701 40.0468 23.7123 40.4147C23.7123 40.7257 23.9449 40.8032 24.256 40.6482C24.5376 40.5034 24.778 40.2898 24.9548 40.0272L25.0323 39.9496L25.1874 40.3382C24.9743 40.5901 24.7406 40.8237 24.4886 41.0367V41.5803L24.1 41.8138V41.1927C24.0134 41.2392 23.9156 41.2607 23.8175 41.2549C23.7193 41.2491 23.6247 41.2162 23.5442 41.1599C23.4636 41.1036 23.4003 41.026 23.3612 40.9358C23.3221 40.8457 23.3088 40.7464 23.3228 40.6492C23.4341 40.0536 23.7321 39.509 24.1737 39.0941Z" fill="white"/>
<path d="M35.2861 152.997L64.5749 141.502C64.8857 213.814 65.2223 286.152 65.5847 358.516C65.3521 359.448 62.8654 368.692 54.0871 372.342C44.8417 376.225 36.9181 370.477 36.296 370.011C35.9852 297.699 35.6486 225.361 35.2861 152.997Z" fill="url(#paint20_linear)"/>
<path d="M64.6524 141.911C64.6524 144.707 62.9864 153.286 54.8293 156.469C46.7497 159.654 35.2861 156.2 35.2861 153.404C35.2861 150.608 41.8103 145.793 49.9693 142.608C58.0488 139.425 64.6524 139.111 64.6524 141.911Z" fill="#5BB3D5"/>
<path d="M33.4217 409.654L32.2568 410.662V412.448L33.4217 411.439V419.831L32.2568 420.838V422.625L33.4217 421.615V423.246L34.8977 421.922V420.295L36.2214 419.13V420.761L37.6974 419.437V417.657C38.8609 416.251 39.5417 414.508 39.6395 412.686C39.6395 411.676 39.3285 411.055 38.7072 410.899C39.2571 409.867 39.5752 408.727 39.6395 407.559C39.6395 406.006 38.7885 405.385 37.6974 405.929V404.139L36.2214 405.463V407.093L34.8977 408.258V406.627L33.4217 407.951V409.654ZM34.9752 415.247L37.0724 413.46C37.7721 412.839 38.3962 413.071 38.3962 414.003C38.3161 415.067 37.8445 416.063 37.0724 416.8L34.9752 418.586V415.247ZM34.9752 410.12L37.0724 408.334C37.7721 407.712 38.3962 407.945 38.3962 408.877C38.3162 409.941 37.8445 410.937 37.0724 411.673L34.9752 413.46V410.12Z" fill="url(#paint21_linear)"/>
<path d="M38.3936 408.954C38.3308 410.045 37.8579 411.071 37.0699 411.828L34.9727 413.615V413.46L37.0699 411.673C37.8257 410.957 38.296 409.991 38.3936 408.954Z" fill="#282849"/>
<path d="M37.8494 404.449L36.2959 405.692V405.617L37.8494 404.294V404.449Z" fill="#282849"/>
<path d="M38.3936 414.003C38.3307 415.094 37.8579 416.12 37.0699 416.877L34.9727 418.664V418.509L37.0699 416.722C37.8394 416.016 38.3124 415.044 38.3936 414.003Z" fill="#282849"/>
<path d="M39.7927 407.634C39.7927 406.158 38.9417 405.615 37.8506 406.158V406.003C38.9379 405.537 39.7927 406.081 39.7927 407.634Z" fill="#282849"/>
<path d="M36.2994 407.323L34.9756 408.487V408.41L36.2994 407.245V407.323Z" fill="#282849"/>
<path d="M33.4213 419.906L32.334 420.915V420.76L33.4213 419.828V419.906Z" fill="#282849"/>
<path d="M39.7927 412.76C39.7927 411.828 39.4041 411.284 38.8604 411.129C38.8601 411.119 38.8619 411.109 38.8657 411.099C38.8695 411.09 38.8753 411.081 38.8825 411.074C38.8898 411.067 38.8984 411.061 38.9079 411.057C38.9175 411.053 38.9277 411.052 38.9379 411.052C39.4816 411.206 39.7927 411.749 39.7927 412.76Z" fill="#282849"/>
<path d="M34.9744 406.857L33.4209 408.18V408.025L34.9744 406.782V406.857Z" fill="#282849"/>
<path d="M33.4213 409.808L32.334 410.74V410.663L33.4213 409.653V409.808Z" fill="#282849"/>
<path d="M56.573 394.585L56.0293 395.052V395.902L56.573 395.436V399.553L56.0293 400.019V400.87L56.573 400.404V401.181L57.3502 400.56V399.79L58.0499 399.247V400.024L58.8271 399.403V398.552C59.4035 397.842 59.7551 396.977 59.837 396.067C59.837 395.601 59.6819 395.29 59.3708 395.216C59.6577 394.719 59.8178 394.159 59.837 393.585C59.837 392.808 59.4484 392.498 58.8271 392.808V391.958L58.0499 392.579V393.356L57.3502 393.899V393.122L56.573 393.743V394.585ZM57.2717 397.382L58.2816 396.531C58.6702 396.22 58.9028 396.376 58.9028 396.764C58.8449 397.283 58.6279 397.772 58.2816 398.163L57.2717 399.013V397.382ZM57.2717 394.819L58.2816 393.968C58.6702 393.657 58.9028 393.813 58.9028 394.202C58.845 394.721 58.628 395.209 58.2816 395.6L57.2717 396.451V394.819Z" fill="url(#paint22_linear)"/>
<path d="M58.9816 394.274C58.9392 394.797 58.7201 395.29 58.3604 395.673L57.3506 396.523V396.449L58.3604 395.598C58.705 395.235 58.9229 394.771 58.9816 394.274Z" fill="#282849"/>
<path d="M58.6704 392.022L57.9717 392.643V392.565L58.6704 391.944V392.022Z" fill="#282849"/>
<path d="M58.9816 396.76C58.9392 397.283 58.7201 397.776 58.3604 398.158L57.3506 399.009V398.934L58.3604 398.083C58.7187 397.73 58.939 397.261 58.9816 396.76Z" fill="#282849"/>
<path d="M59.6817 393.652C59.6817 392.953 59.2931 392.643 58.6719 392.953V392.875C59.2931 392.565 59.6817 392.876 59.6817 393.652Z" fill="#282849"/>
<path d="M57.9722 393.497L57.2734 394.041V393.963L57.9722 393.42V393.497Z" fill="#282849"/>
<path d="M56.5733 399.711L55.9521 400.177V400.1L56.5733 399.634V399.711Z" fill="#282849"/>
<path d="M59.681 396.135C59.681 395.669 59.5259 395.358 59.2148 395.358V395.284C59.5259 395.362 59.681 395.673 59.681 396.135Z" fill="#282849"/>
<path d="M57.272 393.265L56.5732 393.886V393.809L57.272 393.188V393.265Z" fill="#282849"/>
<path d="M56.5733 394.663L55.9521 395.129L56.5733 394.586V394.663Z" fill="#282849"/>
<path d="M24.7988 470.34L33.0334 465.914L41.5015 470.34L33.0334 474.923L24.7988 470.34Z" fill="#00A8FF"/>
<path d="M33.0342 453.913V473.408L41.5023 468.515L33.0342 453.913Z" fill="#2FB267"/>
<path d="M24.7988 468.67L33.0334 473.408V453.913L24.7988 468.67Z" fill="url(#paint23_linear)"/>
<path d="M24.7988 471.106L33.0334 475.689V484.31L24.7988 471.106Z" fill="#2FB267"/>
<path d="M33.0342 475.689L41.5023 471.106L33.0342 484.31V475.689Z" fill="url(#paint24_linear)"/>
<path d="M33.0342 484.439V475.817C33.2536 478.687 33.2536 481.569 33.0342 484.439Z" fill="#00FCFF"/>
<path d="M41.5023 470.47L33.0342 475.053C35.973 473.75 38.8045 472.218 41.5023 470.47Z" fill="#00FCFF"/>
<path d="M24.7988 470.47L33.0334 475.053C30.2132 473.664 27.4649 472.135 24.7988 470.47Z" fill="#00FCFF"/>
<path d="M33.0342 453.907V473.325C33.0342 473.402 33.2667 458.8 33.0342 453.907Z" fill="#00FCFF"/>
<g opacity="0.24">
<g opacity="0.24">
<path opacity="0.24" d="M53.9324 309.297V312.559C55.0198 312.559 55.5635 312.481 56.6518 312.481V308.521C57.3505 308.443 57.6616 308.366 58.2828 308.287C58.2828 310.695 58.2828 311.86 58.3604 314.191C54.3201 314.268 52.3004 314.268 48.2611 314.268C48.2611 311.938 48.1836 310.77 48.1836 308.443C48.8833 308.521 49.1934 308.598 49.8931 308.677C49.8931 310.23 49.8931 311.007 49.9706 312.56H52.3789V309.298L53.9324 309.297Z" fill="#161B26"/>
<path opacity="0.24" d="M51.5268 299.898C50.2819 299.277 49.1088 298.522 48.0283 297.645V295.549C49.5516 296.845 51.2521 297.917 53.0784 298.734C54.9072 297.793 56.605 296.617 58.1285 295.236V297.333C57.0268 298.248 55.8573 299.079 54.63 299.818C56.0285 300.206 56.8047 300.361 58.1285 300.669V302.766C56.3601 302.356 54.641 301.757 53.0009 300.98C51.4227 301.814 49.7544 302.466 48.0283 302.921V300.825C49.2355 300.699 50.4158 300.387 51.5268 299.898Z" fill="#161B26"/>
<path opacity="0.24" d="M54.7098 283.202C55.6114 283.09 56.523 283.311 57.2731 283.824C57.5827 284.109 57.8264 284.458 57.9874 284.847C58.1484 285.236 58.2228 285.656 58.2054 286.076C58.2166 286.639 58.1121 287.198 57.8982 287.718C57.6843 288.238 57.3656 288.709 56.962 289.101C55.9911 290.071 54.6825 290.628 53.3104 290.654H52.6892C51.7717 290.661 50.8659 290.448 50.0473 290.033C49.3543 289.635 48.7681 289.076 48.3388 288.402C47.9808 287.757 47.7687 287.041 47.7175 286.305C47.6695 285.889 47.7216 285.467 47.8697 285.075C48.0177 284.684 48.2573 284.333 48.5685 284.052C49.3491 283.537 50.277 283.292 51.2103 283.354V285.218C50.6979 285.164 50.1816 285.273 49.7344 285.529C49.5666 285.667 49.4411 285.849 49.3723 286.055C49.3036 286.261 49.2944 286.483 49.3458 286.694C49.335 286.997 49.4005 287.298 49.5363 287.569C49.6721 287.841 49.8738 288.073 50.123 288.247C50.841 288.701 51.6833 288.918 52.5313 288.868H53.3085C54.1682 288.922 55.02 288.675 55.7168 288.168C55.9533 287.983 56.1457 287.748 56.2801 287.479C56.4145 287.21 56.4876 286.915 56.494 286.615C56.5152 286.398 56.484 286.179 56.4029 285.976C56.3218 285.773 56.1931 285.593 56.0278 285.45C55.6088 285.196 55.1081 285.113 54.6294 285.218C54.6933 284.548 54.7202 283.875 54.7098 283.202Z" fill="#161B26"/>
<path opacity="0.24" d="M57.8954 269.14V271.004C56.2644 271.159 55.4096 271.237 53.546 271.315V275.043C55.0064 275.011 56.4615 274.855 57.8954 274.577V276.441C54.5496 277.192 51.0849 277.245 47.7178 276.596V274.732C49.0785 274.957 50.4565 275.061 51.8356 275.043V271.314C50.4596 271.318 49.0845 271.241 47.7178 271.081V269.217C51.1069 269.464 54.5104 269.438 57.8954 269.14Z" fill="#161B26"/>
<path opacity="0.24" d="M55.7966 257.101V260.441C56.6476 260.752 57.04 260.907 57.8163 261.14V263.082C54.4825 261.819 51.0854 260.73 47.6387 259.82V258.111C50.8221 256.489 54.2239 255.338 57.7378 254.693V256.635C57.105 256.845 56.4556 257 55.7966 257.101ZM54.0871 259.897V257.567C52.5336 258.033 51.6789 258.266 50.1254 258.81C51.6798 259.199 52.5336 259.431 54.0881 259.897H54.0871Z" fill="#161B26"/>
<path opacity="0.24" d="M57.6621 241.644V243.509C55.2899 244.199 53.0369 245.247 50.981 246.617C53.2429 246.337 55.5374 246.496 57.7396 247.083V248.947C54.4069 247.987 50.8639 248.041 47.5619 249.102V247.315C49.5448 245.521 51.7999 244.054 54.243 242.967C51.9606 242.75 49.658 243.014 47.4844 243.744V241.957C50.733 240.652 54.3394 240.541 57.6621 241.644Z" fill="#161B26"/>
<path opacity="0.24" d="M56.2635 227.819C56.7296 228.24 57.0777 228.776 57.2734 229.372C57.5285 230.042 57.6602 230.752 57.662 231.469C57.7084 232.135 57.5157 232.796 57.1183 233.333C56.6956 233.819 56.1207 234.148 55.4872 234.265C54.6204 234.464 53.7347 234.568 52.8454 234.576H52.1467C51.1369 234.576 50.2046 234.576 49.5049 234.499C48.8744 234.428 48.2929 234.125 47.8739 233.648C47.5213 233.119 47.3323 232.497 47.3302 231.861C47.2893 230.919 47.5627 229.99 48.1074 229.22C48.7509 228.453 49.6212 227.909 50.5932 227.667V229.376C50.1091 229.502 49.6753 229.773 49.3498 230.153C49.0948 230.517 48.959 230.952 48.9612 231.396C48.9348 231.66 48.9967 231.926 49.1374 232.151C49.2781 232.376 49.4895 232.548 49.7384 232.639C50.5201 232.867 51.3423 232.92 52.1467 232.794H52.8454C53.6665 232.834 54.4867 232.702 55.2537 232.406C55.5056 232.274 55.7135 232.072 55.8516 231.823C55.9897 231.575 56.052 231.291 56.0309 231.008C56.0555 230.725 56.0198 230.441 55.9261 230.173C55.8323 229.905 55.6827 229.66 55.4872 229.455C54.9007 229.326 54.3001 229.274 53.7002 229.3V230.93H52.1467V227.508C53.5263 227.457 54.9073 227.561 56.2635 227.819Z" fill="#161B26"/>
<path opacity="0.24" d="M53.0002 216.401V219.586C54.0875 219.586 54.6312 219.586 55.7195 219.663C55.7195 218.11 55.7195 217.333 55.642 215.78H57.273C57.273 218.11 57.3505 219.277 57.3505 221.605C53.9936 221.138 50.5833 221.217 47.2514 221.837C47.2514 219.507 47.2514 218.264 47.1738 215.934H48.8833V219.895C49.8156 219.817 50.3593 219.74 51.2916 219.74V216.555C51.8516 216.427 52.4263 216.375 53.0002 216.401Z" fill="#161B26"/>
</g>
</g>
<path opacity="0.49" d="M433.643 165.777V168.03L498.979 202.982V200.729L433.643 165.777Z" fill="#18191D"/>
<path opacity="0.49" d="M433.643 175.756V178.009L498.979 212.961V210.708L433.643 175.756Z" fill="#18191D"/>
<path opacity="0.49" d="M433.643 184.529V186.782L498.979 221.656V219.403L433.643 184.529Z" fill="#18191D"/>
<path opacity="0.49" d="M433.643 193.22V195.473L498.979 230.425V228.172L433.643 193.22Z" fill="#18191D"/>
<path d="M268.866 9.34717V139.99" stroke="#18191D" stroke-width="0.725" stroke-miterlimit="10"/>
<path d="M289.494 21.6968V152.496" stroke="#18191D" stroke-width="0.725" stroke-miterlimit="10"/>
<path d="M312.588 35.9883V166.71" stroke="#18191D" stroke-width="0.725" stroke-miterlimit="10"/>
<path d="M252.086 35.2109L387.343 118.63" stroke="#18191D" stroke-width="0.725" stroke-miterlimit="10"/>
<path d="M388.449 173.466L253.191 90.0474" stroke="#18191D" stroke-width="0.725" stroke-miterlimit="10"/>
<path d="M341.511 53.2314V184.186" stroke="#18191D" stroke-width="0.725" stroke-miterlimit="10"/>
<path d="M362.885 66.3584V197.624" stroke="#18191D" stroke-width="0.725" stroke-miterlimit="10"/>
<path d="M193.045 225.178L192.036 225.955L191.958 227.431L192.968 226.654L192.424 233.722L191.414 234.499L191.337 235.975L192.347 235.198L192.269 236.596L193.668 235.586L193.745 234.188L194.989 233.337L194.911 234.735L196.309 233.726L196.387 232.25C197.467 231.117 198.172 229.68 198.407 228.133C198.484 227.282 198.252 226.735 197.785 226.58C198.311 225.756 198.655 224.829 198.795 223.861C198.873 222.538 198.252 221.997 197.242 222.386L197.319 220.91L195.921 221.92L195.843 223.318L194.6 224.169L194.677 222.771L193.279 223.78L193.045 225.178ZM193.978 229.916L195.842 228.518C196.464 228.052 197.007 228.285 196.93 229.062C196.868 229.506 196.72 229.933 196.493 230.32C196.266 230.706 195.964 231.044 195.606 231.314L193.741 232.712L193.978 229.916ZM194.366 225.644L196.231 224.246C196.852 223.78 197.396 224.014 197.318 224.79C197.257 225.234 197.108 225.661 196.881 226.048C196.654 226.435 196.353 226.773 195.995 227.042L194.13 228.44L194.366 225.644Z" fill="url(#paint25_linear)"/>
<path d="M197.319 224.79C197.268 225.247 197.124 225.69 196.896 226.09C196.669 226.491 196.362 226.841 195.995 227.12L194.131 228.518V228.44L195.995 227.042C196.354 226.772 196.655 226.434 196.882 226.048C197.109 225.661 197.258 225.234 197.319 224.79Z" fill="url(#paint26_linear)"/>
<path d="M197.088 220.984L195.765 221.993V221.838L197.163 220.906L197.088 220.984Z" fill="url(#paint27_linear)"/>
<path d="M197.008 229.139C196.956 229.596 196.812 230.039 196.585 230.44C196.357 230.84 196.051 231.19 195.684 231.469L193.819 232.867V232.79L195.684 231.391C196.366 230.811 196.833 230.017 197.008 229.139Z" fill="url(#paint28_linear)"/>
<path d="M198.561 223.857C198.639 222.614 197.94 222.071 197.008 222.459V222.382C198.018 221.993 198.717 222.537 198.561 223.857Z" fill="url(#paint29_linear)"/>
<path d="M195.687 223.391L194.443 224.242V224.165L195.687 223.232V223.391Z" fill="url(#paint30_linear)"/>
<path d="M192.424 233.877L191.414 234.575V234.498L192.424 233.721V233.877Z" fill="url(#paint31_linear)"/>
<path d="M198.25 228.129C198.321 227.841 198.29 227.536 198.163 227.268C198.036 226.999 197.82 226.782 197.552 226.654C197.552 226.643 197.553 226.633 197.557 226.624C197.561 226.614 197.567 226.606 197.574 226.598C197.581 226.591 197.59 226.585 197.599 226.582C197.609 226.578 197.619 226.576 197.629 226.576C197.882 226.737 198.079 226.974 198.19 227.253C198.301 227.531 198.323 227.838 198.25 228.129Z" fill="url(#paint32_linear)"/>
<path d="M194.525 222.848L193.201 223.858V223.78L194.525 222.771V222.848Z" fill="url(#paint33_linear)"/>
<path d="M193.045 225.256L192.035 226.029V225.874L193.045 225.175V225.256Z" fill="url(#paint34_linear)"/>
<path d="M206.741 284.041C204.332 276.74 201.613 268.895 196.952 262.677C195.087 260.191 192.602 257.628 189.338 257.005C181.569 255.607 176.364 266.248 173.257 271.607C167.583 281.627 162.613 294.209 152.902 301.123C146.531 305.628 140.161 304.773 133.48 301.434C128.586 298.948 123.691 298.792 119.108 302.132C113.125 306.559 109.936 314.172 107.61 320.929C104.036 331.259 102.016 342.133 100.463 352.929C100.385 353.628 101.473 353.939 101.55 353.24C102.779 344.355 104.595 335.561 106.987 326.915C109.084 319.536 111.804 311.536 117.01 305.789C118.917 303.499 121.457 301.824 124.313 300.973C128.431 299.886 131.771 301.905 135.345 303.692C137.528 304.85 139.938 305.519 142.406 305.653C144.875 305.787 147.343 305.383 149.639 304.469C158.573 300.818 164.09 291.031 168.595 283.031C171.237 278.293 173.645 273.478 176.52 268.817C178.694 265.244 181.181 260.971 184.988 259.031C196.485 252.972 203.789 278.138 205.884 284.429C205.884 284.973 206.971 284.74 206.735 284.041H206.741Z" fill="url(#paint35_linear)"/>
<path d="M205.655 277.749C204.645 280.934 203.402 284.507 200.838 286.837C197.264 290.099 193.613 288.08 190.428 285.594C187.631 283.419 184.602 280.856 180.795 281.245C172.172 282.177 171.861 295.149 164.946 298.876C155.079 304.158 149.25 288.235 139.7 291.576C136.36 292.741 134.65 296.081 133.408 299.187C130.844 305.789 129.367 312.705 126.415 319.149C120.433 332.194 110.334 342.528 98.6802 350.683C98.059 351.072 98.6802 352.081 99.2239 351.693C109.479 344.547 118.646 335.77 124.784 324.896C127.65 319.616 129.941 314.043 131.62 308.275C133.173 303.382 134.494 294.293 140.319 292.582C145.446 291.029 150.108 296.388 153.992 298.796C157.255 300.815 161.062 301.903 164.791 300.272C168.598 298.562 170.773 294.679 172.639 291.184C175.047 286.836 177.999 280.776 184.136 282.952C188.72 284.582 191.905 290.331 197.111 289.942C202.705 289.554 205.268 282.796 206.744 278.214C206.977 277.282 205.893 277.049 205.657 277.748L205.655 277.749Z" fill="url(#paint36_linear)"/>
<path d="M206.819 295.616C190.738 290.412 183.202 309.597 172.325 317.131C168.441 319.85 163.546 321.558 158.729 320.782C154.457 320.005 151.271 319.152 146.921 320.627C138.064 323.578 133.014 331.89 127.11 338.494C118.933 347.314 109.285 354.646 98.5975 360.164C97.8203 360.552 98.52 361.717 99.2963 361.328C108.235 356.682 116.473 350.799 123.769 343.853C130.217 337.639 134.956 329.173 142.49 324.201C147.384 321.017 152.046 320.628 157.484 321.871C161.021 322.615 164.698 322.29 168.05 320.939C174.731 318.376 179.396 312.705 183.976 307.502C189.881 300.744 196.64 293.754 206.429 296.939C206.604 296.99 206.793 296.97 206.954 296.882C207.114 296.794 207.233 296.647 207.285 296.471C207.336 296.296 207.316 296.107 207.228 295.946C207.141 295.786 206.993 295.667 206.817 295.615L206.819 295.616Z" fill="url(#paint37_linear)"/>
<path d="M321.222 113.66V148.923" stroke="#938F8C" stroke-width="0.872" stroke-miterlimit="10"/>
<path d="M331.398 105.66V140.845" stroke="#938F8C" stroke-width="0.872" stroke-miterlimit="10"/>
<path d="M341.887 106.282V141.545" stroke="#938F8C" stroke-width="0.872" stroke-miterlimit="10"/>
<path d="M352.063 120.961V156.147" stroke="#938F8C" stroke-width="0.872" stroke-miterlimit="10"/>
<path d="M362.164 97.3496V132.613" stroke="#938F8C" stroke-width="0.872" stroke-miterlimit="10"/>
<path d="M372.341 121.505V156.768" stroke="#938F8C" stroke-width="0.872" stroke-miterlimit="10"/>
<path d="M382.519 143.331V178.516" stroke="#938F8C" stroke-width="0.872" stroke-miterlimit="10"/>
<path d="M280.745 53.4653V69.3107" stroke="#938F8C" stroke-width="0.872" stroke-miterlimit="10"/>
<path d="M300.867 97.1934V132.456" stroke="#938F8C" stroke-width="0.872" stroke-miterlimit="10"/>
<path d="M311.044 110.554V141.311" stroke="#938F8C" stroke-width="0.872" stroke-miterlimit="10"/>
<path d="M257.749 40.4937L262.488 43.2124V77.3883L257.749 74.6696V40.4937Z" fill="url(#paint38_linear)"/>
<path d="M267.693 46.2412L272.666 49.115V58.5132L267.693 55.6395V46.2412Z" fill="url(#paint39_linear)"/>
<path d="M290.922 74.2036V113.117" stroke="#938F8C" stroke-width="0.872" stroke-miterlimit="10"/>
<path d="M278.26 56.7266L283.076 59.5228V74.436C283.076 74.436 278.337 72.0283 278.337 71.7173C278.415 71.3288 278.26 56.7266 278.26 56.7266Z" fill="url(#paint40_linear)"/>
<path d="M288.514 77.5435L293.253 80.2622V110.399L288.514 107.68V77.5435Z" fill="url(#paint41_linear)"/>
<path d="M298.381 111.02L303.431 113.893V130.126L298.381 127.252V111.02Z" fill="url(#paint42_linear)"/>
<path d="M308.869 114.67L313.297 117.233V135.796L308.869 133.312V114.67Z" fill="url(#paint43_linear)"/>
<path d="M319.046 122.903L323.785 125.622V150.317L319.046 147.602V122.903Z" fill="url(#paint44_linear)"/>
<path d="M328.835 114.048L333.885 116.922V156.223L328.835 153.272V114.048Z" fill="url(#paint45_linear)"/>
<path d="M339.323 128.573L344.062 131.292V139.758L339.323 136.962V128.573Z" fill="url(#paint46_linear)"/>
<path d="M349.501 117.777L354.24 120.573V144.573L349.501 141.855V117.777Z" fill="url(#paint47_linear)"/>
<path d="M359.988 122.205L364.416 124.69V128.807L359.988 126.244V122.205Z" fill="url(#paint48_linear)"/>
<path d="M369.777 123.758L374.516 126.554V148.845L369.777 146.127V123.758Z" fill="url(#paint49_linear)"/>
<path d="M379.955 154.67L384.694 157.467V168.962L379.955 166.243V154.67Z" fill="url(#paint50_linear)"/>
<path d="M260.08 76.0674V81.1163" stroke="#938F8C" stroke-width="0.872" stroke-miterlimit="10"/>
<path d="M270.412 57.271V73.1938" stroke="#938F8C" stroke-width="0.872" stroke-miterlimit="10"/>
<path d="M270.258 41.2705V47.7175" stroke="#938F8C" stroke-width="0.872" stroke-miterlimit="10"/>
<path d="M443.432 334.353L407.691 316.178C407.021 315.83 406.245 315.747 405.516 315.945C404.506 316.256 403.652 316.566 403.652 317.421L405.205 349.733L408.391 351.363C407.381 351.907 377.626 368.296 377.626 368.296V369.539C377.626 369.798 377.699 370.052 377.836 370.272C377.974 370.492 378.17 370.668 378.403 370.782C383.763 373.501 415.073 389.578 415.073 389.578C415.583 389.841 416.152 389.964 416.725 389.937C417.298 389.91 417.853 389.733 418.336 389.423L446.382 371.248C446.527 371.159 446.647 371.034 446.729 370.885C446.81 370.735 446.852 370.567 446.848 370.397L445.217 336.998C445.179 336.439 444.994 335.9 444.68 335.436C444.367 334.971 443.936 334.598 443.432 334.353Z" fill="url(#paint51_linear)"/>
<path d="M445.84 369.341L405.209 348.754L403.499 316.519C403.49 316.304 403.538 316.091 403.636 315.9C403.735 315.709 403.881 315.546 404.062 315.429C404.242 315.312 404.449 315.243 404.664 315.23C404.879 315.217 405.093 315.26 405.286 315.354L442.729 334.383C443.126 334.599 443.462 334.912 443.707 335.292C443.951 335.672 444.096 336.107 444.128 336.558L445.84 369.341Z" fill="#306F9E"/>
<path d="M405.209 317.301L442.422 336.175L443.976 366.545L406.762 347.593L405.209 317.301Z" fill="#306F9E"/>
<path d="M445.841 372.096L405.209 351.28L378.095 368.834C377.921 368.951 377.78 369.111 377.685 369.298C377.59 369.485 377.544 369.694 377.552 369.904C377.559 370.114 377.621 370.318 377.729 370.498C377.838 370.677 377.991 370.826 378.173 370.93L415.541 390.116C415.944 390.32 416.393 390.414 416.844 390.386C417.295 390.359 417.73 390.212 418.105 389.961L445.841 372.096Z" fill="#FFF9FF"/>
<path d="M434.964 372.992L436.984 374.001C437.761 373.535 438.148 373.303 438.926 372.758L436.906 371.749C436.129 372.215 435.741 372.447 434.964 372.992Z" fill="#306F9E"/>
<path d="M432.012 371.437L434.031 372.447C434.809 371.981 435.196 371.748 435.973 371.204L433.954 370.194C433.099 370.738 432.71 370.971 432.012 371.437Z" fill="#306F9E"/>
<path d="M428.982 369.885L431.002 370.894C431.779 370.428 432.168 370.196 432.944 369.651L430.925 368.642C430.147 369.185 429.76 369.419 428.982 369.885Z" fill="#306F9E"/>
<path d="M426.03 368.409L428.05 369.419C428.827 368.953 429.215 368.72 429.992 368.176L427.972 367.166C427.196 367.632 426.808 367.943 426.03 368.409Z" fill="#306F9E"/>
<path d="M423 366.856L425.02 367.865C425.797 367.399 426.185 367.167 426.962 366.622L424.942 365.613C424.166 366.156 423.777 366.39 423 366.856Z" fill="#306F9E"/>
<path d="M420.048 365.379L422.068 366.388C422.845 365.922 423.233 365.69 424.01 365.145L421.99 364.136C421.213 364.602 420.825 364.834 420.048 365.379Z" fill="#306F9E"/>
<path d="M417.019 363.826L419.038 364.836C419.815 364.37 420.203 364.137 420.98 363.593L418.961 362.583C418.183 363.127 417.795 363.36 417.019 363.826Z" fill="#306F9E"/>
<path d="M414.065 362.351L416.085 363.36C416.862 362.894 417.25 362.662 418.027 362.117L416.008 361.107C415.23 361.573 414.843 361.806 414.065 362.351Z" fill="#306F9E"/>
<path d="M411.113 360.797L413.133 361.807C413.909 361.341 414.298 361.108 415.075 360.564L413.055 359.554C412.278 360.098 411.891 360.331 411.113 360.797Z" fill="#306F9E"/>
<path d="M408.083 359.243L410.103 360.253C410.88 359.787 411.268 359.554 412.045 359.01L410.025 358C409.249 358.544 408.86 358.777 408.083 359.243Z" fill="#306F9E"/>
<path d="M405.131 357.767L407.15 358.777C407.928 358.311 408.316 358.077 409.093 357.534L407.073 356.524C406.296 356.99 405.908 357.301 405.131 357.767Z" fill="#306F9E"/>
<path d="M402.102 356.214L404.121 357.224C404.898 356.758 405.287 356.525 406.063 355.981L404.044 354.971C403.267 355.515 402.879 355.748 402.102 356.214Z" fill="#306F9E"/>
<path d="M432.245 374.7L434.265 375.71C435.042 375.244 435.43 375.01 436.207 374.467L434.187 373.457C433.41 373.923 433.022 374.156 432.245 374.7Z" fill="#306F9E"/>
<path d="M429.293 373.147L431.313 374.156C432.09 373.69 432.478 373.457 433.255 372.913L431.235 371.904C430.458 372.447 430.07 372.681 429.293 373.147Z" fill="#306F9E"/>
<path d="M426.263 371.671L428.282 372.68C429.06 372.214 429.447 371.982 430.224 371.437L428.205 370.428C427.428 370.894 427.04 371.126 426.263 371.671Z" fill="#306F9E"/>
<path d="M423.311 370.118L425.33 371.128C426.107 370.662 426.495 370.428 427.272 369.885L425.253 368.875C424.475 369.419 424.088 369.652 423.311 370.118Z" fill="#306F9E"/>
<path d="M420.28 368.564L422.3 369.574C423.077 369.108 423.465 368.874 424.242 368.33L422.222 367.321C421.446 367.864 421.058 368.098 420.28 368.564Z" fill="#306F9E"/>
<path d="M417.328 367.087L419.348 368.097C420.125 367.631 420.513 367.398 421.29 366.854L419.27 365.844C418.493 366.311 418.105 366.622 417.328 367.087Z" fill="#306F9E"/>
<path d="M414.377 365.535L416.397 366.545C417.174 366.079 417.562 365.846 418.339 365.302L416.319 364.292C415.542 364.836 415.154 365.069 414.377 365.535Z" fill="#306F9E"/>
<path d="M411.346 364.059L413.365 365.069C414.143 364.603 414.53 364.371 415.307 363.826L413.288 362.816C412.511 363.282 412.123 363.515 411.346 364.059Z" fill="#306F9E"/>
<path d="M408.395 362.505L410.414 363.515C411.191 363.049 411.579 362.816 412.356 362.272L410.337 361.262C409.559 361.806 409.172 362.039 408.395 362.505Z" fill="#306F9E"/>
<path d="M405.364 361.03L407.384 362.039C408.161 361.573 408.549 361.341 409.326 360.796L407.306 359.787C406.529 360.253 406.141 360.485 405.364 361.03Z" fill="#306F9E"/>
<path d="M402.412 359.476L404.432 360.486C405.209 360.02 405.597 359.787 406.374 359.243L404.354 358.233C403.578 358.777 403.189 359.01 402.412 359.476Z" fill="#306F9E"/>
<path d="M399.46 357.923C400.784 358.622 401.48 358.933 402.878 359.633C403.655 359.167 404.044 358.934 404.82 358.389C403.496 357.691 402.801 357.38 401.402 356.68C400.547 357.224 400.159 357.457 399.46 357.923Z" fill="#306F9E"/>
<path d="M428.205 375.709C429.529 376.408 430.225 376.719 431.546 377.418C432.322 376.952 432.711 376.72 433.488 376.175C432.164 375.477 431.468 375.166 430.147 374.466C429.37 375.01 428.982 375.243 428.205 375.709Z" fill="#306F9E"/>
<path d="M426.574 374.856L428.594 375.865C429.371 375.399 429.759 375.166 430.536 374.622L428.516 373.613C427.739 374.156 427.351 374.39 426.574 374.856Z" fill="#306F9E"/>
<path d="M423.543 373.38L425.563 374.39C426.34 373.924 426.729 373.69 427.505 373.147L425.485 372.137C424.708 372.603 424.32 372.836 423.543 373.38Z" fill="#306F9E"/>
<path d="M420.592 371.826L422.611 372.836C423.389 372.37 423.776 372.137 424.554 371.593L422.534 370.583C421.757 371.127 421.369 371.36 420.592 371.826Z" fill="#306F9E"/>
<path d="M417.64 370.273L419.659 371.283C420.437 370.817 420.824 370.583 421.602 370.039L419.582 369.03C418.727 369.573 418.338 369.807 417.64 370.273Z" fill="#306F9E"/>
<path d="M414.609 368.797L416.629 369.807C417.406 369.341 417.794 369.108 418.571 368.564L416.551 367.554C415.775 368.02 415.387 368.331 414.609 368.797Z" fill="#306F9E"/>
<path d="M411.657 367.243L413.677 368.253C414.454 367.787 414.843 367.553 415.619 367.01L413.599 366C412.822 366.544 412.434 366.777 411.657 367.243Z" fill="#306F9E"/>
<path d="M408.628 365.768L410.648 366.777C411.425 366.311 411.812 366.078 412.59 365.534L410.57 364.524C409.793 364.99 409.405 365.223 408.628 365.768Z" fill="#306F9E"/>
<path d="M405.675 364.215L407.694 365.224C408.472 364.758 408.859 364.526 409.636 363.981L407.617 362.972C406.84 363.515 406.452 363.749 405.675 364.215Z" fill="#306F9E"/>
<path d="M402.646 362.739L404.665 363.748C405.442 363.282 405.83 363.05 406.607 362.505L404.588 361.496C403.81 361.962 403.423 362.194 402.646 362.739Z" fill="#306F9E"/>
<path d="M399.693 361.185L401.713 362.195C402.49 361.729 402.878 361.496 403.655 360.952L401.635 359.942C400.859 360.486 400.471 360.719 399.693 361.185Z" fill="#306F9E"/>
<path d="M396.74 359.632L398.76 360.641C399.536 360.175 399.925 359.943 400.702 359.398L398.682 358.389C397.906 358.932 397.517 359.166 396.74 359.632Z" fill="#306F9E"/>
<path d="M426.807 378.118L428.826 379.128C429.603 378.662 429.991 378.428 430.768 377.885L428.749 376.875C427.972 377.341 427.584 377.652 426.807 378.118Z" fill="#306F9E"/>
<path d="M423.854 376.564L425.874 377.573C426.651 377.107 427.039 376.874 427.816 376.33L425.797 375.321C425.019 375.864 424.632 376.098 423.854 376.564Z" fill="#306F9E"/>
<path d="M420.825 375.088L422.845 376.098C423.622 375.632 424.01 375.398 424.787 374.855L422.767 373.845C421.991 374.311 421.602 374.545 420.825 375.088Z" fill="#306F9E"/>
<path d="M417.872 373.535L419.892 374.545C420.669 374.079 421.057 373.845 421.834 373.302L419.814 372.292C419.037 372.836 418.649 373.069 417.872 373.535Z" fill="#306F9E"/>
<path d="M414.92 372.06L416.94 373.069C417.717 372.603 418.105 372.37 418.882 371.826L416.862 370.816C416.085 371.282 415.697 371.516 414.92 372.06Z" fill="#306F9E"/>
<path d="M411.891 370.506L413.91 371.515C414.687 371.049 415.075 370.816 415.852 370.272L413.833 369.263C413.056 369.806 412.668 370.04 411.891 370.506Z" fill="#306F9E"/>
<path d="M408.938 368.953L410.957 369.962C411.734 369.496 412.123 369.263 412.899 368.719L410.88 367.709C410.102 368.253 409.715 368.487 408.938 368.953Z" fill="#306F9E"/>
<path d="M405.908 367.477L407.928 368.486C408.705 368.02 409.094 367.788 409.87 367.243L407.85 366.234C407.073 366.7 406.685 367.011 405.908 367.477Z" fill="#306F9E"/>
<path d="M402.956 365.924L404.976 366.933C405.753 366.467 406.141 366.235 406.918 365.69L404.898 364.681C404.122 365.224 403.733 365.458 402.956 365.924Z" fill="#306F9E"/>
<path d="M400.004 364.448L402.024 365.458C402.801 364.992 403.189 364.758 403.966 364.215L401.946 363.205C401.271 363.574 400.622 363.989 400.004 364.448Z" fill="#306F9E"/>
<path d="M395.73 362.273C397.054 362.972 397.75 363.282 399.071 363.982C399.848 363.516 400.236 363.282 401.013 362.739C399.689 362.04 398.994 361.729 397.673 361.03C396.997 361.398 396.348 361.814 395.73 362.273Z" fill="#306F9E"/>
<path d="M394.021 361.418L396.041 362.428C396.818 361.962 397.206 361.729 397.983 361.185L395.964 360.175C395.186 360.641 394.799 360.874 394.021 361.418Z" fill="#306F9E"/>
<path d="M423.777 380.06L425.797 381.069C426.574 380.603 426.962 380.37 427.739 379.826L425.719 378.816C424.942 379.36 424.555 379.594 423.777 380.06Z" fill="#306F9E"/>
<path d="M420.746 378.506L422.766 379.515C423.543 379.049 423.931 378.817 424.708 378.272L422.688 377.263C421.911 377.806 421.523 378.04 420.746 378.506Z" fill="#306F9E"/>
<path d="M417.795 377.03L419.815 378.04C420.592 377.574 420.979 377.34 421.757 376.797L419.737 375.787C418.96 376.253 418.572 376.564 417.795 377.03Z" fill="#306F9E"/>
<path d="M399.849 367.865C405.522 370.739 411.114 373.613 416.785 376.486C417.562 376.02 417.95 375.787 418.727 375.243C413.054 372.37 407.462 369.496 401.791 366.622C401.014 367.166 400.626 367.399 399.849 367.865Z" fill="#306F9E"/>
<path d="M396.896 366.389L398.916 367.399C399.693 366.933 400.082 366.7 400.858 366.156L398.839 365.146C398.061 365.612 397.674 365.923 396.896 366.389Z" fill="#306F9E"/>
<path d="M393.866 364.835L395.886 365.845C396.663 365.379 397.051 365.146 397.828 364.602L395.808 363.592C395.032 364.136 394.643 364.369 393.866 364.835Z" fill="#306F9E"/>
<path d="M390.914 363.36L392.934 364.369C393.711 363.903 394.1 363.67 394.876 363.126L392.856 362.117C392.079 362.583 391.691 362.815 390.914 363.36Z" fill="#306F9E"/>
<path d="M417.677 378.288L403.77 371.142L396.234 376.269L410.219 383.414L417.677 378.288Z" fill="#306F9E"/>
<path d="M411.812 335.918L409.403 334.675V334.83L411.812 335.995V335.918Z" fill="#806CBE"/>
<path d="M413.676 337.146L413.754 337.068L412.744 336.602L412.822 336.68L413.676 337.146Z" fill="#806CBE"/>
<path d="M410.882 338.253L409.559 337.554V337.632L410.802 338.33L410.882 338.253Z" fill="#806CBE"/>
<path d="M410.802 338.497L409.637 340.828L411.269 341.678L415.697 343.931L413.288 338.106L412.822 336.94L412.745 336.863L412.201 335.465L411.812 336.316V336.393L410.88 338.412L410.802 338.497Z" fill="url(#paint52_linear)"/>
<path d="M413.677 337.461L413.288 338.159L415.696 343.984L417.25 343.286L416.399 341.344L416.321 341.267L414.923 338.082V338.004L414.223 336.451L413.757 337.383L413.677 337.461Z" fill="#282849"/>
<path d="M418.804 343.143L417.251 343.764L415.697 344.463L418.106 345.706L422.223 347.802L419.426 343.842L418.883 343.142V343.065L418.804 343.143Z" fill="url(#paint53_linear)"/>
<path d="M419.659 343.242V343.165L416.318 341.456L416.396 341.533L418.804 342.856L418.882 342.779V342.856L419.659 343.242Z" fill="#806CBE"/>
<path d="M419.657 343.482L419.424 343.793L422.221 347.754L422.764 346.511L421.913 344.647L421.836 344.492L420.671 342.007L419.661 343.405L419.657 343.482Z" fill="#282849"/>
<path d="M423.31 345.336L423.387 345.259L421.834 344.485L421.911 344.64L423.31 345.336Z" fill="#806CBE"/>
<path d="M424.243 342.917L424.321 342.839L414.92 338.024V338.101L424.243 342.917Z" fill="#806CBE"/>
<path d="M423.31 345.514L422.766 346.678L422.223 347.921L423.776 348.698L427.66 350.718L425.641 345.125L425.252 343.961L425.175 343.806L424.708 342.562L424.32 343.413L424.242 343.491L423.391 345.432L423.31 345.514Z" fill="url(#paint54_linear)"/>
<path d="M426.026 344.072L426.103 343.994L425.171 343.528L425.248 343.683L426.026 344.072Z" fill="#806CBE"/>
<path d="M427.272 341.258L409.248 332.088V332.166L427.194 341.335L427.272 341.258Z" fill="#806CBE"/>
<path d="M409.17 329.509V329.586L439.391 345.121H439.469V345.043L439.391 344.966L409.17 329.509Z" fill="#806CBE"/>
<path d="M439.625 348.432L439.47 348.354L427.894 342.451L427.971 342.528L439.47 348.432L439.625 348.509V348.432Z" fill="#806CBE"/>
<path d="M430.535 346.634L430.613 346.556L429.525 346.013L429.603 346.168L430.535 346.634Z" fill="#806CBE"/>
<path d="M439.859 354.566L439.781 354.488L437.605 353.401L437.683 353.556L439.78 354.566L439.858 354.643L439.859 354.566Z" fill="#806CBE"/>
<path d="M430.535 347.124L430.068 347.745L427.66 351.163L432.788 353.804L436.906 355.901L434.963 351.784L433.565 348.676L433.487 348.521L431.934 345.182L430.61 347.046L430.535 347.124Z" fill="url(#paint55_linear)"/>
<path d="M436.206 350.62L434.963 351.785L436.905 355.902L439.857 357.455L437.682 353.338L437.605 353.183L436.206 350.62Z" fill="url(#paint56_linear)"/>
<path d="M439.701 351.707H439.624L433.486 348.522L433.564 348.677L439.624 351.785L439.701 351.862V351.707Z" fill="url(#paint57_linear)"/>
<path d="M426.029 344.304L425.641 345.081L427.66 350.673L430.069 347.256L429.602 346.169L429.525 346.014L427.971 342.596L427.894 342.519L427.505 341.587L427.273 342.13L427.195 342.208L426.108 344.227L426.029 344.304Z" fill="#282849"/>
<path d="M409.015 326.251V326.328L439.313 341.863V341.785L409.015 326.251Z" fill="#806CBE"/>
<path d="M439.236 343.32L439.391 346.116L439.469 346.193V346.271H439.391L439.469 348.756L439.624 348.834V348.911L439.469 348.834L439.624 351.552H439.701V351.709L439.624 351.632L439.779 354.117L439.856 354.194V354.272L439.779 354.194L439.856 357.302L409.559 341.689V341.844L440.013 357.456L439.314 343.397L439.236 343.32Z" fill="#806CBE"/>
<path opacity="0.2" d="M405.286 315.36L442.729 334.389C443.126 334.605 443.463 334.917 443.707 335.297C443.951 335.677 444.096 336.113 444.128 336.563L445.837 369.341L444.594 368.72C436.981 358.623 408.313 320.486 404.584 315.282C404.82 315.23 405.067 315.257 405.286 315.36Z" fill="#FFF9FF"/>
<path d="M157.818 139.479C157.74 139.557 157.585 139.557 157.507 139.634C157.584 139.557 157.739 139.557 157.818 139.479Z" fill="#004075"/>
<path d="M157.51 139.562C157.432 139.64 157.51 139.64 157.51 139.562C157.51 139.64 157.432 139.64 157.51 139.562Z" fill="#004075"/>
<path d="M145.113 147.775C145.035 147.852 144.88 147.93 144.802 148.008C144.879 148.007 145.034 147.852 145.113 147.775Z" fill="#007CE4"/>
<path opacity="0.14" d="M446.771 374.293L420.823 409.944C413.192 408.403 406.14 404.768 400.459 399.445C394.778 394.122 390.693 387.322 388.66 379.808C398.138 384.391 407.539 389.051 417.017 393.633L446.771 374.293Z" fill="#18191D"/>
<path d="M125.908 483.983L102.989 491.673V520.488C102.989 526.313 110.759 531.051 120.314 531.051C129.87 531.051 137.639 526.313 137.639 520.488V491.673L125.908 483.983Z" fill="#FFF9FF"/>
<path d="M120.391 502.235C129.96 502.235 137.716 497.506 137.716 491.672C137.716 485.839 129.96 481.109 120.391 481.109C110.823 481.109 103.066 485.839 103.066 491.672C103.066 497.506 110.823 502.235 120.391 502.235Z" fill="#D3BAE7"/>
<path d="M105.631 497.265C108.657 500.29 114.177 502.314 120.392 502.314C126.607 502.314 132.123 500.294 135.153 497.265C135.369 496.667 135.474 496.036 135.464 495.4C135.464 490.352 128.705 486.231 120.392 486.231C112.079 486.231 105.32 490.348 105.32 495.4C105.309 496.036 105.415 496.667 105.631 497.265Z" fill="#752939"/>
<path d="M120.391 482.352C129.171 482.352 136.55 486.624 136.55 491.673C136.55 496.722 129.17 500.994 120.391 500.994C111.613 500.994 104.232 496.722 104.232 491.673C104.232 486.624 111.613 482.352 120.391 482.352ZM120.391 481.109C110.836 481.109 103.066 485.847 103.066 491.672C103.066 497.497 110.835 502.235 120.391 502.235C129.948 502.235 137.716 497.497 137.716 491.672C137.716 485.847 129.947 481.109 120.391 481.109Z" fill="#BCBACE"/>
<path fill-rule="evenodd" clip-rule="evenodd" d="M114.272 491.296C111.164 489.509 99.9 482.441 98.268 482.364C96.5585 482.286 100.676 487.257 104.792 491.296C108.908 495.335 119.164 495.257 118.077 494.403C116.913 493.549 114.272 491.296 114.272 491.296Z" fill="url(#paint58_linear)"/>
<path fill-rule="evenodd" clip-rule="evenodd" d="M110.629 478.236C109.851 474.818 109.305 471.866 109.696 470.779C110.629 468.138 116.688 479.866 117.077 480.721C119.485 486.856 114.28 493.928 110.629 478.236Z" fill="url(#paint59_linear)"/>
<path fill-rule="evenodd" clip-rule="evenodd" d="M112.859 484.748C112.161 483.272 104.935 472.864 104.236 474.883C103.459 476.903 104.702 481.019 106.8 484.825C108.897 488.631 111.227 491.816 113.015 491.66C114.802 491.504 112.859 484.748 112.859 484.748Z" fill="url(#paint60_linear)"/>
<path fill-rule="evenodd" clip-rule="evenodd" d="M116.977 487.401C116.511 485.848 111.304 475.75 110.839 476.058C110.375 476.365 109.989 478.62 110.995 483.358C112.004 488.019 113.636 490.581 115.734 491.281C117.987 491.907 116.977 487.401 116.977 487.401Z" fill="#1A685A"/>
<path fill-rule="evenodd" clip-rule="evenodd" d="M119.58 489.713C118.069 486.211 116.33 482.812 114.375 479.538C114.142 479.77 113.21 480.081 113.442 484.275C113.675 488.47 114.996 491.343 116.705 491.965C118.415 492.664 119.58 489.713 119.58 489.713Z" fill="#1A685A"/>
<path fill-rule="evenodd" clip-rule="evenodd" d="M117.561 485.857C117.561 485.857 115.23 481.196 115.386 477.934C115.542 474.672 116.086 471.1 116.63 471.566C117.173 472.109 119.815 475.216 120.514 477.934C121.213 480.652 122.379 484.536 120.281 485.78C118.184 487.024 117.561 485.779 117.561 485.857Z" fill="#1A685A"/>
<path fill-rule="evenodd" clip-rule="evenodd" d="M123.302 486.199C123.302 486.199 125.633 481.538 125.477 478.276C125.321 475.014 124.778 471.441 124.233 471.907C123.69 472.451 121.048 475.558 120.349 478.276C119.65 480.994 118.484 484.878 120.583 486.122C122.76 487.363 123.381 486.121 123.302 486.199Z" fill="url(#paint61_linear)"/>
<path fill-rule="evenodd" clip-rule="evenodd" d="M116.569 487.17C116.88 483.519 119.289 479.403 120.299 480.723C121.308 482.042 124.494 485.927 123.797 489.577C123.176 493.228 120.379 494.704 119.757 494.16C117.89 492.216 116.259 490.276 116.569 487.17Z" fill="#1A685A"/>
<path fill-rule="evenodd" clip-rule="evenodd" d="M122.329 493.674C118.499 491.694 114.789 489.489 111.219 487.072C107.178 484.121 106.869 482.955 106.946 484.587C107.166 486.562 107.86 488.456 108.969 490.106C110.079 491.755 111.57 493.113 113.317 494.063C114.726 494.776 116.295 495.115 117.874 495.047C119.452 494.979 120.986 494.506 122.329 493.674Z" fill="url(#paint62_linear)"/>
<path fill-rule="evenodd" clip-rule="evenodd" d="M126.985 491.638C130.093 489.852 141.357 482.783 142.989 482.706C144.698 482.628 140.58 487.599 136.465 491.638C132.349 495.678 122.092 495.599 123.18 494.745C124.267 493.892 126.985 491.638 126.985 491.638Z" fill="url(#paint63_linear)"/>
<path fill-rule="evenodd" clip-rule="evenodd" d="M130.353 478.578C131.131 475.161 131.677 472.21 131.286 471.122C130.353 468.481 124.294 480.209 123.905 481.064C121.498 487.199 126.624 494.271 130.353 478.578Z" fill="url(#paint64_linear)"/>
<path fill-rule="evenodd" clip-rule="evenodd" d="M128.086 485.005C128.786 483.529 136.01 473.122 136.709 475.141C137.486 477.16 136.243 481.277 134.146 485.083C132.049 488.888 129.718 492.078 127.931 491.918C126.144 491.758 128.086 485.005 128.086 485.005Z" fill="url(#paint65_linear)"/>
<path fill-rule="evenodd" clip-rule="evenodd" d="M123.902 487.745C124.368 486.191 129.575 476.094 130.039 476.401C130.503 476.708 130.89 478.964 129.884 483.702C128.874 488.363 127.242 490.926 125.145 491.625C122.969 492.25 123.902 487.745 123.902 487.745Z" fill="#1A685A"/>
<path fill-rule="evenodd" clip-rule="evenodd" d="M126.629 479.98C126.862 480.214 127.794 480.524 127.561 484.718C127.329 488.913 126.008 491.787 124.298 492.408C117.849 494.812 126.006 479.355 126.629 479.98Z" fill="#1A685A"/>
<path fill-rule="evenodd" clip-rule="evenodd" d="M118.74 494.015C122.57 492.035 126.28 489.83 129.85 487.413C133.891 484.462 134.2 483.296 134.123 484.928C134.047 486.559 132.57 491.996 127.753 494.403C126.338 495.096 124.771 495.423 123.197 495.355C121.623 495.287 120.091 494.826 118.74 494.015Z" fill="url(#paint66_linear)"/>
<path d="M145.776 90.8479L145.132 89.2948L146.694 83.5927C146.694 78.6212 151.347 73.9939 155.62 71.5077L156.164 71.1967L161.913 67.8569L162.456 67.5459C166.729 65.0607 170.304 67.0799 170.304 71.9728V77.4878C171.935 76.7892 173.179 78.0314 173.179 80.3616V80.8276C173.014 83.0524 172.015 85.1331 170.382 86.6526V88.1283C170.382 88.5168 170.459 88.9053 170.459 89.2929C170.472 89.8118 170.446 90.331 170.382 90.846C170.159 93.6861 169.194 96.418 167.585 98.7687C167.119 99.5458 166.652 100.244 166.109 101.021L165.579 101.724C163.803 103.916 161.602 105.727 159.11 107.051C157.161 108.172 155.055 108.995 152.862 109.492C152.551 109.415 150.067 110.758 149.757 110.68C149.368 110.525 150.068 110.147 149.757 109.914C148.315 109.365 147.061 110.658 146.695 108.401C146.695 108.435 145.794 107.749 145.776 107.469H145.135L145.779 104.559C145.779 104.17 146.621 103.417 146.698 103.028L145.779 102.264C144.303 102.731 143.638 103.74 143.482 101.643V96.9055C143.323 94.8183 144.144 92.0173 145.776 90.8479Z" fill="#F0B89E"/>
<path d="M151.616 109.404L152.315 116.627L154.799 112.588L157.751 107.773C157.906 107.696 158.14 107.54 158.295 107.462C158.45 107.385 158.683 107.229 158.838 107.151L161.864 108.549L164.35 109.714L165.545 101.8C174.79 98.4599 182.95 100.97 184.194 111.145C184.194 111.222 184.271 111.145 184.194 111.145C184.071 111.821 183.81 112.465 183.427 113.036C182.443 114.424 180.09 116.923 179.189 118.105C178.878 118.494 178.645 118.804 178.338 119.192L175.312 122.921C174.924 123.387 174.535 123.771 174.225 124.164C173.138 125.407 172.05 126.494 170.884 127.661L170.033 128.512C168.635 129.836 167.159 131.153 165.684 132.318C165.607 132.396 165.529 132.396 165.451 132.473C164.837 133.008 164.188 133.501 163.508 133.949C163.042 134.26 162.576 134.648 162.11 134.958C160.867 135.813 159.624 136.59 158.381 137.288C157.137 137.987 155.895 138.687 154.652 139.23C154.185 139.463 153.719 139.619 153.253 139.851C152.632 140.084 152.01 140.395 151.311 140.628C151.234 140.628 151.156 140.706 151.077 140.706C149.657 141.217 148.204 141.632 146.728 141.949C146.417 142.026 146.184 142.026 145.877 142.104C144.773 142.305 143.657 142.435 142.537 142.492H141.371C140.358 142.492 139.346 142.414 138.345 142.259C138.034 142.259 137.801 142.181 137.494 142.181C136.305 141.963 135.135 141.652 133.996 141.249C133.985 141.25 133.975 141.248 133.966 141.244C133.956 141.24 133.947 141.234 133.94 141.227C133.933 141.22 133.927 141.211 133.923 141.202C133.92 141.192 133.918 141.182 133.918 141.172C135.146 129.598 142.371 116.783 151.616 109.404Z" fill="url(#paint67_linear)"/>
<path d="M120.599 116.189C120.676 129.627 125.959 138.558 134.272 141.743C135.437 130.014 142.818 116.965 152.296 109.665C151.981 109.606 151.67 109.528 151.364 109.432C151.007 109.324 150.667 109.168 150.354 108.966C148.722 108.345 147.634 106.713 147.479 104.306C147.413 103.817 147.387 103.323 147.402 102.83C147.389 102.414 147.415 101.998 147.479 101.587V100.111C146.003 100.577 144.838 99.5678 144.683 97.4702V97.0042C144.678 95.8401 144.925 94.6889 145.408 93.6297C145.891 92.5704 146.598 91.6283 147.479 90.8681V85.3532C147.479 80.3818 150.978 74.4017 155.248 71.9156L155.792 71.6046L161.54 68.2648L162.084 67.9538C166.357 65.4685 169.932 67.4877 169.932 72.3807V77.8956C171.563 77.197 172.806 78.4392 172.806 80.7694V81.2354C172.642 83.4602 171.643 85.5408 170.01 87.0604V88.536C170.01 88.9246 170.087 89.3131 170.087 89.7007C170.1 90.2196 170.074 90.7388 170.01 91.2538C169.787 94.0938 168.822 96.8257 167.213 99.1765C166.746 99.9535 166.28 100.652 165.737 101.429L165.27 102.05C174.671 98.4769 182.129 102.982 183.372 113.313C191.607 100.497 196.893 85.5063 196.812 72.0687C196.735 47.9907 179.644 38.2039 158.667 50.3209C137.535 62.6733 120.521 92.0328 120.599 116.189Z" fill="url(#paint68_linear)"/>
<path d="M148.525 78.2076C149.146 80.0718 153.807 80.9263 157.148 79.6833C161.81 77.8966 163.984 71.8372 165.771 72.4602C166.549 72.7712 166.549 73.9358 167.247 73.9358C168.024 73.8583 168.571 72.1492 168.723 71.0621C168.766 70.5712 168.766 70.0774 168.723 69.5865C168.576 68.4876 168.054 67.473 167.247 66.7127C164.684 64.3041 147.124 74.1665 148.525 78.2076Z" fill="#564334"/>
<defs>
<linearGradient id="paint0_linear" x1="359.311" y1="263.137" x2="286.278" y2="263.137" gradientUnits="userSpaceOnUse">
<stop stop-color="#22B573"/>
<stop offset="1" stop-color="#39B54A"/>
</linearGradient>
<linearGradient id="paint1_linear" x1="65.7383" y1="534.385" x2="435.505" y2="534.385" gradientUnits="userSpaceOnUse">
<stop stop-color="#80D8E8"/>
<stop offset="1" stop-color="#0B7ED8"/>
</linearGradient>
<linearGradient id="paint2_linear" x1="435.62" y1="598" x2="65.7412" y2="598" gradientUnits="userSpaceOnUse">
<stop stop-color="#80D8E8"/>
<stop offset="1" stop-color="#0B7ED8"/>
</linearGradient>
<linearGradient id="paint3_linear" x1="351.582" y1="452.324" x2="396.883" y2="452.324" gradientUnits="userSpaceOnUse">
<stop stop-color="#22B573"/>
<stop offset="1" stop-color="#39B54A"/>
</linearGradient>
<linearGradient id="paint4_linear" x1="362.373" y1="465.469" x2="379.387" y2="465.469" gradientUnits="userSpaceOnUse">
<stop stop-color="#22B573"/>
<stop offset="1" stop-color="#39B54A"/>
</linearGradient>
<linearGradient id="paint5_linear" x1="384.061" y1="351.341" x2="463.725" y2="351.341" gradientUnits="userSpaceOnUse">
<stop stop-color="#ECAD82"/>
<stop offset="1" stop-color="#E35A75"/>
</linearGradient>
<linearGradient id="paint6_linear" x1="54.3368" y1="49.7191" x2="70.807" y2="49.7191" gradientUnits="userSpaceOnUse">
<stop stop-color="#ECAD82"/>
<stop offset="1" stop-color="#E35A75"/>
</linearGradient>
<linearGradient id="paint7_linear" x1="33.5517" y1="86.0254" x2="46.7324" y2="86.0254" gradientUnits="userSpaceOnUse">
<stop stop-color="#ECAD82"/>
<stop offset="1" stop-color="#E35A75"/>
</linearGradient>
<linearGradient id="paint8_linear" x1="168.282" y1="559.422" x2="202.353" y2="559.422" gradientUnits="userSpaceOnUse">
<stop stop-color="#ECAD82"/>
<stop offset="1" stop-color="#E35A75"/>
</linearGradient>
<linearGradient id="paint9_linear" x1="218.103" y1="482.36" x2="288.56" y2="482.36" gradientUnits="userSpaceOnUse">
<stop stop-color="#22B573"/>
<stop offset="1" stop-color="#39B54A"/>
</linearGradient>
<linearGradient id="paint10_linear" x1="218.103" y1="490.399" x2="288.56" y2="490.399" gradientUnits="userSpaceOnUse">
<stop stop-color="#22B573"/>
<stop offset="1" stop-color="#39B54A"/>
</linearGradient>
<linearGradient id="paint11_linear" x1="218.103" y1="481.7" x2="288.56" y2="481.7" gradientUnits="userSpaceOnUse">
<stop stop-color="#22B573"/>
<stop offset="1" stop-color="#39B54A"/>
</linearGradient>
<linearGradient id="paint12_linear" x1="218.103" y1="477.541" x2="288.56" y2="477.541" gradientUnits="userSpaceOnUse">
<stop stop-color="#22B573"/>
<stop offset="1" stop-color="#39B54A"/>
</linearGradient>
<linearGradient id="paint13_linear" x1="218.103" y1="485.604" x2="288.56" y2="485.604" gradientUnits="userSpaceOnUse">
<stop stop-color="#22B573"/>
<stop offset="1" stop-color="#39B54A"/>
</linearGradient>
<linearGradient id="paint14_linear" x1="218.103" y1="476.92" x2="288.56" y2="476.92" gradientUnits="userSpaceOnUse">
<stop stop-color="#22B573"/>
<stop offset="1" stop-color="#39B54A"/>
</linearGradient>
<linearGradient id="paint15_linear" x1="218.711" y1="488.563" x2="260.119" y2="488.563" gradientUnits="userSpaceOnUse">
<stop stop-color="#22B573"/>
<stop offset="1" stop-color="#39B54A"/>
</linearGradient>
<linearGradient id="paint16_linear" x1="47.1297" y1="109.834" x2="54.1406" y2="109.834" gradientUnits="userSpaceOnUse">
<stop stop-color="#ECAD82"/>
<stop offset="1" stop-color="#E35A75"/>
</linearGradient>
<linearGradient id="paint17_linear" x1="191.169" y1="444.951" x2="209.518" y2="444.951" gradientUnits="userSpaceOnUse">
<stop stop-color="#ECAD82"/>
<stop offset="1" stop-color="#E35A75"/>
</linearGradient>
<linearGradient id="paint18_linear" x1="255.257" y1="601.406" x2="289.328" y2="601.406" gradientUnits="userSpaceOnUse">
<stop stop-color="#ECAD82"/>
<stop offset="1" stop-color="#E35A75"/>
</linearGradient>
<linearGradient id="paint19_linear" x1="19.631" y1="39.3165" x2="29.0099" y2="39.3165" gradientUnits="userSpaceOnUse">
<stop stop-color="#ECAD82"/>
<stop offset="1" stop-color="#E35A75"/>
</linearGradient>
<linearGradient id="paint20_linear" x1="35.2861" y1="269.433" x2="65.6756" y2="269.433" gradientUnits="userSpaceOnUse">
<stop stop-color="#80D8E8"/>
<stop offset="1" stop-color="#0B7ED8"/>
</linearGradient>
<linearGradient id="paint21_linear" x1="32.3085" y1="413.75" x2="39.8093" y2="413.75" gradientUnits="userSpaceOnUse">
<stop stop-color="#80D8E8"/>
<stop offset="1" stop-color="#0B7ED8"/>
</linearGradient>
<linearGradient id="paint22_linear" x1="55.976" y1="396.634" x2="59.6809" y2="396.634" gradientUnits="userSpaceOnUse">
<stop stop-color="#80D8E8"/>
<stop offset="1" stop-color="#0B7ED8"/>
</linearGradient>
<linearGradient id="paint23_linear" x1="24.7741" y1="463.66" x2="33.0416" y2="463.66" gradientUnits="userSpaceOnUse">
<stop stop-color="#22B573"/>
<stop offset="1" stop-color="#39B54A"/>
</linearGradient>
<linearGradient id="paint24_linear" x1="33.0426" y1="477.721" x2="41.5108" y2="477.721" gradientUnits="userSpaceOnUse">
<stop stop-color="#22B573"/>
<stop offset="1" stop-color="#39B54A"/>
</linearGradient>
<linearGradient id="paint25_linear" x1="36.7686" y1="223.106" x2="43.1362" y2="223.106" gradientUnits="userSpaceOnUse">
<stop stop-color="#ECAD82"/>
<stop offset="1" stop-color="#E35A75"/>
</linearGradient>
<linearGradient id="paint26_linear" x1="37.8154" y1="220.987" x2="40.7328" y2="220.987" gradientUnits="userSpaceOnUse">
<stop stop-color="#ECAD82"/>
<stop offset="1" stop-color="#E35A75"/>
</linearGradient>
<linearGradient id="paint27_linear" x1="38.4502" y1="215.684" x2="39.734" y2="215.684" gradientUnits="userSpaceOnUse">
<stop stop-color="#ECAD82"/>
<stop offset="1" stop-color="#E35A75"/>
</linearGradient>
<linearGradient id="paint28_linear" x1="37.8132" y1="225.295" x2="40.7337" y2="225.295" gradientUnits="userSpaceOnUse">
<stop stop-color="#ECAD82"/>
<stop offset="1" stop-color="#E35A75"/>
</linearGradient>
<linearGradient id="paint29_linear" x1="36.7869" y1="217.206" x2="38.4677" y2="217.206" gradientUnits="userSpaceOnUse">
<stop stop-color="#ECAD82"/>
<stop offset="1" stop-color="#E35A75"/>
</linearGradient>
<linearGradient id="paint30_linear" x1="39.6888" y1="218.112" x2="40.8377" y2="218.112" gradientUnits="userSpaceOnUse">
<stop stop-color="#ECAD82"/>
<stop offset="1" stop-color="#E35A75"/>
</linearGradient>
<linearGradient id="paint31_linear" x1="42.1869" y1="228.731" x2="43.1574" y2="228.731" gradientUnits="userSpaceOnUse">
<stop stop-color="#ECAD82"/>
<stop offset="1" stop-color="#E35A75"/>
</linearGradient>
<linearGradient id="paint32_linear" x1="30.7358" y1="221.654" x2="31.5328" y2="221.654" gradientUnits="userSpaceOnUse">
<stop stop-color="#ECAD82"/>
<stop offset="1" stop-color="#E35A75"/>
</linearGradient>
<linearGradient id="paint33_linear" x1="40.538" y1="217.759" x2="41.8246" y2="217.759" gradientUnits="userSpaceOnUse">
<stop stop-color="#ECAD82"/>
<stop offset="1" stop-color="#E35A75"/>
</linearGradient>
<linearGradient id="paint34_linear" x1="42.186" y1="220.117" x2="43.1564" y2="220.117" gradientUnits="userSpaceOnUse">
<stop stop-color="#ECAD82"/>
<stop offset="1" stop-color="#E35A75"/>
</linearGradient>
<linearGradient id="paint35_linear" x1="100.672" y1="305.257" x2="206.343" y2="305.257" gradientUnits="userSpaceOnUse">
<stop stop-color="#22B573"/>
<stop offset="1" stop-color="#39B54A"/>
</linearGradient>
<linearGradient id="paint36_linear" x1="98.8543" y1="314.486" x2="206.343" y2="314.486" gradientUnits="userSpaceOnUse">
<stop stop-color="#ECAD82"/>
<stop offset="1" stop-color="#E35A75"/>
</linearGradient>
<linearGradient id="paint37_linear" x1="98.8041" y1="328.003" x2="206.767" y2="328.003" gradientUnits="userSpaceOnUse">
<stop stop-color="#0B7ED8"/>
<stop offset="0.172" stop-color="#258CDF"/>
<stop offset="0.37" stop-color="#3E98E6"/>
<stop offset="0.492" stop-color="#479DE8"/>
<stop offset="0.625" stop-color="#3C98E5"/>
<stop offset="0.856" stop-color="#2089DE"/>
<stop offset="1" stop-color="#0B7ED8"/>
</linearGradient>
<linearGradient id="paint38_linear" x1="257.74" y1="572.588" x2="262.479" y2="572.588" gradientUnits="userSpaceOnUse">
<stop stop-color="#ECAD82"/>
<stop offset="1" stop-color="#E35A75"/>
</linearGradient>
<linearGradient id="paint39_linear" x1="267.693" y1="560.182" x2="272.636" y2="560.182" gradientUnits="userSpaceOnUse">
<stop stop-color="#22B573"/>
<stop offset="1" stop-color="#39B54A"/>
</linearGradient>
<linearGradient id="paint40_linear" x1="278.293" y1="567.379" x2="283.129" y2="567.379" gradientUnits="userSpaceOnUse">
<stop stop-color="#22B573"/>
<stop offset="1" stop-color="#39B54A"/>
</linearGradient>
<linearGradient id="paint41_linear" x1="288.547" y1="589.822" x2="293.286" y2="589.822" gradientUnits="userSpaceOnUse">
<stop stop-color="#ECAD82"/>
<stop offset="1" stop-color="#E35A75"/>
</linearGradient>
<linearGradient id="paint42_linear" x1="298.366" y1="610.64" x2="303.446" y2="610.64" gradientUnits="userSpaceOnUse">
<stop stop-color="#22B573"/>
<stop offset="1" stop-color="#39B54A"/>
</linearGradient>
<linearGradient id="paint43_linear" x1="308.86" y1="609.435" x2="313.262" y2="609.435" gradientUnits="userSpaceOnUse">
<stop stop-color="#80D8E8"/>
<stop offset="1" stop-color="#0B7ED8"/>
</linearGradient>
<linearGradient id="paint44_linear" x1="319.017" y1="614.821" x2="323.756" y2="614.821" gradientUnits="userSpaceOnUse">
<stop stop-color="#22B573"/>
<stop offset="1" stop-color="#39B54A"/>
</linearGradient>
<linearGradient id="paint45_linear" x1="328.835" y1="607.581" x2="333.915" y2="607.581" gradientUnits="userSpaceOnUse">
<stop stop-color="#ECAD82"/>
<stop offset="1" stop-color="#E35A75"/>
</linearGradient>
<linearGradient id="paint46_linear" x1="339.333" y1="600.662" x2="344.072" y2="600.662" gradientUnits="userSpaceOnUse">
<stop stop-color="#80D8E8"/>
<stop offset="1" stop-color="#0B7ED8"/>
</linearGradient>
<linearGradient id="paint47_linear" x1="349.491" y1="591.863" x2="354.23" y2="591.863" gradientUnits="userSpaceOnUse">
<stop stop-color="#ECAD82"/>
<stop offset="1" stop-color="#E35A75"/>
</linearGradient>
<linearGradient id="paint48_linear" x1="359.984" y1="580.182" x2="364.385" y2="580.182" gradientUnits="userSpaceOnUse">
<stop stop-color="#ECAD82"/>
<stop offset="1" stop-color="#E35A75"/>
</linearGradient>
<linearGradient id="paint49_linear" x1="369.801" y1="585.243" x2="374.545" y2="585.243" gradientUnits="userSpaceOnUse">
<stop stop-color="#22B573"/>
<stop offset="1" stop-color="#39B54A"/>
</linearGradient>
<linearGradient id="paint50_linear" x1="379.96" y1="604.888" x2="384.699" y2="604.888" gradientUnits="userSpaceOnUse">
<stop stop-color="#ECAD82"/>
<stop offset="1" stop-color="#E35A75"/>
</linearGradient>
<linearGradient id="paint51_linear" x1="377.626" y1="352.964" x2="446.848" y2="352.964" gradientUnits="userSpaceOnUse">
<stop stop-color="#80D8E8"/>
<stop offset="1" stop-color="#0B7ED8"/>
</linearGradient>
<linearGradient id="paint52_linear" x1="409.673" y1="339.715" x2="415.703" y2="339.715" gradientUnits="userSpaceOnUse">
<stop stop-color="#22B573"/>
<stop offset="1" stop-color="#39B54A"/>
</linearGradient>
<linearGradient id="paint53_linear" x1="415.704" y1="345.458" x2="422.249" y2="345.458" gradientUnits="userSpaceOnUse">
<stop stop-color="#22B573"/>
<stop offset="1" stop-color="#39B54A"/>
</linearGradient>
<linearGradient id="paint54_linear" x1="422.25" y1="346.624" x2="427.688" y2="346.624" gradientUnits="userSpaceOnUse">
<stop stop-color="#22B573"/>
<stop offset="1" stop-color="#39B54A"/>
</linearGradient>
<linearGradient id="paint55_linear" x1="427.688" y1="350.552" x2="436.924" y2="350.552" gradientUnits="userSpaceOnUse">
<stop stop-color="#22B573"/>
<stop offset="1" stop-color="#39B54A"/>
</linearGradient>
<linearGradient id="paint56_linear" x1="434.982" y1="354.031" x2="439.891" y2="354.031" gradientUnits="userSpaceOnUse">
<stop stop-color="#22B573"/>
<stop offset="1" stop-color="#39B54A"/>
</linearGradient>
<linearGradient id="paint57_linear" x1="433.48" y1="350.186" x2="439.739" y2="350.186" gradientUnits="userSpaceOnUse">
<stop stop-color="#22B573"/>
<stop offset="1" stop-color="#39B54A"/>
</linearGradient>
<linearGradient id="paint58_linear" x1="97.8711" y1="488.594" x2="118.117" y2="488.594" gradientUnits="userSpaceOnUse">
<stop stop-color="#22B573"/>
<stop offset="1" stop-color="#39B54A"/>
</linearGradient>
<linearGradient id="paint59_linear" x1="109.542" y1="479.106" x2="117.651" y2="479.106" gradientUnits="userSpaceOnUse">
<stop stop-color="#22B573"/>
<stop offset="1" stop-color="#39B54A"/>
</linearGradient>
<linearGradient id="paint60_linear" x1="103.993" y1="483.128" x2="113.79" y2="483.128" gradientUnits="userSpaceOnUse">
<stop stop-color="#22B573"/>
<stop offset="1" stop-color="#39B54A"/>
</linearGradient>
<linearGradient id="paint61_linear" x1="119.426" y1="479.286" x2="125.521" y2="479.286" gradientUnits="userSpaceOnUse">
<stop stop-color="#22B573"/>
<stop offset="1" stop-color="#39B54A"/>
</linearGradient>
<linearGradient id="paint62_linear" x1="106.906" y1="489.417" x2="122.359" y2="489.417" gradientUnits="userSpaceOnUse">
<stop stop-color="#22B573"/>
<stop offset="1" stop-color="#39B54A"/>
</linearGradient>
<linearGradient id="paint63_linear" x1="123.12" y1="488.936" x2="143.386" y2="488.936" gradientUnits="userSpaceOnUse">
<stop stop-color="#22B573"/>
<stop offset="1" stop-color="#39B54A"/>
</linearGradient>
<linearGradient id="paint64_linear" x1="123.318" y1="479.432" x2="131.424" y2="479.432" gradientUnits="userSpaceOnUse">
<stop stop-color="#22B573"/>
<stop offset="1" stop-color="#39B54A"/>
</linearGradient>
<linearGradient id="paint65_linear" x1="127.224" y1="483.454" x2="137.011" y2="483.454" gradientUnits="userSpaceOnUse">
<stop stop-color="#22B573"/>
<stop offset="1" stop-color="#39B54A"/>
</linearGradient>
<linearGradient id="paint66_linear" x1="118.771" y1="489.753" x2="134.225" y2="489.753" gradientUnits="userSpaceOnUse">
<stop stop-color="#22B573"/>
<stop offset="1" stop-color="#39B54A"/>
</linearGradient>
<linearGradient id="paint67_linear" x1="134.019" y1="121.367" x2="184.279" y2="121.367" gradientUnits="userSpaceOnUse">
<stop stop-color="#22B573"/>
<stop offset="1" stop-color="#39B54A"/>
</linearGradient>
<linearGradient id="paint68_linear" x1="120.599" y1="93.5279" x2="196.661" y2="93.5279" gradientUnits="userSpaceOnUse">
<stop stop-color="#80D8E8"/>
<stop offset="1" stop-color="#0B7ED8"/>
</linearGradient>
</defs>
</svg>
