<svg width="178" height="178" viewBox="0 0 178 178" fill="none" xmlns="http://www.w3.org/2000/svg">
<path opacity="0.22" d="M87.1448 172.076C65.2903 172.082 44.2868 163.605 28.5579 148.432C12.829 133.259 3.60245 112.574 2.82151 90.7338C2.04056 68.8934 9.7662 47.6022 24.3712 31.3446C38.9763 15.0871 59.3208 5.13212 81.1198 3.57643L81.1908 4.21443C37.5908 7.19143 3.42775 43.9144 3.42775 87.7144C3.42462 104.042 8.19223 120.016 17.1446 133.671C26.0969 147.326 38.8439 158.067 53.8188 164.576C68.7936 171.084 85.3437 173.075 101.435 170.304C117.526 167.534 132.457 160.122 144.393 148.98C156.329 137.838 164.749 123.451 168.619 107.589C172.488 91.7259 171.639 75.078 166.175 59.6914C160.711 44.3048 150.87 30.8499 137.863 20.9804C124.855 11.111 109.247 5.25718 92.9577 4.13843L93.0287 3.50043C114.869 4.99508 135.274 14.9189 149.934 31.1763C164.594 47.4337 172.363 68.7522 171.599 90.6302C170.835 112.508 161.599 133.233 145.841 148.429C130.083 163.624 109.036 172.101 87.1448 172.069V172.076Z" fill="#18191D"/>
<path d="M32.7023 126.212H0.945312V130.323H32.7023V126.212Z" fill="#31A147"/>
<path d="M32.7023 62.9104H0.945312V126.921H32.7023V62.9104Z" fill="#36B54F"/>
<path opacity="0.41" d="M23.4881 124.157H10.2311C10.2312 123.18 10.0388 122.212 9.66479 121.309C9.29079 120.406 8.74255 119.585 8.05137 118.894C7.3602 118.203 6.53964 117.655 5.63655 117.281C4.73347 116.907 3.76555 116.714 2.78809 116.714V73.1144C4.76148 73.1147 6.65419 72.3311 8.04996 70.9361C9.44574 69.5411 10.2303 67.6488 10.2311 65.6754H23.4881C23.488 66.6529 23.6804 67.6208 24.0544 68.5239C24.4284 69.427 24.9766 70.2475 25.6678 70.9387C26.359 71.6299 27.1795 72.1781 28.0826 72.5521C28.9857 72.9261 29.9536 73.1185 30.9311 73.1184V116.718C28.9577 116.718 27.065 117.502 25.6692 118.897C24.2734 120.292 23.4889 122.184 23.4881 124.157Z" fill="#D6D6D6"/>
<path d="M16.8949 104.592C22.2195 104.592 26.5359 100.276 26.5359 94.9514C26.5359 89.6268 22.2195 85.3104 16.8949 85.3104C11.5703 85.3104 7.25391 89.6268 7.25391 94.9514C7.25391 100.276 11.5703 104.592 16.8949 104.592Z" fill="#36B54F"/>
<path d="M32.7736 133.017H1.0166V137.128H32.7736V133.017Z" fill="#31A147"/>
<path d="M32.7736 130.253H1.0166V133.656H32.7736V130.253Z" fill="#36B54F"/>
<path d="M32.7736 139.822H1.0166V143.933H32.7736V139.822Z" fill="#31A147"/>
<path d="M32.7736 137.058H1.0166V140.461H32.7736V137.058Z" fill="#36B54F"/>
<path d="M177.666 121.604V153.361H145.625V121.604H177.666Z" fill="#36B54F"/>
<path d="M167.458 122.668H145.625V150.81H167.458C167.458 149.833 167.65 148.865 168.024 147.962C168.398 147.059 168.947 146.238 169.638 145.547C170.329 144.856 171.149 144.308 172.053 143.934C172.956 143.56 173.924 143.367 174.901 143.367V130.111C173.92 130.124 172.947 129.939 172.038 129.57C171.13 129.2 170.305 128.652 169.611 127.958C168.918 127.265 168.37 126.439 168 125.531C167.63 124.623 167.446 123.649 167.458 122.668Z" fill="#78C387"/>
<path d="M145.696 127.134V146.415C146.971 146.428 148.235 146.189 149.416 145.71C150.597 145.231 151.671 144.523 152.577 143.627C153.483 142.73 154.202 141.663 154.692 140.487C155.183 139.311 155.435 138.049 155.435 136.775C155.435 135.501 155.183 134.239 154.692 133.063C154.202 131.887 153.483 130.82 152.577 129.923C151.671 129.027 150.597 128.319 149.416 127.84C148.235 127.361 146.971 127.121 145.696 127.134Z" fill="#36B54F"/>
<path d="M177.666 152.653H145.625V156.764H177.666V152.653Z" fill="#31A147"/>
<path d="M177.666 156.055H145.625V159.458H177.666V156.055Z" fill="#36B54F"/>
<path d="M177.666 158.749H145.625V162.152H177.666V158.749Z" fill="#31A147"/>
<path d="M80.1977 41.7154H56.0287C54.4109 41.7154 52.8593 42.3581 51.7154 43.5021C50.5714 44.646 49.9287 46.1976 49.9287 47.8154V60.5004C49.9287 62.1182 50.5714 63.6698 51.7154 64.8138C52.8593 65.9578 54.4109 66.6004 56.0287 66.6004H72.2577L76.2987 73.5474L80.3397 66.6004C81.9423 66.5738 83.4706 65.9202 84.5969 64.7798C85.7232 63.6395 86.3579 62.1032 86.3647 60.5004V47.8154C86.3497 46.1907 85.693 44.6377 84.5378 43.495C83.3826 42.3524 81.8225 41.7127 80.1977 41.7154Z" fill="#61C0E4"/>
<path d="M57.1587 57.3104C56.8083 57.3104 56.4657 57.4144 56.1742 57.6091C55.8828 57.8038 55.6557 58.0805 55.5216 58.4043C55.3875 58.7281 55.3524 59.0844 55.4208 59.4281C55.4891 59.7719 55.6579 60.0876 55.9057 60.3354C56.1535 60.5833 56.4693 60.752 56.813 60.8204C57.1568 60.8888 57.513 60.8537 57.8368 60.7196C58.1606 60.5854 58.4374 60.3583 58.6321 60.0669C58.8268 59.7755 58.9307 59.4329 58.9307 59.0824C58.933 58.8491 58.8887 58.6177 58.8005 58.4016C58.7122 58.1856 58.5818 57.9894 58.4168 57.8244C58.2518 57.6594 58.0555 57.529 57.8395 57.4407C57.6235 57.3525 57.3921 57.3082 57.1587 57.3104Z" fill="white"/>
<path d="M68.2173 57.3104C67.8668 57.3104 67.5243 57.4144 67.2328 57.6091C66.9414 57.8038 66.7143 58.0805 66.5802 58.4043C66.4461 58.7281 66.411 59.0844 66.4794 59.4281C66.5477 59.7719 66.7165 60.0876 66.9643 60.3354C67.2121 60.5833 67.5279 60.752 67.8716 60.8204C68.2154 60.8888 68.5716 60.8537 68.8954 60.7196C69.2192 60.5854 69.496 60.3583 69.6907 60.0669C69.8854 59.7755 69.9893 59.4329 69.9893 59.0824C69.9916 58.8491 69.9473 58.6177 69.8591 58.4016C69.7708 58.1856 69.6404 57.9894 69.4754 57.8244C69.3104 57.6594 69.1141 57.529 68.8981 57.4407C68.6821 57.3525 68.4506 57.3082 68.2173 57.3104Z" fill="white"/>
<path d="M79.062 57.3104C78.7116 57.3104 78.369 57.4144 78.0776 57.6091C77.7862 57.8038 77.559 58.0805 77.4249 58.4043C77.2908 58.7281 77.2557 59.0844 77.3241 59.4281C77.3925 59.7719 77.5612 60.0876 77.809 60.3354C78.0569 60.5833 78.3726 60.752 78.7163 60.8204C79.0601 60.8888 79.4164 60.8537 79.7402 60.7196C80.0639 60.5854 80.3407 60.3583 80.5354 60.0669C80.7301 59.7755 80.834 59.4329 80.834 59.0824C80.8363 58.8491 80.792 58.6177 80.7038 58.4016C80.6155 58.1856 80.4851 57.9894 80.3201 57.8244C80.1551 57.6594 79.9588 57.529 79.7428 57.4407C79.5268 57.3525 79.2954 57.3082 79.062 57.3104Z" fill="white"/>
<path d="M100.187 29.5224H76.018C74.4002 29.5224 72.8486 30.1651 71.7046 31.3091C70.5606 32.4531 69.918 34.0046 69.918 35.6224V48.3074C69.918 49.9253 70.5606 51.4768 71.7046 52.6208C72.8486 53.7648 74.4002 54.4074 76.018 54.4074H92.251L96.292 61.3544L100.333 54.4074C101.936 54.3808 103.464 53.7272 104.59 52.5868C105.716 51.4465 106.351 49.9102 106.358 48.3074V35.6224C106.319 34.0046 105.654 32.465 104.503 31.3273C103.352 30.1897 101.805 29.5427 100.187 29.5224Z" fill="#36B54F"/>
<path d="M77.148 45.1174C76.7975 45.1174 76.4549 45.2214 76.1635 45.4161C75.8721 45.6108 75.645 45.8875 75.5109 46.2113C75.3767 46.5351 75.3417 46.8914 75.41 47.2351C75.4784 47.5789 75.6472 47.8946 75.895 48.1424C76.1428 48.3902 76.4585 48.559 76.8023 48.6274C77.146 48.6958 77.5023 48.6607 77.8261 48.5265C78.1499 48.3924 78.4266 48.1653 78.6213 47.8739C78.816 47.5825 78.92 47.2399 78.92 46.8894C78.9222 46.6561 78.878 46.4246 78.7897 46.2086C78.7015 45.9926 78.571 45.7964 78.406 45.6314C78.241 45.4664 78.0448 45.3359 77.8288 45.2477C77.6128 45.1594 77.3813 45.1152 77.148 45.1174Z" fill="white"/>
<path d="M88.2075 45.1174C87.8571 45.1174 87.5145 45.2214 87.2231 45.4161C86.9317 45.6108 86.7046 45.8875 86.5704 46.2113C86.4363 46.5351 86.4012 46.8914 86.4696 47.2351C86.538 47.5789 86.7067 47.8946 86.9546 48.1424C87.2024 48.3902 87.5181 48.559 87.8618 48.6274C88.2056 48.6958 88.5619 48.6607 88.8857 48.5265C89.2095 48.3924 89.4862 48.1653 89.6809 47.8739C89.8756 47.5825 89.9796 47.2399 89.9796 46.8894C89.9818 46.6561 89.9375 46.4246 89.8493 46.2086C89.761 45.9926 89.6306 45.7964 89.4656 45.6314C89.3006 45.4664 89.1044 45.3359 88.8883 45.2477C88.6723 45.1594 88.4409 45.1152 88.2075 45.1174Z" fill="white"/>
<path d="M99.0523 45.1174C98.7018 45.1174 98.3592 45.2214 98.0678 45.4161C97.7764 45.6108 97.5493 45.8875 97.4152 46.2113C97.281 46.5351 97.2459 46.8914 97.3143 47.2351C97.3827 47.5789 97.5515 47.8946 97.7993 48.1424C98.0471 48.3902 98.3628 48.559 98.7066 48.6274C99.0503 48.6958 99.4066 48.6607 99.7304 48.5266C100.054 48.3924 100.331 48.1653 100.526 47.8739C100.72 47.5825 100.824 47.2399 100.824 46.8894C100.817 46.4217 100.628 45.9752 100.297 45.6444C99.9665 45.3137 99.52 45.1247 99.0523 45.1174Z" fill="white"/>
<path d="M14.7679 90.2015C14.0167 90.2038 13.297 90.5033 12.7658 91.0344C12.2347 91.5656 11.9352 92.2853 11.9329 93.0365V93.6035H10.7979V94.8795H11.9319V96.0845H10.7979V97.3605H11.9319V98.9905H13.6319V97.8565H19.8699V98.9905H21.5699V97.3605H22.7039V96.0845H21.5729V94.8795H22.7069V93.6015H21.5729V93.0345C21.5705 92.2833 21.271 91.5636 20.7399 91.0324C20.2087 90.5013 19.489 90.2018 18.7379 90.1995C18.372 90.1926 18.0083 90.258 17.6677 90.3918C17.3271 90.5257 17.0162 90.7254 16.7529 90.9795C16.4893 90.7257 16.1784 90.5264 15.8378 90.3929C15.4972 90.2594 15.1336 90.1944 14.7679 90.2015ZM19.8679 93.0365V96.0135H17.6029V93.0365C17.601 92.887 17.629 92.7387 17.6853 92.6003C17.7417 92.4618 17.8251 92.3361 17.9308 92.2304C18.0365 92.1247 18.1622 92.0413 18.3007 91.985C18.4391 91.9286 18.5874 91.9006 18.7369 91.9025C19.0352 91.9103 19.3193 92.0322 19.5304 92.2432C19.7416 92.4542 19.8638 92.7381 19.8719 93.0365H19.8679ZM15.8979 93.0365V96.0845H13.6329V93.1075C13.631 92.958 13.659 92.8097 13.7153 92.6713C13.7717 92.5328 13.8551 92.4071 13.9608 92.3014C14.0665 92.1957 14.1922 92.1123 14.3307 92.056C14.4691 91.9996 14.6174 91.9716 14.7669 91.9735C14.9121 91.964 15.0577 91.9845 15.1947 92.0337C15.3317 92.0829 15.4571 92.1597 15.5632 92.2594C15.6692 92.359 15.7537 92.4795 15.8112 92.6131C15.8688 92.7468 15.8983 92.8909 15.8979 93.0365Z" fill="white"/>
<path d="M73.6053 121.393C77.5597 121.393 80.7653 118.188 80.7653 114.233C80.7653 110.279 77.5597 107.073 73.6053 107.073C69.651 107.073 66.4453 110.279 66.4453 114.233C66.4453 118.188 69.651 121.393 73.6053 121.393Z" fill="black"/>
<path d="M74.3133 120.613C78.2677 120.613 81.4733 117.408 81.4733 113.453C81.4733 109.499 78.2677 106.293 74.3133 106.293C70.359 106.293 67.1533 109.499 67.1533 113.453C67.1533 117.408 70.359 120.613 74.3133 120.613Z" fill="#FFCE2E"/>
<path d="M74.3133 119.194C77.4845 119.194 80.0553 116.624 80.0553 113.452C80.0553 110.281 77.4845 107.71 74.3133 107.71C71.1421 107.71 68.5713 110.281 68.5713 113.452C68.5713 116.624 71.1421 119.194 74.3133 119.194Z" fill="#C9A223"/>
<path d="M74.3136 107.711H74.1006C75.5864 107.767 76.9928 108.396 78.0244 109.467C79.0559 110.538 79.6322 111.967 79.6322 113.453C79.6322 114.94 79.0559 116.369 78.0244 117.44C76.9928 118.511 75.5864 119.14 74.1006 119.195H74.3136C75.8365 119.195 77.297 118.59 78.3738 117.514C79.4506 116.437 80.0556 114.976 80.0556 113.453C80.0556 111.931 79.4506 110.47 78.3738 109.393C77.297 108.316 75.8365 107.711 74.3136 107.711Z" fill="#AD8C1E"/>
<path d="M76.9349 112.176C76.9371 111.943 76.8928 111.712 76.8046 111.496C76.7163 111.28 76.5859 111.083 76.4209 110.918C76.2559 110.753 76.0597 110.623 75.8436 110.535C75.6276 110.446 75.3962 110.402 75.1628 110.404H74.8089V109.695H74.0289V110.404H73.3199V109.695H72.5398V110.404H71.5479V111.467H72.2569V115.367H71.5479V116.43H72.5398V117.139H73.3199V116.43H74.0289V117.139H74.8089V116.43H75.1628C75.3962 116.433 75.6276 116.388 75.8436 116.3C76.0597 116.212 76.2559 116.081 76.4209 115.916C76.5859 115.751 76.7163 115.555 76.8046 115.339C76.8928 115.123 76.9371 114.892 76.9349 114.658C76.9205 114.188 76.7438 113.737 76.4349 113.382C76.7545 113.062 76.9342 112.629 76.9349 112.176ZM75.0919 115.366H73.1778V113.948H75.0919C75.2798 113.949 75.46 114.023 75.5929 114.156C75.7258 114.289 75.8006 114.469 75.8008 114.657C75.8065 114.752 75.7921 114.847 75.7585 114.935C75.7249 115.024 75.6728 115.104 75.6058 115.171C75.5388 115.238 75.4584 115.29 75.3698 115.324C75.2812 115.358 75.1864 115.372 75.0919 115.366ZM75.1628 112.885H73.2478V111.467H75.1618C75.2564 111.462 75.3512 111.476 75.4398 111.51C75.5284 111.543 75.6088 111.595 75.6758 111.662C75.7428 111.729 75.7949 111.81 75.8285 111.899C75.8621 111.987 75.8765 112.082 75.8708 112.176C75.8591 112.36 75.7808 112.534 75.6505 112.664C75.5202 112.795 75.3468 112.873 75.1628 112.885Z" fill="#AD8C1E"/>
<path d="M77.3616 112.176C77.3639 111.943 77.3196 111.712 77.2314 111.496C77.1431 111.28 77.0127 111.083 76.8477 110.918C76.6827 110.753 76.4864 110.623 76.2704 110.535C76.0544 110.446 75.8229 110.402 75.5896 110.404H75.2356V109.695H74.4556V110.404H73.7466V109.695H72.9666V110.404H71.9746V111.467H72.6836V115.367H71.9746V116.43H72.9666V117.139H73.7466V116.43H74.4556V117.139H75.2356V116.43H75.5896C75.8229 116.433 76.0544 116.388 76.2704 116.3C76.4864 116.212 76.6827 116.081 76.8477 115.916C77.0127 115.751 77.1431 115.555 77.2314 115.339C77.3196 115.123 77.3639 114.892 77.3616 114.658C77.3472 114.188 77.1706 113.737 76.8616 113.382C77.1812 113.062 77.361 112.629 77.3616 112.176ZM75.5186 115.366H73.6046V113.948H75.5186C75.7066 113.949 75.8868 114.023 76.0197 114.156C76.1526 114.289 76.2273 114.469 76.2276 114.657C76.2333 114.752 76.2189 114.847 76.1852 114.935C76.1516 115.024 76.0996 115.104 76.0326 115.171C75.9656 115.238 75.8851 115.29 75.7965 115.324C75.7079 115.358 75.6132 115.372 75.5186 115.366ZM75.5186 112.885H73.6046V111.467H75.5186C75.7066 111.467 75.887 111.542 76.02 111.675C76.1529 111.808 76.2276 111.988 76.2276 112.176C76.2276 112.364 76.1529 112.545 76.02 112.678C75.887 112.811 75.7066 112.885 75.5186 112.885Z" fill="#FFCE2E"/>
<path d="M114.366 141.31C117.43 141.31 120.369 140.092 122.536 137.925C124.702 135.759 125.92 132.82 125.921 129.755V113.665C125.92 110.601 124.702 107.662 122.536 105.495C120.369 103.329 117.43 102.111 114.366 102.11C111.301 102.111 108.362 103.329 106.196 105.495C104.029 107.662 102.811 110.601 102.811 113.665V129.756C102.811 132.821 104.029 135.759 106.196 137.926C108.363 140.092 111.301 141.31 114.366 141.31Z" fill="#FCDEBC"/>
<path d="M125.068 134.08C124.109 136.459 122.389 138.453 120.177 139.751H108.551C106.34 138.453 104.62 136.459 103.66 134.08H125.068Z" fill="#1C1C1C"/>
<path d="M104.512 176.542C107.135 175.975 110.041 175.337 113.018 174.415C116.386 173.41 119.699 172.227 122.942 170.871C123.296 159.316 123.651 147.833 123.934 136.278H104.724C104.654 149.678 104.583 163.144 104.512 176.542Z" fill="#61C0E4"/>
<path d="M114.366 102.11C116.807 102.123 119.184 102.891 121.171 104.31V125.222H102.811V113.594C102.826 110.541 104.05 107.618 106.216 105.466C108.382 103.313 111.312 102.107 114.366 102.11Z" fill="#FCDEBC"/>
<path d="M93.1691 129.757H116.63C117.249 129.752 117.84 129.504 118.278 129.066C118.715 128.629 118.964 128.037 118.969 127.418V80.3484C118.964 79.7298 118.715 79.138 118.278 78.7005C117.84 78.2631 117.249 78.0149 116.63 78.0094H93.1691C92.5504 78.0149 91.9587 78.2631 91.5212 78.7005C91.0837 79.138 90.8356 79.7298 90.8301 80.3484V127.417C90.8353 128.036 91.0834 128.628 91.5209 129.066C91.9584 129.504 92.5503 129.752 93.1691 129.757Z" fill="#FA6975"/>
<path d="M104.866 128.907C105.688 128.907 106.355 128.241 106.355 127.418C106.355 126.596 105.688 125.929 104.866 125.929C104.044 125.929 103.377 126.596 103.377 127.418C103.377 128.241 104.044 128.907 104.866 128.907Z" fill="white"/>
<path d="M90.7769 125.259H118.919V81.2384H90.7769V125.259Z" fill="#4D4D4D"/>
<path d="M90.8326 125.217H118.975V81.1964H90.8326V125.217Z" fill="#FDFFFC"/>
<path d="M117.393 125.259H119.023V81.2384H117.393V125.259Z" fill="#FA6975"/>
<path d="M90.8524 125.259H92.4824V81.2384H90.8524V125.259Z" fill="#FA6975"/>
<path d="M121.808 124.865L109.474 116.288C109.098 116.022 108.672 115.832 108.222 115.731C107.772 115.629 107.306 115.618 106.852 115.697C106.397 115.776 105.963 115.944 105.573 116.192C105.184 116.439 104.848 116.761 104.583 117.139L104.158 117.706C103.892 118.083 103.702 118.509 103.6 118.959C103.499 119.409 103.487 119.874 103.566 120.329C103.646 120.783 103.814 121.218 104.061 121.607C104.309 121.997 104.631 122.333 105.009 122.597L117.06 131.174L121.808 124.865Z" fill="#FCDEBC"/>
<path d="M63.5394 164.136C60.4751 164.136 57.5365 162.918 55.3697 160.752C53.2029 158.585 51.9852 155.647 51.9844 152.582V136.491C51.9849 133.427 53.2025 130.488 55.3693 128.321C57.5362 126.154 60.475 124.937 63.5394 124.936C66.6038 124.937 69.5425 126.154 71.7094 128.321C73.8763 130.488 75.0938 133.427 75.0944 136.491V152.582C75.0936 155.647 73.8759 158.585 71.7091 160.752C69.5422 162.918 66.6036 164.136 63.5394 164.136Z" fill="#FCDEBC"/>
<path d="M52.834 156.906C53.7936 159.285 55.5133 161.279 57.725 162.577H69.351C71.5626 161.279 73.2824 159.285 74.242 156.906H52.834Z" fill="#1C1C1C"/>
<path d="M63.5384 124.936C61.0972 124.949 58.7198 125.717 56.7334 127.136V148.048H75.0934V136.491C75.0929 133.427 73.8753 130.488 71.7084 128.321C69.5416 126.154 66.6028 124.937 63.5384 124.936Z" fill="#FCDEBC"/>
<path d="M84.7316 152.512H61.2706C60.652 152.507 60.0602 152.259 59.6228 151.821C59.1853 151.384 58.9371 150.792 58.9316 150.173V103.103C58.9371 102.485 59.1853 101.893 59.6228 101.456C60.0602 101.018 60.652 100.77 61.2706 100.764H84.7316C85.3503 100.77 85.942 101.018 86.3795 101.456C86.817 101.893 87.0652 102.485 87.0706 103.103V150.172C87.0654 150.791 86.8174 151.383 86.3799 151.821C85.9424 152.259 85.3505 152.507 84.7316 152.512Z" fill="#FA6975"/>
<path d="M77.9279 103.032H68.0749C68.0001 103.034 67.9259 103.02 67.8566 102.991C67.7873 102.963 67.7244 102.922 67.6715 102.869C67.6187 102.816 67.5769 102.753 67.5488 102.684C67.5207 102.614 67.5068 102.54 67.5079 102.465C67.5068 102.391 67.5207 102.316 67.5488 102.247C67.5769 102.178 67.6187 102.115 67.6715 102.062C67.7244 102.009 67.7873 101.968 67.8566 101.939C67.9259 101.911 68.0001 101.897 68.0749 101.898H77.9279C78.0026 101.897 78.0768 101.911 78.1461 101.939C78.2154 101.968 78.2783 102.009 78.3312 102.062C78.3841 102.115 78.4258 102.178 78.4539 102.247C78.482 102.316 78.4959 102.391 78.4949 102.465C78.4959 102.54 78.482 102.614 78.4539 102.684C78.4258 102.753 78.3841 102.816 78.3312 102.869C78.2783 102.922 78.2154 102.963 78.1461 102.991C78.0768 103.02 78.0026 103.034 77.9279 103.032Z" fill="white"/>
<path d="M73.0378 151.732C73.8602 151.732 74.5268 151.066 74.5268 150.243C74.5268 149.421 73.8602 148.754 73.0378 148.754C72.2155 148.754 71.5488 149.421 71.5488 150.243C71.5488 151.066 72.2155 151.732 73.0378 151.732Z" fill="white"/>
<path d="M87.0736 104.095H58.9316V148.116H87.0736V104.095Z" fill="#4D4D4D"/>
<path d="M87.0736 104.024H58.9316V148.045H87.0736V104.024Z" fill="#FDFFFC"/>
<path d="M60.5616 104.095H58.9316V148.116H60.5616V104.095Z" fill="#FA6975"/>
<path d="M87.0724 104.095H85.4424V148.116H87.0724V104.095Z" fill="#FA6975"/>
<path d="M56.0957 147.691L68.4297 139.114C68.8063 138.848 69.2318 138.658 69.6819 138.557C70.1319 138.455 70.5976 138.444 71.0522 138.523C71.5068 138.602 71.9412 138.77 72.3305 139.018C72.7198 139.265 73.0563 139.587 73.3207 139.965L73.7457 140.532C74.0123 140.909 74.2019 141.335 74.3034 141.785C74.405 142.235 74.4165 142.7 74.3374 143.155C74.2584 143.609 74.0902 144.044 73.8426 144.433C73.595 144.823 73.2728 145.159 72.8947 145.423L60.8437 154L56.0957 147.691Z" fill="#FCDEBC"/>
<path d="M79.4878 121.25C79.4857 120.142 79.0444 119.079 78.2606 118.296C77.4768 117.512 76.4143 117.071 75.3058 117.068H74.5258V115.437H72.6828V117.067H70.9828V115.437H69.1398V117.067H66.7988V119.619H68.4988V128.693H66.7988V131.245H69.1378V132.875H70.9808V131.245H72.6808V132.875H74.5238V131.245H75.3038C76.4123 131.243 77.4748 130.802 78.2586 130.018C79.0424 129.234 79.4837 128.172 79.4858 127.063C79.4909 126.523 79.3869 125.987 79.1798 125.488C78.9727 124.988 78.667 124.536 78.2808 124.157C78.6729 123.783 78.9828 123.332 79.1906 122.831C79.3984 122.331 79.4997 121.792 79.4878 121.25ZM75.3768 128.693H70.9818V125.437H75.3768C75.592 125.433 75.8058 125.473 76.0054 125.553C76.205 125.634 76.3863 125.754 76.5385 125.906C76.6907 126.058 76.8106 126.239 76.891 126.439C76.9715 126.638 77.0109 126.852 77.0068 127.067C77.0009 127.498 76.8269 127.909 76.5222 128.212C76.2175 128.516 75.8061 128.689 75.3758 128.693H75.3768ZM75.3768 122.951H70.9818V119.69H75.3768C75.592 119.686 75.8058 119.726 76.0054 119.806C76.205 119.887 76.3863 120.007 76.5385 120.159C76.6907 120.311 76.8106 120.492 76.891 120.692C76.9715 120.891 77.0109 121.105 77.0068 121.32C76.9783 121.744 76.7973 122.142 76.4974 122.442C76.1975 122.742 75.799 122.923 75.3758 122.951H75.3768Z" fill="#D6D6D6"/>
<path d="M106.142 95.0224C108.481 95.3064 109.542 96.8654 109.542 99.1334V99.5584H107.557V98.9914C107.557 97.5024 106.848 96.5814 105.357 96.5814C103.866 96.5814 103.157 97.5034 103.157 98.9914C103.157 102.748 109.608 102.748 109.608 107.497C109.608 109.765 108.545 111.325 106.208 111.608V112.884H104.436V111.608C102.026 111.324 100.963 109.765 100.963 107.497V106.505H102.948V107.639C102.942 107.941 102.996 108.241 103.107 108.522C103.218 108.803 103.384 109.059 103.595 109.275C103.806 109.49 104.059 109.662 104.337 109.779C104.615 109.896 104.914 109.956 105.216 109.956C105.518 109.956 105.817 109.896 106.096 109.779C106.374 109.662 106.626 109.49 106.838 109.275C107.049 109.059 107.215 108.803 107.326 108.522C107.437 108.241 107.491 107.941 107.485 107.639C107.485 103.882 101.105 103.882 101.105 99.1334C101.105 96.8654 102.168 95.3054 104.437 95.0224V93.6754H106.209V95.0224H106.142Z" fill="#D6D6D6"/>
<path d="M71.9035 177.251C68.3595 176.542 64.5315 175.621 60.5615 174.416C58.2948 173.708 56.1681 172.999 54.1815 172.289C54.1105 167.894 54.0395 163.499 53.8975 159.104H73.1085C72.7545 165.129 72.3295 171.226 71.9035 177.251Z" fill="#61C0E4"/>
<path d="M32.8139 175.063C37.1035 175.063 40.5809 171.586 40.5809 167.296C40.5809 163.007 37.1035 159.529 32.8139 159.529C28.5243 159.529 25.0469 163.007 25.0469 167.296C25.0469 171.586 28.5243 175.063 32.8139 175.063Z" fill="#61C0E4"/>
<path d="M32.814 173.525C36.2541 173.525 39.043 170.737 39.043 167.296C39.043 163.856 36.2541 161.067 32.814 161.067C29.3738 161.067 26.585 163.856 26.585 167.296C26.585 170.737 29.3738 173.525 32.814 173.525Z" fill="#3C9FD9"/>
<path d="M36.0467 165.956C36.0451 165.434 35.8369 164.934 35.4677 164.564C35.0984 164.195 34.598 163.987 34.0757 163.985H33.6817V163.196H32.8147V163.985H32.0257V163.196H31.1537V163.985H30.0537V165.168H30.8427V169.468H30.0537V170.651H31.1537V171.44H32.0207V170.651H32.8097V171.44H33.6767V170.651H34.0707C34.458 170.65 34.8363 170.534 35.1587 170.319C35.4811 170.105 35.7334 169.8 35.8844 169.443C36.0355 169.087 36.0786 168.694 36.0084 168.313C35.9383 167.932 35.7579 167.58 35.4897 167.3C35.6673 167.125 35.8081 166.915 35.9037 166.685C35.9994 166.454 36.048 166.206 36.0467 165.956ZM34.1147 169.465H32.0647V167.927H34.1147C34.3236 167.928 34.5238 168.012 34.6714 168.159C34.819 168.307 34.9022 168.507 34.9027 168.716C34.8809 168.914 34.7898 169.098 34.6456 169.235C34.5014 169.372 34.3133 169.454 34.1147 169.465ZM34.1147 166.705H32.0647V165.167H34.1147C34.3236 165.168 34.5238 165.252 34.6714 165.399C34.819 165.547 34.9022 165.747 34.9027 165.956C34.8876 166.157 34.7987 166.344 34.653 166.483C34.5074 166.621 34.3156 166.701 34.1147 166.705Z" fill="white"/>
<path d="M32.732 33.1264C41.6746 33.1264 48.924 25.877 48.924 16.9344C48.924 7.99184 41.6746 0.742432 32.732 0.742432C23.7894 0.742432 16.54 7.99184 16.54 16.9344C16.54 25.877 23.7894 33.1264 32.732 33.1264Z" fill="#61C0E4"/>
<path d="M32.7321 29.9194C39.9041 29.9194 45.7181 24.1054 45.7181 16.9334C45.7181 9.76145 39.9041 3.94742 32.7321 3.94742C25.5601 3.94742 19.7461 9.76145 19.7461 16.9334C19.7461 24.1054 25.5601 29.9194 32.7321 29.9194Z" fill="#3C9FD9"/>
<path d="M39.4715 14.1404C39.4686 13.0513 39.0347 12.0076 38.2645 11.2374C37.4944 10.4673 36.4507 10.0333 35.3615 10.0304H34.5395V8.38644H32.7315V10.0304H31.0885V8.38644H29.2785V10.0304H26.9785V12.4964H28.6225V21.4554H26.9785V23.9214H29.2785V25.5654H31.0865V23.9214H32.7305V25.5654H34.5385V23.9214H35.3605C36.1682 23.9181 36.9572 23.6777 37.6296 23.2303C38.302 22.7828 38.8284 22.1478 39.1434 21.4041C39.4585 20.6603 39.5483 19.8405 39.4019 19.0462C39.2554 18.2518 38.8791 17.5179 38.3195 16.9354C38.6873 16.5692 38.9785 16.1335 39.1762 15.6537C39.374 15.1738 39.4744 14.6594 39.4715 14.1404ZM35.4445 21.4554H31.1705V18.2494H35.4445C35.8801 18.2508 36.2975 18.4244 36.6055 18.7324C36.9136 19.0404 37.0872 19.4578 37.0885 19.8934C37.0431 20.3061 36.8532 20.6893 36.5522 20.9752C36.2513 21.2611 35.8589 21.4312 35.4445 21.4554ZM35.4445 15.7024H31.1705V12.4964H35.4445C35.8801 12.4978 36.2975 12.6714 36.6055 12.9794C36.9136 13.2874 37.0872 13.7048 37.0885 14.1404C37.0571 14.5583 36.8714 14.9495 36.5676 15.238C36.2637 15.5265 35.8634 15.6917 35.4445 15.7014V15.7024Z" fill="white"/>
<path d="M153.566 69.9294C160.339 69.9294 165.83 64.4386 165.83 57.6654C165.83 50.8922 160.339 45.4014 153.566 45.4014C146.793 45.4014 141.302 50.8922 141.302 57.6654C141.302 64.4386 146.793 69.9294 153.566 69.9294Z" fill="#61C0E4"/>
<path d="M153.565 67.5014C158.998 67.5014 163.401 63.0977 163.401 57.6654C163.401 52.2332 158.998 47.8294 153.565 47.8294C148.133 47.8294 143.729 52.2332 143.729 57.6654C143.729 63.0977 148.133 67.5014 153.565 67.5014Z" fill="#3C9FD9"/>
<path d="M158.67 55.5484C158.668 54.7235 158.339 53.9331 157.756 53.3498C157.172 52.7665 156.382 52.4378 155.557 52.4354H154.935V51.1904H153.565V52.4354H152.32V51.1904H150.951V52.4354H149.208V54.3034H150.453V61.0904H149.208V62.9584H150.951V64.2034H152.32V62.9584H153.565V64.2034H154.935V62.9584H155.557C156.169 62.9557 156.766 62.7736 157.275 62.4347C157.784 62.0957 158.183 61.6149 158.422 61.0516C158.66 60.4884 158.728 59.8676 158.617 59.266C158.507 58.6645 158.222 58.1086 157.798 57.6674C158.077 57.3897 158.297 57.0594 158.447 56.6956C158.597 56.3318 158.673 55.9418 158.67 55.5484ZM155.62 61.0884H152.383V58.6604H155.62C155.95 58.6615 156.266 58.793 156.499 59.0262C156.732 59.2595 156.864 59.5756 156.865 59.9054C156.831 60.2182 156.687 60.5089 156.459 60.7258C156.231 60.9428 155.934 61.0719 155.62 61.0904V61.0884ZM155.62 56.7304H152.383V54.3024H155.62C155.95 54.3035 156.266 54.435 156.499 54.6682C156.732 54.9015 156.864 55.2176 156.865 55.5474C156.841 55.8639 156.701 56.1603 156.471 56.379C156.24 56.5976 155.937 56.7229 155.62 56.7304Z" fill="white"/>
</svg>
