<svg width="460" height="253" viewBox="0 0 460 253" fill="none" xmlns="http://www.w3.org/2000/svg">
<path d="M0.264 2.00034H11.484V5.30034H7.689V25.1003H4.059V5.30034H0.264V2.00034ZM16.4817 17.4443L11.8947 2.00034H15.6897L18.4617 12.5273L21.2337 2.00034H24.6987L20.1117 17.4443V25.1003H16.4817V17.4443ZM31.5127 2.00034C33.3387 2.00034 34.6917 2.48434 35.5717 3.45234C36.4737 4.42034 36.9247 5.83934 36.9247 7.70934V10.7123C36.9247 12.5823 36.4737 14.0013 35.5717 14.9693C34.6917 15.9373 33.3387 16.4213 31.5127 16.4213H29.7967V25.1003H26.1667V2.00034H31.5127ZM29.7967 5.30034V13.1213H31.5127C32.0847 13.1213 32.5247 12.9673 32.8327 12.6593C33.1407 12.3513 33.2947 11.7793 33.2947 10.9433V7.47834C33.2947 6.64234 33.1407 6.07034 32.8327 5.76234C32.5247 5.45434 32.0847 5.30034 31.5127 5.30034H29.7967ZM41.9391 19.7873C41.9391 20.6233 42.1041 21.2173 42.4341 21.5693C42.7861 21.8993 43.2481 22.0643 43.8201 22.0643C44.3921 22.0643 44.8431 21.8993 45.1731 21.5693C45.5251 21.2173 45.7011 20.6233 45.7011 19.7873V7.31334C45.7011 6.47734 45.5251 5.89434 45.1731 5.56434C44.8431 5.21234 44.3921 5.03634 43.8201 5.03634C43.2481 5.03634 42.7861 5.21234 42.4341 5.56434C42.1041 5.89434 41.9391 6.47734 41.9391 7.31334V19.7873ZM38.3091 7.54434C38.3091 5.67434 38.7821 4.24434 39.7281 3.25434C40.6741 2.24234 42.0381 1.73634 43.8201 1.73634C45.6021 1.73634 46.9661 2.24234 47.9121 3.25434C48.8581 4.24434 49.3311 5.67434 49.3311 7.54434V19.5563C49.3311 21.4263 48.8581 22.8673 47.9121 23.8793C46.9661 24.8693 45.6021 25.3643 43.8201 25.3643C42.0381 25.3643 40.6741 24.8693 39.7281 23.8793C38.7821 22.8673 38.3091 21.4263 38.3091 19.5563V7.54434ZM57.1351 12.2303H62.2171V19.5563C62.2171 21.4263 61.7551 22.8673 60.8311 23.8793C59.9291 24.8693 58.5871 25.3643 56.8051 25.3643C55.0231 25.3643 53.6701 24.8693 52.7461 23.8793C51.8441 22.8673 51.3931 21.4263 51.3931 19.5563V7.54434C51.3931 5.67434 51.8441 4.24434 52.7461 3.25434C53.6701 2.24234 55.0231 1.73634 56.8051 1.73634C58.5871 1.73634 59.9291 2.24234 60.8311 3.25434C61.7551 4.24434 62.2171 5.67434 62.2171 7.54434V9.78834H58.7851V7.31334C58.7851 6.47734 58.6091 5.89434 58.2571 5.56434C57.9271 5.21234 57.4761 5.03634 56.9041 5.03634C56.3321 5.03634 55.8701 5.21234 55.5181 5.56434C55.1881 5.89434 55.0231 6.47734 55.0231 7.31334V19.7873C55.0231 20.6233 55.1881 21.2063 55.5181 21.5363C55.8701 21.8663 56.3321 22.0313 56.9041 22.0313C57.4761 22.0313 57.9271 21.8663 58.2571 21.5363C58.6091 21.2063 58.7851 20.6233 58.7851 19.7873V15.5303H57.1351V12.2303ZM72.1385 25.1003C72.0945 24.9463 72.0505 24.8033 72.0065 24.6713C71.9625 24.5393 71.9185 24.3743 71.8745 24.1763C71.8525 23.9783 71.8305 23.7253 71.8085 23.4173C71.8085 23.1093 71.8085 22.7243 71.8085 22.2623V18.6323C71.8085 17.5543 71.6215 16.7953 71.2475 16.3553C70.8735 15.9153 70.2685 15.6953 69.4325 15.6953H68.1785V25.1003H64.5485V2.00034H70.0265C71.9185 2.00034 73.2825 2.44034 74.1185 3.32034C74.9765 4.20034 75.4055 5.53134 75.4055 7.31334V9.12834C75.4055 11.5043 74.6135 13.0663 73.0295 13.8143C73.9535 14.1883 74.5805 14.8043 74.9105 15.6623C75.2625 16.4983 75.4385 17.5213 75.4385 18.7313V22.2953C75.4385 22.8673 75.4605 23.3733 75.5045 23.8133C75.5485 24.2313 75.6585 24.6603 75.8345 25.1003H72.1385ZM68.1785 5.30034V12.3953H69.5975C70.2795 12.3953 70.8075 12.2193 71.1815 11.8673C71.5775 11.5153 71.7755 10.8773 71.7755 9.95334V7.67634C71.7755 6.84034 71.6215 6.23534 71.3135 5.86134C71.0275 5.48734 70.5655 5.30034 69.9275 5.30034H68.1785ZM89.5739 25.1003H85.9109L85.2839 20.9093H80.8289L80.2019 25.1003H76.8689L80.5649 2.00034H85.8779L89.5739 25.1003ZM81.2909 17.7743H84.7889L83.0399 6.09234L81.2909 17.7743ZM96.6103 2.00034C98.4363 2.00034 99.7893 2.48434 100.669 3.45234C101.571 4.42034 102.022 5.83934 102.022 7.70934V10.7123C102.022 12.5823 101.571 14.0013 100.669 14.9693C99.7893 15.9373 98.4363 16.4213 96.6103 16.4213H94.8943V25.1003H91.2643V2.00034H96.6103ZM94.8943 5.30034V13.1213H96.6103C97.1823 13.1213 97.6223 12.9673 97.9303 12.6593C98.2383 12.3513 98.3923 11.7793 98.3923 10.9433V7.47834C98.3923 6.64234 98.2383 6.07034 97.9303 5.76234C97.6223 5.45434 97.1823 5.30034 96.6103 5.30034H94.8943ZM107.334 25.1003H103.704V2.00034H107.334V11.9003H111.459V2.00034H115.155V25.1003H111.459V15.2003H107.334V25.1003ZM121.186 17.4443L116.599 2.00034H120.394L123.166 12.5273L125.938 2.00034H129.403L124.816 17.4443V25.1003H121.186V17.4443Z" fill="white"/>
<path d="M6.698 121.3C8.55667 121.3 9.88267 121.742 10.676 122.626C11.4693 123.488 11.866 124.802 11.866 126.57V127.692C11.866 128.962 11.662 129.993 11.254 130.786C10.846 131.557 10.1207 132.101 9.078 132.418C10.234 132.736 11.05 133.336 11.526 134.22C12.0247 135.104 12.274 136.204 12.274 137.518V139.524C12.274 141.315 11.832 142.698 10.948 143.672C10.064 144.624 8.69267 145.1 6.834 145.1H1.36V121.3H6.698ZM6.052 131.398C7.11733 131.398 7.91067 131.183 8.432 130.752C8.976 130.322 9.248 129.483 9.248 128.236V126.842C9.248 125.777 9.044 124.995 8.636 124.496C8.25067 123.975 7.582 123.714 6.63 123.714H4.012V131.398H6.052ZM6.834 142.686C8.71533 142.686 9.656 141.61 9.656 139.456V137.348C9.656 136.011 9.384 135.093 8.84 134.594C8.31867 134.073 7.48 133.812 6.324 133.812H4.012V142.686H6.834ZM23.1405 131.84V134.22H17.3265V142.686H24.4665V145.1H14.6745V121.3H24.4665V123.714H17.3265V131.84H23.1405ZM32.2644 121.3C34.1231 121.3 35.4491 121.742 36.2424 122.626C37.0357 123.488 37.4324 124.802 37.4324 126.57V127.692C37.4324 128.962 37.2284 129.993 36.8204 130.786C36.4124 131.557 35.6871 132.101 34.6444 132.418C35.8004 132.736 36.6164 133.336 37.0924 134.22C37.5911 135.104 37.8404 136.204 37.8404 137.518V139.524C37.8404 141.315 37.3984 142.698 36.5144 143.672C35.6304 144.624 34.2591 145.1 32.4004 145.1H26.9264V121.3H32.2644ZM31.6184 131.398C32.6837 131.398 33.4771 131.183 33.9984 130.752C34.5424 130.322 34.8144 129.483 34.8144 128.236V126.842C34.8144 125.777 34.6104 124.995 34.2024 124.496C33.8171 123.975 33.1484 123.714 32.1964 123.714H29.5784V131.398H31.6184ZM32.4004 142.686C34.2817 142.686 35.2224 141.61 35.2224 139.456V137.348C35.2224 136.011 34.9504 135.093 34.4064 134.594C33.8851 134.073 33.0464 133.812 31.8904 133.812H29.5784V142.686H32.4004ZM42.9269 140.306L42.0089 145.1H39.5609L44.1169 121.3H47.9589L52.5149 145.1H49.8629L48.9449 140.306H42.9269ZM43.2669 138.028H48.5709L45.8849 124.292L43.2669 138.028ZM59.5826 121.062C61.3959 121.062 62.7333 121.606 63.5946 122.694C64.4559 123.76 64.8866 125.199 64.8866 127.012V127.658H62.3706V126.876C62.3706 125.788 62.1553 124.95 61.7246 124.36C61.2939 123.771 60.6026 123.476 59.6506 123.476C58.6986 123.476 58.0073 123.771 57.5766 124.36C57.1459 124.95 56.9306 125.777 56.9306 126.842C56.9306 127.726 57.1233 128.497 57.5086 129.154C57.9166 129.812 58.4153 130.424 59.0046 130.99C59.5939 131.534 60.2286 132.078 60.9086 132.622C61.6113 133.144 62.2573 133.722 62.8466 134.356C63.4359 134.991 63.9233 135.716 64.3086 136.532C64.7166 137.326 64.9206 138.278 64.9206 139.388C64.9206 141.202 64.4786 142.652 63.5946 143.74C62.7333 144.806 61.3846 145.338 59.5486 145.338C57.7126 145.338 56.3639 144.806 55.5026 143.74C54.6413 142.652 54.2106 141.202 54.2106 139.388V138.028H56.6926V139.524C56.6926 140.612 56.9193 141.451 57.3726 142.04C57.8259 142.63 58.5286 142.924 59.4806 142.924C60.4326 142.924 61.1353 142.63 61.5886 142.04C62.0419 141.451 62.2686 140.612 62.2686 139.524C62.2686 138.64 62.0646 137.881 61.6566 137.246C61.2713 136.589 60.7839 135.988 60.1946 135.444C59.6053 134.878 58.9706 134.334 58.2906 133.812C57.6106 133.268 56.9759 132.679 56.3866 132.044C55.7973 131.41 55.2986 130.696 54.8906 129.902C54.5053 129.086 54.3126 128.123 54.3126 127.012C54.3126 125.176 54.7433 123.726 55.6046 122.66C56.4659 121.595 57.7919 121.062 59.5826 121.062ZM74.8603 145.1H72.4803V121.3H75.8463L81.3543 138.504V121.3H83.7003V145.1H80.9463L74.8603 125.856V145.1ZM94.8924 131.84V134.22H89.0784V142.686H96.2184V145.1H86.4264V121.3H96.2184V123.714H89.0784V131.84H94.8924ZM101.194 139.49C101.194 140.578 101.41 141.428 101.84 142.04C102.294 142.63 103.008 142.924 103.982 142.924C104.934 142.924 105.626 142.63 106.056 142.04C106.51 141.428 106.736 140.578 106.736 139.49V121.3H109.218V139.354C109.218 141.168 108.788 142.63 107.926 143.74C107.065 144.828 105.716 145.372 103.88 145.372C102.067 145.372 100.73 144.828 99.8684 143.74C99.007 142.63 98.5764 141.168 98.5764 139.354V121.3H101.194V139.49ZM120.293 131.84V134.22H114.479V142.686H121.619V145.1H111.827V121.3H121.619V123.714H114.479V131.84H120.293Z" fill="#36B54F"/>
<path d="M244.786 240.557H238.405L236.214 246.1H235L241.316 230.331H242.015L248.202 246.1H246.967L244.786 240.557ZM238.803 239.569H244.421L242.283 233.908C242.104 233.464 241.889 232.848 241.639 232.06C241.445 232.748 241.234 233.371 241.005 233.929L238.803 239.569ZM257.258 246.1L256.989 244.253H256.903C256.316 245.005 255.711 245.538 255.088 245.853C254.472 246.161 253.742 246.315 252.896 246.315C251.751 246.315 250.859 246.022 250.222 245.434C249.584 244.847 249.266 244.034 249.266 242.996C249.266 241.857 249.738 240.973 250.684 240.343C251.636 239.712 253.011 239.379 254.809 239.344L257.032 239.279V238.506C257.032 237.396 256.807 236.558 256.355 235.992C255.904 235.426 255.177 235.143 254.175 235.143C253.093 235.143 251.973 235.444 250.812 236.046L250.415 235.122C251.697 234.52 252.965 234.219 254.218 234.219C255.5 234.219 256.456 234.552 257.086 235.219C257.723 235.885 258.042 236.923 258.042 238.334V246.1H257.258ZM252.961 245.348C254.207 245.348 255.188 244.994 255.904 244.285C256.628 243.569 256.989 242.577 256.989 241.309V240.16L254.948 240.246C253.308 240.325 252.137 240.582 251.436 241.019C250.741 241.449 250.394 242.122 250.394 243.039C250.394 243.769 250.616 244.339 251.06 244.747C251.511 245.148 252.145 245.348 252.961 245.348Z" fill="#B8B8B8"/>
<path d="M292.916 246.1L290.961 241.105H284.666L282.732 246.1H280.885L287.094 230.331H288.63L294.807 246.1H292.916ZM290.392 239.462L288.565 234.595C288.329 233.98 288.086 233.224 287.835 232.329C287.677 233.016 287.452 233.772 287.158 234.595L285.311 239.462H290.392ZM303.938 246.1L303.583 244.425H303.497C302.91 245.162 302.323 245.663 301.735 245.928C301.155 246.186 300.428 246.315 299.555 246.315C298.387 246.315 297.471 246.014 296.805 245.413C296.146 244.811 295.816 243.955 295.816 242.845C295.816 240.468 297.718 239.222 301.521 239.107L303.519 239.043V238.312C303.519 237.388 303.318 236.708 302.917 236.271C302.523 235.827 301.889 235.605 301.016 235.605C300.035 235.605 298.924 235.906 297.686 236.508L297.138 235.143C297.718 234.828 298.352 234.581 299.039 234.402C299.734 234.223 300.428 234.134 301.123 234.134C302.527 234.134 303.565 234.445 304.238 235.068C304.919 235.691 305.259 236.69 305.259 238.065V246.1H303.938ZM299.909 244.844C301.019 244.844 301.889 244.539 302.52 243.93C303.157 243.322 303.476 242.469 303.476 241.374V240.31L301.692 240.385C300.274 240.436 299.25 240.658 298.62 241.052C297.997 241.438 297.686 242.043 297.686 242.867C297.686 243.511 297.879 244.002 298.266 244.339C298.66 244.675 299.207 244.844 299.909 244.844Z" fill="#B8B8B8"/>
<path d="M341.101 246.1L339.962 242.362H334.236L333.098 246.1H329.51L335.053 230.331H339.124L344.688 246.1H341.101ZM339.167 239.569C338.114 236.182 337.52 234.266 337.384 233.822C337.255 233.378 337.162 233.027 337.104 232.769C336.868 233.686 336.191 235.953 335.074 239.569H339.167ZM354.045 246.1L353.411 244.468H353.325C352.774 245.162 352.204 245.646 351.617 245.918C351.037 246.183 350.278 246.315 349.34 246.315C348.187 246.315 347.277 245.986 346.611 245.327C345.952 244.668 345.623 243.73 345.623 242.512C345.623 241.238 346.067 240.3 346.955 239.698C347.85 239.089 349.197 238.753 350.994 238.688L353.078 238.624V238.097C353.078 236.88 352.455 236.271 351.209 236.271C350.249 236.271 349.121 236.561 347.825 237.141L346.74 234.928C348.122 234.205 349.655 233.844 351.338 233.844C352.949 233.844 354.185 234.194 355.044 234.896C355.903 235.598 356.333 236.665 356.333 238.097V246.1H354.045ZM353.078 240.536L351.811 240.579C350.858 240.608 350.149 240.779 349.684 241.094C349.218 241.41 348.985 241.889 348.985 242.534C348.985 243.458 349.515 243.92 350.575 243.92C351.334 243.92 351.939 243.701 352.391 243.264C352.849 242.828 353.078 242.247 353.078 241.524V240.536Z" fill="#B8B8B8"/>
<path d="M390.164 246.1L388.209 241.105H381.914L379.98 246.1H378.133L384.342 230.331H385.878L392.055 246.1H390.164ZM387.64 239.462L385.813 234.595C385.577 233.98 385.334 233.224 385.083 232.329C384.925 233.016 384.7 233.772 384.406 234.595L382.559 239.462H387.64ZM401.186 246.1L400.831 244.425H400.745C400.158 245.162 399.571 245.663 398.983 245.928C398.403 246.186 397.676 246.315 396.803 246.315C395.635 246.315 394.719 246.014 394.053 245.413C393.394 244.811 393.064 243.955 393.064 242.845C393.064 240.468 394.966 239.222 398.769 239.107L400.767 239.043V238.312C400.767 237.388 400.566 236.708 400.165 236.271C399.771 235.827 399.137 235.605 398.264 235.605C397.283 235.605 396.173 235.906 394.934 236.508L394.386 235.143C394.966 234.828 395.6 234.581 396.287 234.402C396.982 234.223 397.676 234.134 398.371 234.134C399.775 234.134 400.813 234.445 401.486 235.068C402.167 235.691 402.507 236.69 402.507 238.065V246.1H401.186ZM397.157 244.844C398.267 244.844 399.137 244.539 399.768 243.93C400.405 243.322 400.724 242.469 400.724 241.374V240.31L398.94 240.385C397.522 240.436 396.498 240.658 395.868 241.052C395.245 241.438 394.934 242.043 394.934 242.867C394.934 243.511 395.127 244.002 395.514 244.339C395.908 244.675 396.455 244.844 397.157 244.844Z" fill="#B8B8B8"/>
<path d="M441.724 246.1L440.585 242.362H434.859L433.721 246.1H430.133L435.676 230.331H439.747L445.312 246.1H441.724ZM439.79 239.569C438.737 236.182 438.143 234.266 438.007 233.822C437.878 233.378 437.785 233.027 437.728 232.769C437.491 233.686 436.814 235.953 435.697 239.569H439.79ZM454.668 246.1L454.034 244.468H453.948C453.397 245.162 452.827 245.646 452.24 245.918C451.66 246.183 450.901 246.315 449.963 246.315C448.81 246.315 447.9 245.986 447.234 245.327C446.576 244.668 446.246 243.73 446.246 242.512C446.246 241.238 446.69 240.3 447.578 239.698C448.473 239.089 449.82 238.753 451.617 238.688L453.701 238.624V238.097C453.701 236.88 453.078 236.271 451.832 236.271C450.872 236.271 449.744 236.561 448.448 237.141L447.363 234.928C448.745 234.205 450.278 233.844 451.961 233.844C453.572 233.844 454.808 234.194 455.667 234.896C456.526 235.598 456.956 236.665 456.956 238.097V246.1H454.668ZM453.701 240.536L452.434 240.579C451.481 240.608 450.772 240.779 450.307 241.094C449.841 241.41 449.608 241.889 449.608 242.534C449.608 243.458 450.138 243.92 451.198 243.92C451.957 243.92 452.562 243.701 453.014 243.264C453.472 242.828 453.701 242.247 453.701 241.524V240.536Z" fill="#B8B8B8"/>
<path d="M237.046 140.36L236.1 144.1H235.88L239.774 128.678H240.082L244.064 144.1H243.844L242.876 140.36H237.046ZM237.112 140.14H242.81L239.928 128.964L237.112 140.14ZM246.993 140.36L246.047 144.1H245.827L249.721 128.678H250.029L254.011 144.1H253.791L252.823 140.36H246.993ZM247.059 140.14H252.757L249.875 128.964L247.059 140.14Z" fill="#36B54F"/>
<path d="M286.156 140.47L285.254 144.1H284.814L288.532 128.678H289.214L293.02 144.1H292.536L291.634 140.47H286.156ZM286.244 140.03H291.546L288.862 129.25L286.244 140.03ZM295.996 140.47L295.094 144.1H294.654L298.372 128.678H299.054L302.86 144.1H302.376L301.474 140.47H295.996ZM296.084 140.03H301.386L298.702 129.25L296.084 140.03Z" fill="#36B54F"/>
<path d="M336.618 140.998L336.024 144.1H334.44L337.388 128.7H339.874L342.822 144.1H341.106L340.512 140.998H336.618ZM336.838 139.524H340.27L338.532 130.636L336.838 139.524ZM345.899 140.998L345.305 144.1H343.721L346.669 128.7H349.155L352.103 144.1H350.387L349.793 140.998H345.899ZM346.119 139.524H349.551L347.813 130.636L346.119 139.524Z" fill="#36B54F"/>
<path d="M385.618 140.998L385.024 144.1H383.44L386.388 128.7H388.874L391.822 144.1H390.106L389.512 140.998H385.618ZM385.838 139.524H389.27L387.532 130.636L385.838 139.524ZM394.899 140.998L394.305 144.1H392.721L395.669 128.7H398.155L401.103 144.1H399.387L398.793 140.998H394.899ZM395.119 139.524H398.551L396.813 130.636L395.119 139.524Z" fill="#36B54F"/>
<path d="M444.712 144.1H442.27L441.852 141.306H438.882L438.464 144.1H436.242L438.706 128.7H442.248L444.712 144.1ZM439.19 139.216H441.522L440.356 131.428L439.19 139.216ZM453.671 144.1H451.229L450.811 141.306H447.841L447.423 144.1H445.201L447.665 128.7H451.207L453.671 144.1ZM448.149 139.216H450.481L449.315 131.428L448.149 139.216Z" fill="#36B54F"/>
</svg>
