<svg width="207" height="194" viewBox="0 0 207 194" fill="none" xmlns="http://www.w3.org/2000/svg">
<g opacity="0.31">
<path opacity="0.31" d="M40.0577 62.4145C52.1444 44.204 70.8258 31.3941 92.1684 26.6818C113.511 21.9695 135.849 25.7227 154.48 37.151C173.111 48.5792 186.58 66.7909 192.052 87.9514C197.524 109.112 194.572 131.57 183.817 150.598L183.25 150.314C193.991 131.411 196.974 109.077 191.568 88.0183C186.163 66.9598 172.793 48.8227 154.275 37.4305C135.758 26.0382 113.541 22.2809 92.307 26.9506C71.0733 31.6203 52.4823 44.3522 40.4531 62.4622C28.4238 80.5723 23.8963 102.645 27.8248 124.029C31.7534 145.412 43.8311 164.434 61.5119 177.086C79.1927 189.738 101.095 195.03 122.602 191.847C144.109 188.665 163.54 177.256 176.799 160.026L177.299 160.38C163.994 177.752 144.46 189.275 122.819 192.515C101.179 195.756 79.1257 190.461 61.3158 177.748C43.506 165.035 31.3329 145.899 27.3665 124.38C23.4001 102.86 27.9507 80.6417 40.0577 62.4145Z" fill="#18191D"/>
</g>
<path d="M119.45 155.276H98.3262V173.494H119.45V155.276Z" fill="#61C0E4"/>
<path opacity="0.15" d="M119.45 155.276H98.3262V161.585H119.45V155.276Z" fill="black"/>
<path d="M154.682 158.606H63.663C63.4116 158.608 63.1624 158.559 62.9298 158.463C62.6972 158.367 62.4859 158.227 62.308 158.049C62.1301 157.871 61.9891 157.66 61.8932 157.428C61.7972 157.195 61.7482 156.946 61.749 156.694V100.408C61.748 100.157 61.7968 99.9075 61.8926 99.6748C61.9884 99.4421 62.1294 99.2307 62.3073 99.0527C62.4852 98.8748 62.6966 98.7338 62.9293 98.638C63.162 98.5422 63.4114 98.4934 63.663 98.4945H154.682C154.934 98.4934 155.183 98.5422 155.416 98.638C155.648 98.7338 155.86 98.8748 156.038 99.0527C156.216 99.2307 156.357 99.4421 156.452 99.6748C156.548 99.9075 156.597 100.157 156.596 100.408V156.694C156.597 156.946 156.548 157.195 156.452 157.428C156.356 157.66 156.215 157.871 156.037 158.049C155.859 158.227 155.648 158.367 155.415 158.463C155.183 158.559 154.934 158.608 154.682 158.606Z" fill="#61C0E4"/>
<path d="M149.72 105.3H68.625V151.731H149.72V105.3Z" fill="white"/>
<g opacity="0.08">
<path opacity="0.08" d="M70.468 105.3H68.625V151.731H149.72V149.746H70.468V105.3Z" fill="black"/>
</g>
<path d="M143.199 172.784H74.5801V175.407H143.199V172.784Z" fill="#61C0E4"/>
<path d="M126.539 140.672H126.039V140.18C126.048 140.11 126.042 140.039 126.021 139.971C126.001 139.903 125.966 139.84 125.919 139.787C125.872 139.734 125.814 139.691 125.749 139.662C125.685 139.632 125.614 139.617 125.543 139.617C125.472 139.617 125.402 139.632 125.338 139.662C125.273 139.691 125.215 139.734 125.168 139.787C125.121 139.84 125.086 139.903 125.065 139.971C125.045 140.039 125.039 140.11 125.047 140.18V140.68H124.547C124.477 140.672 124.406 140.678 124.338 140.698C124.27 140.719 124.207 140.754 124.154 140.801C124.101 140.848 124.058 140.906 124.029 140.971C123.999 141.035 123.984 141.105 123.984 141.176C123.984 141.247 123.999 141.318 124.029 141.382C124.058 141.447 124.101 141.505 124.154 141.552C124.207 141.599 124.27 141.634 124.338 141.654C124.406 141.675 124.477 141.681 124.547 141.672H125.047V142.172C125.063 142.293 125.122 142.404 125.213 142.485C125.304 142.565 125.422 142.609 125.543 142.609C125.665 142.609 125.783 142.565 125.874 142.485C125.965 142.404 126.024 142.293 126.039 142.172V141.672H126.539C126.61 141.681 126.681 141.675 126.749 141.654C126.817 141.634 126.88 141.599 126.933 141.552C126.986 141.505 127.029 141.447 127.058 141.382C127.087 141.318 127.103 141.247 127.103 141.176C127.103 141.105 127.087 141.035 127.058 140.971C127.029 140.906 126.986 140.848 126.933 140.801C126.88 140.754 126.817 140.719 126.749 140.698C126.681 140.678 126.61 140.672 126.539 140.68V140.672Z" fill="#D6D6D6"/>
<path d="M123.634 126.07H123.134V125.57C123.143 125.499 123.137 125.428 123.116 125.36C123.095 125.292 123.06 125.229 123.013 125.176C122.966 125.123 122.909 125.08 122.844 125.051C122.779 125.022 122.709 125.006 122.638 125.006C122.567 125.006 122.497 125.022 122.432 125.051C122.367 125.08 122.31 125.123 122.263 125.176C122.216 125.229 122.181 125.292 122.16 125.36C122.139 125.428 122.133 125.499 122.142 125.57V126.07H121.642C121.521 126.085 121.41 126.144 121.33 126.235C121.249 126.326 121.205 126.444 121.205 126.566C121.205 126.687 121.249 126.805 121.33 126.896C121.41 126.987 121.521 127.046 121.642 127.062H122.142V127.562C122.157 127.682 122.216 127.793 122.307 127.874C122.399 127.954 122.516 127.998 122.638 127.998C122.76 127.998 122.877 127.954 122.968 127.874C123.06 127.793 123.119 127.682 123.134 127.562V127.062H123.634C123.755 127.046 123.866 126.987 123.946 126.896C124.026 126.805 124.071 126.687 124.071 126.566C124.071 126.444 124.026 126.326 123.946 126.235C123.866 126.144 123.755 126.085 123.634 126.07Z" fill="#D6D6D6"/>
<path d="M93.3644 131.883H92.8644V131.383C92.8491 131.262 92.7902 131.151 92.6989 131.07C92.6076 130.99 92.4901 130.946 92.3684 130.946C92.2467 130.946 92.1292 130.99 92.0379 131.07C91.9466 131.151 91.8878 131.262 91.8724 131.383V131.883H91.3834C91.313 131.874 91.2415 131.88 91.1736 131.901C91.1057 131.921 91.0431 131.956 90.9898 132.003C90.9365 132.05 90.8939 132.108 90.8647 132.173C90.8354 132.237 90.8203 132.308 90.8203 132.379C90.8203 132.449 90.8354 132.52 90.8647 132.584C90.8939 132.649 90.9365 132.707 90.9898 132.754C91.0431 132.801 91.1057 132.836 91.1736 132.857C91.2415 132.877 91.313 132.883 91.3834 132.875H91.8834V133.375C91.8988 133.495 91.9576 133.606 92.049 133.687C92.1403 133.767 92.2577 133.811 92.3794 133.811C92.5011 133.811 92.6186 133.767 92.7099 133.687C92.8012 133.606 92.8601 133.495 92.8754 133.375V132.875H93.3754C93.4458 132.883 93.5174 132.877 93.5852 132.857C93.6531 132.836 93.7157 132.801 93.769 132.754C93.8223 132.707 93.865 132.649 93.8942 132.584C93.9234 132.52 93.9385 132.449 93.9385 132.379C93.9385 132.308 93.9234 132.237 93.8942 132.173C93.865 132.108 93.8223 132.05 93.769 132.003C93.7157 131.956 93.6531 131.921 93.5852 131.901C93.5174 131.88 93.4458 131.874 93.3754 131.883H93.3644Z" fill="#D6D6D6"/>
<path d="M89.4607 123.497C89.2843 123.469 89.1157 123.404 88.966 123.306C88.8163 123.208 88.6888 123.08 88.5917 122.93C88.5236 122.818 88.4815 122.691 88.4686 122.561C88.4556 122.43 88.472 122.298 88.5166 122.174C88.5612 122.05 88.6329 121.938 88.7265 121.846C88.82 121.753 88.933 121.683 89.0572 121.64L105.658 115.368C105.922 115.263 106.214 115.251 106.486 115.333C106.757 115.416 106.993 115.587 107.155 115.821L109.803 119.47L125.221 113.514C125.5 113.412 125.804 113.402 126.089 113.486C126.374 113.57 126.624 113.744 126.803 113.981C126.871 114.093 126.913 114.219 126.926 114.35C126.939 114.481 126.923 114.613 126.878 114.737C126.834 114.86 126.762 114.972 126.668 115.065C126.575 115.157 126.462 115.228 126.338 115.271L109.992 121.581C109.732 121.68 109.447 121.696 109.178 121.627C108.908 121.559 108.666 121.409 108.483 121.199L105.839 117.55L90.1635 123.465C89.9333 123.519 89.6949 123.53 89.4607 123.497Z" fill="#D6D6D6"/>
<path d="M126.212 118.409L126.071 118.386C125.83 118.298 125.632 118.119 125.521 117.886C125.41 117.654 125.395 117.388 125.478 117.144L126.57 113.875L122.93 113.298C122.672 113.252 122.442 113.107 122.288 112.895C122.135 112.682 122.069 112.419 122.106 112.159C122.152 111.902 122.296 111.673 122.507 111.519C122.719 111.365 122.982 111.299 123.241 111.335L128.001 112.089C128.137 112.109 128.267 112.162 128.379 112.242C128.491 112.322 128.583 112.427 128.646 112.549C128.731 112.663 128.784 112.798 128.799 112.939C128.815 113.08 128.792 113.223 128.734 113.353L127.254 117.712C127.233 117.827 127.188 117.936 127.124 118.033C127.059 118.131 126.976 118.214 126.879 118.279C126.782 118.344 126.673 118.389 126.558 118.411C126.444 118.433 126.326 118.432 126.212 118.409Z" fill="#D6D6D6"/>
<path opacity="0.68" d="M93.6956 75.6975L73.8106 87.6285L59.2676 63.4105L79.1526 51.4795L93.6956 75.6975Z" fill="#FA6975"/>
<path d="M95.951 75.4595L73.217 79.8525L67.875 52.1325L90.669 47.7395L95.951 75.4595Z" fill="#FA6975"/>
<path d="M91.2615 69.5835C91.2901 69.7406 91.2565 69.9026 91.1679 70.0355C91.0792 70.1683 90.9425 70.2615 90.7865 70.2955L75.5315 73.3225C75.3744 73.351 75.2124 73.3175 75.0795 73.2288C74.9467 73.1402 74.8535 73.0035 74.8195 72.8475C74.791 72.6904 74.8245 72.5284 74.9132 72.3955C75.0018 72.2627 75.1385 72.1695 75.2945 72.1355L90.5495 69.1085C90.6275 69.0922 90.7079 69.0916 90.7862 69.1068C90.8644 69.1219 90.9388 69.1525 91.0051 69.1967C91.0714 69.2409 91.1282 69.2979 91.1722 69.3643C91.2162 69.4307 91.2466 69.5052 91.2615 69.5835Z" fill="white"/>
<path d="M90.6687 66.7345C90.6973 66.8916 90.6637 67.0536 90.5751 67.1865C90.4865 67.3193 90.3497 67.4125 90.1937 67.4465L74.9387 70.4735C74.7816 70.502 74.6196 70.4685 74.4868 70.3799C74.3539 70.2913 74.2607 70.1545 74.2267 69.9985C74.1982 69.8414 74.2318 69.6793 74.3204 69.5465C74.409 69.4137 74.5457 69.3205 74.7017 69.2865L89.9567 66.2595C90.0351 66.2332 90.1184 66.2252 90.2003 66.236C90.2822 66.2469 90.3606 66.2764 90.4293 66.3223C90.498 66.3681 90.5554 66.4291 90.5969 66.5006C90.6384 66.572 90.663 66.6521 90.6687 66.7345Z" fill="white"/>
<path d="M91.8553 72.4925C91.8838 72.6496 91.8502 72.8116 91.7616 72.9444C91.673 73.0773 91.5363 73.1705 91.3803 73.2045L76.1252 76.2315C75.9681 76.26 75.8061 76.2264 75.6733 76.1378C75.5405 76.0492 75.4472 75.9125 75.4132 75.7565C75.3847 75.5994 75.4183 75.4373 75.5069 75.3045C75.5955 75.1717 75.7322 75.0784 75.8882 75.0445L91.1433 72.0175C91.2215 71.995 91.3038 71.9899 91.3842 72.0024C91.4647 72.0149 91.5415 72.0448 91.6093 72.09C91.677 72.1352 91.7341 72.1947 91.7766 72.2642C91.8191 72.3337 91.8459 72.4116 91.8553 72.4925Z" fill="white"/>
<path d="M84.3179 56.8805C84.1963 56.3078 83.854 55.806 83.3651 55.4839C82.8762 55.1618 82.2801 55.0452 81.7059 55.1595L81.2909 55.2185L81.1129 54.3285L80.1629 54.5065L80.3409 55.3965L79.4509 55.5745L79.2729 54.6845L78.3229 54.8625L78.5009 55.7525L77.2539 55.9895L77.4909 57.2955L78.3809 57.1175L79.3309 61.8065L78.4409 61.9845L78.6779 63.2905L79.9249 63.0535L80.1029 63.9435L81.0529 63.7655L80.8749 62.8755L81.7649 62.6975L81.9429 63.5875L82.8929 63.4095L82.7149 62.5195L83.1309 62.4605C83.5535 62.3731 83.9414 62.1641 84.2469 61.8592C84.5523 61.5544 84.7621 61.1669 84.8504 60.7445C84.9386 60.322 84.9016 59.883 84.7437 59.4813C84.5859 59.0797 84.3141 58.7328 83.9619 58.4835C84.1385 58.2606 84.2623 58.0005 84.3239 57.7229C84.3856 57.4452 84.3835 57.1572 84.3179 56.8805ZM82.9529 61.2135L80.6969 61.6885L80.3409 59.9675L82.5969 59.4925C82.7061 59.4677 82.8192 59.4651 82.9294 59.4847C83.0397 59.5043 83.1449 59.5457 83.2389 59.6065C83.3329 59.6674 83.4138 59.7464 83.4768 59.839C83.5399 59.9315 83.5837 60.0357 83.6059 60.1455C83.6333 60.2585 83.6382 60.3758 83.6203 60.4907C83.6024 60.6056 83.562 60.7158 83.5014 60.8151C83.4409 60.9144 83.3613 61.0008 83.2674 61.0693C83.1734 61.1378 83.0669 61.1872 82.9539 61.2145L82.9529 61.2135ZM82.3589 58.1865L80.1029 58.6615L79.7469 56.9405L82.0029 56.4655C82.1121 56.4407 82.2252 56.4381 82.3354 56.4577C82.4457 56.4773 82.5509 56.5187 82.6449 56.5795C82.7389 56.6404 82.8198 56.7194 82.8828 56.812C82.9458 56.9045 82.9897 57.0087 83.0119 57.1185C83.043 57.232 83.0505 57.3506 83.0338 57.467C83.0171 57.5835 82.9766 57.6953 82.9149 57.7954C82.8532 57.8956 82.7716 57.982 82.675 58.0493C82.5785 58.1166 82.4692 58.1633 82.3539 58.1865H82.3589Z" fill="white"/>
<path d="M109.567 143.873C113.856 143.873 117.334 140.395 117.334 136.106C117.334 131.816 113.856 128.339 109.567 128.339C105.277 128.339 101.8 131.816 101.8 136.106C101.8 140.395 105.277 143.873 109.567 143.873Z" fill="#61C0E4"/>
<path d="M109.567 142.335C113.007 142.335 115.796 139.546 115.796 136.106C115.796 132.665 113.007 129.877 109.567 129.877C106.127 129.877 103.338 132.665 103.338 136.106C103.338 139.546 106.127 142.335 109.567 142.335Z" fill="#3C9FD9"/>
<path d="M112.8 134.765C112.798 134.243 112.59 133.743 112.221 133.374C111.851 133.004 111.351 132.796 110.829 132.794H110.435V132.005H109.568V132.794H108.779V132.005H107.907V132.794H106.807V133.977H107.596V138.277H106.807V139.46H107.907V140.249H108.774V139.46H109.563V140.249H110.43V139.46H110.824C111.211 139.459 111.589 139.343 111.912 139.128C112.234 138.914 112.486 138.609 112.637 138.253C112.788 137.896 112.832 137.503 112.761 137.122C112.691 136.741 112.511 136.389 112.243 136.109C112.42 135.934 112.561 135.724 112.657 135.494C112.752 135.263 112.801 135.015 112.8 134.765ZM110.868 138.274H108.818V136.736H110.868C111.077 136.737 111.277 136.821 111.424 136.969C111.572 137.116 111.655 137.317 111.656 137.525C111.634 137.723 111.543 137.907 111.398 138.044C111.254 138.181 111.066 138.263 110.868 138.274ZM110.868 135.514H108.818V133.976H110.868C111.077 133.977 111.277 134.061 111.424 134.209C111.572 134.356 111.655 134.557 111.656 134.765C111.641 134.966 111.552 135.153 111.406 135.292C111.26 135.43 111.068 135.51 110.868 135.514Z" fill="white"/>
<path d="M129.599 126.329H129.327V126.057C129.327 125.985 129.299 125.916 129.248 125.865C129.197 125.814 129.127 125.785 129.055 125.785C128.983 125.785 128.914 125.814 128.863 125.865C128.812 125.916 128.783 125.985 128.783 126.057V126.329H128.511C128.439 126.329 128.37 126.358 128.319 126.409C128.268 126.46 128.239 126.529 128.239 126.601C128.239 126.674 128.268 126.743 128.319 126.794C128.37 126.845 128.439 126.873 128.511 126.873H128.783V127.145C128.783 127.218 128.812 127.287 128.863 127.338C128.914 127.389 128.983 127.417 129.055 127.417C129.127 127.417 129.197 127.389 129.248 127.338C129.299 127.287 129.327 127.218 129.327 127.145V126.873H129.599C129.671 126.873 129.741 126.845 129.792 126.794C129.843 126.743 129.871 126.674 129.871 126.601C129.871 126.529 129.843 126.46 129.792 126.409C129.741 126.358 129.671 126.329 129.599 126.329Z" fill="#D6D6D6"/>
<path d="M147.877 93.1775L133.912 81.0555C133.669 80.8325 133.52 80.526 133.493 80.1974C133.467 79.8688 133.566 79.5423 133.77 79.2835L140.575 71.4155C140.798 71.1727 141.105 71.0232 141.433 70.9969C141.762 70.9705 142.088 71.0693 142.347 71.2735L156.312 83.3955C156.555 83.6185 156.704 83.925 156.731 84.2537C156.757 84.5823 156.658 84.9087 156.454 85.1675L149.649 93.0355C149.548 93.1692 149.419 93.2799 149.272 93.3605C149.125 93.441 148.962 93.4896 148.795 93.503C148.628 93.5164 148.459 93.4943 148.301 93.4382C148.143 93.3821 147.999 93.2933 147.877 93.1775Z" fill="#36B54F"/>
<path d="M136.242 76.4925L138.425 73.9735L154.288 87.7174L152.105 90.2364L136.242 76.4925Z" fill="white"/>
<path d="M142.835 75.4465L140.691 73.5895L140.274 74.0719L142.417 75.9288L142.835 75.4465Z" fill="#61C0E4"/>
<path d="M145.68 77.8774L143.537 76.0205L143.119 76.5028L145.262 78.3598L145.68 77.8774Z" fill="#61C0E4"/>
<path d="M149.366 90.1295C149.511 89.9577 149.584 89.737 149.571 89.5129C149.557 89.2888 149.459 89.0782 149.295 88.9245L149.153 88.7825L149.366 88.4985L149.082 88.2145L148.869 88.4985L148.585 88.2855L148.798 88.0015L148.514 87.7175L148.301 88.0015L147.947 87.6475L147.593 88.0725L147.877 88.2855L146.672 89.7035L146.388 89.4905L146.034 89.9155L146.388 90.2695L146.175 90.5535L146.459 90.8375L146.672 90.5535L146.956 90.7665L146.743 91.0505L147.027 91.3345L147.24 91.0505L147.382 91.1925C147.554 91.337 147.775 91.4101 147.999 91.3969C148.223 91.3837 148.434 91.2852 148.587 91.1215C148.721 90.935 148.795 90.7127 148.8 90.4835C149.025 90.4358 149.225 90.3104 149.366 90.1295ZM147.736 90.7675L147.027 90.2005L147.452 89.7005L148.161 90.2675C148.195 90.2996 148.223 90.3383 148.241 90.3813C148.26 90.4243 148.269 90.4707 148.269 90.5175C148.269 90.5644 148.26 90.6107 148.241 90.6537C148.223 90.6967 148.195 90.7354 148.161 90.7675C148.103 90.8201 148.026 90.8492 147.948 90.8492C147.869 90.8492 147.793 90.8201 147.734 90.7675H147.736ZM148.516 89.8455L147.807 89.2785L148.232 88.7785L148.941 89.3455C148.975 89.3775 149.003 89.4162 149.021 89.4592C149.04 89.5022 149.05 89.5486 149.05 89.5955C149.05 89.6424 149.04 89.6888 149.021 89.7318C149.003 89.7748 148.975 89.8135 148.941 89.8455C148.883 89.8982 148.807 89.9277 148.729 89.9282C148.65 89.9288 148.574 89.9004 148.515 89.8485L148.516 89.8455Z" fill="white"/>
<path d="M138.708 81.7221C139.221 81.13 139.156 80.2343 138.564 79.7213C137.972 79.2083 137.077 79.2725 136.564 79.8645C136.051 80.4566 136.115 81.3524 136.707 81.8653C137.299 82.3783 138.195 82.3141 138.708 81.7221Z" fill="white"/>
<path d="M140.267 83.0591C140.78 82.467 140.716 81.5712 140.124 81.0583C139.532 80.5453 138.636 80.6094 138.123 81.2015C137.61 81.7935 137.674 82.6893 138.266 83.2023C138.858 83.7152 139.754 83.6511 140.267 83.0591Z" fill="white"/>
<path d="M138.732 81.6935C138.468 81.9689 138.118 82.1454 137.74 82.1935C137.728 82.0128 137.754 81.8315 137.815 81.6609C137.875 81.4903 137.971 81.334 138.094 81.2015C138.358 80.9262 138.708 80.7497 139.086 80.7015C139.098 80.8823 139.073 81.0636 139.012 81.2342C138.951 81.4048 138.856 81.5611 138.732 81.6935Z" fill="#36B54F"/>
<path d="M16.6236 141.582C25.5662 141.582 32.8156 134.333 32.8156 125.39C32.8156 116.448 25.5662 109.198 16.6236 109.198C7.68105 109.198 0.431641 116.448 0.431641 125.39C0.431641 134.333 7.68105 141.582 16.6236 141.582Z" fill="#61C0E4"/>
<path d="M16.6237 138.376C23.7957 138.376 29.6097 132.561 29.6097 125.39C29.6097 118.218 23.7957 112.404 16.6237 112.404C9.45173 112.404 3.6377 118.218 3.6377 125.39C3.6377 132.561 9.45173 138.376 16.6237 138.376Z" fill="#3C9FD9"/>
<path d="M23.3631 122.596C23.3602 121.507 22.9263 120.464 22.1561 119.693C21.386 118.923 20.3423 118.489 19.2531 118.486H18.4311V116.842H16.6231V118.486H14.9801V116.842H13.1701V118.486H10.8701V120.952H12.5141V129.911H10.8701V132.377H13.1701V134.021H14.9781V132.377H16.6221V134.021H18.4301V132.377H19.2521C20.0598 132.374 20.8488 132.134 21.5212 131.686C22.1936 131.239 22.72 130.604 23.035 129.86C23.3501 129.116 23.4399 128.297 23.2935 127.502C23.147 126.708 22.7707 125.974 22.2111 125.391C22.5789 125.025 22.8701 124.59 23.0678 124.11C23.2656 123.63 23.366 123.115 23.3631 122.596ZM19.3361 129.911H15.0621V126.705H19.3361C19.7717 126.707 20.1891 126.88 20.4971 127.188C20.8052 127.496 20.9788 127.914 20.9801 128.349C20.9347 128.762 20.7448 129.145 20.4438 129.431C20.1429 129.717 19.7505 129.887 19.3361 129.911ZM19.3361 124.158H15.0621V120.952H19.3361C19.7717 120.954 20.1891 121.127 20.4971 121.435C20.8052 121.743 20.9788 122.161 20.9801 122.596C20.9487 123.014 20.763 123.406 20.4592 123.694C20.1553 123.983 19.755 124.148 19.3361 124.157V124.158Z" fill="white"/>
<path d="M192.889 113.452C197.392 113.452 201.041 109.803 201.041 105.3C201.041 100.798 197.392 97.1485 192.889 97.1485C188.387 97.1485 184.737 100.798 184.737 105.3C184.737 109.803 188.387 113.452 192.889 113.452Z" fill="#61C0E4"/>
<path d="M192.89 111.839C196.5 111.839 199.428 108.911 199.428 105.301C199.428 101.69 196.5 98.7625 192.89 98.7625C189.279 98.7625 186.352 101.69 186.352 105.301C186.352 108.911 189.279 111.839 192.89 111.839Z" fill="#3C9FD9"/>
<path d="M196.282 103.897C196.281 103.348 196.062 102.823 195.674 102.435C195.287 102.048 194.761 101.829 194.213 101.828H193.799V100.997H192.889V101.825H192.061V100.997H191.151V101.825H189.992V103.066H190.82V107.577H189.992V108.818H191.151V109.646H192.061V108.818H192.889V109.646H193.799V108.818H194.213C194.62 108.816 195.017 108.695 195.355 108.469C195.694 108.244 195.959 107.925 196.117 107.55C196.276 107.176 196.321 106.763 196.248 106.363C196.174 105.963 195.985 105.594 195.703 105.301C195.888 105.116 196.034 104.898 196.133 104.657C196.233 104.416 196.283 104.157 196.282 103.897ZM194.254 107.58H192.102V105.966H194.254C194.474 105.966 194.684 106.053 194.839 106.209C194.994 106.364 195.082 106.574 195.082 106.794C195.059 107.001 194.962 107.193 194.811 107.336C194.659 107.479 194.462 107.564 194.254 107.577V107.58ZM194.254 104.68H192.102V103.066H194.254C194.474 103.066 194.684 103.153 194.839 103.309C194.994 103.464 195.082 103.674 195.082 103.894C195.066 104.104 194.973 104.301 194.82 104.446C194.667 104.591 194.465 104.675 194.254 104.68Z" fill="white"/>
<path d="M110.731 41.8015L121.697 34.6835L133.432 41.6095L121.889 49.1095L110.731 41.8015Z" fill="#519AB5"/>
<path d="M121.505 16.4075L121.89 47.1885L133.241 39.3005L121.505 16.4075Z" fill="#5CADCC"/>
<path d="M110.731 39.8785L121.889 47.1885L121.504 16.4075L110.731 39.8785Z" fill="#61C0E4"/>
<path d="M110.731 41.8015L121.889 49.1125L122.081 62.7715L110.731 41.8015Z" fill="#61C0E4"/>
<path d="M121.89 49.1095L133.433 41.6095L122.082 62.7715L121.89 49.1095Z" fill="#5CADCC"/>
<path d="M144.758 13.8175L150.374 10.1725L156.384 13.7195L150.473 17.5615L144.758 13.8175Z" fill="#519AB5"/>
<path d="M150.274 0.812469L150.474 16.5765L156.287 12.5375L150.274 0.812469Z" fill="#5CADCC"/>
<path d="M144.758 12.8325L150.472 16.5765L150.272 0.812469L144.758 12.8325Z" fill="#61C0E4"/>
<path d="M144.758 13.8175L150.472 17.5615L150.572 24.5615L144.758 13.8175Z" fill="#61C0E4"/>
<path d="M150.472 17.5615L156.383 13.7195L150.572 24.5565L150.472 17.5615Z" fill="#5CADCC"/>
<path d="M52.2632 162.158C51.8784 162.156 51.5026 162.041 51.1825 161.828C50.8625 161.614 50.6122 161.311 50.463 160.956C50.3138 160.602 50.2722 160.211 50.3434 159.833C50.4145 159.455 50.5953 159.106 50.8632 158.829L51.8282 157.865L49.6582 155.695L48.6932 156.66C48.4196 156.934 48.0701 157.121 47.6897 157.196C47.3093 157.271 46.9151 157.231 46.5577 157.08C46.2003 156.93 45.8959 156.676 45.6834 156.352C45.471 156.028 45.3602 155.647 45.3652 155.259V153.859H42.3312V155.259C42.3296 155.644 42.2148 156.02 42.0013 156.34C41.7877 156.66 41.4847 156.91 41.13 157.06C40.7753 157.209 40.3846 157.25 40.0064 157.179C39.6283 157.108 39.2794 156.927 39.0032 156.66L38.0382 155.695L35.8682 157.865L36.8332 158.829C37.1079 159.103 37.2947 159.453 37.3697 159.833C37.4447 160.213 37.4044 160.608 37.2541 160.965C37.1037 161.322 36.8501 161.627 36.5257 161.839C36.2013 162.052 35.8209 162.163 35.4332 162.158H34.0332V165.197H35.4332C35.818 165.198 36.1938 165.313 36.5139 165.526C36.8339 165.74 37.0841 166.043 37.2333 166.398C37.3825 166.752 37.4242 167.143 37.353 167.521C37.2819 167.899 37.1011 168.248 36.8332 168.525L35.8682 169.49L38.0382 171.66L39.0032 170.695C39.2768 170.421 39.6262 170.234 40.0067 170.159C40.3871 170.084 40.7813 170.124 41.1387 170.275C41.4962 170.425 41.8006 170.679 42.013 171.003C42.2254 171.327 42.3362 171.708 42.3312 172.096V173.495H45.3702V172.096C45.3718 171.711 45.4866 171.335 45.7002 171.015C45.9137 170.695 46.2167 170.445 46.5714 170.295C46.9261 170.146 47.3168 170.105 47.6949 170.176C48.0731 170.247 48.422 170.428 48.6982 170.695L49.6632 171.66L51.8332 169.49L50.8682 168.525C50.5935 168.251 50.4067 167.901 50.3317 167.521C50.2567 167.141 50.297 166.746 50.4473 166.389C50.5977 166.032 50.8513 165.727 51.1757 165.515C51.5001 165.302 51.8805 165.191 52.2682 165.197H53.6682V162.158H52.2632ZM43.8702 167.029C43.212 167.029 42.5686 166.834 42.0213 166.469C41.474 166.103 41.0474 165.583 40.7955 164.975C40.5436 164.367 40.4777 163.698 40.6061 163.052C40.7346 162.407 41.0515 161.814 41.5169 161.348C41.9824 160.883 42.5754 160.566 43.2209 160.437C43.8665 160.309 44.5357 160.375 45.1438 160.627C45.7519 160.879 46.2716 161.305 46.6373 161.853C47.003 162.4 47.1982 163.043 47.1982 163.701C47.1953 164.583 46.8438 165.427 46.2204 166.05C45.597 166.673 44.7524 167.023 43.8712 167.025L43.8702 167.029Z" fill="#36B54F"/>
<path d="M50.2861 163.698C50.2861 162.429 49.9098 161.188 49.2049 160.134C48.5 159.079 47.4982 158.256 46.326 157.771C45.1538 157.285 43.864 157.158 42.6196 157.406C41.3752 157.653 40.2321 158.264 39.335 159.161C38.4378 160.059 37.8268 161.202 37.5793 162.446C37.3318 163.69 37.4588 164.98 37.9444 166.152C38.4299 167.325 39.2521 168.327 40.3071 169.031C41.362 169.736 42.6023 170.113 43.8711 170.113C44.7136 170.113 45.548 169.947 46.3265 169.625C47.1049 169.303 47.8123 168.83 48.408 168.235C49.0038 167.639 49.4763 166.931 49.7986 166.153C50.1208 165.374 50.2865 164.54 50.2861 163.698ZM43.8711 167.026C43.2129 167.026 42.5694 166.83 42.0221 166.465C41.4748 166.099 41.0483 165.579 40.7964 164.971C40.5445 164.363 40.4786 163.694 40.607 163.048C40.7354 162.403 41.0524 161.81 41.5178 161.344C41.9833 160.879 42.5762 160.562 43.2218 160.433C43.8674 160.305 44.5365 160.371 45.1446 160.623C45.7527 160.875 46.2725 161.301 46.6382 161.849C47.0039 162.396 47.1991 163.039 47.1991 163.698C47.1972 164.58 46.846 165.425 46.2223 166.049C45.5985 166.672 44.7531 167.024 43.8711 167.026Z" fill="#36B54F"/>
<path d="M204.644 73.3125C204.155 73.3096 203.678 73.1633 203.272 72.8917C202.866 72.6201 202.548 72.2351 202.359 71.7847C202.17 71.3342 202.117 70.838 202.207 70.3578C202.297 69.8776 202.527 69.4345 202.867 69.0835L204.093 67.8575L201.335 65.0995L200.109 66.3255C199.761 66.6747 199.317 66.9122 198.834 67.0076C198.351 67.1031 197.85 67.0521 197.396 66.8613C196.941 66.6704 196.555 66.3484 196.284 65.9364C196.014 65.5243 195.873 65.0411 195.88 64.5485V62.7715H192.019V64.5485C192.016 65.0371 191.869 65.5141 191.598 65.9203C191.326 66.3265 190.941 66.6439 190.491 66.8332C190.04 67.0225 189.544 67.0753 189.064 66.985C188.584 66.8948 188.141 66.6654 187.79 66.3255L186.564 65.0995L183.806 67.8575L185.032 69.0835C185.381 69.431 185.618 69.8749 185.714 70.3582C185.809 70.8415 185.758 71.3423 185.567 71.7964C185.376 72.2506 185.054 72.6375 184.642 72.9076C184.23 73.1777 183.747 73.3187 183.255 73.3125H181.478V77.1715H183.255C183.743 77.1743 184.22 77.3207 184.626 77.5923C185.033 77.8639 185.35 78.2488 185.539 78.6993C185.729 79.1498 185.781 79.6459 185.691 80.1261C185.601 80.6064 185.371 81.0495 185.032 81.4005L183.806 82.6265L186.564 85.3845L187.79 84.1585C188.137 83.8093 188.581 83.5718 189.064 83.4763C189.548 83.3809 190.048 83.4319 190.503 83.6227C190.957 83.8136 191.344 84.1356 191.614 84.5476C191.884 84.9596 192.025 85.4429 192.019 85.9355V87.7125H195.878V85.9355C195.88 85.4469 196.027 84.9699 196.298 84.5637C196.57 84.1575 196.955 83.8401 197.405 83.6508C197.856 83.4615 198.352 83.4087 198.832 83.499C199.312 83.5892 199.756 83.8185 200.107 84.1585L201.333 85.3845L204.091 82.6265L202.865 81.4005C202.515 81.0529 202.278 80.6091 202.182 80.1258C202.087 79.6425 202.138 79.1417 202.329 78.6875C202.52 78.2333 202.842 77.8464 203.254 77.5764C203.666 77.3063 204.149 77.1653 204.642 77.1715H206.419V73.3105L204.644 73.3125ZM193.98 79.5025C193.143 79.5025 192.326 79.2545 191.63 78.7899C190.935 78.3253 190.393 77.665 190.073 76.8923C189.753 76.1197 189.669 75.2695 189.832 74.4492C189.995 73.6289 190.397 72.8754 190.988 72.2838C191.58 71.6923 192.333 71.2894 193.153 71.126C193.974 70.9626 194.824 71.0461 195.597 71.3658C196.369 71.6856 197.03 72.2273 197.495 72.9225C197.96 73.6177 198.208 74.4352 198.209 75.2715C198.207 76.3931 197.761 77.4684 196.968 78.2615C196.174 79.0546 195.099 79.5009 193.978 79.5025H193.98Z" fill="#36B54F"/>
<path d="M202.128 75.2735C202.128 73.6614 201.65 72.0855 200.754 70.745C199.859 69.4046 198.586 68.3599 197.096 67.743C195.607 67.126 193.968 66.9646 192.387 67.2791C190.806 67.5936 189.353 68.3699 188.214 69.5099C187.074 70.6498 186.297 72.1022 185.983 73.6833C185.668 75.2645 185.83 76.9034 186.447 78.3928C187.064 79.8822 188.108 81.1552 189.449 82.0508C190.789 82.9464 192.365 83.4245 193.977 83.4245C195.048 83.4249 196.108 83.2143 197.097 82.8048C198.086 82.3954 198.985 81.795 199.742 81.038C200.499 80.281 201.099 79.3823 201.509 78.3932C201.918 77.4041 202.129 76.344 202.128 75.2735ZM193.977 79.5025C193.141 79.5025 192.323 79.2545 191.628 78.7898C190.932 78.3251 190.39 77.6646 190.07 76.8919C189.75 76.1191 189.666 75.2688 189.829 74.4485C189.993 73.6281 190.395 72.8746 190.987 72.2831C191.578 71.6917 192.332 71.2889 193.152 71.1258C193.972 70.9626 194.823 71.0463 195.596 71.3664C196.368 71.6865 197.029 72.2285 197.493 72.924C197.958 73.6194 198.206 74.4371 198.206 75.2735C198.204 76.3941 197.758 77.4682 196.966 78.2608C196.174 79.0534 195.1 79.4999 193.979 79.5025H193.977Z" fill="#36B54F"/>
</svg>
