<svg width="487" height="534" viewBox="0 0 487 534" fill="none" xmlns="http://www.w3.org/2000/svg">
<path d="M49.8988 464.61C77.4571 464.61 99.7976 451.336 99.7976 434.96C99.7976 418.585 77.4571 405.31 49.8988 405.31C22.3404 405.31 0 418.585 0 434.96C0 451.336 22.3404 464.61 49.8988 464.61Z" fill="#E8E8E8"/>
<path d="M209.081 428.416C205.065 430.735 205.051 434.486 209.034 436.802L342.425 514.321C346.416 516.641 352.886 516.641 356.903 514.321L388.177 499.68C392.187 497.365 392.215 493.614 388.224 491.294L254.833 413.775C250.853 411.461 244.364 411.461 240.355 413.775L209.081 428.416Z" fill="#48B0B3"/>
<path d="M172.349 104.496L172.358 107.826C172.359 108.273 172.479 108.713 172.703 109.1C172.928 109.487 173.251 109.808 173.639 110.031C174.027 110.254 174.467 110.37 174.914 110.37C175.362 110.369 175.801 110.25 176.188 110.025L191.894 100.913C192.282 100.688 192.603 100.365 192.826 99.9768C193.049 99.5883 193.165 99.1479 193.164 98.7L193.155 95.3693C193.153 94.9221 193.034 94.483 192.809 94.0965C192.584 93.71 192.261 93.3895 191.873 93.1671C191.485 92.9446 191.046 92.8282 190.598 92.8294C190.151 92.8305 189.712 92.949 189.325 93.1734L173.619 102.285C173.232 102.51 172.911 102.832 172.688 103.22C172.465 103.608 172.348 104.048 172.349 104.496Z" fill="#FECC00"/>
<path d="M122.666 149.729L122.676 153.066C122.677 153.513 122.796 153.952 123.02 154.339C123.244 154.726 123.566 155.047 123.954 155.27C124.341 155.493 124.781 155.61 125.228 155.609C125.675 155.609 126.114 155.491 126.501 155.268L191.937 117.488C192.326 117.263 192.649 116.94 192.873 116.551C193.097 116.162 193.214 115.721 193.213 115.272L193.203 111.935C193.202 111.488 193.083 111.05 192.859 110.663C192.634 110.276 192.312 109.956 191.925 109.733C191.538 109.51 191.098 109.392 190.651 109.393C190.204 109.393 189.765 109.511 189.378 109.734L123.942 147.514C123.553 147.738 123.23 148.061 123.006 148.45C122.782 148.839 122.665 149.28 122.666 149.729Z" fill="#FECC00"/>
<g opacity="0.53">
<path opacity="0.53" d="M149.74 167.309L149.75 170.646C149.751 171.093 149.87 171.532 150.094 171.919C150.318 172.306 150.641 172.627 151.028 172.85C151.416 173.073 151.855 173.19 152.302 173.19C152.749 173.19 153.189 173.072 153.576 172.848L192.034 150.644C192.423 150.42 192.745 150.097 192.969 149.708C193.193 149.319 193.31 148.878 193.309 148.429L193.299 145.093C193.298 144.646 193.18 144.207 192.955 143.82C192.731 143.433 192.409 143.112 192.021 142.889C191.634 142.666 191.195 142.549 190.747 142.549C190.3 142.549 189.861 142.667 189.474 142.891L151.016 165.094C150.627 165.319 150.304 165.642 150.08 166.031C149.857 166.419 149.739 166.861 149.74 167.309Z" fill="#FECC00"/>
</g>
<path d="M132.861 160.449L132.871 163.786C132.872 164.233 132.991 164.672 133.216 165.058C133.44 165.445 133.762 165.766 134.149 165.989C134.537 166.212 134.976 166.329 135.423 166.329C135.87 166.329 136.309 166.211 136.696 165.988L191.986 134.066C192.374 133.841 192.697 133.518 192.921 133.129C193.145 132.74 193.262 132.298 193.26 131.849L193.252 128.513C193.25 128.066 193.132 127.627 192.907 127.24C192.683 126.853 192.361 126.533 191.973 126.31C191.586 126.087 191.147 125.969 190.7 125.969C190.253 125.97 189.813 126.087 189.426 126.311L134.137 158.233C133.748 158.457 133.425 158.78 133.201 159.17C132.977 159.559 132.86 160 132.861 160.449Z" fill="#FECC00"/>
<g opacity="0.37">
<g opacity="0.37">
<path opacity="0.37" d="M475.022 154.927C475.401 155.174 475.717 155.506 475.943 155.898C476.169 156.29 476.299 156.73 476.322 157.182L476.258 179.856C476.258 180.683 475.669 181.017 474.949 180.601L446.242 164.027C445.863 163.781 445.547 163.448 445.32 163.057C445.094 162.665 444.963 162.225 444.938 161.774L445.003 139.1C445.003 138.27 445.591 137.933 446.313 138.353L475.022 154.927Z" fill="#FECC00"/>
</g>
</g>
<g opacity="0.47">
<g opacity="0.47">
<path opacity="0.47" d="M485.565 195.268C485.945 195.514 486.261 195.847 486.488 196.239C486.714 196.63 486.845 197.07 486.869 197.522L486.805 220.196C486.805 221.023 486.216 221.358 485.496 220.942L456.788 204.368C456.408 204.122 456.093 203.789 455.866 203.398C455.639 203.006 455.509 202.566 455.484 202.115L455.549 179.441C455.549 178.611 456.138 178.274 456.859 178.694L485.565 195.268Z" fill="#48B0B3"/>
</g>
</g>
<path d="M24.624 353.867C24.624 353.867 27.9766 375.101 30.7706 386.836C30.7706 386.836 31.3292 406.392 31.8877 413.1C32.4463 419.808 34.1233 434.334 34.1233 434.334C34.7008 434.808 35.399 435.112 36.1394 435.21C36.8798 435.309 37.633 435.199 38.3144 434.893C38.3144 434.893 41.1077 393.263 41.667 386.557C42.2262 379.851 44.1811 349.676 44.1811 349.676C44.1811 349.676 37.7559 343.808 24.624 353.867Z" fill="#FFD2AA"/>
<path d="M45.5801 345.486C45.5801 345.486 48.9327 366.719 51.7268 378.454C51.7268 378.454 52.2853 398.01 52.8446 404.718C53.4038 411.426 55.0801 425.953 55.0801 425.953C55.6575 426.427 56.3555 426.73 57.0957 426.828C57.836 426.927 58.5892 426.818 59.2706 426.512C59.2706 426.512 62.0646 384.881 62.6239 378.176C63.1831 371.47 63.4623 341.574 63.4623 341.574C63.4623 341.574 58.7106 335.428 45.5801 345.486Z" fill="#FFD2AA"/>
<path d="M28.816 325.182C28.816 325.182 20.8997 333.843 25.4634 363.18C25.7426 367.371 28.5367 378.175 28.5367 378.175C28.5367 378.175 38.8745 379.85 51.1678 375.101C63.4612 370.352 63.7405 367.837 63.7405 367.837C63.7405 367.837 64.2998 331.049 61.505 321.549C58.7102 312.05 28.816 325.182 28.816 325.182Z" fill="#494849"/>
<path d="M59.4106 424.555C59.383 425.299 59.5487 426.038 59.8914 426.699C60.234 427.361 60.7422 427.922 61.3662 428.329C63.6017 430.004 67.7927 433.079 68.4912 434.894C68.4912 436.291 63.1824 434.757 60.8062 433.497C58.43 432.237 56.1958 429.306 56.1958 429.306L56.333 430.564C55.7522 430.528 55.2051 430.279 54.796 429.865C54.0975 429.167 54.9334 424.836 54.9334 424.836L59.4106 424.555Z" fill="#F7525F"/>
<path d="M38.4538 434.195C38.4262 434.939 38.5919 435.678 38.9346 436.339C39.2773 437.001 39.7854 437.562 40.4094 437.969C42.645 439.646 46.8353 442.719 47.5345 444.535C47.5345 445.932 42.2257 444.397 39.8495 443.137C37.4733 441.878 35.2391 438.947 35.2391 438.947L35.3763 440.205C34.7956 440.169 34.2487 439.92 33.84 439.506C33.1415 438.807 33.9773 434.477 33.9773 434.477L38.4538 434.195Z" fill="#F7525F"/>
<path d="M58.9437 269.657C58.9437 269.657 66.1992 270.803 70.8953 286.563C73.7086 296.984 77.79 297.926 82.5012 298.868C87.2124 299.81 107.002 298.868 108.572 298.868C110.143 298.868 112.027 302.324 109.828 304.838C107.63 307.352 80.3027 309.864 74.9629 309.864C69.6232 309.864 57.373 299.812 52.3469 291.645C47.3207 283.479 52.3475 269.029 58.9437 269.657Z" fill="#DDB717"/>
<path d="M36.6776 266.508C36.6776 266.508 21.1414 277.609 19.605 281.301C18.0687 284.993 15.8997 296.487 20.9417 302.122C29.6766 311.88 24.4171 328.648 25.5699 333.579C26.7227 338.51 38.5762 339.122 46.8033 337.531C55.0305 335.941 62.6496 331.731 62.3395 322.138C62.0293 312.544 64.5654 299.384 65.0876 295.062C65.6098 290.741 65.0416 279.885 63.036 272.609C62.6133 271.074 57.4464 269.463 57.4464 269.463C57.4464 269.463 51.9935 265.859 36.6776 266.508Z" fill="#FECC00"/>
<path opacity="0.43" d="M24.4972 304.43L44.0187 310.582L62.2021 305.501C61.9345 306.303 57.1244 321.008 46.6947 323.684C39.1976 325.605 30.344 318.976 25.9443 315.088C25.7313 312.352 25.0921 309.667 24.0498 307.128L24.4972 304.43Z" fill="url(#paint0_linear)"/>
<g opacity="0.37">
<g opacity="0.37">
<path opacity="0.37" d="M193.589 216.668C193.834 216.827 194.038 217.042 194.184 217.295C194.33 217.549 194.414 217.833 194.429 218.125L194.388 232.774C194.388 233.31 194.007 233.525 193.542 233.254L174.994 222.547C174.749 222.388 174.545 222.173 174.399 221.92C174.253 221.667 174.169 221.383 174.153 221.091L174.194 206.441C174.194 205.905 174.575 205.686 175.041 205.961L193.589 216.668Z" fill="#FECC00"/>
</g>
</g>
<g opacity="0.47">
<g opacity="0.47">
<path opacity="0.47" d="M200.401 242.731C200.647 242.89 200.85 243.105 200.997 243.358C201.143 243.611 201.227 243.896 201.242 244.188L201.201 258.837C201.201 259.372 200.821 259.588 200.355 259.318L181.807 248.609C181.562 248.45 181.358 248.235 181.212 247.982C181.066 247.729 180.981 247.445 180.966 247.153L181.008 232.504C181.008 231.968 181.388 231.749 181.854 232.023L200.401 242.731Z" fill="#48B0B3"/>
</g>
</g>
<path d="M25.3615 286.008C25.3615 286.008 14.9963 283.495 19.3919 297.63C23.7874 311.765 38.5517 322.131 43.8914 321.502C49.2312 320.872 70.9045 297.943 70.9045 295.117C70.9231 294.491 70.7972 293.869 70.5365 293.3C70.2757 292.73 69.8871 292.228 69.401 291.833C68.9149 291.438 68.3443 291.161 67.7335 291.022C67.1227 290.883 66.4881 290.887 65.879 291.034C63.3663 291.662 46.7192 309.566 45.1479 308.938C43.5765 308.31 33.8418 291.976 25.3615 286.008Z" fill="#DDB717"/>
<path d="M67.9574 296.15C67.555 296.033 67.1804 295.835 66.8563 295.569C66.5322 295.303 66.2653 294.974 66.0714 294.603C65.8776 294.231 65.7608 293.824 65.7282 293.406C65.6956 292.988 65.7477 292.568 65.8816 292.17C66.7462 289.057 72.4552 286.635 73.3204 286.462C74.1857 286.289 82.6612 288.019 83.007 289.056C83.3528 290.094 81.4501 290.614 79.3745 290.094C77.6646 289.733 75.9298 289.502 74.185 289.403C74.185 289.403 76.4335 291.825 76.2606 292.863C76.0311 293.699 75.6377 294.482 75.1032 295.165C74.5686 295.849 73.9037 296.419 73.1469 296.843C71.417 297.708 69.3413 295.805 69.3413 295.805L67.9574 296.15Z" fill="#FFD2AA"/>
<path d="M389.747 92.2124C389.85 92.2957 389.953 92.3792 390.055 92.4634C390.941 93.1903 391.812 93.9515 392.669 94.747C392.771 94.8431 392.874 94.9371 392.976 95.0332C393.843 95.8497 394.692 96.6985 395.525 97.5795C395.593 97.6536 395.666 97.7271 395.737 97.8026C396.625 98.7509 397.491 99.7319 398.336 100.746L398.364 100.78C399.227 101.82 400.064 102.889 400.874 103.989C401.616 104.994 402.326 106.028 403.018 107.077C403.447 107.726 403.852 108.394 404.261 109.057C404.604 109.606 404.954 110.155 405.281 110.716C405.436 110.981 405.582 111.253 405.733 111.52C406.268 112.466 406.791 113.419 407.283 114.386C407.336 114.49 407.392 114.592 407.444 114.699C408.039 115.875 408.599 117.063 409.124 118.263C409.15 118.324 409.176 118.386 409.202 118.447C412.473 125.968 414.376 133.844 414.356 141.13L428.108 133.138C428.126 126.681 426.612 119.764 423.996 113.038L424.018 113.025C423.823 112.526 423.623 112.027 423.416 111.531C423.267 111.17 423.111 110.813 422.955 110.454C422.928 110.394 422.903 110.333 422.876 110.272C422.848 110.211 422.818 110.134 422.787 110.066C422.568 109.569 422.342 109.074 422.111 108.581C421.856 108.037 421.595 107.495 421.326 106.956C421.283 106.872 421.239 106.791 421.197 106.708C421.145 106.603 421.088 106.502 421.035 106.395C420.817 105.966 420.599 105.536 420.372 105.11C420.086 104.576 419.78 104.051 419.48 103.524C419.33 103.258 419.186 102.989 419.032 102.725C418.971 102.621 418.916 102.514 418.854 102.409C418.585 101.952 418.287 101.513 418.008 101.062C417.596 100.4 417.197 99.7343 416.768 99.0858C416.699 98.9829 416.639 98.8738 416.571 98.7716C415.941 97.8306 415.292 96.9068 414.625 96.0001C414.178 95.3935 413.722 94.7953 413.258 94.2056C412.883 93.728 412.502 93.257 412.115 92.7927L412.087 92.7572L412.072 92.7401C411.681 92.2699 411.285 91.806 410.884 91.349C410.49 90.9007 410.091 90.4591 409.687 90.0236C409.618 89.955 409.555 89.8862 409.489 89.8176C409.424 89.7489 409.346 89.6672 409.274 89.5917C408.994 89.2953 408.715 88.9971 408.431 88.7069C408.003 88.2719 407.571 87.8447 407.135 87.4257C406.998 87.2967 406.861 87.1744 406.728 87.0468C406.626 86.9493 406.522 86.8553 406.42 86.76C406.207 86.563 405.997 86.3608 405.783 86.1673C405.331 85.7606 404.875 85.3627 404.415 84.9738C404.214 84.8037 404.009 84.6434 403.806 84.4773C403.704 84.3929 403.601 84.3091 403.499 84.226C403.347 84.1039 403.199 83.9762 403.046 83.8561C402.6 83.5039 402.15 83.1608 401.696 82.8269C401.369 82.5854 401.038 82.3549 400.708 82.1243C400.648 82.0825 400.589 82.0385 400.529 81.9967C400.468 81.9548 400.416 81.9151 400.36 81.8767C399.927 81.5803 399.493 81.2923 399.056 81.0133C398.62 80.7343 398.185 80.469 397.752 80.2169L397.45 80.041L266.148 4.22586C265.82 4.03694 265.495 3.85376 265.17 3.67673C264.749 3.448 264.329 3.2307 263.911 3.0244C263.636 2.88716 263.371 2.76767 263.101 2.64278C263.032 2.61259 262.97 2.57982 262.905 2.55031C262.826 2.51326 262.746 2.47342 262.667 2.43774C262.255 2.25247 261.845 2.07826 261.436 1.91541C261.019 1.74844 260.606 1.59257 260.194 1.44802C260.126 1.42332 260.057 1.40437 259.984 1.37967C259.912 1.35497 259.859 1.33896 259.795 1.31769C259.517 1.22437 259.238 1.12906 258.963 1.04329C258.536 0.91429 258.112 0.79759 257.692 0.692835C257.486 0.642058 257.29 0.603499 257.088 0.555467C256.999 0.535568 256.91 0.515042 256.822 0.49583C256.692 0.468383 256.56 0.434777 256.431 0.409389C255.978 0.320644 255.529 0.246388 255.085 0.18692C254.811 0.150553 254.544 0.129888 254.274 0.1045C254.179 0.0955795 254.083 0.0832339 253.989 0.075686C253.895 0.0681382 253.806 0.054053 253.715 0.0478775C253.226 0.0135691 252.745 -0.00244327 252.27 0.000301396C252.059 0.000301396 251.858 0.0215672 251.652 0.0291151C251.492 0.0352906 251.332 0.0422916 251.172 0.051898C251.012 0.0615043 250.838 0.0606064 250.676 0.0750159C250.081 0.129282 249.489 0.215174 248.903 0.332329C248.892 0.332329 248.882 0.339316 248.871 0.341375C248.742 0.367449 248.622 0.416084 248.494 0.444903C247.905 0.571543 247.324 0.732047 246.753 0.925354C246.684 0.94937 246.625 0.980058 246.559 1.00476C246.465 1.03975 246.374 1.08095 246.282 1.118C245.585 1.38651 244.91 1.70792 244.263 2.07891L230.511 10.07C231.158 9.69922 231.833 9.37782 232.529 9.10911C232.623 9.07206 232.713 9.03088 232.808 8.99519C233.441 8.76752 234.087 8.58119 234.744 8.43735C234.872 8.40853 234.99 8.36056 235.119 8.33449C235.879 8.18587 236.647 8.08921 237.42 8.04501C237.578 8.03472 237.738 8.02842 237.9 8.02156C238.68 7.99039 239.46 8.00622 240.238 8.06847C240.333 8.07601 240.429 8.08767 240.523 8.09728C241.379 8.17976 242.23 8.31022 243.072 8.48827L243.337 8.54724C244.252 8.75153 245.156 9.00353 246.045 9.30209C246.108 9.32336 246.17 9.34247 246.234 9.36374C247.192 9.69264 248.165 10.0816 249.154 10.5304C249.222 10.5606 249.286 10.5933 249.352 10.6242C250.355 11.0894 251.37 11.6111 252.398 12.2026L383.703 88.011C384.743 88.6114 385.769 89.2674 386.783 89.968C386.842 90.0098 386.901 90.0538 386.961 90.0956C387.903 90.7653 388.832 91.4709 389.747 92.2124Z" fill="#2B2B2B"/>
<path d="M428.093 131.749C428.078 131.255 428.056 130.759 428.024 130.261C427.993 129.763 427.954 129.264 427.906 128.765C427.86 128.265 427.804 127.762 427.738 127.256C427.673 126.742 427.6 126.227 427.518 125.711C427.436 125.195 427.347 124.677 427.25 124.156C427.149 123.623 427.041 123.088 426.924 122.552C426.807 122.017 426.682 121.479 426.548 120.941C426.414 120.398 426.271 119.854 426.12 119.309C425.969 118.765 425.811 118.223 425.645 117.684C425.483 117.154 425.312 116.624 425.135 116.094C424.958 115.564 424.775 115.042 424.586 114.526C424.403 114.023 424.215 113.52 424.021 113.017L410.268 121.008C410.463 121.512 410.652 122.015 410.835 122.518C411.023 123.04 411.206 123.562 411.384 124.086C411.561 124.609 411.73 125.139 411.893 125.676C412.059 126.217 412.218 126.759 412.368 127.3C412.519 127.842 412.661 128.386 412.797 128.932C412.93 129.47 413.055 130.007 413.172 130.543C413.29 131.079 413.398 131.614 413.497 132.148C413.595 132.667 413.685 133.185 413.767 133.702C413.848 134.22 413.922 134.735 413.986 135.247C414.05 135.75 414.106 136.253 414.154 136.756C414.202 137.26 414.242 137.758 414.273 138.252C414.304 138.75 414.327 139.246 414.341 139.739C414.356 140.204 414.362 140.667 414.361 141.127L413.469 456.185C413.465 457.352 413.408 458.476 413.308 459.559C413.299 459.657 413.288 459.752 413.278 459.849C413.178 460.843 413.038 461.799 412.859 462.718C412.835 462.841 412.81 462.963 412.785 463.084C412.602 463.972 412.382 464.824 412.124 465.639C412.076 465.792 412.025 465.941 411.974 466.092C411.726 466.839 411.44 467.572 411.115 468.288C411.08 468.364 411.052 468.447 411.016 468.521C410.654 469.294 410.242 470.042 409.781 470.761C409.719 470.856 409.649 470.939 409.586 471.036C409.221 471.582 408.825 472.106 408.398 472.605C408.244 472.786 408.084 472.955 407.924 473.127C407.559 473.518 407.175 473.89 406.772 474.242C406.606 474.387 406.443 474.537 406.271 474.673C405.709 475.128 405.115 475.541 404.492 475.908L418.245 467.917C418.867 467.549 419.461 467.136 420.023 466.682C420.194 466.544 420.357 466.395 420.523 466.25C420.926 465.899 421.311 465.526 421.675 465.135C421.835 464.964 421.996 464.792 422.149 464.614C422.576 464.114 422.972 463.59 423.338 463.044C423.4 462.951 423.472 462.869 423.532 462.773C423.546 462.751 423.562 462.733 423.576 462.712C424.006 462.035 424.394 461.333 424.737 460.608C424.748 460.584 424.756 460.558 424.768 460.535C424.803 460.459 424.832 460.375 424.868 460.297C425.081 459.83 425.289 459.358 425.475 458.857C425.565 458.612 425.641 458.352 425.726 458.102C425.776 457.95 425.828 457.801 425.876 457.646C425.919 457.509 425.971 457.379 426.013 457.239C426.163 456.73 426.3 456.207 426.425 455.669C426.468 455.482 426.501 455.284 426.54 455.093C426.566 454.971 426.59 454.849 426.614 454.725C426.651 454.538 426.693 454.355 426.727 454.164C426.81 453.686 426.883 453.196 426.946 452.696C426.981 452.422 427.005 452.138 427.034 451.857C427.043 451.76 427.054 451.665 427.063 451.568C427.074 451.45 427.09 451.336 427.099 451.216C427.139 450.741 427.169 450.258 427.189 449.768C427.21 449.277 427.222 448.782 427.224 448.282C427.224 448.253 427.224 448.223 427.224 448.194L428.116 133.136C428.115 132.676 428.107 132.214 428.093 131.749Z" fill="#2B2B2B"/>
<path d="M383.7 88.0259C400.68 97.8299 414.413 121.603 414.358 141.129L413.466 456.186C413.411 475.697 399.588 483.575 382.608 473.771L251.302 397.962C234.322 388.159 220.589 364.372 220.644 344.861L221.536 29.8019C221.591 10.2763 235.414 2.41356 252.395 12.2168L383.7 88.0259Z" fill="#494849"/>
<path d="M335.279 90.3633C336.361 91.0668 337.261 92.0162 337.906 93.1338C338.551 94.2513 338.923 95.5055 338.992 96.7941C338.985 99.1703 337.31 100.125 335.255 98.9384L301.395 79.3886C300.311 78.6835 299.41 77.732 298.764 76.6118C298.119 75.4916 297.748 74.2345 297.682 72.9434C297.689 70.5809 299.363 69.6274 301.419 70.8166L335.279 90.3633Z" fill="#F9FBFC"/>
<path d="M324.548 414.284C328.463 412.009 328.452 404.685 324.525 397.926C320.597 391.168 314.239 387.533 310.325 389.808C306.41 392.083 306.42 399.406 310.348 406.165C314.276 412.924 320.633 416.559 324.548 414.284Z" fill="#F9FBFC"/>
<path d="M400.877 155.981C401.774 156.564 402.521 157.352 403.056 158.279C403.591 159.206 403.9 160.246 403.956 161.315L403.209 424.568C403.204 426.529 401.816 427.319 400.11 426.334L234.894 330.947C233.997 330.363 233.25 329.576 232.715 328.649C232.18 327.722 231.872 326.682 231.815 325.613L232.562 62.3599C232.567 60.3995 233.954 59.6082 235.661 60.5935L400.877 155.981Z" fill="#F9FBFC"/>
<path d="M421.566 247.309C421.048 247.309 420.552 247.104 420.186 246.738C419.82 246.372 419.614 245.876 419.614 245.359V186.822C419.614 186.305 419.82 185.808 420.186 185.442C420.552 185.076 421.048 184.871 421.566 184.871C422.083 184.871 422.58 185.076 422.946 185.442C423.312 185.808 423.517 186.305 423.517 186.822V245.359C423.517 245.876 423.311 246.372 422.945 246.738C422.579 247.104 422.083 247.309 421.566 247.309Z" fill="#F9FBFC"/>
<path d="M421.566 320.155C421.309 320.155 421.056 320.104 420.819 320.006C420.582 319.908 420.367 319.765 420.186 319.584C420.005 319.402 419.861 319.187 419.763 318.951C419.665 318.714 419.614 318.46 419.614 318.204V259.668C419.614 259.15 419.82 258.654 420.186 258.288C420.552 257.922 421.048 257.716 421.566 257.716C422.083 257.716 422.58 257.922 422.946 258.288C423.312 258.654 423.517 259.15 423.517 259.668V318.204C423.517 318.46 423.467 318.714 423.369 318.951C423.271 319.187 423.127 319.402 422.946 319.584C422.764 319.765 422.549 319.908 422.313 320.006C422.076 320.104 421.822 320.155 421.566 320.155Z" fill="#F9FBFC"/>
<path d="M421.566 409.667C421.048 409.667 420.552 409.462 420.186 409.096C419.82 408.73 419.614 408.234 419.614 407.716V377.388C419.614 376.871 419.82 376.374 420.186 376.009C420.552 375.643 421.048 375.437 421.566 375.437C422.083 375.437 422.579 375.643 422.945 376.009C423.311 376.374 423.517 376.871 423.517 377.388V407.716C423.517 408.234 423.311 408.73 422.945 409.096C422.579 409.462 422.083 409.667 421.566 409.667Z" fill="#F9FBFC"/>
<path d="M316.341 174.41C324.793 179.29 331.643 191.073 331.724 200.819C331.724 200.898 331.724 200.978 331.724 201.058C331.369 201.199 324.628 203.887 316.057 199.109C315.957 199.054 315.857 198.997 315.757 198.94C309.055 195.07 303.566 187.397 301.61 184.434C301.111 183.679 300.855 183.249 300.841 183.227C300.871 173.433 307.808 169.48 316.341 174.41Z" fill="white"/>
<path d="M385.891 259.327C386.918 259.993 387.773 260.892 388.386 261.951C388.999 263.01 389.352 264.199 389.418 265.421L389.376 280.265C389.369 282.513 387.782 283.417 385.827 282.288L250.049 203.895C249.021 203.228 248.165 202.326 247.552 201.265C246.939 200.204 246.587 199.012 246.522 197.788L246.564 182.944C246.571 180.711 248.158 179.806 250.114 180.935L385.891 259.327Z" fill="#CFE3FF"/>
<path d="M339.548 170.999C340.333 173.574 340.896 176.212 341.23 178.885C341.417 180.413 341.511 181.951 341.509 183.49C341.509 183.948 341.494 184.397 341.475 184.84C341.475 184.909 341.47 184.977 341.466 185.046C341.444 185.466 341.415 185.877 341.378 186.281C341.37 186.36 341.363 186.438 341.355 186.516C341.315 186.921 341.267 187.32 341.21 187.712C341.129 188.243 341.064 188.62 340.991 188.99C340.895 189.47 340.808 189.839 340.716 190.201C340.7 190.262 340.685 190.324 340.669 190.386C340.577 190.738 340.477 191.081 340.369 191.415C340.349 191.477 340.329 191.538 340.309 191.598C340.197 191.941 340.079 192.27 339.952 192.593C339.79 192.996 339.659 193.299 339.521 193.595C339.324 194.014 339.174 194.304 339.019 194.588C338.989 194.642 338.959 194.697 338.928 194.751C338.771 195.028 338.608 195.299 338.439 195.561C338.411 195.604 338.383 195.644 338.356 195.686C338.175 195.961 337.991 196.223 337.796 196.476C337.601 196.729 337.394 196.979 337.186 197.214C337.157 197.248 337.128 197.283 337.098 197.314C336.898 197.537 336.69 197.751 336.48 197.956C336.44 197.996 336.4 198.034 336.358 198.072C336.144 198.273 335.926 198.468 335.701 198.652C335.666 198.681 335.633 198.708 335.595 198.735C335.37 198.916 335.14 199.089 334.904 199.251C334.611 199.453 334.361 199.607 334.108 199.755L333.965 199.838C333.718 199.975 333.466 200.105 333.21 200.228L333.05 200.302C332.786 200.422 332.518 200.536 332.244 200.638C332.017 200.719 331.873 200.761 331.732 200.807C331.642 191.063 324.797 179.287 316.348 174.409C307.815 169.482 300.879 173.434 300.851 183.226C300.863 183.247 301.098 183.638 301.554 184.331C301.352 184.052 301.15 183.774 300.952 183.49C300.571 182.936 300.312 182.552 300.057 182.164L299.919 181.953C299.649 181.537 299.383 181.118 299.122 180.695C299.067 180.606 299.012 180.515 298.956 180.425C298.691 179.991 298.429 179.554 298.175 179.112C297.9 178.635 297.657 178.196 297.42 177.756L297.282 177.502C297.046 177.062 296.815 176.62 296.589 176.175C296.548 176.094 296.508 176.013 296.467 175.931C296.253 175.505 296.043 175.076 295.839 174.644C295.564 174.065 295.358 173.607 295.153 173.146C295.111 173.051 295.07 172.957 295.029 172.862C294.83 172.405 294.637 171.945 294.45 171.483C294.212 170.884 294.044 170.448 293.88 170.01C293.853 169.937 293.826 169.865 293.798 169.792C293.629 169.331 293.466 168.868 293.31 168.405C293.279 168.313 293.249 168.219 293.217 168.131C292.903 167.184 292.617 166.235 292.36 165.285L292.284 165.003C292.162 164.542 292.048 164.083 291.941 163.624C291.922 163.541 291.904 163.46 291.884 163.378C291.785 162.94 291.692 162.504 291.605 162.068C291.484 161.454 291.404 160.993 291.331 160.534C291.315 160.435 291.299 160.336 291.283 160.237C291.212 159.777 291.147 159.319 291.091 158.862C291.022 158.278 290.98 157.847 290.943 157.421C290.937 157.342 290.929 157.265 290.923 157.188C290.888 156.74 290.86 156.296 290.841 155.853C290.837 155.759 290.835 155.664 290.831 155.57C290.815 155.114 290.804 154.662 290.806 154.213C290.806 152.785 290.908 151.359 291.111 149.946C291.39 147.898 291.97 145.903 292.83 144.024C292.992 143.681 293.162 143.348 293.341 143.026C297.463 135.627 306.173 133.908 316.239 139.719C325.272 144.934 333.188 154.942 337.655 165.707C337.95 166.415 338.234 167.127 338.498 167.84C338.879 168.888 339.229 169.941 339.548 170.999ZM316.698 171.732C321.905 174.738 326.13 172.317 326.147 166.347C326.164 160.363 321.967 153.093 316.759 150.085C311.564 147.086 307.328 149.486 307.311 155.47C307.294 161.439 311.503 168.73 316.699 171.732" fill="url(#paint1_linear)"/>
<path d="M339.548 170.999C340.333 173.574 340.896 176.212 341.23 178.885C341.417 180.413 341.511 181.951 341.509 183.49C341.509 183.948 341.494 184.397 341.475 184.84C341.475 184.909 341.47 184.977 341.466 185.046C341.444 185.466 341.415 185.877 341.378 186.281C341.37 186.36 341.363 186.438 341.355 186.516C341.315 186.921 341.267 187.32 341.21 187.712C341.129 188.243 341.064 188.62 340.991 188.99C340.895 189.47 340.808 189.839 340.716 190.201C340.7 190.262 340.685 190.324 340.669 190.386C340.577 190.738 340.477 191.081 340.369 191.415C340.349 191.477 340.329 191.538 340.309 191.598C340.197 191.941 340.079 192.27 339.952 192.593C339.79 192.996 339.659 193.299 339.521 193.595C339.324 194.014 339.174 194.304 339.019 194.588C338.989 194.642 338.959 194.697 338.928 194.751C338.771 195.028 338.608 195.299 338.439 195.561C338.411 195.604 338.383 195.644 338.356 195.686C338.175 195.961 337.991 196.223 337.796 196.476C337.601 196.729 337.394 196.979 337.186 197.214C337.157 197.248 337.128 197.283 337.098 197.314C336.898 197.537 336.69 197.751 336.48 197.956C336.44 197.996 336.4 198.034 336.358 198.072C336.144 198.273 335.926 198.468 335.701 198.652C335.666 198.681 335.633 198.708 335.595 198.735C335.37 198.916 335.14 199.089 334.904 199.251C334.611 199.453 334.361 199.607 334.108 199.755L333.965 199.838C333.718 199.975 333.466 200.105 333.21 200.228L333.05 200.302C332.786 200.422 332.518 200.536 332.244 200.638C332.017 200.719 331.873 200.761 331.732 200.807C331.642 191.063 324.797 179.287 316.348 174.409C307.815 169.482 300.879 173.434 300.851 183.226C300.863 183.247 301.098 183.638 301.554 184.331C301.352 184.052 301.15 183.774 300.952 183.49C300.571 182.936 300.312 182.552 300.057 182.164L299.919 181.953C299.649 181.537 299.383 181.118 299.122 180.695C299.067 180.606 299.012 180.515 298.956 180.425C298.691 179.991 298.429 179.554 298.175 179.112C297.9 178.635 297.657 178.196 297.42 177.756L297.282 177.502C297.046 177.062 296.815 176.62 296.589 176.175C296.548 176.094 296.508 176.013 296.467 175.931C296.253 175.505 296.043 175.076 295.839 174.644C295.564 174.065 295.358 173.607 295.153 173.146C295.111 173.051 295.07 172.957 295.029 172.862C294.83 172.405 294.637 171.945 294.45 171.483C294.212 170.884 294.044 170.448 293.88 170.01C293.853 169.937 293.826 169.865 293.798 169.792C293.629 169.331 293.466 168.868 293.31 168.405C293.279 168.313 293.249 168.219 293.217 168.131C292.903 167.184 292.617 166.235 292.36 165.285L292.284 165.003C292.162 164.542 292.048 164.083 291.941 163.624C291.922 163.541 291.904 163.46 291.884 163.378C291.785 162.94 291.692 162.504 291.605 162.068C291.484 161.454 291.404 160.993 291.331 160.534C291.315 160.435 291.299 160.336 291.283 160.237C291.212 159.777 291.147 159.319 291.091 158.862C291.022 158.278 290.98 157.847 290.943 157.421C290.937 157.342 290.929 157.265 290.923 157.188C290.888 156.74 290.86 156.296 290.841 155.853C290.837 155.759 290.835 155.664 290.831 155.57C290.815 155.114 290.804 154.662 290.806 154.213C290.806 152.785 290.908 151.359 291.111 149.946C291.39 147.898 291.97 145.903 292.83 144.024C292.992 143.681 293.162 143.348 293.341 143.026C297.463 135.627 306.173 133.908 316.239 139.719C325.272 144.934 333.188 154.942 337.655 165.707C337.95 166.415 338.234 167.127 338.498 167.84C338.879 168.888 339.229 169.941 339.548 170.999ZM316.698 171.732C321.905 174.738 326.13 172.317 326.147 166.347C326.164 160.363 321.967 153.093 316.759 150.085C311.564 147.086 307.328 149.486 307.311 155.47C307.294 161.439 311.503 168.73 316.699 171.732" fill="#F7525F"/>
<path d="M316.759 150.087C321.966 153.094 326.164 160.363 326.147 166.349C326.129 172.319 321.905 174.74 316.698 171.733C311.503 168.734 307.293 161.441 307.311 155.472C307.328 149.488 311.565 147.088 316.759 150.087Z" fill="white"/>
<path d="M385.8 291.635C386.828 292.302 387.684 293.204 388.297 294.265C388.91 295.327 389.262 296.518 389.326 297.742L389.285 312.587C389.278 314.834 387.691 315.724 385.735 314.594L249.957 236.203C248.93 235.539 248.075 234.64 247.461 233.58C246.848 232.521 246.495 231.332 246.431 230.11L246.473 215.265C246.48 213.017 248.067 212.113 250.023 213.243L385.8 291.635Z" fill="#CFE3FF"/>
<path d="M332.799 315.694C337.433 318.37 341.17 324.858 341.157 330.172L341.146 333.579C341.131 338.904 337.372 341.048 332.735 338.372L288.821 313.019C284.186 310.343 280.436 303.862 280.449 298.54L280.459 295.133C280.474 289.822 284.249 287.672 288.882 290.347L332.799 315.694Z" fill="#FECC00"/>
<path d="M50.1873 264.415C50.1621 264.582 50.164 264.751 50.1929 264.916C50.3637 266.054 50.9305 268.964 51.0362 270.182C51.1377 271.349 49.8148 273.369 46.6666 273.305C43.5185 273.241 38.1774 271.923 36.4002 268.173C36.4614 264.473 36.2863 260.774 35.876 257.097L50.1873 264.415Z" fill="#FFD2AA"/>
<path d="M58.9148 243.482C57.2295 234.476 50.0948 229.364 42.0254 231.252C42.0254 231.252 33.2788 232.128 29.3924 239.811C25.5059 247.494 31.2141 253.954 34.8687 258.027C36.4112 259.7 37.5742 260.991 38.3091 261.814C38.5754 262.123 38.8368 262.439 39.1147 262.72L39.1929 262.809L39.2025 262.802C41.2916 264.898 43.8581 266.455 46.6818 267.34C50.2004 268.388 54.362 267.789 56.6078 265.394C58.8537 262.998 60.6 252.487 58.9148 243.482Z" fill="#FFD2AA"/>
<path d="M105.963 299.333C105.963 299.333 112.813 293.501 113.196 294.546C113.578 295.591 110.856 298.482 110.856 298.482C110.856 298.482 120.025 294.97 120.131 296.162C120.238 297.354 115.293 301.087 113.985 301.97C112.677 302.853 108.007 304.12 108.007 304.12C108.007 304.12 105.443 300.684 105.963 299.333Z" fill="#FF9D6F"/>
<path d="M74.8817 247.287C73.6925 248.065 72.7034 249.113 71.9945 250.345C71.2857 251.577 70.8771 252.958 70.8018 254.378L71.0763 350.676C71.0935 356.813 75.4561 359.322 80.7705 356.255L138.134 323.136C139.323 322.357 140.312 321.31 141.021 320.078C141.73 318.846 142.139 317.465 142.214 316.046L141.94 219.746C141.922 213.61 137.56 211.1 132.246 214.167L74.8817 247.287Z" fill="#48B0B3"/>
<path d="M83.6849 282.186C83.3311 282.415 83.0366 282.725 82.8254 283.09C82.6142 283.455 82.4923 283.864 82.4697 284.285L82.4841 289.398C82.4841 290.172 83.0331 290.485 83.7062 290.096L130.479 263.092C130.834 262.862 131.128 262.551 131.34 262.186C131.551 261.82 131.672 261.41 131.695 260.988L131.68 255.874C131.68 255.105 131.131 254.793 130.457 255.182L83.6849 282.186Z" fill="white"/>
<path d="M83.7172 293.315C83.363 293.545 83.0681 293.856 82.8569 294.221C82.6457 294.587 82.5242 294.997 82.502 295.419L82.5164 300.533C82.5164 301.307 83.0653 301.614 83.7391 301.224L130.512 274.221C130.866 273.992 131.161 273.682 131.372 273.317C131.583 272.952 131.705 272.542 131.727 272.121L131.713 267.007C131.713 266.233 131.163 265.922 130.49 266.31L83.7172 293.315Z" fill="white"/>
<path d="M101.975 301.603C101.135 302.148 100.436 302.884 99.9356 303.75C99.4347 304.617 99.1459 305.59 99.0928 306.589V307.763C99.0983 309.597 100.396 310.336 101.99 309.415L117.118 300.68C117.958 300.135 118.657 299.399 119.158 298.532C119.658 297.665 119.947 296.691 120 295.691L119.997 294.518C119.991 292.688 118.693 291.948 117.094 292.871L101.975 301.603Z" fill="white"/>
<path d="M287.487 502.031C287.539 484.654 263.262 470.494 233.261 470.404C203.261 470.314 178.898 484.328 178.846 501.705C178.794 519.082 203.072 533.241 233.072 533.331C263.073 533.421 287.435 519.408 287.487 502.031Z" fill="#E8E8E8"/>
<path d="M245.583 507.63C245.583 507.63 255.367 510.182 259.196 510.182C263.026 510.182 259.196 514.011 252.815 514.437C246.434 514.862 240.479 515.288 239.202 513.586C237.925 511.884 239.485 507.063 239.485 507.063L245.583 507.63Z" fill="#48B0B3"/>
<path d="M218.356 498.696C218.356 498.696 228.141 501.249 231.97 501.249C235.799 501.249 231.97 505.078 225.588 505.504C219.207 505.929 213.252 506.354 211.975 504.652C210.698 502.951 212.258 498.13 212.258 498.13L218.356 498.696Z" fill="#48B0B3"/>
<path d="M216.227 393.052C216.227 393.052 212.682 490.331 212.115 500.54C212.115 500.54 214.951 502.809 218.355 501.674C218.355 501.674 229.841 437.861 231.543 421.413C233.244 404.966 236.08 399.291 236.08 399.291L216.227 393.052Z" fill="#494849"/>
<path d="M252.531 398.724C252.531 398.724 255.934 454.878 245.724 509.334C245.724 509.334 242.321 511.036 239.485 507.065C239.485 507.065 233.246 411.773 231.544 398.159C229.842 384.545 247.993 395.888 252.531 398.724Z" fill="#494849"/>
<path d="M237.216 441.834C237.216 441.834 231.544 425.952 226.438 417.443C221.332 408.933 222.468 396.456 222.468 396.456L241.753 398.158L237.216 441.834Z" fill="#494849"/>
<path d="M60.8722 246.763C57.2876 247.769 53.4953 247.769 49.9107 246.763C45.0451 245.56 42.3491 242.591 39.9119 243.763C38.3097 244.533 37.6709 246.684 37.4122 248.762C39.5756 258.498 38.5229 268.673 34.4122 277.76C37.0437 281.856 33.8311 286.513 35.412 289.368C39.2497 296.293 44.7672 297.509 43.9115 298.258C42.697 299.322 38.0613 297.668 35.412 296.258C34.669 295.87 33.9547 295.428 33.2746 294.938C31.0198 293.294 28.166 294.385 25.0131 291.996C21.0169 288.969 16.9082 282.561 16.5651 282.047C13.5967 277.587 17.0646 274.972 15.4144 270.262C13.4512 264.66 13.0402 254.165 14.3123 246.764C15.6675 238.873 19.1587 232.744 26.345 228.357C30.7357 225.777 35.7102 224.356 40.8011 224.226C44.9525 224.165 49.1724 226.753 52.9107 229.765C59.7936 235.311 60.7988 244.757 60.8722 246.763Z" fill="#353535"/>
<path d="M278.25 310.84C278.25 310.84 281.23 308.85 281.976 307.859C282.722 306.868 283.714 301.154 282.722 300.906C281.73 300.657 280.983 304.631 280.983 304.631C280.983 304.631 280.735 294.201 279.493 292.709C278.251 291.218 274.278 298.671 274.029 299.914C273.78 301.157 272.787 306.371 272.787 306.371C272.787 306.371 274.277 310.84 278.25 310.84Z" fill="#FFD2AA"/>
<path d="M202.342 340.785C202.342 340.785 194.555 348.591 200.019 358.029C205.482 367.467 242.737 344.12 246.711 340.643C250.684 337.166 276.765 313.821 278.253 310.84C279.741 307.859 276.515 304.879 272.542 305.376C268.568 305.872 252.672 322.762 240.254 330.708C240.253 330.71 210.626 337.452 202.342 340.785Z" fill="#F7525F"/>
<path d="M255.017 398.603C254 403.689 239.51 406.231 231.031 404.876C222.552 403.52 213.429 399.362 213.731 389.535C213.731 389.535 212.443 350.272 212.443 342.548C212.443 334.823 217.302 329.106 217.302 329.106C217.302 329.106 222.048 323.685 236.965 326.733C236.965 326.733 249.118 329.38 254.711 338.364C254.711 338.364 258.573 348.234 257.285 368.83C255.997 389.426 255.017 398.603 255.017 398.603Z" fill="#F7525F"/>
<path d="M225.316 315.835C225.316 315.835 226.603 323.345 225.316 326.777C225.102 328.493 232.611 334.287 239.262 332.785C243.124 331.927 242.91 329.996 242.91 329.996C242.91 329.996 239.691 324.632 240.12 319.483C240.549 314.334 229.821 314.765 225.316 315.835Z" fill="#FFD2AA"/>
<path d="M250.42 300.71C250.42 304.212 249.382 307.634 247.436 310.545C245.491 313.457 242.726 315.726 239.491 317.066C236.257 318.406 232.697 318.756 229.263 318.073C225.829 317.39 222.675 315.704 220.199 313.228C217.723 310.752 216.037 307.598 215.354 304.164C214.671 300.73 215.021 297.17 216.361 293.935C217.701 290.7 219.97 287.936 222.882 285.99C225.793 284.045 229.215 283.007 232.717 283.007C235.042 283.007 237.344 283.465 239.491 284.354C241.639 285.244 243.591 286.548 245.235 288.192C246.879 289.836 248.183 291.787 249.072 293.935C249.962 296.083 250.42 298.385 250.42 300.71Z" fill="#F9A88C"/>
<path d="M250.421 301.889C250.421 301.889 250.635 319.62 246.773 323.199C242.91 326.778 236.982 319.848 227.503 317.627C218.023 315.191 235.188 296.755 235.188 296.755L250.421 301.889Z" fill="#FFD2AA"/>
<path d="M243.312 285.768C243.312 285.768 249.682 287.153 251.621 296.845C250.79 301 244.974 297.676 242.759 303.215C240.544 308.755 239.158 310.416 239.158 310.416L237.774 309.861C237.774 309.861 237.774 305.43 235.835 305.43C233.897 305.43 233.343 310.692 234.451 312.909C235.283 314.359 236.54 315.518 238.051 316.232C238.051 316.232 235.282 320.94 233.898 321.495C232.514 322.049 227.528 320.94 225.589 320.109C223.65 319.278 220.05 315.401 217.281 310.97C214.513 306.539 212.02 298.786 213.681 293.524C215.342 288.263 219.22 286.878 219.22 286.878C220.811 284.874 222.917 283.342 225.313 282.446C229.188 281.06 236.388 280.504 243.312 285.768Z" fill="#353535"/>
<path d="M244.732 297.475C243.444 299.225 242.581 301.251 242.211 303.393C241.842 305.534 241.977 307.732 242.605 309.812C244.732 317.044 241.754 317.044 238.776 326.403C235.798 335.762 244.307 346.823 236.225 360.437C228.142 374.05 206.445 372.349 196.661 358.735C186.877 345.121 202.191 335.337 202.617 323.001C203.042 310.665 193.257 303.431 204.318 294.923C215.379 286.416 220.058 277.056 233.672 280.884C247.285 284.713 250.688 291.52 244.732 297.475Z" fill="#353535"/>
<path d="M288.463 327.275C288.463 327.275 286.786 320.384 287.346 319.825C287.905 319.267 290.14 322.246 290.14 322.246C290.14 322.246 291.257 315.168 292.189 314.424C293.12 313.679 296.846 317.404 297.404 319.453C297.961 321.502 295.169 329.698 294.051 329.883C292.933 330.068 289.025 330.628 288.463 327.275Z" fill="#FFD2AA"/>
<path d="M248.416 335.47C248.416 335.47 240.593 339.196 243.945 348.882C247.297 358.568 272.259 362.293 275.239 359.312C278.219 356.33 291.258 341.06 294.984 329.508C294.984 329.508 293.493 325.038 287.533 326.901C287.533 326.901 273.376 344.782 271.141 346.645C268.905 348.508 252.142 334.726 248.416 335.47Z" fill="#F7525F"/>
<path d="M204.521 294.476L203.119 290.587C203.119 278.914 214.775 271.813 226.449 271.813C238.123 271.813 248.911 278.194 250.175 289.822C250.175 289.822 255.716 291.819 250.556 293.142C245.396 294.465 229.535 295.116 229.535 295.116C229.535 299.984 221.725 303.031 210.679 303.031C199.632 303.031 193.127 309.029 190.46 305.696C189.106 304.004 192.981 300.831 195.793 298.92C199.346 297.031 204.521 294.476 204.521 294.476Z" fill="#FEC925"/>
<defs>
<linearGradient id="paint0_linear" x1="-1225.59" y1="314.228" x2="-1187.44" y2="314.228" gradientUnits="userSpaceOnUse">
<stop stop-color="#FF4F00"/>
<stop offset="1" stop-color="#FF3D9D"/>
</linearGradient>
<linearGradient id="paint1_linear" x1="294.203" y1="123.909" x2="354.806" y2="200.386" gradientUnits="userSpaceOnUse">
<stop stop-color="#9A79FF"/>
<stop offset="0.34" stop-color="#BA75E7"/>
<stop offset="0.94" stop-color="#FB6FB9"/>
</linearGradient>
</defs>
</svg>
