<svg width="567" height="504" viewBox="0 0 567 504" fill="none" xmlns="http://www.w3.org/2000/svg">
<path d="M451.522 418.897C452.688 419.682 453.659 420.741 454.355 421.988C455.05 423.234 455.452 424.634 455.526 426.071C455.526 428.723 453.687 429.789 451.497 428.463L414.966 406.649C413.797 405.862 412.825 404.8 412.129 403.549C411.433 402.299 411.033 400.896 410.962 399.456C410.962 396.817 412.801 395.757 414.991 397.077L451.522 418.897Z" fill="#CFE3FF"/>
<path d="M4.4028 180.682C3.12006 181.551 2.0531 182.719 1.28819 184.093C0.523272 185.468 0.0819474 187.009 0 188.592L0.29408 296.054C0.29408 302.901 5.01615 305.702 10.7495 302.277L72.6367 265.321C73.9194 264.453 74.9864 263.284 75.7513 261.91C76.5162 260.535 76.9575 258.994 77.0395 257.411L76.7448 149.949C76.7448 143.099 72.0234 140.301 66.2894 143.727L4.4028 180.682Z" fill="#FECC00"/>
<path d="M13.9009 219.631C13.5192 219.886 13.2014 220.231 12.9733 220.638C12.7453 221.045 12.6135 221.501 12.5886 221.971V227.677C12.5583 227.847 12.5797 228.022 12.6498 228.179C12.7199 228.335 12.8352 228.465 12.98 228.551C13.1247 228.637 13.2917 228.674 13.4577 228.657C13.6237 228.641 13.7807 228.571 13.9068 228.458L64.3637 198.321C64.7461 198.064 65.0643 197.718 65.2923 197.309C65.5204 196.901 65.6519 196.443 65.6759 195.972V190.265C65.705 190.096 65.6825 189.922 65.6118 189.766C65.5411 189.611 65.4256 189.482 65.2811 189.397C65.1366 189.312 64.9703 189.275 64.805 189.292C64.6396 189.309 64.4834 189.379 64.3578 189.491L13.9009 219.631Z" fill="white"/>
<path d="M13.9324 232.051C13.5499 232.308 13.2316 232.654 13.0036 233.063C12.7755 233.471 12.6441 233.93 12.6201 234.401V240.107C12.6201 240.969 13.2334 241.312 13.9382 240.881L64.395 210.743C64.7771 210.488 65.0952 210.144 65.3234 209.737C65.5515 209.33 65.6831 208.873 65.7073 208.403V202.697C65.7375 202.527 65.716 202.352 65.6458 202.196C65.5756 202.039 65.4601 201.909 65.3154 201.824C65.1707 201.738 65.004 201.701 64.838 201.718C64.6721 201.734 64.5152 201.804 64.3892 201.917L13.9324 232.051Z" fill="white"/>
<path d="M33.6293 241.286C32.725 241.895 31.9727 242.716 31.4335 243.683C30.8943 244.649 30.5834 245.734 30.5264 246.848V248.156C30.5264 250.205 31.9309 251.029 33.654 249.995L49.9718 240.252C50.8782 239.643 51.6325 238.82 52.1728 237.852C52.7131 236.884 53.0241 235.796 53.0805 234.68V233.374C53.0805 231.331 51.6703 230.506 49.9531 231.534L33.6293 241.286Z" fill="white"/>
<path d="M218.206 2.14543L217.71 1.86025L217.097 1.51705L216.483 1.20629L215.87 0.933567L215.257 0.68608L215.134 0.647728H215.085L214.625 0.495302L214.012 0.311408L213.399 0.164882C213.17 0.120127 212.943 0.0821373 212.718 0.0508086L212.258 0H211.295C211.054 0 210.784 0.012514 210.486 0.0380245C210.185 0.0670174 209.887 0.111962 209.591 0.172421H209.542C209.189 0.247709 208.842 0.347399 208.503 0.471045C208.066 0.641184 207.645 0.853802 207.246 1.10566L196.919 7.30923C197.632 6.88318 198.406 6.57929 199.213 6.40909H199.244C200.108 6.2333 200.992 6.18627 201.868 6.26945H201.942C202.921 6.36417 203.887 6.57697 204.818 6.90374H204.861C205.952 7.29682 207.003 7.79794 208.001 8.40014L490.154 177.36L500.481 171.156L218.206 2.14543Z" fill="#2B2B2B"/>
<path d="M522.112 201.457C522.112 201.198 522.099 200.939 522.075 200.676C522.051 200.413 522.031 200.152 522.014 199.889C521.998 199.627 521.96 199.365 521.928 199.103C521.895 198.84 521.858 198.57 521.818 198.291V198.253C521.781 197.992 521.731 197.738 521.688 197.479C521.644 197.219 521.583 196.92 521.522 196.641C521.461 196.363 521.399 196.077 521.332 195.798C521.265 195.518 521.191 195.227 521.117 194.942C521.043 194.657 520.995 194.497 520.934 194.307V194.256L520.897 194.122C520.815 193.843 520.728 193.566 520.637 193.291C520.546 193.016 520.454 192.743 520.361 192.473C520.271 192.21 520.175 191.948 520.073 191.686C519.971 191.425 519.869 191.165 519.767 190.906C519.687 190.705 519.601 190.503 519.521 190.31V190.272L519.466 190.138C519.355 189.875 519.241 189.615 519.123 189.357C519.005 189.1 518.872 188.819 518.724 188.514C518.569 188.192 518.409 187.871 518.246 187.55C518.068 187.207 517.878 186.864 517.694 186.529L517.596 186.351L517.479 186.136C517.111 185.489 516.727 184.855 516.326 184.233C516.008 183.739 515.678 183.255 515.339 182.781C515.114 182.464 514.883 182.15 514.646 181.841C514.41 181.531 514.205 181.275 514.033 181.073C513.837 180.828 513.632 180.585 513.42 180.344L512.806 179.652L512.684 179.518L512.641 179.468L512.175 178.96C511.958 178.732 511.74 178.508 511.518 178.289C511.297 178.069 511.069 177.858 510.832 177.654C510.603 177.439 510.371 177.228 510.139 177.02L509.789 176.722L509.709 176.655L509.446 176.432C509.221 176.246 508.991 176.067 508.758 175.896L508.078 175.394L507.416 174.944L506.753 174.525L506.6 174.43L496.289 180.581C497.378 181.238 498.415 181.983 499.392 182.807L499.472 182.87C500.481 183.725 501.435 184.647 502.328 185.63L502.37 185.681C504.25 187.759 505.896 190.051 507.276 192.513L507.375 192.69C508.052 193.903 508.666 195.152 509.213 196.433V196.477C509.758 197.764 510.229 199.084 510.624 200.429V200.479C511.005 201.783 511.302 203.112 511.513 204.456C511.715 205.751 511.818 207.06 511.819 208.371L511.261 412.191C511.262 413.356 511.155 414.518 510.942 415.661V415.763C510.757 416.74 510.463 417.692 510.065 418.599V418.655C509.749 419.325 509.357 419.953 508.897 420.527C508.762 420.719 508.617 420.903 508.462 421.079C507.966 421.645 507.395 422.135 506.763 422.532L517.09 416.328C517.724 415.932 518.298 415.443 518.794 414.875C518.948 414.704 519.083 414.507 519.224 414.323C519.425 414.095 519.613 413.856 519.789 413.606C520.016 413.252 520.22 412.883 520.402 412.503V412.401C520.519 412.141 520.635 411.868 520.733 411.59C520.831 411.311 520.923 411.032 521.003 410.74C521.083 410.448 521.15 410.203 521.211 409.915C521.222 409.795 521.244 409.676 521.276 409.56V409.459C521.289 409.345 521.311 409.233 521.341 409.123C521.382 408.87 521.419 408.614 521.452 408.356C521.484 408.098 521.511 407.84 521.531 407.582C521.532 407.327 521.546 407.073 521.574 406.821C521.603 406.561 521.603 406.299 521.574 406.04V405.995L522.132 202.175C522.128 201.941 522.119 201.702 522.112 201.457Z" fill="#333333"/>
<path d="M496.287 180.581C504.872 185.719 511.838 198.165 511.808 208.39L511.25 412.211C511.25 422.436 504.228 426.559 495.625 421.421L207.235 249.189C198.65 244.051 191.683 231.606 191.714 221.381L192.272 17.56C192.272 7.33429 199.288 3.21084 207.898 8.34919L496.287 180.581Z" fill="#494849"/>
<path d="M478.47 180.131C486.381 184.856 492.765 196.294 492.741 205.693L492.225 393.067C492.225 402.465 485.774 406.254 477.864 401.535L226.332 251.434C218.422 246.708 212.038 235.271 212.063 225.871L212.578 38.4975C212.578 29.0989 219.029 25.3101 226.94 30.0289L478.47 180.131Z" fill="#F9FBFC"/>
<path d="M500.832 342.981C500.555 342.981 500.282 342.925 500.026 342.816C499.771 342.706 499.539 342.546 499.344 342.344C499.148 342.142 498.993 341.902 498.888 341.637C498.782 341.373 498.727 341.09 498.728 340.804V275.469C498.728 274.892 498.949 274.338 499.344 273.93C499.738 273.522 500.273 273.293 500.831 273.293C501.389 273.293 501.924 273.522 502.318 273.93C502.713 274.338 502.934 274.892 502.934 275.469V340.804C502.934 341.09 502.88 341.373 502.774 341.637C502.669 341.901 502.513 342.141 502.318 342.343C502.123 342.545 501.891 342.706 501.635 342.815C501.38 342.924 501.107 342.98 500.83 342.98L500.832 342.981Z" fill="#F9FBFC"/>
<path d="M201.526 133.921C202.819 134.793 203.896 135.968 204.667 137.351C205.438 138.734 205.884 140.286 205.966 141.881C205.966 144.805 203.954 145.985 201.496 144.52C200.203 143.648 199.126 142.473 198.355 141.09C197.584 139.706 197.138 138.154 197.056 136.56C197.03 133.628 199.061 132.448 201.526 133.921Z" fill="white"/>
<path d="M374.47 161.576C375.244 164.203 375.798 166.895 376.126 169.62C376.311 171.179 376.403 172.748 376.402 174.319C376.402 174.789 376.402 175.245 376.371 175.695V175.905C376.351 176.328 376.323 176.751 376.286 177.174V177.415C376.243 177.827 376.2 178.233 376.145 178.632C376.065 179.169 376.004 179.558 375.93 179.939C375.838 180.427 375.752 180.801 375.66 181.176L375.611 181.366C375.521 181.724 375.423 182.075 375.316 182.419L375.254 182.603C375.144 182.952 375.027 183.288 374.905 183.617C374.782 183.947 374.617 184.341 374.482 184.639C374.287 185.063 374.138 185.362 373.984 185.654L373.893 185.818C373.738 186.102 373.576 186.377 373.408 186.643L373.328 186.77C373.15 187.049 372.967 187.316 372.777 187.576C372.586 187.835 372.378 188.089 372.163 188.331L372.078 188.432C371.886 188.657 371.681 188.868 371.464 189.067L371.342 189.188C371.129 189.395 370.913 189.592 370.693 189.778L370.588 189.86C370.367 190.046 370.14 190.221 369.907 190.386C369.619 190.588 369.374 190.748 369.123 190.9L368.982 190.983C368.736 191.122 368.491 191.256 368.234 191.386L368.074 191.462C367.81 191.582 367.546 191.703 367.277 191.805C367.008 191.906 366.909 191.931 366.774 191.976C366.688 182.036 359.937 170.023 351.603 165.049C343.269 160.074 336.345 164.053 336.321 174.044C336.321 174.044 336.567 174.464 337.014 175.174C336.82 174.888 336.616 174.603 336.401 174.317C336.027 173.752 335.788 173.36 335.518 172.966L335.383 172.751C335.117 172.328 334.856 171.905 334.598 171.482L334.433 171.209C334.169 170.765 333.913 170.321 333.66 169.871C333.407 169.42 333.152 168.938 332.912 168.488L332.777 168.227C332.544 167.78 332.315 167.329 332.09 166.876L331.968 166.629C331.755 166.206 331.551 165.768 331.354 165.316C331.084 164.726 330.883 164.256 330.68 163.787L330.557 163.495C330.361 163.026 330.171 162.556 329.987 162.085C329.754 161.451 329.588 161.033 329.423 160.582L329.343 160.36C329.176 159.89 329.014 159.419 328.858 158.945L328.766 158.66C328.456 157.696 328.174 156.727 327.922 155.755L327.848 155.469C327.73 155 327.617 154.53 327.511 154.059L327.456 153.805C327.358 153.361 327.266 152.915 327.18 152.467C327.064 151.832 326.985 151.37 326.91 150.9L326.861 150.595C326.791 150.126 326.728 149.659 326.671 149.193C326.606 148.597 326.56 148.159 326.523 147.722V147.487C326.486 147.03 326.46 146.575 326.443 146.123V144.448C326.443 142.992 326.543 141.538 326.744 140.097C327.019 138.008 327.589 135.972 328.436 134.055C328.596 133.704 328.763 133.365 328.939 133.04C333.005 125.491 341.595 123.74 351.519 129.666C360.423 134.988 368.23 145.194 372.639 156.174C372.927 156.897 373.209 157.62 373.466 158.35C373.821 159.423 374.156 160.498 374.47 161.576ZM351.94 162.325C357.073 165.388 361.242 162.921 361.255 156.832C361.268 150.742 357.134 143.314 351.995 140.244C346.857 137.174 342.693 139.61 342.68 145.738C342.668 151.866 346.813 159.262 351.94 162.325Z" fill="#F7525F"/>
<path d="M413.642 243.239C414.654 243.918 415.497 244.835 416.101 245.916C416.706 246.996 417.054 248.209 417.119 249.455L417.076 264.597C417.076 266.887 415.506 267.813 413.571 266.659L279.691 186.703C278.677 186.022 277.834 185.103 277.229 184.02C276.625 182.938 276.277 181.723 276.214 180.474L276.257 165.333C276.257 163.056 277.827 162.161 279.761 163.284L413.642 243.239Z" fill="#CFE3FF"/>
<path d="M413.557 276.175C414.571 276.856 415.414 277.775 416.018 278.857C416.623 279.94 416.971 281.155 417.034 282.404L416.991 297.545C416.991 299.835 415.421 300.717 413.486 299.594L279.597 219.656C278.584 218.978 277.74 218.061 277.136 216.981C276.532 215.9 276.183 214.687 276.12 213.441L276.163 198.299C276.163 196.009 277.733 195.082 279.668 196.237L413.557 276.175Z" fill="#CFE3FF"/>
<path d="M353.835 282.801C357.428 284.949 360.329 290.159 360.317 294.422V297.155C360.317 301.431 357.385 303.15 353.793 301.005L319.715 280.656C316.122 278.508 313.209 273.305 313.221 269.036V266.302C313.221 262.039 316.165 260.314 319.758 262.458L353.835 282.801Z" fill="#FECC00"/>
<path d="M230.293 280.862C230.293 280.862 218.741 287.745 216.961 319.251C218.439 325.062 227.312 328.132 234.132 323.533C240.951 318.934 233.862 286.209 230.293 280.862Z" fill="#48B0B3"/>
<path d="M289.016 314.868C289.016 314.868 315.477 302.676 319.065 300.608C322.654 298.541 325.29 290.947 326.627 289.336C327.964 287.725 333.985 284.047 333.74 285.657C333.494 287.268 330.404 290.256 330.404 290.256C330.404 290.256 332.63 294.164 333.071 296.695C333.513 299.226 330.183 304.306 328.405 305.664C326.627 307.021 322.402 307.504 322.402 307.504C322.402 307.504 300.835 322.455 297.259 322.683C293.684 322.911 288.598 320.856 289.016 314.868Z" fill="#FFD2AA"/>
<path d="M257.36 503.934C286.899 503.934 310.846 489.215 310.846 471.057C310.846 452.9 286.899 438.18 257.36 438.18C227.82 438.18 203.874 452.9 203.874 471.057C203.874 489.215 227.82 503.934 257.36 503.934Z" fill="#E8E8E8"/>
<path d="M235.187 463.974C235.187 463.974 234.5 469.189 235.414 471.32C236.328 473.223 239.995 474.637 242.516 472.741C245.036 470.846 249.39 466.106 249.39 466.106C249.39 466.106 256.749 462.078 257.405 459.947C258.061 457.815 255.565 455.919 253.511 456.394C251.457 456.87 245.496 460.658 242.743 460.658C239.99 460.658 236.099 461.396 235.187 463.974Z" fill="#48B0B3"/>
<path d="M227.631 353.009C227.631 353.009 234.039 462.462 234.843 465.634C235.646 468.805 243.962 470.626 245.501 465.589C246.482 462.418 248.892 361.103 248.892 361.103L227.631 353.009Z" fill="#494849"/>
<path d="M256.386 470.486C256.21 470.644 256.069 470.839 255.971 471.058C255.874 471.276 255.823 471.514 255.821 471.755C255.821 473.258 255.877 476.614 256.699 477.921C257.772 479.627 261.139 481.436 264.67 479.465C267.638 477.797 276.77 470.738 278.628 469.17C279.541 468.396 280.186 467.336 280.467 466.149C280.563 465.757 280.521 465.343 280.349 464.979C280.177 464.616 279.887 464.327 279.529 464.164C278.235 463.568 276.024 462.825 274.04 463.53C271.017 464.583 267.209 467.97 263.088 467.786C259.985 467.638 257.453 469.535 256.386 470.486Z" fill="#48B0B3"/>
<path d="M270.54 354.195C270.08 349.648 264.812 348.17 259.968 349.717C250.72 349.204 236.401 349.61 235.898 357.031C235.156 368.024 240.135 375.864 244.943 381.205C248.494 385.15 250.855 392.693 251.849 396.366C252.688 425.392 254.553 466.325 255.712 470.245C257.552 476.589 266.787 476.271 267.204 470.125C269.068 449.344 270.54 354.195 270.54 354.195Z" fill="#494849"/>
<path d="M270.563 357.612C269.478 363.225 254.005 366.035 244.954 364.538C235.903 363.041 226.159 358.448 226.484 347.595C226.484 347.595 225.11 304.233 225.11 295.701C225.11 287.17 230.298 280.858 230.298 280.858C230.298 280.858 235.361 274.871 251.296 278.24C251.296 278.24 264.271 281.164 270.247 291.084C270.247 291.084 274.367 301.982 272.994 324.704C271.621 347.426 270.563 357.612 270.563 357.612Z" fill="#48B0B3"/>
<path d="M238.853 266.202C238.853 266.202 240.227 274.492 238.853 278.286C238.626 280.188 246.641 286.577 253.743 284.921C257.864 283.975 257.637 281.838 257.637 281.838C257.637 281.838 254.202 275.913 254.657 270.23C255.111 264.546 243.637 265.015 238.853 266.202Z" fill="#FFD2AA"/>
<path d="M246.752 269.051C257.19 269.051 265.652 260.298 265.652 249.501C265.652 238.704 257.19 229.951 246.752 229.951C236.314 229.951 227.853 238.704 227.853 249.501C227.853 260.298 236.314 269.051 246.752 269.051Z" fill="#FFD2AA"/>
<path d="M265.651 250.8C265.651 250.8 265.878 270.382 261.757 274.334C257.635 278.286 251.332 270.636 241.183 268.18C231.059 265.491 249.389 245.13 249.389 245.13L265.651 250.8Z" fill="#FFD2AA"/>
<path d="M264.125 286.518C264.125 286.518 268.265 285.293 272.999 292.328C277.734 299.363 284.534 308.541 287.784 310.09C291.034 311.638 295.474 308.561 297.246 308.561C299.018 308.561 303.752 317.124 301.974 321.406C300.196 325.688 288.669 327.831 285.711 327.831C282.753 327.831 263.537 315.9 260.875 309.176C258.214 302.452 254.063 286.824 264.125 286.518Z" fill="#48B0B3"/>
<path d="M294.584 309.457C295.046 308.388 295.791 307.476 296.733 306.826C297.674 306.176 298.774 305.815 299.906 305.784C304.045 305.48 308.779 313.738 308.491 318.324C308.203 322.91 301.69 325.359 300.212 324.135C298.734 322.91 301.679 319.86 294.584 309.457Z" fill="#48B0B3"/>
<path d="M258.065 232.996C258.065 232.996 264.866 234.525 266.938 245.232C266.049 249.818 259.844 246.152 257.476 252.267C255.109 258.382 253.631 260.222 253.631 260.222L252.154 259.587C252.154 259.587 252.154 254.691 250.081 254.691C248.008 254.691 247.42 260.501 248.603 262.937C249.497 264.534 250.837 265.814 252.448 266.609C252.448 266.609 249.492 271.811 248.014 272.42C246.536 273.029 241.213 271.786 239.14 270.891C237.068 269.997 233.229 265.69 230.267 260.799C227.305 255.908 224.65 247.339 226.422 241.529C228.195 235.718 232.334 234.19 232.334 234.19C234.033 231.978 236.282 230.287 238.84 229.299C242.986 227.794 250.669 227.185 258.065 232.996Z" fill="#353535"/>
<path d="M261.316 282.339L256.41 279.485C256.41 279.485 243.796 278.261 239.239 275.203L236.872 278.667C238.061 280.695 239.7 282.4 241.654 283.641C243.608 284.883 245.82 285.623 248.106 285.802C256.188 286.62 259.936 283.354 259.936 283.354L261.316 282.339Z" fill="#CFDAE4"/>
<path d="M483.661 127.285V132.991C483.663 133.763 483.468 134.522 483.095 135.191C482.723 135.859 482.187 136.415 481.54 136.801C480.894 137.187 480.161 137.39 479.415 137.389C478.669 137.389 477.936 137.184 477.29 136.797L451.161 121.117C450.516 120.731 449.981 120.175 449.61 119.507C449.239 118.839 449.044 118.082 449.045 117.311V111.605C449.044 110.833 449.239 110.074 449.612 109.405C449.984 108.737 450.521 108.181 451.167 107.795C451.813 107.409 452.546 107.207 453.292 107.207C454.038 107.208 454.771 107.412 455.417 107.799L481.546 123.479C482.191 123.866 482.726 124.421 483.098 125.089C483.469 125.757 483.664 126.515 483.663 127.286L483.661 127.285Z" fill="#CFE3FF"/>
<path d="M566.325 205.129V210.869C566.326 211.64 566.131 212.397 565.758 213.065C565.386 213.733 564.851 214.287 564.206 214.673C563.56 215.059 562.829 215.262 562.083 215.263C561.338 215.263 560.606 215.06 559.961 214.675L451.093 149.656C450.448 149.271 449.911 148.716 449.539 148.048C449.166 147.38 448.971 146.622 448.972 145.85V140.11C448.971 139.339 449.167 138.582 449.539 137.914C449.911 137.246 450.447 136.691 451.092 136.305C451.737 135.92 452.469 135.717 453.214 135.716C453.96 135.716 454.692 135.919 455.337 136.304L564.204 201.322C564.85 201.708 565.386 202.263 565.758 202.931C566.131 203.599 566.327 204.358 566.326 205.129H566.325Z" fill="#CFE3FF"/>
<path d="M521.283 235.38V241.12C521.284 241.891 521.088 242.649 520.716 243.317C520.343 243.985 519.808 244.539 519.163 244.925C518.517 245.311 517.786 245.514 517.04 245.514C516.295 245.514 515.563 245.312 514.917 244.926L450.909 206.702C450.263 206.316 449.727 205.762 449.355 205.094C448.982 204.425 448.786 203.668 448.787 202.896V197.156C448.786 196.385 448.982 195.627 449.354 194.959C449.726 194.291 450.262 193.737 450.907 193.351C451.553 192.965 452.285 192.762 453.03 192.761C453.775 192.761 454.508 192.964 455.153 193.35L519.137 231.561C519.789 231.945 520.332 232.5 520.709 233.171C521.086 233.842 521.284 234.604 521.284 235.38H521.283Z" fill="#CFE3FF"/>
<path d="M549.363 223.576V229.317C549.364 230.088 549.168 230.845 548.796 231.513C548.424 232.181 547.888 232.735 547.243 233.121C546.598 233.507 545.866 233.71 545.12 233.71C544.375 233.711 543.643 233.508 542.997 233.122L451.013 178.189C450.367 177.804 449.831 177.249 449.458 176.581C449.086 175.913 448.89 175.155 448.891 174.384V168.645C448.89 167.874 449.086 167.116 449.458 166.449C449.83 165.781 450.366 165.226 451.011 164.841C451.656 164.455 452.388 164.252 453.134 164.251C453.879 164.251 454.611 164.454 455.256 164.84L547.241 219.772C547.887 220.157 548.423 220.712 548.795 221.38C549.168 222.049 549.364 222.807 549.363 223.578V223.576Z" fill="#CFE3FF"/>
<path d="M46.9619 86.4282V89.3781C46.9626 89.7747 47.0643 90.164 47.2568 90.507C47.4493 90.85 47.7258 91.1347 48.0584 91.3321C48.391 91.5294 48.7681 91.6326 49.1515 91.6313C49.535 91.6301 49.9112 91.5244 50.2426 91.3249L63.6849 83.2561C64.0162 83.0566 64.2908 82.7706 64.4812 82.4265C64.6717 82.0824 64.7713 81.6924 64.7699 81.2959V78.3467C64.769 77.9502 64.6671 77.5607 64.4746 77.2178C64.2821 76.8749 64.0057 76.5904 63.6732 76.393C63.3406 76.1957 62.9637 76.0926 62.5803 76.0938C62.197 76.0949 61.8207 76.2006 61.4893 76.3999L48.0476 84.4686C47.7163 84.6679 47.4415 84.9537 47.2509 85.2976C47.0603 85.6416 46.9607 86.0317 46.9619 86.4282Z" fill="#CFE3FF"/>
<path d="M4.43262 126.476V129.429C4.43413 129.825 4.53621 130.214 4.72845 130.556C4.92068 130.898 5.19633 131.181 5.52798 131.378C5.85962 131.576 6.23559 131.679 6.6181 131.679C7.00061 131.679 7.37633 131.574 7.70759 131.376L63.7199 97.928C64.0524 97.7295 64.3284 97.4437 64.52 97.0997C64.7117 96.7556 64.8121 96.3655 64.8114 95.9684V93.0147C64.8101 92.6189 64.7083 92.2305 64.5161 91.8883C64.3239 91.5461 64.0481 91.2621 63.7164 91.0649C63.3847 90.8677 63.0087 90.7642 62.6261 90.7647C62.2435 90.7651 61.8679 90.8698 61.5366 91.0679L5.52433 124.515C5.19171 124.714 4.91552 124.999 4.72385 125.344C4.53218 125.688 4.43173 126.078 4.43262 126.476Z" fill="#CFE3FF"/>
<g opacity="0.53">
<path opacity="0.53" d="M27.6074 142.046V144.999C27.6087 145.395 27.7106 145.784 27.9028 146.126C28.095 146.468 28.3708 146.752 28.7025 146.949C29.0342 147.146 29.4102 147.25 29.7927 147.249C30.1753 147.249 30.5512 147.144 30.8824 146.946L63.8005 127.282C64.133 127.084 64.4089 126.798 64.6005 126.454C64.7922 126.11 64.8927 125.72 64.8921 125.323V122.369C64.8906 121.973 64.7886 121.585 64.5964 121.243C64.4042 120.901 64.1284 120.617 63.7967 120.42C63.4651 120.223 63.0893 120.119 62.7067 120.12C62.3242 120.12 61.9485 120.224 61.6173 120.422L28.6991 140.087C28.3666 140.285 28.0905 140.571 27.8988 140.915C27.7071 141.259 27.6066 141.649 27.6074 142.046V142.046Z" fill="#CFE3FF"/>
</g>
<path d="M13.1611 135.988V138.941C13.1626 139.337 13.2647 139.725 13.457 140.067C13.6492 140.41 13.9248 140.693 14.2565 140.891C14.5881 141.088 14.9641 141.191 15.3466 141.191C15.7291 141.19 16.1048 141.086 16.4361 140.888L63.7589 112.625C64.0915 112.427 64.3674 112.141 64.5591 111.797C64.7507 111.453 64.8512 111.062 64.8505 110.665V107.711C64.849 107.316 64.747 106.927 64.5548 106.585C64.3626 106.243 64.0868 105.959 63.7551 105.762C63.4235 105.565 63.0477 105.462 62.6652 105.462C62.2826 105.462 61.9069 105.567 61.5757 105.764L14.2528 134.027C13.9203 134.226 13.6442 134.511 13.4525 134.855C13.2609 135.2 13.1604 135.59 13.1611 135.987V135.988Z" fill="#CFE3FF"/>
<path d="M249.413 213.503C261.88 213.503 271.986 203.049 271.986 190.153C271.986 177.258 261.88 166.804 249.413 166.804C236.946 166.804 226.84 177.258 226.84 190.153C226.84 203.049 236.946 213.503 249.413 213.503Z" fill="#FECC00"/>
<path d="M247.469 200.891L238.044 193.768L241.472 188.915L246.365 192.613L256.269 179.546L260.838 183.251L247.469 200.891Z" fill="white"/>
<path d="M219.978 86.7326C225.3 89.904 229.606 97.6302 229.588 103.954C229.569 110.278 225.233 112.873 219.911 109.695L132.219 57.3403C126.897 54.169 122.591 46.4427 122.609 40.0805C122.628 33.7183 126.964 31.1995 132.286 34.3742L219.978 86.7326Z" fill="#CFE3FF"/>
<path d="M552.312 363.945C555.991 366.152 559.003 371.519 558.99 375.914C558.978 380.31 555.967 382.112 552.245 379.905L491.314 343.513C487.635 341.306 484.623 335.94 484.636 331.518C484.648 327.097 487.66 325.346 491.382 327.557L552.312 363.945Z" fill="#CFE3FF"/>
<path d="M132.226 298.375C134.483 299.718 134.488 301.901 132.226 303.246L57.3626 348.252C56.1045 348.916 54.7122 349.262 53.2998 349.262C51.8875 349.262 50.4952 348.916 49.237 348.252L3.06695 320.678C0.816204 319.335 0.795436 317.157 3.06695 315.806L77.9301 270.8C79.1886 270.137 80.5808 269.792 81.9929 269.792C83.4051 269.792 84.7972 270.137 86.0557 270.8L132.226 298.375Z" fill="#48B0B3"/>
<path d="M82.9699 403.888C61.445 416.739 61.3289 437.583 82.7187 450.441C104.109 463.299 138.897 463.292 160.422 450.441C181.946 437.59 182.056 416.74 160.673 403.888C139.289 391.035 104.495 391.031 82.9699 403.888Z" fill="#E8E8E8"/>
<path d="M259.713 275.423C260.086 275.222 261.187 275.261 262.063 274.114C263.301 272.497 264.405 269.213 264.309 268.061C264.161 266.263 259.934 268.588 256.859 268.061C255.167 267.81 253.527 267.272 252.004 266.469C252.004 266.469 238.517 268.161 239.154 270.094C239.79 272.027 258.673 275.984 259.713 275.423Z" fill="#353535"/>
<path d="M68.5645 217.92C68.5645 217.92 65.4811 215.794 64.7101 214.73C63.9391 213.667 62.9117 207.554 63.9391 207.289C64.9665 207.023 65.7381 211.275 65.7381 211.275C65.7381 211.275 65.9977 200.112 67.2801 198.52C68.5626 196.927 72.6759 204.897 72.9329 206.227C73.1899 207.557 74.218 213.138 74.218 213.138C74.218 213.138 72.676 217.92 68.5645 217.92Z" fill="#FFD2AA"/>
<path d="M146.302 249.968C146.302 249.968 154.277 258.321 148.681 268.421C143.086 278.521 104.933 253.536 100.864 249.815C96.7948 246.094 70.0877 221.11 68.5619 217.92C67.036 214.731 70.342 211.542 74.4113 212.073C78.4805 212.603 94.7595 230.678 107.477 239.183C107.477 239.183 137.818 246.4 146.302 249.968Z" fill="#F7525F"/>
<path d="M141.534 426.713C141.534 426.713 142.197 431.748 141.313 433.803C140.429 435.633 136.891 437.005 134.459 435.175C132.026 433.345 127.825 428.772 127.825 428.772C127.825 428.772 120.751 424.883 120.086 422.825C119.422 420.767 121.856 418.936 123.846 419.394C125.835 419.852 131.584 423.511 134.237 423.511C136.89 423.511 140.649 424.197 141.534 426.713Z" fill="#48B0B3"/>
<path d="M148.823 319.606C148.823 319.606 142.635 425.248 141.864 428.308C141.093 431.369 133.066 433.127 131.577 428.264C130.633 425.176 128.303 327.416 128.303 327.416L148.823 319.606Z" fill="#494849"/>
<path d="M121.46 433C121.63 433.153 121.767 433.342 121.86 433.555C121.954 433.767 122.002 433.997 122.003 434.231C122.016 435.684 121.951 438.922 121.159 440.182C120.121 441.831 116.875 443.577 113.474 441.667C110.61 440.056 101.795 433.243 100.005 431.732C99.1219 430.985 98.4968 429.962 98.2237 428.817C98.1319 428.438 98.1728 428.037 98.3391 427.686C98.5054 427.336 98.7864 427.057 99.1323 426.9C100.382 426.324 102.519 425.606 104.43 426.27C107.35 427.286 111.025 430.557 115.002 430.381C117.985 430.251 120.429 432.079 121.46 433Z" fill="#48B0B3"/>
<path d="M107.413 320.746C107.86 316.356 112.939 314.929 117.616 316.424C126.542 315.926 140.361 316.321 140.846 323.487C141.563 334.094 136.757 341.665 132.116 346.816C128.689 350.622 126.408 357.901 125.449 361.451C124.637 389.469 122.842 428.978 121.721 432.76C119.917 438.852 111.033 438.578 110.631 432.645C108.834 412.597 107.413 320.746 107.413 320.746Z" fill="#494849"/>
<path d="M107.389 324.054C108.437 329.474 123.373 332.185 132.107 330.739C140.842 329.294 150.248 324.862 149.937 314.386C149.937 314.386 148.278 289.342 148.942 284.882C149.606 280.421 151.264 272.529 151.264 264.297C151.264 256.064 146.257 249.967 146.257 249.967C146.257 249.967 141.366 244.185 125.993 247.437C125.993 247.437 113.467 250.257 107.705 259.836C107.705 259.836 103.724 270.357 105.051 292.315C106.378 314.272 107.389 324.054 107.389 324.054Z" fill="#F7525F"/>
<path d="M138.164 235.822C138.164 235.822 136.837 243.827 138.164 247.487C138.385 249.316 130.646 255.492 123.791 253.891C119.812 252.976 120.032 250.917 120.032 250.917C120.032 250.917 123.349 245.199 122.907 239.71C122.465 234.221 133.52 234.679 138.164 235.822Z" fill="#FFD2AA"/>
<path d="M112.128 219.699C112.128 223.431 113.198 227.079 115.203 230.182C117.207 233.285 120.056 235.703 123.389 237.132C126.723 238.56 130.39 238.933 133.929 238.205C137.467 237.477 140.718 235.68 143.269 233.041C145.82 230.402 147.557 227.039 148.261 223.379C148.964 219.719 148.603 215.925 147.222 212.477C145.842 209.029 143.503 206.082 140.503 204.009C137.504 201.936 133.977 200.829 130.369 200.83C127.973 200.83 125.601 201.318 123.388 202.266C121.175 203.214 119.164 204.604 117.47 206.357C115.776 208.109 114.433 210.189 113.516 212.478C112.599 214.768 112.128 217.221 112.128 219.699Z" fill="#FFD2AA"/>
<path d="M112.127 220.956C112.127 220.956 111.906 239.857 115.886 243.672C119.867 247.487 125.976 240.101 135.746 237.732C145.515 235.135 127.828 215.483 127.828 215.483L112.127 220.956Z" fill="#FFD2AA"/>
<path d="M72.4813 248.885C72.4813 248.885 74.2161 241.509 73.6379 240.912C73.0596 240.314 70.7471 243.503 70.7471 243.503C70.7471 243.503 69.5913 235.928 68.6276 235.131C67.6638 234.333 63.8094 238.32 63.2318 240.514C62.6541 242.707 65.5435 251.477 66.7007 251.676C67.8578 251.876 71.9037 252.476 72.4813 248.885Z" fill="#FFD2AA"/>
<path d="M113.917 257.656C113.917 257.656 122.01 261.643 118.542 272.009C115.074 282.375 89.2492 286.362 86.1664 283.172C83.0836 279.982 69.5927 263.636 65.7383 251.277C65.7383 251.277 67.2803 246.493 73.4465 248.486C73.4465 248.486 88.0926 267.622 90.405 269.616C92.7174 271.61 110.062 256.859 113.917 257.656Z" fill="#F7525F"/>
<path d="M145.979 205.319C141.979 200.756 136.441 197.951 130.504 197.479C120.715 196.825 115.978 200.093 112.188 199.766C108.399 199.439 104.925 202.706 106.188 207.606C107.452 212.506 110.293 217.407 116.609 217.407C122.925 217.407 124.504 216.427 124.504 216.427C124.504 216.427 119.451 218.713 118.82 223.287C118.402 227.083 118.191 230.9 118.188 234.72H119.767C119.767 234.72 121.03 227.206 123.556 227.206C126.082 227.206 126.083 235.373 123.872 236.68L121.661 237.986C121.661 237.986 125.901 246.114 128.202 246.46C130.502 246.807 138.082 240.926 138.082 240.926C138.082 240.926 150.714 234.72 151.977 224.594C153.24 214.467 145.979 205.319 145.979 205.319Z" fill="#744342"/>
</svg>
