<svg width="825" height="684" viewBox="0 0 825 684" fill="none" xmlns="http://www.w3.org/2000/svg">
<g opacity="0.87">
<path d="M203.063 368.162V357.988L203.346 357.871V274.723H225.725V136.414H235.831V126.819H261.822V135.616H271.206V216.369H289.978V203.581H336.9V185.995H343.394V62.8929H352.778V48.5002H360V30.1081H366.494V47.694H372.988V63.6756H383.813V197.194H414.1V170.013H447.313V200.395H466.082V135.639H484.13V170.021H490.624V217.191H515.164V94.0421L556.312 42.873H564.254V187.583H577.971V170.796H622.002V187.583H634.997V39.6641H649.435V26.8914H679.029V40.4859H693.467V177.996H719.457V191.591H744.72V127.617L751.214 122.022H785.131L791.625 129.214V205.13H809.673V249.162H827V369.086L203.063 368.162Z" fill="#EBEBEB"/>
<path d="M554.733 339.166H554.539V339.557H554.733V339.166Z" fill="#AFB2B7"/>
<path d="M809.631 353.253V336.035H801.369V297.427H790.009V320.382H778.138V312.556H766.778V285.422H744.577V273.94H712.053V283.856H697.085V270.293H683.146V238.463H677.47L658.367 251.51V264.556H646.496V277.603H634.106V239.512H627.911V233.251H623.265V238.987H617.07V297.427H599.515V272.383H579.9V285.946H554.602V261.942H549.437V256.722H535.498V261.418H531.371V283.856H524.765V258.084C524.456 234.519 521.436 203.518 507.637 205.06C496.524 206.304 494.225 235.794 494.085 258.084V282.815H485.985V255.681H453.462V282.291H433.847V294.813H427.652V240.553H421.93V225.941H419.862V240.553H413.148V295.338H395.082V282.291H381.144V276.03H362.559V282.815H342.945V316.727H331.585V368.382H284.093V374.118L826.667 375.159V353.245L809.631 353.253Z" fill="#DCDCDC"/>
<path d="M357.162 17.5778C357.148 14.4569 356.475 11.3749 355.188 8.53818C353.9 5.70145 352.028 3.17545 349.696 1.12917C347.365 -0.917116 344.627 -2.43651 341.668 -3.32717C338.708 -4.21784 335.594 -4.45928 332.535 -4.03539C329.476 -3.6115 326.541 -2.532 323.928 -0.869187C321.315 0.793621 319.083 3.00135 317.383 5.60633C315.682 8.21132 314.551 11.1535 314.067 14.2357C313.582 17.318 313.754 20.4694 314.572 23.479C314.572 23.479 316.57 36.7134 335.387 57.4847C352.764 39.5309 356.38 23.5807 356.38 23.5807C356.912 21.6254 357.175 19.6056 357.162 17.5778ZM335.48 8.89052C337.761 8.89467 339.947 9.81405 341.558 11.4465C343.169 13.079 344.073 15.2911 344.071 17.5967C344.069 19.9022 343.161 22.1126 341.547 23.7422C339.933 25.3717 337.746 26.2871 335.464 26.2871C333.183 26.2871 330.995 25.3717 329.382 23.7422C327.768 22.1126 326.86 19.9022 326.858 17.5967C326.856 15.2911 327.76 13.079 329.371 11.4465C330.981 9.81405 333.168 8.89467 335.449 8.89052H335.48Z" fill="#FEC925"/>
<path d="M793.129 228.93C793.133 226.781 792.682 224.655 791.804 222.697C790.927 220.739 789.644 218.994 788.043 217.579C786.442 216.164 784.559 215.113 782.521 214.496C780.484 213.88 778.34 213.712 776.232 214.004C774.125 214.296 772.105 215.041 770.307 216.189C768.509 217.338 766.976 218.862 765.81 220.661C764.645 222.459 763.874 224.488 763.551 226.613C763.228 228.737 763.359 230.907 763.935 232.976C763.935 232.976 765.306 242.039 778.191 256.276C790.101 243.973 792.579 233.047 792.579 233.047C792.949 231.707 793.134 230.321 793.129 228.93ZM778.253 222.974C779.615 222.974 780.934 223.452 781.986 224.325C783.039 225.198 783.759 226.412 784.025 227.762C784.29 229.111 784.085 230.512 783.443 231.726C782.802 232.939 781.764 233.89 780.506 234.417C779.248 234.944 777.849 235.014 776.546 234.615C775.243 234.216 774.117 233.373 773.361 232.229C772.604 231.085 772.263 229.712 772.396 228.342C772.528 226.973 773.127 225.692 774.089 224.719C775.193 223.602 776.691 222.975 778.253 222.974Z" fill="#48B0B3"/>
<path d="M633.51 166.663H276.729C267.316 166.663 259.686 174.376 259.686 183.889V420.459C259.686 429.972 267.316 437.685 276.729 437.685H633.51C642.923 437.685 650.554 429.972 650.554 420.459V183.889C650.554 174.376 642.923 166.663 633.51 166.663Z" fill="#B7B7B7"/>
<path d="M422.796 437.677L435.798 485.528H513.064L495.013 437.677H422.796Z" fill="#B7B7B7"/>
<path d="M620.251 166.663H263.471C254.058 166.663 246.427 174.376 246.427 183.889V420.459C246.427 429.972 254.058 437.685 263.471 437.685H620.251C629.664 437.685 637.295 429.972 637.295 420.459V183.889C637.295 174.376 629.664 166.663 620.251 166.663Z" fill="#CFCFCF"/>
<path d="M414.086 437.677L427.088 485.528H504.354L486.303 437.677H414.086Z" fill="#CFCFCF"/>
<path d="M534.274 485.527H396.406C394.944 485.527 393.758 486.726 393.758 488.204V496.633C393.758 498.111 394.944 499.31 396.406 499.31H534.274C535.737 499.31 536.922 498.111 536.922 496.633V488.204C536.922 486.726 535.737 485.527 534.274 485.527Z" fill="#7F8084"/>
<path d="M525.56 485.527H387.692C386.23 485.527 385.044 486.726 385.044 488.204V496.633C385.044 498.111 386.23 499.31 387.692 499.31H525.56C527.023 499.31 528.209 498.111 528.209 496.633V488.204C528.209 486.726 527.023 485.527 525.56 485.527Z" fill="#CFCFCF"/>
<path d="M414.086 437.676L416.486 446.481L489.966 446.865L486.303 437.676H414.086Z" fill="#B7B7B7"/>
<path d="M604.852 188.86H279.634C271.337 188.86 264.611 195.658 264.611 204.043V405.268C264.611 413.654 271.337 420.451 279.634 420.451H604.852C613.149 420.451 619.875 413.654 619.875 405.268V204.043C619.875 195.658 613.149 188.86 604.852 188.86Z" fill="#E5E6E6"/>
<path opacity="0.18" d="M260.823 200.724V230.887C261.079 231.38 265.377 239.269 273.608 239.386C282.072 239.504 286.548 231.286 286.772 230.887V200.724H260.823Z" fill="#020202"/>
<path opacity="0.18" d="M286.748 200.724V230.887C287.004 231.38 291.301 239.269 299.533 239.386C307.997 239.504 312.472 231.286 312.697 230.887V200.724H286.748Z" fill="#020202"/>
<path opacity="0.18" d="M312.684 200.724V230.887C312.939 231.38 317.237 239.269 325.468 239.386C333.932 239.504 338.408 231.286 338.633 230.887V200.724H312.684Z" fill="#020202"/>
<path opacity="0.18" d="M338.607 200.724V230.887C338.863 231.38 343.161 239.269 351.392 239.386C359.856 239.504 364.332 231.286 364.556 230.887V200.724H338.607Z" fill="#020202"/>
<path opacity="0.18" d="M364.542 200.724V230.887C364.798 231.38 369.095 239.269 377.327 239.386C385.791 239.504 390.266 231.286 390.491 230.887V200.724H364.542Z" fill="#020202"/>
<path opacity="0.18" d="M390.468 200.724V230.887C390.723 231.38 395.021 239.269 403.253 239.386C411.716 239.504 416.192 231.286 416.417 230.887V200.724H390.468Z" fill="#020202"/>
<path opacity="0.18" d="M416.401 200.724V230.887C416.657 231.38 420.955 239.269 429.186 239.386C437.65 239.504 442.126 231.286 442.35 230.887V200.724H416.401Z" fill="#020202"/>
<path opacity="0.18" d="M442.325 200.724V230.887C442.581 231.38 446.878 239.269 455.11 239.386C463.574 239.504 468.05 231.286 468.274 230.887V200.724H442.325Z" fill="#020202"/>
<path opacity="0.18" d="M468.26 200.724V230.887C468.515 231.38 472.813 239.269 481.045 239.386C489.508 239.504 493.984 231.286 494.209 230.887V200.724H468.26Z" fill="#020202"/>
<path opacity="0.18" d="M494.193 200.724V230.887C494.449 231.38 498.747 239.269 506.978 239.386C515.442 239.504 519.918 231.286 520.142 230.887V200.724H494.193Z" fill="#020202"/>
<path opacity="0.18" d="M520.118 200.724V230.887C520.374 231.38 524.671 239.269 532.903 239.386C541.367 239.504 545.843 231.286 546.067 230.887V200.724H520.118Z" fill="#020202"/>
<path opacity="0.18" d="M546.053 200.724V230.887C546.308 231.38 550.606 239.269 558.838 239.386C567.301 239.504 571.777 231.286 572.002 230.887V200.724H546.053Z" fill="#020202"/>
<path opacity="0.18" d="M571.979 200.724V230.887C572.234 231.38 576.532 239.269 584.763 239.386C593.227 239.504 597.703 231.286 597.927 230.887V200.724H571.979Z" fill="#020202"/>
<path opacity="0.18" d="M597.912 200.724V230.887C598.168 231.38 602.465 239.269 610.697 239.386C619.161 239.504 623.637 231.286 623.861 230.887V200.724H597.912Z" fill="#020202"/>
<path opacity="0.18" d="M623.837 200.724L627.825 188.859H624.813L620.268 200.724H623.837Z" fill="#020202"/>
<path d="M267.833 188.859L257.387 200.857H283.32L292.613 188.859H267.833Z" fill="#EAB41C"/>
<path d="M292.61 188.859L283.317 200.857H309.251L318.543 188.859H292.61Z" fill="white"/>
<path d="M318.56 188.859L309.268 200.857H335.201L344.493 188.859H318.56Z" fill="#EAB41C"/>
<path d="M344.494 188.859L335.201 200.857H361.135L370.427 188.859H344.494Z" fill="white"/>
<path d="M370.417 188.859L361.125 200.857H387.082L396.374 188.859H370.417Z" fill="#EAB41C"/>
<path d="M396.374 188.859L387.082 200.857H413.015L422.308 188.859H396.374Z" fill="white"/>
<path d="M422.278 188.859L412.985 200.857H438.919L448.211 188.859H422.278Z" fill="#EAB41C"/>
<path d="M448.211 188.859L438.919 200.857H464.853L474.145 188.859H448.211Z" fill="white"/>
<path d="M474.138 188.859L464.846 200.857H490.779L500.072 188.859H474.138Z" fill="#EAB41C"/>
<path d="M500.072 188.859L490.779 200.857H516.713L526.005 188.859H500.072Z" fill="white"/>
<path d="M525.995 188.859L516.702 200.857H542.636L551.928 188.859H525.995Z" fill="#EAB41C"/>
<path d="M551.929 188.859L542.637 200.857H568.57L577.863 188.859H551.929Z" fill="white"/>
<path d="M577.856 188.859L568.563 200.857H594.497L603.789 188.859H577.856Z" fill="#EAB41C"/>
<path d="M603.789 188.859L594.497 200.857H620.431L624.798 188.859H603.789Z" fill="white"/>
<path d="M257.408 200.857V227.334C257.664 227.764 261.961 234.691 270.193 234.792C278.657 234.894 283.133 227.686 283.357 227.334V200.857H257.408Z" fill="#FEC925"/>
<path d="M283.317 200.857V227.334C283.573 227.764 287.871 234.691 296.102 234.792C304.566 234.894 309.042 227.686 309.266 227.334V200.857H283.317Z" fill="#E2E2E2"/>
<path d="M309.274 200.857V227.334C309.53 227.764 313.828 234.691 322.059 234.792C330.523 234.894 334.999 227.686 335.223 227.334V200.857H309.274Z" fill="#FEC925"/>
<path d="M335.201 200.857V227.334C335.457 227.764 339.754 234.691 347.986 234.792C356.45 234.894 360.926 227.686 361.15 227.334V200.857H335.201Z" fill="#E2E2E2"/>
<path d="M361.136 200.857V227.334C361.391 227.764 365.689 234.691 373.921 234.792C382.384 234.894 386.86 227.686 387.085 227.334V200.857H361.136Z" fill="#FEC925"/>
<path d="M387.082 200.857V227.334C387.338 227.764 391.635 234.691 399.867 234.792C408.331 234.894 412.806 227.686 413.031 227.334V200.857H387.082Z" fill="#E2E2E2"/>
<path d="M412.992 200.857V227.334C413.248 227.764 417.545 234.691 425.777 234.792C434.241 234.894 438.717 227.686 438.941 227.334V200.857H412.992Z" fill="#FEC925"/>
<path d="M438.919 200.857V227.334C439.174 227.764 443.472 234.691 451.704 234.792C460.168 234.894 464.643 227.686 464.868 227.334V200.857H438.919Z" fill="#E2E2E2"/>
<path d="M725.697 443.124C707.662 477.004 732.721 504.577 777.874 502.237C790.78 501.567 802.895 495.743 811.553 486.045C820.211 476.348 824.703 463.572 824.041 450.528C822.663 423.362 796.776 376.959 769.906 378.368C747.836 379.519 749.486 398.498 725.697 443.124Z" fill="#EBEBEB"/>
<path d="M730.901 452.648C732.164 453.478 732.907 455.356 733.65 456.616C735.491 459.624 737.516 462.513 739.714 465.265C742.652 469.095 746.032 472.558 749.78 475.58C752.103 477.443 755.433 478.796 758.043 480.62C754.767 475.243 752.754 469.28 750.764 463.206C753.621 468.426 754.992 474.163 758.36 479.18C761.241 483.453 765.128 489.354 770.03 491.945C771.083 492.007 772.353 492.015 773.584 492C769.713 488.298 766.987 482.882 765.02 477.756C763.982 477.333 763.316 476.081 762.697 475.204C760.241 471.442 758.035 467.521 756.091 463.465C752.431 456.08 750.628 447.897 750.841 439.641C751.023 447.235 752.732 454.713 755.867 461.617C758.168 466.888 761.054 471.876 764.47 476.488C764.276 475.948 764.075 475.415 763.897 474.922C761.21 467.151 760.544 458.573 760.598 450.402H760.645C762.108 457.931 762 465.437 764.462 472.809C766.785 479.853 770.526 485.653 774.529 491.648C777.541 485.183 777.99 478.468 778.238 471.197C778.509 463.292 777.983 455.701 775.489 448.148C775.489 448.148 775.528 448.086 775.551 448.148C779.067 454.887 779.423 462.517 779.315 470.007C781.289 465.312 784.03 460.858 786.044 456.123C788.514 450.308 789.141 444.697 790.737 438.702C789.784 444.282 789.49 449.385 787.383 454.762C785.213 460.437 782.498 465.884 779.276 471.025V472.974C779.183 478.452 779.276 485.606 776.713 490.888C778.414 490.094 780.057 489.179 781.63 488.149C784.727 485.879 787.12 482.671 789.172 479.43C792.812 473.701 796.142 467.151 797.272 460.42C797.272 460.373 797.35 460.42 797.342 460.42C796.769 467.104 793.756 473.811 790.287 479.665C795.929 477.602 800.998 474.199 805.066 469.743C809.135 465.286 812.084 459.907 813.665 454.057H813.712C813.867 460.248 809.941 465.609 805.922 469.906C801.779 474.335 795.816 479.297 789.861 480.769C789.786 480.79 789.705 480.79 789.629 480.769C789.273 481.356 788.909 481.927 788.553 482.49C786.33 486.002 783.385 488.989 779.919 491.248C786.973 490.067 795.406 488.024 799.711 482.483C799.719 482.472 799.73 482.465 799.742 482.463C799.754 482.461 799.767 482.464 799.777 482.471C799.787 482.478 799.794 482.489 799.797 482.502C799.799 482.514 799.796 482.527 799.789 482.537C797.535 486.067 793.966 488.016 790.156 489.534C786.973 490.771 783.457 492.665 779.973 492.868C779.47 493.393 778.672 494.144 777.743 495.177C776.024 497.103 781.8 530.114 781.8 530.114L768.845 529.833C768.845 529.833 772.918 501.274 772.717 497.948C772.516 494.621 771.168 494.035 768.195 493.502C767.706 493.431 767.229 493.291 766.778 493.087C761.892 492.531 757.225 490.736 753.211 487.867C747.24 483.657 741.03 479 737.778 472.214C737.762 472.192 737.756 472.163 737.762 472.136C737.767 472.109 737.782 472.085 737.805 472.07C737.827 472.054 737.855 472.048 737.882 472.053C737.909 472.059 737.933 472.074 737.948 472.097C742.233 477.429 747.196 482.166 752.707 486.185C755.798 488.577 759.335 490.313 763.107 491.288C764.431 491.608 765.732 491.694 766.979 491.89C764.571 490.027 762.48 486.983 761.032 485.222C760.282 484.312 759.579 483.364 758.926 482.381C752.548 479.266 746.824 474.937 742.068 469.632C739.536 466.744 737.175 463.707 734.998 460.538C733.519 458.471 732.481 454.652 730.421 453.196C730.398 452.907 730.685 452.492 730.901 452.648Z" fill="#AFB2B7"/>
<path d="M464.853 200.857V227.334C465.108 227.764 469.406 234.691 477.637 234.792C486.101 234.894 490.577 227.686 490.801 227.334V200.857H464.853Z" fill="#FEC925"/>
<path d="M490.779 200.857V227.334C491.035 227.764 495.333 234.691 503.564 234.792C512.028 234.894 516.504 227.686 516.728 227.334V200.857H490.779Z" fill="#E2E2E2"/>
<path d="M516.711 200.857V227.334C516.966 227.764 521.264 234.691 529.496 234.792C537.96 234.894 542.435 227.686 542.66 227.334V200.857H516.711Z" fill="#FEC925"/>
<path d="M542.637 200.857V227.334C542.892 227.764 547.19 234.691 555.421 234.792C563.885 234.894 568.361 227.686 568.586 227.334V200.857H542.637Z" fill="#E2E2E2"/>
<path d="M568.569 200.857V227.334C568.825 227.764 573.123 234.691 581.354 234.792C589.818 234.894 594.294 227.686 594.518 227.334V200.857H568.569Z" fill="#FEC925"/>
<path d="M594.505 200.857V227.334C594.76 227.764 599.058 234.691 607.29 234.792C615.753 234.894 620.229 227.686 620.454 227.334V200.857H594.505Z" fill="#E2E2E2"/>
<path d="M597.735 308.283H549.977V410.52H597.735V308.283Z" fill="#F5F5F5"/>
<path d="M739.456 321.689H612.39C608.362 321.689 605.096 324.99 605.096 329.061V564.284C605.096 568.356 608.362 571.657 612.39 571.657H739.456C743.484 571.657 746.75 568.356 746.75 564.284V329.061C746.75 324.99 743.484 321.689 739.456 321.689Z" fill="#B7B7B7"/>
<path d="M727.718 321.689H600.652C596.623 321.689 593.357 324.99 593.357 329.061V564.284C593.357 568.356 596.623 571.657 600.652 571.657H727.718C731.746 571.657 735.012 568.356 735.012 564.284V329.061C735.012 324.99 731.746 321.689 727.718 321.689Z" fill="#CFCFCF"/>
<path d="M716.016 339.298H611.205C607.831 339.298 605.096 342.063 605.096 345.474V545.572C605.096 548.982 607.831 551.747 611.205 551.747H716.016C719.39 551.747 722.126 548.982 722.126 545.572V345.474C722.126 342.063 719.39 339.298 716.016 339.298Z" fill="#E5E6E6"/>
<path d="M663.709 568.974C667.002 568.974 669.671 565.89 669.671 562.086C669.671 558.283 667.002 555.199 663.709 555.199C660.416 555.199 657.746 558.283 657.746 562.086C657.746 565.89 660.416 568.974 663.709 568.974Z" fill="#48B0B3"/>
<path d="M663.809 568.214C666.739 568.214 669.114 565.47 669.114 562.086C669.114 558.701 666.739 555.958 663.809 555.958C660.88 555.958 658.505 558.701 658.505 562.086C658.505 565.47 660.88 568.214 663.809 568.214Z" fill="#7F8084"/>
<path d="M663.616 333.962C664.976 333.962 666.078 332.672 666.078 331.082C666.078 329.491 664.976 328.201 663.616 328.201C662.256 328.201 661.153 329.491 661.153 331.082C661.153 332.672 662.256 333.962 663.616 333.962Z" fill="#01696C"/>
<path d="M664.655 331.082C665.015 331.082 665.306 330.553 665.306 329.9C665.306 329.247 665.015 328.718 664.655 328.718C664.296 328.718 664.005 329.247 664.005 329.9C664.005 330.553 664.296 331.082 664.655 331.082Z" fill="#7F8084"/>
<path opacity="0.18" d="M601.751 348.737V372.733C601.952 373.124 605.375 379.401 611.918 379.495C618.648 379.589 622.21 373.054 622.38 372.733V348.737H601.751Z" fill="#020202"/>
<path opacity="0.18" d="M622.382 348.737V372.733C622.583 373.124 626.006 379.401 632.549 379.495C639.279 379.589 642.841 373.054 643.011 372.733V348.737H622.382Z" fill="#020202"/>
<path opacity="0.18" d="M643.002 348.737V372.733C643.203 373.124 646.626 379.401 653.169 379.495C659.899 379.589 663.461 373.054 663.631 372.733V348.737H643.002Z" fill="#020202"/>
<path opacity="0.18" d="M663.633 348.737V372.733C663.834 373.124 667.257 379.401 673.8 379.495C680.53 379.589 684.092 373.054 684.262 372.733V348.737H663.633Z" fill="#020202"/>
<path opacity="0.18" d="M725.543 348.87H722.516L727.82 339.298H730.089L725.543 348.87Z" fill="#020202"/>
<path opacity="0.18" d="M684.254 348.737V372.733C684.455 373.124 687.878 379.401 694.421 379.495C701.151 379.589 704.713 373.054 704.883 372.733V348.737H684.254Z" fill="#020202"/>
<path opacity="0.18" d="M704.883 348.737V372.733C705.084 373.124 708.507 379.401 715.05 379.495C721.779 379.589 725.341 373.054 725.512 372.733V348.737H704.883Z" fill="#020202"/>
<path d="M607.352 339.298L599.043 348.847H619.672L627.06 339.298H607.352Z" fill="#EAB41C"/>
<path d="M627.057 339.298L619.67 348.847H640.299L647.687 339.298H627.057Z" fill="white"/>
<path d="M647.681 339.298L640.294 348.847H660.923L668.311 339.298H647.681Z" fill="#EAB41C"/>
<path d="M668.309 339.298L660.922 348.847H681.551L688.938 339.298H668.309Z" fill="white"/>
<path d="M688.932 339.298L681.545 348.847H702.174L709.561 339.298H688.932Z" fill="#EAB41C"/>
<path d="M709.558 339.298L702.171 348.847H722.8L727.818 339.298H709.558Z" fill="white"/>
<path d="M599.043 348.839V369.9C599.244 370.244 602.667 375.754 609.21 375.832C615.94 375.919 619.502 370.174 619.672 369.9V348.839H599.043Z" fill="#FEC925"/>
<path d="M619.664 348.839V369.9C619.865 370.244 623.288 375.754 629.832 375.832C636.561 375.919 640.123 370.174 640.293 369.9V348.839H619.664Z" fill="#E2E2E2"/>
<path d="M640.299 348.839V369.9C640.5 370.244 643.923 375.754 650.466 375.832C657.196 375.919 660.758 370.174 660.928 369.9V348.839H640.299Z" fill="#FEC925"/>
<path d="M660.922 348.839V369.9C661.123 370.244 664.546 375.754 671.089 375.832C677.818 375.919 681.381 370.174 681.551 369.9V348.839H660.922Z" fill="#E2E2E2"/>
<path d="M681.545 348.839V369.9C681.746 370.244 685.169 375.754 691.712 375.832C698.442 375.919 702.004 370.174 702.174 369.9V348.839H681.545Z" fill="#FEC925"/>
<path d="M702.171 348.839V369.9C702.372 370.244 705.795 375.754 712.338 375.832C719.068 375.919 722.63 370.174 722.8 369.9V348.839H702.171Z" fill="#E2E2E2"/>
<g filter="url(#filter0_d)">
<path d="M172.306 207.153H222.191C225.413 207.153 228.503 208.447 230.782 210.75C233.06 213.053 234.34 216.176 234.34 219.433V269.851C234.339 272.576 233.44 275.224 231.786 277.376C230.131 279.528 227.815 281.063 225.203 281.739V302.276L205.271 282.131H172.298C170.703 282.131 169.123 281.813 167.649 281.196C166.175 280.579 164.835 279.674 163.707 278.534C162.579 277.394 161.684 276.04 161.073 274.55C160.463 273.06 160.148 271.463 160.148 269.851V219.425C160.149 217.813 160.465 216.216 161.076 214.727C161.688 213.237 162.584 211.884 163.712 210.744C164.841 209.605 166.181 208.701 167.656 208.085C169.13 207.469 170.71 207.152 172.306 207.153Z" fill="#48B0B3"/>
</g>
<path d="M221.446 241.092C221.395 240.31 221.049 239.578 220.481 239.045C219.912 238.512 219.163 238.22 218.388 238.228H203.52C203.52 238.228 204.294 231.841 204.085 230.636C203.876 229.431 201.205 222.809 201.205 222.809C200.952 222.463 200.602 222.202 200.199 222.062C199.796 221.922 199.361 221.91 198.951 222.027C197.449 222.41 197.263 223.42 197.263 223.42L197.573 230.464C196.884 233.813 191.06 241.217 191.06 241.217L189.179 242.673V258.866L189.876 259.852C190.24 260.368 190.721 260.788 191.279 261.078C191.836 261.368 192.454 261.519 193.081 261.519H214.167C214.858 261.519 215.526 261.277 216.059 260.833C216.591 260.389 216.955 259.772 217.087 259.088C217.218 258.403 217.111 257.693 216.781 257.08C216.452 256.467 215.922 255.989 215.282 255.727H215.492C216.265 255.735 217.012 255.444 217.579 254.912C218.146 254.381 218.491 253.651 218.543 252.871C218.574 252.26 218.42 251.654 218.102 251.134C217.784 250.614 217.316 250.204 216.762 249.959H216.823C217.497 249.962 218.151 249.733 218.679 249.311C219.207 248.89 219.577 248.299 219.73 247.637C219.883 246.974 219.809 246.279 219.52 245.664C219.231 245.05 218.745 244.553 218.14 244.254H218.45C218.855 244.258 219.258 244.177 219.632 244.018C220.006 243.859 220.343 243.624 220.624 243.328C220.905 243.031 221.123 242.68 221.264 242.296C221.406 241.911 221.468 241.502 221.446 241.092Z" fill="white"/>
<path d="M183.858 237.665H174.132C173.436 237.665 172.768 237.944 172.276 238.442C171.783 238.939 171.507 239.614 171.507 240.318V260.041C171.507 260.744 171.783 261.419 172.276 261.917C172.768 262.414 173.436 262.694 174.132 262.694H183.866C184.562 262.694 185.23 262.414 185.722 261.917C186.214 261.419 186.491 260.744 186.491 260.041V240.318C186.491 239.969 186.423 239.623 186.29 239.301C186.158 238.979 185.964 238.686 185.719 238.439C185.475 238.193 185.184 237.997 184.865 237.865C184.546 237.732 184.203 237.664 183.858 237.665ZM182.131 260.424C181.803 260.424 181.483 260.326 181.211 260.142C180.938 259.958 180.726 259.696 180.6 259.39C180.475 259.084 180.442 258.747 180.506 258.423C180.57 258.098 180.728 257.799 180.959 257.565C181.191 257.331 181.486 257.171 181.808 257.107C182.129 257.042 182.462 257.075 182.765 257.202C183.068 257.329 183.327 257.543 183.509 257.819C183.691 258.094 183.788 258.418 183.788 258.749C183.788 259.193 183.614 259.619 183.303 259.934C182.992 260.248 182.571 260.424 182.131 260.424Z" fill="white"/>
<path d="M412.676 249.515H377.574V290.893H412.676V249.515Z" fill="#494849"/>
<path d="M456.677 249.515H421.575V290.893H456.677V249.515Z" fill="#494849"/>
<path d="M427.746 252.747L428.326 253.936L429.628 254.132L428.683 255.056L428.907 256.363L427.746 255.752L426.584 256.363L426.801 255.056L425.864 254.132L427.165 253.936L427.746 252.747Z" fill="#FEC925"/>
<path d="M433.437 252.747L434.018 253.936L435.319 254.132L434.374 255.056L434.599 256.363L433.437 255.752L432.268 256.363L432.492 255.056L431.548 254.132L432.856 253.936L433.437 252.747Z" fill="#FEC925"/>
<path d="M439.128 252.747L439.708 253.936L441.009 254.132L440.065 255.056L440.289 256.363L439.128 255.752L437.958 256.363L438.183 255.056L437.238 254.132L438.547 253.936L439.128 252.747Z" fill="#FEC925"/>
<path d="M444.82 252.747L445.401 253.936L446.702 254.132L445.757 255.056L445.982 256.363L444.82 255.752L443.651 256.363L443.876 255.056L442.931 254.132L444.232 253.936L444.82 252.747Z" fill="#FEC925"/>
<path d="M450.505 252.747L451.093 253.936L452.394 254.132L451.449 255.056L451.674 256.363L450.505 255.752L449.343 256.363L449.568 255.056L448.623 254.132L449.924 253.936L450.505 252.747Z" fill="#FEC925"/>
<path d="M500.673 249.515H465.571V290.893H500.673V249.515Z" fill="#494849"/>
<path d="M471.745 252.747L472.326 253.936L473.627 254.132L472.682 255.056L472.907 256.363L471.745 255.752L470.576 256.363L470.8 255.056L469.855 254.132L471.157 253.936L471.745 252.747Z" fill="#FEC925"/>
<path d="M477.427 252.747L478.008 253.936L479.316 254.132L478.371 255.056L478.596 256.363L477.427 255.752L476.265 256.363L476.49 255.056L475.545 254.132L476.846 253.936L477.427 252.747Z" fill="#FEC925"/>
<path d="M483.12 252.747L483.708 253.936L485.01 254.132L484.065 255.056L484.289 256.363L483.12 255.752L481.959 256.363L482.183 255.056L481.238 254.132L482.539 253.936L483.12 252.747Z" fill="#FEC925"/>
<path d="M488.811 252.747L489.4 253.936L490.693 254.132L489.756 255.056L489.981 256.363L488.811 255.752L487.65 256.363L487.874 255.056L486.93 254.132L488.23 253.936L488.811 252.747Z" fill="#F4EED8"/>
<path d="M494.503 252.747L495.083 253.936L496.384 254.132L495.447 255.056L495.672 256.363L494.503 255.752L493.341 256.363L493.566 255.056L492.621 254.132L493.922 253.936L494.503 252.747Z" fill="#F4EED8"/>
<path d="M383.745 252.747L384.326 253.936L385.627 254.132L384.69 255.056L384.907 256.363L383.745 255.752L382.584 256.363L382.8 255.056L381.863 254.132L383.164 253.936L383.745 252.747Z" fill="#FEC925"/>
<path d="M389.438 252.747L390.018 253.936L391.319 254.132L390.374 255.056L390.599 256.363L389.438 255.752L388.276 256.363L388.493 255.056L387.556 254.132L388.857 253.936L389.438 252.747Z" fill="#F4EED8"/>
<path d="M395.129 252.747L395.709 253.936L397.01 254.132L396.066 255.056L396.29 256.363L395.129 255.752L393.967 256.363L394.184 255.056L393.247 254.132L394.548 253.936L395.129 252.747Z" fill="#F4EED8"/>
<path d="M400.819 252.747L401.4 253.936L402.701 254.132L401.756 255.056L401.981 256.363L400.819 255.752L399.65 256.363L399.874 255.056L398.938 254.132L400.238 253.936L400.819 252.747Z" fill="#F4EED8"/>
<path d="M406.511 252.747L407.092 253.936L408.393 254.132L407.448 255.056L407.673 256.363L406.511 255.752L405.342 256.363L405.567 255.056L404.622 254.132L405.931 253.936L406.511 252.747Z" fill="#F4EED8"/>
<path d="M363.752 308.283H284.65V314.255H363.752V308.283Z" fill="#494849"/>
<path d="M363.752 321.964H284.65V332.6H363.752V321.964Z" fill="#F5F5F5"/>
<path d="M363.752 341.036H284.65V410.519H363.752V341.036Z" fill="#F5F5F5"/>
<path d="M537.07 308.283H501.968V314.951H537.07V308.283Z" fill="#B7B7B7"/>
<path d="M492.296 327.473H377.295V413.65H492.296V327.473Z" fill="#F5F5F5"/>
<path d="M605.19 393.912H532.865C531.004 393.912 529.496 395.436 529.496 397.317V442.272C529.496 444.152 531.004 445.676 532.865 445.676H605.19C607.051 445.676 608.559 444.152 608.559 442.272V397.317C608.559 395.436 607.051 393.912 605.19 393.912Z" fill="#EAB41C"/>
<path d="M505.134 446.849C508.812 446.004 519.847 444.807 528.605 446.615L529.496 451.639C521.388 454.175 515.619 456.969 502.989 455.388C495.726 454.48 497.615 448.579 505.134 446.849Z" fill="#02979D"/>
<path d="M608.829 417.907V425.146C608.822 425.602 608.67 426.044 608.396 426.406C608.122 426.769 607.74 427.032 607.306 427.159C606.872 427.285 606.41 427.267 605.987 427.108C605.564 426.948 605.203 426.656 604.957 426.273C604.863 426.12 604.782 425.957 604.717 425.788C603.873 423.518 601.264 422.736 600.846 423.323C600.427 423.91 603.556 427.126 603.022 429.584C602.874 430.257 601.992 432.902 601.008 433.888C600.714 434.186 599.281 434.366 598.321 435.407C597.994 435.78 597.792 436.249 597.746 436.746C597.7 437.243 597.812 437.741 598.066 438.169C598.368 438.723 598.87 439.138 599.467 439.328C600.064 439.517 600.71 439.467 601.271 439.187C603.215 438.216 608.148 435.274 608.884 434.413C610.068 433.067 611.741 428.574 611.772 426.868C611.725 425.718 608.829 417.907 608.829 417.907Z" fill="#FFD2AA"/>
<path d="M535.521 585.979V593.344C535.527 594.841 535.327 596.332 534.925 597.773L534.29 600.043C534.169 600.477 534.149 600.933 534.232 601.375C534.315 601.818 534.498 602.235 534.768 602.594C535.037 602.953 535.385 603.243 535.785 603.443C536.184 603.643 536.624 603.746 537.07 603.745C538.162 603.745 545.658 601.397 546.656 601.022C549.227 600.028 549.421 599.339 548.863 598.728C547.671 597.413 542.072 598.11 541.29 597.836C538.75 596.967 539.517 589.955 539.951 586.214C539.987 585.883 539.951 585.548 539.844 585.233C539.737 584.919 539.563 584.631 539.333 584.393C539.104 584.154 538.825 583.97 538.517 583.853C538.208 583.736 537.878 583.69 537.55 583.717C536.993 583.768 536.475 584.029 536.099 584.448C535.723 584.867 535.517 585.414 535.521 585.979Z" fill="#FFD2AA"/>
<path d="M550.683 585.979V593.344C550.689 594.841 550.489 596.332 550.087 597.773L549.452 600.043C549.331 600.477 549.311 600.933 549.394 601.375C549.477 601.818 549.66 602.235 549.93 602.594C550.199 602.953 550.547 603.243 550.947 603.443C551.346 603.643 551.786 603.746 552.232 603.745C553.324 603.745 560.82 601.397 561.819 601.022C564.389 600.028 564.583 599.339 564.025 598.728C562.833 597.413 557.234 598.11 556.452 597.836C553.912 596.967 554.679 589.955 555.113 586.214C555.149 585.883 555.113 585.548 555.006 585.233C554.899 584.919 554.725 584.631 554.496 584.393C554.266 584.154 553.987 583.97 553.679 583.853C553.37 583.736 553.04 583.69 552.712 583.717C552.155 583.768 551.637 584.029 551.261 584.448C550.885 584.867 550.679 585.414 550.683 585.979Z" fill="#FFD2AA"/>
<path d="M548.926 598.729C547.733 597.414 542.135 598.111 541.353 597.837C540.317 598.604 539.059 599.003 537.775 598.971C536.762 598.981 535.763 598.731 534.871 598.244L534.368 600.044C534.247 600.477 534.227 600.933 534.31 601.376C534.393 601.818 534.576 602.236 534.846 602.594C535.115 602.953 535.463 603.244 535.863 603.444C536.262 603.643 536.702 603.747 537.148 603.746C538.24 603.746 545.736 601.398 546.735 601.022C549.251 600.028 549.445 599.339 548.926 598.729Z" fill="#494849"/>
<path d="M564.049 598.729C562.857 597.414 557.258 598.111 556.476 597.837C556.151 597.719 555.868 597.507 555.663 597.226C554.657 597.925 553.46 598.286 552.24 598.26C551.505 598.258 550.776 598.126 550.087 597.868L549.483 600.036C549.362 600.47 549.342 600.925 549.425 601.368C549.508 601.811 549.692 602.228 549.961 602.587C550.23 602.946 550.579 603.236 550.978 603.436C551.378 603.636 551.818 603.739 552.263 603.738C553.355 603.738 560.851 601.39 561.85 601.014C564.413 600.028 564.599 599.339 564.049 598.729Z" fill="#494849"/>
<path d="M535.148 478.319C539.693 478.703 551.681 479.102 556.125 478.883C557.909 478.807 559.689 479.103 561.354 479.752C563.02 480.402 564.535 481.391 565.805 482.659C567.076 483.926 568.075 485.444 568.739 487.118C569.404 488.793 569.721 490.588 569.669 492.391C569.375 502.206 568.159 517.107 564.396 536.955C560.95 555.12 554.91 590.37 554.91 590.37C553.129 591.153 551.998 591.051 550.155 590.581C550.155 590.581 549.737 575.257 549.381 558.767C549.063 542.95 548.978 526.053 547.979 520.519C547.421 517.444 546.701 513.006 545.95 508.177C545.362 512.99 544.758 517.412 544.208 520.48C543.209 526.013 541.575 542.95 541.25 558.767C540.917 575.257 539.949 590.558 539.949 590.558C538.106 591.02 536.851 591.341 535.109 590.558C535.109 590.558 529.688 555.096 526.25 536.923C523.42 522.42 521.447 507.758 520.342 493.017C520.208 491.029 520.502 489.036 521.203 487.173C521.903 485.311 522.994 483.624 524.401 482.227C525.807 480.831 527.496 479.759 529.351 479.084C531.206 478.41 533.184 478.149 535.148 478.319Z" fill="#7F8084"/>
<path d="M523.875 411.951C524.859 410.713 526.281 409.911 527.84 409.712C528.165 408.742 528.343 408.202 528.343 408.202L545.952 406.801L554.919 406.269C555.768 405.899 556.693 405.746 557.614 405.823C558.604 405.932 559.551 406.295 560.364 406.877C561.177 407.459 561.829 408.241 562.26 409.149C564.498 413.618 574.456 429.498 578.522 441.754C588.364 437.34 590.912 436.698 599.716 433.927C600.808 435.634 600.893 436.604 602.814 438.623C596.108 444.884 579.738 455.427 577.957 456.084C577.662 456.194 577.376 456.28 577.097 456.358C576.738 456.516 576.364 456.639 575.982 456.726C575.655 456.778 575.32 456.737 575.014 456.608C574.216 456.584 573.445 456.31 572.807 455.826C575.502 469.295 575.541 481.872 568.935 488.086C566.612 490.301 558.985 489.651 552.573 489.738C548.182 489.628 522.636 491.045 517.572 486.607C510.85 480.753 514.652 458.009 519.5 438.522C511.919 447.663 503.525 456.522 500.629 455.137C487.828 449.118 518.849 418.157 523.875 411.951Z" fill="#48B0B3"/>
<path d="M557.575 389.356C557.125 384.989 555.972 379.792 552.092 377.812C550.933 377.292 549.655 377.108 548.398 377.28C547.941 376.377 547.29 375.588 546.493 374.971C543.094 372.756 532.625 370.745 531.378 384.175C531.262 385.435 531.378 386.476 531.285 387.673C531.254 388.08 531.231 388.472 531.215 388.847C531.138 390.773 530.549 392.941 528.853 393.833C505.375 406.206 512.824 422.329 521.884 429.349C542.598 445.362 561.052 423.221 557.575 389.356Z" fill="#494849"/>
<path d="M531.559 382.782V379.996C531.559 376.652 532.873 373.445 535.213 371.081C537.552 368.716 540.725 367.388 544.034 367.388C547.342 367.388 550.515 368.716 552.855 371.081C555.194 373.445 556.509 376.652 556.509 379.996V382.782H547.379C547.379 385.686 542.09 388.034 535.57 388.034C529.05 388.034 522.894 388.237 522.894 385.334C522.894 382.43 525.039 382.782 531.559 382.782Z" fill="#FEC925"/>
<path d="M50.6514 437.849L56.2266 442.78L48.2818 444.862L48.0107 438.906L50.6514 437.849Z" fill="#5F57A5"/>
<path d="M50.6514 437.849L56.2266 442.78L48.2818 444.862L48.0107 438.906L50.6514 437.849Z" fill="#5F57A5"/>
<path d="M56.6996 410.386C61.733 423.245 55.9253 437.614 49.8852 440.032C43.3806 442.631 29.8756 435.978 24.85 423.127C19.8244 410.276 23.6575 399.006 32.4543 395.484C41.2511 391.962 51.6663 397.543 56.6996 410.386Z" fill="#F7525F"/>
<path opacity="0.5" d="M41.2667 394.882C44.3943 398.497 46.4878 402.904 47.3222 407.631C49.8854 420.647 41.3132 433.459 34.3594 435.697C39.8651 439.916 46.0755 441.567 49.8854 440.048C55.9332 437.63 61.7331 423.261 56.6998 410.402C53.3313 401.707 47.4306 396.354 41.2667 394.882Z" fill="#F7525F"/>
<path d="M26.2666 454.731L92.9317 560.004" stroke="#F2EAFF" stroke-width="0.81" stroke-miterlimit="10" stroke-linecap="round"/>
<path d="M82.3935 439.165L85.9247 445.363L78.1035 444.768L79.6757 439.29L82.3935 439.165Z" fill="#FECC00"/>
<path d="M82.3935 439.165L85.9247 445.363L78.1035 444.768L79.6757 439.29L82.3935 439.165Z" fill="#FECC00"/>
<path d="M96.2536 416.225C96.8731 429.428 87.2245 440.62 81.0219 440.917C74.3391 441.238 64.1639 431.001 63.5444 417.798C62.925 404.595 69.84 395.602 78.8769 395.164C87.9137 394.726 95.6341 403.021 96.2536 416.225Z" fill="#FECC00"/>
<path d="M87.0403 397.355C88.7546 401.607 89.29 406.25 88.589 410.785C86.9241 423.363 75.2621 432.253 68.2773 432.128C71.9711 437.661 77.0819 441.105 80.9924 440.917C87.1873 440.62 96.8437 429.428 96.2242 416.225C95.837 407.256 92.1666 400.619 87.0403 397.355Z" fill="#FECC00"/>
<path d="M66.7516 455.256L72.0946 459.192L65.1873 461.689L64.4746 456.406L66.7516 455.256Z" fill="#5F57A5"/>
<path d="M66.7516 455.256L72.0946 459.192L65.1873 461.689L64.4746 456.406L66.7516 455.256Z" fill="#5F57A5"/>
<path d="M69.9731 430.336C75.4634 441.371 71.4289 454.598 66.2329 457.274C60.6497 460.115 48.105 455.271 42.6148 444.235C37.1245 433.2 39.6567 422.854 47.2068 419.019C54.7569 415.184 64.4829 419.293 69.9731 430.336Z" fill="#48B0B3"/>
<path d="M94.8147 521.287L99.6158 525.889L92.453 527.462L92.4141 522.132L94.8147 521.287Z" fill="#02979D"/>
<path d="M94.8147 521.287L99.6158 525.889L92.453 527.462L92.4141 522.132L94.8147 521.287Z" fill="#02979D"/>
<path d="M101.173 496.994C105.215 508.655 99.5311 521.255 94.0485 523.22C88.1479 525.309 76.3233 518.884 72.2811 507.223C68.2389 495.561 72.0565 485.638 80.0248 482.812C87.993 479.987 97.1305 485.332 101.173 496.994Z" fill="#48B0B3"/>
<path opacity="0.5" d="M87.9305 482.577C90.5958 485.918 92.3093 489.931 92.8865 494.183C94.714 505.923 86.6218 517.013 80.334 518.782C85.1041 522.742 90.5943 524.448 94.048 523.219C99.5305 521.278 105.214 508.647 101.172 496.993C98.4387 489.104 93.382 484.111 87.9305 482.577Z" fill="#48B0B3"/>
<path d="M113.772 456.899L118.628 462.55L110.474 463.52L111.008 457.58L113.772 456.899Z" fill="#5F57A5"/>
<path d="M113.772 456.899L118.628 462.55L110.474 463.52L111.008 457.58L113.772 456.899Z" fill="#5F57A5"/>
<path d="M123.466 430.539C126.718 443.969 119.029 457.407 112.71 458.965C105.919 460.647 93.4363 452.195 90.184 438.765C86.9317 425.334 92.2515 414.698 101.443 412.429C110.635 410.159 120.214 417.117 123.466 430.539Z" fill="#F7525F"/>
<path opacity="0.5" d="M110.262 413.039C112.861 417.056 114.328 421.712 114.505 426.508C115.28 439.759 105.074 451.248 97.8799 452.523C102.766 457.462 108.721 459.959 112.678 458.972C118.997 457.407 126.678 443.969 123.434 430.547C121.266 421.46 116.17 415.348 110.262 413.039Z" fill="#F7525F"/>
<path d="M89.5968 476.035L94.6763 480.261L87.6839 482.327L87.2812 477.044L89.5968 476.035Z" fill="#F2EAFF"/>
<path d="M89.5968 476.035L94.6763 480.261L87.6839 482.327L87.2812 477.044L89.5968 476.035Z" fill="#F2EAFF"/>
<path d="M94.2394 451.521C99.0405 462.791 94.2395 475.697 88.9738 478.006C83.2744 480.487 71.1169 474.946 66.3081 463.676C61.4992 452.406 64.6122 442.302 72.3249 438.944C80.0376 435.587 89.4306 440.251 94.2394 451.521Z" fill="white"/>
<path d="M80.1318 438.17C83.0007 441.295 84.9736 445.15 85.8389 449.322C88.4563 460.804 81.1927 472.379 75.083 474.57C80.0777 478.163 85.6299 479.462 88.9751 478.014C94.2795 475.705 99.0419 462.8 94.2408 451.529C90.9885 443.899 85.6376 439.344 80.1318 438.17Z" fill="white"/>
<path d="M73.4951 488.635L79.1013 491.014L73.4562 494.716L71.7139 490.153L73.4951 488.635Z" fill="#FECC00"/>
<path d="M73.4951 488.635L79.1013 491.014L73.4562 494.716L71.7139 490.153L73.4951 488.635Z" fill="#FECC00"/>
<path d="M71.1422 465.687C78.3593 474.375 77.5308 487.077 73.4653 490.544C69.0747 494.277 56.8552 492.634 49.6381 483.954C42.421 475.275 42.5139 465.492 48.4533 460.475C54.3927 455.458 63.9406 457 71.1422 465.687Z" fill="#FECC00"/>
<path d="M55.1592 457.657C58.5204 459.65 61.2805 462.532 63.1429 465.992C68.4782 475.454 65.0943 487.656 60.2623 491.232C65.6286 493.072 70.8865 492.727 73.4265 490.543C77.5151 487.076 78.3359 474.366 71.1034 465.687C66.2791 459.817 60.301 457.187 55.1592 457.657Z" fill="#FECC00"/>
<path d="M59.169 549.697L65.7666 550.135L61.252 555.974L57.8604 551.896L59.169 549.697Z" fill="#02979D"/>
<path d="M59.169 549.697L65.7666 550.135L61.252 555.974L57.8604 551.896L59.169 549.697Z" fill="#02979D"/>
<path d="M48.6836 526.898C59.1685 533.253 62.777 546.644 59.7802 551.676C56.5666 557.092 43.4024 559.784 32.9252 553.429C22.4481 547.074 19.1105 536.994 23.4625 529.645C27.8144 522.296 38.2219 520.543 48.6836 526.898Z" fill="#48B0B3"/>
<path opacity="0.5" d="M29.4121 524.362C33.5745 525.209 37.4297 527.187 40.563 530.083C49.3752 537.91 50.1728 551.692 46.4559 557.116C52.6508 557.116 57.9242 554.846 59.8137 551.637C62.8027 546.605 59.1942 533.214 48.717 526.859C41.6161 522.601 34.5771 522.022 29.4121 524.362Z" fill="#48B0B3"/>
<path d="M61.3224 491.054L68.4232 493.206L62.0427 498.426L59.3555 493.12L61.3224 491.054Z" fill="#5F57A5"/>
<path d="M61.3224 491.054L68.4232 493.206L62.0427 498.426L59.3555 493.12L61.3224 491.054Z" fill="#5F57A5"/>
<path d="M55.5712 463.543C65.4211 473.131 66.0406 488.643 61.5338 493.378C56.6863 498.473 41.6636 498.073 31.8137 488.486C21.9638 478.899 20.8255 467.034 27.3921 460.147C33.9587 453.259 45.7213 453.956 55.5712 463.543Z" fill="#F7525F"/>
<path opacity="0.5" d="M35.1572 455.889C39.4858 457.867 43.1991 461 45.8977 464.952C53.5716 475.729 51.0162 490.951 45.6189 495.921C52.3558 497.486 58.6902 496.351 61.5321 493.37C66.0389 488.674 65.4039 473.123 55.5695 463.535C48.9099 457.063 41.3676 454.644 35.1572 455.889Z" fill="#F7525F"/>
<path d="M0.938477 536.384L92.933 560.004" stroke="#F2EAFF" stroke-width="0.81" stroke-miterlimit="10" stroke-linecap="round"/>
<path d="M40.1133 533.34L92.9327 560.004" stroke="#F2EAFF" stroke-width="0.81" stroke-miterlimit="10" stroke-linecap="round"/>
<path d="M60.7666 549.806L92.9338 560.004" stroke="#F2EAFF" stroke-width="0.81" stroke-miterlimit="10" stroke-linecap="round"/>
<path d="M40.1826 513.288L93.7764 559.472" stroke="#F2EAFF" stroke-width="0.81" stroke-miterlimit="10" stroke-linecap="round"/>
<path d="M93.2279 532.455L92.9336 560.003" stroke="#F2EAFF" stroke-width="0.81" stroke-miterlimit="10" stroke-linecap="round"/>
<path d="M72.2197 491.366L92.934 560.003" stroke="#F2EAFF" stroke-width="0.81" stroke-miterlimit="10" stroke-linecap="round"/>
<path d="M87.2324 478.867L92.9318 560.004" stroke="#F2EAFF" stroke-width="0.81" stroke-miterlimit="10" stroke-linecap="round"/>
<path d="M105.107 457.729L92.9336 550.613" stroke="#F2EAFF" stroke-width="0.81" stroke-miterlimit="10" stroke-linecap="round"/>
<path d="M69.8252 522.649L76.0435 525.952L69.1669 529.646L67.6182 524.214L69.8252 522.649Z" fill="#FECC00"/>
<path d="M69.8252 522.649L76.0435 525.952L69.1669 529.646L67.6182 524.214L69.8252 522.649Z" fill="#FECC00"/>
<path d="M69.4006 495.975C76.8499 506.713 74.643 521.262 69.5942 524.847C64.1736 528.697 50.235 525.575 42.8011 514.845C35.3672 504.115 36.4204 492.86 43.7691 487.648C51.1178 482.436 61.9512 485.245 69.4006 495.975Z" fill="#FECC00"/>
<path d="M51.7822 485.112C55.4571 487.748 58.3512 491.347 60.1531 495.522C65.3646 506.956 60.2538 520.668 54.3376 524.307C60.339 526.968 66.4332 527.109 69.6081 524.847C74.657 521.263 76.8639 506.713 69.4145 495.976C64.3579 488.72 57.7758 485.089 51.7822 485.112Z" fill="#FECC00"/>
<path d="M70.623 523.924L92.9325 560.004" stroke="#F2EAFF" stroke-width="0.81" stroke-miterlimit="10" stroke-linecap="round"/>
<path d="M68.0605 525.708L71.5065 523.517" stroke="#F2EAFF" stroke-width="0.81" stroke-miterlimit="10" stroke-linecap="round"/>
<path d="M60.766 549.806L58.9385 553.187" stroke="#F2EAFF" stroke-width="0.81" stroke-miterlimit="10" stroke-linecap="round"/>
<path d="M92.4219 532.894L95.7749 531.688" stroke="#F2EAFF" stroke-width="0.81" stroke-miterlimit="10" stroke-linecap="round"/>
<path d="M71.793 491.641L75.3396 488.839" stroke="#F2EAFF" stroke-width="0.81" stroke-miterlimit="10" stroke-linecap="round"/>
<path d="M86.2656 479.102L91.6397 476.872" stroke="#F2EAFF" stroke-width="0.81" stroke-miterlimit="10" stroke-linecap="round"/>
<path d="M108.723 496.752L112.223 502.911L104.464 502.308L106.028 496.885L108.723 496.752Z" fill="#FECC00"/>
<path d="M108.723 496.752L112.223 502.911L104.464 502.308L106.028 496.885L108.723 496.752Z" fill="#FECC00"/>
<path d="M122.475 473.991C123.087 487.092 113.523 498.19 107.359 498.488C100.731 498.809 90.6329 488.65 90.0134 475.548C89.3939 462.447 96.2626 453.525 105.222 453.095C114.181 452.664 121.863 460.89 122.475 473.991Z" fill="#FECC00"/>
<path d="M113.331 455.278C115.033 459.489 115.568 464.088 114.88 468.583C113.23 481.066 101.653 489.887 94.7461 489.754C98.4088 495.232 103.481 498.66 107.361 498.472C113.555 498.175 123.088 487.077 122.476 473.976C122.058 465.171 118.38 458.511 113.331 455.278Z" fill="#FECC00"/>
<path d="M107.972 498.387L92.9336 550.613" stroke="#F2EAFF" stroke-width="0.81" stroke-miterlimit="10" stroke-linecap="round"/>
<path d="M104.928 498.184L110.581 498.317" stroke="#F2EAFF" stroke-width="0.81" stroke-miterlimit="10" stroke-linecap="round"/>
<path d="M321.436 629.057C323.637 628.674 325.113 626.561 324.734 624.337C324.355 622.114 322.265 620.621 320.065 621.004C317.865 621.387 316.388 623.5 316.767 625.724C317.146 627.947 319.236 629.439 321.436 629.057Z" fill="#989898"/>
<path d="M329.331 655.063C342.894 652.703 351.996 639.677 349.66 625.969C347.325 612.261 334.437 603.062 320.874 605.423C307.311 607.783 298.21 620.809 300.545 634.517C302.88 648.224 315.768 657.423 329.331 655.063Z" fill="#7F8084"/>
<path d="M328.273 648.861C338.447 647.091 345.275 637.319 343.523 627.036C341.771 616.753 332.103 609.853 321.929 611.623C311.755 613.394 304.927 623.165 306.679 633.448C308.431 643.731 318.099 650.632 328.273 648.861Z" fill="#4D4D4D"/>
<path d="M327.676 645.353C335.933 643.916 341.474 635.986 340.052 627.641C338.63 619.296 330.784 613.696 322.528 615.133C314.271 616.57 308.731 624.5 310.152 632.845C311.574 641.189 319.42 646.789 327.676 645.353Z" fill="#F1F1F1"/>
<path d="M326.927 640.933C332.768 639.916 336.688 634.306 335.682 628.402C334.677 622.498 329.126 618.536 323.284 619.552C317.443 620.569 313.522 626.179 314.528 632.083C315.534 637.987 321.085 641.949 326.927 640.933Z" fill="#48B0B3"/>
<path d="M187.629 679.726C201.192 677.366 210.294 664.34 207.958 650.632C205.623 636.924 192.735 627.726 179.172 630.086C165.609 632.446 156.507 645.472 158.843 659.18C161.178 672.888 174.066 682.087 187.629 679.726Z" fill="#7F8084"/>
<path d="M186.652 673.99C197.08 672.175 204.077 662.161 202.281 651.622C200.486 641.084 190.578 634.011 180.15 635.826C169.723 637.641 162.726 647.655 164.521 658.194C166.317 668.732 176.225 675.804 186.652 673.99Z" fill="#4D4D4D"/>
<path d="M185.599 670.116C193.893 668.677 199.462 660.714 198.038 652.331C196.614 643.948 188.735 638.32 180.441 639.759C172.147 641.199 166.577 649.161 168.002 657.544C169.426 665.927 177.305 671.556 185.599 670.116Z" fill="#F1F1F1"/>
<path d="M185.223 665.598C191.065 664.581 194.985 658.971 193.979 653.067C192.973 647.163 187.422 643.201 181.581 644.218C175.739 645.234 171.819 650.844 172.825 656.748C173.831 662.652 179.382 666.614 185.223 665.598Z" fill="#48B0B3"/>
<path d="M184.087 658.933C186.287 658.55 187.763 656.437 187.385 654.213C187.006 651.99 184.915 650.497 182.715 650.88C180.515 651.263 179.039 653.376 179.417 655.6C179.796 657.823 181.887 659.316 184.087 658.933Z" fill="#989898"/>
<path d="M326.358 627.796C326.977 628.237 327.397 628.909 327.526 629.663C327.655 630.418 327.483 631.193 327.047 631.819C326.61 632.444 325.946 632.869 325.199 633C324.453 633.13 323.686 632.956 323.066 632.515L288.793 608.05C288.175 607.608 287.757 606.935 287.629 606.181C287.501 605.427 287.675 604.652 288.112 604.027C288.548 603.402 289.213 602.977 289.959 602.846C290.706 602.716 291.473 602.89 292.092 603.331L326.358 627.796Z" fill="#E5E5E5"/>
<path d="M268.985 543.975L273.135 542.926C273.135 542.926 274.854 537.174 281.653 539.553C288.452 541.932 285.293 546.354 281.715 547.466C278.138 548.577 277.371 547.794 277.371 547.794C277.371 547.794 280.523 542.598 276.403 542.872C272.283 543.146 272.609 546.386 272.609 546.386L266.592 547.646L268.985 543.975Z" fill="#FFD2AA"/>
<path d="M240.41 519.229C241.696 519.135 242.842 515.879 249.393 543.897L270.843 542.489C270.843 542.489 266.615 550.534 268.465 555.011C268.465 555.011 245.784 553.923 241.882 550.597C237.979 547.27 228.106 520.144 240.41 519.229Z" fill="#45A8A8"/>
<path d="M268.396 549.109C268.396 549.109 272.105 538.833 276.55 538.434C280.995 538.035 283.147 544.077 283.147 544.077C284.17 542.735 285.567 541.735 287.159 541.204C287.159 541.204 285.548 550.259 289.83 556.857C289.83 556.857 287.902 557.734 285.447 555.347C285.447 555.347 282.257 561.608 290.272 570.373C298.286 579.139 304.489 598.087 304.489 598.087C304.489 598.087 330.662 580.743 347.412 605.639C347.412 605.639 323.987 594.174 308.43 612.425C292.873 630.676 300.764 629.111 289.9 634.777C289.9 634.777 290.589 630.441 292.014 627.866C292.014 627.866 286.477 638.393 275.078 640.388C263.68 642.384 220.594 649.092 220.594 649.092C220.594 649.092 215.785 649.365 215.042 646.094L142.538 657.763C142.538 657.763 125.959 667.82 144.435 633.846C144.435 633.846 150.158 629.079 143.661 622.662C143.661 622.662 145.055 617.7 156.895 619.226C156.895 619.226 158.916 606.985 148.749 606.492L148.408 604.473L194.823 596.396L195.412 598.744C195.412 598.744 222.654 589.29 235.764 589.274C235.764 589.274 216.211 613.434 239.295 633.885C239.295 633.885 246.59 639.457 283.341 626.105C283.341 626.105 288.459 621.652 280.576 597.547C272.693 573.441 283.612 572.87 283.612 572.87L268.396 549.109Z" fill="#494849"/>
<path d="M237.251 578.755C241.479 578.474 245.823 589.619 234.688 590.769C223.552 591.92 202.939 596.342 202.939 596.342C202.939 596.342 187.397 584.884 197.054 572.862C206.71 560.841 193.941 581.643 237.251 578.755Z" fill="#7F8084"/>
<path d="M269.381 549.414C269.381 549.414 272.889 546.284 274.801 548.577C276.714 550.87 273.802 552.929 273.802 552.929C273.802 552.929 269.451 551.128 269.381 549.414Z" fill="black"/>
<path d="M256.157 621.352L254.437 627.326L258.154 628.42L259.875 622.446L256.157 621.352Z" fill="#FFD2AA"/>
<path d="M254.472 627.491C254.138 628.443 253.943 629.44 253.892 630.449C254.351 631.005 254.976 631.397 255.674 631.566C256.371 631.735 257.104 631.673 257.763 631.388L258.352 628.109C258.352 628.109 257.252 628.594 254.472 627.491Z" fill="#E5E5E5"/>
<path d="M254.032 629.525C254.032 629.525 256.525 630.394 258.012 629.228C258.012 629.228 262.534 626.998 265.275 628.156C266.044 628.453 266.716 628.961 267.214 629.624C267.712 630.286 268.017 631.076 268.094 631.905C268.094 631.905 258.98 636.021 253.42 633.212C253.404 633.204 253.009 629.909 254.032 629.525Z" fill="#B2B2B2"/>
<path d="M242.614 621.361L240.714 627.959L244.431 629.052L246.332 622.455L242.614 621.361Z" fill="#FFD2AA"/>
<path d="M210.598 568.714C210.598 568.714 202.553 573.05 210.134 576.314C217.715 579.577 247.582 576.893 258.144 572.33C258.144 572.33 252.724 586.323 254.273 595.214C255.821 604.105 254.59 622.943 254.59 622.943C254.59 622.943 259.143 624.164 260.955 626.074C260.955 626.074 270.627 575.985 264.696 568.025C258.764 560.066 231.111 561.835 231.111 561.835C229.028 564.159 218.706 566.726 210.598 568.714Z" fill="#7F8084"/>
<path d="M206.254 565.005C206.254 565.005 201.345 572.604 208.306 577.057C215.268 581.51 241.457 579.069 252.608 576.274C252.608 576.274 245.011 589.204 245.151 598.236C245.29 607.267 241.348 622.247 241.348 622.247C241.348 622.247 245.654 624.188 247.141 626.332C247.141 626.332 264.347 581.87 259.771 573.05C255.194 564.23 227.603 561.498 227.603 561.498C225.172 563.494 214.571 564.355 206.254 565.005Z" fill="#AFB2B7"/>
<path d="M210.529 555.957C210.529 555.957 206.75 562.273 206.277 564.997C206.277 564.997 224.97 564.05 227.619 561.491C227.565 561.498 216.902 552.968 210.529 555.957Z" fill="#FFD2AA"/>
<path d="M243.361 517.186L247.884 509.305L255.224 511.574L249.61 520.708L243.361 517.186Z" fill="#FFD2AA"/>
<path d="M285.803 483.806C285.803 483.806 289.04 504.045 281.706 508.483C281.706 508.483 242.562 502.472 249.183 474.195C255.804 445.918 279.182 476.457 285.803 483.806Z" fill="#48B0B3"/>
<path d="M270.217 477.435L250.517 494.497L253.529 500.422L276.497 478.539L270.217 477.435Z" fill="white"/>
<path d="M278.943 480.167L256.912 504.961L269.836 513.562L285.618 482.734L278.943 480.167Z" fill="white"/>
<path d="M241.17 509.609L272.401 521.771C272.401 521.771 284.016 511.401 283.04 507.605C283.04 507.605 261.064 504.349 254.521 488.376C247.551 471.408 286.966 485.519 286.966 485.519C286.966 485.519 286.61 453.618 247.474 462.337C219.155 467.252 241.17 509.609 241.17 509.609Z" fill="#7F8084"/>
<path d="M239.86 506.871L239.187 509.712L273.057 522.938L273.677 521.545L239.86 506.871Z" fill="#7F8084"/>
<path d="M238.158 513.984C238.158 513.984 231.088 514.078 223.445 521.638C215.802 529.199 222.291 534.576 209.917 537.581C197.542 540.586 196.055 549.9 194.816 555.777C194.816 555.777 204.713 556.317 210.985 558.626C217.257 560.935 230.553 561.757 230.553 561.757C230.553 561.757 237.995 548.906 242.618 545.321C247.52 541.494 253.351 531.39 252.925 526.499C252.499 521.607 256.045 518.226 238.158 513.984Z" fill="#69B8B6"/>
<path d="M257.896 551.52H262.178C262.178 551.52 265.276 546.386 271.238 550.409C277.201 554.431 273.081 557.914 269.333 558.086C265.585 558.259 265.051 557.304 265.051 557.304C265.051 557.304 269.388 553.07 265.33 552.295C261.272 551.52 260.784 554.737 260.784 554.737L254.651 554.439L257.896 551.52Z" fill="#FFD2AA"/>
<path d="M714.994 391.173H615.023V466.087H714.994V391.173Z" fill="#F5F5F5"/>
<path d="M236.363 520.331C237.633 520.566 239.546 517.701 238.95 546.487L260.067 550.549C260.067 550.549 253.988 557.264 254.646 562.054C254.646 562.054 232.964 555.26 229.998 551.097C227.032 546.933 224.221 518.108 236.363 520.331Z" fill="#48B0B3"/>
<path d="M240.891 627.334C240.558 628.287 240.362 629.283 240.311 630.293C240.77 630.849 241.395 631.241 242.093 631.41C242.79 631.579 243.523 631.516 244.182 631.232L244.771 627.953C244.771 627.953 243.671 628.438 240.891 627.334Z" fill="#E5E5E5"/>
<path d="M240.308 630.309C240.308 630.309 242.693 631.467 244.288 630.481C244.288 630.481 249.035 628.798 251.621 630.262C252.35 630.646 252.958 631.229 253.376 631.944C253.795 632.659 254.008 633.478 253.991 634.308C253.991 634.308 244.474 637.337 239.278 633.901C239.27 633.885 239.247 630.567 240.308 630.309Z" fill="#B2B2B2"/>
<path d="M265.053 559.264C267.068 558.914 268.42 556.979 268.073 554.943C267.726 552.906 265.812 551.54 263.797 551.891C261.783 552.241 260.431 554.176 260.778 556.212C261.124 558.248 263.039 559.615 265.053 559.264Z" fill="black"/>
<path d="M290.652 557.294C292.764 556.926 293.814 552.747 292.999 547.959C292.183 543.171 289.81 539.588 287.698 539.955C285.587 540.323 284.536 544.502 285.352 549.29C286.168 554.078 288.541 557.661 290.652 557.294Z" fill="#FFFFB5"/>
<path d="M145.698 632.411C146.996 632.185 147.643 629.623 147.143 626.688C146.643 623.753 145.186 621.557 143.888 621.783C142.589 622.009 141.942 624.571 142.442 627.506C142.943 630.441 144.4 632.637 145.698 632.411Z" fill="#EAB41C"/>
<path d="M194.344 593.468L93.1367 611.081L93.64 614.035L194.847 596.422L194.344 593.468Z" fill="#808080"/>
<path d="M174.768 529.301L92.1741 543.67L93.2816 550.142L87.0791 551.215L97.2695 611.048L192.261 594.518L182.07 534.693L174.768 529.301Z" fill="#FEC925"/>
<path d="M93.4471 550.039L87.1055 551.143L97.1974 610.378L103.539 609.274L93.4471 550.039Z" fill="#EAB41C"/>
<path d="M138.029 535.819L131.441 537.043L143.406 602.802L149.994 601.577L138.029 535.819Z" fill="#494849"/>
<path d="M187.414 568.697L186.337 562.015L97.0825 576.706L98.1592 583.388L187.414 568.697Z" fill="#494849"/>
<path d="M399.789 466.783H380.229V456.898C380.229 454.276 381.259 451.762 383.093 449.908C384.927 448.055 387.415 447.013 390.009 447.013C392.603 447.013 395.09 448.055 396.924 449.908C398.759 451.762 399.789 454.276 399.789 456.898V466.783ZM382.49 464.497H397.528V456.898C397.528 454.882 396.736 452.949 395.325 451.524C393.915 450.099 392.003 449.298 390.009 449.298C388.015 449.298 386.102 450.099 384.692 451.524C383.282 452.949 382.49 454.882 382.49 456.898V464.497Z" fill="#494849"/>
<g filter="url(#filter1_d)">
<path d="M411.739 461.387H368.282L359.795 511.437H420.226L411.739 461.387Z" fill="#48B0B3"/>
</g>
<g filter="url(#filter2_d)">
<path d="M744.841 404.168H711.327C709.162 404.168 707.086 405.037 705.556 406.584C704.025 408.131 703.165 410.229 703.165 412.417V446.29C703.167 448.12 703.772 449.898 704.883 451.344C705.995 452.789 707.551 453.819 709.306 454.273V468.071L722.694 454.539H744.841C747.006 454.539 749.082 453.67 750.612 452.123C752.143 450.576 753.003 448.478 753.003 446.29V412.425C753.004 411.341 752.794 410.267 752.384 409.266C751.974 408.264 751.373 407.354 750.615 406.587C749.857 405.82 748.957 405.212 747.966 404.797C746.976 404.382 745.914 404.168 744.841 404.168Z" fill="#F7525F"/>
</g>
<path d="M744.838 425.921C744.804 425.396 744.573 424.904 744.191 424.546C743.81 424.187 743.307 423.991 742.786 423.996H732.797C733.017 422.306 733.144 420.605 733.176 418.901C733.052 418.118 731.24 413.634 731.24 413.634C731.067 413.396 730.824 413.22 730.547 413.129C730.269 413.037 729.97 413.036 729.692 413.125C728.685 413.383 728.553 414.056 728.553 414.056L728.762 418.752C728.298 421.006 724.387 425.976 724.387 425.976L723.125 426.954V437.833L723.597 438.498C723.842 438.844 724.165 439.126 724.54 439.321C724.914 439.516 725.329 439.617 725.75 439.617H739.921C740.397 439.638 740.865 439.486 741.241 439.189C741.616 438.892 741.873 438.469 741.967 437.996C742.06 437.524 741.984 437.033 741.75 436.612C741.517 436.192 741.143 435.87 740.695 435.704H740.835C741.354 435.71 741.856 435.514 742.238 435.157C742.619 434.801 742.851 434.31 742.887 433.787C742.908 433.377 742.806 432.97 742.593 432.62C742.38 432.271 742.066 431.995 741.694 431.83H741.733C742.186 431.832 742.626 431.679 742.981 431.395C743.336 431.111 743.585 430.714 743.688 430.268C743.79 429.823 743.74 429.355 743.545 428.942C743.351 428.529 743.023 428.195 742.616 427.995H742.825C743.093 427.997 743.359 427.945 743.607 427.841C743.855 427.737 744.079 427.584 744.267 427.39C744.455 427.197 744.602 426.967 744.7 426.714C744.799 426.462 744.845 426.192 744.838 425.921Z" fill="white"/>
<path d="M719.611 423.62H713.091C712.625 423.62 712.178 423.807 711.848 424.141C711.518 424.474 711.333 424.926 711.333 425.397V438.647C711.333 438.881 711.379 439.113 711.467 439.33C711.556 439.546 711.686 439.743 711.85 439.909C712.014 440.074 712.209 440.206 712.423 440.296C712.637 440.385 712.867 440.431 713.099 440.431H719.642C720.109 440.431 720.557 440.244 720.888 439.912C721.219 439.579 721.405 439.127 721.407 438.655V425.405C721.409 425.167 721.363 424.932 721.272 424.713C721.182 424.494 721.049 424.296 720.882 424.129C720.714 423.963 720.516 423.832 720.297 423.745C720.079 423.657 719.846 423.615 719.611 423.62ZM718.449 438.913C718.45 439.211 718.568 439.496 718.777 439.705C718.986 439.915 719.268 440.033 719.563 440.032C719.857 440.032 720.139 439.913 720.347 439.703C720.555 439.492 720.672 439.207 720.672 438.909C720.672 438.612 720.555 438.326 720.347 438.116C720.139 437.905 719.857 437.787 719.563 437.786C719.268 437.786 718.986 437.903 718.777 438.113C718.568 438.323 718.45 438.608 718.449 438.905V438.913Z" fill="white"/>
<path d="M770.27 564.246L745.528 560.098V522.14L770.27 524.629V564.246Z" fill="#F7525F"/>
<path d="M770.203 564.246L790.352 560.513V522.14L770.203 524.629V564.246Z" fill="#F7525F"/>
<path d="M790.349 522.555L769.89 524.911L745.528 522.531V530.428L769.89 532.808L790.349 530.452V522.555Z" fill="#D3D3D3"/>
<path d="M769.891 531.555L744.298 529.066V521.169L769.891 523.658V531.555Z" fill="#FF6C7E"/>
<path d="M769.891 531.555L791.58 529.066V521.169L769.891 523.658V531.555Z" fill="#F95D77"/>
<path d="M744.298 521.17L765.198 519.643L791.581 521.17L769.891 523.658L744.298 521.17Z" fill="#FF7D93"/>
<path d="M782.783 562.078L778.215 562.923V522.704L782.783 522.14V562.078Z" fill="#D6D6D6"/>
<path d="M755.496 561.828L760.065 562.595V522.704L755.496 522.257V561.828Z" fill="#D6D6D6"/>
<path d="M771.99 520.027L778.874 520.411L760.065 522.704L755.496 522.258L771.99 520.027Z" fill="#D6D6D6"/>
<path d="M757.709 520.191L751.917 520.59L778.129 522.704L782.783 522.14L757.709 520.191Z" fill="#D6D6D6"/>
<g filter="url(#filter3_d)">
<path d="M699.711 517.706H633.89C630.897 517.706 628.47 520.159 628.47 523.184V536.489C628.47 539.515 630.897 541.968 633.89 541.968H699.711C702.705 541.968 705.132 539.515 705.132 536.489V523.184C705.132 520.159 702.705 517.706 699.711 517.706Z" fill="#48B0B3"/>
</g>
<path d="M648.137 530.785C648.137 532.735 649.387 534.435 651.887 534.435C654.387 534.435 655.637 532.735 655.637 530.785C655.637 528.835 654.387 527.135 651.887 527.135C649.387 527.135 648.137 528.835 648.137 530.785ZM653.737 530.785C653.737 531.905 653.097 532.735 651.887 532.735C650.677 532.735 650.037 531.905 650.037 530.785C650.037 529.665 650.677 528.835 651.887 528.835C653.097 528.835 653.737 529.665 653.737 530.785ZM658.452 534.285V532.005H659.252L660.922 534.285H663.012L661.082 531.745C661.852 531.435 662.422 530.805 662.422 529.645C662.422 527.795 660.972 527.285 659.552 527.285H656.602V534.285H658.452ZM658.452 528.885H659.632C660.162 528.885 660.522 529.155 660.522 529.695C660.522 530.235 660.162 530.505 659.632 530.505H658.452V528.885ZM663.712 527.285V534.285H666.502C669.002 534.285 670.162 532.825 670.162 530.785C670.162 528.745 669.002 527.285 666.502 527.285H663.712ZM668.262 530.785C668.262 532.095 667.612 532.685 666.502 532.685H665.562V528.885H666.502C667.612 528.885 668.262 529.475 668.262 530.785ZM671.153 527.285V534.285H676.253V532.685H673.003V531.545H675.893V529.955H673.003V528.885H676.193V527.285H671.153ZM679.175 534.285V532.005H679.975L681.645 534.285H683.735L681.805 531.745C682.575 531.435 683.145 530.805 683.145 529.645C683.145 527.795 681.695 527.285 680.275 527.285H677.325V534.285H679.175ZM679.175 528.885H680.355C680.885 528.885 681.245 529.155 681.245 529.695C681.245 530.235 680.885 530.505 680.355 530.505H679.175V528.885Z" fill="white"/>
<path d="M778.842 515.612C778.739 515.357 778.578 515.129 778.372 514.947C778.166 514.765 777.922 514.634 777.658 514.564C777.124 514.524 776.588 514.524 776.055 514.564C776.249 515.436 776.12 516.351 775.692 517.134C775.264 517.918 774.566 518.515 773.732 518.813C772.414 519.333 771.042 519.701 769.643 519.909L769.124 520.629L769.318 521.412C769.318 521.412 773.91 521.075 776.55 519.925C777.394 519.622 778.097 519.013 778.521 518.216C778.944 517.419 779.059 516.49 778.842 515.612Z" fill="#AFB2B7"/>
<path d="M767.514 520.832C769.055 519.199 770.406 517.392 771.54 515.448C773.863 511.793 777.247 514.008 778.409 514.955C777.783 514.655 777.069 514.602 776.407 514.808C775.744 515.014 775.183 515.463 774.831 516.066C773.941 517.631 772.981 520.222 769.651 521.545C767.785 521.584 767.514 520.832 767.514 520.832Z" fill="#D6D6D6"/>
<path d="M764.54 519.956C764.925 520.473 765.376 520.936 765.88 521.334C767.51 521.746 769.228 521.62 770.782 520.974C770.782 520.974 769.148 521.271 767.258 518.79C765.369 516.309 763.696 514.274 761.621 514.439C761.272 514.495 760.945 514.644 760.673 514.871C760.401 515.099 760.193 515.395 760.072 515.73C761.613 516.2 762.999 517.921 764.54 519.956Z" fill="#D6D6D6"/>
<path d="M761.798 520.089C758.7 518.829 759.544 514.61 761.612 514.422C761.991 514.392 762.372 514.435 762.735 514.548C762.735 514.548 759.715 513.577 757.639 514.102C755.564 514.626 754.844 517.866 757.159 519.784C759.335 521.591 765.894 522.061 768.488 521.513C766.185 521.505 763.908 521.02 761.798 520.089Z" fill="#D6D6D6"/>
<path d="M767.351 518.899C767.351 518.899 768.613 520.378 767.939 521.615C769.174 521.904 770.47 521.746 771.602 521.169C771.842 520.957 771.37 518.375 769.681 518.265C769.364 518.539 768.99 518.738 768.587 518.848C768.184 518.957 767.761 518.975 767.351 518.899Z" fill="#7F8084"/>
<path d="M760.575 577.254L742.726 573.888V551.787L760.575 555.16V577.254Z" fill="#EAB41C"/>
<path d="M778.431 573.888L760.574 577.254V555.16L778.431 551.787V573.888Z" fill="#DDA61D"/>
<path opacity="0.48" d="M742.726 551.787V556.036L760.575 559.402L778.431 556.036V551.787L760.575 555.16L742.726 551.787Z" fill="#EA8B8B"/>
<path d="M760.576 558.416L742.068 554.925V549.251L760.576 552.741V558.416Z" fill="#FFCF4A"/>
<path d="M779.081 554.925L760.574 558.416V552.741L779.081 549.251V554.925Z" fill="#F4BD25"/>
<path d="M760.576 552.726L742.068 549.274L760.576 545.83L779.083 549.274L760.576 552.726Z" fill="#F9CE62"/>
<path d="M772.398 575.086L768.767 575.759V551.137L772.398 550.472V575.086Z" fill="#3A3A3A"/>
<path d="M749.341 575.195L752.98 575.908V551.27L749.341 550.566V575.195Z" fill="#4C4B4C"/>
<path d="M767.074 546.997L770.899 547.67L752.98 551.27L749.341 550.566L767.074 546.997Z" fill="#757577"/>
<path d="M754.674 546.895L750.849 547.568L768.768 551.168L772.399 550.464L754.674 546.895Z" fill="#757577"/>
<path d="M364.324 127.414C358.833 126.678 360.413 117.92 365.872 118.805C366.595 118.925 367.309 119.095 368.01 119.313C378.223 122.444 377.302 110.266 380.082 109.022C382.862 107.777 385.038 115.283 389.676 113.076C394.315 110.869 391.844 94.6758 399.271 99.6691C406.697 104.662 405.326 123.328 410.724 115.885C416.609 107.777 423.725 100.295 432.406 112.144C438.523 120.503 439.22 120.253 444.796 118.069C450.371 115.885 459.447 121.043 455.319 125.238C447.219 133.479 393.471 131.327 364.324 127.414Z" fill="white"/>
<path d="M764.54 174.975C761.047 174.505 762.046 168.933 765.531 169.497C765.992 169.572 766.447 169.68 766.894 169.817C773.398 171.805 772.81 164.057 774.583 163.267C776.356 162.476 777.735 167.235 780.693 165.849C783.651 164.464 782.071 154.11 786.802 157.311C791.534 160.512 790.674 172.377 794.097 167.634C797.845 162.468 802.375 157.702 807.896 165.286C811.768 170.608 812.233 170.451 815.779 169.058C819.326 167.665 825.072 170.952 822.485 173.629C817.328 178.841 783.101 177.472 764.54 174.975Z" fill="white"/>
<path d="M637.204 83.7897C632.976 83.2184 634.184 76.472 638.404 77.1529C638.962 77.2455 639.513 77.3763 640.053 77.5442C647.929 79.9469 647.216 70.5709 649.346 69.6082C651.475 68.6456 653.163 74.4136 656.741 72.7388C660.319 71.0639 658.414 58.5573 664.136 62.4001C669.859 66.2429 668.782 80.6357 672.964 74.9224C677.502 68.6612 682.992 62.901 689.675 72.0345C694.391 78.4756 694.925 78.2956 699.223 76.6051C703.52 74.9146 710.521 78.8982 707.338 82.1305C701.097 88.4621 659.66 86.8029 637.204 83.7897Z" fill="white"/>
<path d="M492.674 307.907H378.068V317.299H492.674V307.907Z" fill="#B7B7B7"/>
<path d="M597.735 307.907H549.977V320.429H597.735V307.907Z" fill="#B7B7B7"/>
<path d="M597.608 265.238H518.507V271.21H597.608V265.238Z" fill="#494849"/>
<path d="M597.608 278.919H518.507V289.555H597.608V278.919Z" fill="#EBEBEB"/>
<g filter="url(#filter4_d)">
<path d="M602.55 277.056L632.641 307.469L652.961 286.933L622.869 256.519L602.41 256.378L602.55 277.056ZM607.049 264.103C606.658 264.5 606.439 265.037 606.44 265.597C606.441 266.157 606.662 266.694 607.054 267.089C607.447 267.485 607.978 267.707 608.532 267.706C609.086 267.706 609.618 267.483 610.009 267.087C610.401 266.691 610.621 266.155 610.622 265.595C610.622 265.035 610.403 264.497 610.011 264.101C609.62 263.704 609.089 263.481 608.535 263.48C607.981 263.479 607.449 263.7 607.056 264.095L607.049 264.103Z" fill="#F7525F"/>
</g>
<path d="M612.454 268.087L614.204 273.307L610.944 277.729L616.396 277.658L619.54 282.159L621.166 276.892L626.37 275.256L621.917 272.078L621.987 266.56L617.619 269.863L612.454 268.087Z" fill="white"/>
<path d="M626.354 282.143L628.104 287.355L624.844 291.777L630.295 291.707L633.447 296.207L635.065 290.94L640.269 289.304L635.816 286.127L635.886 280.609L631.518 283.912L626.354 282.143Z" fill="white"/>
<g filter="url(#filter5_d)">
<path d="M355.895 258.651H290.074C287.08 258.651 284.653 261.104 284.653 264.13V277.434C284.653 280.46 287.08 282.913 290.074 282.913H355.895C358.889 282.913 361.315 280.46 361.315 277.434V264.13C361.315 261.104 358.889 258.651 355.895 258.651Z" fill="#F7525F"/>
</g>
<path d="M301.282 270.465C301.282 272.805 302.782 274.845 305.782 274.845C308.782 274.845 310.282 272.805 310.282 270.465C310.282 268.125 308.782 266.085 305.782 266.085C302.782 266.085 301.282 268.125 301.282 270.465ZM308.002 270.465C308.002 271.809 307.234 272.805 305.782 272.805C304.33 272.805 303.562 271.809 303.562 270.465C303.562 269.121 304.33 268.125 305.782 268.125C307.234 268.125 308.002 269.121 308.002 270.465ZM313.66 274.665V271.929H314.62L316.624 274.665H319.132L316.816 271.617C317.74 271.245 318.424 270.489 318.424 269.097C318.424 266.877 316.684 266.265 314.98 266.265H311.44V274.665H313.66ZM313.66 268.185H315.076C315.712 268.185 316.144 268.509 316.144 269.157C316.144 269.805 315.712 270.129 315.076 270.129H313.66V268.185ZM319.972 266.265V274.665H323.32C326.32 274.665 327.712 272.913 327.712 270.465C327.712 268.017 326.32 266.265 323.32 266.265H319.972ZM325.432 270.465C325.432 272.037 324.652 272.745 323.32 272.745H322.192V268.185H323.32C324.652 268.185 325.432 268.893 325.432 270.465ZM328.901 266.265V274.665H335.021V272.745H331.121V271.377H334.589V269.469H331.121V268.185H334.949V266.265H328.901ZM338.528 274.665V271.929H339.488L341.492 274.665H344L341.684 271.617C342.608 271.245 343.292 270.489 343.292 269.097C343.292 266.877 341.552 266.265 339.848 266.265H336.308V274.665H338.528ZM338.528 268.185H339.944C340.58 268.185 341.012 268.509 341.012 269.157C341.012 269.805 340.58 270.129 339.944 270.129H338.528V268.185Z" fill="white"/>
<path d="M537.07 322.371H501.968V329.039H537.07V322.371Z" fill="#494849"/>
<path d="M537.07 336.459H501.968V343.127H537.07V336.459Z" fill="#B7B7B7"/>
<path d="M537.07 350.546H501.968V357.214H537.07V350.546Z" fill="#494849"/>
<path d="M314.154 365.208C313.958 365.208 313.766 365.267 313.602 365.377C313.439 365.487 313.312 365.644 313.237 365.827C313.162 366.01 313.142 366.212 313.18 366.407C313.219 366.601 313.313 366.78 313.452 366.921C313.591 367.061 313.768 367.156 313.96 367.195C314.153 367.234 314.352 367.214 314.534 367.138C314.715 367.062 314.87 366.933 314.979 366.768C315.088 366.603 315.147 366.41 315.147 366.211C315.146 365.945 315.042 365.69 314.856 365.502C314.669 365.314 314.417 365.208 314.154 365.208Z" fill="#D7D8DA"/>
<path d="M323.088 383.972H320.11V380.962C320.11 380.696 320.005 380.44 319.819 380.252C319.633 380.064 319.38 379.958 319.117 379.958C318.854 379.958 318.601 380.064 318.415 380.252C318.229 380.44 318.124 380.696 318.124 380.962V383.972H315.146C314.883 383.972 314.63 384.077 314.444 384.266C314.258 384.454 314.153 384.709 314.153 384.975C314.153 385.241 314.258 385.496 314.444 385.684C314.63 385.873 314.883 385.978 315.146 385.978H318.124V388.988C318.124 389.254 318.229 389.51 318.415 389.698C318.601 389.886 318.854 389.992 319.117 389.992C319.38 389.992 319.633 389.886 319.819 389.698C320.005 389.51 320.11 389.254 320.11 388.988V385.978H323.088C323.351 385.978 323.604 385.873 323.79 385.684C323.976 385.496 324.081 385.241 324.081 384.975C324.081 384.709 323.976 384.454 323.79 384.266C323.604 384.077 323.351 383.972 323.088 383.972Z" fill="#D7D8DA"/>
<path d="M349.888 384.875C349.366 383.962 348.672 383.161 347.845 382.519C347.017 381.877 346.073 381.406 345.065 381.134C344.058 380.861 343.007 380.791 341.972 380.929C340.938 381.067 339.941 381.41 339.038 381.937L335.005 384.291V375.575C335.002 374.489 334.654 373.434 334.012 372.564L329.049 365.875V363.029C329.629 362.821 330.131 362.436 330.487 361.928C330.842 361.42 331.033 360.813 331.034 360.191V355.573C331.033 354.776 330.718 354.011 330.16 353.447C329.602 352.883 328.845 352.566 328.056 352.565H310.185C309.396 352.566 308.639 352.883 308.08 353.448C307.522 354.012 307.208 354.777 307.207 355.575V360.192C307.208 360.815 307.399 361.421 307.754 361.93C308.11 362.438 308.612 362.822 309.192 363.03V365.879L304.228 372.569C303.586 373.437 303.238 374.491 303.234 375.575V395.008C303.236 396.338 303.759 397.613 304.69 398.553C305.621 399.494 306.882 400.023 308.198 400.024H324.15C325.218 401.836 326.949 403.15 328.968 403.681C330.988 404.212 333.133 403.918 334.939 402.862L346.976 395.838C348.799 394.773 350.129 393.021 350.675 390.965C351.221 388.91 350.938 386.72 349.888 384.875ZM309.192 355.575C309.193 355.309 309.297 355.054 309.484 354.866C309.67 354.678 309.922 354.572 310.185 354.572H328.056C328.319 354.572 328.571 354.678 328.757 354.866C328.943 355.054 329.048 355.309 329.049 355.575V360.192C329.048 360.458 328.943 360.713 328.757 360.901C328.571 361.09 328.319 361.195 328.056 361.196H310.185C309.922 361.196 309.669 361.09 309.483 360.902C309.297 360.714 309.193 360.458 309.192 360.192V355.575ZM305.817 373.771L310.978 366.814C311.107 366.64 311.176 366.429 311.176 366.212V363.201H327.062V365.208H318.128C317.864 365.208 317.612 365.313 317.426 365.501C317.24 365.69 317.135 365.945 317.135 366.211C317.135 366.477 317.24 366.732 317.426 366.92C317.612 367.109 317.864 367.214 318.128 367.214H327.559L332.424 373.769C332.741 374.2 332.94 374.708 332.999 375.241H305.242C305.302 374.708 305.5 374.201 305.817 373.771ZM308.2 398.021C307.41 398.02 306.653 397.702 306.095 397.138C305.537 396.574 305.222 395.809 305.221 395.011V393.996H323.259C322.937 395.32 322.954 396.705 323.307 398.02H308.2V398.021ZM324.038 392H305.221V377.249H333.02V385.449L327.001 388.958C325.758 389.68 324.733 390.732 324.038 392ZM333.95 401.127C333.272 401.522 332.524 401.779 331.749 401.882C330.973 401.985 330.185 401.933 329.429 401.729C328.674 401.524 327.965 401.171 327.345 400.69C326.724 400.208 326.203 399.608 325.812 398.923C325.022 397.541 324.808 395.897 325.217 394.355C325.626 392.813 326.624 391.497 327.992 390.699L333.381 387.554L339.338 397.982L333.95 401.127ZM345.986 394.103L341.058 396.979L335.103 386.551L340.031 383.676C341.399 382.877 343.025 382.661 344.551 383.074C346.077 383.487 347.378 384.496 348.168 385.879C348.958 387.262 349.172 388.905 348.763 390.448C348.354 391.99 347.356 393.305 345.988 394.104L345.986 394.103Z" fill="#D7D8DA"/>
<path d="M444.353 346.526C444.088 344.676 443.285 342.947 442.044 341.561C440.804 340.174 439.182 339.193 437.388 338.742C435.593 338.291 433.706 338.39 431.967 339.028C430.228 339.666 428.717 340.813 427.626 342.322C427.531 342.439 427.461 342.573 427.419 342.718C427.378 342.863 427.366 343.015 427.384 343.164C427.403 343.314 427.452 343.458 427.527 343.588C427.603 343.718 427.704 343.831 427.825 343.919C427.945 344.008 428.082 344.071 428.228 344.105C428.373 344.138 428.524 344.141 428.671 344.114C428.817 344.086 428.957 344.028 429.08 343.944C429.204 343.86 429.31 343.751 429.39 343.625C430.224 342.469 431.379 341.591 432.709 341.102C434.039 340.614 435.482 340.537 436.855 340.881C438.229 341.225 439.469 341.976 440.418 343.036C441.368 344.096 441.983 345.418 442.185 346.834C442.223 347.097 442.353 347.338 442.552 347.513C442.751 347.687 443.006 347.784 443.269 347.784C443.321 347.783 443.373 347.78 443.424 347.773C443.711 347.731 443.969 347.576 444.143 347.343C444.317 347.109 444.392 346.816 444.353 346.526Z" fill="#D7D8DA"/>
<path d="M460.165 358.912L456.88 353.38C456.783 353.216 456.646 353.08 456.481 352.986C456.317 352.892 456.131 352.843 455.942 352.843H452.797C452.512 352.85 452.241 352.97 452.042 353.177C451.843 353.384 451.731 353.661 451.731 353.949C451.731 354.237 451.843 354.514 452.042 354.721C452.241 354.928 452.512 355.048 452.797 355.055H455.325L457.296 358.374H412.995L414.962 355.056H416.123C416.27 355.06 416.415 355.034 416.551 354.98C416.687 354.927 416.812 354.846 416.916 354.743C417.021 354.64 417.104 354.516 417.161 354.38C417.218 354.244 417.247 354.098 417.247 353.95C417.247 353.802 417.218 353.656 417.161 353.52C417.104 353.383 417.021 353.26 416.916 353.157C416.812 353.054 416.687 352.973 416.551 352.919C416.415 352.865 416.27 352.84 416.123 352.844H414.342C414.153 352.843 413.967 352.893 413.803 352.987C413.638 353.081 413.501 353.217 413.404 353.38L410.12 358.913C410.02 359.081 409.966 359.273 409.964 359.468C409.962 359.664 410.011 359.857 410.106 360.027C410.202 360.198 410.34 360.339 410.508 360.438C410.675 360.537 410.865 360.589 411.059 360.589H459.224C459.418 360.589 459.609 360.537 459.776 360.438C459.943 360.339 460.082 360.197 460.177 360.027C460.273 359.856 460.322 359.663 460.319 359.468C460.317 359.272 460.263 359.08 460.163 358.912H460.165Z" fill="#D7D8DA"/>
<path d="M454.707 348.709C454.631 348.585 454.532 348.478 454.416 348.393C454.299 348.308 454.167 348.248 454.027 348.215L439.103 344.687C438.963 344.654 438.818 344.649 438.676 344.672C438.534 344.696 438.398 344.747 438.276 344.824C438.153 344.9 438.047 345.001 437.963 345.119C437.879 345.237 437.819 345.371 437.787 345.512L436.661 350.375C436.604 350.657 436.657 350.952 436.811 351.195C436.965 351.438 437.206 351.611 437.485 351.677C437.763 351.742 438.055 351.696 438.3 351.546C438.544 351.397 438.721 351.157 438.793 350.878L439.67 347.094L452.462 350.117L450.448 358.805C450.415 358.946 450.41 359.093 450.433 359.236C450.456 359.38 450.507 359.518 450.583 359.641C450.659 359.765 450.758 359.872 450.875 359.957C450.992 360.042 451.124 360.102 451.264 360.135C451.347 360.154 451.431 360.164 451.515 360.164C451.762 360.164 452.001 360.079 452.194 359.924C452.388 359.769 452.523 359.553 452.579 359.31L454.839 349.548C454.873 349.406 454.879 349.259 454.856 349.115C454.834 348.971 454.783 348.833 454.707 348.709Z" fill="#D7D8DA"/>
<path d="M435.721 351.324L434.723 342.798C434.689 342.507 434.542 342.241 434.314 342.06C434.086 341.878 433.796 341.795 433.508 341.829L415.198 344.016C414.909 344.051 414.646 344.199 414.467 344.43C414.287 344.66 414.205 344.953 414.239 345.245L415.902 359.466C415.933 359.735 416.061 359.982 416.26 360.162C416.46 360.342 416.718 360.442 416.986 360.443C417.029 360.443 417.073 360.44 417.116 360.435C417.404 360.4 417.667 360.252 417.847 360.021C418.026 359.791 418.108 359.498 418.074 359.206L416.542 346.083L432.678 344.155L433.547 351.584C433.586 351.87 433.735 352.13 433.962 352.308C434.189 352.485 434.475 352.565 434.76 352.531C435.045 352.497 435.305 352.352 435.484 352.126C435.664 351.901 435.749 351.613 435.721 351.324H435.721Z" fill="#D7D8DA"/>
<path d="M444.377 359.061L442.204 349.928C442.171 349.787 442.11 349.654 442.026 349.536C441.941 349.419 441.834 349.319 441.712 349.243C441.589 349.167 441.453 349.117 441.311 349.094C441.169 349.072 441.024 349.078 440.884 349.112L423.248 353.398C422.966 353.467 422.722 353.646 422.57 353.896C422.419 354.147 422.372 354.447 422.439 354.733L423.524 359.297C423.555 359.441 423.614 359.577 423.698 359.698C423.781 359.818 423.888 359.921 424.012 359.999C424.135 360.077 424.273 360.13 424.417 360.154C424.561 360.177 424.708 360.172 424.849 360.137C424.991 360.103 425.125 360.04 425.242 359.953C425.359 359.866 425.459 359.756 425.533 359.629C425.608 359.503 425.657 359.362 425.678 359.217C425.698 359.071 425.689 358.922 425.652 358.78L424.824 355.288L440.33 351.52L442.248 359.576C442.316 359.862 442.493 360.108 442.741 360.262C442.989 360.415 443.286 360.462 443.569 360.394C443.851 360.325 444.095 360.146 444.247 359.895C444.398 359.645 444.445 359.344 444.377 359.058V359.061Z" fill="#D7D8DA"/>
<path d="M460.319 359.425C460.305 359.141 460.183 358.874 459.979 358.678C459.775 358.483 459.504 358.374 459.223 358.375H411.057C410.777 358.375 410.507 358.484 410.303 358.679C410.1 358.875 409.978 359.141 409.964 359.425L407.774 402.576C407.766 402.726 407.789 402.875 407.84 403.016C407.892 403.157 407.971 403.286 408.073 403.395C408.176 403.503 408.299 403.59 408.435 403.649C408.572 403.708 408.719 403.739 408.867 403.739H461.415C461.564 403.739 461.711 403.708 461.847 403.649C461.984 403.59 462.107 403.504 462.209 403.395C462.312 403.286 462.391 403.157 462.443 403.016C462.494 402.876 462.517 402.726 462.509 402.576L460.319 359.425ZM410.02 401.525L412.097 360.588H458.185L460.263 401.525H410.02Z" fill="#D7D8DA"/>
<path d="M443.352 362.801C442.703 362.801 442.068 362.996 441.528 363.361C440.988 363.725 440.567 364.244 440.318 364.85C440.07 365.457 440.005 366.124 440.131 366.768C440.258 367.412 440.571 368.003 441.03 368.467C441.49 368.932 442.075 369.248 442.712 369.376C443.349 369.504 444.009 369.438 444.609 369.187C445.209 368.936 445.722 368.51 446.083 367.964C446.444 367.419 446.636 366.777 446.636 366.12C446.635 365.24 446.289 364.397 445.673 363.774C445.058 363.152 444.223 362.802 443.352 362.801ZM443.352 367.227C443.136 367.227 442.924 367.162 442.744 367.04C442.564 366.919 442.424 366.746 442.341 366.544C442.258 366.342 442.236 366.119 442.279 365.904C442.321 365.69 442.425 365.493 442.578 365.338C442.731 365.183 442.926 365.078 443.139 365.035C443.351 364.992 443.571 365.014 443.771 365.098C443.972 365.182 444.143 365.324 444.263 365.505C444.383 365.687 444.447 365.901 444.447 366.12C444.447 366.414 444.332 366.695 444.126 366.903C443.921 367.11 443.643 367.227 443.352 367.227Z" fill="#D7D8DA"/>
<path d="M426.932 362.801C426.282 362.801 425.647 362.996 425.107 363.361C424.567 363.725 424.146 364.244 423.897 364.85C423.649 365.457 423.584 366.124 423.711 366.768C423.837 367.412 424.15 368.003 424.609 368.467C425.069 368.932 425.654 369.248 426.291 369.376C426.928 369.504 427.588 369.438 428.188 369.187C428.788 368.936 429.301 368.51 429.662 367.964C430.023 367.419 430.216 366.777 430.216 366.12C430.215 365.24 429.868 364.397 429.253 363.774C428.637 363.152 427.802 362.802 426.932 362.801ZM426.932 367.227C426.715 367.227 426.503 367.162 426.323 367.04C426.143 366.919 426.003 366.746 425.92 366.544C425.837 366.342 425.815 366.119 425.858 365.904C425.9 365.69 426.004 365.493 426.157 365.338C426.31 365.183 426.506 365.078 426.718 365.035C426.93 364.992 427.15 365.014 427.351 365.098C427.551 365.182 427.722 365.324 427.842 365.505C427.962 365.687 428.026 365.901 428.026 366.12C428.026 366.414 427.911 366.695 427.706 366.903C427.5 367.11 427.222 367.227 426.932 367.227Z" fill="#D7D8DA"/>
<path d="M443.352 366.12H443.267C442.977 366.12 442.698 366.237 442.493 366.444C442.288 366.652 442.172 366.933 442.172 367.227C442.172 367.373 442.2 367.518 442.257 367.653V373.312C442.257 375.219 441.507 377.049 440.172 378.397C438.838 379.746 437.028 380.504 435.141 380.504C433.253 380.504 431.443 379.746 430.109 378.397C428.774 377.049 428.024 375.219 428.024 373.312V367.227C428.028 367.079 428.003 366.932 427.95 366.794C427.896 366.657 427.816 366.531 427.714 366.425C427.612 366.319 427.49 366.235 427.356 366.178C427.221 366.12 427.076 366.091 426.93 366.091C426.784 366.091 426.639 366.12 426.504 366.178C426.369 366.235 426.247 366.319 426.145 366.425C426.043 366.531 425.963 366.657 425.91 366.794C425.857 366.932 425.831 367.079 425.835 367.227V373.312C425.835 375.806 426.816 378.198 428.561 379.962C430.306 381.726 432.673 382.716 435.141 382.716C437.608 382.716 439.975 381.726 441.72 379.962C443.465 378.198 444.446 375.806 444.446 373.312V367.227C444.446 366.933 444.33 366.652 444.125 366.444C443.92 366.237 443.642 366.12 443.352 366.12Z" fill="#D7D8DA"/>
<path d="M714.995 482.03H616.077V488.002H714.995V482.03Z" fill="#494849"/>
<path d="M714.995 495.711H616.077V506.347H714.995V495.711Z" fill="#F5F5F5"/>
<path d="M688.519 431.24V419.422C688.519 418.699 688.234 418.005 687.728 417.494C687.222 416.983 686.536 416.695 685.82 416.694H684.021C683.355 416.696 682.713 416.949 682.222 417.403C681.73 416.949 681.088 416.696 680.422 416.694H678.623C677.957 416.696 677.315 416.949 676.823 417.403C676.332 416.949 675.69 416.696 675.024 416.694H673.227C672.511 416.694 671.824 416.982 671.318 417.493C670.811 418.005 670.526 418.699 670.526 419.422V431.09C668.45 429.636 665.421 428.398 660.985 427.875L662.402 417.848C662.455 417.479 662.428 417.102 662.324 416.743C662.219 416.385 662.04 416.053 661.797 415.771C661.555 415.489 661.255 415.263 660.919 415.108C660.582 414.953 660.217 414.874 659.847 414.874H651.632V406.691C651.632 406.45 651.727 406.219 651.896 406.048C652.064 405.878 652.293 405.782 652.532 405.782H659.729C660.088 405.788 660.444 405.722 660.776 405.587C661.109 405.453 661.412 405.253 661.668 404.999C661.923 404.745 662.126 404.442 662.265 404.108C662.403 403.774 662.474 403.416 662.474 403.054C662.474 402.692 662.403 402.333 662.265 401.999C662.126 401.665 661.923 401.362 661.668 401.108C661.412 400.854 661.109 400.654 660.776 400.52C660.444 400.386 660.088 400.32 659.729 400.326H651.632C650.201 400.327 648.828 400.903 647.816 401.925C646.804 402.948 646.235 404.335 646.234 405.782V414.875H638.017C637.333 414.876 636.677 415.151 636.194 415.64C635.71 416.128 635.438 416.791 635.438 417.482C635.438 417.606 635.447 417.729 635.464 417.852L637.632 433.191C636.336 434.672 635.564 436.546 635.438 438.519C635.44 439.272 635.674 440.006 636.107 440.618C636.54 441.231 637.151 441.693 637.855 441.939C637.395 442.624 637.181 443.448 637.25 444.273C637.318 445.099 637.666 445.875 638.233 446.473C637.185 447.057 636.359 447.976 635.884 449.087C635.41 450.197 635.314 451.436 635.612 452.607C635.91 453.779 636.585 454.817 637.53 455.559C638.476 456.3 639.639 456.703 640.836 456.703H691.219V433.971C691.219 433.247 690.934 432.553 690.428 432.041C689.922 431.529 689.236 431.241 688.519 431.24ZM683.121 419.422C683.122 419.181 683.217 418.95 683.385 418.78C683.554 418.609 683.783 418.513 684.021 418.513H685.821C686.059 418.513 686.288 418.609 686.457 418.78C686.625 418.95 686.72 419.181 686.721 419.422V431.24H683.121V419.422ZM677.723 419.422C677.724 419.181 677.819 418.95 677.987 418.78C678.156 418.609 678.385 418.513 678.623 418.513H680.423C680.661 418.513 680.89 418.609 681.058 418.78C681.227 418.95 681.322 419.181 681.322 419.422V431.24H677.723V419.422ZM672.325 419.422C672.325 419.181 672.42 418.949 672.589 418.779C672.758 418.608 672.988 418.512 673.227 418.512H675.026C675.264 418.513 675.493 418.609 675.661 418.78C675.829 418.951 675.923 419.181 675.924 419.422V431.24H672.325V419.422ZM657.93 402.145H659.729C659.968 402.145 660.197 402.241 660.366 402.411C660.534 402.582 660.629 402.813 660.629 403.054C660.629 403.295 660.534 403.527 660.366 403.697C660.197 403.868 659.968 403.964 659.729 403.964H657.93V402.145ZM654.331 402.145H656.131V403.963H654.332L654.331 402.145ZM648.033 405.782C648.034 404.817 648.414 403.893 649.088 403.211C649.763 402.529 650.678 402.146 651.632 402.145H652.532V403.963C651.816 403.964 651.13 404.252 650.624 404.763C650.118 405.275 649.834 405.968 649.833 406.691V414.875H648.033V405.782ZM637.373 418.512L637.244 417.596C637.239 417.559 637.236 417.52 637.236 417.482C637.237 417.273 637.319 417.073 637.465 416.925C637.611 416.778 637.809 416.694 638.016 416.694H659.849C660.056 416.694 660.254 416.778 660.4 416.925C660.546 417.073 660.629 417.273 660.629 417.482C660.629 417.52 660.627 417.557 660.622 417.594L660.492 418.512H657.93V420.331H660.234L659.721 423.968H638.148L637.634 420.331H656.131V418.512H637.373ZM659.463 425.787L659.191 427.71C658.228 427.643 657.213 427.605 656.129 427.605H654.332C646.492 427.605 641.913 429.449 639.232 431.623L638.403 425.787H659.463ZM637.237 438.519C637.237 438.428 637.432 429.425 654.331 429.425H656.131C672.913 429.425 673.22 438.152 673.225 438.519C673.225 439.001 673.035 439.463 672.697 439.804C672.36 440.145 671.902 440.337 671.425 440.338H639.036C638.559 440.337 638.102 440.145 637.764 439.804C637.427 439.463 637.238 439.001 637.237 438.519ZM640.836 445.793C640.596 445.798 640.358 445.755 640.136 445.666C639.913 445.577 639.71 445.444 639.539 445.274C639.368 445.105 639.232 444.903 639.139 444.68C639.046 444.457 638.999 444.217 638.999 443.975C638.999 443.733 639.046 443.493 639.139 443.27C639.232 443.047 639.368 442.845 639.539 442.676C639.71 442.506 639.913 442.373 640.136 442.284C640.358 442.195 640.596 442.151 640.836 442.156H669.626C669.865 442.151 670.103 442.195 670.326 442.284C670.548 442.373 670.751 442.506 670.922 442.676C671.093 442.845 671.229 443.047 671.322 443.27C671.415 443.493 671.463 443.733 671.463 443.975C671.463 444.217 671.415 444.457 671.322 444.68C671.229 444.903 671.093 445.105 670.922 445.274C670.751 445.444 670.548 445.577 670.326 445.666C670.103 445.755 669.865 445.798 669.626 445.793H640.836ZM665.87 447.61L662.179 451.963L652.334 447.61H665.87ZM669.626 454.885H640.836C639.881 454.885 638.966 454.501 638.291 453.819C637.616 453.137 637.237 452.212 637.237 451.247C637.237 450.283 637.616 449.357 638.291 448.675C638.966 447.993 639.881 447.61 640.836 447.61H647.845L662.677 454.172L668.24 447.613H669.626C670.58 447.613 671.496 447.996 672.17 448.678C672.845 449.361 673.225 450.286 673.225 451.25C673.225 452.215 672.845 453.14 672.17 453.822C671.496 454.504 670.58 454.888 669.626 454.888V454.885ZM672.229 446.47C672.77 445.906 673.111 445.177 673.201 444.397C673.29 443.617 673.123 442.828 672.724 442.154H685.821V451.248H675.025C675.023 450.628 674.916 450.012 674.709 449.429H680.423V447.61H673.639C673.236 447.154 672.759 446.769 672.23 446.471L672.229 446.47ZM689.42 436.698H687.62V438.519H689.419V454.885H673.638C674.11 454.355 674.474 453.737 674.709 453.066H687.62V440.336H674.524C674.848 439.786 675.021 439.158 675.025 438.517H685.821V436.698H674.719C674.321 435.355 673.64 434.114 672.723 433.061H688.52C688.759 433.062 688.988 433.157 689.156 433.328C689.325 433.498 689.42 433.73 689.42 433.971V436.698Z" fill="#D7D8DA"/>
<path d="M684.019 447.61H682.22V449.429H684.019V447.61Z" fill="#D7D8DA"/>
<path d="M648.932 431.242H647.133V433.061H648.932V431.242Z" fill="#D7D8DA"/>
<path d="M652.531 433.061H650.731V434.88H652.531V433.061Z" fill="#D7D8DA"/>
<path d="M656.13 431.242H654.33V433.061H656.13V431.242Z" fill="#D7D8DA"/>
<path d="M661.527 433.971H659.728V435.789H661.527V433.971Z" fill="#D7D8DA"/>
<path d="M666.026 431.242H664.227V433.061H666.026V431.242Z" fill="#D7D8DA"/>
<path d="M643.535 434.879H641.735V436.698H643.535V434.879Z" fill="#D7D8DA"/>
<g filter="url(#filter6_d)">
<path d="M689.093 394.049L690.988 397.931L695.233 398.569L692.15 401.584L692.883 405.848L689.092 403.857L685.298 405.848L686.006 401.584L682.949 398.569L687.193 397.931L689.093 394.049Z" fill="#FEC925"/>
</g>
</g>
<defs>
<filter id="filter0_d" x="156.148" y="202.153" width="94.192" height="115.122" filterUnits="userSpaceOnUse" color-interpolation-filters="sRGB">
<feFlood flood-opacity="0" result="BackgroundImageFix"/>
<feColorMatrix in="SourceAlpha" type="matrix" values="0 0 0 0 0 0 0 0 0 0 0 0 0 0 0 0 0 0 127 0"/>
<feOffset dx="6" dy="5"/>
<feGaussianBlur stdDeviation="5"/>
<feColorMatrix type="matrix" values="0 0 0 0 0 0 0 0 0 0 0 0 0 0 0 0 0 0 0.239 0"/>
<feBlend mode="normal" in2="BackgroundImageFix" result="effect1_dropShadow"/>
<feBlend mode="normal" in="SourceGraphic" in2="effect1_dropShadow" result="shape"/>
</filter>
<filter id="filter1_d" x="359.795" y="458.387" width="72.4315" height="62.05" filterUnits="userSpaceOnUse" color-interpolation-filters="sRGB">
<feFlood flood-opacity="0" result="BackgroundImageFix"/>
<feColorMatrix in="SourceAlpha" type="matrix" values="0 0 0 0 0 0 0 0 0 0 0 0 0 0 0 0 0 0 127 0"/>
<feOffset dx="6" dy="3"/>
<feGaussianBlur stdDeviation="3"/>
<feColorMatrix type="matrix" values="0 0 0 0 0 0 0 0 0 0 0 0 0 0 0 0 0 0 0.161 0"/>
<feBlend mode="normal" in2="BackgroundImageFix" result="effect1_dropShadow"/>
<feBlend mode="normal" in="SourceGraphic" in2="effect1_dropShadow" result="shape"/>
</filter>
<filter id="filter2_d" x="702.165" y="403.168" width="61.838" height="75.9026" filterUnits="userSpaceOnUse" color-interpolation-filters="sRGB">
<feFlood flood-opacity="0" result="BackgroundImageFix"/>
<feColorMatrix in="SourceAlpha" type="matrix" values="0 0 0 0 0 0 0 0 0 0 0 0 0 0 0 0 0 0 127 0"/>
<feOffset dx="5" dy="5"/>
<feGaussianBlur stdDeviation="3"/>
<feColorMatrix type="matrix" values="0 0 0 0 0 0 0 0 0 0 0 0 0 0 0 0 0 0 0.302 0"/>
<feBlend mode="normal" in2="BackgroundImageFix" result="effect1_dropShadow"/>
<feBlend mode="normal" in="SourceGraphic" in2="effect1_dropShadow" result="shape"/>
</filter>
<filter id="filter3_d" x="626.47" y="514.706" width="88.6621" height="36.2618" filterUnits="userSpaceOnUse" color-interpolation-filters="sRGB">
<feFlood flood-opacity="0" result="BackgroundImageFix"/>
<feColorMatrix in="SourceAlpha" type="matrix" values="0 0 0 0 0 0 0 0 0 0 0 0 0 0 0 0 0 0 127 0"/>
<feOffset dx="4" dy="3"/>
<feGaussianBlur stdDeviation="3"/>
<feColorMatrix type="matrix" values="0 0 0 0 0 0 0 0 0 0 0 0 0 0 0 0 0 0 0.271 0"/>
<feBlend mode="normal" in2="BackgroundImageFix" result="effect1_dropShadow"/>
<feBlend mode="normal" in="SourceGraphic" in2="effect1_dropShadow" result="shape"/>
</filter>
<filter id="filter4_d" x="596.41" y="253.378" width="62.5507" height="63.0909" filterUnits="userSpaceOnUse" color-interpolation-filters="sRGB">
<feFlood flood-opacity="0" result="BackgroundImageFix"/>
<feColorMatrix in="SourceAlpha" type="matrix" values="0 0 0 0 0 0 0 0 0 0 0 0 0 0 0 0 0 0 127 0"/>
<feOffset dy="3"/>
<feGaussianBlur stdDeviation="3"/>
<feColorMatrix type="matrix" values="0 0 0 0 0 0 0 0 0 0 0 0 0 0 0 0 0 0 0.361 0"/>
<feBlend mode="normal" in2="BackgroundImageFix" result="effect1_dropShadow"/>
<feBlend mode="normal" in="SourceGraphic" in2="effect1_dropShadow" result="shape"/>
</filter>
<filter id="filter5_d" x="282.653" y="255.651" width="88.6622" height="36.2619" filterUnits="userSpaceOnUse" color-interpolation-filters="sRGB">
<feFlood flood-opacity="0" result="BackgroundImageFix"/>
<feColorMatrix in="SourceAlpha" type="matrix" values="0 0 0 0 0 0 0 0 0 0 0 0 0 0 0 0 0 0 127 0"/>
<feOffset dx="4" dy="3"/>
<feGaussianBlur stdDeviation="3"/>
<feColorMatrix type="matrix" values="0 0 0 0 0 0 0 0 0 0 0 0 0 0 0 0 0 0 0.271 0"/>
<feBlend mode="normal" in2="BackgroundImageFix" result="effect1_dropShadow"/>
<feBlend mode="normal" in="SourceGraphic" in2="effect1_dropShadow" result="shape"/>
</filter>
<filter id="filter6_d" x="680.949" y="392.049" width="18.2839" height="17.7998" filterUnits="userSpaceOnUse" color-interpolation-filters="sRGB">
<feFlood flood-opacity="0" result="BackgroundImageFix"/>
<feColorMatrix in="SourceAlpha" type="matrix" values="0 0 0 0 0 0 0 0 0 0 0 0 0 0 0 0 0 0 127 0"/>
<feOffset dx="1" dy="1"/>
<feGaussianBlur stdDeviation="1.5"/>
<feColorMatrix type="matrix" values="0 0 0 0 0 0 0 0 0 0 0 0 0 0 0 0 0 0 0.169 0"/>
<feBlend mode="normal" in2="BackgroundImageFix" result="effect1_dropShadow"/>
<feBlend mode="normal" in="SourceGraphic" in2="effect1_dropShadow" result="shape"/>
</filter>
</defs>
</svg>
