<svg width="752" height="127" viewBox="0 0 752 127" fill="none" xmlns="http://www.w3.org/2000/svg">
<path d="M306.096 2.49999H336.246C346.746 2.49999 354.346 5.34999 359.046 11.05C363.846 16.75 366.246 25.1 366.246 36.1C366.246 46 363.696 53.7 358.596 59.2C353.496 64.7 346.096 67.45 336.396 67.45H323.046V124H306.096V2.49999ZM330.846 55.3C335.846 55.3 339.696 54.75 342.396 53.65C345.196 52.55 347.196 50.65 348.396 47.95C349.596 45.25 350.196 41.35 350.196 36.25C350.196 30.05 349.746 25.5 348.846 22.6C347.946 19.7 346.146 17.65 343.446 16.45C340.846 15.25 336.696 14.65 330.996 14.65H323.046V55.3H330.846ZM389.567 2.49999H406.217V124H389.567V2.49999ZM465.324 125.5C454.324 125.5 446.374 122.05 441.474 115.15C436.574 108.15 434.124 97.8 434.124 84.1V43.45C434.124 34.05 435.074 26.35 436.974 20.35C438.974 14.25 442.324 9.59999 447.024 6.39999C451.824 3.09999 458.374 1.45 466.674 1.45C477.874 1.45 485.924 4.29999 490.824 9.99999C495.824 15.7 498.324 24.65 498.324 36.85V41.35H482.424V37.6C482.424 31.8 482.074 27.35 481.374 24.25C480.674 21.05 479.174 18.65 476.874 17.05C474.674 15.45 471.374 14.65 466.974 14.65C462.274 14.65 458.774 15.75 456.474 17.95C454.174 20.05 452.674 22.9 451.974 26.5C451.374 30.1 451.074 34.9 451.074 40.9V85.9C451.074 95.2 452.174 101.9 454.374 106C456.674 110 461.024 112 467.424 112C473.724 112 478.024 109.8 480.324 105.4C482.724 101 483.924 93.95 483.924 84.25V75.85H468.474V63.85H499.224V124H488.574L486.924 110.05C483.124 120.35 475.924 125.5 465.324 125.5ZM527.147 2.49999H574.247V15.1H544.097V55.3H568.547V67.3H544.097V111.85H574.547V124H527.147V2.49999ZM629.781 125.35C617.881 125.35 609.331 122 604.131 115.3C599.031 108.5 596.481 98.7 596.481 85.9V39.85C596.481 27.25 599.081 17.7 604.281 11.2C609.481 4.7 617.981 1.45 629.781 1.45C641.581 1.45 650.031 4.74999 655.131 11.35C660.331 17.85 662.931 27.35 662.931 39.85V86.05C662.931 98.65 660.331 108.35 655.131 115.15C649.931 121.95 641.481 125.35 629.781 125.35ZM629.781 112C636.081 112 640.331 110.15 642.531 106.45C644.731 102.75 645.831 97.15 645.831 89.65V36.4C645.831 29 644.731 23.55 642.531 20.05C640.331 16.45 636.081 14.65 629.781 14.65C623.381 14.65 619.081 16.45 616.881 20.05C614.681 23.55 613.581 29 613.581 36.4V89.65C613.581 97.15 614.681 102.75 616.881 106.45C619.081 110.15 623.381 112 629.781 112ZM690.091 2.49999H701.641L736.141 83.2V2.49999H750.241V124H739.441L704.491 41.05V124H690.091V2.49999Z" fill="black"/>
<path d="M1.45 2.49999V1.49999H0.45V2.49999H1.45ZM48.4 2.49999H49.4V1.49999H48.4V2.49999ZM48.4 14.65V15.65H49.4V14.65H48.4ZM18.4 14.65V13.65H17.4V14.65H18.4ZM18.4 55.15H17.4V56.15H18.4V55.15ZM41.65 55.15H42.65V54.15H41.65V55.15ZM41.65 67.15V68.15H42.65V67.15H41.65ZM18.4 67.15V66.15H17.4V67.15H18.4ZM18.4 124V125H19.4V124H18.4ZM1.45 124H0.45V125H1.45V124ZM1.45 3.49999H48.4V1.49999H1.45V3.49999ZM47.4 2.49999V14.65H49.4V2.49999H47.4ZM48.4 13.65H18.4V15.65H48.4V13.65ZM17.4 14.65V55.15H19.4V14.65H17.4ZM18.4 56.15H41.65V54.15H18.4V56.15ZM40.65 55.15V67.15H42.65V55.15H40.65ZM41.65 66.15H18.4V68.15H41.65V66.15ZM17.4 67.15V124H19.4V67.15H17.4ZM18.4 123H1.45V125H18.4V123ZM2.45 124V2.49999H0.45V124H2.45ZM87.107 2.49999V1.49999H86.2971L86.1288 2.29227L87.107 2.49999ZM103.457 2.49999L104.435 2.29112L104.266 1.49999H103.457V2.49999ZM129.407 124V125H130.643L130.385 123.791L129.407 124ZM113.357 124L112.373 124.178L112.522 125H113.357V124ZM107.807 93.4L108.791 93.2215L108.642 92.4H107.807V93.4ZM83.057 93.4V92.4H82.2301L82.0748 93.2122L83.057 93.4ZM77.207 124V125H78.034L78.1892 124.188L77.207 124ZM61.307 124L60.3288 123.792L60.0724 125H61.307V124ZM105.557 81.25V82.25H106.761L106.54 81.0668L105.557 81.25ZM95.357 26.5L96.3401 26.3168L94.3735 26.3195L95.357 26.5ZM85.307 81.25L84.3235 81.0695L84.1068 82.25H85.307V81.25ZM87.107 3.49999H103.457V1.49999H87.107V3.49999ZM102.479 2.70886L128.429 124.209L130.385 123.791L104.435 2.29112L102.479 2.70886ZM129.407 123H113.357V125H129.407V123ZM114.341 123.822L108.791 93.2215L106.823 93.5785L112.373 124.178L114.341 123.822ZM107.807 92.4H83.057V94.4H107.807V92.4ZM82.0748 93.2122L76.2248 123.812L78.1892 124.188L84.0392 93.5878L82.0748 93.2122ZM77.207 123H61.307V125H77.207V123ZM62.2852 124.208L88.0852 2.70771L86.1288 2.29227L60.3288 123.792L62.2852 124.208ZM106.54 81.0668L96.3401 26.3168L94.3739 26.6831L104.574 81.4332L106.54 81.0668ZM94.3735 26.3195L84.3235 81.0695L86.2906 81.4305L96.3406 26.6805L94.3735 26.3195ZM85.307 82.25H105.557V80.25H85.307V82.25ZM157.485 115.9L156.72 116.544L156.726 116.551L157.485 115.9ZM148.635 89.95L148.374 88.9846L147.593 89.1957L147.637 90.0045L148.635 89.95ZM163.635 85.9L164.633 85.836L164.555 84.6159L163.374 84.9346L163.635 85.9ZM168.135 104.8L167.248 105.262L167.252 105.269L167.256 105.276L168.135 104.8ZM190.785 108.4L190.049 107.723L190.048 107.724L190.785 108.4ZM191.085 85.3L191.929 84.7631L191.085 85.3ZM181.035 74.35L180.374 75.0999L180.379 75.1046L181.035 74.35ZM160.635 56.35L161.297 55.6002L161.295 55.5986L160.635 56.35ZM151.635 44.8L150.716 45.1939L150.722 45.2073L150.728 45.2205L151.635 44.8ZM156.585 8.8L157.278 9.5211L156.585 8.8ZM208.035 32.8L208.297 33.7652L209.109 33.5451L209.031 32.7069L208.035 32.8ZM193.635 36.7L192.638 36.7702L192.723 37.9831L193.897 37.6652L193.635 36.7ZM189.435 20.35L188.564 20.8413L188.572 20.8547L188.58 20.8678L189.435 20.35ZM167.535 17.95L168.226 18.6726L168.234 18.665L168.242 18.6571L167.535 17.95ZM165.885 37L164.984 37.4327L164.987 37.44L164.991 37.4472L165.885 37ZM172.035 44.35L172.694 43.5977L172.688 43.5926L172.035 44.35ZM192.585 62.35L193.249 61.6018L193.244 61.5978L192.585 62.35ZM205.185 77.65L204.314 78.1411L204.321 78.1529L205.185 77.65ZM201.885 117.55L202.579 118.27L201.885 117.55ZM180.885 124.35C170.904 124.35 163.412 121.278 158.244 115.249L156.726 116.551C162.359 123.122 170.466 126.35 180.885 126.35V124.35ZM158.25 115.256C153.131 109.17 150.226 100.752 149.634 89.8955L147.637 90.0045C148.244 101.148 151.24 110.03 156.72 116.544L158.25 115.256ZM148.896 90.9154L163.896 86.8654L163.374 84.9346L148.374 88.9846L148.896 90.9154ZM162.637 85.964C163.142 93.846 164.662 100.296 167.248 105.262L169.022 104.338C166.608 99.7037 165.128 93.554 164.633 85.836L162.637 85.964ZM167.256 105.276C168.634 107.821 170.473 109.768 172.781 111.071C175.084 112.372 177.799 113 180.885 113V111C178.072 111 175.711 110.428 173.764 109.329C171.822 108.232 170.236 106.579 169.014 104.324L167.256 105.276ZM180.885 113C185.463 113 189.073 111.748 191.522 109.076L190.048 107.724C188.097 109.852 185.108 111 180.885 111V113ZM191.521 109.077C194.043 106.335 195.235 102.511 195.235 97.75H193.235C193.235 102.189 192.127 105.465 190.049 107.723L191.521 109.077ZM195.235 97.75C195.235 92.6122 194.156 88.2627 191.929 84.7631L190.242 85.8369C192.215 88.9373 193.235 92.8878 193.235 97.75H195.235ZM191.929 84.7631C189.757 81.3498 186.328 77.6275 181.691 73.5954L180.379 75.1046C184.942 79.0725 188.214 82.6502 190.242 85.8369L191.929 84.7631ZM181.697 73.6002L161.297 55.6002L159.974 57.0998L180.374 75.0998L181.697 73.6002ZM161.295 55.5986C157.278 52.0718 154.373 48.3298 152.542 44.3795L150.728 45.2205C152.697 49.4702 155.792 53.4282 159.975 57.1014L161.295 55.5986ZM152.554 44.4061C150.822 40.3629 149.935 35.4049 149.935 29.5H147.935C147.935 35.5951 148.849 40.837 150.716 45.1939L152.554 44.4061ZM149.935 29.5C149.935 20.7976 152.422 14.1865 157.278 9.5211L155.892 8.0789C150.548 13.2135 147.935 20.4024 147.935 29.5H149.935ZM157.278 9.5211C162.149 4.84127 168.827 2.45 177.435 2.45V0.449997C168.443 0.449997 161.221 2.95872 155.892 8.0789L157.278 9.5211ZM177.435 2.45C186.863 2.45 193.812 4.95132 198.464 9.79282L199.906 8.40717C194.758 3.04867 187.207 0.449997 177.435 0.449997V2.45ZM198.464 9.79282C203.144 14.6641 206.05 22.3068 207.04 32.893L209.031 32.7069C208.02 21.8932 205.026 13.7359 199.906 8.40717L198.464 9.79282ZM207.774 31.8348L193.374 35.7348L193.897 37.6652L208.297 33.7652L207.774 31.8348ZM194.633 36.6297C194.128 29.4566 192.708 23.8259 190.291 19.8322L188.58 20.8678C190.762 24.4741 192.143 29.7434 192.638 36.7702L194.633 36.6297ZM190.306 19.8587C187.876 15.5501 183.473 13.5 177.435 13.5V15.5C182.997 15.5 186.595 17.3499 188.564 20.8413L190.306 19.8587ZM177.435 13.5C172.958 13.5 169.37 14.7009 166.828 17.2429L168.242 18.6571C170.3 16.5991 173.312 15.5 177.435 15.5V13.5ZM166.844 17.2274C164.281 19.6791 163.085 23.2842 163.085 27.85H165.085C165.085 23.6157 166.19 20.6209 168.226 18.6726L166.844 17.2274ZM163.085 27.85C163.085 31.5568 163.702 34.7637 164.984 37.4327L166.787 36.5673C165.668 34.2363 165.085 31.3432 165.085 27.85H163.085ZM164.991 37.4472C166.269 40.0047 168.421 42.555 171.382 45.1074L172.688 43.5926C169.849 41.1449 167.901 38.7953 166.78 36.5528L164.991 37.4472ZM171.376 45.1022L191.926 63.1022L193.244 61.5978L172.694 43.5978L171.376 45.1022ZM191.922 63.0982C197.149 67.7335 201.275 72.7487 204.314 78.141L206.056 77.159C202.896 71.5513 198.622 66.3665 193.249 61.6018L191.922 63.0982ZM204.321 78.1529C207.423 83.4852 208.985 89.5585 208.985 96.4H210.985C210.985 89.2415 209.347 82.8148 206.049 77.1471L204.321 78.1529ZM208.985 96.4C208.985 105.083 206.359 111.853 201.192 116.83L202.579 118.27C208.211 112.847 210.985 105.517 210.985 96.4H208.985ZM201.192 116.83C196.005 121.824 189.268 124.35 180.885 124.35V126.35C189.703 126.35 196.965 123.676 202.579 118.27L201.192 116.83ZM246.984 15.1H247.984V14.1H246.984V15.1ZM226.434 15.1H225.434V16.1H226.434V15.1ZM226.434 2.49999V1.49999H225.434V2.49999H226.434ZM283.884 2.49999H284.884V1.49999H283.884V2.49999ZM283.884 15.1V16.1H284.884V15.1H283.884ZM263.934 15.1V14.1H262.934V15.1H263.934ZM263.934 124V125H264.934V124H263.934ZM246.984 124H245.984V125H246.984V124ZM246.984 14.1H226.434V16.1H246.984V14.1ZM227.434 15.1V2.49999H225.434V15.1H227.434ZM226.434 3.49999H283.884V1.49999H226.434V3.49999ZM282.884 2.49999V15.1H284.884V2.49999H282.884ZM283.884 14.1H263.934V16.1H283.884V14.1ZM262.934 15.1V124H264.934V15.1H262.934ZM263.934 123H246.984V125H263.934V123ZM247.984 124V15.1H245.984V124H247.984ZM306.096 2.49999V1.49999H305.096V2.49999H306.096ZM359.046 11.05L358.275 11.6862L358.282 11.6941L359.046 11.05ZM323.046 67.45V66.45H322.046V67.45H323.046ZM323.046 124V125H324.046V124H323.046ZM306.096 124H305.096V125H306.096V124ZM342.396 53.65L342.031 52.7192L342.019 52.7239L342.396 53.65ZM348.396 47.95L349.31 48.3561L348.396 47.95ZM348.846 22.6L349.802 22.3036L348.846 22.6ZM343.446 16.45L343.027 17.358L343.034 17.3609L343.04 17.3638L343.446 16.45ZM323.046 14.65V13.65H322.046V14.65H323.046ZM323.046 55.3H322.046V56.3H323.046V55.3ZM306.096 3.49999H336.246V1.49999H306.096V3.49999ZM336.246 3.49999C346.579 3.49999 353.835 6.30148 358.275 11.6862L359.818 10.4138C354.858 4.39851 346.914 1.49999 336.246 1.49999V3.49999ZM358.282 11.6941C362.872 17.1451 365.246 25.2268 365.246 36.1H367.246C367.246 24.9732 364.821 16.3549 359.811 10.4059L358.282 11.6941ZM365.246 36.1C365.246 45.8305 362.743 53.2578 357.863 58.5201L359.33 59.8799C364.65 54.1422 367.246 46.1695 367.246 36.1H365.246ZM357.863 58.5201C353.004 63.7603 345.904 66.45 336.396 66.45V68.45C346.289 68.45 353.989 65.6397 359.33 59.8799L357.863 58.5201ZM336.396 66.45H323.046V68.45H336.396V66.45ZM322.046 67.45V124H324.046V67.45H322.046ZM323.046 123H306.096V125H323.046V123ZM307.096 124V2.49999H305.096V124H307.096ZM330.846 56.3C335.897 56.3 339.898 55.7478 342.774 54.5761L342.019 52.7239C339.495 53.7522 335.796 54.3 330.846 54.3V56.3ZM342.762 54.5807C345.802 53.3866 348.001 51.3011 349.31 48.3561L347.483 47.5439C346.392 49.9989 344.591 51.7134 342.031 52.7192L342.762 54.5807ZM349.31 48.3561C350.594 45.4673 351.197 41.4028 351.197 36.25H349.197C349.197 41.2972 348.599 45.0327 347.483 47.5439L349.31 48.3561ZM351.197 36.25C351.197 30.0314 350.749 25.3549 349.802 22.3036L347.891 22.8964C348.744 25.6451 349.197 30.0686 349.197 36.25H351.197ZM349.802 22.3036C348.819 19.137 346.824 16.8569 343.853 15.5362L343.04 17.3638C345.469 18.4431 347.074 20.263 347.891 22.8964L349.802 22.3036ZM343.866 15.542C341.059 14.2468 336.726 13.65 330.996 13.65V15.65C336.667 15.65 340.634 16.2532 343.027 17.358L343.866 15.542ZM330.996 13.65H323.046V15.65H330.996V13.65ZM322.046 14.65V55.3H324.046V14.65H322.046ZM323.046 56.3H330.846V54.3H323.046V56.3ZM389.567 2.49999V1.49999H388.567V2.49999H389.567ZM406.217 2.49999H407.217V1.49999H406.217V2.49999ZM406.217 124V125H407.217V124H406.217ZM389.567 124H388.567V125H389.567V124ZM389.567 3.49999H406.217V1.49999H389.567V3.49999ZM405.217 2.49999V124H407.217V2.49999H405.217ZM406.217 123H389.567V125H406.217V123ZM390.567 124V2.49999H388.567V124H390.567ZM441.474 115.15L440.655 115.723L440.659 115.729L441.474 115.15ZM436.974 20.35L436.024 20.0384L436.02 20.0481L436.974 20.35ZM447.024 6.39999L447.587 7.2266L447.59 7.22404L447.024 6.39999ZM490.824 9.99999L490.065 10.6519L490.072 10.6594L490.824 9.99999ZM498.324 41.35V42.35H499.324V41.35H498.324ZM482.424 41.35H481.424V42.35H482.424V41.35ZM481.374 24.25L480.397 24.4637L480.398 24.4703L481.374 24.25ZM476.874 17.05L476.286 17.8587L476.294 17.8649L476.303 17.8709L476.874 17.05ZM456.474 17.95L457.148 18.6885L457.157 18.6807L457.165 18.6726L456.474 17.95ZM451.974 26.5L450.992 26.3091L450.99 26.3223L450.987 26.3356L451.974 26.5ZM454.374 106L453.493 106.473L453.5 106.486L453.507 106.498L454.374 106ZM480.324 105.4L479.446 104.921L479.442 104.929L479.438 104.937L480.324 105.4ZM483.924 75.85H484.924V74.85H483.924V75.85ZM468.474 75.85H467.474V76.85H468.474V75.85ZM468.474 63.85V62.85H467.474V63.85H468.474ZM499.224 63.85H500.224V62.85H499.224V63.85ZM499.224 124V125H500.224V124H499.224ZM488.574 124L487.581 124.117L487.685 125H488.574V124ZM486.924 110.05L487.917 109.933L485.986 109.704L486.924 110.05ZM465.324 124.5C454.54 124.5 446.947 121.13 442.289 114.571L440.659 115.729C445.801 122.97 454.107 126.5 465.324 126.5V124.5ZM442.293 114.577C437.562 107.818 435.124 97.7085 435.124 84.1H433.124C433.124 97.8915 435.585 108.482 440.655 115.723L442.293 114.577ZM435.124 84.1V43.45H433.124V84.1H435.124ZM435.124 43.45C435.124 34.1071 436.069 26.5188 437.927 20.6519L436.02 20.0481C434.078 26.1812 433.124 33.9929 433.124 43.45H435.124ZM437.924 20.6615C439.865 14.7428 443.092 10.2865 447.587 7.22659L446.461 5.57339C441.555 8.91347 438.083 13.7571 436.024 20.0384L437.924 20.6615ZM447.59 7.22404C452.167 4.07786 458.494 2.45 466.674 2.45V0.449997C458.254 0.449997 451.481 2.12213 446.457 5.57595L447.59 7.22404ZM466.674 2.45C477.727 2.45 485.433 5.26314 490.066 10.6519L491.582 9.34811C486.415 3.33685 478.02 0.449997 466.674 0.449997V2.45ZM490.072 10.6594C494.839 16.0942 497.324 24.7534 497.324 36.85H499.324C499.324 24.5466 496.808 15.3058 491.576 9.34055L490.072 10.6594ZM497.324 36.85V41.35H499.324V36.85H497.324ZM498.324 40.35H482.424V42.35H498.324V40.35ZM483.424 41.35V37.6H481.424V41.35H483.424ZM483.424 37.6C483.424 31.7759 483.074 27.2384 482.349 24.0297L480.398 24.4703C481.074 27.4616 481.424 31.8241 481.424 37.6H483.424ZM482.351 24.0363C481.607 20.6344 479.986 17.9971 477.445 16.2291L476.303 17.8709C478.361 19.3029 479.741 21.4656 480.397 24.4637L482.351 24.0363ZM477.462 16.2413C475.015 14.4613 471.465 13.65 466.974 13.65V15.65C471.282 15.65 474.333 16.4387 476.286 17.8587L477.462 16.2413ZM466.974 13.65C462.138 13.65 458.341 14.7802 455.783 17.2274L457.165 18.6726C459.207 16.7198 462.41 15.65 466.974 15.65V13.65ZM455.8 17.2115C453.314 19.4808 451.726 22.537 450.992 26.3091L452.955 26.6909C453.622 23.263 455.034 20.6192 457.148 18.6885L455.8 17.2115ZM450.987 26.3356C450.374 30.0133 450.074 34.8752 450.074 40.9H452.074C452.074 34.9248 452.373 30.1867 452.96 26.6644L450.987 26.3356ZM450.074 40.9V85.9H452.074V40.9H450.074ZM450.074 85.9C450.074 95.2312 451.169 102.143 453.493 106.473L455.255 105.527C453.178 101.657 452.074 95.1687 452.074 85.9H450.074ZM453.507 106.498C456.051 110.923 460.821 113 467.424 113V111C461.226 111 457.296 109.077 455.241 105.502L453.507 106.498ZM467.424 113C473.978 113 478.689 110.686 481.21 105.863L479.438 104.937C477.359 108.914 473.47 111 467.424 111V113ZM481.202 105.879C483.727 101.25 484.924 93.9882 484.924 84.25H482.924C482.924 93.9118 481.721 100.75 479.446 104.921L481.202 105.879ZM484.924 84.25V75.85H482.924V84.25H484.924ZM483.924 74.85H468.474V76.85H483.924V74.85ZM469.474 75.85V63.85H467.474V75.85H469.474ZM468.474 64.85H499.224V62.85H468.474V64.85ZM498.224 63.85V124H500.224V63.85H498.224ZM499.224 123H488.574V125H499.224V123ZM489.567 123.883L487.917 109.933L485.931 110.167L487.581 124.117L489.567 123.883ZM485.986 109.704C484.138 114.711 481.494 118.391 478.092 120.824C474.693 123.255 470.457 124.5 465.324 124.5V126.5C470.79 126.5 475.455 125.17 479.256 122.451C483.054 119.734 485.909 115.689 487.862 110.396L485.986 109.704ZM527.147 2.49999V1.49999H526.147V2.49999H527.147ZM574.247 2.49999H575.247V1.49999H574.247V2.49999ZM574.247 15.1V16.1H575.247V15.1H574.247ZM544.097 15.1V14.1H543.097V15.1H544.097ZM544.097 55.3H543.097V56.3H544.097V55.3ZM568.547 55.3H569.547V54.3H568.547V55.3ZM568.547 67.3V68.3H569.547V67.3H568.547ZM544.097 67.3V66.3H543.097V67.3H544.097ZM544.097 111.85H543.097V112.85H544.097V111.85ZM574.547 111.85H575.547V110.85H574.547V111.85ZM574.547 124V125H575.547V124H574.547ZM527.147 124H526.147V125H527.147V124ZM527.147 3.49999H574.247V1.49999H527.147V3.49999ZM573.247 2.49999V15.1H575.247V2.49999H573.247ZM574.247 14.1H544.097V16.1H574.247V14.1ZM543.097 15.1V55.3H545.097V15.1H543.097ZM544.097 56.3H568.547V54.3H544.097V56.3ZM567.547 55.3V67.3H569.547V55.3H567.547ZM568.547 66.3H544.097V68.3H568.547V66.3ZM543.097 67.3V111.85H545.097V67.3H543.097ZM544.097 112.85H574.547V110.85H544.097V112.85ZM573.547 111.85V124H575.547V111.85H573.547ZM574.547 123H527.147V125H574.547V123ZM528.147 124V2.49999H526.147V124H528.147ZM604.131 115.3L603.331 115.9L603.336 115.907L603.341 115.913L604.131 115.3ZM604.281 11.2L603.5 10.5753L604.281 11.2ZM655.131 11.35L654.34 11.9614L654.345 11.9681L654.35 11.9747L655.131 11.35ZM655.131 115.15L654.337 114.543L655.131 115.15ZM642.531 106.45L643.391 106.961L642.531 106.45ZM642.531 20.05L641.678 20.5715L641.685 20.5822L642.531 20.05ZM616.881 20.05L617.728 20.5822L617.735 20.5714L616.881 20.05ZM616.881 106.45L617.741 105.939L616.881 106.45ZM629.781 124.35C618.058 124.35 609.864 121.055 604.921 114.687L603.341 115.913C608.799 122.945 617.704 126.35 629.781 126.35V124.35ZM604.931 114.7C600.012 108.141 597.481 98.5875 597.481 85.9H595.481C595.481 98.8125 598.051 108.859 603.331 115.9L604.931 114.7ZM597.481 85.9V39.85H595.481V85.9H597.481ZM597.481 39.85C597.481 27.3657 600.061 18.0765 605.062 11.8247L603.5 10.5753C598.102 17.3235 595.481 27.1343 595.481 39.85H597.481ZM605.062 11.8247C610.003 5.64923 618.152 2.45 629.781 2.45V0.449997C617.81 0.449997 608.96 3.75076 603.5 10.5753L605.062 11.8247ZM629.781 2.45C641.407 2.45 649.499 5.69681 654.34 11.9614L655.923 10.7385C650.563 3.80318 641.755 0.449997 629.781 0.449997V2.45ZM654.35 11.9747C659.353 18.2277 661.931 27.468 661.931 39.85H663.931C663.931 27.232 661.31 17.4723 655.912 10.7253L654.35 11.9747ZM661.931 39.85V86.05H663.931V39.85H661.931ZM661.931 86.05C661.931 98.5299 659.354 107.982 654.337 114.543L655.926 115.757C661.309 108.718 663.931 98.7701 663.931 86.05H661.931ZM654.337 114.543C649.39 121.012 641.292 124.35 629.781 124.35V126.35C641.67 126.35 650.473 122.888 655.926 115.757L654.337 114.543ZM629.781 113C636.255 113 640.935 111.091 643.391 106.961L641.672 105.939C639.728 109.209 635.907 111 629.781 111V113ZM643.391 106.961C645.728 103.03 646.831 97.2134 646.831 89.65H644.831C644.831 97.0866 643.734 102.47 641.672 105.939L643.391 106.961ZM646.831 89.65V36.4H644.831V89.65H646.831ZM646.831 36.4C646.831 28.9405 645.73 23.2593 643.378 19.5178L641.685 20.5822C643.733 23.8407 644.831 29.0595 644.831 36.4H646.831ZM643.385 19.5285C640.924 15.5016 636.244 13.65 629.781 13.65V15.65C635.918 15.65 639.739 17.3984 641.678 20.5714L643.385 19.5285ZM629.781 13.65C623.226 13.65 618.492 15.4973 616.028 19.5285L617.735 20.5714C619.671 17.4027 623.537 15.65 629.781 15.65V13.65ZM616.035 19.5178C613.683 23.2593 612.581 28.9405 612.581 36.4H614.581C614.581 29.0595 615.68 23.8407 617.728 20.5822L616.035 19.5178ZM612.581 36.4V89.65H614.581V36.4H612.581ZM612.581 89.65C612.581 97.2134 613.684 103.03 616.022 106.961L617.741 105.939C615.678 102.47 614.581 97.0866 614.581 89.65H612.581ZM616.022 106.961C618.48 111.096 623.215 113 629.781 113V111C623.548 111 619.682 109.204 617.741 105.939L616.022 106.961ZM690.091 2.49999V1.49999H689.091V2.49999H690.091ZM701.641 2.49999L702.56 2.1069L702.301 1.49999H701.641V2.49999ZM736.141 83.2L735.221 83.5931L737.141 83.2H736.141ZM736.141 2.49999V1.49999H735.141V2.49999H736.141ZM750.241 2.49999H751.241V1.49999H750.241V2.49999ZM750.241 124V125H751.241V124H750.241ZM739.441 124L738.519 124.388L738.777 125H739.441V124ZM704.491 41.05L705.412 40.6617L703.491 41.05H704.491ZM704.491 124V125H705.491V124H704.491ZM690.091 124H689.091V125H690.091V124ZM690.091 3.49999H701.641V1.49999H690.091V3.49999ZM700.721 2.89309L735.221 83.5931L737.06 82.8069L702.56 2.1069L700.721 2.89309ZM737.141 83.2V2.49999H735.141V83.2H737.141ZM736.141 3.49999H750.241V1.49999H736.141V3.49999ZM749.241 2.49999V124H751.241V2.49999H749.241ZM750.241 123H739.441V125H750.241V123ZM740.362 123.612L705.412 40.6617L703.569 41.4383L738.519 124.388L740.362 123.612ZM703.491 41.05V124H705.491V41.05H703.491ZM704.491 123H690.091V125H704.491V123ZM691.091 124V2.49999H689.091V124H691.091Z" fill="black"/>
</svg>
