<svg width="182" height="244" viewBox="0 0 182 244" fill="none" xmlns="http://www.w3.org/2000/svg">
<g filter="url(#filter0_d)">
<path d="M122.788 32.0344C122.788 14.5006 108.25 0.286655 90.3161 0.286655C72.3821 0.286655 57.8438 14.5006 57.8438 32.0344C57.8438 49.5683 72.3821 63.7822 90.3161 63.7822C108.25 63.7822 122.788 49.5683 122.788 32.0344Z" fill="#1790A4"/>
<path d="M52.5897 109.586C59.0041 93.5435 75.6038 81.8259 93.2081 81.2053C110.812 80.5847 128.357 91.2573 135.304 107.082C138.103 113.458 138.888 121.744 133.794 126.574C129.138 130.986 119.612 128.675 113.79 129.885C110.937 130.479 108.248 131.668 107.718 134.756C106.913 139.456 111.721 143.32 115.511 145.19C117.942 146.388 120.576 147.434 122.337 149.465C122.72 149.839 123.012 150.294 123.19 150.795C123.368 151.295 123.427 151.828 123.365 152.355C123.063 153.699 121.618 154.43 120.654 155.435C119.476 156.788 118.878 158.534 118.985 160.308C119.274 173.925 118.701 187.557 121.027 201.221C121.472 203.833 121.975 206.572 121.091 209.074C120.207 211.575 117.363 213.639 114.829 212.712C112.221 211.762 111.515 208.518 111.386 205.798C111.027 198.058 112.15 190.2 110.625 182.592C109.554 177.256 107.74 172.454 104.051 168.252C102.903 166.946 101.141 165.642 99.5358 166.361C97.8114 167.136 97.8308 169.498 98.1169 171.334L101.95 195.754C102.158 196.495 102.088 197.284 101.755 197.98C101.099 198.997 99.4472 198.938 98.5065 198.161C97.6415 197.296 97.0697 196.192 96.8685 194.999C95.5313 189.897 95.0244 184.621 95.3666 179.365C95.5712 177.888 95.5219 176.389 95.2207 174.929C95.0581 174.2 94.6835 173.532 94.142 173.006C93.6006 172.48 92.9153 172.118 92.1685 171.964C91.0159 178.736 92.1076 184.846 93.0776 191.509C94.0679 198.42 94.2218 205.421 93.5362 212.367C93.2336 215.503 91.0298 236.285 85.3028 234.084C83.1808 233.267 83.2911 230.329 83.7836 228.151C84.5066 224.944 85.2309 221.737 85.9564 218.53C86.3697 217.208 86.4492 215.808 86.188 214.45C85.817 213.122 84.531 211.93 83.1378 212.135C81.5053 212.378 80.7134 214.296 80.7929 215.908C80.8723 217.52 81.4917 219.106 81.324 220.713C81.1563 222.321 79.6765 224.009 78.0951 223.542C76.2877 223.009 76.2748 220.541 76.6 218.724C77.5714 213.513 78.1995 208.245 78.4803 202.954C78.6966 198.267 79.9417 193.652 79.8109 188.855C79.7816 187.71 79.5862 186.376 78.5628 185.822C78.0574 185.615 77.4953 185.583 76.9687 185.73C76.4422 185.878 75.9824 186.195 75.6647 186.631C75.0533 187.522 74.6633 188.54 74.5259 189.604C72.6621 198.467 70.2224 207.269 70.9529 216.394C71.16 217.698 71.108 219.028 70.7996 220.312C69.8193 223.296 66.5133 223.079 65.4286 220.314C64.5117 217.972 64.9514 214.359 65.0606 211.906C65.349 205.394 66.8908 199.016 68.2816 192.666C69.2718 188.488 70.035 184.261 70.5682 180.004C70.9616 176.367 71.6733 171.509 70.5121 167.998C68.8002 168.865 67.9895 170.845 67.7627 172.716C67.5358 174.587 67.7501 176.498 67.4125 178.354C67.0749 180.209 65.9958 182.12 64.1579 182.683C63.7239 182.35 63.2899 182.017 62.8559 181.684C64.0473 177.544 65.2491 173.322 65.081 169.022C64.9962 166.823 64.5559 164.65 64.4384 162.455C64.2945 159.712 65.2082 157.2 65.5729 154.54C66.0153 151.331 66.4078 146.948 68.7848 144.428C70.9229 142.169 76.0081 142.587 77.3002 139.778C77.5163 139.184 77.5495 138.541 77.3956 137.928C77.2418 137.316 76.9076 136.761 76.4345 136.332C75.4722 135.492 74.3242 134.88 73.0803 134.545C69.0781 133.213 64.8589 132.499 60.98 130.856C51.7609 126.938 49.0738 118.38 52.5897 109.586Z" fill="#1790A4"/>
</g>
<defs>
<filter id="filter0_d" x="47.1025" y="0.286621" width="94.4125" height="241.96" filterUnits="userSpaceOnUse" color-interpolation-filters="sRGB">
<feFlood flood-opacity="0" result="BackgroundImageFix"/>
<feColorMatrix in="SourceAlpha" type="matrix" values="0 0 0 0 0 0 0 0 0 0 0 0 0 0 0 0 0 0 127 0"/>
<feOffset dy="4"/>
<feGaussianBlur stdDeviation="2"/>
<feColorMatrix type="matrix" values="0 0 0 0 0 0 0 0 0 0 0 0 0 0 0 0 0 0 0.25 0"/>
<feBlend mode="normal" in2="BackgroundImageFix" result="effect1_dropShadow"/>
<feBlend mode="normal" in="SourceGraphic" in2="effect1_dropShadow" result="shape"/>
</filter>
</defs>
</svg>
