<svg width="181" height="255" viewBox="0 0 181 255" fill="none" xmlns="http://www.w3.org/2000/svg">
<path d="M122.309 222.609C122.309 205.075 107.771 190.861 89.8366 190.861C71.9026 190.861 57.3643 205.075 57.3643 222.609C57.3643 240.143 71.9026 254.356 89.8366 254.356C107.771 254.356 122.309 240.143 122.309 222.609Z" fill="#16C131"/>
<path d="M128.936 132.838C122.804 148.989 106.409 160.986 88.8148 161.903C71.2204 162.819 53.4875 152.44 46.262 136.731C43.351 130.402 42.4199 122.129 47.4294 117.213C52.0076 112.723 61.5756 114.874 67.3759 113.565C70.2191 112.924 72.8871 111.69 73.3632 108.592C74.0854 103.878 69.2097 100.095 65.3861 98.2889C62.9344 97.1312 60.281 96.1295 58.4843 94.1286C58.0946 93.7603 57.7952 93.3105 57.6085 92.813C57.4218 92.3155 57.3527 91.7831 57.4063 91.2558C57.6839 89.906 59.1162 89.1511 60.0628 88.1301C61.2175 86.7571 61.7848 85.001 61.646 83.2287C61.1184 69.6153 61.4519 55.9727 58.8855 42.3475C58.3945 39.7429 57.8427 37.0121 58.6832 34.4953C59.5237 31.9785 62.3308 29.8667 64.8811 30.751C67.506 31.658 68.2694 34.8903 68.446 37.6077C68.9411 45.3429 67.9564 53.2198 69.615 60.8026C70.7802 66.1208 72.6782 70.8923 76.4416 75.0327C77.612 76.3202 79.3977 77.5942 80.9902 76.8487C82.701 76.0443 82.6401 73.682 82.3218 71.8514L78.0593 47.4944C77.8386 46.7567 77.8938 45.9662 78.2151 45.2646C78.8534 44.237 80.5063 44.2683 81.4607 45.0287C82.3408 45.8792 82.9321 46.9738 83.1543 48.164C84.5812 53.2437 85.1808 58.5115 84.931 63.7736C84.7523 65.2535 84.828 66.7521 85.1548 68.2075C85.3303 68.934 85.7167 69.5954 86.2674 70.1123C86.8182 70.6293 87.5098 70.9797 88.2594 71.1216C89.293 64.3291 88.0938 58.2377 87.0067 51.5898C85.8949 44.6953 85.6179 37.6967 86.1815 30.7389C86.429 27.5973 88.2677 6.77764 94.0337 8.88212C96.1701 9.66374 96.1114 12.6032 95.6572 14.7898C94.9905 18.0091 94.3226 21.2286 93.6534 24.4482C93.2633 25.7769 93.2084 27.1783 93.4935 28.5323C93.8879 29.8544 95.1949 31.0248 96.5845 30.7963C98.2129 30.5254 98.9711 28.5944 98.8633 26.9833C98.7555 25.3723 98.1082 23.7972 98.2477 22.1869C98.3872 20.5767 99.8373 18.8635 101.427 19.3037C103.244 19.8067 103.3 22.2739 103.007 24.0964C102.127 29.3249 101.591 34.6034 101.404 39.899C101.27 44.5908 100.106 49.2269 100.321 54.0216C100.37 55.1662 100.589 56.4969 101.622 57.0342C102.131 57.2318 102.694 57.2545 103.218 57.0985C103.742 56.9425 104.196 56.6171 104.506 56.1756C105.102 55.2748 105.474 54.2503 105.593 53.1838C107.301 44.2889 109.586 35.4455 108.695 26.3319C108.465 25.032 108.494 23.7009 108.78 22.4115C109.708 19.4103 113.018 19.5723 114.151 22.3193C115.109 24.6455 114.733 28.2666 114.667 30.721C114.493 37.2385 113.063 43.6429 111.784 50.0163C110.867 54.2117 110.178 58.4515 109.72 62.7181C109.39 66.3616 108.764 71.2315 109.987 74.7232C111.683 73.8272 112.459 71.8345 112.653 69.9592C112.847 68.084 112.599 66.1766 112.904 64.3154C113.209 62.4542 114.255 60.5248 116.083 59.9306C116.523 60.2565 116.963 60.5823 117.403 60.9082C116.284 65.0686 115.156 69.3109 115.4 73.6082C115.523 75.8058 116.002 77.9714 116.158 80.165C116.35 82.9054 115.481 85.4331 115.163 88.0992C114.777 91.3164 114.461 95.7055 112.128 98.2662C110.03 100.561 104.937 100.228 103.694 103.059C103.488 103.657 103.467 104.301 103.631 104.911C103.796 105.521 104.14 106.07 104.62 106.491C105.598 107.315 106.756 107.908 108.006 108.222C112.032 109.487 116.264 110.13 120.172 111.708C129.46 115.471 132.298 123.984 128.936 132.838Z" fill="#16C131"/>
</svg>
