<svg width="411" height="106" viewBox="0 0 411 106" fill="none" xmlns="http://www.w3.org/2000/svg">
<path d="M10.3877 12.8877H2.72852L0.988281 17.5605H0.354492L6.20898 1.91992H6.91797L12.7725 17.5605H12.1387L10.3877 12.8877ZM2.94336 12.3076H10.1729L6.56348 2.61816L2.94336 12.3076ZM26.2449 17.5605C26.1017 17.0664 26.03 16.3574 26.03 15.4336C25.5717 16.1784 24.9451 16.7549 24.1502 17.1631C23.3552 17.5713 22.4565 17.7754 21.4539 17.7754C20.3796 17.7754 19.5131 17.4854 18.8543 16.9053C18.2026 16.318 17.8767 15.5553 17.8767 14.6172C17.8767 13.5501 18.3565 12.6979 19.3162 12.0605C20.283 11.416 21.5649 11.0866 23.1619 11.0723H26.03V9.375C26.03 8.40104 25.7221 7.64551 25.1062 7.1084C24.4975 6.57129 23.6238 6.30273 22.4851 6.30273C21.4252 6.30273 20.5408 6.57487 19.8318 7.11914C19.1228 7.66341 18.7683 8.33659 18.7683 9.13867L18.1882 9.11719C18.1882 8.17188 18.6036 7.36979 19.4343 6.71094C20.2651 6.05208 21.282 5.72266 22.4851 5.72266C23.7384 5.72266 24.7338 6.03776 25.4714 6.66797C26.2091 7.29102 26.5886 8.17188 26.6101 9.31055V14.8643C26.6101 16.139 26.7104 17.0055 26.9109 17.4639V17.5605H26.2449ZM21.4539 17.2061C22.5424 17.2061 23.477 16.9626 24.2576 16.4756C25.0453 15.9886 25.6362 15.3047 26.03 14.4238V11.6631H23.3445C21.683 11.6631 20.4119 11.9925 19.531 12.6514C18.8149 13.1885 18.4568 13.8581 18.4568 14.6602C18.4568 15.3691 18.7397 15.9707 19.3054 16.4648C19.8712 16.959 20.5873 17.2061 21.4539 17.2061ZM43.4036 17.5605V1.91992H47.5179C49.2008 1.91992 50.472 2.26367 51.3313 2.95117C52.1979 3.63151 52.6311 4.62337 52.6311 5.92676C52.6311 6.87207 52.3912 7.65625 51.9114 8.2793C51.4316 8.90234 50.7548 9.2998 49.8811 9.47168C50.8694 9.60059 51.693 10.0303 52.3518 10.7607C53.0107 11.484 53.3401 12.3148 53.3401 13.2529C53.3401 14.585 52.9069 15.6377 52.0403 16.4111C51.1809 17.1774 49.9814 17.5605 48.4417 17.5605H43.4036ZM43.9837 9.83691V16.9805H48.5061C49.831 16.9805 50.8694 16.6546 51.6214 16.0029C52.3805 15.3441 52.76 14.4346 52.76 13.2744C52.76 12.2861 52.3948 11.4733 51.6643 10.8359C50.9339 10.1914 49.9563 9.8584 48.7317 9.83691H43.9837ZM43.9837 9.25684H47.7327C49.1578 9.25684 50.232 8.9847 50.9554 8.44043C51.6787 7.889 52.0403 7.03678 52.0403 5.88379C52.0403 3.66374 50.5758 2.53581 47.6468 2.5H43.9837V9.25684ZM69.0039 11.8564C69.0039 13.6683 68.6136 15.1077 67.833 16.1748C67.0524 17.2419 65.989 17.7754 64.6426 17.7754C63.7689 17.7754 62.9883 17.5964 62.3008 17.2383C61.6133 16.873 61.0726 16.3682 60.6787 15.7236V17.5605H60.0987V1.06055H60.6787V8.05371C61.087 7.28743 61.6241 6.70736 62.2901 6.31348C62.9633 5.9196 63.7403 5.72266 64.6211 5.72266C65.9818 5.72266 67.0524 6.24544 67.833 7.29102C68.6136 8.32943 69.0039 9.79036 69.0039 11.6738V11.8564ZM68.4024 11.6309C68.4024 9.96224 68.0694 8.65885 67.4034 7.7207C66.7445 6.77539 65.8207 6.30273 64.6319 6.30273C63.6579 6.30273 62.8308 6.55339 62.1504 7.05469C61.4773 7.55599 60.9867 8.30078 60.6787 9.28906V14.6172C60.9867 15.4408 61.4773 16.0781 62.1504 16.5293C62.8308 16.9733 63.6651 17.1953 64.6534 17.1953C65.8493 17.1953 66.7732 16.7191 67.4248 15.7666C68.0765 14.8141 68.4024 13.4355 68.4024 11.6309ZM95.8521 12.7695C95.7017 14.3809 95.1467 15.6198 94.1871 16.4863C93.2274 17.3457 91.9241 17.7754 90.2769 17.7754C89.1669 17.7754 88.1822 17.4961 87.3228 16.9375C86.4706 16.3717 85.8082 15.5732 85.3355 14.542C84.8629 13.5036 84.6229 12.3184 84.6158 10.9863V8.56934C84.6158 7.2373 84.8485 6.0485 85.314 5.00293C85.7795 3.9502 86.442 3.13737 87.3013 2.56445C88.1679 1.99154 89.1597 1.70508 90.2769 1.70508C91.9097 1.70508 93.2095 2.13477 94.1763 2.99414C95.1431 3.85352 95.7017 5.08529 95.8521 6.68945H95.272C95.1073 5.25 94.606 4.15788 93.7681 3.41309C92.9302 2.66113 91.7665 2.28516 90.2769 2.28516C88.7587 2.28516 87.5305 2.85807 86.5923 4.00391C85.6614 5.14974 85.1959 6.68587 85.1959 8.6123V10.9111C85.1959 12.1429 85.4035 13.235 85.8189 14.1875C86.2343 15.1328 86.8287 15.8704 87.6021 16.4004C88.3827 16.9303 89.2743 17.1953 90.2769 17.1953C91.7737 17.1953 92.941 16.8265 93.7789 16.0889C94.6239 15.3512 95.1216 14.2448 95.272 12.7695H95.8521ZM106.865 17.1953C107.917 17.1953 108.784 16.916 109.464 16.3574C110.152 15.7988 110.528 15.0254 110.592 14.0371H111.172C111.115 15.1615 110.682 16.0674 109.872 16.7549C109.063 17.4352 108.061 17.7754 106.865 17.7754C105.411 17.7754 104.254 17.249 103.395 16.1963C102.543 15.1436 102.117 13.7148 102.117 11.9102V11.5234C102.117 9.76172 102.543 8.35449 103.395 7.30176C104.254 6.24902 105.404 5.72266 106.843 5.72266C108.075 5.72266 109.092 6.09147 109.894 6.8291C110.696 7.56673 111.122 8.54785 111.172 9.77246H110.592C110.542 8.72689 110.173 7.889 109.486 7.25879C108.805 6.62142 107.924 6.30273 106.843 6.30273C105.547 6.30273 104.53 6.77181 103.792 7.70996C103.062 8.64095 102.697 9.93717 102.697 11.5986V11.9746C102.697 13.6003 103.065 14.8786 103.803 15.8096C104.548 16.7334 105.568 17.1953 106.865 17.1953ZM127.139 17.5605V1.91992H131.468C132.678 1.91992 133.774 2.20638 134.755 2.7793C135.736 3.35221 136.506 4.15788 137.064 5.19629C137.623 6.22754 137.909 7.38411 137.924 8.66602V10.6963C137.924 11.9997 137.648 13.1742 137.097 14.2197C136.552 15.2653 135.79 16.0817 134.808 16.6689C133.827 17.2562 132.732 17.5534 131.521 17.5605H127.139ZM127.719 2.5V16.9805H131.468C132.563 16.9805 133.559 16.7155 134.454 16.1855C135.356 15.6484 136.062 14.9036 136.57 13.9512C137.079 12.9915 137.336 11.9281 137.344 10.7607V8.75195C137.344 7.58464 137.093 6.52474 136.592 5.57227C136.098 4.61979 135.403 3.875 134.508 3.33789C133.62 2.79362 132.635 2.51432 131.554 2.5H127.719ZM144.435 11.6309C144.435 9.77604 144.825 8.32943 145.606 7.29102C146.387 6.24544 147.457 5.72266 148.818 5.72266C149.692 5.72266 150.462 5.9196 151.128 6.31348C151.801 6.70736 152.345 7.2946 152.76 8.0752V1.06055H153.34V17.5605H152.76V15.7021C152.366 16.361 151.826 16.873 151.138 17.2383C150.451 17.5964 149.67 17.7754 148.796 17.7754C147.45 17.7754 146.387 17.2419 145.606 16.1748C144.825 15.1077 144.435 13.6432 144.435 11.7812V11.6309ZM145.037 11.8564C145.037 13.5036 145.363 14.807 146.014 15.7666C146.666 16.7191 147.59 17.1953 148.786 17.1953C149.745 17.1953 150.565 16.984 151.246 16.5615C151.926 16.1318 152.431 15.5052 152.76 14.6816V9.23535C152.094 7.28027 150.777 6.30273 148.807 6.30273C147.618 6.30273 146.691 6.77181 146.025 7.70996C145.366 8.64811 145.037 10.0303 145.037 11.8564ZM178.491 9.80469H170.65V16.9805H179.587V17.5605H170.069V1.91992H179.587V2.5H170.65V9.22461H178.491V9.80469ZM189.998 17.7754C189.06 17.7754 188.197 17.5247 187.409 17.0234C186.628 16.515 186.016 15.8203 185.572 14.9395C185.128 14.0586 184.906 13.0811 184.906 12.0068V11.5234C184.906 10.4492 185.121 9.46452 185.551 8.56934C185.98 7.67415 186.571 6.97591 187.323 6.47461C188.075 5.97331 188.895 5.72266 189.783 5.72266C191.079 5.72266 192.139 6.18457 192.963 7.1084C193.786 8.03223 194.198 9.24609 194.198 10.75V11.3623H185.486V11.9961C185.486 12.9414 185.683 13.8187 186.077 14.6279C186.478 15.43 187.026 16.0602 187.721 16.5186C188.422 16.9769 189.182 17.2061 189.998 17.2061C190.779 17.2061 191.441 17.0771 191.985 16.8193C192.537 16.5544 193.024 16.1497 193.446 15.6055L193.854 15.8955C192.988 17.1488 191.702 17.7754 189.998 17.7754ZM189.783 6.30273C188.652 6.30273 187.692 6.72526 186.904 7.57031C186.116 8.4082 185.655 9.47884 185.518 10.7822H193.618V10.6426C193.618 9.85482 193.45 9.12435 193.113 8.45117C192.784 7.77083 192.325 7.24447 191.738 6.87207C191.158 6.49251 190.506 6.30273 189.783 6.30273ZM218.543 9.86914H210.53V17.5605H209.95V1.91992H219.639V2.5H210.53V9.26758H218.543V9.86914ZM226.86 17.5605V6.52832H224.84V5.9375H226.86V4.24023C226.867 3.16602 227.135 2.33171 227.665 1.7373C228.202 1.13574 228.947 0.834961 229.9 0.834961C230.43 0.834961 230.888 0.895833 231.275 1.01758L231.189 1.57617C230.816 1.46875 230.39 1.41504 229.91 1.41504C229.144 1.41504 228.539 1.66569 228.095 2.16699C227.658 2.66113 227.44 3.36654 227.44 4.2832V5.9375H230.512V6.52832H227.44V17.5605H226.86ZM256.984 15.8848C256.59 16.429 255.899 16.8802 254.911 17.2383C253.923 17.5964 252.834 17.7754 251.645 17.7754C250.485 17.7754 249.45 17.4925 248.541 16.9268C247.631 16.361 246.919 15.5625 246.403 14.5312C245.895 13.5 245.633 12.3327 245.619 11.0293V8.34375C245.619 7.06185 245.866 5.91243 246.36 4.89551C246.854 3.87858 247.549 3.0944 248.444 2.54297C249.339 1.98438 250.345 1.70508 251.463 1.70508C253.017 1.70508 254.281 2.10254 255.255 2.89746C256.236 3.69238 256.805 4.77734 256.963 6.15234H256.383C256.189 4.90625 255.67 3.9502 254.825 3.28418C253.98 2.61816 252.859 2.28516 251.463 2.28516C249.887 2.28516 248.616 2.84733 247.649 3.97168C246.682 5.09603 246.199 6.57487 246.199 8.4082V10.9004C246.199 12.125 246.424 13.2171 246.876 14.1768C247.334 15.1364 247.975 15.8812 248.799 16.4111C249.629 16.9339 250.578 17.1953 251.645 17.1953C252.691 17.1953 253.661 17.0413 254.556 16.7334C255.452 16.4255 256.067 16.0531 256.404 15.6162V11.0615H251.624V10.4707H256.984V15.8848ZM263.957 11.6309C263.957 9.77604 264.348 8.32943 265.128 7.29102C265.909 6.24544 266.98 5.72266 268.34 5.72266C269.207 5.72266 269.977 5.92318 270.65 6.32422C271.323 6.7181 271.864 7.29818 272.272 8.06445V5.9375H272.863V17.3564C272.863 18.889 272.469 20.085 271.681 20.9443C270.893 21.8109 269.823 22.2441 268.469 22.2441C267.689 22.2441 266.972 22.0758 266.321 21.7393C265.676 21.4027 265.125 20.9193 264.666 20.2891L265.075 19.9023C265.526 20.4753 266.02 20.9121 266.557 21.2129C267.094 21.5208 267.724 21.6748 268.448 21.6748C269.644 21.6748 270.575 21.3096 271.241 20.5791C271.907 19.8558 272.25 18.8317 272.272 17.5068V15.7236C271.871 16.3825 271.327 16.891 270.639 17.249C269.959 17.5999 269.185 17.7754 268.319 17.7754C266.972 17.7754 265.909 17.2419 265.128 16.1748C264.348 15.1077 263.957 13.6432 263.957 11.7812V11.6309ZM264.548 11.8564C264.548 13.5179 264.878 14.8249 265.537 15.7773C266.195 16.7227 267.119 17.1953 268.308 17.1953C269.289 17.1953 270.123 16.9697 270.811 16.5186C271.498 16.0602 271.985 15.4193 272.272 14.5957V9.32129C271.642 7.30892 270.328 6.30273 268.33 6.30273C267.134 6.30273 266.203 6.77181 265.537 7.70996C264.878 8.64811 264.548 10.0303 264.548 11.8564ZM300.774 17.5605H300.194V9.80469H290.204V17.5605H289.624V1.91992H290.204V9.22461H300.194V1.91992H300.774V17.5605ZM309.091 8.64453C309.47 7.74219 310.029 7.02962 310.766 6.50684C311.504 5.98405 312.32 5.72266 313.216 5.72266C314.462 5.72266 315.385 6.07715 315.987 6.78613C316.596 7.48796 316.904 8.55143 316.911 9.97656V17.5605H316.331V9.95508C316.324 8.70898 316.069 7.78874 315.568 7.19434C315.067 6.59277 314.272 6.29199 313.183 6.29199C312.181 6.29199 311.311 6.65007 310.573 7.36621C309.842 8.0752 309.348 8.99186 309.091 10.1162V17.5605H308.51V1.06055H309.091V8.64453ZM325.614 17.5605H325.034V1.91992H325.614V17.5605ZM334.499 17.5605H333.919V5.9375H334.499V17.5605ZM333.618 2.30664C333.618 2.14193 333.676 2.00228 333.79 1.8877C333.905 1.76595 334.045 1.70508 334.209 1.70508C334.374 1.70508 334.514 1.76595 334.628 1.8877C334.75 2.00228 334.811 2.14193 334.811 2.30664C334.811 2.47135 334.75 2.611 334.628 2.72559C334.514 2.84017 334.374 2.89746 334.209 2.89746C334.045 2.89746 333.905 2.84017 333.79 2.72559C333.676 2.611 333.618 2.47135 333.618 2.30664ZM358.619 1.91992H359.199V12.8125C359.199 14.3236 358.787 15.5303 357.964 16.4326C357.14 17.3278 356.048 17.7754 354.687 17.7754C353.226 17.7754 352.109 17.3851 351.336 16.6045C350.562 15.8239 350.176 14.7067 350.176 13.2529H350.756C350.756 14.5277 351.081 15.5052 351.733 16.1855C352.392 16.8587 353.377 17.1953 354.687 17.1953C355.833 17.1953 356.768 16.8122 357.491 16.0459C358.221 15.2796 358.597 14.2376 358.619 12.9199V1.91992ZM367.623 5.9375V18.9463C367.623 20.0205 367.354 20.8405 366.817 21.4062C366.28 21.972 365.528 22.2549 364.561 22.2549C364.21 22.2549 363.859 22.1833 363.508 22.04L363.541 21.4814C363.884 21.6104 364.224 21.6748 364.561 21.6748C365.363 21.6748 365.975 21.4349 366.398 20.9551C366.828 20.4824 367.043 19.8128 367.043 18.9463V5.9375H367.623ZM366.795 2.30664C366.795 2.14193 366.853 2.00228 366.967 1.8877C367.082 1.76595 367.222 1.70508 367.386 1.70508C367.551 1.70508 367.691 1.76595 367.805 1.8877C367.927 2.00228 367.988 2.14193 367.988 2.30664C367.988 2.47135 367.927 2.611 367.805 2.72559C367.691 2.84017 367.551 2.89746 367.386 2.89746C367.222 2.89746 367.082 2.84017 366.967 2.72559C366.853 2.611 366.795 2.47135 366.795 2.30664ZM387.811 9.33203L385.308 11.6416V17.5605H384.728V1.91992H385.308V10.9648L387.886 8.44043L394.374 1.91992H395.212L388.24 8.93457L395.749 17.5605H394.997L387.811 9.33203ZM404.42 11.2764L404.398 11.2979L402.712 12.748V17.5605H402.132V1.06055H402.712V12.1143L404.076 10.8252L409.361 5.9375H410.188L404.849 10.8896L410.521 17.5605H409.769L404.42 11.2764ZM2.73926 58.9805H10.7637V59.5605H2.14844V43.9199H2.73926V58.9805ZM17.6726 59.5605H17.0925V43.0605H17.6726V59.5605ZM35.3577 43.9199L41.7923 58.7119L48.2483 43.9199H49.097V59.5605H48.5169V44.7793L42.0286 59.5605H41.5667L35.1106 44.8545V59.5605H34.5305V43.9199H35.3577ZM65.1475 59.5605H64.5674V51.751C64.5603 50.5837 64.3024 49.7171 63.794 49.1514C63.2927 48.5785 62.4906 48.292 61.3877 48.292C60.113 48.292 59.071 48.8542 58.2618 49.9785C57.7819 50.6517 57.4633 51.3965 57.3057 52.2129V59.5605H56.7149V47.9375H57.3057V50.6875C57.6996 49.7422 58.2618 49.0117 58.9922 48.4961C59.7227 47.9805 60.5319 47.7227 61.42 47.7227C62.3939 47.7227 63.1888 47.9375 63.8047 48.3672C64.4278 48.7969 64.836 49.4987 65.0293 50.4727C65.3731 49.6348 65.9317 48.9688 66.7051 48.4746C67.4786 47.9733 68.3451 47.7227 69.3047 47.7227C70.558 47.7227 71.489 48.0771 72.0977 48.7861C72.7136 49.4951 73.0251 50.5586 73.0323 51.9766V59.5605H72.4522V52.0195C72.4522 50.7448 72.1944 49.8031 71.6787 49.1943C71.1703 48.5785 70.3682 48.2777 69.2725 48.292C67.8617 48.3135 66.7445 48.8757 65.9209 49.9785C65.4483 50.6159 65.1905 51.2318 65.1475 51.8262V59.5605ZM100.869 59.5605H100.289L90.191 44.9082V59.5605H89.6002V43.9199H90.191L100.289 58.54V43.9199H100.869V59.5605ZM109.196 50.6445C109.575 49.7422 110.134 49.0296 110.871 48.5068C111.609 47.984 112.425 47.7227 113.321 47.7227C114.567 47.7227 115.491 48.0771 116.092 48.7861C116.701 49.488 117.009 50.5514 117.016 51.9766V59.5605H116.436V51.9551C116.429 50.709 116.174 49.7887 115.673 49.1943C115.172 48.5928 114.377 48.292 113.288 48.292C112.286 48.292 111.416 48.6501 110.678 49.3662C109.948 50.0752 109.453 50.9919 109.196 52.1162V59.5605H108.616V47.9375H109.196V50.6445ZM144.788 52.9111C144.788 54.2646 144.544 55.4642 144.057 56.5098C143.578 57.5482 142.89 58.3538 141.995 58.9268C141.1 59.4925 140.069 59.7754 138.901 59.7754C137.139 59.7754 135.714 59.1488 134.626 57.8955C133.537 56.6423 132.993 54.9521 132.993 52.8252V50.5693C132.993 49.223 133.233 48.027 133.713 46.9814C134.2 45.9359 134.891 45.1302 135.786 44.5645C136.688 43.9915 137.72 43.7051 138.88 43.7051C140.047 43.7051 141.078 43.9915 141.973 44.5645C142.876 45.1302 143.57 45.9395 144.057 46.9922C144.544 48.0378 144.788 49.2301 144.788 50.5693V52.9111ZM144.208 50.5479C144.208 48.6572 143.728 47.1426 142.768 46.0039C141.809 44.8581 140.513 44.2852 138.88 44.2852C137.268 44.2852 135.983 44.8545 135.023 45.9932C134.064 47.1247 133.584 48.668 133.584 50.623V52.9111C133.584 54.1572 133.799 55.2601 134.228 56.2197C134.665 57.1722 135.285 57.9062 136.087 58.4219C136.889 58.9375 137.827 59.1953 138.901 59.1953C140.534 59.1953 141.827 58.626 142.779 57.4873C143.732 56.3486 144.208 54.7946 144.208 52.8252V50.5479ZM150.923 53.5234C150.923 52.4134 151.135 51.418 151.557 50.5371C151.987 49.6491 152.588 48.958 153.362 48.4639C154.143 47.9697 155.023 47.7227 156.004 47.7227C156.978 47.7227 157.852 47.9626 158.626 48.4424C159.399 48.9222 160.001 49.6025 160.43 50.4834C160.867 51.3643 161.089 52.3561 161.096 53.459V53.9746C161.096 55.0918 160.885 56.0908 160.462 56.9717C160.04 57.8525 159.438 58.54 158.658 59.0342C157.884 59.5283 157.007 59.7754 156.026 59.7754C155.045 59.7754 154.164 59.5319 153.383 59.0449C152.61 58.5579 152.008 57.8776 151.579 57.0039C151.149 56.123 150.931 55.1348 150.923 54.0391V53.5234ZM151.504 53.9746C151.504 54.9414 151.693 55.8294 152.073 56.6387C152.46 57.4408 152.993 58.0674 153.673 58.5186C154.361 58.9697 155.145 59.1953 156.026 59.1953C157.351 59.1953 158.429 58.6976 159.259 57.7021C160.097 56.7067 160.516 55.4248 160.516 53.8564V53.5234C160.516 52.571 160.323 51.6901 159.936 50.8809C159.549 50.0716 159.012 49.4414 158.325 48.9902C157.644 48.5319 156.871 48.3027 156.004 48.3027C154.68 48.3027 153.598 48.8076 152.76 49.8174C151.922 50.8271 151.504 52.0983 151.504 53.6309V53.9746ZM177.546 52.9541V59.5605H176.966V43.9199H181.854C183.451 43.9199 184.69 44.3245 185.57 45.1338C186.458 45.9359 186.902 47.0531 186.902 48.4854C186.902 49.9033 186.469 50.999 185.603 51.7725C184.743 52.5459 183.519 52.9398 181.929 52.9541H177.546ZM177.546 52.374H181.854C183.264 52.374 184.36 52.0339 185.141 51.3535C185.929 50.6732 186.322 49.7243 186.322 48.5068C186.322 47.2464 185.929 46.2653 185.141 45.5635C184.36 44.8545 183.264 44.5 181.854 44.5H177.546V52.374ZM202.502 53.8564C202.502 55.6683 202.112 57.1077 201.331 58.1748C200.55 59.2419 199.487 59.7754 198.141 59.7754C197.26 59.7754 196.475 59.5964 195.788 59.2383C195.1 58.8802 194.563 58.3861 194.177 57.7559V64.0293H193.597V47.9375H194.177V50.0107C194.578 49.2731 195.118 48.7074 195.799 48.3135C196.479 47.9196 197.252 47.7227 198.119 47.7227C199.48 47.7227 200.55 48.2454 201.331 49.291C202.112 50.3294 202.502 51.7904 202.502 53.6738V53.8564ZM201.911 53.6309C201.911 51.9622 201.578 50.6589 200.912 49.7207C200.253 48.7754 199.326 48.3027 198.13 48.3027C197.156 48.3027 196.329 48.557 195.648 49.0654C194.968 49.5667 194.477 50.29 194.177 51.2354V56.6709C194.477 57.473 194.968 58.096 195.648 58.54C196.336 58.9769 197.17 59.1953 198.151 59.1953C199.34 59.1953 200.264 58.7227 200.923 57.7773C201.582 56.832 201.911 55.4499 201.911 53.6309ZM229.79 52.9111C229.79 54.3721 229.504 55.654 228.931 56.7568C228.365 57.8597 227.552 58.6761 226.493 59.2061L229.361 62.0098L228.942 62.3857L225.891 59.4531C225.246 59.668 224.584 59.7754 223.904 59.7754C222.142 59.7754 220.717 59.1488 219.628 57.8955C218.54 56.6423 217.996 54.9521 217.996 52.8252V50.5693C217.996 49.223 218.235 48.027 218.715 46.9814C219.202 45.9359 219.893 45.1302 220.788 44.5645C221.691 43.9915 222.722 43.7051 223.882 43.7051C225.05 43.7051 226.081 43.9915 226.976 44.5645C227.878 45.1302 228.573 45.9395 229.06 46.9922C229.547 48.0378 229.79 49.2301 229.79 50.5693V52.9111ZM229.21 50.5479C229.21 48.6572 228.731 47.1426 227.771 46.0039C226.811 44.8581 225.515 44.2852 223.882 44.2852C222.271 44.2852 220.985 44.8545 220.026 45.9932C219.066 47.1247 218.586 48.668 218.586 50.623V52.9111C218.586 54.1572 218.801 55.2601 219.231 56.2197C219.668 57.1722 220.287 57.9062 221.089 58.4219C221.891 58.9375 222.829 59.1953 223.904 59.1953C225.537 59.1953 226.829 58.626 227.782 57.4873C228.734 56.3486 229.21 54.7946 229.21 52.8252V50.5479ZM236.27 53.6309C236.27 51.776 236.66 50.3294 237.441 49.291C238.221 48.2454 239.292 47.7227 240.652 47.7227C241.519 47.7227 242.292 47.9196 242.973 48.3135C243.653 48.7074 244.194 49.2731 244.595 50.0107V47.9375H245.175V64.0293H244.595V57.7559C244.18 58.4076 243.628 58.9089 242.941 59.2598C242.26 59.6035 241.49 59.7754 240.631 59.7754C239.285 59.7754 238.221 59.2419 237.441 58.1748C236.66 57.1077 236.27 55.6432 236.27 53.7812V53.6309ZM236.871 53.8564C236.871 55.5036 237.197 56.807 237.849 57.7666C238.5 58.7191 239.424 59.1953 240.62 59.1953C241.58 59.1953 242.4 58.984 243.08 58.5615C243.761 58.1318 244.265 57.5052 244.595 56.6816V51.2354C244.258 50.2686 243.75 49.5381 243.069 49.0439C242.389 48.5498 241.58 48.3027 240.642 48.3027C239.453 48.3027 238.526 48.7718 237.86 49.71C237.201 50.6481 236.871 52.0303 236.871 53.8564ZM267.855 52.8682H262.43V59.5605H261.85V43.9199H266.835C268.403 43.9199 269.649 44.3245 270.573 45.1338C271.504 45.943 271.969 47.0423 271.969 48.4316C271.969 49.4987 271.636 50.4333 270.97 51.2354C270.312 52.0303 269.47 52.5244 268.446 52.7178L272.625 59.4102V59.5605H272.012L267.855 52.8682ZM262.43 52.2881H267.361C268.564 52.2881 269.535 51.9229 270.272 51.1924C271.017 50.4619 271.389 49.5417 271.389 48.4316C271.389 47.2142 270.978 46.2546 270.154 45.5527C269.338 44.8509 268.217 44.5 266.792 44.5H262.43V52.2881ZM284.862 48.3564L284.11 48.292C283.122 48.292 282.294 48.6143 281.628 49.2588C280.962 49.8962 280.525 50.7913 280.318 51.9443V59.5605H279.738V47.9375H280.318V50.3545C280.633 49.5452 281.106 48.9043 281.736 48.4316C282.366 47.959 283.157 47.7227 284.11 47.7227C284.446 47.7227 284.719 47.762 284.926 47.8408L284.862 48.3564ZM309.519 55.8115C309.519 55.1455 309.361 54.5833 309.046 54.125C308.738 53.6595 308.247 53.2513 307.574 52.9004C306.908 52.5423 305.898 52.1771 304.545 51.8047C303.191 51.4323 302.174 51.0563 301.494 50.6768C300.821 50.2972 300.327 49.8568 300.012 49.3555C299.697 48.8542 299.539 48.2454 299.539 47.5293C299.539 46.3906 300.019 45.4704 300.978 44.7686C301.938 44.0596 303.188 43.7051 304.728 43.7051C305.73 43.7051 306.629 43.902 307.424 44.2959C308.226 44.6826 308.845 45.2305 309.282 45.9395C309.719 46.6413 309.937 47.4362 309.937 48.3242H309.357C309.357 47.1569 308.928 46.1937 308.068 45.4346C307.209 44.6683 306.095 44.2852 304.728 44.2852C303.353 44.2852 302.239 44.5931 301.387 45.209C300.542 45.8177 300.119 46.584 300.119 47.5078C300.119 48.446 300.488 49.2015 301.226 49.7744C301.963 50.3473 303.181 50.8558 304.878 51.2998C306.575 51.7367 307.818 52.2451 308.605 52.8252C309.608 53.5628 310.109 54.5511 310.109 55.79C310.109 56.5778 309.887 57.276 309.443 57.8848C308.999 58.4863 308.369 58.9518 307.553 59.2812C306.736 59.6107 305.82 59.7754 304.803 59.7754C303.671 59.7754 302.654 59.5892 301.752 59.2168C300.85 58.8372 300.169 58.3001 299.711 57.6055C299.26 56.9108 299.034 56.0908 299.034 55.1455H299.614C299.614 56.4274 300.094 57.4229 301.054 58.1318C302.013 58.8408 303.263 59.1953 304.803 59.1953C306.171 59.1953 307.298 58.8838 308.186 58.2607C309.075 57.6305 309.519 56.8141 309.519 55.8115ZM323.775 56.7139C323.775 55.3031 322.572 54.3434 320.166 53.835C318.719 53.527 317.713 53.1331 317.147 52.6533C316.581 52.1663 316.299 51.5003 316.299 50.6553C316.299 49.8031 316.657 49.1012 317.373 48.5498C318.096 47.9984 319.034 47.7227 320.187 47.7227C321.44 47.7227 322.447 48.0234 323.206 48.625C323.965 49.2194 324.344 50.0251 324.344 51.042H323.754C323.754 50.2614 323.424 49.6097 322.765 49.0869C322.106 48.5641 321.247 48.3027 320.187 48.3027C319.17 48.3027 318.365 48.5247 317.77 48.9688C317.176 49.4128 316.879 49.9678 316.879 50.6338C316.879 51.1566 316.99 51.5684 317.212 51.8691C317.434 52.1628 317.795 52.4313 318.297 52.6748C318.798 52.9111 319.528 53.1403 320.488 53.3623C321.448 53.5843 322.207 53.8457 322.765 54.1465C323.324 54.4473 323.729 54.8053 323.979 55.2207C324.23 55.6289 324.355 56.1302 324.355 56.7246C324.355 57.6413 323.979 58.3789 323.227 58.9375C322.475 59.4961 321.491 59.7754 320.273 59.7754C318.97 59.7754 317.917 59.4818 317.115 58.8945C316.32 58.3001 315.923 57.5374 315.923 56.6064H316.503C316.56 57.4229 316.918 58.0602 317.577 58.5186C318.243 58.9697 319.142 59.1953 320.273 59.1953C321.312 59.1953 322.153 58.9554 322.798 58.4756C323.449 57.9886 323.775 57.4014 323.775 56.7139ZM350.591 44.5H344.898V59.5605H344.318V44.5H338.624V43.9199H350.591V44.5ZM358.069 44.8008V47.9375H360.712V48.5283H358.069V56.7783C358.069 57.6019 358.202 58.2106 358.467 58.6045C358.739 58.9984 359.19 59.1953 359.82 59.1953C360.135 59.1953 360.519 59.1631 360.97 59.0986L361.066 59.6465C360.83 59.7324 360.425 59.7754 359.853 59.7754C359.007 59.7754 358.402 59.5426 358.037 59.0771C357.672 58.6045 357.486 57.8633 357.479 56.8535V48.5283H355.33V47.9375H357.479V44.8008H358.069ZM387.302 43.9199V54.5117C387.302 56.166 386.822 57.4587 385.863 58.3896C384.903 59.3135 383.603 59.7754 381.963 59.7754C380.323 59.7754 379.024 59.3135 378.064 58.3896C377.104 57.4587 376.621 56.1803 376.614 54.5547V43.9199H377.194V54.4902C377.194 55.9368 377.627 57.0827 378.494 57.9277C379.367 58.7728 380.524 59.1953 381.963 59.1953C383.403 59.1953 384.556 58.7728 385.422 57.9277C386.289 57.0827 386.722 55.9333 386.722 54.4795V43.9199H387.302ZM402.676 59.5605V57.6807C402.332 58.3252 401.831 58.8372 401.172 59.2168C400.513 59.5892 399.679 59.7754 398.669 59.7754C397.402 59.7754 396.449 59.4066 395.812 58.6689C395.182 57.9242 394.859 56.8428 394.845 55.4248V47.9375H395.425V55.4463C395.439 56.6781 395.719 57.6126 396.263 58.25C396.807 58.8802 397.602 59.1953 398.648 59.1953C399.758 59.1953 400.66 58.9339 401.355 58.4111C402.049 57.8883 402.49 57.1221 402.676 56.1123V47.9375H403.267V59.5605H402.676ZM6.2627 99.0352L6.57422 99.9805L6.88574 99.0352L12.1387 84.9199H12.7725L6.92871 100.561H6.21973L0.375977 84.9199H1.00977L6.2627 99.0352ZM22.0232 99.6367L26.2019 88.9375H26.825L22.3025 100.561H21.7332L17.2214 88.9375H17.8445L22.0232 99.6367ZM45.262 99.5938L45.971 97.0156L49.6663 84.9199H50.3108L53.9846 97.0156L54.6829 99.5938L55.4134 97.0156L58.636 84.9199H59.2698L55.0589 100.561H54.4036L50.5257 87.5195L49.9778 85.8652L49.4514 87.5195L45.5413 100.561H44.886L40.6643 84.9199H41.3089L44.553 97.0156L45.262 99.5938ZM67.6182 97.1982L68.252 99.7012L71.6573 88.9375H72.2481L75.6319 99.7012L76.2871 97.1982L78.6504 88.9375H79.3272L75.9434 100.561H75.3633L72.4952 91.8271L71.9473 89.7432L71.3565 91.8271L68.5313 100.561H67.9512L64.5782 88.9375H65.2442L67.6182 97.1982ZM99.6441 92.1279L104.693 84.9199H105.423L100.009 92.5791L105.628 100.561H104.908L99.6441 93.0303L94.3589 100.561H93.6607L99.2789 92.5791L93.8648 84.9199H94.5953L99.6441 92.1279ZM115.222 94.0938L118.928 88.9375H119.659L115.576 94.5986L119.873 100.561H119.154L115.211 95.1035L111.28 100.561H110.56L114.857 94.5986L110.775 88.9375H111.505L115.222 94.0938ZM139.761 94.0938L145.239 84.9199H145.948L140.051 94.6201V100.561H139.471V94.6201L133.573 84.9199H134.347L139.761 94.0938ZM155.296 99.6582L155.371 99.4434L159.388 88.9375H160.033L154.834 102.58L154.576 103.225C154.017 104.578 153.093 105.255 151.804 105.255C151.389 105.255 151.102 105.215 150.945 105.137L150.934 104.589C151.163 104.653 151.425 104.686 151.718 104.686C152.327 104.686 152.832 104.507 153.233 104.148C153.634 103.798 153.981 103.221 154.275 102.419L154.984 100.496L150.354 88.9375H150.988L155.296 99.6582ZM174.946 99.9805H185.28V100.561H174.151V100.088L184.131 85.4893H174.581V84.9199H184.937V85.3281L174.946 99.9805ZM191.749 99.9805H200.02V100.561H190.965V100.088L198.602 89.5283H191.298V88.9375H199.387V89.4531L191.749 99.9805Z" fill="#23768F"/>
</svg>
