<svg width="181" height="263" viewBox="0 0 181 263" fill="none" xmlns="http://www.w3.org/2000/svg">
<g filter="url(#filter0_d)">
<path d="M122.408 222.609C122.408 205.075 107.869 190.861 89.9353 190.861C72.0013 190.861 57.4629 205.075 57.4629 222.609C57.4629 240.143 72.0013 254.356 89.9353 254.356C107.869 254.356 122.408 240.143 122.408 222.609Z" fill="#23768F"/>
<path d="M129.035 132.838C122.902 148.989 106.508 160.986 88.9134 161.903C71.3191 162.819 53.5861 152.44 46.3607 136.731C43.4497 130.402 42.5185 122.129 47.5281 117.213C52.1062 112.723 61.6742 114.874 67.4745 113.565C70.3178 112.924 72.9858 111.69 73.4618 108.592C74.184 103.878 69.3083 100.095 65.4847 98.2889C63.033 97.1312 60.3797 96.1295 58.5829 94.1286C58.1932 93.7603 57.8938 93.3105 57.7072 92.813C57.5205 92.3155 57.4513 91.7831 57.5049 91.2558C57.7825 89.906 59.2149 89.1511 60.1615 88.1301C61.3161 86.7571 61.8834 85.001 61.7447 83.2287C61.217 69.6153 61.5505 55.9727 58.9841 42.3475C58.4932 39.7429 57.9413 37.0121 58.7818 34.4953C59.6223 31.9785 62.4294 29.8667 64.9797 30.751C67.6046 31.658 68.368 34.8903 68.5446 37.6077C69.0398 45.3429 68.055 53.2198 69.7136 60.8026C70.8789 66.1208 72.7769 70.8923 76.5402 75.0327C77.7106 76.3202 79.4964 77.5942 81.0888 76.8487C82.7996 76.0443 82.7387 73.682 82.4204 71.8514L78.1579 47.4944C77.9372 46.7567 77.9925 45.9662 78.3138 45.2646C78.952 44.237 80.6049 44.2683 81.5593 45.0287C82.4395 45.8792 83.0307 46.9738 83.2529 48.164C84.6799 53.2437 85.2795 58.5115 85.0296 63.7736C84.8509 65.2535 84.9266 66.7521 85.2535 68.2075C85.429 68.934 85.8153 69.5954 86.3661 70.1123C86.9168 70.6293 87.6085 70.9797 88.358 71.1216C89.3916 64.3291 88.1925 58.2377 87.1053 51.5898C85.9935 44.6953 85.7166 37.6967 86.2801 30.7389C86.5276 27.5973 88.3663 6.77764 94.1323 8.88212C96.2688 9.66374 96.2101 12.6032 95.7558 14.7898C95.0891 18.0091 94.4212 21.2286 93.752 24.4482C93.3619 25.7769 93.307 27.1783 93.5921 28.5323C93.9865 29.8544 95.2935 31.0248 96.6831 30.7963C98.3115 30.5254 99.0697 28.5944 98.9619 26.9833C98.8541 25.3723 98.2069 23.7972 98.3463 22.1869C98.4858 20.5767 99.936 18.8635 101.526 19.3037C103.343 19.8067 103.399 22.2739 103.105 24.0964C102.226 29.3249 101.69 34.6034 101.502 39.899C101.368 44.5908 100.204 49.2269 100.419 54.0216C100.469 55.1662 100.688 56.4969 101.721 57.0342C102.23 57.2318 102.793 57.2545 103.317 57.0985C103.841 56.9425 104.295 56.6171 104.605 56.1756C105.201 55.2748 105.573 54.2503 105.692 53.1838C107.4 44.2889 109.685 35.4455 108.794 26.3319C108.564 25.032 108.592 23.7009 108.878 22.4115C109.806 19.4103 113.116 19.5723 114.25 22.3193C115.208 24.6455 114.831 28.2666 114.765 30.721C114.591 37.2385 113.162 43.6429 111.882 50.0163C110.966 54.2117 110.277 58.4515 109.818 62.7181C109.489 66.3616 108.862 71.2315 110.085 74.7232C111.782 73.8272 112.558 71.8345 112.752 69.9592C112.946 68.084 112.698 66.1766 113.003 64.3154C113.308 62.4542 114.354 60.5248 116.182 59.9306C116.622 60.2565 117.061 60.5823 117.501 60.9082C116.383 65.0686 115.255 69.3109 115.499 73.6082C115.622 75.8058 116.101 77.9714 116.257 80.165C116.449 82.9054 115.579 85.4331 115.261 88.0992C114.875 91.3164 114.56 95.7055 112.227 98.2662C110.128 100.561 105.036 100.228 103.793 103.059C103.587 103.657 103.565 104.301 103.73 104.911C103.894 105.521 104.238 106.07 104.719 106.491C105.696 107.315 106.855 107.908 108.105 108.222C112.131 109.487 116.363 110.13 120.271 111.708C129.559 115.471 132.397 123.984 129.035 132.838Z" fill="#23768F"/>
</g>
<defs>
<filter id="filter0_d" x="39.9736" y="8.73291" width="94.4238" height="253.624" filterUnits="userSpaceOnUse" color-interpolation-filters="sRGB">
<feFlood flood-opacity="0" result="BackgroundImageFix"/>
<feColorMatrix in="SourceAlpha" type="matrix" values="0 0 0 0 0 0 0 0 0 0 0 0 0 0 0 0 0 0 127 0"/>
<feOffset dy="4"/>
<feGaussianBlur stdDeviation="2"/>
<feColorMatrix type="matrix" values="0 0 0 0 0 0 0 0 0 0 0 0 0 0 0 0 0 0 0.25 0"/>
<feBlend mode="normal" in2="BackgroundImageFix" result="effect1_dropShadow"/>
<feBlend mode="normal" in="SourceGraphic" in2="effect1_dropShadow" result="shape"/>
</filter>
</defs>
</svg>
