<svg width="72" height="174" viewBox="0 0 72 174" fill="none" xmlns="http://www.w3.org/2000/svg">
<path d="M11.416 1.74854H6.24023V15.4399H5.71289V1.74854H0.537109V1.22119H11.416V1.74854ZM14.1602 7.33447C14.5052 6.51416 15.013 5.86637 15.6836 5.39111C16.3542 4.91585 17.0964 4.67822 17.9102 4.67822C19.043 4.67822 19.8828 5.00049 20.4297 5.64502C20.9831 6.28304 21.263 7.24984 21.2695 8.54541V15.4399H20.7422V8.52588C20.7357 7.39307 20.5046 6.55648 20.0488 6.01611C19.5931 5.46924 18.8704 5.1958 17.8809 5.1958C16.9694 5.1958 16.1784 5.52132 15.5078 6.17236C14.8438 6.81689 14.3945 7.65023 14.1602 8.67236V15.4399H13.6328V0.439941H14.1602V7.33447ZM25.2441 15.4399H24.7168V4.87354H25.2441V15.4399ZM24.4434 1.57275C24.4434 1.42301 24.4954 1.29606 24.5996 1.19189C24.7038 1.08122 24.8307 1.02588 24.9805 1.02588C25.1302 1.02588 25.2572 1.08122 25.3613 1.19189C25.472 1.29606 25.5273 1.42301 25.5273 1.57275C25.5273 1.72249 25.472 1.84945 25.3613 1.95361C25.2572 2.05778 25.1302 2.10986 24.9805 2.10986C24.8307 2.10986 24.7038 2.05778 24.5996 1.95361C24.4954 1.84945 24.4434 1.72249 24.4434 1.57275ZM29.2383 7.33447C29.5833 6.51416 30.0911 5.86637 30.7617 5.39111C31.4323 4.91585 32.1745 4.67822 32.9883 4.67822C34.1211 4.67822 34.9609 5.00049 35.5078 5.64502C36.0612 6.28304 36.3411 7.24984 36.3477 8.54541V15.4399H35.8203V8.52588C35.8138 7.39307 35.5827 6.55648 35.127 6.01611C34.6712 5.46924 33.9486 5.1958 32.959 5.1958C32.0475 5.1958 31.2565 5.52132 30.5859 6.17236C29.9219 6.81689 29.4727 7.65023 29.2383 8.67236V15.4399H28.7109V4.87354H29.2383V7.33447ZM3.00781 53.4243H10.0293V54.4399H1.79688V40.2212H3.00781V53.4243ZM13.3789 54.4399H12.207V43.8735H13.3789V54.4399ZM12.002 40.8169C12.002 40.5955 12.0736 40.41 12.2168 40.2603C12.36 40.104 12.5553 40.0259 12.8027 40.0259C13.0501 40.0259 13.2454 40.104 13.3887 40.2603C13.5384 40.41 13.6133 40.5955 13.6133 40.8169C13.6133 41.0382 13.5384 41.2238 13.3887 41.3735C13.2454 41.5233 13.0501 41.5981 12.8027 41.5981C12.5553 41.5981 12.36 41.5233 12.2168 41.3735C12.0736 41.2238 12.002 41.0382 12.002 40.8169ZM16.0938 49.0591C16.0938 47.4054 16.4583 46.0968 17.1875 45.1333C17.9232 44.1632 18.9193 43.6782 20.1758 43.6782C21.6146 43.6782 22.7083 44.2511 23.457 45.397L23.5156 43.8735H24.6094V54.2251C24.6094 55.5858 24.2285 56.6632 23.4668 57.4575C22.7051 58.2518 21.6732 58.6489 20.3711 58.6489C19.6354 58.6489 18.9323 58.4829 18.2617 58.1509C17.5977 57.8254 17.0736 57.3892 16.6895 56.8423L17.3438 56.1392C18.1706 57.1548 19.1536 57.6626 20.293 57.6626C21.2695 57.6626 22.0312 57.3729 22.5781 56.7935C23.125 56.2205 23.4082 55.423 23.4277 54.4009V53.0728C22.679 54.1144 21.5885 54.6353 20.1562 54.6353C18.9323 54.6353 17.9492 54.147 17.207 53.1704C16.4648 52.1938 16.0938 50.8755 16.0938 49.2153V49.0591ZM17.2754 49.2642C17.2754 50.6118 17.5456 51.6763 18.0859 52.4575C18.6263 53.2323 19.388 53.6196 20.3711 53.6196C21.8099 53.6196 22.8288 52.9751 23.4277 51.686V46.7739C23.1543 46.0968 22.7604 45.5825 22.2461 45.231C21.7318 44.8729 21.1133 44.6938 20.3906 44.6938C19.4076 44.6938 18.6426 45.0812 18.0957 45.856C17.5488 46.6242 17.2754 47.7603 17.2754 49.2642ZM28.8184 45.6606C29.2025 45.0291 29.694 44.5409 30.293 44.1958C30.8919 43.8507 31.5462 43.6782 32.2559 43.6782C33.3887 43.6782 34.2318 43.9972 34.7852 44.6353C35.3385 45.2733 35.6185 46.2303 35.625 47.5063V54.4399H34.4629V47.4966C34.4564 46.5526 34.2546 45.8494 33.8574 45.3872C33.4668 44.925 32.8385 44.6938 31.9727 44.6938C31.25 44.6938 30.6087 44.9217 30.0488 45.3774C29.4954 45.8267 29.0853 46.4354 28.8184 47.2036V54.4399H27.6562V39.4399H28.8184V45.6606ZM40.4492 41.1685V43.8735H42.6367V44.8306H40.4492V51.8716C40.4492 52.4575 40.5534 52.8937 40.7617 53.1802C40.9766 53.4666 41.3314 53.6099 41.8262 53.6099C42.0215 53.6099 42.3372 53.5773 42.7734 53.5122L42.8223 54.4692C42.5163 54.5799 42.0996 54.6353 41.5723 54.6353C40.7715 54.6353 40.1888 54.4041 39.8242 53.9419C39.4596 53.4731 39.2773 52.7863 39.2773 51.8813V44.8306H37.334V43.8735H39.2773V41.1685H40.4492ZM4.64844 80.2212L8.75 91.1196L12.8418 80.2212H16.0352V94.4399H13.5742V89.7524L13.8184 83.4829L9.61914 94.4399H7.85156L3.66211 83.4927L3.90625 89.7524V94.4399H1.44531V80.2212H4.64844ZM23.3887 94.6353C21.8848 94.6353 20.6641 94.1632 19.7266 93.2192C18.7956 92.2687 18.3301 91.0057 18.3301 89.4302V89.1372C18.3301 88.0825 18.5319 87.1418 18.9355 86.3149C19.3457 85.4816 19.9186 84.8338 20.6543 84.3716C21.39 83.9093 22.2103 83.6782 23.1152 83.6782C24.554 83.6782 25.6641 84.1372 26.4453 85.0552C27.2331 85.9731 27.627 87.272 27.627 88.9517V89.9087H20.7227C20.7943 90.7811 21.084 91.4712 21.5918 91.979C22.1061 92.4868 22.7507 92.7407 23.5254 92.7407C24.6126 92.7407 25.498 92.3013 26.1816 91.4224L27.4609 92.6431C27.0378 93.2746 26.4714 93.7661 25.7617 94.1177C25.0586 94.4627 24.2676 94.6353 23.3887 94.6353ZM23.1055 85.5825C22.4544 85.5825 21.9271 85.8104 21.5234 86.2661C21.1263 86.7218 20.8724 87.3566 20.7617 88.1704H25.2832V87.9946C25.2311 87.2004 25.0195 86.6014 24.6484 86.1978C24.2773 85.7876 23.763 85.5825 23.1055 85.5825ZM29.0332 89.0786C29.0332 87.451 29.4108 86.1457 30.166 85.1626C30.9212 84.173 31.9336 83.6782 33.2031 83.6782C34.3229 83.6782 35.2279 84.0688 35.918 84.8501V79.4399H38.291V94.4399H36.1426L36.0254 93.3462C35.3158 94.2056 34.3685 94.6353 33.1836 94.6353C31.9466 94.6353 30.944 94.1372 30.1758 93.1411C29.4141 92.145 29.0332 90.7909 29.0332 89.0786ZM31.4062 89.2837C31.4062 90.3579 31.6113 91.1978 32.0215 91.8032C32.4382 92.4022 33.0273 92.7017 33.7891 92.7017C34.7591 92.7017 35.4688 92.2687 35.918 91.4028V86.8911C35.4818 86.0448 34.7786 85.6216 33.8086 85.6216C33.0404 85.6216 32.4479 85.9276 32.0312 86.5396C31.6146 87.145 31.4062 88.0597 31.4062 89.2837ZM43.291 94.4399H40.918V83.8735H43.291V94.4399ZM40.7715 81.1294C40.7715 80.7648 40.8854 80.4621 41.1133 80.2212C41.3477 79.9803 41.6797 79.8599 42.1094 79.8599C42.5391 79.8599 42.8711 79.9803 43.1055 80.2212C43.3398 80.4621 43.457 80.7648 43.457 81.1294C43.457 81.4875 43.3398 81.7869 43.1055 82.0278C42.8711 82.2622 42.5391 82.3794 42.1094 82.3794C41.6797 82.3794 41.3477 82.2622 41.1133 82.0278C40.8854 81.7869 40.7715 81.4875 40.7715 81.1294ZM52.2852 93.4048C51.5885 94.2251 50.599 94.6353 49.3164 94.6353C48.1706 94.6353 47.3014 94.3 46.709 93.6294C46.123 92.9588 45.8301 91.9888 45.8301 90.7192V83.8735H48.2031V90.6899C48.2031 92.0311 48.7598 92.7017 49.873 92.7017C51.0254 92.7017 51.8034 92.2882 52.207 91.4614V83.8735H54.5801V94.4399H52.3438L52.2852 93.4048ZM59.2285 83.8735L59.2969 84.9771C60.0391 84.1112 61.0547 83.6782 62.3438 83.6782C63.7565 83.6782 64.7233 84.2186 65.2441 85.2993C66.0124 84.2186 67.0931 83.6782 68.4863 83.6782C69.6517 83.6782 70.5176 84.0005 71.084 84.645C71.6569 85.2896 71.9499 86.2401 71.9629 87.4966V94.4399H69.5898V87.5649C69.5898 86.8944 69.4434 86.4028 69.1504 86.0903C68.8574 85.7778 68.3724 85.6216 67.6953 85.6216C67.1549 85.6216 66.7122 85.7681 66.3672 86.061C66.0286 86.3475 65.791 86.7251 65.6543 87.1938L65.6641 94.4399H63.291V87.4868C63.2585 86.2433 62.6237 85.6216 61.3867 85.6216C60.4362 85.6216 59.7624 86.009 59.3652 86.7837V94.4399H56.9922V83.8735H59.2285ZM1.26953 133.44V119.221H6.25C7.97526 119.221 9.28385 119.553 10.1758 120.217C11.0677 120.875 11.5137 121.842 11.5137 123.118C11.5137 123.814 11.3346 124.43 10.9766 124.963C10.6185 125.491 10.1204 125.878 9.48242 126.125C10.2116 126.308 10.7845 126.676 11.2012 127.229C11.6243 127.782 11.8359 128.459 11.8359 129.26C11.8359 130.627 11.3997 131.663 10.5273 132.366C9.65495 133.069 8.41146 133.427 6.79688 133.44H1.26953ZM4.19922 127.249V131.086H6.70898C7.39909 131.086 7.9362 130.924 8.32031 130.598C8.71094 130.266 8.90625 129.81 8.90625 129.231C8.90625 127.929 8.23242 127.268 6.88477 127.249H4.19922ZM4.19922 125.178H6.36719C7.84505 125.152 8.58398 124.563 8.58398 123.411C8.58398 122.766 8.39518 122.304 8.01758 122.024C7.64648 121.737 7.05729 121.594 6.25 121.594H4.19922V125.178ZM13.418 128.059C13.418 127.011 13.6198 126.077 14.0234 125.256C14.4271 124.436 15.0065 123.801 15.7617 123.352C16.5234 122.903 17.4056 122.678 18.4082 122.678C19.834 122.678 20.9961 123.114 21.8945 123.987C22.7995 124.859 23.304 126.044 23.4082 127.542L23.4277 128.264C23.4277 129.885 22.9753 131.187 22.0703 132.17C21.1654 133.147 19.9512 133.635 18.4277 133.635C16.9043 133.635 15.6868 133.147 14.7754 132.17C13.8704 131.194 13.418 129.866 13.418 128.186V128.059ZM16.2402 128.264C16.2402 129.267 16.429 130.035 16.8066 130.569C17.1842 131.096 17.7246 131.36 18.4277 131.36C19.1113 131.36 19.6452 131.099 20.0293 130.579C20.4134 130.051 20.6055 129.211 20.6055 128.059C20.6055 127.076 20.4134 126.314 20.0293 125.774C19.6452 125.234 19.1048 124.963 18.4082 124.963C17.7181 124.963 17.1842 125.234 16.8066 125.774C16.429 126.308 16.2402 127.138 16.2402 128.264ZM28.1445 133.44H25.3125V118.44H28.1445V133.44ZM30.0391 128.079C30.0391 126.431 30.4069 125.12 31.1426 124.143C31.8848 123.167 32.8971 122.678 34.1797 122.678C35.2083 122.678 36.0579 123.062 36.7285 123.831V118.44H39.5605V133.44H37.0117L36.875 132.317C36.1719 133.196 35.2669 133.635 34.1602 133.635C32.9167 133.635 31.9173 133.147 31.1621 132.17C30.4134 131.187 30.0391 129.823 30.0391 128.079ZM32.8613 128.284C32.8613 129.273 33.0339 130.032 33.3789 130.559C33.724 131.086 34.2253 131.35 34.8828 131.35C35.7552 131.35 36.3704 130.982 36.7285 130.247V126.077C36.377 125.341 35.7682 124.973 34.9023 124.973C33.5417 124.973 32.8613 126.077 32.8613 128.284ZM1.65039 173.44V159.221H6.29883C7.8418 159.221 9.00065 159.54 9.77539 160.178C10.5566 160.816 10.9473 161.76 10.9473 163.01C10.9473 163.674 10.7585 164.264 10.3809 164.778C10.0033 165.286 9.48893 165.68 8.83789 165.959C9.60612 166.174 10.2116 166.584 10.6543 167.19C11.1035 167.789 11.3281 168.505 11.3281 169.338C11.3281 170.614 10.9147 171.617 10.0879 172.346C9.26107 173.075 8.09245 173.44 6.58203 173.44H1.65039ZM3.52539 166.79V171.907H6.62109C7.49349 171.907 8.18034 171.682 8.68164 171.233C9.18945 170.777 9.44336 170.152 9.44336 169.358C9.44336 167.646 8.51237 166.79 6.65039 166.79H3.52539ZM3.52539 165.286H6.35742C7.17773 165.286 7.83203 165.081 8.32031 164.67C8.8151 164.26 9.0625 163.704 9.0625 163C9.0625 162.219 8.83464 161.653 8.37891 161.301C7.92318 160.943 7.22982 160.764 6.29883 160.764H3.52539V165.286ZM15.791 173.44H13.9844V158.44H15.791V173.44ZM25.2148 173.44C25.1107 173.232 25.026 172.861 24.9609 172.327C24.1211 173.199 23.1185 173.635 21.9531 173.635C20.9115 173.635 20.0553 173.342 19.3848 172.756C18.7207 172.164 18.3887 171.415 18.3887 170.51C18.3887 169.41 18.8053 168.557 19.6387 167.952C20.4785 167.34 21.6569 167.034 23.1738 167.034H24.9316V166.204C24.9316 165.572 24.7428 165.071 24.3652 164.7C23.9876 164.322 23.431 164.133 22.6953 164.133C22.0508 164.133 21.5104 164.296 21.0742 164.622C20.638 164.947 20.4199 165.341 20.4199 165.803H18.6035C18.6035 165.276 18.7891 164.768 19.1602 164.28C19.5378 163.785 20.0456 163.394 20.6836 163.108C21.3281 162.821 22.0345 162.678 22.8027 162.678C24.0202 162.678 24.974 162.984 25.6641 163.596C26.3542 164.202 26.7122 165.038 26.7383 166.106V170.969C26.7383 171.939 26.862 172.711 27.1094 173.284V173.44H25.2148ZM22.2168 172.063C22.7832 172.063 23.3203 171.917 23.8281 171.624C24.3359 171.331 24.7038 170.95 24.9316 170.481V168.313H23.5156C21.3021 168.313 20.1953 168.961 20.1953 170.256C20.1953 170.823 20.3841 171.265 20.7617 171.584C21.1393 171.903 21.6243 172.063 22.2168 172.063ZM33.8086 172.161C34.4531 172.161 35.0163 171.965 35.498 171.575C35.9798 171.184 36.2467 170.696 36.2988 170.11H38.0078C37.9753 170.715 37.7669 171.292 37.3828 171.838C36.9987 172.385 36.4844 172.821 35.8398 173.147C35.2018 173.472 34.5247 173.635 33.8086 173.635C32.3698 173.635 31.224 173.157 30.3711 172.2C29.5247 171.236 29.1016 169.921 29.1016 168.254V167.952C29.1016 166.923 29.2904 166.008 29.668 165.208C30.0456 164.407 30.5859 163.785 31.2891 163.342C31.9987 162.9 32.8353 162.678 33.7988 162.678C34.9837 162.678 35.9668 163.033 36.748 163.743C37.5358 164.452 37.9557 165.374 38.0078 166.506H36.2988C36.2467 165.823 35.9863 165.263 35.5176 164.827C35.0553 164.384 34.4824 164.163 33.7988 164.163C32.8809 164.163 32.168 164.495 31.6602 165.159C31.1589 165.816 30.9082 166.77 30.9082 168.02V168.362C30.9082 169.579 31.1589 170.517 31.6602 171.174C32.1615 171.832 32.8776 172.161 33.8086 172.161ZM42.9883 168.547L41.8555 169.729V173.44H40.0488V158.44H41.8555V167.512L42.8223 166.35L46.1133 162.874H48.3105L44.1992 167.288L48.7891 173.44H46.6699L42.9883 168.547Z" fill="#23768F"/>
</svg>
