<svg width="407" height="101" viewBox="0 0 407 101" fill="none" xmlns="http://www.w3.org/2000/svg">
<path d="M34.688 63.1157H16.6499V99H0.466797V5.86719H33.2168C43.9629 5.86719 52.257 8.27653 58.0991 13.0952C63.9412 17.9139 66.8623 24.8861 66.8623 34.0117C66.8623 40.2376 65.3485 45.4614 62.3208 49.6831C59.3358 53.8621 55.1567 57.0817 49.7837 59.3418L70.7002 98.1685V99H53.3657L34.688 63.1157ZM16.6499 50.1309H33.2808C38.7391 50.1309 43.0034 48.7663 46.0737 46.0371C49.144 43.2653 50.6792 39.4914 50.6792 34.7153C50.6792 29.7261 49.2507 25.8669 46.3936 23.1377C43.5791 20.4085 39.3574 19.0013 33.7285 18.916H16.6499V50.1309ZM77.8003 63.7554C77.8003 56.9751 79.1436 50.8771 81.8301 45.4614C84.5166 40.0031 88.2905 35.8241 93.1519 32.9243C98.0132 29.9819 103.599 28.5107 109.911 28.5107C119.25 28.5107 126.819 31.5171 132.618 37.5298C138.46 43.5425 141.616 51.5168 142.085 61.4526L142.149 65.0986C142.149 71.9215 140.827 78.0195 138.183 83.3926C135.582 88.7656 131.829 92.9233 126.925 95.8657C122.064 98.8081 116.435 100.279 110.039 100.279C100.273 100.279 92.4482 97.0384 86.5635 90.5566C80.7214 84.0322 77.8003 75.3543 77.8003 64.5229V63.7554ZM93.3438 65.0986C93.3438 72.2201 94.8149 77.8063 97.7573 81.8574C100.7 85.8659 104.793 87.8701 110.039 87.8701C115.284 87.8701 119.356 85.8232 122.256 81.7295C125.198 77.6357 126.669 71.6444 126.669 63.7554C126.669 56.7619 125.156 51.2183 122.128 47.1245C119.143 43.0308 115.07 40.9839 109.911 40.9839C104.836 40.9839 100.806 43.0094 97.8213 47.0605C94.8363 51.069 93.3438 57.0817 93.3438 65.0986ZM216.028 65.0986C216.028 75.8447 213.619 84.3947 208.8 90.7485C204.024 97.1024 197.436 100.279 189.035 100.279C180.933 100.279 174.622 97.3582 170.102 91.5161L169.334 99H155.262V0.75H170.805V36.4424C175.283 31.1546 181.317 28.5107 188.907 28.5107C197.351 28.5107 203.982 31.645 208.8 37.9136C213.619 44.1821 216.028 52.9453 216.028 64.2031V65.0986ZM200.485 63.7554C200.485 56.2502 199.163 50.6213 196.519 46.8687C193.875 43.116 190.037 41.2397 185.005 41.2397C178.268 41.2397 173.534 44.1821 170.805 50.0669V78.5952C173.577 84.6079 178.353 87.6143 185.133 87.6143C189.995 87.6143 193.747 85.8019 196.391 82.1772C199.035 78.5526 200.4 73.0729 200.485 65.7383V63.7554ZM226.199 63.7554C226.199 56.9751 227.542 50.8771 230.229 45.4614C232.915 40.0031 236.689 35.8241 241.55 32.9243C246.412 29.9819 251.998 28.5107 258.309 28.5107C267.648 28.5107 275.217 31.5171 281.017 37.5298C286.859 43.5425 290.014 51.5168 290.483 61.4526L290.547 65.0986C290.547 71.9215 289.225 78.0195 286.582 83.3926C283.98 88.7656 280.228 92.9233 275.324 95.8657C270.462 98.8081 264.833 100.279 258.437 100.279C248.672 100.279 240.847 97.0384 234.962 90.5566C229.12 84.0322 226.199 75.3543 226.199 64.5229V63.7554ZM241.742 65.0986C241.742 72.2201 243.213 77.8063 246.156 81.8574C249.098 85.8659 253.192 87.8701 258.437 87.8701C263.682 87.8701 267.755 85.8232 270.654 81.7295C273.597 77.6357 275.068 71.6444 275.068 63.7554C275.068 56.7619 273.554 51.2183 270.526 47.1245C267.541 43.0308 263.469 40.9839 258.309 40.9839C253.235 40.9839 249.205 43.0094 246.22 47.0605C243.235 51.069 241.742 57.0817 241.742 65.0986ZM323.169 12.9673V29.79H335.387V41.3037H323.169V79.9385C323.169 82.5824 323.681 84.5013 324.705 85.6953C325.771 86.8467 327.647 87.4224 330.333 87.4224C332.125 87.4224 333.937 87.2091 335.771 86.7827V98.8081C332.231 99.7889 328.82 100.279 325.536 100.279C313.596 100.279 307.626 93.6909 307.626 80.5142V41.3037H296.24V29.79H307.626V12.9673H323.169ZM342.487 63.7554C342.487 56.9751 343.83 50.8771 346.517 45.4614C349.203 40.0031 352.977 35.8241 357.838 32.9243C362.7 29.9819 368.286 28.5107 374.597 28.5107C383.936 28.5107 391.505 31.5171 397.305 37.5298C403.147 43.5425 406.302 51.5168 406.771 61.4526L406.835 65.0986C406.835 71.9215 405.514 78.0195 402.87 83.3926C400.268 88.7656 396.516 92.9233 391.612 95.8657C386.75 98.8081 381.122 100.279 374.725 100.279C364.96 100.279 357.135 97.0384 351.25 90.5566C345.408 84.0322 342.487 75.3543 342.487 64.5229V63.7554ZM358.03 65.0986C358.03 72.2201 359.501 77.8063 362.444 81.8574C365.386 85.8659 369.48 87.8701 374.725 87.8701C379.97 87.8701 384.043 85.8232 386.942 81.7295C389.885 77.6357 391.356 71.6444 391.356 63.7554C391.356 56.7619 389.842 51.2183 386.814 47.1245C383.829 43.0308 379.757 40.9839 374.597 40.9839C369.523 40.9839 365.493 43.0094 362.508 47.0605C359.523 51.069 358.03 57.0817 358.03 65.0986Z" fill="#23768F"/>
</svg>
