<svg width="181" height="244" viewBox="0 0 181 244" fill="none" xmlns="http://www.w3.org/2000/svg">
<g filter="url(#filter0_d)">
<path d="M122.839 32.522C122.839 14.9881 108.301 0.774006 90.3669 0.774006C72.4329 0.774006 57.8945 14.9881 57.8945 32.522C57.8945 50.056 72.4329 64.27 90.3669 64.27C108.301 64.27 122.839 50.056 122.839 32.522Z" fill="#33CCD4" fill-opacity="0.67"/>
<path d="M52.5546 110.484C58.969 94.4418 75.5686 82.7242 93.1729 82.1036C110.777 81.483 128.322 92.1555 135.269 107.981C138.068 114.357 138.853 122.643 133.759 127.473C129.103 131.884 119.576 129.573 113.755 130.784C110.902 131.378 108.213 132.566 107.683 135.655C106.878 140.355 111.685 144.218 115.476 146.088C117.906 147.287 120.541 148.333 122.302 150.363C122.685 150.738 122.977 151.192 123.155 151.693C123.333 152.193 123.392 152.727 123.329 153.253C123.028 154.598 121.583 155.328 120.619 156.333C119.441 157.686 118.843 159.432 118.95 161.206C119.238 174.824 118.665 188.456 120.992 202.119C121.437 204.731 121.94 207.47 121.056 209.972C120.171 212.474 117.328 214.538 114.794 213.611C112.186 212.66 111.48 209.416 111.351 206.697C110.992 198.956 112.115 191.098 110.59 183.49C109.519 178.155 107.705 173.353 104.016 169.151C102.868 167.844 101.106 166.54 99.5007 167.259C97.7763 168.034 97.7957 170.397 98.0817 172.232L101.915 196.652C102.122 197.393 102.053 198.183 101.72 198.879C101.064 199.895 99.412 199.836 98.4713 199.06C97.6064 198.195 97.0346 197.091 96.8334 195.897C95.4962 190.795 94.9893 185.519 95.3315 180.263C95.5361 178.787 95.4868 177.288 95.1856 175.827C95.0229 175.098 94.6483 174.43 94.1069 173.904C93.5654 173.378 92.8801 173.016 92.1333 172.862C90.9808 179.635 92.0725 185.744 93.0425 192.408C94.0328 199.319 94.1867 206.319 93.5011 213.265C93.1985 216.402 90.9947 237.183 85.2677 234.983C83.1457 234.165 83.256 231.228 83.7485 229.05C84.4715 225.843 85.1958 222.636 85.9213 219.428C86.3346 218.107 86.4141 216.707 86.1529 215.348C85.7819 214.02 84.4959 212.828 83.1027 213.033C81.4701 213.277 80.6783 215.194 80.7577 216.807C80.8372 218.419 81.4566 220.004 81.2889 221.612C81.1212 223.219 79.6414 224.907 78.0599 224.441C76.2525 223.907 76.2397 221.44 76.5649 219.623C77.5363 214.411 78.1643 209.144 78.4451 203.853C78.6615 199.165 79.9065 194.55 79.7758 189.753C79.7465 188.608 79.5511 187.275 78.5277 186.72C78.0223 186.514 77.4602 186.482 76.9336 186.629C76.407 186.776 75.9472 187.094 75.6296 187.53C75.0181 188.42 74.6282 189.438 74.4907 190.502C72.627 199.365 70.1873 208.167 70.9178 217.293C71.1249 218.596 71.0729 219.926 70.7645 221.21C69.7842 224.195 66.4782 223.977 65.3934 221.212C64.4766 218.871 64.9162 215.257 65.0254 212.805C65.3139 206.293 66.8557 199.915 68.2465 193.565C69.2367 189.386 69.9999 185.16 70.5331 180.902C70.9265 177.266 71.6382 172.408 70.477 168.897C68.765 169.764 67.9544 171.743 67.7275 173.614C67.5007 175.486 67.715 177.397 67.3774 179.252C67.0398 181.107 65.9606 183.019 64.1228 183.582C63.6888 183.249 63.2548 182.916 62.8207 182.582C64.0122 178.442 65.2139 174.22 65.0459 169.92C64.961 167.722 64.5207 165.549 64.4033 163.353C64.2594 160.611 65.1731 158.098 65.5377 155.439C65.9802 152.229 66.3727 147.847 68.7496 145.326C70.8878 143.067 75.9729 143.485 77.2651 140.677C77.4812 140.083 77.5144 139.439 77.3605 138.827C77.2066 138.214 76.8725 137.659 76.3994 137.23C75.437 136.39 74.2891 135.778 73.0451 135.443C69.043 134.111 64.8238 133.397 60.9448 131.754C51.7258 127.836 49.0387 119.279 52.5546 110.484Z" fill="#33CCD4" fill-opacity="0.67"/>
</g>
<defs>
<filter id="filter0_d" x="47.0674" y="0.773926" width="94.4125" height="242.371" filterUnits="userSpaceOnUse" color-interpolation-filters="sRGB">
<feFlood flood-opacity="0" result="BackgroundImageFix"/>
<feColorMatrix in="SourceAlpha" type="matrix" values="0 0 0 0 0 0 0 0 0 0 0 0 0 0 0 0 0 0 127 0"/>
<feOffset dy="4"/>
<feGaussianBlur stdDeviation="2"/>
<feColorMatrix type="matrix" values="0 0 0 0 0 0 0 0 0 0 0 0 0 0 0 0 0 0 0.25 0"/>
<feBlend mode="normal" in2="BackgroundImageFix" result="effect1_dropShadow"/>
<feBlend mode="normal" in="SourceGraphic" in2="effect1_dropShadow" result="shape"/>
</filter>
</defs>
</svg>
