<svg width="1368" height="1386" viewBox="0 0 1368 1386" fill="none" xmlns="http://www.w3.org/2000/svg">
<path d="M-118.976 193.244C-101.701 194.35 -64.5662 169.739 -57.5622 157.417C-48.6192 141.692 -30.0742 114.271 -32.2762 151.31C-8.8382 153.345 -23.4272 125.4 -23.5282 115.626C-23.7052 98.6999 -34.3222 91.2599 -31.4802 77.0833C-29.4032 66.7365 -23.3722 70.6367 -21.2612 78.7115C-19.4412 85.67 -18.0192 90.7256 -15.8532 97.6166C-13.3232 105.671 -17.3152 111.785 -16.5932 119.312C0.868835 118.013 -11.6442 99.9052 -6.56418 93.0972C2.66681 80.7197 7.90881 97.2806 7.20581 104.058C6.30307 113.048 3.67136 121.789 -0.551178 129.825C-5.93417 140.02 -6.1702 143.576 -1.6312 153.536C3.20779 164.155 -3.19418 167.659 11.4168 169.575C18.8978 170.559 18.8488 167.503 24.2228 173.323C28.2788 177.713 26.1228 184.717 30.1018 189.426C40.6268 201.885 54.2248 195.906 52.6558 181.818C51.9888 175.827 49.0218 162.043 61.5228 170.691C63.6668 183.584 73.4488 183.397 74.2128 168.795C74.8218 157.133 64.1988 150.327 62.8318 138.846C62.1068 132.762 63.3318 128.219 60.2958 122.437C57.7728 117.629 50.8138 115.117 54.1958 108.719C57.4438 102.566 64.7698 102.872 67.3958 106.847C69.8668 110.59 66.1958 118.29 67.3708 122.509C69.0588 128.565 72.5708 127.806 75.0938 132.62C77.3938 137.004 71.8668 145.105 77.5228 147.869C92.2008 155.054 85.7928 111.716 84.1848 105.38C82.4258 98.4547 79.0848 94.0671 78.7348 86.4973C78.3738 78.6647 78.3558 71.3751 76.4898 63.6119C74.1408 53.8443 53.0028 24.3102 78.8178 21.9963C83.3108 28.7661 80.3658 36.0781 78.7048 42.9506C76.0468 53.9371 79.8428 53.6568 83.5898 62.5668C85.7768 67.7699 84.3608 74.2155 85.5898 79.6991C86.9268 85.6641 89.8318 91.633 91.5178 97.6411C94.6958 108.959 96.0348 120.858 96.6688 132.451C97.3138 144.342 93.5428 156.147 99.7688 167.289C113.894 192.559 121.996 149.346 122.797 139.506C124.265 121.466 114.471 108.543 111.752 91.7219C109.776 79.4891 104.952 65.8653 106.834 53.6431C107.95 46.4151 110.403 39.53 109.22 32.1408C108.07 24.9656 103.72 18.9019 104.849 11.1513C106.394 0.526207 114.202 -5.38512 117.371 6.77158C119.271 14.064 116.86 22.9916 117.347 30.4647C118.295 45.0946 115.503 61.8733 118.791 75.8711C122.204 90.3867 129.726 102.881 132.169 117.749C133.686 126.964 135.454 136.606 135.552 145.91C135.681 158.294 129.319 168.995 130.044 181.548C143.988 184.708 143.083 146.698 143.786 139.693C145.297 124.625 139.663 112.442 136.632 97.8882C131.39 72.7328 122.299 51.8088 125.578 25.8837C127.352 11.88 131.084 19.8454 132.145 29.4811C133.228 39.3288 136.635 49.0514 137.852 58.5884C138.571 64.2165 137.552 68.3618 140.097 73.7535C142.397 78.61 147.08 81.9065 148.93 87.1966C153.83 101.188 147.602 116.953 149.162 131.255C150.079 139.679 152.456 148.077 152.591 156.553C152.732 165.328 148.569 174.279 150.581 182.98C152.838 192.741 158.956 199.262 158.026 210.06C157.466 216.516 151.199 231.054 160.491 234.9C179.552 242.788 167.333 199.377 184.718 216.634C187.991 219.883 187.162 225.185 189.844 229.007C192.744 233.139 197.454 235.374 200.093 239.879C204.962 248.181 208.213 260.67 209.409 269.899C221.546 274.299 219.083 278.787 224.009 285.056C228.377 290.611 236.99 288.61 242.697 291.584C252.549 296.713 252.576 305.906 254.825 314.382C256.425 320.423 263.15 330.281 261.67 335.211C265.175 327.509 276.856 334.701 278.719 340.695C280.478 336.081 286.06 332.437 291.186 330.48C303.203 325.889 300.408 329.767 307.173 337.647C308.919 339.683 308.387 342.124 310.424 343.79C311.914 345.011 317.076 342.889 319.358 344.542C325.191 348.77 322.594 352.51 325.12 357.231C329.096 364.655 336.376 367.13 330.983 375.913C334.486 377.438 337.548 379.787 339.895 382.751C342.242 385.714 343.8 389.199 344.431 392.895C353.252 391.429 357.331 397.425 355.809 404.001C354.017 405.127 354.176 403.737 352.576 403.377C360.639 405.216 370.967 418.409 377.519 418.662C384.236 418.92 388.989 408.824 387.977 404.47C390.665 404.763 396.529 407.051 399.159 406.261C404.588 404.628 401.838 400.713 405.959 398.526C417.505 392.403 420.818 400.875 430.874 404.111C442.313 407.79 468.513 401.978 477.331 408.066C488.363 415.678 457.055 425.982 449.158 428.936C465.65 428.439 481.231 429.858 497.808 430.837C507.779 431.423 545.945 428.123 553.655 436.511C564.626 448.448 523.411 460.805 515.061 465.85C530.746 469.937 547.082 468.039 533.261 478.841C542.284 485.641 569.279 488.918 571.692 500.353C573.279 507.857 562.07 514.051 555.968 518.056C538.136 529.766 518.212 539.828 499.157 550.094C529.049 548.326 534.677 576.243 557.726 585.061C565.7 588.109 573.854 585.5 581.855 586.926C594.371 589.161 597.735 596.606 604.262 604.622C612.777 615.086 621.773 625.063 637.833 623.208C645.819 622.286 647.899 617.748 657.099 625.817C659.087 620.698 659.365 611.954 658.053 606.558C657.126 602.748 648.715 594.348 650.434 590.685C654.086 582.893 662.445 589.024 665.902 593.561C669.263 584.713 675.359 591.652 681.528 592.313C688.456 593.059 695.328 588.335 698.002 596.476C698.008 582.334 697.681 572.441 693.631 559.008C690.71 549.327 691.869 545.153 695.451 535.566C700.516 521.996 703.743 512.033 699.421 498.122C696.727 489.447 691.521 482.081 691.193 473C691.031 468.57 690.811 452.571 695.649 450.428C705.382 446.123 702.323 458.06 702.295 462.299C702.203 476.61 710.645 491.384 715.93 505.415C719.245 514.218 719.071 519.548 718.141 528.899C716.716 543.282 726.476 542.365 734.985 530.542C750.572 508.887 736.973 496.767 731.296 476.004C728.543 465.943 725.063 458.026 725.527 447.413C726.176 432.674 721.551 423.822 717.296 409.798C714.91 401.943 710.796 351.636 728.677 374.387C738.783 387.249 733.146 406.522 737.55 421.393C740.401 431.019 740.933 441.117 743.707 450.719C746.334 459.816 752.849 467.581 757.055 476.213C760.961 484.229 763.998 490.669 762.6 499.624C761.1 509.245 746.8 531.75 754.733 540.497C763.472 550.128 772.981 536.165 776.391 529.544C783.924 514.928 786.029 498.721 780.636 483.844C773.636 464.51 766.147 449.787 766.175 429.156C766.181 424.743 762.814 403.404 771.858 402.563C779.958 401.811 778.624 417.67 778.676 421.859C778.768 429.673 777.476 438 780.071 445.548C783.053 454.241 789.739 462.035 792.4 471.108C795.006 480.006 795.737 488.63 795.718 497.774C795.706 504.332 791.31 526.106 795.895 530.871C805.095 540.429 812.173 513.94 813.066 508.957C814.73 499.659 810.827 493.223 810.466 484.31C810.224 478.373 810.866 464.913 821.4 471.515C828.028 475.668 821.266 494.04 828.646 495.011C840.428 496.558 834.179 467.894 832.102 463.338C825.945 449.819 816.302 442.032 816.151 426.729C815.971 408.102 822.213 391.994 815.319 373.725C811.774 364.328 806.189 353.456 819.576 347.377C829.165 354.46 821.402 378.079 823.818 388.274C826.409 399.197 826.549 417.202 837.784 424.455C855.897 411.583 834.615 373.723 832.303 357.623C831.052 348.899 810.819 290.544 834.349 295.365C845.794 297.709 839.643 313.587 839.123 319.631C838.273 329.49 843.054 335.642 845.742 344.58C850.85 361.562 844.436 391.513 859.607 405.318C879.751 423.648 869.807 380.614 878.641 378.69C893.594 375.439 889.341 416.374 892.279 420.914C899.424 431.951 905.097 429.569 908.548 418.779C912.729 405.703 910.105 393.475 905.658 380.926C902.945 373.265 894.191 336.484 908.129 332.284C922.029 328.096 925.04 383.844 925.542 388.936C927.042 404.157 937.737 411.636 941.236 425.195C946.145 444.225 940.025 469.819 940.025 489.52C940.025 491.729 943.487 487.436 946.054 488.348C951.807 482.908 953.454 470.135 961.554 466.79C969.005 463.715 976.04 471.517 983.038 467.837C990.871 463.722 982.062 431.469 1000.08 442.096C998.646 433.652 1014.95 429.682 1020.86 425.155C1011.71 421.257 977.302 424.178 972.825 416.234C968.125 407.887 986.916 400.776 994.225 397.708C1006.16 392.693 1018.97 392.177 1031.44 389.042C1041.83 386.433 1060.79 383.701 1069.24 378.068C1054.35 372.949 1038.71 387.651 1024.17 379.534C1028.68 375.306 1034.43 371.747 1037.63 366.659C1036.25 366.389 1034.47 365.757 1033.46 365.569C1037.05 363.383 1042.71 362.211 1046.29 360.84C1042.61 358.859 1031.33 358.071 1030.77 354.162C1030.21 350.234 1048.68 345.013 1052.13 342.039C1057.01 337.822 1058.65 330.877 1063.77 326.904C1070.55 321.653 1084.62 317.092 1093.22 314.839C1104.81 311.811 1114.96 308.652 1126.41 305.106C1138.35 301.406 1148.04 296.761 1159.33 292.638C1149.13 293.09 1145.76 286.38 1145.92 279.392C1146.11 271.126 1148.7 271.773 1141.43 265.353C1135.08 259.745 1132.16 262.708 1135.39 253.666C1139.94 240.893 1139.99 248.106 1134.31 237.425C1131.08 231.37 1127.87 221.083 1129.69 214.602C1132.34 205.159 1141.4 200.634 1143.42 190.172C1146.6 173.603 1138.08 156.669 1144.73 140.394C1157.08 138.722 1149.87 160.13 1150.25 166.961C1150.98 180.425 1151.58 194.301 1152.52 207.945C1153.03 215.36 1152.9 226.611 1156.72 233.268C1164.8 247.334 1170.99 231.536 1171.91 222.208C1173.98 201.266 1167.35 178.702 1165.29 157.798C1163.28 137.37 1154.65 117.646 1153.88 97.1146C1153.65 91.0304 1154 82.2269 1165.38 85.2851C1173.94 87.5863 1172.69 100.193 1173.79 106.797C1177.35 128.258 1180.07 149.395 1183.22 170.885C1186.26 191.69 1177.26 225.532 1191.4 243.518C1205.2 240.443 1203.04 214.454 1203.95 205.435C1205.32 191.936 1201.26 185.849 1197.08 174.179C1190.13 154.732 1194.93 131.893 1193.18 112.057C1192.43 103.453 1184.94 87.5893 1191.37 79.4998C1197.86 71.339 1200.83 76.1593 1202.79 83.6559C1206.19 96.7161 1206.34 110.577 1209.29 123.651C1210.99 131.186 1213.58 138.582 1215.26 146.156C1217.27 155.24 1222.98 160.612 1226.14 168.591C1229.44 176.925 1224.18 188.9 1222.99 197.242C1221.16 210.135 1221.57 222.93 1220.74 235.878C1220.44 240.533 1216.45 255 1225.23 257.512C1237.21 260.94 1238.87 242.067 1239.75 236.813C1242.74 218.841 1237.25 201.907 1237.7 183.997C1237.84 178.684 1238.06 168.778 1247.12 172.758C1254.6 176.04 1252.24 191.381 1252.68 196.9C1282.59 196.1 1238.69 124.985 1261.59 122.328C1281.82 119.983 1266.59 188.367 1289.17 177.409C1299.17 172.557 1286.27 157.907 1289.89 153.381C1294.38 147.75 1308.97 153.235 1314.8 143.861C1321.29 133.423 1306.64 131.116 1308.5 121.519C1309.79 114.825 1320.31 106.867 1326.3 103.541C1322.23 103.946 1318.27 102.924 1316.1 100.606C1323.5 92.6811 1337.54 89.3894 1349.09 90.0751C1360.06 90.7247 1367.62 100.292 1375.3 95.036C1379.08 92.4555 1375.88 87.4711 1381.37 84.3503C1397.01 75.4619 1404.98 91.9964 1413.92 97.3597C1421.97 102.191 1433.61 101.217 1443.18 99.5819C1453.72 97.7807 1464.28 92.7739 1475.83 94.9599C1482.13 96.1544 1485.8 100.349 1491.61 101.541C1497.93 102.84 1504.9 99.8905 1511.1 99.4695C1520.24 98.8503 1546.24 100.336 1545.81 110.733C1549.91 110.607 1551.03 113.103 1552.48 113.738C1571.71 142.28 1598.59 158.984 1614.42 190.927C1653.35 269.526 1648.49 364.038 1653.08 447.643C1664.4 653.869 1654.21 873.103 1532.68 1057.36C1393.4 1268.53 1079.1 1359.04 806.837 1380.62C668.823 1391.56 546.919 1385.81 414.747 1350.75C258.733 1309.37 100.483 1268.35 -22.8952 1174.43C-225.03 1020.55 -292.84 807.408 -352.679 593.64C-379.353 498.348 -439.449 418.117 -353.196 334.172C-323.913 305.671 -304.121 287.441 -267.842 267.86C-252.396 259.521 -234.142 245.415 -221.929 234.322C-201.923 216.155 -171.474 194.422 -143.216 186.933" fill="#3E6D7F"/>
</svg>
