<svg width="798" height="127" viewBox="0 0 798 127" fill="none" xmlns="http://www.w3.org/2000/svg">
<path d="M408.781 2.49999H425.431L446.881 101.05L468.481 2.49999H484.981L487.231 124H473.581L472.231 35.8L451.681 124H442.081L421.681 35.8L420.331 124H406.531L408.781 2.49999ZM535.554 2.49999H551.904L577.854 124H561.804L556.254 93.4H531.504L525.654 124H509.754L535.554 2.49999ZM554.004 81.25L543.804 26.5L533.754 81.25H554.004ZM600.682 2.49999H625.132C637.432 2.49999 646.432 5.04999 652.132 10.15C657.932 15.15 660.832 23.35 660.832 34.75C660.832 50.35 655.832 59.8 645.832 63.1L663.082 124H646.732L630.832 67H617.632V124H600.682V2.49999ZM624.082 54.85C631.382 54.85 636.582 53.4 639.682 50.5C642.882 47.6 644.482 42.35 644.482 34.75C644.482 29.75 643.932 25.85 642.832 23.05C641.732 20.15 639.782 18.05 636.982 16.75C634.182 15.35 630.232 14.65 625.132 14.65H617.632V54.85H624.082ZM689.866 2.49999H706.516V124H689.866V2.49999ZM736.673 2.49999H748.223L782.723 83.2V2.49999H796.823V124H786.023L751.073 41.05V124H736.673V2.49999Z" fill="white"/>
<path d="M1.45 2.49999V1.49999H0.45V2.49999H1.45ZM18.4 2.49999H19.4V1.49999H18.4V2.49999ZM18.4 111.85H17.4V112.85H18.4V111.85ZM49.45 111.85H50.45V110.85H49.45V111.85ZM49.45 124V125H50.45V124H49.45ZM1.45 124H0.45V125H1.45V124ZM1.45 3.49999H18.4V1.49999H1.45V3.49999ZM17.4 2.49999V111.85H19.4V2.49999H17.4ZM18.4 112.85H49.45V110.85H18.4V112.85ZM48.45 111.85V124H50.45V111.85H48.45ZM49.45 123H1.45V125H49.45V123ZM2.45 124V2.49999H0.45V124H2.45ZM90.7691 2.49999V1.49999H89.9592L89.791 2.29227L90.7691 2.49999ZM107.119 2.49999L108.097 2.29112L107.928 1.49999H107.119V2.49999ZM133.069 124V125H134.305L134.047 123.791L133.069 124ZM117.019 124L116.035 124.178L116.184 125H117.019V124ZM111.469 93.4L112.453 93.2215L112.304 92.4H111.469V93.4ZM86.7191 93.4V92.4H85.8922L85.7369 93.2122L86.7191 93.4ZM80.8691 124V125H81.6961L81.8513 124.188L80.8691 124ZM64.9691 124L63.991 123.792L63.7345 125H64.9691V124ZM109.219 81.25V82.25H110.423L110.202 81.0668L109.219 81.25ZM99.0191 26.5L100.002 26.3168L98.0356 26.3195L99.0191 26.5ZM88.9691 81.25L87.9856 81.0695L87.7689 82.25H88.9691V81.25ZM90.7691 3.49999H107.119V1.49999H90.7691V3.49999ZM106.141 2.70886L132.091 124.209L134.047 123.791L108.097 2.29112L106.141 2.70886ZM133.069 123H117.019V125H133.069V123ZM118.003 123.822L112.453 93.2215L110.485 93.5785L116.035 124.178L118.003 123.822ZM111.469 92.4H86.7191V94.4H111.469V92.4ZM85.7369 93.2122L79.8869 123.812L81.8513 124.188L87.7014 93.5878L85.7369 93.2122ZM80.8691 123H64.9691V125H80.8691V123ZM65.9473 124.208L91.7473 2.70771L89.791 2.29227L63.991 123.792L65.9473 124.208ZM110.202 81.0668L100.002 26.3168L98.0361 26.6831L108.236 81.4332L110.202 81.0668ZM98.0356 26.3195L87.9856 81.0695L89.9527 81.4305L100.003 26.6805L98.0356 26.3195ZM88.9691 82.25H109.219V80.25H88.9691V82.25ZM160.411 114.7L159.585 115.263L159.588 115.268L160.411 114.7ZM160.261 11.8L159.44 11.2289L160.261 11.8ZM209.161 10.3L208.379 10.9231L208.386 10.9311L209.161 10.3ZM216.361 46V47H217.361V46H216.361ZM200.311 46H199.311V47H200.311V46ZM199.561 24.55L200.548 24.3856L199.561 24.55ZM195.661 17.35L194.992 18.0933L195.001 18.1014L195.011 18.1093L195.661 17.35ZM175.561 17.65L176.215 18.4068L176.218 18.4046L175.561 17.65ZM171.211 25.75L172.191 25.9517L172.192 25.9461L171.211 25.75ZM171.661 102.25L172.623 101.975L171.661 102.25ZM176.461 109.75L175.898 110.576L175.906 110.582L175.915 110.588L176.461 109.75ZM195.511 109.15L196.182 109.892L195.511 109.15ZM199.411 101.35L198.427 101.171L198.425 101.186L198.423 101.2L199.411 101.35ZM200.311 78.85V77.85H199.311V78.85H200.311ZM216.361 78.85H217.361V77.85H216.361V78.85ZM209.461 115.75L208.645 115.172L208.643 115.175L209.461 115.75ZM185.761 124.35C173.951 124.35 165.88 120.864 161.234 114.132L159.588 115.268C164.742 122.736 173.572 126.35 185.761 126.35V124.35ZM161.238 114.137C156.491 107.162 154.061 97.4848 154.061 85H152.061C152.061 97.7152 154.532 107.838 159.585 115.263L161.238 114.137ZM154.061 85V42.1H152.061V85H154.061ZM154.061 42.1C154.061 28.8945 156.449 19.0316 161.082 12.3711L159.44 11.2289C154.474 18.3683 152.061 28.7055 152.061 42.1H154.061ZM161.082 12.3711C165.621 5.8472 173.731 2.45 185.761 2.45V0.449997C173.391 0.449997 164.502 3.95279 159.44 11.2289L161.082 12.3711ZM185.761 2.45C196.498 2.45 203.942 5.35321 208.379 10.9231L209.943 9.67692C204.98 3.44678 196.825 0.449997 185.761 0.449997V2.45ZM208.386 10.9311C212.983 16.5815 215.361 25.0172 215.361 36.4H217.361C217.361 24.7827 214.94 15.8185 209.937 9.66891L208.386 10.9311ZM215.361 36.4V46H217.361V36.4H215.361ZM216.361 45H200.311V47H216.361V45ZM201.311 46V37.45H199.311V46H201.311ZM201.311 37.45C201.311 31.8325 201.061 27.4675 200.548 24.3856L198.575 24.7144C199.061 27.6325 199.311 31.8675 199.311 37.45H201.311ZM200.548 24.3856C200.013 21.1788 198.608 18.559 196.312 16.5907L195.011 18.1093C196.914 19.741 198.109 21.9212 198.575 24.7144L200.548 24.3856ZM196.33 16.6067C194.057 14.5611 190.504 13.65 185.911 13.65V15.65C190.319 15.65 193.265 16.5388 194.992 18.0933L196.33 16.6067ZM185.911 13.65C181.189 13.65 177.46 14.6736 174.905 16.8954L176.218 18.4046C178.262 16.6264 181.434 15.65 185.911 15.65V13.65ZM174.908 16.8932C172.504 18.9692 170.964 21.8868 170.231 25.5539L172.192 25.9461C172.858 22.6132 174.219 20.1308 176.215 18.4068L174.908 16.8932ZM170.232 25.5483C169.512 29.0441 169.161 33.7208 169.161 39.55H171.161C171.161 33.7791 171.51 29.2559 172.191 25.9517L170.232 25.5483ZM169.161 39.55V87.7H171.161V39.55H169.161ZM169.161 87.7C169.161 93.9375 169.663 98.8944 170.7 102.525L172.623 101.975C171.66 98.6056 171.161 93.8625 171.161 87.7H169.161ZM170.7 102.525C171.741 106.167 173.444 108.903 175.898 110.576L177.025 108.924C175.078 107.597 173.582 105.333 172.623 101.975L170.7 102.525ZM175.915 110.588C178.436 112.232 181.801 113 185.911 113V111C182.021 111 179.087 110.268 177.008 108.912L175.915 110.588ZM185.911 113C190.335 113 193.823 112.026 196.182 109.892L194.84 108.408C192.999 110.074 190.088 111 185.911 111V113ZM196.182 109.892C198.483 107.81 199.872 104.985 200.4 101.5L198.423 101.2C197.951 104.315 196.74 106.69 194.84 108.408L196.182 109.892ZM200.395 101.529C201.011 98.1431 201.311 93.5747 201.311 87.85H199.311C199.311 93.5253 199.012 97.9569 198.427 101.171L200.395 101.529ZM201.311 87.85V78.85H199.311V87.85H201.311ZM200.311 79.85H216.361V77.85H200.311V79.85ZM215.361 78.85V87.85H217.361V78.85H215.361ZM215.361 87.85C215.361 99.8441 213.078 108.908 208.645 115.172L210.278 116.328C215.045 109.592 217.361 100.056 217.361 87.85H215.361ZM208.643 115.175C204.404 121.203 196.89 124.35 185.761 124.35V126.35C197.233 126.35 205.518 123.097 210.279 116.325L208.643 115.175ZM256.359 15.1H257.359V14.1H256.359V15.1ZM235.809 15.1H234.809V16.1H235.809V15.1ZM235.809 2.49999V1.49999H234.809V2.49999H235.809ZM293.259 2.49999H294.259V1.49999H293.259V2.49999ZM293.259 15.1V16.1H294.259V15.1H293.259ZM273.309 15.1V14.1H272.309V15.1H273.309ZM273.309 124V125H274.309V124H273.309ZM256.359 124H255.359V125H256.359V124ZM256.359 14.1H235.809V16.1H256.359V14.1ZM236.809 15.1V2.49999H234.809V15.1H236.809ZM235.809 3.49999H293.259V1.49999H235.809V3.49999ZM292.259 2.49999V15.1H294.259V2.49999H292.259ZM293.259 14.1H273.309V16.1H293.259V14.1ZM272.309 15.1V124H274.309V15.1H272.309ZM273.309 123H256.359V125H273.309V123ZM257.359 124V15.1H255.359V124H257.359ZM320.871 115.3L320.071 115.9L320.076 115.907L320.082 115.913L320.871 115.3ZM321.021 11.2L320.241 10.5753H320.241L321.021 11.2ZM371.871 11.35L371.08 11.9614L371.085 11.9681L371.091 11.9747L371.871 11.35ZM371.871 115.15L371.077 114.543L371.871 115.15ZM359.271 106.45L360.131 106.961L359.271 106.45ZM359.271 20.05L358.418 20.5715L358.425 20.5822L359.271 20.05ZM333.621 20.05L334.468 20.5822L334.475 20.5714L333.621 20.05ZM333.621 106.45L334.481 105.939L333.621 106.45ZM346.521 124.35C334.799 124.35 326.604 121.055 321.661 114.687L320.082 115.913C325.539 122.945 334.444 126.35 346.521 126.35V124.35ZM321.671 114.7C316.752 108.141 314.221 98.5875 314.221 85.9H312.221C312.221 98.8125 314.791 108.859 320.071 115.9L321.671 114.7ZM314.221 85.9V39.85H312.221V85.9H314.221ZM314.221 39.85C314.221 27.3657 316.801 18.0765 321.802 11.8247L320.241 10.5753C314.842 17.3235 312.221 27.1343 312.221 39.85H314.221ZM321.802 11.8247C326.743 5.64923 334.892 2.45 346.521 2.45V0.449997C334.551 0.449997 325.7 3.75076 320.241 10.5753L321.802 11.8247ZM346.521 2.45C358.147 2.45 366.239 5.69681 371.08 11.9614L372.663 10.7385C367.304 3.80318 358.496 0.449997 346.521 0.449997V2.45ZM371.091 11.9747C376.093 18.2277 378.671 27.468 378.671 39.85H380.671C380.671 27.232 378.05 17.4723 372.652 10.7253L371.091 11.9747ZM378.671 39.85V86.05H380.671V39.85H378.671ZM378.671 86.05C378.671 98.5299 376.094 107.982 371.077 114.543L372.666 115.757C378.049 108.718 380.671 98.7701 380.671 86.05H378.671ZM371.077 114.543C366.13 121.012 358.032 124.35 346.521 124.35V126.35C358.411 126.35 367.213 122.888 372.666 115.757L371.077 114.543ZM346.521 113C352.996 113 357.675 111.091 360.131 106.961L358.412 105.939C356.468 109.209 352.647 111 346.521 111V113ZM360.131 106.961C362.468 103.03 363.571 97.2134 363.571 89.65H361.571C361.571 97.0866 360.475 102.47 358.412 105.939L360.131 106.961ZM363.571 89.65V36.4H361.571V89.65H363.571ZM363.571 36.4C363.571 28.9405 362.47 23.2593 360.118 19.5178L358.425 20.5822C360.473 23.8407 361.571 29.0595 361.571 36.4H363.571ZM360.125 19.5285C357.664 15.5016 352.985 13.65 346.521 13.65V15.65C352.658 15.65 356.479 17.3984 358.418 20.5714L360.125 19.5285ZM346.521 13.65C339.966 13.65 335.232 15.4973 332.768 19.5285L334.475 20.5714C336.411 17.4027 340.277 15.65 346.521 15.65V13.65ZM332.775 19.5178C330.423 23.2593 329.321 28.9405 329.321 36.4H331.321C331.321 29.0595 332.42 23.8407 334.468 20.5822L332.775 19.5178ZM329.321 36.4V89.65H331.321V36.4H329.321ZM329.321 89.65C329.321 97.2134 330.425 103.03 332.762 106.961L334.481 105.939C332.418 102.47 331.321 97.0866 331.321 89.65H329.321ZM332.762 106.961C335.22 111.096 339.955 113 346.521 113V111C340.288 111 336.422 109.204 334.481 105.939L332.762 106.961ZM408.781 2.49999V1.49999H407.799L407.781 2.48148L408.781 2.49999ZM425.431 2.49999L426.408 2.28732L426.237 1.49999H425.431V2.49999ZM446.881 101.05L445.904 101.263L447.858 101.264L446.881 101.05ZM468.481 2.49999V1.49999H467.676L467.504 2.2859L468.481 2.49999ZM484.981 2.49999L485.981 2.48148L485.963 1.49999H484.981V2.49999ZM487.231 124V125H488.25L488.231 123.981L487.231 124ZM473.581 124L472.581 124.015L472.596 125H473.581V124ZM472.231 35.8L473.231 35.7847L471.257 35.5731L472.231 35.8ZM451.681 124V125H452.475L452.655 124.227L451.681 124ZM442.081 124L441.107 124.225L441.286 125H442.081V124ZM421.681 35.8L422.655 35.5747L420.681 35.7847L421.681 35.8ZM420.331 124V125H421.316L421.331 124.015L420.331 124ZM406.531 124L405.531 123.981L405.512 125H406.531V124ZM408.781 3.49999H425.431V1.49999H408.781V3.49999ZM424.454 2.71267L445.904 101.263L447.858 100.837L426.408 2.28732L424.454 2.71267ZM447.858 101.264L469.458 2.71409L467.504 2.2859L445.904 100.836L447.858 101.264ZM468.481 3.49999H484.981V1.49999H468.481V3.49999ZM483.981 2.51851L486.231 124.019L488.231 123.981L485.981 2.48148L483.981 2.51851ZM487.231 123H473.581V125H487.231V123ZM474.581 123.985L473.231 35.7847L471.231 35.8153L472.581 124.015L474.581 123.985ZM471.257 35.5731L450.707 123.773L452.655 124.227L473.205 36.0269L471.257 35.5731ZM451.681 123H442.081V125H451.681V123ZM443.055 123.775L422.655 35.5747L420.707 36.0253L441.107 124.225L443.055 123.775ZM420.681 35.7847L419.331 123.985L421.331 124.015L422.681 35.8153L420.681 35.7847ZM420.331 123H406.531V125H420.331V123ZM407.531 124.019L409.781 2.51851L407.781 2.48148L405.531 123.981L407.531 124.019ZM535.554 2.49999V1.49999H534.744L534.576 2.29227L535.554 2.49999ZM551.904 2.49999L552.882 2.29112L552.713 1.49999H551.904V2.49999ZM577.854 124V125H579.09L578.832 123.791L577.854 124ZM561.804 124L560.82 124.178L560.969 125H561.804V124ZM556.254 93.4L557.238 93.2215L557.089 92.4H556.254V93.4ZM531.504 93.4V92.4H530.677L530.522 93.2122L531.504 93.4ZM525.654 124V125H526.481L526.637 124.188L525.654 124ZM509.754 124L508.776 123.792L508.52 125H509.754V124ZM554.004 81.25V82.25H555.208L554.987 81.0668L554.004 81.25ZM543.804 26.5L544.787 26.3168L542.821 26.3195L543.804 26.5ZM533.754 81.25L532.771 81.0695L532.554 82.25H533.754V81.25ZM535.554 3.49999H551.904V1.49999H535.554V3.49999ZM550.926 2.70886L576.876 124.209L578.832 123.791L552.882 2.29112L550.926 2.70886ZM577.854 123H561.804V125H577.854V123ZM562.788 123.822L557.238 93.2215L555.27 93.5785L560.82 124.178L562.788 123.822ZM556.254 92.4H531.504V94.4H556.254V92.4ZM530.522 93.2122L524.672 123.812L526.637 124.188L532.487 93.5878L530.522 93.2122ZM525.654 123H509.754V125H525.654V123ZM510.732 124.208L536.532 2.70771L534.576 2.29227L508.776 123.792L510.732 124.208ZM554.987 81.0668L544.787 26.3168L542.821 26.6831L553.021 81.4332L554.987 81.0668ZM542.821 26.3195L532.771 81.0695L534.738 81.4305L544.788 26.6805L542.821 26.3195ZM533.754 82.25H554.004V80.25H533.754V82.25ZM600.682 2.49999V1.49999H599.682V2.49999H600.682ZM652.132 10.15L651.466 10.8952L651.472 10.9014L651.479 10.9074L652.132 10.15ZM645.832 63.1L645.519 62.1504L644.609 62.4506L644.87 63.3725L645.832 63.1ZM663.082 124V125H664.405L664.045 123.727L663.082 124ZM646.732 124L645.769 124.269L645.973 125H646.732V124ZM630.832 67L631.796 66.7313L631.592 66H630.832V67ZM617.632 67V66H616.632V67H617.632ZM617.632 124V125H618.632V124H617.632ZM600.682 124H599.682V125H600.682V124ZM639.682 50.5L639.011 49.759L639.005 49.7643L638.999 49.7697L639.682 50.5ZM642.832 23.05L641.897 23.4047L641.902 23.4156L642.832 23.05ZM636.982 16.75L636.535 17.6444L636.548 17.6509L636.561 17.657L636.982 16.75ZM617.632 14.65V13.65H616.632V14.65H617.632ZM617.632 54.85H616.632V55.85H617.632V54.85ZM600.682 3.49999H625.132V1.49999H600.682V3.49999ZM625.132 3.49999C637.328 3.49999 646.032 6.03392 651.466 10.8952L652.799 9.40475C646.832 4.06607 637.537 1.49999 625.132 1.49999V3.49999ZM651.479 10.9074C656.969 15.64 659.832 23.4966 659.832 34.75H661.832C661.832 23.2034 658.896 14.66 652.785 9.39258L651.479 10.9074ZM659.832 34.75C659.832 42.4565 658.595 48.5399 656.199 53.0698C653.817 57.5704 650.27 60.5827 645.519 62.1504L646.146 64.0496C651.395 62.3173 655.348 58.9546 657.966 54.0052C660.57 49.0851 661.832 42.6435 661.832 34.75H659.832ZM644.87 63.3725L662.12 124.273L664.045 123.727L646.795 62.8275L644.87 63.3725ZM663.082 123H646.732V125H663.082V123ZM647.696 123.731L631.796 66.7313L629.869 67.2687L645.769 124.269L647.696 123.731ZM630.832 66H617.632V68H630.832V66ZM616.632 67V124H618.632V67H616.632ZM617.632 123H600.682V125H617.632V123ZM601.682 124V2.49999H599.682V124H601.682ZM624.082 55.85C631.468 55.85 636.986 54.3919 640.366 51.2303L638.999 49.7697C636.179 52.4081 631.297 53.85 624.082 53.85V55.85ZM640.354 51.241C643.876 48.049 645.482 42.4314 645.482 34.75H643.482C643.482 42.2686 641.889 47.1509 639.011 49.759L640.354 51.241ZM645.482 34.75C645.482 29.6966 644.929 25.6529 643.763 22.6843L641.902 23.4156C642.935 26.0471 643.482 29.8034 643.482 34.75H645.482ZM643.767 22.6953C642.575 19.5525 640.442 17.2535 637.404 15.843L636.561 17.657C639.123 18.8465 640.89 20.7475 641.897 23.4046L643.767 22.6953ZM637.43 15.8556C634.43 14.3557 630.301 13.65 625.132 13.65V15.65C630.164 15.65 633.935 16.3443 636.535 17.6444L637.43 15.8556ZM625.132 13.65H617.632V15.65H625.132V13.65ZM616.632 14.65V54.85H618.632V14.65H616.632ZM617.632 55.85H624.082V53.85H617.632V55.85ZM689.866 2.49999V1.49999H688.866V2.49999H689.866ZM706.516 2.49999H707.516V1.49999H706.516V2.49999ZM706.516 124V125H707.516V124H706.516ZM689.866 124H688.866V125H689.866V124ZM689.866 3.49999H706.516V1.49999H689.866V3.49999ZM705.516 2.49999V124H707.516V2.49999H705.516ZM706.516 123H689.866V125H706.516V123ZM690.866 124V2.49999H688.866V124H690.866ZM736.673 2.49999V1.49999H735.673V2.49999H736.673ZM748.223 2.49999L749.142 2.1069L748.883 1.49999H748.223V2.49999ZM782.723 83.2L781.803 83.5931L783.723 83.2H782.723ZM782.723 2.49999V1.49999H781.723V2.49999H782.723ZM796.823 2.49999H797.823V1.49999H796.823V2.49999ZM796.823 124V125H797.823V124H796.823ZM786.023 124L785.101 124.388L785.359 125H786.023V124ZM751.073 41.05L751.994 40.6617L750.073 41.05H751.073ZM751.073 124V125H752.073V124H751.073ZM736.673 124H735.673V125H736.673V124ZM736.673 3.49999H748.223V1.49999H736.673V3.49999ZM747.303 2.89309L781.803 83.5931L783.642 82.8069L749.142 2.1069L747.303 2.89309ZM783.723 83.2V2.49999H781.723V83.2H783.723ZM782.723 3.49999H796.823V1.49999H782.723V3.49999ZM795.823 2.49999V124H797.823V2.49999H795.823ZM796.823 123H786.023V125H796.823V123ZM786.944 123.612L751.994 40.6617L750.151 41.4383L785.101 124.388L786.944 123.612ZM750.073 41.05V124H752.073V41.05H750.073ZM751.073 123H736.673V125H751.073V123ZM737.673 124V2.49999H735.673V124H737.673Z" fill="white"/>
</svg>
