<svg width="425" height="416" viewBox="0 0 425 416" fill="none" xmlns="http://www.w3.org/2000/svg">
<rect x="194" y="49.2322" width="213" height="281" fill="#1B2530"/>
<rect x="213" y="71.2322" width="175" height="238" fill="#72B1DC"/>
<path d="M326.358 95.1582H325.574V94.3882H326.484L326.792 92.4142H325.742V91.6442H326.904L327.492 87.8922H328.486L327.912 91.6442H329.298L329.872 87.8922H330.866L330.292 91.6442H331.006V92.4142H330.18L329.858 94.3882H330.824V95.1582H329.746L329.116 99.2322H328.122L328.752 95.1582H327.366L326.736 99.2322H325.742L326.358 95.1582ZM328.864 94.3882L329.172 92.4142H327.786L327.478 94.3882H328.864ZM336.1 99.3722C334.308 99.3722 333.412 98.2568 333.412 96.0262V91.0982C333.412 88.8862 334.308 87.7802 336.1 87.7802C337.91 87.7802 338.816 88.8862 338.816 91.0982V96.0262C338.816 97.0808 338.606 97.9022 338.186 98.4902C337.766 99.0782 337.07 99.3722 336.1 99.3722ZM336.1 98.5602C336.706 98.5602 337.136 98.3408 337.388 97.9022C337.64 97.4635 337.766 96.8662 337.766 96.1102V91.0282C337.766 90.2628 337.64 89.6655 337.388 89.2362C337.145 88.8068 336.716 88.5922 336.1 88.5922C335.493 88.5922 335.064 88.8068 334.812 89.2362C334.569 89.6655 334.448 90.2628 334.448 91.0282V96.1102C334.448 97.7435 334.998 98.5602 336.1 98.5602ZM344.312 99.3722C342.52 99.3722 341.624 98.2568 341.624 96.0262V91.0982C341.624 88.8862 342.52 87.7802 344.312 87.7802C346.123 87.7802 347.028 88.8862 347.028 91.0982V96.0262C347.028 97.0808 346.818 97.9022 346.398 98.4902C345.978 99.0782 345.283 99.3722 344.312 99.3722ZM344.312 98.5602C344.919 98.5602 345.348 98.3408 345.6 97.9022C345.852 97.4635 345.978 96.8662 345.978 96.1102V91.0282C345.978 90.2628 345.852 89.6655 345.6 89.2362C345.358 88.8068 344.928 88.5922 344.312 88.5922C343.706 88.5922 343.276 88.8068 343.024 89.2362C342.782 89.6655 342.66 90.2628 342.66 91.0282V96.1102C342.66 97.7435 343.211 98.5602 344.312 98.5602ZM352.245 99.3722C351.386 99.3722 350.751 99.1295 350.341 98.6442C349.93 98.1588 349.725 97.4822 349.725 96.6142V96.3342H350.719V96.5722C350.728 97.2068 350.849 97.6922 351.083 98.0282C351.316 98.3642 351.703 98.5322 352.245 98.5322C352.795 98.5322 353.206 98.3455 353.477 97.9722C353.757 97.5988 353.897 96.9922 353.897 96.1522C353.897 94.5842 353.332 93.7815 352.203 93.7442H351.923V92.7642H352.203C352.809 92.7642 353.243 92.5962 353.505 92.2602C353.766 91.9242 353.897 91.3735 353.897 90.6082C353.897 89.9735 353.78 89.4835 353.547 89.1382C353.313 88.7835 352.917 88.6062 352.357 88.6062C351.787 88.6062 351.372 88.7648 351.111 89.0822C350.859 89.3995 350.728 89.8988 350.719 90.5802V90.7762H349.725V90.5102C349.725 88.6902 350.597 87.7802 352.343 87.7802C353.211 87.7802 353.859 88.0368 354.289 88.5502C354.727 89.0542 354.947 89.7402 354.947 90.6082C354.947 91.3735 354.797 91.9802 354.499 92.4282C354.209 92.8668 353.817 93.1468 353.323 93.2682C353.789 93.3895 354.177 93.6882 354.485 94.1642C354.793 94.6402 354.947 95.2982 354.947 96.1382C354.947 97.1462 354.727 97.9395 354.289 98.5182C353.85 99.0875 353.169 99.3722 352.245 99.3722ZM357.627 87.8922H361.729V88.7182H358.705V92.9742H361.169V93.7582H358.705V98.4342H361.757V99.2322H357.627V87.8922ZM366.747 99.3722C365.001 99.3722 364.129 98.1868 364.129 95.8162V91.2942C364.129 88.9515 364.997 87.7802 366.733 87.7802C368.413 87.7802 369.262 88.6528 369.281 90.3982L369.295 90.6362H368.273C368.273 89.9082 368.156 89.3902 367.923 89.0822C367.699 88.7742 367.316 88.6202 366.775 88.6202C365.692 88.6202 365.151 89.4322 365.151 91.0562V93.1982C365.347 93.0208 365.603 92.8668 365.921 92.7362C366.247 92.6055 366.597 92.5402 366.971 92.5402C367.587 92.5402 368.072 92.6568 368.427 92.8902C368.781 93.1235 369.033 93.4875 369.183 93.9822C369.341 94.4675 369.421 95.1115 369.421 95.9142C369.421 98.2195 368.529 99.3722 366.747 99.3722ZM366.747 98.5182C367.307 98.5182 367.717 98.3268 367.979 97.9442C368.249 97.5615 368.385 96.9502 368.385 96.1102C368.385 95.4195 368.347 94.8828 368.273 94.5002C368.198 94.1175 368.044 93.8282 367.811 93.6322C367.577 93.4362 367.223 93.3382 366.747 93.3382C366.448 93.3382 366.149 93.4082 365.851 93.5482C365.552 93.6788 365.319 93.8235 365.151 93.9822V95.9422C365.151 96.8475 365.277 97.5055 365.529 97.9162C365.79 98.3175 366.196 98.5182 366.747 98.5182ZM374.939 88.7182H371.509V87.8922H375.989V88.3962L373.735 99.2322H372.727L374.939 88.7182Z" fill="white" fill-opacity="0.32"/>
<rect x="87" y="134.232" width="213" height="281" fill="#1B2530"/>
<rect y="0.232178" width="213" height="281" fill="#1B2530"/>
<rect x="19" y="21.2322" width="175" height="238" fill="#E0A11B"/>
<rect x="106" y="155.232" width="175" height="238" fill="#003E67"/>
<path d="M214.358 372.158H213.574V371.388H214.484L214.792 369.414H213.742V368.644H214.904L215.492 364.892H216.486L215.912 368.644H217.298L217.872 364.892H218.866L218.292 368.644H219.006V369.414H218.18L217.858 371.388H218.824V372.158H217.746L217.116 376.232H216.122L216.752 372.158H215.366L214.736 376.232H213.742L214.358 372.158ZM216.864 371.388L217.172 369.414H215.786L215.478 371.388H216.864ZM224.1 376.372C222.308 376.372 221.412 375.257 221.412 373.026V368.098C221.412 365.886 222.308 364.78 224.1 364.78C225.91 364.78 226.816 365.886 226.816 368.098V373.026C226.816 374.081 226.606 374.902 226.186 375.49C225.766 376.078 225.07 376.372 224.1 376.372ZM224.1 375.56C224.706 375.56 225.136 375.341 225.388 374.902C225.64 374.464 225.766 373.866 225.766 373.11V368.028C225.766 367.263 225.64 366.666 225.388 366.236C225.145 365.807 224.716 365.592 224.1 365.592C223.493 365.592 223.064 365.807 222.812 366.236C222.569 366.666 222.448 367.263 222.448 368.028V373.11C222.448 374.744 222.998 375.56 224.1 375.56ZM232.312 376.372C230.52 376.372 229.624 375.257 229.624 373.026V368.098C229.624 365.886 230.52 364.78 232.312 364.78C234.123 364.78 235.028 365.886 235.028 368.098V373.026C235.028 374.081 234.818 374.902 234.398 375.49C233.978 376.078 233.283 376.372 232.312 376.372ZM232.312 375.56C232.919 375.56 233.348 375.341 233.6 374.902C233.852 374.464 233.978 373.866 233.978 373.11V368.028C233.978 367.263 233.852 366.666 233.6 366.236C233.358 365.807 232.928 365.592 232.312 365.592C231.706 365.592 231.276 365.807 231.024 366.236C230.782 366.666 230.66 367.263 230.66 368.028V373.11C230.66 374.744 231.211 375.56 232.312 375.56ZM240.245 376.372C239.386 376.372 238.751 376.13 238.341 375.644C237.93 375.159 237.725 374.482 237.725 373.614V373.334H238.719V373.572C238.728 374.207 238.849 374.692 239.083 375.028C239.316 375.364 239.703 375.532 240.245 375.532C240.795 375.532 241.206 375.346 241.477 374.972C241.757 374.599 241.897 373.992 241.897 373.152C241.897 371.584 241.332 370.782 240.203 370.744H239.923V369.764H240.203C240.809 369.764 241.243 369.596 241.505 369.26C241.766 368.924 241.897 368.374 241.897 367.608C241.897 366.974 241.78 366.484 241.547 366.138C241.313 365.784 240.917 365.606 240.357 365.606C239.787 365.606 239.372 365.765 239.111 366.082C238.859 366.4 238.728 366.899 238.719 367.58V367.776H237.725V367.51C237.725 365.69 238.597 364.78 240.343 364.78C241.211 364.78 241.859 365.037 242.289 365.55C242.727 366.054 242.947 366.74 242.947 367.608C242.947 368.374 242.797 368.98 242.499 369.428C242.209 369.867 241.817 370.147 241.323 370.268C241.789 370.39 242.177 370.688 242.485 371.164C242.793 371.64 242.947 372.298 242.947 373.138C242.947 374.146 242.727 374.94 242.289 375.518C241.85 376.088 241.169 376.372 240.245 376.372ZM245.627 364.892H249.729V365.718H246.705V369.974H249.169V370.758H246.705V375.434H249.757V376.232H245.627V364.892ZM254.747 376.372C253.001 376.372 252.129 375.187 252.129 372.816V368.294C252.129 365.952 252.997 364.78 254.733 364.78C256.413 364.78 257.262 365.653 257.281 367.398L257.295 367.636H256.273C256.273 366.908 256.156 366.39 255.923 366.082C255.699 365.774 255.316 365.62 254.775 365.62C253.692 365.62 253.151 366.432 253.151 368.056V370.198C253.347 370.021 253.603 369.867 253.921 369.736C254.247 369.606 254.597 369.54 254.971 369.54C255.587 369.54 256.072 369.657 256.427 369.89C256.781 370.124 257.033 370.488 257.183 370.982C257.341 371.468 257.421 372.112 257.421 372.914C257.421 375.22 256.529 376.372 254.747 376.372ZM254.747 375.518C255.307 375.518 255.717 375.327 255.979 374.944C256.249 374.562 256.385 373.95 256.385 373.11C256.385 372.42 256.347 371.883 256.273 371.5C256.198 371.118 256.044 370.828 255.811 370.632C255.577 370.436 255.223 370.338 254.747 370.338C254.448 370.338 254.149 370.408 253.851 370.548C253.552 370.679 253.319 370.824 253.151 370.982V372.942C253.151 373.848 253.277 374.506 253.529 374.916C253.79 375.318 254.196 375.518 254.747 375.518ZM262.939 365.718H259.509V364.892H263.989V365.396L261.735 376.232H260.727L262.939 365.718Z" fill="white" fill-opacity="0.32"/>
<path d="M35.358 237.158H34.574V236.388H35.484L35.792 234.414H34.742V233.644H35.904L36.492 229.892H37.486L36.912 233.644H38.298L38.872 229.892H39.866L39.292 233.644H40.006V234.414H39.18L38.858 236.388H39.824V237.158H38.746L38.116 241.232H37.122L37.752 237.158H36.366L35.736 241.232H34.742L35.358 237.158ZM37.864 236.388L38.172 234.414H36.786L36.478 236.388H37.864ZM42.4678 229.892H46.5698V230.718H43.5458V234.974H46.0098V235.758H43.5458V240.434H46.5978V241.232H42.4678V229.892ZM51.6579 241.372C49.8659 241.372 48.9699 240.257 48.9699 238.026V233.098C48.9699 230.886 49.8659 229.78 51.6579 229.78C53.4686 229.78 54.3739 230.886 54.3739 233.098V238.026C54.3739 239.081 54.1639 239.902 53.7439 240.49C53.3239 241.078 52.6286 241.372 51.6579 241.372ZM51.6579 240.56C52.2646 240.56 52.6939 240.341 52.9459 239.902C53.1979 239.464 53.3239 238.866 53.3239 238.11V233.028C53.3239 232.263 53.1979 231.666 52.9459 231.236C52.7033 230.807 52.2739 230.592 51.6579 230.592C51.0513 230.592 50.6219 230.807 50.3699 231.236C50.1273 231.666 50.0059 232.263 50.0059 233.028V238.11C50.0059 239.744 50.5566 240.56 51.6579 240.56ZM59.0304 229.892H60.1504L62.5584 241.232H61.5084L60.9484 238.194H58.2464L57.6724 241.232H56.6364L59.0304 229.892ZM60.8084 237.424L59.6044 231.306L58.4004 237.424H60.8084ZM66.2622 231.264C66.1689 231.395 65.9729 231.516 65.6742 231.628C65.3849 231.731 64.9976 231.857 64.5122 232.006V231.18C64.8482 231.087 65.2029 230.928 65.5762 230.704C65.9496 230.48 66.2482 230.21 66.4722 229.892H67.2982V241.232H66.2622V231.264ZM72.3829 231.264C72.2895 231.395 72.0935 231.516 71.7949 231.628C71.5055 231.731 71.1182 231.857 70.6329 232.006V231.18C70.9689 231.087 71.3235 230.928 71.6969 230.704C72.0702 230.48 72.3689 230.21 72.5929 229.892H73.4189V241.232H72.3829V231.264ZM77.1455 229.892H79.5815C80.5708 229.892 81.2802 230.14 81.7095 230.634C82.1388 231.12 82.3535 231.815 82.3535 232.72C82.3535 233.336 82.2415 233.864 82.0175 234.302C81.7935 234.741 81.4248 235.012 80.9115 235.114C81.5275 235.282 81.9662 235.623 82.2275 236.136C82.4888 236.65 82.6195 237.256 82.6195 237.956C82.6195 238.974 82.4188 239.776 82.0175 240.364C81.6255 240.943 80.9348 241.232 79.9455 241.232H77.1455V229.892ZM79.7495 234.778C80.3562 234.778 80.7808 234.606 81.0235 234.26C81.2662 233.906 81.3875 233.392 81.3875 232.72C81.3875 232.244 81.3222 231.862 81.1915 231.572C81.0702 231.283 80.8508 231.068 80.5335 230.928C80.2255 230.788 79.7868 230.718 79.2175 230.718H78.2095V234.778H79.7495ZM79.7355 240.434C80.2208 240.434 80.5942 240.35 80.8555 240.182C81.1262 240.005 81.3128 239.739 81.4155 239.384C81.5275 239.03 81.5835 238.554 81.5835 237.956C81.5835 236.388 80.9768 235.604 79.7635 235.604H78.2095V240.434H79.7355Z" fill="white" fill-opacity="0.32"/>
</svg>
