<svg width="24" height="443" viewBox="0 0 24 443" fill="none" xmlns="http://www.w3.org/2000/svg">
<g opacity="0.19">
<rect width="1" height="439.14" rx="0.5" transform="matrix(-1 0 0 1 20 0.232178)" fill="#C4C4C4" fill-opacity="0.1"/>
</g>
<path d="M8.29297 430.66C9.19531 430.765 9.89258 431.099 10.3848 431.662C10.873 432.22 11.1172 432.965 11.1172 433.894C11.1172 434.902 10.7559 435.711 10.0332 436.32C9.31055 436.925 8.34375 437.228 7.13281 437.228L6.3125 437.228C5.51953 437.228 4.82227 437.088 4.2207 436.806C3.61914 436.521 3.1582 436.119 2.83789 435.599C2.51367 435.08 2.35156 434.478 2.35156 433.795C2.35156 432.888 2.60547 432.162 3.11328 431.615C3.61719 431.068 4.31641 430.75 5.21094 430.66L5.21094 431.791C4.53125 431.888 4.03906 432.101 3.73437 432.429C3.42969 432.754 3.27734 433.209 3.27734 433.795C3.27734 434.513 3.54297 435.078 4.07422 435.488C4.60547 435.894 5.36133 436.097 6.3418 436.097L7.16797 436.097C8.09375 436.097 8.83008 435.904 9.37695 435.517C9.92383 435.131 10.1973 434.59 10.1973 433.894C10.1973 433.269 10.0566 432.791 9.77539 432.459C9.49023 432.123 8.99609 431.9 8.29297 431.791L8.29297 430.66ZM7.00976 421.356C7.8457 421.356 8.57617 421.497 9.20117 421.778C9.82226 422.059 10.2969 422.458 10.625 422.974C10.9531 423.489 11.1172 424.091 11.1172 424.778C11.1172 425.45 10.9531 426.046 10.625 426.565C10.293 427.085 9.82226 427.489 9.21289 427.778C8.59961 428.063 7.89062 428.21 7.08594 428.218L6.4707 428.218C5.65039 428.218 4.92578 428.075 4.29687 427.79C3.66797 427.505 3.1875 427.102 2.85547 426.583C2.51953 426.059 2.35156 425.462 2.35156 424.79C2.35156 424.106 2.51758 423.505 2.84961 422.985C3.17773 422.462 3.65625 422.059 4.28515 421.778C4.91015 421.497 5.63867 421.356 6.4707 421.356L7.00976 421.356ZM6.45898 422.475C5.44726 422.475 4.67187 422.679 4.13281 423.085C3.58984 423.491 3.31836 424.059 3.31836 424.79C3.31836 425.501 3.58984 426.061 4.13281 426.472C4.67187 426.878 5.42187 427.087 6.38281 427.099L7.00976 427.099C7.99023 427.099 8.76172 426.893 9.32422 426.483C9.88281 426.069 10.1621 425.501 10.1621 424.778C10.1621 424.052 9.89844 423.489 9.37109 423.091C8.83984 422.692 8.08008 422.487 7.0918 422.475L6.45898 422.475ZM10.0801 417.338L10.0801 413.295L11 413.295L11 418.469L2.46875 418.469L2.46875 417.338L10.0801 417.338ZM7.00976 404.636C7.8457 404.636 8.57617 404.777 9.20117 405.058C9.82226 405.339 10.2969 405.738 10.625 406.253C10.9531 406.769 11.1172 407.37 11.1172 408.058C11.1172 408.73 10.9531 409.325 10.625 409.845C10.293 410.365 9.82226 410.769 9.21289 411.058C8.59961 411.343 7.89062 411.49 7.08593 411.497L6.4707 411.497C5.65039 411.497 4.92578 411.355 4.29687 411.07C3.66797 410.784 3.1875 410.382 2.85547 409.863C2.51953 409.339 2.35156 408.741 2.35156 408.07C2.35156 407.386 2.51757 406.784 2.84961 406.265C3.17773 405.741 3.65625 405.339 4.28515 405.058C4.91015 404.777 5.63867 404.636 6.4707 404.636L7.00976 404.636ZM6.45898 405.755C5.44726 405.755 4.67187 405.958 4.13281 406.365C3.58984 406.771 3.31836 407.339 3.31836 408.07C3.31836 408.781 3.58984 409.341 4.13281 409.751C4.67187 410.157 5.42187 410.366 6.38281 410.378L7.00976 410.378C7.99023 410.378 8.76172 410.173 9.32422 409.763C9.88281 409.349 10.1621 408.781 10.1621 408.058C10.1621 407.331 9.89843 406.769 9.37109 406.37C8.83984 405.972 8.08007 405.767 7.09179 405.755L6.45898 405.755ZM7.54882 398.62L7.54882 400.624L11 400.624L11 401.754L2.46875 401.754L2.46875 398.93C2.46875 397.969 2.6875 397.231 3.125 396.715C3.5625 396.196 4.19921 395.936 5.03515 395.936C5.5664 395.936 6.02929 396.081 6.42382 396.37C6.81836 396.655 7.11328 397.053 7.30859 397.565L10.9297 395.561L11 395.561L11 396.768L7.54882 398.62ZM6.6289 400.624L6.6289 398.895C6.6289 398.336 6.48437 397.893 6.19531 397.565C5.90625 397.233 5.51953 397.067 5.03515 397.067C4.50781 397.067 4.10351 397.225 3.82226 397.541C3.54101 397.854 3.39843 398.307 3.39453 398.901L3.39453 400.624L6.6289 400.624Z" fill="#C4C4C4" fill-opacity="0.1"/>
</svg>
