<svg width="24" height="610" viewBox="0 0 24 610" fill="none" xmlns="http://www.w3.org/2000/svg">
<g opacity="0.19">
<rect width="1" height="592.703" rx="0.5" transform="matrix(-1 0 0 1 20 0.232178)" fill="#C4C4C4" fill-opacity="0.1"/>
</g>
<path d="M7.23242 587.759L7.23242 591.339L11 591.339L11 592.464L2.46875 592.464L2.46875 587.179L3.39453 587.179L3.39453 591.339L6.3125 591.339L6.3125 587.759L7.23242 587.759ZM7.00976 578.069C7.8457 578.069 8.57617 578.209 9.20117 578.49C9.82226 578.772 10.2969 579.17 10.625 579.686C10.9531 580.201 11.1172 580.803 11.1172 581.49C11.1172 582.162 10.9531 582.758 10.625 583.278C10.293 583.797 9.82226 584.201 9.21289 584.49C8.59961 584.776 7.89062 584.922 7.08594 584.93L6.4707 584.93C5.65039 584.93 4.92578 584.787 4.29687 584.502C3.66797 584.217 3.1875 583.815 2.85547 583.295C2.51953 582.772 2.35156 582.174 2.35156 581.502C2.35156 580.819 2.51758 580.217 2.84961 579.697C3.17773 579.174 3.65625 578.772 4.28515 578.49C4.91015 578.209 5.63867 578.069 6.4707 578.069L7.00976 578.069ZM6.45898 579.188C5.44726 579.188 4.67187 579.391 4.13281 579.797C3.58984 580.203 3.31836 580.772 3.31836 581.502C3.31836 582.213 3.58984 582.774 4.13281 583.184C4.67187 583.59 5.42187 583.799 6.38281 583.811L7.00976 583.811C7.99023 583.811 8.76172 583.606 9.32422 583.195C9.88281 582.781 10.1621 582.213 10.1621 581.49C10.1621 580.764 9.89844 580.201 9.37109 579.803C8.83984 579.404 8.08008 579.199 7.09179 579.188L6.45898 579.188ZM11 568.624L11 569.755L4.42578 574.05L11 574.05L11 575.181L2.46875 575.181L2.46875 574.05L9.07226 569.744L2.46875 569.744L2.46875 568.624L11 568.624ZM3.39453 559.708L3.39453 562.45L11 562.45L11 563.569L3.39453 563.569L3.39453 566.305L2.46875 566.305L2.46875 559.708L3.39453 559.708Z" fill="#C4C4C4" fill-opacity="0.1"/>
</svg>
