<svg width="153" height="117" viewBox="0 0 153 117" fill="none" xmlns="http://www.w3.org/2000/svg">
<path d="M6.65137 8.63452H2.48145L1.54492 11.2322H0.191406L3.99219 1.27905H5.14062L8.94824 11.2322H7.60156L6.65137 8.63452ZM2.87793 7.55444H6.26172L4.56641 2.89917L2.87793 7.55444ZM14.9362 11.2322C14.8633 11.0863 14.8041 10.8266 14.7585 10.4529C14.1706 11.0636 13.4688 11.3689 12.653 11.3689C11.9239 11.3689 11.3246 11.1638 10.8552 10.7537C10.3904 10.3389 10.1579 9.81486 10.1579 9.1814C10.1579 8.41121 10.4496 7.81421 11.0329 7.39038C11.6208 6.962 12.4457 6.7478 13.5075 6.7478H14.738V6.16675C14.738 5.72469 14.6058 5.37378 14.3415 5.11401C14.0772 4.84969 13.6876 4.71753 13.1726 4.71753C12.7214 4.71753 12.3432 4.83146 12.0378 5.05933C11.7325 5.28719 11.5798 5.56291 11.5798 5.88647H10.3083C10.3083 5.51733 10.4382 5.16187 10.698 4.82007C10.9623 4.47371 11.3178 4.20028 11.7644 3.99976C12.2155 3.79924 12.71 3.69897 13.2478 3.69897C14.1 3.69897 14.7676 3.91317 15.2507 4.34155C15.7338 4.76538 15.9844 5.35099 16.0027 6.09839V9.50269C16.0027 10.1817 16.0892 10.7218 16.2624 11.1228V11.2322H14.9362ZM12.8376 10.2683C13.2341 10.2683 13.6101 10.1658 13.9655 9.96069C14.321 9.75562 14.5785 9.48901 14.738 9.16089V7.64331H13.7468C12.1973 7.64331 11.4226 8.09676 11.4226 9.00366C11.4226 9.40015 11.5547 9.71004 11.8191 9.93335C12.0834 10.1567 12.4229 10.2683 12.8376 10.2683ZM33.4739 11.2322V1.27905H36.7279C37.8079 1.27905 38.6191 1.50236 39.1614 1.94897C39.7083 2.39559 39.9818 3.0564 39.9818 3.9314C39.9818 4.39624 39.8496 4.80868 39.5853 5.1687C39.321 5.52417 38.9609 5.79989 38.5052 5.99585C39.043 6.14624 39.4668 6.43335 39.7767 6.85718C40.0911 7.27645 40.2484 7.77775 40.2484 8.36108C40.2484 9.25431 39.959 9.95614 39.3802 10.4666C38.8014 10.977 37.9834 11.2322 36.9261 11.2322H33.4739ZM34.7864 6.5769V10.1589H36.9534C37.5641 10.1589 38.0449 10.0017 38.3958 9.68726C38.7513 9.36825 38.929 8.93075 38.929 8.37476C38.929 7.17619 38.2773 6.5769 36.9739 6.5769H34.7864ZM34.7864 5.52417H36.7689C37.3431 5.52417 37.8011 5.38062 38.1429 5.09351C38.4892 4.8064 38.6624 4.41675 38.6624 3.92456C38.6624 3.37769 38.5029 2.9812 38.1839 2.73511C37.8649 2.48446 37.3795 2.35913 36.7279 2.35913H34.7864V5.52417ZM48.5401 7.61597C48.5401 8.74618 48.2803 9.65535 47.7608 10.3435C47.2412 11.0271 46.544 11.3689 45.669 11.3689C44.7347 11.3689 44.0124 11.0385 43.502 10.3777L43.4405 11.2322H42.2784V0.732178H43.543V4.64917C44.0534 4.01571 44.7575 3.69897 45.6553 3.69897C46.5531 3.69897 47.2572 4.03849 47.7676 4.71753C48.2826 5.39657 48.5401 6.32625 48.5401 7.50659V7.61597ZM47.2754 7.47241C47.2754 6.61108 47.1091 5.94572 46.7764 5.47632C46.4437 5.00692 45.9652 4.77222 45.3409 4.77222C44.5069 4.77222 43.9076 5.15959 43.543 5.93433V9.13354C43.9304 9.90828 44.5342 10.2957 45.3545 10.2957C45.9607 10.2957 46.4323 10.061 46.7696 9.59155C47.1068 9.12215 47.2754 8.41577 47.2754 7.47241ZM72.9498 8.07397C72.8268 9.12671 72.4371 9.94019 71.7809 10.5144C71.1292 11.0841 70.261 11.3689 69.1764 11.3689C68.0006 11.3689 67.0573 10.9473 66.3463 10.1042C65.6399 9.26115 65.2868 8.13322 65.2868 6.72046V5.76343C65.2868 4.8383 65.4508 4.02482 65.7789 3.323C66.1116 2.62118 66.581 2.08341 67.1871 1.70972C67.7933 1.33146 68.4951 1.14233 69.2926 1.14233C70.3499 1.14233 71.1976 1.43856 71.8356 2.03101C72.4736 2.6189 72.845 3.43465 72.9498 4.47827H71.6305C71.5166 3.6853 71.2682 3.11108 70.8854 2.75562C70.5071 2.40015 69.9762 2.22241 69.2926 2.22241C68.4541 2.22241 67.7955 2.53231 67.317 3.1521C66.8431 3.77189 66.6061 4.65373 66.6061 5.79761V6.76147C66.6061 7.84155 66.8317 8.7006 67.2829 9.33862C67.734 9.97664 68.3652 10.2957 69.1764 10.2957C69.9056 10.2957 70.4638 10.1316 70.8512 9.80347C71.2431 9.47078 71.5029 8.89429 71.6305 8.07397H72.9498ZM77.7962 10.3367C78.2474 10.3367 78.6416 10.2 78.9789 9.92651C79.3161 9.65308 79.503 9.31128 79.5394 8.90112H80.7357C80.7129 9.32495 80.5671 9.72827 80.2982 10.1111C80.0293 10.4939 79.6693 10.7992 79.2181 11.0271C78.7715 11.255 78.2976 11.3689 77.7962 11.3689C76.7891 11.3689 75.987 11.0339 75.39 10.364C74.7976 9.68953 74.5013 8.76896 74.5013 7.60229V7.39038C74.5013 6.67033 74.6335 6.03003 74.8978 5.46948C75.1621 4.90894 75.5404 4.47371 76.0326 4.16382C76.5293 3.85392 77.1149 3.69897 77.7894 3.69897C78.6188 3.69897 79.307 3.94735 79.8539 4.44409C80.4053 4.94084 80.6992 5.58569 80.7357 6.37866H79.5394C79.503 5.90015 79.3207 5.50822 78.9925 5.20288C78.669 4.89299 78.2679 4.73804 77.7894 4.73804C77.1468 4.73804 76.6478 4.97046 76.2923 5.4353C75.9414 5.89559 75.766 6.56323 75.766 7.43823V7.67749C75.766 8.5297 75.9414 9.18595 76.2923 9.64624C76.6433 10.1065 77.1446 10.3367 77.7962 10.3367ZM97.6464 11.2322V1.27905H100.456C101.322 1.27905 102.088 1.47046 102.753 1.85327C103.418 2.23608 103.931 2.78068 104.291 3.48706C104.656 4.19344 104.84 5.00464 104.845 5.92065V6.5564C104.845 7.4952 104.662 8.31779 104.298 9.02417C103.938 9.73055 103.421 10.2729 102.746 10.6511C102.076 11.0294 101.295 11.2231 100.401 11.2322H97.6464ZM98.9589 2.35913V10.1589H100.34C101.352 10.1589 102.138 9.84448 102.698 9.21558C103.263 8.58667 103.546 7.69116 103.546 6.52905V5.948C103.546 4.81779 103.279 3.94051 102.746 3.31616C102.217 2.68726 101.465 2.36825 100.49 2.35913H98.9589ZM106.608 7.47241C106.608 6.33765 106.877 5.42619 107.415 4.73804C107.952 4.04533 108.657 3.69897 109.527 3.69897C110.393 3.69897 111.079 3.9952 111.585 4.58765V0.732178H112.849V11.2322H111.687L111.626 10.4392C111.12 11.059 110.416 11.3689 109.513 11.3689C108.657 11.3689 107.957 11.018 107.415 10.3162C106.877 9.61434 106.608 8.69832 106.608 7.56812V7.47241ZM107.873 7.61597C107.873 8.45451 108.046 9.11076 108.392 9.58472C108.739 10.0587 109.217 10.2957 109.828 10.2957C110.63 10.2957 111.216 9.93563 111.585 9.21558V5.81812C111.206 5.12085 110.625 4.77222 109.841 4.77222C109.222 4.77222 108.739 5.01147 108.392 5.48999C108.046 5.96851 107.873 6.67716 107.873 7.61597ZM135.933 6.63159H131.619V10.1589H136.63V11.2322H130.307V1.27905H136.562V2.35913H131.619V5.55835H135.933V6.63159ZM141.278 11.3689C140.276 11.3689 139.46 11.0408 138.831 10.3845C138.202 9.72371 137.888 8.84188 137.888 7.73901V7.50659C137.888 6.77287 138.027 6.1189 138.305 5.54468C138.587 4.9659 138.979 4.51473 139.48 4.19116C139.986 3.86304 140.533 3.69897 141.121 3.69897C142.083 3.69897 142.83 4.01571 143.363 4.64917C143.896 5.28263 144.163 6.18953 144.163 7.36987V7.89624H139.152C139.171 8.62541 139.382 9.21558 139.788 9.66675C140.198 10.1134 140.718 10.3367 141.347 10.3367C141.793 10.3367 142.172 10.2455 142.481 10.0632C142.791 9.88094 143.062 9.6394 143.295 9.33862L144.067 9.94019C143.448 10.8927 142.518 11.3689 141.278 11.3689ZM141.121 4.73804C140.611 4.73804 140.182 4.92489 139.836 5.29858C139.49 5.66772 139.275 6.18726 139.193 6.85718H142.898V6.76147C142.862 6.1189 142.689 5.62215 142.379 5.27124C142.069 4.91577 141.65 4.73804 141.121 4.73804ZM6.64453 31.8367H2.46777V36.2322H1.15527V26.2791H7.32129V27.3591H2.46777V30.7634H6.64453V31.8367ZM9.59738 36.2322V29.8132H8.42844V28.8357H9.59738V28.0769C9.59738 27.2839 9.8093 26.671 10.2331 26.238C10.657 25.8051 11.2562 25.5886 12.031 25.5886C12.3226 25.5886 12.612 25.6274 12.8991 25.7048L12.8308 26.7302C12.6166 26.6892 12.3887 26.6687 12.1472 26.6687C11.737 26.6687 11.4203 26.7895 11.197 27.031C10.9737 27.268 10.862 27.6098 10.862 28.0564V28.8357H12.4411V29.8132H10.862V36.2322H9.59738ZM40.4327 34.9265C40.0954 35.4096 39.6237 35.7719 39.0176 36.0134C38.4161 36.2504 37.7142 36.3689 36.9121 36.3689C36.1009 36.3689 35.3809 36.1798 34.752 35.8015C34.1231 35.4187 33.6355 34.8764 33.2891 34.1746C32.9473 33.4727 32.7718 32.6593 32.7627 31.7341V30.866C32.7627 29.3666 33.1114 28.2045 33.8086 27.3796C34.5105 26.5548 35.4948 26.1423 36.7618 26.1423C37.8008 26.1423 38.6371 26.4089 39.2705 26.9421C39.904 27.4708 40.2914 28.2227 40.4327 29.198H39.1202C38.8741 27.8809 38.0902 27.2224 36.7686 27.2224C35.889 27.2224 35.2214 27.5323 34.7657 28.1521C34.3145 28.7673 34.0866 29.6606 34.0821 30.8318V31.6453C34.0821 32.7618 34.3373 33.6505 34.8477 34.3113C35.3581 34.9675 36.0485 35.2957 36.919 35.2957C37.4112 35.2957 37.8418 35.241 38.211 35.1316C38.5801 35.0222 38.8855 34.8376 39.127 34.5779V32.3425H36.8233V31.2761H40.4327V34.9265ZM42.408 32.4724C42.408 31.3194 42.6746 30.4034 43.2078 29.7244C43.741 29.0408 44.4474 28.699 45.3269 28.699C46.2293 28.699 46.9334 29.018 47.4392 29.656L47.5007 28.8357H48.656V36.0544C48.656 37.0115 48.3712 37.7657 47.8015 38.3171C47.2364 38.8686 46.4754 39.1443 45.5183 39.1443C44.9851 39.1443 44.4633 39.0304 43.9529 38.8025C43.4425 38.5746 43.0528 38.2625 42.7839 37.866L43.4402 37.1072C43.9825 37.7771 44.6456 38.1121 45.4295 38.1121C46.0447 38.1121 46.5232 37.9389 46.865 37.5925C47.2114 37.2462 47.3845 36.7585 47.3845 36.1296V35.4939C46.8787 36.0772 46.1882 36.3689 45.3132 36.3689C44.4474 36.3689 43.7455 36.0203 43.2078 35.323C42.6746 34.6257 42.408 33.6755 42.408 32.4724ZM43.6795 32.616C43.6795 33.45 43.8504 34.1062 44.1922 34.5847C44.5339 35.0587 45.0125 35.2957 45.6277 35.2957C46.4252 35.2957 47.0108 34.9333 47.3845 34.2087V30.8318C46.9972 30.1254 46.4161 29.7722 45.6414 29.7722C45.0261 29.7722 44.5453 30.0115 44.199 30.49C43.8526 30.9685 43.6795 31.6772 43.6795 32.616ZM73.7084 36.2322H72.389V31.6316H67.3714V36.2322H66.0589V26.2791H67.3714V30.5583H72.389V26.2791H73.7084V36.2322ZM77.3858 29.7312C77.9464 29.0431 78.6755 28.699 79.5733 28.699C81.1365 28.699 81.9249 29.5808 81.9386 31.3445V36.2322H80.6739V31.3376C80.6693 30.8044 80.5463 30.4102 80.3048 30.155C80.0678 29.8998 79.6964 29.7722 79.1905 29.7722C78.7803 29.7722 78.4203 29.8816 78.1104 30.1003C77.8005 30.3191 77.559 30.6062 77.3858 30.9617V36.2322H76.1212V25.7322H77.3858V29.7312ZM104.482 36.2322H103.169V26.2791H104.482V36.2322ZM108.344 36.2322H107.079V28.8357H108.344V36.2322ZM106.977 26.8738C106.977 26.6687 107.038 26.4955 107.161 26.3542C107.289 26.213 107.476 26.1423 107.722 26.1423C107.968 26.1423 108.155 26.213 108.282 26.3542C108.41 26.4955 108.474 26.6687 108.474 26.8738C108.474 27.0789 108.41 27.2498 108.282 27.3865C108.155 27.5232 107.968 27.5916 107.722 27.5916C107.476 27.5916 107.289 27.5232 107.161 27.3865C107.038 27.2498 106.977 27.0789 106.977 26.8738ZM137.538 26.2791H138.858V33.3269C138.858 34.2794 138.57 35.0245 137.996 35.5623C137.427 36.1 136.666 36.3689 135.713 36.3689C134.724 36.3689 133.954 36.116 133.402 35.6101C132.851 35.1042 132.575 34.3956 132.575 33.4841H133.888C133.888 34.0538 134.043 34.4981 134.353 34.8171C134.667 35.1361 135.121 35.2957 135.713 35.2957C136.255 35.2957 136.693 35.1248 137.026 34.783C137.363 34.4412 137.534 33.9626 137.538 33.3474V26.2791ZM142.48 28.8357V37.0867C142.48 38.5085 141.835 39.2195 140.546 39.2195C140.268 39.2195 140.01 39.1785 139.773 39.0964V38.0847C139.919 38.1212 140.111 38.1394 140.348 38.1394C140.63 38.1394 140.844 38.0619 140.99 37.907C141.141 37.7566 141.216 37.4923 141.216 37.114V28.8357H142.48ZM141.086 26.8738C141.086 26.6733 141.147 26.5024 141.27 26.3611C141.398 26.2153 141.583 26.1423 141.824 26.1423C142.07 26.1423 142.257 26.213 142.385 26.3542C142.512 26.4955 142.576 26.6687 142.576 26.8738C142.576 27.0789 142.512 27.2498 142.385 27.3865C142.257 27.5232 142.07 27.5916 141.824 27.5916C141.578 27.5916 141.393 27.5232 141.27 27.3865C141.147 27.2498 141.086 27.0789 141.086 26.8738ZM3.68457 57.6042L2.46777 58.8689V62.2322H1.15527V52.2791H2.46777V57.2009L6.89062 52.2791H8.47656L4.55957 56.6746L8.78418 62.2322H7.21191L3.68457 57.6042ZM12.0788 58.8074L11.2859 59.6345V62.2322H10.0212V51.7322H11.2859V58.0828L11.9626 57.2693L14.2663 54.8357H15.8044L12.9265 57.9255L16.1394 62.2322H14.656L12.0788 58.8074ZM37.6709 61.1589H42.3877V62.2322H36.3516V52.2791H37.6709V61.1589ZM45.3406 62.2322H44.0759V51.7322H45.3406V62.2322ZM68.3077 52.2791L71.5616 60.4001L74.8155 52.2791H76.5177V62.2322H75.2052V58.3562L75.3282 54.1726L72.0606 62.2322H71.0557L67.795 54.1931L67.9249 58.3562V62.2322H66.6124V52.2791H68.3077ZM80.1062 54.8357L80.1404 55.656C80.6827 55.018 81.4142 54.699 82.3348 54.699C83.3693 54.699 84.0734 55.0955 84.4471 55.8884C84.6932 55.533 85.0122 55.2458 85.4041 55.0271C85.8006 54.8083 86.2677 54.699 86.8055 54.699C88.4279 54.699 89.2527 55.558 89.2801 57.2761V62.2322H88.0154V57.3513C88.0154 56.8227 87.8947 56.4285 87.6531 56.1687C87.4116 55.9044 87.006 55.7722 86.4363 55.7722C85.9669 55.7722 85.5773 55.9135 85.2674 56.196C84.9575 56.474 84.7775 56.85 84.7273 57.324V62.2322H83.4559V57.3855C83.4559 56.31 82.9295 55.7722 81.8768 55.7722C81.0473 55.7722 80.4799 56.1254 80.1746 56.8318V62.2322H78.91V54.8357H80.1062ZM106.827 62.2322H105.508L100.497 54.5623V62.2322H99.1777V52.2791H100.497L105.521 59.9832V52.2791H106.827V62.2322ZM110.436 54.8357L110.477 55.7654C111.042 55.0544 111.781 54.699 112.692 54.699C114.255 54.699 115.044 55.5808 115.057 57.3445V62.2322H113.793V57.3376C113.788 56.8044 113.665 56.4102 113.424 56.155C113.187 55.8998 112.815 55.7722 112.309 55.7722C111.899 55.7722 111.539 55.8816 111.229 56.1003C110.919 56.3191 110.678 56.6062 110.505 56.9617V62.2322H109.24V54.8357H110.436ZM140.11 57.5769C140.11 58.5522 139.946 59.4044 139.617 60.1335C139.289 60.8582 138.824 61.4119 138.223 61.7947C137.621 62.1775 136.92 62.3689 136.117 62.3689C135.334 62.3689 134.639 62.1775 134.033 61.7947C133.426 61.4073 132.955 60.8582 132.617 60.1472C132.285 59.4317 132.114 58.6046 132.105 57.6658V56.948C132.105 55.991 132.271 55.1456 132.604 54.4119C132.936 53.6781 133.406 53.1176 134.012 52.7302C134.623 52.3383 135.32 52.1423 136.104 52.1423C136.901 52.1423 137.603 52.336 138.209 52.7234C138.82 53.1062 139.289 53.6645 139.617 54.3982C139.946 55.1274 140.11 55.9773 140.11 56.948V57.5769ZM138.804 56.9343C138.804 55.754 138.567 54.8494 138.093 54.2205C137.619 53.587 136.956 53.2703 136.104 53.2703C135.274 53.2703 134.62 53.587 134.142 54.2205C133.668 54.8494 133.424 55.7244 133.41 56.8455V57.5769C133.41 58.7208 133.65 59.6208 134.128 60.2771C134.611 60.9288 135.274 61.2546 136.117 61.2546C136.965 61.2546 137.621 60.947 138.086 60.3318C138.551 59.712 138.79 58.8256 138.804 57.6726V56.9343ZM141.825 58.4656C141.825 57.741 141.966 57.0893 142.249 56.5105C142.536 55.9317 142.933 55.4851 143.438 55.1707C143.949 54.8562 144.53 54.699 145.182 54.699C146.189 54.699 147.002 55.0476 147.622 55.7449C148.246 56.4421 148.559 57.3695 148.559 58.5271V58.616C148.559 59.336 148.42 59.9832 148.142 60.5574C147.868 61.127 147.474 61.5714 146.959 61.8904C146.449 62.2094 145.861 62.3689 145.195 62.3689C144.193 62.3689 143.379 62.0203 142.755 61.323C142.135 60.6257 141.825 59.7029 141.825 58.5544V58.4656ZM143.097 58.616C143.097 59.4363 143.286 60.0948 143.664 60.5916C144.047 61.0883 144.557 61.3367 145.195 61.3367C145.838 61.3367 146.348 61.086 146.727 60.5847C147.105 60.0789 147.294 59.3725 147.294 58.4656C147.294 57.6544 147.1 56.9981 146.713 56.4968C146.33 55.991 145.82 55.738 145.182 55.738C144.557 55.738 144.054 55.9864 143.671 56.4832C143.288 56.9799 143.097 57.6908 143.097 58.616ZM2.46777 83.3357V87.2322H1.15527V77.2791H4.82617C5.91536 77.2791 6.76758 77.557 7.38281 78.113C8.0026 78.669 8.3125 79.405 8.3125 80.321C8.3125 81.2872 8.00944 82.0323 7.40332 82.5564C6.80176 83.0759 5.93815 83.3357 4.8125 83.3357H2.46777ZM2.46777 82.2625H4.82617C5.52799 82.2625 6.06576 82.0984 6.43945 81.7703C6.81315 81.4376 7 80.9591 7 80.3347C7 79.7423 6.81315 79.2683 6.43945 78.9128C6.06576 78.5574 5.55306 78.3728 4.90137 78.3591H2.46777V82.2625ZM16.3171 83.616C16.3171 84.7416 16.0596 85.6485 15.5446 86.3367C15.0297 87.0248 14.3324 87.3689 13.4529 87.3689C12.5551 87.3689 11.8487 87.0841 11.3337 86.5144V90.0759H10.0691V79.8357H11.2243L11.2859 80.656C11.8008 80.018 12.5163 79.699 13.4323 79.699C14.321 79.699 15.0228 80.0339 15.5378 80.7039C16.0573 81.3738 16.3171 82.3057 16.3171 83.4998V83.616ZM15.0525 83.4724C15.0525 82.6384 14.8747 81.9799 14.5193 81.4968C14.1638 81.0138 13.6762 80.7722 13.0564 80.7722C12.2907 80.7722 11.7165 81.1117 11.3337 81.7908V85.325C11.712 85.9994 12.2907 86.3367 13.07 86.3367C13.6762 86.3367 14.157 86.0974 14.5124 85.6189C14.8724 85.1358 15.0525 84.4203 15.0525 83.4724ZM41.0208 82.5769C41.0208 83.5385 40.8682 84.3679 40.5628 85.0652C40.2575 85.7579 39.8291 86.3002 39.2777 86.6921L41.055 88.0867L40.1595 88.9138L38.0609 87.2458C37.7327 87.3279 37.3864 87.3689 37.0218 87.3689C36.2379 87.3689 35.543 87.1775 34.9368 86.7947C34.3307 86.4073 33.859 85.8582 33.5218 85.1472C33.1891 84.4317 33.0182 83.6046 33.0091 82.6658V81.948C33.0091 80.991 33.1754 80.1456 33.5081 79.4119C33.8408 78.6781 34.3102 78.1176 34.9163 77.7302C35.527 77.3383 36.2243 77.1423 37.0081 77.1423C37.8102 77.1423 38.5143 77.336 39.1204 77.7234C39.7311 78.1108 40.2005 78.669 40.5286 79.3982C40.8568 80.1228 41.0208 80.9705 41.0208 81.9412V82.5769ZM39.7083 81.9343C39.7083 80.7631 39.4736 79.8608 39.0042 79.2273C38.5394 78.5893 37.874 78.2703 37.0081 78.2703C36.1833 78.2703 35.5316 78.587 35.053 79.2205C34.5791 79.8494 34.3353 80.7244 34.3216 81.8455V82.5769C34.3216 83.7162 34.5586 84.614 35.0325 85.2703C35.5111 85.9265 36.1741 86.2546 37.0218 86.2546C37.8695 86.2546 38.5257 85.947 38.9905 85.3318C39.4554 84.712 39.6946 83.8256 39.7083 82.6726V81.9343ZM42.8184 83.4724C42.8184 82.3103 43.085 81.392 43.6182 80.7175C44.1514 80.0385 44.8669 79.699 45.7647 79.699C46.6397 79.699 47.3301 79.9929 47.836 80.5808L47.8907 79.8357H49.0528V90.0759H47.7881V86.5486C47.2777 87.0955 46.5987 87.3689 45.751 87.3689C44.8578 87.3689 44.1446 87.0225 43.6114 86.3298C43.0827 85.6326 42.8184 84.7097 42.8184 83.5613V83.4724ZM44.083 83.616C44.083 84.4636 44.2608 85.129 44.6162 85.6121C44.9763 86.0951 45.4593 86.3367 46.0655 86.3367C46.8174 86.3367 47.3916 86.004 47.7881 85.3386V81.7156C47.3871 81.0639 46.8174 80.738 46.0791 80.738C45.4685 80.738 44.9831 80.9819 44.6231 81.4695C44.2631 81.9526 44.083 82.6681 44.083 83.616ZM70.2223 83.2058H67.8844V87.2322H66.5651V77.2791H69.86C70.9811 77.2791 71.8424 77.5343 72.444 78.0447C73.0501 78.5551 73.3532 79.2979 73.3532 80.2732C73.3532 80.893 73.1845 81.433 72.8473 81.8933C72.5146 82.3536 72.0498 82.6977 71.4528 82.9255L73.7907 87.1501V87.2322H72.3825L70.2223 83.2058ZM67.8844 82.1326H69.901C70.5527 82.1326 71.07 81.9639 71.4528 81.6267C71.8401 81.2895 72.0338 80.8383 72.0338 80.2732C72.0338 79.658 71.8493 79.1863 71.4801 78.8582C71.1155 78.53 70.5869 78.3637 69.8942 78.3591H67.8844V82.1326ZM78.8558 80.9705C78.6644 80.9386 78.4571 80.9226 78.2337 80.9226C77.4043 80.9226 76.8415 81.2758 76.5453 81.9822V87.2322H75.2806V79.8357H76.5111L76.5316 80.6902C76.9463 80.0294 77.5342 79.699 78.2953 79.699C78.5414 79.699 78.7282 79.7309 78.8558 79.7947V80.9705ZM102.199 82.7957C101.073 82.4721 100.253 82.0756 99.738 81.6062C99.2276 81.1322 98.9723 80.5489 98.9723 79.8562C98.9723 79.0723 99.2845 78.4252 99.9089 77.9148C100.538 77.3998 101.354 77.1423 102.356 77.1423C103.04 77.1423 103.648 77.2745 104.181 77.5388C104.719 77.8031 105.134 78.1677 105.425 78.6326C105.722 79.0974 105.87 79.6056 105.87 80.157H104.55C104.55 79.5554 104.359 79.0837 103.976 78.7419C103.593 78.3956 103.053 78.2224 102.356 78.2224C101.709 78.2224 101.203 78.366 100.839 78.6531C100.479 78.9356 100.299 79.3298 100.299 79.8357C100.299 80.2413 100.469 80.5854 100.811 80.8679C101.158 81.1459 101.743 81.4011 102.568 81.6335C103.397 81.866 104.045 82.1235 104.509 82.406C104.979 82.684 105.325 83.0098 105.549 83.3835C105.776 83.7572 105.89 84.197 105.89 84.7029C105.89 85.5095 105.576 86.1567 104.947 86.6443C104.318 87.1274 103.477 87.3689 102.424 87.3689C101.741 87.3689 101.103 87.239 100.51 86.9792C99.918 86.7149 99.46 86.3549 99.1364 85.8992C98.8174 85.4434 98.6579 84.9262 98.6579 84.3474H99.9772C99.9772 84.949 100.198 85.4252 100.64 85.7761C101.087 86.1225 101.682 86.2957 102.424 86.2957C103.117 86.2957 103.648 86.1544 104.017 85.8718C104.386 85.5893 104.571 85.2042 104.571 84.7166C104.571 84.2289 104.4 83.8529 104.058 83.5886C103.716 83.3197 103.097 83.0554 102.199 82.7957ZM111.967 85.2703C111.967 84.9285 111.837 84.6641 111.578 84.4773C111.322 84.2859 110.873 84.1218 110.231 83.9851C109.593 83.8484 109.085 83.6843 108.706 83.4929C108.333 83.3015 108.055 83.0736 107.872 82.8093C107.695 82.545 107.606 82.2306 107.606 81.866C107.606 81.2598 107.861 80.7472 108.371 80.3279C108.886 79.9086 109.543 79.699 110.34 79.699C111.179 79.699 111.858 79.9154 112.377 80.3484C112.901 80.7813 113.163 81.335 113.163 82.0095H111.892C111.892 81.6632 111.744 81.3647 111.448 81.114C111.156 80.8634 110.787 80.738 110.34 80.738C109.88 80.738 109.52 80.8383 109.26 81.0388C109 81.2393 108.871 81.5014 108.871 81.825C108.871 82.1303 108.991 82.3604 109.233 82.5154C109.474 82.6703 109.91 82.8184 110.538 82.9597C111.172 83.101 111.685 83.2696 112.077 83.4656C112.468 83.6615 112.758 83.8985 112.945 84.1765C113.136 84.45 113.232 84.7849 113.232 85.1814C113.232 85.8422 112.968 86.3731 112.439 86.7742C111.91 87.1707 111.224 87.3689 110.381 87.3689C109.789 87.3689 109.265 87.2641 108.809 87.0544C108.353 86.8448 107.996 86.5531 107.736 86.1794C107.481 85.8012 107.353 85.3933 107.353 84.9558H108.618C108.64 85.3796 108.809 85.7169 109.123 85.9675C109.442 86.2136 109.862 86.3367 110.381 86.3367C110.86 86.3367 111.243 86.241 111.53 86.0496C111.821 85.8536 111.967 85.5938 111.967 85.2703ZM140.724 78.3591H137.525V87.2322H136.219V78.3591H133.027V77.2791H140.724V78.3591ZM143.998 78.0447V79.8357H145.379V80.8132H143.998V85.4001C143.998 85.6964 144.06 85.9197 144.183 86.0701C144.306 86.2159 144.516 86.2888 144.812 86.2888C144.958 86.2888 145.158 86.2615 145.414 86.2068V87.2322C145.081 87.3233 144.757 87.3689 144.443 87.3689C143.878 87.3689 143.452 87.198 143.164 86.8562C142.877 86.5144 142.734 86.0291 142.734 85.4001V80.8132H141.387V79.8357H142.734V78.0447H143.998ZM8.16211 103.279V110.047C8.15755 110.985 7.86133 111.753 7.27344 112.35C6.6901 112.947 5.89714 113.282 4.89453 113.355L4.5459 113.369C3.45671 113.369 2.58854 113.075 1.94141 112.487C1.29427 111.899 0.966146 111.09 0.957031 110.06V103.279H2.25586V110.019C2.25586 110.739 2.4541 111.3 2.85059 111.701C3.24707 112.097 3.81217 112.296 4.5459 112.296C5.28874 112.296 5.85612 112.097 6.24805 111.701C6.64453 111.304 6.84277 110.746 6.84277 110.026V103.279H8.16211ZM14.8816 112.501C14.3894 113.08 13.667 113.369 12.7146 113.369C11.9262 113.369 11.3246 113.141 10.9099 112.685C10.4997 112.225 10.2924 111.546 10.2878 110.648V105.836H11.5525V110.614C11.5525 111.735 12.0082 112.296 12.9196 112.296C13.8858 112.296 14.5284 111.936 14.8474 111.216V105.836H16.112V113.232H14.9089L14.8816 112.501ZM36.8236 111.489L39.6673 103.279H41.1029L37.4114 113.232H36.2493L32.5648 103.279H33.9935L36.8236 111.489ZM44.8829 111.516L46.7149 105.836H48.0069L45.3545 113.232H44.3907L41.711 105.836H43.003L44.8829 111.516ZM70.6117 110.094L70.8031 111.407L71.0834 110.224L73.0521 103.279H74.1595L76.0804 110.224L76.3539 111.427L76.5658 110.088L78.1107 103.279H79.43L77.017 113.232H75.8207L73.7699 105.979L73.6127 105.22L73.4554 105.979L71.3295 113.232H70.1332L67.7269 103.279H69.0394L70.6117 110.094ZM87.5235 111.489L88.9454 105.836H90.21L88.0567 113.232H87.0313L85.2335 107.627L83.4835 113.232H82.4581L80.3116 105.836H81.5694L83.0255 111.373L84.7481 105.836H85.7667L87.5235 111.489ZM102.733 107.094L105.118 103.279H106.663L103.519 108.215L106.739 113.232H105.18L102.733 109.349L100.272 113.232H98.72L101.947 108.215L98.7952 103.279H100.333L102.733 107.094ZM110.826 108.536L112.467 105.836H113.943L111.523 109.493L114.019 113.232H112.556L110.847 110.464L109.138 113.232H107.668L110.163 109.493L107.743 105.836H109.206L110.826 108.536ZM141.319 108.276L143.917 103.279H145.407L141.976 109.52V113.232H140.663V109.52L137.231 103.279H138.735L141.319 108.276ZM149.057 111.38L150.78 105.836H152.134L149.16 114.374C148.7 115.604 147.968 116.219 146.966 116.219L146.726 116.199L146.255 116.11V115.085L146.596 115.112C147.025 115.112 147.357 115.025 147.594 114.852C147.836 114.679 148.034 114.362 148.189 113.902L148.469 113.15L145.831 105.836H147.212L149.057 111.38Z" fill="white" fill-opacity="0.3"/>
</svg>
