<svg width="82" height="108" viewBox="0 0 82 108" fill="none" xmlns="http://www.w3.org/2000/svg">
<path d="M55.0078 69.2322L54.3993 70.0258L54.4078 70.0322L55.0078 69.2322ZM39.8203 62.4822L39.5096 63.4327L39.5151 63.4345L39.8203 62.4822ZM22.4531 55.4509L21.9778 56.3307L21.979 56.3314L22.4531 55.4509ZM9.65625 15.3025L8.84488 14.718L8.84371 14.7196L9.65625 15.3025ZM23.0859 5.10718L22.7018 4.18388L22.6992 4.18498L23.0859 5.10718ZM62.3203 5.45874L61.897 6.36475L61.9031 6.36757L62.3203 5.45874ZM75.6094 16.6384L74.7711 17.1837L74.7748 17.1894L75.6094 16.6384ZM80.3906 33.0916V34.0916H81.3906V33.0916H80.3906ZM59.2969 33.0916H58.2969V34.0916H59.2969V33.0916ZM54.8672 22.1931L54.2028 22.9406L54.2095 22.9464L54.8672 22.1931ZM30.3984 21.5603L31.0006 22.3588L31.0088 22.3524L30.3984 21.5603ZM31.1016 38.5056L30.5415 39.3341L30.5469 39.3377L31.1016 38.5056ZM45.9375 44.8337L45.6483 45.791L45.6495 45.7914L45.9375 44.8337ZM70.3359 99.115L70.9351 99.9157L70.9386 99.913L70.3359 99.115ZM21.75 102.349L21.3402 103.262L21.3457 103.264L21.75 102.349ZM6.91406 90.4666L6.08439 91.0248L6.088 91.0301L6.91406 90.4666ZM1.85156 73.0291V72.0291H0.851562V73.0291H1.85156ZM23.0156 73.0291H24.0156V72.0291H23.0156V73.0291ZM55.0078 86.9509L55.5904 87.7638L55.5992 87.7573L55.0078 86.9509ZM60.2266 78.3728C60.2266 74.1217 58.7082 70.7575 55.6078 68.4322L54.4078 70.0322C56.9324 71.9256 58.2266 74.6552 58.2266 78.3728H60.2266ZM55.6162 68.4386C52.6566 66.1695 47.45 63.8775 40.1255 61.5299L39.5151 63.4345C46.8156 65.7744 51.734 67.9824 54.3994 70.0258L55.6162 68.4386ZM40.1311 61.5317C32.8463 59.1501 27.1194 56.8278 22.9272 54.5705L21.979 56.3314C26.3181 58.6678 32.1694 61.033 39.5096 63.4327L40.1311 61.5317ZM22.9285 54.5711C11.5343 48.4146 6.01562 40.2471 6.01562 30.0681H4.01562C4.01562 41.1704 10.1219 49.9247 21.9778 56.3307L22.9285 54.5711ZM6.01562 30.0681C6.01562 24.7366 7.5023 20.0205 10.4688 15.8854L8.84371 14.7196C5.6227 19.2095 4.01562 24.3371 4.01562 30.0681H6.01562ZM10.4676 15.887C13.4831 11.7014 17.8003 8.4081 23.4727 6.02937L22.6992 4.18498C16.7466 6.68126 12.1107 10.1848 8.84488 14.718L10.4676 15.887ZM23.47 6.03047C29.1913 3.65042 35.6207 2.45093 42.7734 2.45093V0.450928C35.3949 0.450928 28.6993 1.68894 22.7018 4.18388L23.47 6.03047ZM42.7734 2.45093C49.9627 2.45093 56.3302 3.76385 61.897 6.36473L62.7436 4.55275C56.8729 1.80988 50.2091 0.450928 42.7734 0.450928V2.45093ZM61.9031 6.36757C67.4665 8.92123 71.7431 12.5287 74.7711 17.1837L76.4476 16.0932C73.1944 11.0919 68.6116 7.24625 62.7375 4.54991L61.9031 6.36757ZM74.7748 17.1894C77.8477 21.8438 79.3906 27.1342 79.3906 33.0916H81.3906C81.3906 26.7677 79.7461 21.0893 76.4439 16.0875L74.7748 17.1894ZM80.3906 32.0916H59.2969V34.0916H80.3906V32.0916ZM60.2969 33.0916C60.2969 28.1772 58.7382 24.2451 55.5248 21.4398L54.2095 22.9464C56.9025 25.2974 58.2969 28.6309 58.2969 33.0916H60.2969ZM55.5316 21.4457C52.3393 18.6081 47.9233 17.2556 42.4219 17.2556V19.2556C47.6079 19.2556 51.4888 20.5281 54.2028 22.9405L55.5316 21.4457ZM42.4219 17.2556C37.1367 17.2556 32.8834 18.3832 29.7881 20.7682L31.0088 22.3524C33.6322 20.3311 37.3945 19.2556 42.4219 19.2556V17.2556ZM29.7963 20.7619C26.688 23.1059 25.1094 26.2601 25.1094 30.1384H27.1094C27.1094 26.8917 28.3902 24.3272 31.0005 22.3587L29.7963 20.7619ZM25.1094 30.1384C25.1094 33.8702 27.0034 36.9421 30.5415 39.3341L31.6616 37.6772C28.5434 35.5691 27.1094 33.0629 27.1094 30.1384H25.1094ZM30.5469 39.3377C34.0405 41.6667 39.093 43.8103 45.6483 45.791L46.2267 43.8765C39.7507 41.9197 34.9126 39.8445 31.6563 37.6736L30.5469 39.3377ZM45.6495 45.7914C57.5824 49.3805 66.148 53.7979 71.4662 58.9797L72.8619 57.5472C67.2113 52.0415 58.2926 47.5057 46.2255 43.8761L45.6495 45.7914ZM71.4662 58.9797C76.7488 64.1268 79.3906 70.5209 79.3906 78.2322H81.3906C81.3906 70.006 78.5481 63.0876 72.8619 57.5472L71.4662 58.9797ZM79.3906 78.2322C79.3906 86.798 76.1706 93.4552 69.7333 98.317L70.9386 99.913C77.9075 94.6498 81.3906 87.3851 81.3906 78.2322H79.3906ZM69.7368 98.3143C63.2588 103.162 54.4691 105.638 43.2656 105.638V107.638C54.7497 107.638 64.0069 105.1 70.935 99.9157L69.7368 98.3143ZM43.2656 105.638C35.514 105.638 28.4819 104.232 22.1543 101.435L21.3457 103.264C27.9556 106.186 35.2673 107.638 43.2656 107.638V105.638ZM22.1598 101.437C15.8306 98.5937 11.0417 94.7422 7.74013 89.903L6.088 91.0301C9.63022 96.2222 14.7319 100.293 21.3402 103.262L22.1598 101.437ZM7.74372 89.9083C4.4901 85.073 2.85156 79.4589 2.85156 73.0291H0.851562C0.851562 79.8179 2.58802 85.8288 6.08441 91.0248L7.74372 89.9083ZM1.85156 74.0291H23.0156V72.0291H1.85156V74.0291ZM22.0156 73.0291C22.0156 78.8831 23.773 83.4394 27.4364 86.5049C31.0656 89.5419 36.4006 90.9744 43.2656 90.9744V88.9744C36.6306 88.9744 31.8407 87.5826 28.7199 84.9711C25.6332 82.3882 24.0156 78.4719 24.0156 73.0291H22.0156ZM43.2656 90.9744C48.4002 90.9744 52.5471 89.9447 55.5903 87.7637L54.4253 86.1381C51.8435 87.9884 48.1623 88.9744 43.2656 88.9744V90.9744ZM55.5992 87.7573C58.6828 85.496 60.2266 82.3295 60.2266 78.3728H58.2266C58.2266 81.7286 56.9578 84.2808 54.4165 86.1445L55.5992 87.7573Z" fill="white" fill-opacity="0.17"/>
</svg>
