<svg width="531" height="393" viewBox="0 0 531 393" fill="none" xmlns="http://www.w3.org/2000/svg">
<path opacity="0.37" d="M530.821 136.863C530.266 151.643 528.479 166.351 525.479 180.834L319.605 386.71C305.122 389.71 290.414 391.498 275.634 392.053L530.821 136.863ZM209.05 386.263L525.027 70.2812C527.418 81.3623 529.098 92.5853 530.054 103.881L242.649 391.287C231.353 390.331 220.131 388.651 209.05 386.26V386.263ZM152.882 367.315L506.082 14.1152C510.282 23.0886 513.974 32.2915 517.139 41.6802L180.448 378.371C171.059 375.206 161.856 371.513 152.882 367.312V367.315ZM506.987 237.171C480.377 295.117 433.884 341.609 375.939 368.219L506.987 237.171ZM104.419 337.931L476.7 -34.3488C482.324 -26.9784 487.558 -19.3193 492.383 -11.4028L127.364 353.614C119.448 348.789 111.789 343.555 104.419 337.931ZM64.951 300.926L439.694 -73.8168C446.567 -67.8354 453.13 -61.5061 459.356 -54.8538L83.914 320.587C77.2618 314.361 70.9325 307.799 64.951 300.926ZM33.859 256.905L395.67 -104.91C403.8 -100.324 411.684 -95.3141 419.287 -89.8998L48.87 280.523C43.4547 272.92 38.444 265.036 33.859 256.905ZM11.317 204.333L343.102 -127.451C352.696 -124.52 362.114 -121.044 371.312 -117.04L21.729 232.548C17.7248 223.349 14.2485 213.928 11.317 204.333ZM0 137.807L276.575 -138.768C288.271 -138.287 299.923 -137.035 311.454 -135.02L3.748 172.685C1.73297 161.154 0.480915 149.503 0 137.807ZM10.839 50.4862L189.255 -127.929C205.006 -132.63 221.161 -135.853 237.51 -137.556L1.215 98.7412C2.91689 82.3921 6.13882 66.2373 10.839 50.4862Z" fill="#212938"/>
</svg>
