<svg width="24" height="589" viewBox="0 0 24 589" fill="none" xmlns="http://www.w3.org/2000/svg">
<g opacity="0.1">
<rect width="1" height="540.451" rx="0.5" transform="matrix(-1 0 0 1 23 -0.767761)" fill="#C4C4C4"/>
<path d="M7.66015 537.443L11 537.443L11 538.568L2.46875 538.568L2.46875 535.421C2.46875 534.488 2.70703 533.757 3.18359 533.23C3.66015 532.698 4.29101 532.433 5.07617 532.433C5.9043 532.433 6.54297 532.693 6.99219 533.212C7.4375 533.728 7.66015 534.468 7.66015 535.433L7.66015 537.443ZM6.74023 537.443L6.74023 535.421C6.74023 534.82 6.59961 534.359 6.31836 534.038C6.0332 533.718 5.62305 533.558 5.08789 533.558C4.58008 533.558 4.17383 533.718 3.86914 534.038C3.56445 534.359 3.40625 534.798 3.39453 535.357L3.39453 537.443L6.74023 537.443ZM7.00976 523.595C7.8457 523.595 8.57617 523.735 9.20117 524.017C9.82226 524.298 10.2969 524.696 10.625 525.212C10.9531 525.728 11.1172 526.329 11.1172 527.017C11.1172 527.689 10.9531 528.284 10.625 528.804C10.293 529.323 9.82226 529.728 9.21289 530.017C8.59961 530.302 7.89062 530.448 7.08594 530.456L6.4707 530.456C5.65039 530.456 4.92578 530.314 4.29687 530.028C3.66797 529.743 3.1875 529.341 2.85547 528.821C2.51953 528.298 2.35156 527.7 2.35156 527.028C2.35156 526.345 2.51758 525.743 2.84961 525.224C3.17773 524.7 3.65625 524.298 4.28515 524.017C4.91015 523.735 5.63867 523.595 6.4707 523.595L7.00976 523.595ZM6.45898 524.714C5.44726 524.714 4.67187 524.917 4.13281 525.323C3.58984 525.73 3.31836 526.298 3.31836 527.028C3.31836 527.739 3.58984 528.3 4.13281 528.71C4.67187 529.116 5.42187 529.325 6.38281 529.337L7.00976 529.337C7.99023 529.337 8.76172 529.132 9.32422 528.722C9.88281 528.308 10.1621 527.739 10.1621 527.017C10.1621 526.29 9.89844 525.728 9.37109 525.329C8.83984 524.931 8.08008 524.726 7.0918 524.714L6.45898 524.714ZM7.54883 517.938L7.54883 519.942L11 519.942L11 521.073L2.46875 521.073L2.46875 518.249C2.46875 517.288 2.6875 516.55 3.125 516.034C3.5625 515.515 4.19922 515.255 5.03515 515.255C5.5664 515.255 6.02929 515.399 6.42383 515.688C6.81836 515.974 7.11328 516.372 7.30859 516.884L10.9297 514.88L11 514.88L11 516.087L7.54883 517.938ZM6.6289 519.942L6.6289 518.214C6.6289 517.655 6.48437 517.212 6.19531 516.884C5.90625 516.552 5.51953 516.386 5.03515 516.386C4.50781 516.386 4.10351 516.544 3.82226 516.86C3.54101 517.173 3.39844 517.626 3.39453 518.22L3.39453 519.942L6.6289 519.942ZM3.39453 507.407L3.39453 510.149L11 510.149L11 511.268L3.39453 511.268L3.39453 514.005L2.46875 514.005L2.46875 507.407L3.39453 507.407ZM7.23242 500.596L7.23242 504.176L11 504.176L11 505.301L2.46875 505.301L2.46875 500.016L3.39453 500.016L3.39453 504.176L6.3125 504.176L6.3125 500.596L7.23242 500.596ZM7.00976 491.266C7.8457 491.266 8.57617 491.407 9.20117 491.688C9.82226 491.969 10.2969 492.368 10.625 492.883C10.9531 493.399 11.1172 494 11.1172 494.688C11.1172 495.36 10.9531 495.956 10.625 496.475C10.293 496.995 9.82226 497.399 9.21289 497.688C8.59961 497.973 7.89062 498.12 7.08593 498.127L6.4707 498.127C5.65039 498.127 4.92578 497.985 4.29687 497.7C3.66797 497.415 3.1875 497.012 2.85547 496.493C2.51953 495.969 2.35156 495.372 2.35156 494.7C2.35156 494.016 2.51758 493.415 2.84961 492.895C3.17773 492.372 3.65625 491.969 4.28515 491.688C4.91015 491.407 5.63867 491.266 6.4707 491.266L7.00976 491.266ZM6.45898 492.385C5.44726 492.385 4.67187 492.588 4.13281 492.995C3.58984 493.401 3.31836 493.969 3.31836 494.7C3.31836 495.411 3.58984 495.971 4.13281 496.381C4.67187 496.788 5.42187 496.997 6.38281 497.008L7.00976 497.008C7.99023 497.008 8.76172 496.803 9.32422 496.393C9.88281 495.979 10.1621 495.411 10.1621 494.688C10.1621 493.961 9.89843 493.399 9.37109 493C8.83984 492.602 8.08008 492.397 7.09179 492.385L6.45898 492.385ZM10.0801 487.608L10.0801 483.565L11 483.565L11 488.739L2.46875 488.739L2.46875 487.608L10.0801 487.608ZM11 480.235L11 481.36L2.46875 481.36L2.46875 480.235L11 480.235ZM7.00976 470.77C7.8457 470.77 8.57617 470.91 9.20117 471.191C9.82226 471.473 10.2969 471.871 10.625 472.387C10.9531 472.902 11.1172 473.504 11.1172 474.191C11.1172 474.863 10.9531 475.459 10.625 475.978C10.293 476.498 9.82226 476.902 9.21289 477.191C8.59961 477.477 7.89062 477.623 7.08593 477.631L6.4707 477.631C5.65039 477.631 4.92578 477.488 4.29687 477.203C3.66797 476.918 3.1875 476.516 2.85547 475.996C2.51953 475.473 2.35156 474.875 2.35156 474.203C2.35156 473.52 2.51757 472.918 2.84961 472.398C3.17773 471.875 3.65625 471.473 4.28515 471.191C4.91015 470.91 5.63867 470.77 6.4707 470.77L7.00976 470.77ZM6.45898 471.889C5.44726 471.889 4.67187 472.092 4.13281 472.498C3.58984 472.904 3.31836 473.473 3.31836 474.203C3.31836 474.914 3.58984 475.475 4.13281 475.885C4.67187 476.291 5.42187 476.5 6.38281 476.512L7.00976 476.512C7.99023 476.512 8.76172 476.307 9.32422 475.896C9.88281 475.482 10.1621 474.914 10.1621 474.191C10.1621 473.465 9.89843 472.902 9.37109 472.504C8.83984 472.105 8.08007 471.9 7.09179 471.889L6.45898 471.889Z" fill="#C4C4C4"/>
</g>
</svg>
