<svg width="24" height="590" viewBox="0 0 24 590" fill="none" xmlns="http://www.w3.org/2000/svg">
<g opacity="0.1">
<rect width="1" height="540.451" rx="0.5" transform="matrix(-1 0 0 1 23 0.232178)" fill="#C4C4C4"/>
<path d="M7.66015 538.443L11 538.443L11 539.568L2.46875 539.568L2.46875 536.421C2.46875 535.487 2.70703 534.757 3.18359 534.23C3.66015 533.698 4.29101 533.433 5.07617 533.433C5.9043 533.433 6.54297 533.693 6.99219 534.212C7.4375 534.728 7.66015 535.468 7.66015 536.433L7.66015 538.443ZM6.74023 538.443L6.74023 536.421C6.74023 535.82 6.59961 535.359 6.31836 535.038C6.0332 534.718 5.62305 534.558 5.08789 534.558C4.58008 534.558 4.17383 534.718 3.86914 535.038C3.56445 535.359 3.40625 535.798 3.39453 536.357L3.39453 538.443L6.74023 538.443ZM7.00976 524.595C7.8457 524.595 8.57617 524.735 9.20117 525.017C9.82226 525.298 10.2969 525.696 10.625 526.212C10.9531 526.728 11.1172 527.329 11.1172 528.017C11.1172 528.689 10.9531 529.284 10.625 529.804C10.293 530.323 9.82226 530.728 9.21289 531.017C8.59961 531.302 7.89062 531.448 7.08594 531.456L6.4707 531.456C5.65039 531.456 4.92578 531.314 4.29687 531.028C3.66797 530.743 3.1875 530.341 2.85547 529.821C2.51953 529.298 2.35156 528.7 2.35156 528.028C2.35156 527.345 2.51758 526.743 2.84961 526.224C3.17773 525.7 3.65625 525.298 4.28515 525.017C4.91015 524.735 5.63867 524.595 6.4707 524.595L7.00976 524.595ZM6.45898 525.714C5.44726 525.714 4.67187 525.917 4.13281 526.323C3.58984 526.73 3.31836 527.298 3.31836 528.028C3.31836 528.739 3.58984 529.3 4.13281 529.71C4.67187 530.116 5.42187 530.325 6.38281 530.337L7.00976 530.337C7.99023 530.337 8.76172 530.132 9.32422 529.722C9.88281 529.308 10.1621 528.739 10.1621 528.017C10.1621 527.29 9.89844 526.728 9.37109 526.329C8.83984 525.931 8.08008 525.726 7.0918 525.714L6.45898 525.714ZM7.54883 518.938L7.54883 520.942L11 520.942L11 522.073L2.46875 522.073L2.46875 519.249C2.46875 518.288 2.6875 517.55 3.125 517.034C3.5625 516.515 4.19922 516.255 5.03515 516.255C5.5664 516.255 6.02929 516.399 6.42383 516.688C6.81836 516.974 7.11328 517.372 7.30859 517.884L10.9297 515.88L11 515.88L11 517.087L7.54883 518.938ZM6.6289 520.942L6.6289 519.214C6.6289 518.655 6.48437 518.212 6.19531 517.884C5.90625 517.552 5.51953 517.386 5.03515 517.386C4.50781 517.386 4.10351 517.544 3.82226 517.86C3.54101 518.173 3.39844 518.626 3.39453 519.22L3.39453 520.942L6.6289 520.942ZM3.39453 508.407L3.39453 511.149L11 511.149L11 512.268L3.39453 512.268L3.39453 515.005L2.46875 515.005L2.46875 508.407L3.39453 508.407ZM7.23242 501.596L7.23242 505.176L11 505.176L11 506.301L2.46875 506.301L2.46875 501.016L3.39453 501.016L3.39453 505.176L6.3125 505.176L6.3125 501.596L7.23242 501.596ZM7.00976 492.266C7.8457 492.266 8.57617 492.407 9.20117 492.688C9.82226 492.969 10.2969 493.368 10.625 493.883C10.9531 494.399 11.1172 495 11.1172 495.688C11.1172 496.36 10.9531 496.955 10.625 497.475C10.293 497.995 9.82226 498.399 9.21289 498.688C8.59961 498.973 7.89062 499.12 7.08593 499.127L6.4707 499.127C5.65039 499.127 4.92578 498.985 4.29687 498.7C3.66797 498.414 3.1875 498.012 2.85547 497.493C2.51953 496.969 2.35156 496.371 2.35156 495.7C2.35156 495.016 2.51758 494.414 2.84961 493.895C3.17773 493.371 3.65625 492.969 4.28515 492.688C4.91015 492.407 5.63867 492.266 6.4707 492.266L7.00976 492.266ZM6.45898 493.385C5.44726 493.385 4.67187 493.588 4.13281 493.995C3.58984 494.401 3.31836 494.969 3.31836 495.7C3.31836 496.411 3.58984 496.971 4.13281 497.381C4.67187 497.787 5.42187 497.996 6.38281 498.008L7.00976 498.008C7.99023 498.008 8.76172 497.803 9.32422 497.393C9.88281 496.979 10.1621 496.411 10.1621 495.688C10.1621 494.961 9.89843 494.399 9.37109 494C8.83984 493.602 8.08008 493.397 7.09179 493.385L6.45898 493.385ZM10.0801 488.608L10.0801 484.565L11 484.565L11 489.739L2.46875 489.739L2.46875 488.608L10.0801 488.608ZM11 481.234L11 482.359L2.46875 482.359L2.46875 481.234L11 481.234ZM7.00976 471.769C7.8457 471.769 8.57617 471.91 9.20117 472.191C9.82226 472.473 10.2969 472.871 10.625 473.387C10.9531 473.902 11.1172 474.504 11.1172 475.191C11.1172 475.863 10.9531 476.459 10.625 476.978C10.293 477.498 9.82226 477.902 9.21289 478.191C8.59961 478.476 7.89062 478.623 7.08593 478.631L6.4707 478.631C5.65039 478.631 4.92578 478.488 4.29687 478.203C3.66797 477.918 3.1875 477.516 2.85547 476.996C2.51953 476.473 2.35156 475.875 2.35156 475.203C2.35156 474.519 2.51757 473.918 2.84961 473.398C3.17773 472.875 3.65625 472.473 4.28515 472.191C4.91015 471.91 5.63867 471.769 6.4707 471.769L7.00976 471.769ZM6.45898 472.889C5.44726 472.889 4.67187 473.092 4.13281 473.498C3.58984 473.904 3.31836 474.473 3.31836 475.203C3.31836 475.914 3.58984 476.475 4.13281 476.885C4.67187 477.291 5.42187 477.5 6.38281 477.512L7.00976 477.512C7.99023 477.512 8.76172 477.307 9.32422 476.896C9.88281 476.482 10.1621 475.914 10.1621 475.191C10.1621 474.465 9.89843 473.902 9.37109 473.504C8.83984 473.105 8.08007 472.9 7.09179 472.889L6.45898 472.889Z" fill="#C4C4C4"/>
</g>
</svg>
