<svg width="24" height="631" viewBox="0 0 24 631" fill="none" xmlns="http://www.w3.org/2000/svg">
<g opacity="0.2">
<rect width="1" height="540.451" rx="0.5" transform="matrix(-1 0 0 1 23 0.232178)" fill="#020202"/>
<path d="M11 538.188L11 539.313L2.46875 539.313L2.46875 538.188L11 538.188ZM11 535.285L2.46875 535.285L2.46875 532.877C2.46875 532.135 2.63281 531.479 2.96093 530.908C3.28906 530.338 3.75586 529.899 4.36133 529.59C4.96679 529.278 5.66211 529.119 6.44726 529.115L6.99218 529.115C7.79687 529.115 8.50195 529.272 9.10742 529.584C9.71289 529.893 10.1777 530.336 10.502 530.914C10.8262 531.489 10.9922 532.158 11 532.924L11 535.285ZM3.39453 534.16L10.0801 534.16L10.0801 532.977C10.0801 532.11 9.81054 531.436 9.27148 530.955C8.73242 530.471 7.96484 530.229 6.96875 530.229L6.4707 530.229C5.50195 530.229 4.75 530.457 4.21484 530.914C3.67578 531.367 3.40234 532.012 3.39453 532.848L3.39453 534.16ZM7.05664 521.748L7.05664 525.445L10.0801 525.445L10.0801 521.15L11 521.15L11 526.57L2.46875 526.57L2.46875 521.209L3.39453 521.209L3.39453 525.445L6.13672 525.445L6.13672 521.748L7.05664 521.748ZM8.77343 514.199L8.77343 517.773L11 518.576L11 519.736L2.46875 516.478L2.46875 515.494L11 512.23L11 513.385L8.77343 514.199ZM7.84765 517.434L7.84765 514.533L3.85742 515.986L7.84765 517.434Z" fill="#020202"/>
</g>
</svg>
