<svg width="24" height="310" viewBox="0 0 24 310" fill="none" xmlns="http://www.w3.org/2000/svg">
<g opacity="0.19">
<rect width="1" height="307.17" rx="0.5" transform="matrix(-1 0 0 1 20 0.232422)" fill="#C4C4C4"/>
</g>
<path d="M8.77344 295.579L8.77344 299.153L11 299.956L11 301.116L2.46875 297.858L2.46875 296.874L11 293.61L11 294.765L8.77344 295.579ZM7.84765 298.813L7.84765 295.913L3.85742 297.366L7.84765 298.813ZM7.54883 288.133L7.54883 290.137L11 290.137L11 291.268L2.46875 291.268L2.46875 288.444C2.46875 287.483 2.6875 286.744 3.125 286.229C3.5625 285.709 4.19922 285.449 5.03515 285.449C5.5664 285.449 6.02929 285.594 6.42383 285.883C6.81836 286.168 7.11328 286.567 7.30859 287.078L10.9297 285.074L11 285.074L11 286.281L7.54883 288.133ZM6.6289 290.137L6.6289 288.408C6.6289 287.85 6.48437 287.406 6.19531 287.078C5.90625 286.746 5.51953 286.58 5.03515 286.58C4.50781 286.58 4.10351 286.738 3.82226 287.055C3.54101 287.367 3.39843 287.821 3.39453 288.414L3.39453 290.137L6.6289 290.137ZM3.39453 277.242L3.39453 279.984L11 279.984L11 281.103L3.39453 281.103L3.39453 283.839L2.46875 283.839L2.46875 277.242L3.39453 277.242Z" fill="#C4C4C4"/>
</svg>
