<svg width="802" height="127" viewBox="0 0 802 127" fill="none" xmlns="http://www.w3.org/2000/svg">
<path d="M318.532 125.582C308.332 125.582 300.532 122.432 295.132 116.132C289.832 109.832 286.882 101.182 286.282 90.1822L301.282 86.1322C301.782 93.9322 303.282 100.232 305.782 105.032C308.382 109.832 312.632 112.232 318.532 112.232C322.932 112.232 326.232 111.032 328.432 108.632C330.732 106.132 331.882 102.582 331.882 97.9822C331.882 92.9822 330.832 88.8322 328.732 85.5322C326.632 82.2322 323.282 78.5822 318.682 74.5822L298.282 56.5822C294.182 52.9822 291.182 49.1322 289.282 45.0322C287.482 40.8322 286.582 35.7322 286.582 29.7322C286.582 20.8322 289.132 13.9322 294.232 9.03218C299.332 4.13217 306.282 1.68217 315.082 1.68217C324.682 1.68217 331.932 4.23217 336.832 9.33217C341.732 14.4322 344.682 22.3322 345.682 33.0322L331.282 36.9322C330.782 29.8322 329.382 24.3822 327.082 20.5822C324.882 16.6822 320.882 14.7322 315.082 14.7322C310.782 14.7322 307.482 15.8822 305.182 18.1822C302.882 20.3822 301.732 23.6822 301.732 28.0822C301.732 31.6822 302.332 34.7322 303.532 37.2322C304.732 39.6322 306.782 42.0822 309.682 44.5822L330.232 62.5822C335.532 67.2822 339.732 72.3822 342.832 77.8822C346.032 83.3822 347.632 89.6322 347.632 96.6322C347.632 105.532 344.932 112.582 339.532 117.782C334.132 122.982 327.132 125.582 318.532 125.582ZM371.28 2.73217H418.38V15.3322H388.23V55.5322H412.68V67.5322H388.23V112.082H418.68V124.232H371.28V2.73217ZM442.864 2.73217H467.314C479.614 2.73217 488.614 5.28217 494.314 10.3822C500.114 15.3822 503.014 23.5822 503.014 34.9822C503.014 50.5822 498.014 60.0322 488.014 63.3322L505.264 124.232H488.914L473.014 67.2322H459.814V124.232H442.864V2.73217ZM466.264 55.0822C473.564 55.0822 478.764 53.6322 481.864 50.7322C485.064 47.8322 486.664 42.5822 486.664 34.9822C486.664 29.9822 486.114 26.0822 485.014 23.2822C483.914 20.3822 481.964 18.2822 479.164 16.9822C476.364 15.5822 472.414 14.8822 467.314 14.8822H459.814V55.0822H466.264ZM525.147 2.73217H541.047L560.247 92.2822L578.547 2.73217H593.997L567.147 124.232H552.297L525.147 2.73217ZM618.28 2.73217H634.93V124.232H618.28V2.73217ZM695.537 125.582C683.537 125.582 675.087 122.032 670.187 114.932C665.287 107.732 662.837 97.8322 662.837 85.2322V42.3322C662.837 29.0322 665.237 18.9322 670.037 12.0322C674.837 5.13217 683.337 1.68217 695.537 1.68217C706.437 1.68217 714.237 4.63217 718.937 10.5322C723.737 16.4322 726.137 25.1322 726.137 36.6322V46.2322H710.087V37.6822C710.087 32.0822 709.837 27.7822 709.337 24.7822C708.837 21.7822 707.537 19.3822 705.437 17.5822C703.437 15.7822 700.187 14.8822 695.687 14.8822C691.087 14.8822 687.637 15.8822 685.337 17.8822C683.137 19.7822 681.687 22.4822 680.987 25.9822C680.287 29.3822 679.937 33.9822 679.937 39.7822V87.9322C679.937 94.1322 680.437 98.9822 681.437 102.482C682.437 105.982 684.037 108.482 686.237 109.982C688.537 111.482 691.687 112.232 695.687 112.232C699.987 112.232 703.187 111.282 705.287 109.382C707.387 107.482 708.687 104.882 709.187 101.582C709.787 98.2822 710.087 93.7822 710.087 88.0822V79.0822H726.137V88.0822C726.137 100.182 723.837 109.482 719.237 115.982C714.737 122.382 706.837 125.582 695.537 125.582ZM752.784 2.73217H799.884V15.3322H769.734V55.5322H794.184V67.5322H769.734V112.082H800.184V124.232H752.784V2.73217Z" fill="white"/>
<path d="M10.7 116.132L9.93474 116.776L9.94074 116.783L10.7 116.132ZM1.85 90.1822L1.58933 89.2168L0.80737 89.4279L0.851484 90.2366L1.85 90.1822ZM16.85 86.1322L17.848 86.0682L17.7697 84.848L16.5893 85.1667L16.85 86.1322ZM21.35 105.032L20.4631 105.494L20.4668 105.501L20.4707 105.508L21.35 105.032ZM44 108.632L43.2641 107.955L43.2628 107.956L44 108.632ZM44.3 85.5322L45.1437 84.9953L44.3 85.5322ZM34.25 74.5822L33.5884 75.332L33.5938 75.3368L34.25 74.5822ZM13.85 56.5822L14.5116 55.8323L14.5098 55.8307L13.85 56.5822ZM4.85 45.0322L3.93086 45.4261L3.93658 45.4395L3.94269 45.4526L4.85 45.0322ZM9.8 9.03218L10.4928 9.75328H10.4928L9.8 9.03218ZM61.25 33.0322L61.5114 33.9974L62.324 33.7773L62.2457 32.9391L61.25 33.0322ZM46.85 36.9322L45.8525 37.0024L45.9379 38.2152L47.1114 37.8974L46.85 36.9322ZM42.65 20.5822L41.779 21.0735L41.7866 21.0869L41.7945 21.1L42.65 20.5822ZM20.75 18.1822L21.4412 18.9048L21.4493 18.8971L21.4571 18.8893L20.75 18.1822ZM19.1 37.2322L18.1985 37.6649L18.202 37.6722L18.2056 37.6794L19.1 37.2322ZM25.25 44.5822L25.9089 43.8299L25.9029 43.8248L25.25 44.5822ZM45.8 62.5822L46.4635 61.834L46.4589 61.8299L45.8 62.5822ZM58.4 77.8822L57.5288 78.3732L57.5357 78.3851L58.4 77.8822ZM55.1 117.782L55.7936 118.503L55.1 117.782ZM34.1 124.582C24.119 124.582 16.6265 121.51 11.4593 115.481L9.94074 116.783C15.5735 123.355 23.681 126.582 34.1 126.582V124.582ZM11.4652 115.488C6.34535 109.403 3.44067 100.984 2.84852 90.1277L0.851484 90.2366C1.45933 101.381 4.45466 110.262 9.93477 116.776L11.4652 115.488ZM2.11067 91.1476L17.1107 87.0976L16.5893 85.1667L1.58933 89.2168L2.11067 91.1476ZM15.8521 86.1962C16.3573 94.0782 17.8768 100.529 20.4631 105.494L22.2369 104.57C19.8232 99.9359 18.3427 93.7861 17.848 86.0682L15.8521 86.1962ZM20.4707 105.508C21.8493 108.054 23.6882 110 25.9958 111.303C28.2992 112.604 31.0136 113.232 34.1 113.232V111.232C31.2864 111.232 28.9258 110.661 26.9792 109.561C25.0368 108.465 23.4507 106.811 22.2293 104.556L20.4707 105.508ZM34.1 113.232C38.6776 113.232 42.288 111.98 44.7372 109.308L43.2628 107.956C41.312 110.085 38.3224 111.232 34.1 111.232V113.232ZM44.7359 109.309C47.2582 106.568 48.45 102.743 48.45 97.9822H46.45C46.45 102.421 45.3418 105.697 43.2641 107.955L44.7359 109.309ZM48.45 97.9822C48.45 92.8444 47.3707 88.4949 45.1437 84.9953L43.4563 86.069C45.4294 89.1695 46.45 93.12 46.45 97.9822H48.45ZM45.1437 84.9953C42.9716 81.582 39.5431 77.8597 34.9062 73.8276L33.5938 75.3368C38.1569 79.3047 41.4284 82.8823 43.4563 86.069L45.1437 84.9953ZM34.9116 73.8323L14.5116 55.8323L13.1884 57.332L33.5884 75.332L34.9116 73.8323ZM14.5098 55.8307C10.4932 52.3039 7.58792 48.562 5.75731 44.6117L3.94269 45.4526C5.91208 49.7024 9.00682 53.6604 13.1902 57.3336L14.5098 55.8307ZM5.76915 44.6383C4.03638 40.5951 3.15 35.6371 3.15 29.7322H1.15C1.15 35.8272 2.06363 41.0692 3.93086 45.4261L5.76915 44.6383ZM3.15 29.7322C3.15 21.0297 5.63704 14.4186 10.4928 9.75328L9.10718 8.31107C3.76296 13.4457 1.15 20.6346 1.15 29.7322H3.15ZM10.4928 9.75328C15.3637 5.07345 22.042 2.68217 30.65 2.68217V0.682175C21.658 0.682175 14.4363 3.1909 9.10717 8.31107L10.4928 9.75328ZM30.65 2.68217C40.0783 2.68217 47.0273 5.1835 51.6789 10.025L53.1211 8.63935C47.9727 3.28085 40.4217 0.682175 30.65 0.682175V2.68217ZM51.6789 10.025C56.3591 14.8962 59.265 22.539 60.2543 33.1252L62.2457 32.9391C61.235 22.1253 58.2409 13.9681 53.1211 8.63935L51.6789 10.025ZM60.9886 32.0669L46.5886 35.9669L47.1114 37.8974L61.5114 33.9974L60.9886 32.0669ZM47.8475 36.8619C47.3424 29.6888 45.9228 24.0581 43.5055 20.0644L41.7945 21.1C43.9772 24.7062 45.3576 29.9755 45.8525 37.0024L47.8475 36.8619ZM43.521 20.0909C41.0905 15.7823 36.6877 13.7322 30.65 13.7322V15.7322C36.2123 15.7322 39.8095 17.5821 41.779 21.0735L43.521 20.0909ZM30.65 13.7322C26.1733 13.7322 22.5849 14.9331 20.0429 17.4751L21.4571 18.8893C23.5151 16.8313 26.5267 15.7322 30.65 15.7322V13.7322ZM20.0588 17.4595C17.4956 19.9113 16.3 23.5164 16.3 28.0822H18.3C18.3 23.8479 19.4044 20.8531 21.4412 18.9048L20.0588 17.4595ZM16.3 28.0822C16.3 31.789 16.9173 34.9958 18.1985 37.6649L20.0015 36.7994C18.8827 34.4685 18.3 31.5754 18.3 28.0822H16.3ZM18.2056 37.6794C19.4843 40.2368 21.6363 42.7872 24.5971 45.3396L25.9029 43.8248C23.0637 41.3771 21.1157 39.0275 19.9944 36.785L18.2056 37.6794ZM24.5911 45.3344L45.1411 63.3344L46.4589 61.8299L25.9089 43.8299L24.5911 45.3344ZM45.1365 63.3304C50.3635 67.9656 54.4895 72.9809 57.5289 78.3732L59.2712 77.3912C56.1105 71.7835 51.8365 66.5987 46.4635 61.834L45.1365 63.3304ZM57.5357 78.3851C60.6381 83.7174 62.2 89.7907 62.2 96.6322H64.2C64.2 89.4737 62.5619 83.047 59.2644 77.3793L57.5357 78.3851ZM62.2 96.6322C62.2 105.315 59.5743 112.085 54.4064 117.062L55.7936 118.503C61.4257 113.079 64.2 105.749 64.2 96.6322H62.2ZM54.4064 117.062C49.2203 122.056 42.4824 124.582 34.1 124.582V126.582C42.9176 126.582 50.1797 123.909 55.7936 118.503L54.4064 117.062ZM86.8484 2.73217V1.73217H85.8484V2.73217H86.8484ZM139.198 10.2322L138.512 10.9596L138.52 10.9664L139.198 10.2322ZM129.748 58.8322L129.612 57.8416L129.519 59.8054L129.748 58.8322ZM145.498 69.0322L144.659 69.5754L144.664 69.583L145.498 69.0322ZM142.648 115.082L141.887 114.433L141.881 114.441L142.648 115.082ZM86.8484 124.232H85.8484V125.232H86.8484V124.232ZM128.398 48.9322L129.142 49.6011L129.147 49.5951L129.153 49.589L128.398 48.9322ZM129.898 21.3322L129.047 21.8563L129.059 21.8757L129.072 21.8945L129.898 21.3322ZM122.548 16.3822L122.756 15.4039L122.548 16.3822ZM103.798 15.3322V14.3322H102.798V15.3322H103.798ZM103.798 53.4322H102.798V54.4322H103.798V53.4322ZM126.748 109.832L127.234 110.706L127.245 110.7L126.748 109.832ZM132.598 102.632L133.544 102.957L132.598 102.632ZM129.448 72.1822L128.675 72.8165L128.684 72.8263L129.448 72.1822ZM103.798 66.3322V65.3322H102.798V66.3322H103.798ZM103.798 112.082H102.798V113.082H103.798V112.082ZM86.8484 3.73217H114.748V1.73217H86.8484V3.73217ZM114.748 3.73217C125.62 3.73217 133.473 6.20579 138.512 10.9596L139.885 9.50478C134.324 4.25855 125.877 1.73217 114.748 1.73217V3.73217ZM138.52 10.9664C143.538 15.6064 146.148 22.9361 146.148 33.1822H148.148C148.148 22.6283 145.459 14.658 139.877 9.4979L138.52 10.9664ZM146.148 33.1822C146.148 40.8261 144.715 46.6127 141.971 50.6583C139.252 54.6662 135.173 57.0746 129.612 57.8416L129.885 59.8228C135.924 58.9898 140.545 56.3231 143.626 51.7811C146.682 47.2767 148.148 41.0382 148.148 33.1822H146.148ZM129.519 59.8054C136.525 61.4598 141.528 64.7373 144.659 69.5754L146.338 68.4889C142.869 63.127 137.371 59.6046 129.978 57.8589L129.519 59.8054ZM144.664 69.583C147.817 74.3612 149.448 80.994 149.448 89.5822H151.448C151.448 80.7704 149.779 73.7031 146.333 68.4813L144.664 69.583ZM149.448 89.5822C149.448 100.33 146.885 108.57 141.887 114.433L143.409 115.731C148.811 109.394 151.448 100.634 151.448 89.5822H149.448ZM141.881 114.441C137.028 120.246 129.554 123.232 119.248 123.232V125.232C129.943 125.232 138.069 122.119 143.416 115.724L141.881 114.441ZM119.248 123.232H86.8484V125.232H119.248V123.232ZM87.8484 124.232V2.73217H85.8484V124.232H87.8484ZM113.848 54.4322C120.935 54.4322 126.152 52.9235 129.142 49.6011L127.655 48.2632C125.245 50.9409 120.761 52.4322 113.848 52.4322V54.4322ZM129.153 49.589C132.096 46.2089 133.448 40.6506 133.448 33.1822H131.448C131.448 40.5138 130.1 45.4554 127.644 48.2754L129.153 49.589ZM133.448 33.1822C133.448 27.7193 132.596 23.5215 130.725 20.7699L129.072 21.8945C130.6 24.1429 131.448 27.845 131.448 33.1822H133.448ZM130.75 20.8081C128.991 17.9491 126.293 16.1542 122.756 15.4039L122.341 17.3604C125.404 18.0102 127.606 19.5152 129.047 21.8563L130.75 20.8081ZM122.756 15.4039C119.351 14.6817 114.367 14.3322 107.848 14.3322V16.3322C114.33 16.3322 119.146 16.6827 122.341 17.3604L122.756 15.4039ZM107.848 14.3322H103.798V16.3322H107.848V14.3322ZM102.798 15.3322V53.4322H104.798V15.3322H102.798ZM103.798 54.4322H113.848V52.4322H103.798V54.4322ZM115.198 113.082C120.274 113.082 124.321 112.325 127.234 110.706L126.263 108.958C123.776 110.339 120.123 111.082 115.198 111.082V113.082ZM127.245 110.7C130.266 108.974 132.369 106.375 133.544 102.957L131.653 102.307C130.627 105.29 128.83 107.491 126.252 108.964L127.245 110.7ZM133.544 102.957C134.695 99.6079 135.248 95.1326 135.248 89.5822H133.248C133.248 95.0317 132.701 99.2565 131.653 102.307L133.544 102.957ZM135.248 89.5822C135.248 81.6737 133.631 75.5962 130.213 71.538L128.684 72.8263C131.666 76.3681 133.248 81.8907 133.248 89.5822H135.248ZM130.222 71.5479C126.761 67.3301 121.215 65.3322 113.848 65.3322V67.3322C120.882 67.3322 125.736 69.2343 128.675 72.8165L130.222 71.5479ZM113.848 65.3322H103.798V67.3322H113.848V65.3322ZM102.798 66.3322V112.082H104.798V66.3322H102.798ZM103.798 113.082H115.198V111.082H103.798V113.082ZM176.011 2.73217V1.73217H175.011V2.73217H176.011ZM222.961 2.73217H223.961V1.73217H222.961V2.73217ZM222.961 14.8822V15.8822H223.961V14.8822H222.961ZM192.961 14.8822V13.8822H191.961V14.8822H192.961ZM192.961 55.3822H191.961V56.3822H192.961V55.3822ZM216.211 55.3822H217.211V54.3822H216.211V55.3822ZM216.211 67.3822V68.3822H217.211V67.3822H216.211ZM192.961 67.3822V66.3822H191.961V67.3822H192.961ZM192.961 124.232V125.232H193.961V124.232H192.961ZM176.011 124.232H175.011V125.232H176.011V124.232ZM176.011 3.73217H222.961V1.73217H176.011V3.73217ZM221.961 2.73217V14.8822H223.961V2.73217H221.961ZM222.961 13.8822H192.961V15.8822H222.961V13.8822ZM191.961 14.8822V55.3822H193.961V14.8822H191.961ZM192.961 56.3822H216.211V54.3822H192.961V56.3822ZM215.211 55.3822V67.3822H217.211V55.3822H215.211ZM216.211 66.3822H192.961V68.3822H216.211V66.3822ZM191.961 67.3822V124.232H193.961V67.3822H191.961ZM192.961 123.232H176.011V125.232H192.961V123.232ZM177.011 124.232V2.73217H175.011V124.232H177.011ZM295.132 116.132L294.366 116.776L294.372 116.783L295.132 116.132ZM286.282 90.1822L286.021 89.2168L285.239 89.4279L285.283 90.2366L286.282 90.1822ZM301.282 86.1322L302.28 86.0682L302.201 84.848L301.021 85.1667L301.282 86.1322ZM305.782 105.032L304.895 105.494L304.898 105.501L304.902 105.508L305.782 105.032ZM328.432 108.632L327.696 107.955L327.694 107.956L328.432 108.632ZM328.732 85.5322L329.575 84.9953L328.732 85.5322ZM318.682 74.5822L318.02 75.332L318.025 75.3368L318.682 74.5822ZM298.282 56.5822L298.943 55.8323L298.941 55.8307L298.282 56.5822ZM289.282 45.0322L288.362 45.4261L288.368 45.4395L288.374 45.4526L289.282 45.0322ZM294.232 9.03218L294.924 9.75328L294.232 9.03218ZM345.682 33.0322L345.943 33.9974L346.756 33.7773L346.677 32.9391L345.682 33.0322ZM331.282 36.9322L330.284 37.0024L330.37 38.2152L331.543 37.8974L331.282 36.9322ZM327.082 20.5822L326.211 21.0735L326.218 21.0869L326.226 21.1L327.082 20.5822ZM305.182 18.1822L305.873 18.9048L305.881 18.8971L305.889 18.8893L305.182 18.1822ZM303.532 37.2322L302.63 37.6649L302.634 37.6722L302.637 37.6794L303.532 37.2322ZM309.682 44.5822L310.341 43.8299L310.335 43.8248L309.682 44.5822ZM330.232 62.5822L330.895 61.834L330.891 61.8299L330.232 62.5822ZM342.832 77.8822L341.96 78.3732L341.967 78.3851L342.832 77.8822ZM339.532 117.782L340.225 118.503L339.532 117.782ZM318.532 124.582C308.551 124.582 301.058 121.51 295.891 115.481L294.372 116.783C300.005 123.355 308.113 126.582 318.532 126.582V124.582ZM295.897 115.488C290.777 109.403 287.872 100.984 287.28 90.1277L285.283 90.2366C285.891 101.381 288.886 110.262 294.366 116.776L295.897 115.488ZM286.542 91.1476L301.542 87.0976L301.021 85.1667L286.021 89.2168L286.542 91.1476ZM300.284 86.1962C300.789 94.0782 302.308 100.529 304.895 105.494L306.669 104.57C304.255 99.9359 302.774 93.7861 302.28 86.0682L300.284 86.1962ZM304.902 105.508C306.281 108.054 308.12 110 310.427 111.303C312.731 112.604 315.445 113.232 318.532 113.232V111.232C315.718 111.232 313.357 110.661 311.411 109.561C309.468 108.465 307.882 106.811 306.661 104.556L304.902 105.508ZM318.532 113.232C323.109 113.232 326.72 111.98 329.169 109.308L327.694 107.956C325.744 110.085 322.754 111.232 318.532 111.232V113.232ZM329.168 109.309C331.69 106.568 332.882 102.743 332.882 97.9822H330.882C330.882 102.421 329.773 105.697 327.696 107.955L329.168 109.309ZM332.882 97.9822C332.882 92.8444 331.802 88.4949 329.575 84.9953L327.888 86.069C329.861 89.1695 330.882 93.12 330.882 97.9822H332.882ZM329.575 84.9953C327.403 81.582 323.975 77.8597 319.338 73.8276L318.025 75.3368C322.589 79.3047 325.86 82.8823 327.888 86.069L329.575 84.9953ZM319.343 73.8323L298.943 55.8323L297.62 57.332L318.02 75.332L319.343 73.8323ZM298.941 55.8307C294.925 52.3039 292.02 48.562 290.189 44.6117L288.374 45.4526C290.344 49.7024 293.438 53.6604 297.622 57.3336L298.941 55.8307ZM290.201 44.6383C288.468 40.5951 287.582 35.6371 287.582 29.7322H285.582C285.582 35.8272 286.495 41.0692 288.362 45.4261L290.201 44.6383ZM287.582 29.7322C287.582 21.0297 290.069 14.4186 294.924 9.75328L293.539 8.31107C288.195 13.4457 285.582 20.6346 285.582 29.7322H287.582ZM294.924 9.75328C299.795 5.07345 306.474 2.68217 315.082 2.68217V0.682175C306.09 0.682175 298.868 3.1909 293.539 8.31107L294.924 9.75328ZM315.082 2.68217C324.51 2.68217 331.459 5.1835 336.111 10.025L337.553 8.63935C332.404 3.28085 324.853 0.682175 315.082 0.682175V2.68217ZM336.111 10.025C340.791 14.8962 343.697 22.539 344.686 33.1252L346.677 32.9391C345.667 22.1253 342.673 13.9681 337.553 8.63935L336.111 10.025ZM345.42 32.0669L331.02 35.9669L331.543 37.8974L345.943 33.9974L345.42 32.0669ZM332.279 36.8619C331.774 29.6888 330.354 24.0581 327.937 20.0644L326.226 21.1C328.409 24.7062 329.789 29.9755 330.284 37.0024L332.279 36.8619ZM327.953 20.0909C325.522 15.7823 321.119 13.7322 315.082 13.7322V15.7322C320.644 15.7322 324.241 17.5821 326.211 21.0735L327.953 20.0909ZM315.082 13.7322C310.605 13.7322 307.017 14.9331 304.475 17.4751L305.889 18.8893C307.947 16.8313 310.958 15.7322 315.082 15.7322V13.7322ZM304.49 17.4595C301.927 19.9113 300.732 23.5164 300.732 28.0822H302.732C302.732 23.8479 303.836 20.8531 305.873 18.9048L304.49 17.4595ZM300.732 28.0822C300.732 31.789 301.349 34.9958 302.63 37.6649L304.433 36.7994C303.314 34.4685 302.732 31.5754 302.732 28.0822H300.732ZM302.637 37.6794C303.916 40.2368 306.068 42.7872 309.029 45.3396L310.335 43.8248C307.495 41.3771 305.547 39.0275 304.426 36.785L302.637 37.6794ZM309.023 45.3344L329.573 63.3344L330.891 61.8299L310.341 43.8299L309.023 45.3344ZM329.568 63.3304C334.795 67.9656 338.921 72.9809 341.96 78.3732L343.703 77.3912C340.542 71.7835 336.268 66.5987 330.895 61.834L329.568 63.3304ZM341.967 78.3851C345.07 83.7174 346.632 89.7907 346.632 96.6322H348.632C348.632 89.4737 346.994 83.047 343.696 77.3793L341.967 78.3851ZM346.632 96.6322C346.632 105.315 344.006 112.085 338.838 117.062L340.225 118.503C345.857 113.079 348.632 105.749 348.632 96.6322H346.632ZM338.838 117.062C333.652 122.056 326.914 124.582 318.532 124.582V126.582C327.349 126.582 334.611 123.909 340.225 118.503L338.838 117.062ZM371.28 2.73217V1.73217H370.28V2.73217H371.28ZM418.38 2.73217H419.38V1.73217H418.38V2.73217ZM418.38 15.3322V16.3322H419.38V15.3322H418.38ZM388.23 15.3322V14.3322H387.23V15.3322H388.23ZM388.23 55.5322H387.23V56.5322H388.23V55.5322ZM412.68 55.5322H413.68V54.5322H412.68V55.5322ZM412.68 67.5322V68.5322H413.68V67.5322H412.68ZM388.23 67.5322V66.5322H387.23V67.5322H388.23ZM388.23 112.082H387.23V113.082H388.23V112.082ZM418.68 112.082H419.68V111.082H418.68V112.082ZM418.68 124.232V125.232H419.68V124.232H418.68ZM371.28 124.232H370.28V125.232H371.28V124.232ZM371.28 3.73217H418.38V1.73217H371.28V3.73217ZM417.38 2.73217V15.3322H419.38V2.73217H417.38ZM418.38 14.3322H388.23V16.3322H418.38V14.3322ZM387.23 15.3322V55.5322H389.23V15.3322H387.23ZM388.23 56.5322H412.68V54.5322H388.23V56.5322ZM411.68 55.5322V67.5322H413.68V55.5322H411.68ZM412.68 66.5322H388.23V68.5322H412.68V66.5322ZM387.23 67.5322V112.082H389.23V67.5322H387.23ZM388.23 113.082H418.68V111.082H388.23V113.082ZM417.68 112.082V124.232H419.68V112.082H417.68ZM418.68 123.232H371.28V125.232H418.68V123.232ZM372.28 124.232V2.73217H370.28V124.232H372.28ZM442.864 2.73217V1.73217H441.864V2.73217H442.864ZM494.314 10.3822L493.647 11.1274L493.654 11.1336L493.661 11.1396L494.314 10.3822ZM488.014 63.3322L487.701 62.3825L486.791 62.6828L487.052 63.6047L488.014 63.3322ZM505.264 124.232V125.232H506.587L506.226 123.96L505.264 124.232ZM488.914 124.232L487.951 124.501L488.155 125.232H488.914V124.232ZM473.014 67.2322L473.977 66.9635L473.773 66.2322H473.014V67.2322ZM459.814 67.2322V66.2322H458.814V67.2322H459.814ZM459.814 124.232V125.232H460.814V124.232H459.814ZM442.864 124.232H441.864V125.232H442.864V124.232ZM481.864 50.7322L481.193 49.9912L481.187 49.9965L481.181 50.0019L481.864 50.7322ZM485.014 23.2822L484.079 23.6368L484.083 23.6478L485.014 23.2822ZM479.164 16.9822L478.717 17.8766L478.73 17.8831L478.743 17.8892L479.164 16.9822ZM459.814 14.8822V13.8822H458.814V14.8822H459.814ZM459.814 55.0822H458.814V56.0822H459.814V55.0822ZM442.864 3.73217H467.314V1.73217H442.864V3.73217ZM467.314 3.73217C479.509 3.73217 488.214 6.26609 493.647 11.1274L494.981 9.63692C489.014 4.29824 479.719 1.73217 467.314 1.73217V3.73217ZM493.661 11.1396C499.151 15.8722 502.014 23.7288 502.014 34.9822H504.014C504.014 23.4356 501.077 14.8921 494.967 9.62476L493.661 11.1396ZM502.014 34.9822C502.014 42.6887 500.777 48.7721 498.38 53.302C495.999 57.8026 492.451 60.8149 487.701 62.3825L488.327 64.2818C493.577 62.5495 497.529 59.1868 500.148 54.2374C502.751 49.3173 504.014 42.8757 504.014 34.9822H502.014ZM487.052 63.6047L504.302 124.505L506.226 123.96L488.976 63.0596L487.052 63.6047ZM505.264 123.232H488.914V125.232H505.264V123.232ZM489.877 123.963L473.977 66.9635L472.051 67.5009L487.951 124.501L489.877 123.963ZM473.014 66.2322H459.814V68.2322H473.014V66.2322ZM458.814 67.2322V124.232H460.814V67.2322H458.814ZM459.814 123.232H442.864V125.232H459.814V123.232ZM443.864 124.232V2.73217H441.864V124.232H443.864ZM466.264 56.0822C473.649 56.0822 479.168 54.6241 482.547 51.4624L481.181 50.0019C478.361 52.6403 473.479 54.0822 466.264 54.0822V56.0822ZM482.536 51.4732C486.058 48.2812 487.664 42.6635 487.664 34.9822H485.664C485.664 42.5008 484.07 47.3831 481.193 49.9912L482.536 51.4732ZM487.664 34.9822C487.664 29.9288 487.111 25.885 485.945 22.9165L484.083 23.6478C485.117 26.2793 485.664 30.0355 485.664 34.9822H487.664ZM485.949 22.9275C484.757 19.7847 482.623 17.4857 479.585 16.0752L478.743 17.8892C481.305 19.0786 483.071 20.9797 484.079 23.6368L485.949 22.9275ZM479.611 16.0877C476.612 14.5879 472.483 13.8822 467.314 13.8822V15.8822C472.345 15.8822 476.117 16.5765 478.717 17.8766L479.611 16.0877ZM467.314 13.8822H459.814V15.8822H467.314V13.8822ZM458.814 14.8822V55.0822H460.814V14.8822H458.814ZM459.814 56.0822H466.264V54.0822H459.814V56.0822ZM525.147 2.73217V1.73217H523.899L524.171 2.95025L525.147 2.73217ZM541.047 2.73217L542.025 2.52253L541.856 1.73217H541.047V2.73217ZM560.247 92.2822L559.269 92.4918L561.227 92.4824L560.247 92.2822ZM578.547 2.73217V1.73217H577.731L577.568 2.53195L578.547 2.73217ZM593.997 2.73217L594.974 2.94795L595.242 1.73217H593.997V2.73217ZM567.147 124.232V125.232H567.95L568.124 124.448L567.147 124.232ZM552.297 124.232L551.321 124.45L551.496 125.232H552.297V124.232ZM525.147 3.73217H541.047V1.73217H525.147V3.73217ZM540.069 2.94181L559.269 92.4918L561.225 92.0725L542.025 2.52253L540.069 2.94181ZM561.227 92.4824L579.527 2.93238L577.568 2.53195L559.268 92.082L561.227 92.4824ZM578.547 3.73217H593.997V1.73217H578.547V3.73217ZM593.021 2.51639L566.171 124.016L568.124 124.448L594.974 2.94795L593.021 2.51639ZM567.147 123.232H552.297V125.232H567.147V123.232ZM553.273 124.014L526.123 2.51409L524.171 2.95025L551.321 124.45L553.273 124.014ZM618.28 2.73217V1.73217H617.28V2.73217H618.28ZM634.93 2.73217H635.93V1.73217H634.93V2.73217ZM634.93 124.232V125.232H635.93V124.232H634.93ZM618.28 124.232H617.28V125.232H618.28V124.232ZM618.28 3.73217H634.93V1.73217H618.28V3.73217ZM633.93 2.73217V124.232H635.93V2.73217H633.93ZM634.93 123.232H618.28V125.232H634.93V123.232ZM619.28 124.232V2.73217H617.28V124.232H619.28ZM670.187 114.932L669.36 115.495L669.364 115.5L670.187 114.932ZM670.037 12.0322L669.216 11.4611L670.037 12.0322ZM718.937 10.5322L718.155 11.1553L718.161 11.1633L718.937 10.5322ZM726.137 46.2322V47.2322H727.137V46.2322H726.137ZM710.087 46.2322H709.087V47.2322H710.087V46.2322ZM709.337 24.7822L710.323 24.6178L709.337 24.7822ZM705.437 17.5822L704.768 18.3255L704.777 18.3336L704.786 18.3414L705.437 17.5822ZM685.337 17.8822L685.99 18.639L685.993 18.6368L685.337 17.8822ZM680.987 25.9822L681.966 26.1838L681.967 26.1783L680.987 25.9822ZM681.437 102.482L682.398 102.207L681.437 102.482ZM686.237 109.982L685.673 110.808L685.682 110.814L685.69 110.82L686.237 109.982ZM705.287 109.382L705.958 110.124L705.287 109.382ZM709.187 101.582L708.203 101.403L708.2 101.418L708.198 101.432L709.187 101.582ZM710.087 79.0822V78.0822H709.087V79.0822H710.087ZM726.137 79.0822H727.137V78.0822H726.137V79.0822ZM719.237 115.982L718.42 115.405L718.419 115.407L719.237 115.982ZM695.537 124.582C683.726 124.582 675.656 121.096 671.01 114.364L669.364 115.5C674.518 122.968 683.347 126.582 695.537 126.582V124.582ZM671.013 114.37C666.266 107.394 663.837 97.717 663.837 85.2322H661.837C661.837 97.9474 664.307 108.07 669.36 115.495L671.013 114.37ZM663.837 85.2322V42.3322H661.837V85.2322H663.837ZM663.837 42.3322C663.837 29.1267 666.224 19.2638 670.858 12.6032L669.216 11.4611C664.249 18.6005 661.837 28.9377 661.837 42.3322H663.837ZM670.858 12.6032C675.396 6.07938 683.507 2.68217 695.537 2.68217V0.682175C683.167 0.682175 674.277 4.18497 669.216 11.4611L670.858 12.6032ZM695.537 2.68217C706.273 2.68217 713.718 5.58539 718.155 11.1553L719.719 9.9091C714.756 3.67896 706.6 0.682175 695.537 0.682175V2.68217ZM718.161 11.1633C722.758 16.8137 725.137 25.2494 725.137 36.6322H727.137C727.137 25.0149 724.715 16.0506 719.712 9.90108L718.161 11.1633ZM725.137 36.6322V46.2322H727.137V36.6322H725.137ZM726.137 45.2322H710.087V47.2322H726.137V45.2322ZM711.087 46.2322V37.6822H709.087V46.2322H711.087ZM711.087 37.6822C711.087 32.0647 710.837 27.6997 710.323 24.6178L708.35 24.9466C708.837 27.8647 709.087 32.0996 709.087 37.6822H711.087ZM710.323 24.6178C709.789 21.4109 708.384 18.7912 706.088 16.8229L704.786 18.3414C706.69 19.9731 707.885 22.1534 708.35 24.9466L710.323 24.6178ZM706.106 16.8389C703.833 14.7933 700.279 13.8822 695.687 13.8822V15.8822C700.094 15.8822 703.041 16.771 704.768 18.3255L706.106 16.8389ZM695.687 13.8822C690.964 13.8822 687.236 14.9058 684.681 17.1276L685.993 18.6368C688.038 16.8586 691.209 15.8822 695.687 15.8822V13.8822ZM684.683 17.1253C682.279 19.2014 680.74 22.119 680.006 25.7861L681.967 26.1783C682.634 22.8454 683.994 20.363 685.99 18.639L684.683 17.1253ZM680.007 25.7805C679.288 29.2762 678.937 33.953 678.937 39.7822H680.937C680.937 34.0113 681.286 29.4881 681.966 26.1838L680.007 25.7805ZM678.937 39.7822V87.9322H680.937V39.7822H678.937ZM678.937 87.9322C678.937 94.1697 679.438 99.1266 680.475 102.757L682.398 102.207C681.435 98.8378 680.937 94.0947 680.937 87.9322H678.937ZM680.475 102.757C681.516 106.399 683.22 109.135 685.673 110.808L686.8 109.156C684.854 107.829 683.358 105.565 682.398 102.207L680.475 102.757ZM685.69 110.82C688.211 112.464 691.577 113.232 695.687 113.232V111.232C691.797 111.232 688.862 110.501 686.783 109.145L685.69 110.82ZM695.687 113.232C700.11 113.232 703.599 112.258 705.958 110.124L704.616 108.641C702.775 110.306 699.863 111.232 695.687 111.232V113.232ZM705.958 110.124C708.258 108.042 709.647 105.217 710.175 101.732L708.198 101.432C707.726 104.547 706.515 106.922 704.616 108.641L705.958 110.124ZM710.171 101.761C710.786 98.3753 711.087 93.8069 711.087 88.0822H709.087C709.087 93.7575 708.787 98.1891 708.203 101.403L710.171 101.761ZM711.087 88.0822V79.0822H709.087V88.0822H711.087ZM710.087 80.0822H726.137V78.0822H710.087V80.0822ZM725.137 79.0822V88.0822H727.137V79.0822H725.137ZM725.137 88.0822C725.137 100.076 722.853 109.14 718.42 115.405L720.053 116.56C724.82 109.824 727.137 100.288 727.137 88.0822H725.137ZM718.419 115.407C714.18 121.436 706.665 124.582 695.537 124.582V126.582C707.008 126.582 715.294 123.329 720.055 116.557L718.419 115.407ZM752.784 2.73217V1.73217H751.784V2.73217H752.784ZM799.884 2.73217H800.884V1.73217H799.884V2.73217ZM799.884 15.3322V16.3322H800.884V15.3322H799.884ZM769.734 15.3322V14.3322H768.734V15.3322H769.734ZM769.734 55.5322H768.734V56.5322H769.734V55.5322ZM794.184 55.5322H795.184V54.5322H794.184V55.5322ZM794.184 67.5322V68.5322H795.184V67.5322H794.184ZM769.734 67.5322V66.5322H768.734V67.5322H769.734ZM769.734 112.082H768.734V113.082H769.734V112.082ZM800.184 112.082H801.184V111.082H800.184V112.082ZM800.184 124.232V125.232H801.184V124.232H800.184ZM752.784 124.232H751.784V125.232H752.784V124.232ZM752.784 3.73217H799.884V1.73217H752.784V3.73217ZM798.884 2.73217V15.3322H800.884V2.73217H798.884ZM799.884 14.3322H769.734V16.3322H799.884V14.3322ZM768.734 15.3322V55.5322H770.734V15.3322H768.734ZM769.734 56.5322H794.184V54.5322H769.734V56.5322ZM793.184 55.5322V67.5322H795.184V55.5322H793.184ZM794.184 66.5322H769.734V68.5322H794.184V66.5322ZM768.734 67.5322V112.082H770.734V67.5322H768.734ZM769.734 113.082H800.184V111.082H769.734V113.082ZM799.184 112.082V124.232H801.184V112.082H799.184ZM800.184 123.232H752.784V125.232H800.184V123.232ZM753.784 124.232V2.73217H751.784V124.232H753.784Z" fill="white"/>
</svg>
