<svg width="92" height="950" viewBox="0 0 92 950" fill="none" xmlns="http://www.w3.org/2000/svg">
<path d="M46.0234 64.7869L46.9105 64.3252L46.6303 63.7869H46.0234V64.7869ZM26.1953 64.7869V63.7869H25.1953V64.7869H26.1953ZM26.1953 104.232V105.232H27.1953V104.232H26.1953ZM8.40625 104.232H7.40625V105.232H8.40625V104.232ZM8.40625 1.85718V0.857178H7.40625V1.85718H8.40625ZM76.3984 50.0212L75.5858 49.4384L75.5847 49.44L76.3984 50.0212ZM62.6172 60.6384L62.2295 59.7167L61.2147 60.1435L61.7368 61.1127L62.6172 60.6384ZM85.6094 103.318H86.6094V103.066L86.4898 102.844L85.6094 103.318ZM85.6094 104.232V105.232H86.6094V104.232H85.6094ZM66.5547 104.232L65.6676 104.694L65.9478 105.232H66.5547V104.232ZM26.1953 50.5134H25.1953V51.5134H26.1953V50.5134ZM58.5391 46.0134L59.2034 46.7609L59.2092 46.7557L58.5391 46.0134ZM58.8906 20.8416L58.1945 21.5595L58.1999 21.5647L58.8906 20.8416ZM44.9688 16.2009L44.9839 15.201L44.9763 15.2009H44.9688V16.2009ZM26.1953 16.2009V15.2009H25.1953V16.2009H26.1953ZM46.0234 63.7869H26.1953V65.7869H46.0234V63.7869ZM25.1953 64.7869V104.232H27.1953V64.7869H25.1953ZM26.1953 103.232H8.40625V105.232H26.1953V103.232ZM9.40625 104.232V1.85718H7.40625V104.232H9.40625ZM8.40625 2.85718H44.4062V0.857178H8.40625V2.85718ZM44.4062 2.85718C56.0821 2.85718 64.9408 5.47594 71.1215 10.5739L72.3941 9.03105C65.7311 3.53529 56.3554 0.857178 44.4062 0.857178V2.85718ZM71.1215 10.5739C77.2656 15.6417 80.3906 22.9944 80.3906 32.7947H82.3906C82.3906 22.5324 79.0938 14.5571 72.3941 9.03105L71.1215 10.5739ZM80.3906 32.7947C80.3906 39.4718 78.7695 44.9992 75.5858 49.4385L77.2111 50.604C80.6836 45.762 82.3906 39.805 82.3906 32.7947H80.3906ZM75.5847 49.44C72.4251 53.8634 67.9885 57.2942 62.2295 59.7167L63.0049 61.5602C69.0584 59.0139 73.8092 55.3666 77.2122 50.6025L75.5847 49.44ZM61.7368 61.1127L84.729 103.792L86.4898 102.844L63.4976 60.1642L61.7368 61.1127ZM84.6094 103.318V104.232H86.6094V103.318H84.6094ZM85.6094 103.232H66.5547V105.232H85.6094V103.232ZM67.4417 103.77L46.9105 64.3252L45.1364 65.2486L65.6676 104.694L67.4417 103.77ZM26.1953 51.5134H44.4766V49.5134H26.1953V51.5134ZM44.4766 51.5134C50.6396 51.5134 55.5923 49.9708 59.2034 46.7608L57.8747 45.266C54.7359 48.0561 50.3135 49.5134 44.4766 49.5134V51.5134ZM59.2092 46.7557C62.8275 43.4892 64.6016 39.0529 64.6016 33.5681H62.6016C62.6016 38.5834 61.0006 42.4439 57.869 45.2712L59.2092 46.7557ZM64.6016 33.5681C64.6016 27.8867 62.9685 23.3539 59.5814 20.1184L58.1999 21.5647C61.094 24.3292 62.6016 28.2808 62.6016 33.5681H64.6016ZM59.5868 20.1237C56.2438 16.882 51.3155 15.297 44.9839 15.201L44.9536 17.2008C50.997 17.2924 55.3499 18.8011 58.1945 21.5595L59.5868 20.1237ZM44.9688 15.2009H26.1953V17.2009H44.9688V15.2009ZM25.1953 16.2009V50.5134H27.1953V16.2009H25.1953ZM84.9062 250.154L85.8149 250.572L85.8158 250.57L84.9062 250.154ZM70 267.592L70.5317 268.439L70.5333 268.437L70 267.592ZM25.5625 267.592L25.0292 268.438L25.0364 268.442L25.5625 267.592ZM10.5156 250.224L9.61015 250.649L9.61235 250.653L10.5156 250.224ZM5.17188 224.279H4.17186L4.17189 224.284L5.17188 224.279ZM10.4453 192.076L9.53898 191.653L9.53686 191.658L10.4453 192.076ZM25.4219 174.568L25.9535 175.415L25.9552 175.414L25.4219 174.568ZM69.7891 174.498L69.2574 175.345L69.2646 175.349L69.7891 174.498ZM84.7656 191.795L83.8592 192.217L83.8602 192.219L84.7656 191.795ZM90.1094 218.021H91.1094L91.1094 218.017L90.1094 218.021ZM65.8516 192.287L65.0344 192.863L65.0374 192.868L65.8516 192.287ZM29.5703 192.287L28.7591 191.702L28.7583 191.703L29.5703 192.287ZM22.9609 217.81L21.9609 217.802V217.81H22.9609ZM29.5 249.802L28.6846 250.381L28.6875 250.385L29.5 249.802ZM65.9219 250.013L65.1068 249.434L65.1038 249.438L65.9219 250.013ZM89.1094 223.717C89.1094 233.633 87.3951 242.299 83.9967 249.739L85.8158 250.57C89.3549 242.822 91.1094 233.863 91.1094 223.717H89.1094ZM83.9976 249.736C80.6026 257.123 75.7573 262.78 69.4667 266.746L70.5333 268.437C77.1802 264.247 82.2724 258.279 85.8149 250.572L83.9976 249.736ZM69.4683 266.745C63.2224 270.665 56.0045 272.638 47.7812 272.638V274.638C56.3392 274.638 63.9338 272.58 70.5317 268.439L69.4683 266.745ZM47.7812 272.638C39.6543 272.638 32.4331 270.667 26.0886 266.741L25.0364 268.442C31.7231 272.579 39.3145 274.638 47.7812 274.638V272.638ZM26.0958 266.746C19.8011 262.777 14.9073 257.139 11.4189 249.795L9.61235 250.653C13.2489 258.309 18.3864 264.25 25.0292 268.437L26.0958 266.746ZM11.4211 249.8C7.97727 242.453 6.21817 233.952 6.17186 224.274L4.17189 224.284C4.21933 234.2 6.02273 242.996 9.61017 250.649L11.4211 249.8ZM6.17188 224.279V218.513H4.17188V224.279H6.17188ZM6.17188 218.513C6.17188 208.647 7.90869 199.981 11.3538 192.494L9.53686 191.658C5.95069 199.452 4.17188 208.411 4.17188 218.513H6.17188ZM11.3516 192.499C14.8422 185.012 19.7127 179.333 25.9535 175.415L24.8902 173.721C18.2873 177.866 13.1735 183.858 9.53899 191.653L11.3516 192.499ZM25.9552 175.414C32.2498 171.446 39.4678 169.451 47.6406 169.451V167.451C39.126 167.451 31.5314 169.534 24.8886 173.722L25.9552 175.414ZM47.6406 169.451C55.8158 169.451 63.0106 171.423 69.2574 175.345L70.3207 173.651C63.7238 169.51 56.1529 167.451 47.6406 167.451V169.451ZM69.2646 175.349C75.5509 179.221 80.4179 184.83 83.8592 192.217L85.6721 191.372C82.0821 183.666 76.9647 177.743 70.3135 173.646L69.2646 175.349ZM83.8602 192.219C87.3029 199.564 89.0631 208.157 89.1094 218.026L91.1094 218.017C91.0619 207.916 89.2596 199.026 85.6711 191.37L83.8602 192.219ZM89.1094 218.021V223.717H91.1094V218.021H89.1094ZM73.3203 218.373C73.3203 206.924 71.1476 197.991 66.6657 191.706L65.0374 192.868C69.1805 198.677 71.3203 207.134 71.3203 218.373H73.3203ZM66.6687 191.71C62.202 185.378 55.8161 182.217 47.6406 182.217V184.217C55.2152 184.217 60.9699 187.101 65.0344 192.863L66.6687 191.71ZM47.6406 182.217C39.6436 182.217 33.3133 185.385 28.7591 191.702L30.3815 192.872C34.5461 187.095 40.2626 184.217 47.6406 184.217V182.217ZM28.7583 191.703C24.2793 197.935 22.0557 206.676 21.961 217.802L23.9609 217.819C24.0537 206.914 26.2363 198.639 30.3823 192.87L28.7583 191.703ZM21.9609 217.81V223.717H23.9609V217.81H21.9609ZM21.9609 223.717C21.9609 235.077 24.1591 244.007 28.6846 250.381L30.3154 249.224C26.1221 243.317 23.9609 234.856 23.9609 223.717H21.9609ZM28.6875 250.385C33.2881 256.797 39.6891 260.013 47.7812 260.013V258.013C40.3109 258.013 34.5244 255.089 30.3125 249.219L28.6875 250.385ZM47.7812 260.013C55.9536 260.013 62.3182 256.877 66.7399 250.589L65.1038 249.438C61.088 255.15 55.3589 258.013 47.7812 258.013V260.013ZM66.7369 250.593C71.1736 244.352 73.3203 235.346 73.3203 223.717H71.3203C71.3203 235.149 69.2014 243.675 65.1068 249.434L66.7369 250.593ZM73.3203 223.717V218.373H71.3203V223.717H73.3203ZM8.40625 441.232H7.40625V442.232H8.40625V441.232ZM8.40625 338.857V337.857H7.40625V338.857H8.40625ZM64.0938 387.935L63.7041 387.014L61.0374 388.143L63.832 388.9L64.0938 387.935ZM76.8906 396.443L76.0787 397.027L76.0863 397.037L76.8906 396.443ZM72.1797 433.498L71.5395 432.73L71.5366 432.732L72.1797 433.498ZM26.1953 395.037V394.037H25.1953V395.037H26.1953ZM26.1953 427.029H25.1953V428.029H26.1953V427.029ZM47.4297 395.037L47.4512 394.037L47.4405 394.037H47.4297V395.037ZM26.1953 381.959H25.1953V382.959H26.1953V381.959ZM56.5703 378.232L57.1964 379.012L57.1978 379.011L56.5703 378.232ZM56.9219 356.576L56.3035 357.362L56.3097 357.367L56.9219 356.576ZM26.1953 353.201V352.201H25.1953V353.201H26.1953ZM9.40625 441.232V338.857H7.40625V441.232H9.40625ZM8.40625 339.857H43.4922V337.857H8.40625V339.857ZM43.4922 339.857C54.9585 339.857 63.5186 342.159 69.3209 346.611L70.5385 345.025C64.2471 340.196 55.1821 337.857 43.4922 337.857V339.857ZM69.3209 346.611C75.0696 351.023 78 357.612 78 366.56H80C80 357.133 76.8836 349.894 70.5385 345.025L69.3209 346.611ZM78 366.56C78 371.056 76.7898 375.079 74.3743 378.657L76.032 379.776C78.679 375.855 80 371.44 80 366.56H78ZM74.3743 378.657C71.9687 382.221 68.4317 385.014 63.7041 387.014L64.4834 388.856C69.5058 386.731 73.375 383.712 76.032 379.776L74.3743 378.657ZM63.832 388.9C69.1687 390.348 73.2284 393.063 76.0787 397.027L77.7025 395.859C74.5528 391.479 70.0813 388.523 64.3555 386.97L63.832 388.9ZM76.0863 397.037C78.9894 400.968 80.4609 405.721 80.4609 411.349H82.4609C82.4609 405.353 80.8856 400.169 77.695 395.849L76.0863 397.037ZM80.4609 411.349C80.4609 420.725 77.4545 427.8 71.5395 432.73L72.8199 434.266C79.2799 428.883 82.4609 421.192 82.4609 411.349H80.4609ZM71.5366 432.732C65.6401 437.683 57.0911 440.232 45.7422 440.232V442.232C57.362 442.232 66.438 439.625 72.8227 434.264L71.5366 432.732ZM45.7422 440.232H8.40625V442.232H45.7422V440.232ZM25.1953 395.037V427.029H27.1953V395.037H25.1953ZM26.1953 428.029H45.9531V426.029H26.1953V428.029ZM45.9531 428.029C51.6924 428.029 56.3155 426.605 59.6921 423.631L58.3704 422.13C55.4658 424.688 51.3701 426.029 45.9531 426.029V428.029ZM59.6921 423.631C63.0869 420.642 64.7422 416.503 64.7422 411.349H62.7422C62.7422 416.04 61.2569 419.588 58.3704 422.13L59.6921 423.631ZM64.7422 411.349C64.7422 405.868 63.3399 401.552 60.3712 398.584C57.4063 395.619 53.0391 394.158 47.4512 394.037L47.4081 396.037C52.6952 396.151 56.4844 397.525 58.957 399.998C61.4257 402.467 62.7422 406.191 62.7422 411.349H64.7422ZM47.4297 394.037H26.1953V396.037H47.4297V394.037ZM26.1953 382.959H43.6328V380.959H26.1953V382.959ZM43.6328 382.959C49.3033 382.959 53.8667 381.686 57.1964 379.012L55.9442 377.452C53.0864 379.747 49.0248 380.959 43.6328 380.959V382.959ZM57.1978 379.011C60.6086 376.262 62.2812 372.394 62.2812 367.545H60.2812C60.2812 371.883 58.8133 375.14 55.9428 377.454L57.1978 379.011ZM62.2812 367.545C62.2812 362.297 60.7689 358.29 57.534 355.785L56.3097 357.367C58.8874 359.362 60.2812 362.667 60.2812 367.545H62.2812ZM57.5403 355.79C54.4203 353.335 49.672 352.201 43.4922 352.201V354.201C49.4999 354.201 53.7047 355.317 56.3035 357.362L57.5403 355.79ZM43.4922 352.201H26.1953V354.201H43.4922V352.201ZM25.1953 353.201V381.959H27.1953V353.201H25.1953ZM84.9062 588.154L85.8149 588.572L85.8158 588.57L84.9062 588.154ZM70 605.592L70.5317 606.439L70.5333 606.438L70 605.592ZM25.5625 605.592L25.0292 606.438L25.0364 606.442L25.5625 605.592ZM10.5156 588.224L9.61015 588.649L9.61235 588.653L10.5156 588.224ZM5.17188 562.279H4.17186L4.17189 562.284L5.17188 562.279ZM10.4453 530.076L9.53898 529.653L9.53686 529.658L10.4453 530.076ZM25.4219 512.568L25.9535 513.415L25.9552 513.414L25.4219 512.568ZM69.7891 512.498L69.2574 513.345L69.2646 513.349L69.7891 512.498ZM84.7656 529.795L83.8592 530.217L83.8602 530.219L84.7656 529.795ZM90.1094 556.021H91.1094L91.1094 556.017L90.1094 556.021ZM65.8516 530.287L65.0344 530.863L65.0374 530.867L65.8516 530.287ZM29.5703 530.287L28.7591 529.702L28.7583 529.703L29.5703 530.287ZM22.9609 555.81L21.9609 555.802V555.81H22.9609ZM29.5 587.802L28.6846 588.381L28.6875 588.385L29.5 587.802ZM65.9219 588.013L65.1068 587.434L65.1038 587.438L65.9219 588.013ZM89.1094 561.717C89.1094 571.633 87.3951 580.299 83.9967 587.739L85.8158 588.57C89.3549 580.822 91.1094 571.863 91.1094 561.717H89.1094ZM83.9976 587.736C80.6026 595.123 75.7573 600.78 69.4667 604.746L70.5333 606.438C77.1802 602.247 82.2724 596.279 85.8149 588.572L83.9976 587.736ZM69.4683 604.745C63.2224 608.665 56.0045 610.638 47.7812 610.638V612.638C56.3392 612.638 63.9338 610.58 70.5317 606.439L69.4683 604.745ZM47.7812 610.638C39.6543 610.638 32.4331 608.667 26.0886 604.741L25.0364 606.442C31.7231 610.579 39.3145 612.638 47.7812 612.638V610.638ZM26.0958 604.746C19.8011 600.777 14.9073 595.139 11.4189 587.795L9.61235 588.653C13.2489 596.309 18.3864 602.25 25.0292 606.438L26.0958 604.746ZM11.4211 587.8C7.97727 580.453 6.21817 571.952 6.17186 562.274L4.17189 562.284C4.21933 572.2 6.02273 580.996 9.61017 588.649L11.4211 587.8ZM6.17188 562.279V556.513H4.17188V562.279H6.17188ZM6.17188 556.513C6.17188 546.647 7.90869 537.981 11.3538 530.494L9.53686 529.658C5.95069 537.452 4.17188 546.411 4.17188 556.513H6.17188ZM11.3516 530.499C14.8422 523.012 19.7127 517.333 25.9535 513.415L24.8902 511.721C18.2873 515.866 13.1735 521.858 9.53899 529.653L11.3516 530.499ZM25.9552 513.414C32.2498 509.446 39.4678 507.451 47.6406 507.451V505.451C39.126 505.451 31.5314 507.534 24.8886 511.722L25.9552 513.414ZM47.6406 507.451C55.8158 507.451 63.0106 509.423 69.2574 513.345L70.3207 511.651C63.7238 507.51 56.1529 505.451 47.6406 505.451V507.451ZM69.2646 513.349C75.5509 517.221 80.4179 522.83 83.8592 530.217L85.6721 529.372C82.0821 521.666 76.9647 515.743 70.3135 511.646L69.2646 513.349ZM83.8602 530.219C87.3029 537.564 89.0631 546.157 89.1094 556.026L91.1094 556.017C91.0619 545.916 89.2596 537.026 85.6711 529.37L83.8602 530.219ZM89.1094 556.021V561.717H91.1094V556.021H89.1094ZM73.3203 556.373C73.3203 544.924 71.1476 535.991 66.6657 529.706L65.0374 530.867C69.1805 536.677 71.3203 545.134 71.3203 556.373H73.3203ZM66.6687 529.71C62.202 523.378 55.8161 520.217 47.6406 520.217V522.217C55.2152 522.217 60.9699 525.102 65.0344 530.863L66.6687 529.71ZM47.6406 520.217C39.6436 520.217 33.3133 523.385 28.7591 529.702L30.3815 530.872C34.5461 525.095 40.2626 522.217 47.6406 522.217V520.217ZM28.7583 529.703C24.2793 535.935 22.0557 544.676 21.961 555.802L23.9609 555.819C24.0537 544.914 26.2363 536.639 30.3823 530.87L28.7583 529.703ZM21.9609 555.81V561.717H23.9609V555.81H21.9609ZM21.9609 561.717C21.9609 573.077 24.1591 582.007 28.6846 588.381L30.3154 587.224C26.1221 581.317 23.9609 572.856 23.9609 561.717H21.9609ZM28.6875 588.385C33.2881 594.797 39.6891 598.013 47.7812 598.013V596.013C40.3109 596.013 34.5244 593.089 30.3125 587.219L28.6875 588.385ZM47.7812 598.013C55.9536 598.013 62.3182 594.877 66.7399 588.589L65.1038 587.438C61.088 593.15 55.3589 596.013 47.7812 596.013V598.013ZM66.7369 588.593C71.1736 582.352 73.3203 573.346 73.3203 561.717H71.3203C71.3203 573.149 69.2014 581.675 65.1068 587.434L66.7369 588.593ZM73.3203 561.717V556.373H71.3203V561.717H73.3203ZM82.375 691.201V692.201H83.375V691.201H82.375ZM50.4531 691.201V690.201H49.4531V691.201H50.4531ZM50.4531 779.232V780.232H51.4531V779.232H50.4531ZM32.8047 779.232H31.8047V780.232H32.8047V779.232ZM32.8047 691.201H33.8047V690.201H32.8047V691.201ZM1.16406 691.201H0.164062V692.201H1.16406V691.201ZM1.16406 676.857V675.857H0.164062V676.857H1.16406ZM82.375 676.857H83.375V675.857H82.375V676.857ZM82.375 690.201H50.4531V692.201H82.375V690.201ZM49.4531 691.201V779.232H51.4531V691.201H49.4531ZM50.4531 778.232H32.8047V780.232H50.4531V778.232ZM33.8047 779.232V691.201H31.8047V779.232H33.8047ZM32.8047 690.201H1.16406V692.201H32.8047V690.201ZM2.16406 691.201V676.857H0.164062V691.201H2.16406ZM1.16406 677.857H82.375V675.857H1.16406V677.857ZM81.375 676.857V691.201H83.375V676.857H81.375ZM84.9062 925.154L85.8149 925.572L85.8158 925.57L84.9062 925.154ZM70 942.592L70.5317 943.439L70.5333 943.438L70 942.592ZM25.5625 942.592L25.0292 943.438L25.0364 943.442L25.5625 942.592ZM10.5156 925.224L9.61015 925.649L9.61235 925.653L10.5156 925.224ZM5.17188 899.279H4.17186L4.17189 899.284L5.17188 899.279ZM10.4453 867.076L9.53898 866.653L9.53686 866.658L10.4453 867.076ZM25.4219 849.568L25.9535 850.415L25.9552 850.414L25.4219 849.568ZM69.7891 849.498L69.2574 850.345L69.2646 850.349L69.7891 849.498ZM84.7656 866.795L83.8592 867.217L83.8602 867.219L84.7656 866.795ZM90.1094 893.021H91.1094L91.1094 893.017L90.1094 893.021ZM65.8516 867.287L65.0344 867.863L65.0374 867.867L65.8516 867.287ZM29.5703 867.287L28.7591 866.702L28.7583 866.703L29.5703 867.287ZM22.9609 892.81L21.9609 892.802V892.81H22.9609ZM29.5 924.802L28.6846 925.381L28.6875 925.385L29.5 924.802ZM65.9219 925.013L65.1068 924.434L65.1038 924.438L65.9219 925.013ZM89.1094 898.717C89.1094 908.633 87.3951 917.299 83.9967 924.739L85.8158 925.57C89.3549 917.822 91.1094 908.863 91.1094 898.717H89.1094ZM83.9976 924.736C80.6026 932.123 75.7573 937.78 69.4667 941.746L70.5333 943.438C77.1802 939.247 82.2724 933.279 85.8149 925.572L83.9976 924.736ZM69.4683 941.745C63.2224 945.665 56.0045 947.638 47.7812 947.638V949.638C56.3392 949.638 63.9338 947.58 70.5317 943.439L69.4683 941.745ZM47.7812 947.638C39.6543 947.638 32.4331 945.667 26.0886 941.741L25.0364 943.442C31.7231 947.579 39.3145 949.638 47.7812 949.638V947.638ZM26.0958 941.746C19.8011 937.777 14.9073 932.139 11.4189 924.795L9.61235 925.653C13.2489 933.309 18.3864 939.25 25.0292 943.438L26.0958 941.746ZM11.4211 924.8C7.97727 917.453 6.21817 908.952 6.17186 899.274L4.17189 899.284C4.21933 909.2 6.02273 917.996 9.61017 925.649L11.4211 924.8ZM6.17188 899.279V893.513H4.17188V899.279H6.17188ZM6.17188 893.513C6.17188 883.647 7.90869 874.981 11.3538 867.494L9.53686 866.658C5.95069 874.452 4.17188 883.411 4.17188 893.513H6.17188ZM11.3516 867.499C14.8422 860.012 19.7127 854.333 25.9535 850.415L24.8902 848.721C18.2873 852.866 13.1735 858.858 9.53899 866.653L11.3516 867.499ZM25.9552 850.414C32.2498 846.446 39.4678 844.451 47.6406 844.451V842.451C39.126 842.451 31.5314 844.534 24.8886 848.722L25.9552 850.414ZM47.6406 844.451C55.8158 844.451 63.0106 846.423 69.2574 850.345L70.3207 848.651C63.7238 844.51 56.1529 842.451 47.6406 842.451V844.451ZM69.2646 850.349C75.5509 854.221 80.4179 859.83 83.8592 867.217L85.6721 866.372C82.0821 858.666 76.9647 852.743 70.3135 848.646L69.2646 850.349ZM83.8602 867.219C87.3029 874.564 89.0631 883.157 89.1094 893.026L91.1094 893.017C91.0619 882.916 89.2596 874.026 85.6711 866.37L83.8602 867.219ZM89.1094 893.021V898.717H91.1094V893.021H89.1094ZM73.3203 893.373C73.3203 881.924 71.1476 872.991 66.6657 866.706L65.0374 867.867C69.1805 873.677 71.3203 882.134 71.3203 893.373H73.3203ZM66.6687 866.71C62.202 860.378 55.8161 857.217 47.6406 857.217V859.217C55.2152 859.217 60.9699 862.102 65.0344 867.863L66.6687 866.71ZM47.6406 857.217C39.6436 857.217 33.3133 860.385 28.7591 866.702L30.3815 867.872C34.5461 862.095 40.2626 859.217 47.6406 859.217V857.217ZM28.7583 866.703C24.2793 872.935 22.0557 881.676 21.961 892.802L23.9609 892.819C24.0537 881.914 26.2363 873.639 30.3823 867.87L28.7583 866.703ZM21.9609 892.81V898.717H23.9609V892.81H21.9609ZM21.9609 898.717C21.9609 910.077 24.1591 919.007 28.6846 925.381L30.3154 924.224C26.1221 918.317 23.9609 909.856 23.9609 898.717H21.9609ZM28.6875 925.385C33.2881 931.797 39.6891 935.013 47.7812 935.013V933.013C40.3109 933.013 34.5244 930.089 30.3125 924.219L28.6875 925.385ZM47.7812 935.013C55.9536 935.013 62.3182 931.877 66.7399 925.589L65.1038 924.438C61.088 930.15 55.3589 933.013 47.7812 933.013V935.013ZM66.7369 925.593C71.1736 919.352 73.3203 910.346 73.3203 898.717H71.3203C71.3203 910.149 69.2014 918.675 65.1068 924.434L66.7369 925.593ZM73.3203 898.717V893.373H71.3203V898.717H73.3203Z" fill="white" fill-opacity="0.09"/>
</svg>
