<svg width="21" height="23" viewBox="0 0 21 23" fill="none" xmlns="http://www.w3.org/2000/svg">
<g clip-path="url(#clip0)">
<path d="M18.9645 6.36967H13.7027V4.93819H18.965V6.36967H18.9645ZM10.1998 12.2397C10.5393 12.8156 10.7089 13.5149 10.7089 14.336C10.7089 15.185 10.5177 15.9467 10.1285 16.6195C9.8809 17.0647 9.57351 17.4408 9.20416 17.7435C8.78819 18.0937 8.29571 18.3338 7.72955 18.4621C7.16159 18.5906 6.54686 18.6555 5.88467 18.6555H0V4.34448H6.31041C7.90102 4.37282 9.02869 4.87756 9.69459 5.86879C10.0942 6.47672 10.2921 7.2062 10.2921 8.05412C10.2921 8.92905 10.0918 9.62912 9.68829 10.161C9.46385 10.4592 9.13229 10.7305 8.69337 10.9754C9.3582 11.2419 9.86264 11.6617 10.1998 12.2397ZM3.01347 9.98658H5.77843C6.34663 9.98658 6.80596 9.8683 7.15973 9.63184C7.51326 9.39576 7.68966 8.9761 7.68966 8.37357C7.68966 7.70788 7.45609 7.26604 6.98783 7.05337C6.58533 6.90563 6.07034 6.82954 5.44545 6.82954H3.01347V9.98658ZM7.9559 14.1315C7.9559 13.3882 7.67848 12.8742 7.12478 12.5985C6.81514 12.4417 6.37827 12.3616 5.81812 12.3559H3.01347V16.1697H5.77472C6.34199 16.1697 6.78106 16.0884 7.09792 15.9187C7.66935 15.6068 7.9559 15.0131 7.9559 14.1315ZM20.9168 11.8034C20.9804 12.2716 21.0091 12.9509 20.9975 13.8388H14.1828C14.2204 14.869 14.5451 15.5895 15.161 16.0018C15.5324 16.2603 15.9827 16.3866 16.51 16.3866C17.066 16.3866 17.5191 16.2326 17.868 15.9162C18.0581 15.7484 18.2257 15.5116 18.3707 15.2129H20.8685C20.8031 15.8214 20.5023 16.4385 19.9618 17.0656C19.1245 18.0624 17.9501 18.5622 16.4418 18.5622C15.1958 18.5622 14.0978 18.1407 13.1446 17.3007C12.1947 16.4577 11.7176 15.0906 11.7176 13.1942C11.7176 11.4159 12.1459 10.0547 13.0054 9.10727C13.8681 8.15807 14.9815 7.68564 16.3539 7.68564C17.1673 7.68564 17.9006 7.84488 18.5548 8.16503C19.2069 8.48549 19.7459 8.98985 20.1704 9.68302C20.5545 10.2935 20.8015 10.9993 20.9168 11.8034ZM18.4582 12.0704C18.4124 11.3581 18.1953 10.8189 17.8042 10.4504C17.4164 10.0809 16.932 9.89541 16.3539 9.89541C15.7247 9.89541 15.239 10.0937 14.8938 10.4834C14.5463 10.8723 14.33 11.4011 14.2414 12.0705H18.4582V12.0704Z" fill="white"/>
</g>
<defs>
<clipPath id="clip0">
<rect width="21" height="23" fill="white"/>
</clipPath>
</defs>
</svg>
