<svg width="83" height="83" viewBox="0 0 83 83" fill="none" xmlns="http://www.w3.org/2000/svg">
<g clip-path="url(#clip0)">
<path d="M81.325 52.379H66.01C64.5119 52.3775 63.0346 52.0287 61.694 51.36L60.837 50.931C59.1135 50.0723 57.2146 49.6243 55.289 49.622H38.595C37.9251 49.6181 37.2799 49.3691 36.781 48.922C36.6697 48.8299 36.5654 48.7296 36.469 48.622C36.0692 48.1356 35.8466 47.5276 35.838 46.898C35.8415 46.5539 35.9135 46.214 36.0498 45.8981C36.1862 45.5822 36.3841 45.2966 36.632 45.058C37.2165 44.4623 38.0135 44.1228 38.848 44.114H53.757C54.297 44.1186 54.8325 44.0147 55.3317 43.8086C55.8308 43.6025 56.2835 43.2983 56.663 42.914C57.0968 42.49 57.4307 41.9748 57.6407 41.4058C57.8507 40.8367 57.9314 40.2281 57.877 39.624C57.7938 38.821 57.4788 38.0595 56.9702 37.4325C56.4616 36.8055 55.7816 36.3401 55.013 36.093L59.932 27.579H62.29C63.3005 27.5781 64.2988 27.7999 65.2139 28.2287C66.1289 28.6575 66.9381 29.2828 67.584 30.06L69.514 32.378C70.4185 33.4662 71.5519 34.3414 72.8334 34.9414C74.1149 35.5413 75.513 35.8512 76.928 35.849H81.328C81.6936 35.849 82.0442 35.7038 82.3027 35.4452C82.5613 35.1867 82.7065 34.8361 82.7065 34.4705C82.7065 34.1049 82.5613 33.7543 82.3027 33.4958C82.0442 33.2372 81.6936 33.092 81.328 33.092H76.928C75.9166 33.0916 74.9177 32.8681 74.0027 32.4373C73.0876 32.0066 72.2788 31.3792 71.634 30.6L69.7 28.282C68.7955 27.1938 67.6621 26.3186 66.3806 25.7186C65.0991 25.1187 63.701 24.8088 62.286 24.811H61.521L69.691 10.648C70.0609 10.0206 70.3029 9.32612 70.4029 8.60469C70.5029 7.88325 70.459 7.14915 70.2737 6.44478C70.0884 5.7404 69.7654 5.07972 69.3234 4.50087C68.8813 3.92203 68.329 3.43649 67.6982 3.07231C67.0675 2.70813 66.3708 2.47251 65.6485 2.37907C64.9262 2.28563 64.1925 2.33622 63.4899 2.52791C62.7872 2.71961 62.1295 3.0486 61.5547 3.49591C60.9799 3.94321 60.4994 4.49996 60.141 5.134L49.622 23.364V6.892C49.6199 5.06478 48.8931 3.313 47.601 2.02096C46.309 0.728916 44.5572 0.00211729 42.73 0H6.892C5.06478 0.00211729 3.313 0.728916 2.02096 2.02096C0.728916 3.313 0.00211729 5.06478 0 6.892V75.812C0.00317535 77.6385 0.730442 79.3893 2.02237 80.6805C3.3143 81.9716 5.06547 82.6979 6.892 82.7H42.73C44.5572 82.6979 46.309 81.9711 47.601 80.679C48.8931 79.387 49.6199 77.6352 49.622 75.808V52.379H55.289C56.7856 52.3819 58.2611 52.7314 59.6 53.4L60.457 53.829C62.1805 54.6877 64.0794 55.1357 66.005 55.138H81.325C81.6906 55.138 82.0412 54.9928 82.2997 54.7342C82.5583 54.4757 82.7035 54.1251 82.7035 53.7595C82.7035 53.3939 82.5583 53.0433 82.2997 52.7848C82.0412 52.5262 81.6906 52.381 81.325 52.381V52.379ZM41.352 25.65C39.1001 26.5796 37.2185 28.2273 36 30.337L27.477 45.162C27.2055 45.6329 27.0295 46.1528 26.9591 46.6918C26.8887 47.2308 26.9253 47.7784 27.0668 48.3033C27.2082 48.8282 27.4518 49.32 27.7835 49.7506C28.1152 50.1813 28.5286 50.5423 29 50.813C30.0402 51.4175 31.2218 51.7363 32.425 51.737C32.7087 51.7346 32.9919 51.7143 33.273 51.676V51.687C33.1888 51.8302 33.1322 51.9879 33.106 52.152L31.176 63.773C31.1302 64.0496 31.1699 64.3335 31.2897 64.5869C31.4094 64.8403 31.6037 65.0512 31.8464 65.1914C32.0892 65.3316 32.3689 65.3944 32.6483 65.3714C32.9276 65.3485 33.1934 65.2409 33.41 65.063L41.351 58.527V74.433H8.27V8.27H12.641C12.9271 9.07584 13.4555 9.77343 14.1537 10.267C14.852 10.7607 15.6859 11.0261 16.541 11.027H33.081C33.9361 11.0261 34.77 10.7607 35.4683 10.267C36.1665 9.77343 36.6949 9.07584 36.981 8.27H41.352V25.65ZM42.423 52.378L40.559 55.608L34.494 60.6L35.781 52.853L36.35 51.869C37.0529 52.1975 37.8181 52.3715 38.594 52.379L42.423 52.378ZM34.674 43.112C34.1686 43.6087 33.7675 44.2012 33.4941 44.855C33.2207 45.5087 33.0806 46.2104 33.082 46.919C33.0929 47.5713 33.2188 48.2165 33.454 48.825C32.4155 49.1037 31.3088 48.9599 30.376 48.425C30.0592 48.2432 29.8275 47.9431 29.7319 47.5906C29.6362 47.238 29.6845 46.862 29.866 46.545L38.387 31.716C39.1131 30.4567 40.1576 29.4104 41.4157 28.6822C42.6739 27.954 44.1013 27.5694 45.555 27.567H47.191L39.232 41.352H38.849C37.2787 41.3626 35.7767 41.996 34.673 43.113L34.674 43.112ZM53.6 38.595C53.9641 38.58 54.3212 38.6989 54.6036 38.9292C54.8861 39.1595 55.0744 39.4853 55.133 39.845C55.1517 40.0477 55.1242 40.2521 55.0525 40.4426C54.9808 40.6332 54.8668 40.8049 54.719 40.945C54.5939 41.0739 54.4437 41.1758 54.2778 41.2446C54.1118 41.3134 53.9336 41.3475 53.754 41.345H51.965L53.557 38.588L53.6 38.595ZM48.783 41.352H42.417L58.4 13.682L63.179 16.439L48.783 41.352ZM62.532 6.513C62.7112 6.19598 62.9515 5.91761 63.2389 5.69395C63.5263 5.4703 63.8551 5.3058 64.2064 5.20996C64.5578 5.11411 64.9246 5.08882 65.2858 5.13554C65.6469 5.18226 65.9952 5.30006 66.3106 5.48216C66.626 5.66425 66.9022 5.90701 67.1232 6.19644C67.3442 6.48586 67.5057 6.8162 67.5984 7.16839C67.691 7.52058 67.713 7.88763 67.6629 8.24834C67.6129 8.60906 67.492 8.9563 67.307 9.27L64.55 14.044L59.775 11.287L62.532 6.513ZM46.865 75.813C46.865 76.9097 46.4293 77.9614 45.6539 78.7369C44.8784 79.5123 43.8267 79.948 42.73 79.948H6.892C5.79533 79.948 4.74358 79.5123 3.96811 78.7369C3.19265 77.9614 2.757 76.9097 2.757 75.813V6.892C2.757 5.79533 3.19265 4.74358 3.96811 3.96811C4.74358 3.19265 5.79533 2.757 6.892 2.757H42.73C43.8267 2.757 44.8784 3.19265 45.6539 3.96811C46.4293 4.74358 46.865 5.79533 46.865 6.892V24.811H45.557C45.0723 24.8123 44.5883 24.8458 44.108 24.911V8.27C44.108 7.5388 43.8175 6.83754 43.3005 6.32051C42.7835 5.80347 42.0822 5.513 41.351 5.513H35.838C35.657 5.513 35.4777 5.54868 35.3104 5.61799C35.1432 5.6873 34.9912 5.7889 34.8633 5.91696C34.7353 6.04503 34.6338 6.19705 34.5646 6.36436C34.4954 6.53166 34.4599 6.71095 34.46 6.892C34.46 7.25747 34.3148 7.60797 34.0564 7.86639C33.798 8.12482 33.4475 8.27 33.082 8.27H16.541C16.1755 8.27 15.825 8.12482 15.5666 7.86639C15.3082 7.60797 15.163 7.25747 15.163 6.892C15.163 6.52653 15.0178 6.17603 14.7594 5.91761C14.501 5.65918 14.1505 5.514 13.785 5.514H8.27C7.53914 5.51427 6.8383 5.80471 6.32151 6.32151C5.80471 6.8383 5.51427 7.53914 5.514 8.27V74.433C5.514 75.164 5.80433 75.8651 6.32115 76.3821C6.83797 76.8991 7.53897 77.1897 8.27 77.19H41.352C42.0832 77.19 42.7845 76.8995 43.3015 76.3825C43.8185 75.8655 44.109 75.1642 44.109 74.433V55.133C44.1028 55.0926 44.0945 55.0525 44.084 55.013L45.607 52.376H46.865V75.813Z" fill="white"/>
<path d="M24.927 65.807L23.254 66.922C23.6222 65.7667 23.5409 64.515 23.0264 63.417C22.5119 62.3191 21.6021 61.4556 20.4788 60.9992C19.3554 60.5428 18.1012 60.527 16.9667 60.955C15.8322 61.383 14.901 62.2233 14.359 63.308L11.172 69.682C11.0871 69.8444 11.0354 70.0221 11.0199 70.2047C11.0045 70.3873 11.0256 70.5712 11.082 70.7455C11.1384 70.9199 11.229 71.0812 11.3485 71.2202C11.468 71.3591 11.614 71.4729 11.7779 71.5547C11.9419 71.6366 12.1205 71.685 12.3033 71.697C12.4862 71.7091 12.6696 71.6846 12.8429 71.6249C13.0162 71.5653 13.1758 71.4717 13.3125 71.3496C13.4492 71.2275 13.5602 71.0794 13.639 70.914L16.827 64.54C17.0606 64.076 17.4609 63.7175 17.9478 63.5364C18.4346 63.3553 18.9719 63.365 19.4519 63.5636C19.9319 63.7621 20.3191 64.1348 20.5357 64.6069C20.7524 65.079 20.7825 65.6156 20.62 66.109L19.368 69.862C19.2775 70.1339 19.274 70.4273 19.3581 70.7013C19.4421 70.9753 19.6095 71.2163 19.837 71.3907C20.0644 71.5651 20.3406 71.6643 20.627 71.6744C20.9134 71.6844 21.1959 71.605 21.435 71.447L26.45 68.103C26.6338 67.9808 26.8442 67.9045 27.0636 67.8805C27.283 67.8565 27.5049 67.8856 27.7107 67.9653C27.9165 68.045 28.1002 68.1729 28.2462 68.3384C28.3923 68.5038 28.4965 68.7019 28.55 68.916L28.98 70.635C29.0555 70.9343 29.2293 71.1996 29.4735 71.3884C29.7178 71.5771 30.0183 71.6784 30.327 71.676H37.217C37.5826 71.676 37.9332 71.5308 38.1918 71.2722C38.4503 71.0137 38.5955 70.6631 38.5955 70.2975C38.5955 69.9319 38.4503 69.5813 38.1918 69.3227C37.9332 69.0642 37.5826 68.919 37.217 68.919H31.401L31.233 68.245C31.0724 67.602 30.7596 67.007 30.3209 66.5102C29.8822 66.0134 29.3306 65.6293 28.7124 65.3903C28.0942 65.1513 27.4277 65.0644 26.7689 65.137C26.1101 65.2095 25.4784 65.4393 24.927 65.807Z" fill="white"/>
<path d="M12.405 27.568H23.433C23.7984 27.568 24.1489 27.4228 24.4074 27.1644C24.6658 26.906 24.811 26.5555 24.811 26.19V15.162C24.811 14.7965 24.6658 14.446 24.4074 14.1876C24.1489 13.9292 23.7984 13.784 23.433 13.784H12.405C12.0395 13.784 11.689 13.9292 11.4306 14.1876C11.1722 14.446 11.027 14.7965 11.027 15.162V26.19C11.027 26.5555 11.1722 26.906 11.4306 27.1644C11.689 27.4228 12.0395 27.568 12.405 27.568ZM13.783 16.541H22.053V24.811H13.783V16.541Z" fill="white"/>
<path d="M27.568 15.162C27.568 15.5275 27.7132 15.878 27.9716 16.1364C28.23 16.3948 28.5805 16.54 28.946 16.54H37.216C37.5816 16.54 37.9322 16.3948 38.1907 16.1362C38.4493 15.8777 38.5945 15.5271 38.5945 15.1615C38.5945 14.7959 38.4493 14.4453 38.1907 14.1867C37.9322 13.9282 37.5816 13.783 37.216 13.783H28.946C28.7649 13.783 28.5857 13.8187 28.4184 13.888C28.2512 13.9573 28.0992 14.0589 27.9712 14.187C27.8433 14.315 27.7418 14.467 27.6726 14.6343C27.6034 14.8016 27.5679 14.9809 27.568 15.162Z" fill="white"/>
<path d="M37.217 19.297H28.947C28.5814 19.297 28.2308 19.4422 27.9722 19.7008C27.7137 19.9593 27.5685 20.3099 27.5685 20.6755C27.5685 21.0411 27.7137 21.3917 27.9722 21.6502C28.2308 21.9088 28.5814 22.054 28.947 22.054H37.217C37.5826 22.054 37.9332 21.9088 38.1917 21.6502C38.4502 21.3917 38.5955 21.0411 38.5955 20.6755C38.5955 20.3099 38.4502 19.9593 38.1917 19.7008C37.9332 19.4422 37.5826 19.297 37.217 19.297Z" fill="white"/>
<path d="M34.46 24.811H28.946C28.5804 24.811 28.2298 24.9562 27.9713 25.2148C27.7127 25.4733 27.5675 25.8239 27.5675 26.1895C27.5675 26.5551 27.7127 26.9057 27.9713 27.1643C28.2298 27.4228 28.5804 27.568 28.946 27.568H34.46C34.8256 27.568 35.1762 27.4228 35.4348 27.1643C35.6933 26.9057 35.8385 26.5551 35.8385 26.1895C35.8385 25.8239 35.6933 25.4733 35.4348 25.2148C35.1762 24.9562 34.8256 24.811 34.46 24.811Z" fill="white"/>
<path d="M27.568 33.081H12.405C12.0394 33.081 11.6888 33.2262 11.4302 33.4847C11.1717 33.7433 11.0265 34.0939 11.0265 34.4595C11.0265 34.8251 11.1717 35.1757 11.4302 35.4342C11.6888 35.6928 12.0394 35.838 12.405 35.838H27.568C27.9336 35.838 28.2842 35.6928 28.5427 35.4342C28.8013 35.1757 28.9465 34.8251 28.9465 34.4595C28.9465 34.0939 28.8013 33.7433 28.5427 33.4847C28.2842 33.2262 27.9336 33.081 27.568 33.081Z" fill="white"/>
<path d="M12.405 41.352H23.433C23.7986 41.352 24.1492 41.2068 24.4077 40.9482C24.6663 40.6897 24.8115 40.3391 24.8115 39.9735C24.8115 39.6079 24.6663 39.2573 24.4077 38.9988C24.1492 38.7402 23.7986 38.595 23.433 38.595H12.405C12.0394 38.595 11.6888 38.7402 11.4302 38.9988C11.1717 39.2573 11.0265 39.6079 11.0265 39.9735C11.0265 40.3391 11.1717 40.6897 11.4302 40.9482C11.6888 41.2068 12.0394 41.352 12.405 41.352Z" fill="white"/>
<path d="M12.405 46.866H23.433C23.7986 46.866 24.1492 46.7208 24.4077 46.4623C24.6663 46.2037 24.8115 45.8531 24.8115 45.4875C24.8115 45.1219 24.6663 44.7713 24.4077 44.5128C24.1492 44.2542 23.7986 44.109 23.433 44.109H12.405C12.0394 44.109 11.6888 44.2542 11.4302 44.5128C11.1717 44.7713 11.0265 45.1219 11.0265 45.4875C11.0265 45.8531 11.1717 46.2037 11.4302 46.4623C11.6888 46.7208 12.0394 46.866 12.405 46.866Z" fill="white"/>
<path d="M12.405 52.379H23.433C23.7986 52.379 24.1492 52.2338 24.4077 51.9753C24.6663 51.7167 24.8115 51.3661 24.8115 51.0005C24.8115 50.6349 24.6663 50.2843 24.4077 50.0258C24.1492 49.7672 23.7986 49.622 23.433 49.622H12.405C12.0394 49.622 11.6888 49.7672 11.4302 50.0258C11.1717 50.2843 11.0265 50.6349 11.0265 51.0005C11.0265 51.3661 11.1717 51.7167 11.4302 51.9753C11.6888 52.2338 12.0394 52.379 12.405 52.379Z" fill="white"/>
</g>
<defs>
<clipPath id="clip0">
<rect width="82.704" height="82.703" fill="white"/>
</clipPath>
</defs>
</svg>
