<svg width="17" height="17" viewBox="0 0 17 17" fill="none" xmlns="http://www.w3.org/2000/svg">
<path d="M12.7493 0.00353713L10.5448 0C8.06811 0 6.46758 1.64211 6.46758 4.18372V6.1127H4.25105C4.05952 6.1127 3.90442 6.26798 3.90442 6.45951V9.25438C3.90442 9.44592 4.0597 9.60102 4.25105 9.60102H6.46758V16.6534C6.46758 16.8449 6.62268 17 6.81421 17H9.70615C9.89768 17 10.0528 16.8447 10.0528 16.6534V9.60102H12.6444C12.8359 9.60102 12.991 9.44592 12.991 9.25438L12.9921 6.45951C12.9921 6.36755 12.9555 6.27948 12.8906 6.21439C12.8257 6.14931 12.7373 6.1127 12.6453 6.1127H10.0528V4.47748C10.0528 3.69153 10.2401 3.29254 11.2639 3.29254L12.7489 3.29201C12.9403 3.29201 13.0954 3.13673 13.0954 2.94537V0.350176C13.0954 0.158994 12.9405 0.00389085 12.7493 0.00353713Z" fill="white"/>
</svg>
