<svg width="1368" height="659" viewBox="0 0 1368 659" fill="none" xmlns="http://www.w3.org/2000/svg">
<path d="M-3.00003 6.10352e-05L-3 659L1369 659L1369 9.19018e-06L-3.00003 6.10352e-05Z" fill="url(#paint0_linear)"/>
<path d="M490.05 403.7C495.15 403.7 498.9 403.25 501.3 402.35C503.8 401.35 505.5 399.6 506.4 397.1C507.3 394.5 507.75 390.55 507.75 385.25V291.5H524.55V385.55C524.55 392.85 523.8 398.7 522.3 403.1C520.8 407.4 518.1 410.6 514.2 412.7C510.4 414.8 505.05 415.85 498.15 415.85H490.05V403.7ZM573.267 291.5H589.617L615.567 413H599.517L593.967 382.4H569.217L563.367 413H547.467L573.267 291.5ZM591.717 370.25L581.517 315.5L571.467 370.25H591.717ZM640.345 291.5H656.995L678.445 390.05L700.045 291.5H716.545L718.795 413H705.145L703.795 324.8L683.245 413H673.645L653.245 324.8L651.895 413H638.095L640.345 291.5ZM747.919 291.5H775.819C786.819 291.5 794.969 294 800.269 299C805.569 303.9 808.219 311.55 808.219 321.95C808.219 337.45 802.419 346 790.819 347.6C798.019 349.3 803.269 352.7 806.569 357.8C809.869 362.8 811.519 369.65 811.519 378.35C811.519 389.25 808.919 397.75 803.719 403.85C798.619 409.95 790.819 413 780.319 413H747.919V291.5ZM774.919 342.2C781.919 342.2 786.769 340.7 789.469 337.7C792.169 334.6 793.519 329.35 793.519 321.95C793.519 316.55 792.669 312.6 790.969 310.1C789.369 307.5 786.919 305.85 783.619 305.15C780.319 304.45 775.419 304.1 768.919 304.1H764.869V342.2H774.919ZM776.269 400.85C781.269 400.85 785.119 400.1 787.819 398.6C790.619 397 792.569 394.6 793.669 391.4C794.769 388.2 795.319 383.85 795.319 378.35C795.319 370.55 793.719 364.75 790.519 360.95C787.319 357.05 782.119 355.1 774.919 355.1H764.869V400.85H776.269ZM868.131 414.35C856.231 414.35 847.681 411 842.481 404.3C837.381 397.5 834.831 387.7 834.831 374.9V328.85C834.831 316.25 837.431 306.7 842.631 300.2C847.831 293.7 856.331 290.45 868.131 290.45C879.931 290.45 888.381 293.75 893.481 300.35C898.681 306.85 901.281 316.35 901.281 328.85V375.05C901.281 387.65 898.681 397.35 893.481 404.15C888.281 410.95 879.831 414.35 868.131 414.35ZM868.131 401C874.431 401 878.681 399.15 880.881 395.45C883.081 391.75 884.181 386.15 884.181 378.65V325.4C884.181 318 883.081 312.55 880.881 309.05C878.681 305.45 874.431 303.65 868.131 303.65C861.731 303.65 857.431 305.45 855.231 309.05C853.031 312.55 851.931 318 851.931 325.4V378.65C851.931 386.15 853.031 391.75 855.231 395.45C857.431 399.15 861.731 401 868.131 401Z" fill="white"/>
<path d="M490.05 403.7V402.7H489.05V403.7H490.05ZM501.3 402.35L501.651 403.286L501.661 403.283L501.671 403.278L501.3 402.35ZM506.4 397.1L507.341 397.439L507.345 397.427L506.4 397.1ZM507.75 291.5V290.5H506.75V291.5H507.75ZM524.55 291.5H525.55V290.5H524.55V291.5ZM522.3 403.1L523.244 403.429L523.247 403.423L522.3 403.1ZM514.2 412.7L513.726 411.819L513.716 411.825L514.2 412.7ZM490.05 415.85H489.05V416.85H490.05V415.85ZM490.05 404.7C495.175 404.7 499.075 404.252 501.651 403.286L500.949 401.414C498.725 402.248 495.125 402.7 490.05 402.7V404.7ZM501.671 403.278C504.433 402.174 506.343 400.212 507.341 397.439L505.459 396.761C504.657 398.988 503.167 400.526 500.929 401.422L501.671 403.278ZM507.345 397.427C508.301 394.665 508.75 390.578 508.75 385.25H506.75C506.75 390.522 506.299 394.335 505.455 396.773L507.345 397.427ZM508.75 385.25V291.5H506.75V385.25H508.75ZM507.75 292.5H524.55V290.5H507.75V292.5ZM523.55 291.5V385.55H525.55V291.5H523.55ZM523.55 385.55C523.55 392.795 522.804 398.523 521.353 402.777L523.247 403.423C524.796 398.877 525.55 392.905 525.55 385.55H523.55ZM521.356 402.771C519.936 406.842 517.399 409.842 513.726 411.82L514.674 413.58C518.801 411.358 521.664 407.958 523.244 403.429L521.356 402.771ZM513.716 411.825C510.127 413.808 504.971 414.85 498.15 414.85V416.85C505.129 416.85 510.673 415.792 514.684 413.575L513.716 411.825ZM498.15 414.85H490.05V416.85H498.15V414.85ZM491.05 415.85V403.7H489.05V415.85H491.05ZM573.267 291.5V290.5H572.457L572.289 291.292L573.267 291.5ZM589.617 291.5L590.595 291.291L590.426 290.5H589.617V291.5ZM615.567 413V414H616.803L616.545 412.791L615.567 413ZM599.517 413L598.533 413.178L598.682 414H599.517V413ZM593.967 382.4L594.951 382.222L594.802 381.4H593.967V382.4ZM569.217 382.4V381.4H568.39L568.235 382.212L569.217 382.4ZM563.367 413V414H564.194L564.349 413.188L563.367 413ZM547.467 413L546.489 412.792L546.233 414H547.467V413ZM591.717 370.25V371.25H592.921L592.7 370.067L591.717 370.25ZM581.517 315.5L582.5 315.317L580.534 315.319L581.517 315.5ZM571.467 370.25L570.484 370.069L570.267 371.25H571.467V370.25ZM573.267 292.5H589.617V290.5H573.267V292.5ZM588.639 291.709L614.589 413.209L616.545 412.791L590.595 291.291L588.639 291.709ZM615.567 412H599.517V414H615.567V412ZM600.501 412.822L594.951 382.222L592.983 382.578L598.533 413.178L600.501 412.822ZM593.967 381.4H569.217V383.4H593.967V381.4ZM568.235 382.212L562.385 412.812L564.349 413.188L570.199 382.588L568.235 382.212ZM563.367 412H547.467V414H563.367V412ZM548.445 413.208L574.245 291.708L572.289 291.292L546.489 412.792L548.445 413.208ZM592.7 370.067L582.5 315.317L580.534 315.683L590.734 370.433L592.7 370.067ZM580.534 315.319L570.484 370.069L572.451 370.431L582.501 315.681L580.534 315.319ZM571.467 371.25H591.717V369.25H571.467V371.25ZM640.345 291.5V290.5H639.364L639.345 291.481L640.345 291.5ZM656.995 291.5L657.972 291.287L657.801 290.5H656.995V291.5ZM678.445 390.05L677.468 390.263L679.422 390.264L678.445 390.05ZM700.045 291.5V290.5H699.241L699.069 291.286L700.045 291.5ZM716.545 291.5L717.545 291.481L717.527 290.5H716.545V291.5ZM718.795 413V414H719.814L719.795 412.981L718.795 413ZM705.145 413L704.145 413.015L704.161 414H705.145V413ZM703.795 324.8L704.795 324.785L702.821 324.573L703.795 324.8ZM683.245 413V414H684.039L684.219 413.227L683.245 413ZM673.645 413L672.671 413.225L672.85 414H673.645V413ZM653.245 324.8L654.22 324.575L652.245 324.785L653.245 324.8ZM651.895 413V414H652.88L652.895 413.015L651.895 413ZM638.095 413L637.095 412.981L637.077 414H638.095V413ZM640.345 292.5H656.995V290.5H640.345V292.5ZM656.018 291.713L677.468 390.263L679.422 389.837L657.972 291.287L656.018 291.713ZM679.422 390.264L701.022 291.714L699.069 291.286L677.469 389.836L679.422 390.264ZM700.045 292.5H716.545V290.5H700.045V292.5ZM715.545 291.519L717.795 413.019L719.795 412.981L717.545 291.481L715.545 291.519ZM718.795 412H705.145V414H718.795V412ZM706.145 412.985L704.795 324.785L702.795 324.815L704.145 413.015L706.145 412.985ZM702.821 324.573L682.271 412.773L684.219 413.227L704.769 325.027L702.821 324.573ZM683.245 412H673.645V414H683.245V412ZM674.62 412.775L654.22 324.575L652.271 325.025L672.671 413.225L674.62 412.775ZM652.245 324.785L650.895 412.985L652.895 413.015L654.245 324.815L652.245 324.785ZM651.895 412H638.095V414H651.895V412ZM639.095 413.019L641.345 291.519L639.345 291.481L637.095 412.981L639.095 413.019ZM747.919 291.5V290.5H746.919V291.5H747.919ZM800.269 299L799.582 299.727L799.59 299.734L800.269 299ZM790.819 347.6L790.682 346.609L790.589 348.573L790.819 347.6ZM806.569 357.8L805.729 358.343L805.734 358.351L806.569 357.8ZM803.719 403.85L802.958 403.201L802.952 403.209L803.719 403.85ZM747.919 413H746.919V414H747.919V413ZM789.469 337.7L790.212 338.369L790.217 338.363L790.223 338.357L789.469 337.7ZM790.969 310.1L790.117 310.624L790.129 310.643L790.142 310.662L790.969 310.1ZM783.619 305.15L783.826 304.172L783.619 305.15ZM764.869 304.1V303.1H763.869V304.1H764.869ZM764.869 342.2H763.869V343.2H764.869V342.2ZM787.819 398.6L788.304 399.474L788.315 399.468L787.819 398.6ZM793.669 391.4L794.614 391.725L793.669 391.4ZM790.519 360.95L789.746 361.584L789.754 361.594L790.519 360.95ZM764.869 355.1V354.1H763.869V355.1H764.869ZM764.869 400.85H763.869V401.85H764.869V400.85ZM747.919 292.5H775.819V290.5H747.919V292.5ZM775.819 292.5C786.691 292.5 794.544 294.974 799.583 299.727L800.955 298.273C795.394 293.026 786.947 290.5 775.819 290.5V292.5ZM799.59 299.734C804.609 304.374 807.219 311.704 807.219 321.95H809.219C809.219 311.396 806.529 303.426 800.948 298.266L799.59 299.734ZM807.219 321.95C807.219 329.594 805.786 335.38 803.041 339.426C800.322 343.434 796.243 345.842 790.682 346.609L790.955 348.591C796.995 347.758 801.615 345.091 804.696 340.549C807.752 336.044 809.219 329.806 809.219 321.95H807.219ZM790.589 348.573C797.596 350.228 802.599 353.505 805.729 358.343L807.408 357.257C803.939 351.895 798.442 348.372 791.049 346.627L790.589 348.573ZM805.734 358.351C808.888 363.129 810.519 369.762 810.519 378.35H812.519C812.519 369.538 810.85 362.471 807.403 357.249L805.734 358.351ZM810.519 378.35C810.519 389.098 807.956 397.338 802.958 403.201L804.48 404.499C809.882 398.162 812.519 389.402 812.519 378.35H810.519ZM802.952 403.209C798.098 409.014 790.624 412 780.319 412V414C791.014 414 799.139 410.886 804.486 404.491L802.952 403.209ZM780.319 412H747.919V414H780.319V412ZM748.919 413V291.5H746.919V413H748.919ZM774.919 343.2C782.006 343.2 787.222 341.691 790.212 338.369L788.725 337.031C786.316 339.709 781.832 341.2 774.919 341.2V343.2ZM790.223 338.357C793.167 334.977 794.519 329.418 794.519 321.95H792.519C792.519 329.282 791.171 334.223 788.715 337.043L790.223 338.357ZM794.519 321.95C794.519 316.487 793.667 312.289 791.796 309.538L790.142 310.662C791.671 312.911 792.519 316.613 792.519 321.95H794.519ZM791.82 309.576C790.061 306.717 787.363 304.922 783.826 304.172L783.411 306.128C786.475 306.778 788.676 308.283 790.117 310.624L791.82 309.576ZM783.826 304.172C780.421 303.45 775.437 303.1 768.919 303.1V305.1C775.401 305.1 780.216 305.45 783.411 306.128L783.826 304.172ZM768.919 303.1H764.869V305.1H768.919V303.1ZM763.869 304.1V342.2H765.869V304.1H763.869ZM764.869 343.2H774.919V341.2H764.869V343.2ZM776.269 401.85C781.345 401.85 785.391 401.093 788.304 399.474L787.333 397.726C784.847 399.107 781.193 399.85 776.269 399.85V401.85ZM788.315 399.468C791.337 397.741 793.44 395.142 794.614 391.725L792.723 391.075C791.698 394.058 789.901 396.259 787.323 397.732L788.315 399.468ZM794.614 391.725C795.766 388.376 796.319 383.9 796.319 378.35H794.319C794.319 383.8 793.772 388.024 792.723 391.075L794.614 391.725ZM796.319 378.35C796.319 370.441 794.701 364.364 791.284 360.306L789.754 361.594C792.736 365.136 794.319 370.658 794.319 378.35H796.319ZM791.292 360.316C787.831 356.098 782.285 354.1 774.919 354.1V356.1C781.952 356.1 786.806 358.002 789.746 361.584L791.292 360.316ZM774.919 354.1H764.869V356.1H774.919V354.1ZM763.869 355.1V400.85H765.869V355.1H763.869ZM764.869 401.85H776.269V399.85H764.869V401.85ZM842.481 404.3L841.681 404.9L841.686 404.907L841.691 404.913L842.481 404.3ZM842.631 300.2L841.85 299.575H841.85L842.631 300.2ZM893.481 300.35L892.69 300.961L892.695 300.968L892.7 300.975L893.481 300.35ZM893.481 404.15L892.686 403.543L893.481 404.15ZM880.881 395.45L881.74 395.961L880.881 395.45ZM880.881 309.05L880.028 309.571L880.034 309.582L880.881 309.05ZM855.231 309.05L856.078 309.582L856.084 309.571L855.231 309.05ZM855.231 395.45L856.09 394.939L855.231 395.45ZM868.131 413.35C856.408 413.35 848.213 410.055 843.271 403.687L841.691 404.913C847.149 411.945 856.054 415.35 868.131 415.35V413.35ZM843.281 403.7C838.362 397.141 835.831 387.588 835.831 374.9H833.831C833.831 387.812 836.4 397.859 841.681 404.9L843.281 403.7ZM835.831 374.9V328.85H833.831V374.9H835.831ZM835.831 328.85C835.831 316.366 838.41 307.077 843.412 300.825L841.85 299.575C836.451 306.323 833.831 316.134 833.831 328.85H835.831ZM843.412 300.825C848.352 294.649 856.502 291.45 868.131 291.45V289.45C856.16 289.45 847.31 292.751 841.85 299.575L843.412 300.825ZM868.131 291.45C879.757 291.45 887.849 294.697 892.69 300.961L894.272 299.739C888.913 292.803 880.105 289.45 868.131 289.45V291.45ZM892.7 300.975C897.702 307.228 900.281 316.468 900.281 328.85H902.281C902.281 316.232 899.659 306.472 894.262 299.725L892.7 300.975ZM900.281 328.85V375.05H902.281V328.85H900.281ZM900.281 375.05C900.281 387.53 897.703 396.982 892.686 403.543L894.275 404.757C899.658 397.718 902.281 387.77 902.281 375.05H900.281ZM892.686 403.543C887.739 410.012 879.642 413.35 868.131 413.35V415.35C880.02 415.35 888.822 411.888 894.275 404.757L892.686 403.543ZM868.131 402C874.605 402 879.285 400.091 881.74 395.961L880.021 394.939C878.077 398.209 874.257 400 868.131 400V402ZM881.74 395.961C884.078 392.03 885.181 386.213 885.181 378.65H883.181C883.181 386.087 882.084 391.47 880.021 394.939L881.74 395.961ZM885.181 378.65V325.4H883.181V378.65H885.181ZM885.181 325.4C885.181 317.941 884.079 312.259 881.728 308.518L880.034 309.582C882.082 312.841 883.181 318.059 883.181 325.4H885.181ZM881.734 308.529C879.273 304.502 874.594 302.65 868.131 302.65V304.65C874.268 304.65 878.088 306.398 880.028 309.571L881.734 308.529ZM868.131 302.65C861.575 302.65 856.841 304.497 854.378 308.529L856.084 309.571C858.021 306.403 861.886 304.65 868.131 304.65V302.65ZM854.384 308.518C852.032 312.259 850.931 317.941 850.931 325.4H852.931C852.931 318.059 854.029 312.841 856.077 309.582L854.384 308.518ZM850.931 325.4V378.65H852.931V325.4H850.931ZM850.931 378.65C850.931 386.213 852.034 392.03 854.371 395.961L856.09 394.939C854.028 391.47 852.931 386.087 852.931 378.65H850.931ZM854.371 395.961C856.83 400.096 861.564 402 868.131 402V400C861.897 400 858.032 398.204 856.09 394.939L854.371 395.961Z" fill="white"/>
<defs>
<linearGradient id="paint0_linear" x1="1369.1" y1="329.54" x2="-3.00002" y2="329.541" gradientUnits="userSpaceOnUse">
<stop stop-color="#F68E13"/>
<stop offset="1" stop-color="#FB0DD5"/>
</linearGradient>
</defs>
</svg>
