<svg width="17" height="18" viewBox="0 0 17 18" fill="none" xmlns="http://www.w3.org/2000/svg">
<path d="M17 10.9452V17.6H13.3563V11.3909C13.3563 9.83118 12.8293 8.7667 11.5105 8.7667C10.5037 8.7667 9.90451 9.48408 9.64092 10.178C9.5448 10.4261 9.52006 10.7714 9.52006 11.1187V17.6H5.87518C5.87518 17.6 5.92427 7.08391 5.87518 5.99437H9.5197V7.63942C9.51231 7.65172 9.50271 7.66499 9.49575 7.67691H9.5197V7.63942C10.0039 6.84977 10.8687 5.72172 12.8042 5.72172C15.2023 5.72168 17 7.38045 17 10.9452ZM2.06249 0.399902C0.81558 0.399902 0 1.26589 0 2.40468C0 3.51866 0.791985 4.41093 2.01411 4.41093H2.03846C3.30951 4.41093 4.1 3.51883 4.1 2.40468C4.07604 1.26589 3.30951 0.399902 2.06249 0.399902ZM0.216474 17.6H3.85997V5.99437H0.216474V17.6Z" fill="white"/>
</svg>
