<svg width="77" height="77" viewBox="0 0 77 77" fill="none" xmlns="http://www.w3.org/2000/svg">
<g clip-path="url(#clip0)">
<path d="M76.5 13.229V8.981L74.9 8.448C74.6908 7.68485 74.3886 6.95033 74 6.261L74.754 4.753L71.754 1.753L70.239 2.5C69.549 2.11205 68.8143 1.80981 68.051 1.6L67.519 0H63.271L62.74 1.6C61.9765 1.81214 61.2417 2.11673 60.552 2.507L59.045 1.753L56.285 4.513C51.4341 1.92411 46.0827 0.409882 40.5945 0.0732324C35.1063 -0.263417 29.61 0.585402 24.479 2.562C24.2404 1.8198 23.773 1.17218 23.1437 0.711951C22.5144 0.251719 21.7556 0.00249736 20.976 0L3.70001 0C2.7192 0.00158665 1.77901 0.391917 1.08547 1.08546C0.39193 1.779 0.0016004 2.71919 1.37505e-05 3.7V13.571C0.0016004 14.5518 0.39193 15.492 1.08547 16.1855C1.77901 16.8791 2.7192 17.2694 3.70001 17.271H6.28401C1.8722 23.9764 -0.314365 31.9016 0.0349746 39.9206C0.384314 47.9396 3.25179 55.6447 8.23001 61.941C7.11373 62.2478 6.1063 62.8625 5.32291 63.7149C4.53952 64.5673 4.01177 65.6229 3.80001 66.761C2.62298 67.0399 1.58933 67.7413 0.895323 68.7321C0.201317 69.7228 -0.104726 70.9339 0.0352991 72.1354C0.175324 73.3369 0.751667 74.4451 1.6549 75.2497C2.55814 76.0543 3.72538 76.4992 4.93501 76.5H22.21C22.974 76.4977 23.727 76.3173 24.4092 75.9733C25.0913 75.6293 25.684 75.131 26.14 74.518C31.8591 76.4371 37.9519 76.9722 43.918 76.0793C49.884 75.1865 55.5532 72.8912 60.46 69.382V71.564C60.46 72.873 60.98 74.1283 61.9056 75.0539C62.8312 75.9795 64.0865 76.4995 65.3955 76.4995C66.7045 76.4995 67.9599 75.9795 68.8854 75.0539C69.811 74.1283 70.331 72.873 70.331 71.564V69.082C70.32 68.7197 70.394 68.3598 70.5472 68.0312C70.7004 67.7026 70.9284 67.4145 71.213 67.19C72.4656 66.2732 73.4851 65.0747 74.1892 63.6913C74.8932 62.3079 75.2621 60.7783 75.266 59.226C75.2699 57.1357 74.6041 55.0992 73.366 53.415C75.6474 48.1337 76.7085 42.4059 76.4703 36.6578C76.232 30.9098 74.7006 25.2894 71.99 20.215L74.751 17.454L73.997 15.947C74.3869 15.257 74.6918 14.5223 74.905 13.759L76.5 13.229ZM56.266 7.354C56.1183 7.71283 55.992 8.08015 55.888 8.454L54.288 8.985V9.05C49.7811 6.57663 44.7634 5.1785 39.6269 4.96478C34.4903 4.75107 29.3738 5.72756 24.677 7.818V5.143C29.7577 3.05678 35.2512 2.17095 40.7301 2.55444C46.209 2.93792 51.5255 4.58037 56.266 7.354ZM59.045 20.459L60.552 19.705C61.2417 20.0954 61.9764 20.4 62.74 20.612L63.273 22.212H64.585C67.0608 26.264 68.5658 30.8338 68.9821 35.5641C69.3985 40.2943 68.715 45.0568 66.985 49.479C66.4055 49.3856 65.8188 49.3448 65.232 49.357C62.7141 49.4258 60.3152 50.4438 58.5163 52.2069C56.7174 53.9701 55.6514 56.348 55.532 58.864C55.483 60.3491 55.7709 61.826 56.374 63.184C51.1204 67.0427 44.7684 69.1161 38.25 69.1C32.7653 69.1004 27.3799 67.6367 22.65 64.86C22.202 64.0593 21.5812 63.3684 20.8327 62.8377C20.0842 62.307 19.2269 61.9498 18.323 61.792C12.7549 57.0829 9.03635 50.5525 7.82799 43.3609C6.61963 36.1693 7.99969 28.7822 11.723 22.512L12.336 23.738L15.566 17.278H20.973C21.9538 17.2764 22.894 16.8861 23.5876 16.1925C24.2811 15.499 24.6714 14.5588 24.673 13.578V10.557C29.3246 8.27119 34.4782 7.19709 39.6557 7.43431C44.8332 7.67154 49.8669 9.2124 54.29 11.914V13.227L55.89 13.76C56.102 14.5238 56.4069 15.2586 56.798 15.948L56.044 17.455L59.045 20.459ZM2.46801 13.573V3.7C2.46881 3.3735 2.59886 3.06059 2.82973 2.82972C3.06061 2.59885 3.37351 2.46879 3.70001 2.468H20.976C21.3029 2.46826 21.6163 2.59808 21.8476 2.82901C22.0789 3.05995 22.2092 3.37315 22.21 3.7V13.571C22.2097 13.8982 22.0797 14.2119 21.8483 14.4433C21.6169 14.6746 21.3032 14.8047 20.976 14.805H14.044L12.339 18.216L10.634 14.805H3.70001C3.37351 14.8042 3.06061 14.6742 2.82973 14.4433C2.59886 14.2124 2.46881 13.8995 2.46801 13.573ZM9.18001 17.419L10.44 19.937C6.16876 26.4051 4.29141 34.1623 5.13243 41.8677C5.97345 49.5731 9.47999 56.7426 15.046 62.137C14.52 62.3391 14.0243 62.6126 13.573 62.95C12.9295 62.4679 12.1977 62.1166 11.419 61.916C6.05984 55.8492 2.91979 48.1423 2.51319 40.0576C2.1066 31.973 4.45757 23.9899 9.18101 17.416L9.18001 17.419ZM22.21 74.032H4.93501C4.28919 74.019 3.67421 73.7533 3.22207 73.292C2.76994 72.8307 2.51669 72.2104 2.51669 71.5645C2.51669 70.9185 2.76994 70.2983 3.22207 69.837C3.67421 69.3757 4.28919 69.11 4.93501 69.097H6.16901V67.863C6.1706 66.8822 6.56093 65.942 7.25447 65.2485C7.94801 64.5549 8.8882 64.1646 9.86901 64.163C10.3964 64.1633 10.9174 64.278 11.3961 64.4992C11.8748 64.7204 12.2999 65.0427 12.642 65.444L13.571 66.506L14.5 65.444C14.8421 65.0427 15.2672 64.7204 15.7459 64.4992C16.2247 64.278 16.7457 64.1633 17.273 64.163C18.2538 64.1646 19.194 64.5549 19.8876 65.2485C20.5811 65.942 20.9714 66.8822 20.973 67.863V69.1H22.21C22.5382 69.0934 22.8645 69.1523 23.1696 69.2734C23.4748 69.3944 23.7527 69.5751 23.9872 69.8049C24.2216 70.0347 24.4079 70.3089 24.535 70.6116C24.6622 70.9142 24.7277 71.2392 24.7277 71.5675C24.7277 71.8958 24.6622 72.2208 24.535 72.5234C24.4079 72.8261 24.2216 73.1003 23.9872 73.3301C23.7527 73.5599 23.4748 73.7406 23.1696 73.8616C22.8645 73.9827 22.5382 74.0416 22.21 74.035V74.032ZM27.079 72.232C27.2475 71.2931 27.1009 70.3249 26.662 69.478C30.3705 70.8565 34.2946 71.5642 38.251 71.568C45.2138 71.5837 52.0025 69.3933 57.643 65.311C58.1585 65.9687 58.7556 66.5581 59.42 67.065C54.8367 70.4529 49.5068 72.6905 43.8786 73.5895C38.2504 74.4885 32.4886 74.0226 27.078 72.231L27.079 72.232ZM65.396 74.032C64.7416 74.0315 64.1142 73.7713 63.6515 73.3086C63.1887 72.8458 62.9285 72.2184 62.928 71.564H67.863C67.8625 72.2175 67.603 72.8442 67.1413 73.3068C66.6797 73.7694 66.0535 74.0301 65.4 74.032H65.396ZM69.758 65.2C69.1588 65.6532 68.6747 66.241 68.3446 66.9159C68.0145 67.5907 67.8479 68.3338 67.858 69.085V69.1H66.629V62.927H64.161V69.1H62.927V69.081C62.9329 68.3246 62.7617 67.5773 62.4271 66.8989C62.0925 66.2205 61.6038 65.6298 61 65.174C60.0316 64.4591 59.2523 63.5187 58.7295 62.4345C58.2067 61.3503 57.9563 60.1549 58 58.952C58.0891 57.0656 58.8882 55.2826 60.2369 53.9606C61.5856 52.6386 63.3842 51.8754 65.272 51.824H65.4C66.9606 51.8253 68.4809 52.32 69.7435 53.2374C71.006 54.1547 71.9462 55.4478 72.4297 56.9316C72.9131 58.4155 72.9151 60.0142 72.4352 61.4992C71.9554 62.9843 71.0183 64.2796 69.758 65.2ZM71.5 51.472C70.843 50.9506 70.1218 50.5157 69.354 50.178C71.0876 45.658 71.8157 40.8145 71.4876 35.9845C71.1595 31.1545 69.783 26.454 67.454 22.21H67.522L68.053 20.61C68.427 20.5063 68.7943 20.3801 69.153 20.232C71.892 24.9187 73.5269 30.1679 73.9336 35.581C74.3403 40.9941 73.508 46.4287 71.5 51.472ZM74.03 11.449L72.791 11.861L72.65 12.561C72.4626 13.5038 72.0915 14.4005 71.558 15.2L71.158 15.8L71.743 16.969L71.256 17.458L70.088 16.872L69.488 17.272C68.6887 17.8064 67.792 18.1782 66.849 18.366L66.149 18.506L65.736 19.747H65.048L64.635 18.507L63.935 18.367C62.993 18.1775 62.0976 17.804 61.3 17.268L60.7 16.868L59.532 17.454L59.045 16.965L59.63 15.796L59.23 15.196C58.6951 14.397 58.3233 13.5001 58.136 12.557L57.995 11.857L56.756 11.444V10.756L58 10.349L58.141 9.649C58.3286 8.70595 58.7004 7.80917 59.235 7.01L59.635 6.41L59.05 5.239L59.537 4.752L60.7 5.34L61.3 4.94C62.0993 4.40555 62.996 4.03381 63.939 3.846L64.639 3.706L65.052 2.465H65.74L66.153 3.705L66.853 3.845C67.7961 4.03251 68.6929 4.40427 69.492 4.939L70.092 5.339L71.26 4.753L71.747 5.24L71.162 6.411L71.562 7.011C72.0974 7.80979 72.4692 8.70672 72.656 9.65L72.797 10.35L74.036 10.763L74.03 11.449Z" fill="white"/>
<path d="M65.3951 6.169C64.419 6.1692 63.465 6.4588 62.6536 7.00118C61.8422 7.54357 61.2098 8.31438 60.8364 9.21615C60.4631 10.1179 60.3655 11.1102 60.556 12.0674C60.7465 13.0246 61.2166 13.9039 61.9068 14.5939C62.597 15.284 63.4764 15.7539 64.4337 15.9442C65.3909 16.1346 66.3831 16.0368 67.2848 15.6632C68.1865 15.2897 68.9572 14.6572 69.4994 13.8456C70.0416 13.0341 70.3311 12.08 70.3311 11.104C70.3297 9.79539 69.8092 8.54077 68.8838 7.61554C67.9584 6.6903 66.7037 6.17006 65.3951 6.169ZM65.3951 13.569C64.9069 13.569 64.4298 13.4243 64.0239 13.1531C63.618 12.8819 63.3017 12.4964 63.1149 12.0455C62.9281 11.5945 62.8793 11.0983 62.9745 10.6195C63.0697 10.1408 63.3048 9.70101 63.6499 9.35586C63.9951 9.0107 64.4348 8.77565 64.9136 8.68042C65.3923 8.58519 65.8885 8.63407 66.3395 8.82087C66.7905 9.00766 67.1759 9.32399 67.4471 9.72985C67.7183 10.1357 67.8631 10.6129 67.8631 11.101C67.8625 11.7554 67.6024 12.3828 67.1396 12.8456C66.6769 13.3083 66.0494 13.5685 65.3951 13.569Z" fill="white"/>
<path d="M64.161 57.992H66.629V60.46H64.161V57.992Z" fill="white"/>
<path d="M4.93506 4.935H19.7411V7.403H4.93506V4.935Z" fill="white"/>
<path d="M17.274 9.871H19.7421V12.339H17.274V9.871Z" fill="white"/>
<path d="M4.93506 9.871H14.8061V12.339H4.93506V9.871Z" fill="white"/>
<path d="M49.355 16.04H27.144C26.1632 16.0416 25.223 16.4319 24.5294 17.1255C23.8359 17.819 23.4456 18.7592 23.444 19.74V59.224C23.4456 60.2048 23.8359 61.145 24.5294 61.8385C25.223 62.5321 26.1632 62.9224 27.144 62.924H49.354C50.3348 62.9224 51.275 62.5321 51.9685 61.8385C52.662 61.145 53.0524 60.2048 53.054 59.224V19.74C53.0524 18.7594 52.6622 17.8193 51.9689 17.1258C51.2755 16.4323 50.3356 16.0419 49.355 16.04ZM27.145 18.508H49.355C49.6822 18.5083 49.9959 18.6384 50.2272 18.8697C50.4586 19.1011 50.5887 19.4148 50.589 19.742V23.442H25.912V19.742C25.9122 19.4152 26.042 19.1017 26.273 18.8704C26.5039 18.6391 26.8171 18.5088 27.144 18.508H27.145ZM50.589 25.908V50.585H25.912V25.911L50.589 25.908ZM49.355 60.456H27.144C26.8168 60.4557 26.5031 60.3256 26.2717 60.0943C26.0403 59.8629 25.9102 59.5492 25.91 59.222V53.053H50.587V59.222C50.5875 59.5494 50.458 59.8636 50.227 60.0955C49.996 60.3275 49.6823 60.4582 49.355 60.459V60.456Z" fill="white"/>
<path d="M33.3149 55.524H43.1859V57.992H33.3149V55.524Z" fill="white"/>
<path d="M44.1769 38.255L33.3149 31.01V45.491L44.1769 38.255ZM35.7829 35.625L39.7269 38.255L35.7829 40.885V35.625Z" fill="white"/>
</g>
<defs>
<clipPath id="clip0">
<rect width="76.5" height="76.5" fill="white"/>
</clipPath>
</defs>
</svg>
