<svg width="77" height="77" viewBox="0 0 77 77" fill="none" xmlns="http://www.w3.org/2000/svg">
<g clip-path="url(#clip0)">
<path d="M58.854 54.06L55.993 55.717C55.2485 55.133 54.4263 54.6554 53.55 54.298V50.998H45.9V54.298C45.0241 54.6541 44.2019 55.1304 43.4571 55.713L43.35 55.65V48.45C43.35 44.95 36.082 43.35 29.325 43.35C22.568 43.35 15.3 44.95 15.3 48.45V71.4C15.3 74.9 22.567 76.5 29.325 76.5C35.757 76.5 42.642 75.049 43.286 71.884L43.4571 71.784C44.2017 72.3677 45.0239 72.8449 45.9 73.202V76.502H53.55V73.202C54.426 72.8459 55.2482 72.3696 55.993 71.787L58.854 73.445L62.6791 66.815L59.822 65.165C59.9597 64.229 59.9597 63.278 59.822 62.342L62.6791 60.691L58.854 54.06ZM40.5961 54.06L38.708 57.33C35.672 58.2731 32.5034 58.7189 29.325 58.65C21.865 58.65 18.041 56.789 17.85 56.1V51.55C17.868 51.559 17.89 51.565 17.907 51.574C18.2137 51.7253 18.5424 51.8677 18.893 52.001C18.986 52.037 19.093 52.069 19.185 52.101C19.455 52.201 19.733 52.291 20.023 52.378C20.161 52.419 20.3 52.457 20.441 52.495C20.717 52.5717 21.0004 52.6433 21.291 52.71C21.43 52.743 21.568 52.776 21.709 52.81C22.073 52.888 22.4444 52.9593 22.823 53.024L23.037 53.064C23.491 53.138 23.9544 53.2047 24.427 53.264L24.835 53.307C25.181 53.345 25.527 53.38 25.879 53.407C26.043 53.421 26.208 53.434 26.374 53.445C26.717 53.468 27.061 53.488 27.407 53.504L27.86 53.524C28.35 53.541 28.838 53.551 29.325 53.551C29.812 53.551 30.3 53.541 30.79 53.524L31.243 53.504C31.5891 53.489 31.933 53.468 32.276 53.445C32.442 53.434 32.606 53.421 32.771 53.407C33.123 53.379 33.471 53.345 33.815 53.307L34.223 53.264C34.695 53.206 35.1584 53.1393 35.613 53.064L35.827 53.024C36.207 52.9573 36.5784 52.886 36.941 52.81C37.083 52.781 37.22 52.748 37.359 52.71C37.6497 52.6433 37.9331 52.5717 38.209 52.495C38.351 52.457 38.489 52.418 38.627 52.378C38.916 52.291 39.194 52.198 39.465 52.101C39.5651 52.065 39.6651 52.033 39.757 52.001C40.1064 51.8677 40.435 51.7253 40.743 51.574C40.761 51.565 40.783 51.559 40.8 51.55V54.18L40.5961 54.06ZM29.325 45.9C29.789 45.9 30.239 45.908 30.676 45.92C30.83 45.92 30.976 45.935 31.125 45.942C31.399 45.953 31.6761 45.964 31.938 45.98C32.153 45.994 32.355 46.013 32.563 46.03C32.748 46.045 32.945 46.058 33.118 46.075C33.373 46.099 33.605 46.129 33.843 46.157C33.964 46.172 34.098 46.184 34.209 46.199C34.523 46.24 34.82 46.286 35.109 46.326L35.209 46.34C38.748 46.928 40.6091 47.94 40.7901 48.44C40.7808 48.4622 40.7698 48.4836 40.757 48.504C40.7433 48.5316 40.7272 48.5581 40.709 48.583C40.6901 48.606 40.6621 48.63 40.639 48.654C40.6076 48.6892 40.5742 48.7226 40.539 48.754C40.498 48.788 40.474 48.802 40.439 48.827C40.404 48.852 40.339 48.901 40.282 48.94C40.245 48.964 40.198 48.99 40.154 49.015C40.086 49.056 40.027 49.097 39.942 49.142C39.895 49.168 39.842 49.193 39.788 49.219C39.701 49.264 39.6171 49.307 39.5191 49.346L39.3391 49.422C39.233 49.467 39.1301 49.513 39.0131 49.558C38.948 49.584 38.8731 49.609 38.8041 49.634C38.677 49.68 38.5581 49.726 38.4221 49.77C38.3431 49.797 38.254 49.822 38.167 49.849C38.028 49.892 37.893 49.937 37.744 49.976C37.644 50.004 37.5441 50.03 37.444 50.056C37.2941 50.097 37.1441 50.138 36.9851 50.177C36.872 50.205 36.747 50.231 36.628 50.257C36.469 50.294 36.313 50.331 36.1451 50.365C36.0091 50.393 35.861 50.417 35.718 50.444C35.552 50.475 35.39 50.508 35.218 50.536C35.046 50.564 34.884 50.586 34.718 50.611C34.552 50.636 34.386 50.663 34.208 50.686C34.0301 50.709 33.826 50.731 33.629 50.752C33.456 50.771 33.289 50.793 33.11 50.811C32.893 50.831 32.662 50.847 32.437 50.865C32.267 50.878 32.105 50.894 31.927 50.906C31.643 50.924 31.344 50.935 31.046 50.947C30.918 50.947 30.791 50.961 30.664 50.966C30.227 50.979 29.771 50.986 29.313 50.986C28.381 50.986 27.505 50.957 26.687 50.904C20.975 50.539 18.028 49.049 17.842 48.442C18.083 47.742 21.9 45.9 29.325 45.9ZM17.85 59.194C20.562 60.562 25.044 61.2 29.325 61.2C31.8649 61.217 34.3999 60.9761 36.891 60.481L36.771 60.689L39.628 62.339C39.561 62.8063 39.5276 63.2779 39.528 63.75C39.528 64.037 39.565 64.331 39.592 64.623C36.3172 65.8662 32.8253 66.4366 29.325 66.3C21.865 66.3 18.041 64.438 17.85 63.75V59.194ZM17.85 71.4V66.85C20.564 68.21 25.05 68.85 29.325 68.85C32.0583 68.8721 34.7853 68.5849 37.454 67.994L39.848 72.144C38.278 72.955 34.7771 73.949 29.324 73.949C21.865 73.95 18.041 72.089 17.85 71.4ZM57.16 61.979C57.4473 63.1422 57.4473 64.3578 57.16 65.521L56.942 66.444L59.2001 67.75L57.921 69.95L55.666 68.65L54.975 69.3C54.1074 70.1224 53.0595 70.7306 51.9151 71.076L51 71.35V73.95H48.4501V71.35L47.538 71.08C46.3936 70.7346 45.3457 70.1264 44.4781 69.304L43.787 68.654L41.532 69.954L40.257 67.75L42.511 66.45L42.293 65.527C42.0058 64.3638 42.0058 63.1482 42.293 61.985L42.511 61.062L40.257 59.762L41.532 57.55L43.787 58.85L44.4781 58.2C45.3457 57.3776 46.3936 56.7694 47.538 56.424L48.4501 56.154V53.55H51V56.15L51.912 56.42C53.0565 56.7654 54.1044 57.3736 54.972 58.196L55.663 58.846L57.918 57.546L59.1931 59.75L56.941 61.05L57.16 61.979Z" fill="white"/>
<path d="M49.725 58.65C48.7163 58.65 47.7303 58.9491 46.8916 59.5095C46.0529 60.0699 45.3992 60.8664 45.0132 61.7983C44.6272 62.7302 44.5262 63.7557 44.723 64.745C44.9198 65.7343 45.4055 66.643 46.1188 67.3562C46.832 68.0695 47.7407 68.5552 48.73 68.752C49.7193 68.9488 50.7448 68.8478 51.6767 68.4618C52.6086 68.0758 53.4051 67.4221 53.9655 66.5834C54.5259 65.7447 54.825 64.7587 54.825 63.75C54.825 62.3974 54.2877 61.1002 53.3312 60.1437C52.3748 59.1873 51.0776 58.65 49.725 58.65ZM49.725 66.3C49.2207 66.3 48.7276 66.1504 48.3083 65.8702C47.889 65.59 47.5621 65.1918 47.3691 64.7258C47.1761 64.2599 47.1256 63.7472 47.224 63.2525C47.3224 62.7579 47.5653 62.3035 47.9219 61.9469C48.2785 61.5902 48.7329 61.3474 49.2275 61.249C49.7222 61.1506 50.2349 61.2011 50.7008 61.3941C51.1668 61.5871 51.5651 61.9139 51.8453 62.3333C52.1254 62.7526 52.275 63.2456 52.275 63.75C52.275 64.4263 52.0063 65.0749 51.5281 65.5531C51.0499 66.0313 50.4013 66.3 49.725 66.3Z" fill="white"/>
<path d="M45.9 0H30.6V25.5H45.9V0ZM43.35 2.55V17.85H33.15V2.55H43.35ZM38.25 22.95H33.15V20.4H43.35V22.95H38.25Z" fill="white"/>
<path d="M39.525 21.675C39.5201 21.3375 39.388 21.0142 39.155 20.77C39.004 20.6229 38.8195 20.5147 38.6174 20.4548C38.4154 20.3949 38.2017 20.385 37.995 20.426C37.9153 20.4398 37.8381 20.4654 37.766 20.502C37.6843 20.5302 37.6067 20.5688 37.535 20.617C37.4688 20.6644 37.4054 20.7155 37.345 20.77C37.1114 21.0139 36.9791 21.3373 36.975 21.675C36.975 22.0131 37.1093 22.3374 37.3484 22.5766C37.5875 22.8157 37.9118 22.95 38.25 22.95C38.5881 22.95 38.9124 22.8157 39.1515 22.5766C39.3906 22.3374 39.525 22.0131 39.525 21.675Z" fill="white"/>
<path d="M14.025 28.05H11.475V35.7H36.975V40.8H39.525V35.7H65.025V28.05H62.475V33.15H39.525V28.05H36.975V33.15H14.025V28.05Z" fill="white"/>
<path d="M7.65 22.95H5.1V25.5H20.4V22.95H17.85V20.4H25.5V0H0V20.4H7.65V22.95ZM15.3 22.95H10.2V20.4H15.3V22.95ZM2.55 2.55H22.95V12.75H2.55V2.55ZM2.55 17.85V15.3H22.95V17.85H2.55Z" fill="white"/>
<path d="M51 25.5H76.5V0H51V25.5ZM73.95 22.95H53.55V10.2H73.95V22.95ZM53.55 2.55H73.95V7.65H53.55V2.55Z" fill="white"/>
<path d="M56.8019 4.042C56.7368 3.99088 56.6634 3.95131 56.5849 3.925C56.5084 3.88636 56.4259 3.86068 56.3409 3.849C56.1361 3.80787 55.9242 3.81773 55.724 3.87771C55.5238 3.9377 55.3415 4.04597 55.1929 4.193C55.0776 4.31496 54.9866 4.45786 54.9249 4.614C54.8255 4.84593 54.7979 5.10234 54.8457 5.35012C54.8935 5.59789 55.0144 5.82566 55.1929 6.004C55.317 6.11663 55.4594 6.20726 55.6139 6.272C55.7666 6.33936 55.9316 6.37416 56.0984 6.37416C56.2653 6.37416 56.4303 6.33936 56.5829 6.272C56.7373 6.20695 56.8797 6.11635 57.0039 6.004C57.1227 5.88526 57.2166 5.74411 57.2803 5.58874C57.344 5.43338 57.3762 5.26691 57.3749 5.099C57.3701 4.76148 57.2379 4.43825 57.0049 4.194C56.9425 4.13671 56.8745 4.0858 56.8019 4.042Z" fill="white"/>
<path d="M60.83 4.194C60.5834 3.96665 60.2604 3.84042 59.925 3.84042C59.5896 3.84042 59.2665 3.96665 59.02 4.194C58.9046 4.31595 58.8137 4.45885 58.752 4.615C58.6873 4.76857 58.6533 4.93335 58.652 5.1C58.6469 5.26726 58.6811 5.4334 58.752 5.585C58.817 5.7394 58.9076 5.88173 59.02 6.006C59.1983 6.18451 59.4261 6.30547 59.6739 6.35324C59.9217 6.40101 60.1781 6.37341 60.41 6.274C60.5644 6.20897 60.7067 6.11836 60.831 6.006C60.9434 5.88173 61.034 5.7394 61.099 5.585C61.1664 5.43235 61.2011 5.26734 61.2011 5.1005C61.2011 4.93365 61.1664 4.76864 61.099 4.616C61.0343 4.46144 60.9436 4.31906 60.831 4.195L60.83 4.194Z" fill="white"/>
<path d="M64.655 4.195C64.5308 4.08265 64.3884 3.99205 64.234 3.927C64.0016 3.82426 63.7427 3.79731 63.494 3.85C63.4143 3.86377 63.3372 3.88939 63.265 3.926C63.1834 3.9542 63.1057 3.99285 63.034 4.041C62.9679 4.08839 62.9044 4.13947 62.844 4.194C62.7259 4.31381 62.6346 4.4573 62.576 4.615C62.5087 4.76764 62.4739 4.93265 62.4739 5.0995C62.4739 5.26635 62.5087 5.43136 62.576 5.584C62.6411 5.73839 62.7317 5.88072 62.844 6.005C62.9681 6.11763 63.1105 6.20826 63.265 6.273C63.4186 6.33771 63.5834 6.37168 63.75 6.373C64.088 6.37036 64.412 6.23789 64.655 6.003C64.7674 5.87873 64.858 5.7364 64.923 5.582C64.9904 5.42936 65.0252 5.26435 65.0252 5.0975C65.0252 4.93066 64.9904 4.76564 64.923 4.613C64.8645 4.4553 64.7731 4.31181 64.655 4.192V4.195Z" fill="white"/>
</g>
<defs>
<clipPath id="clip0">
<rect width="76.5" height="76.5" fill="white"/>
</clipPath>
</defs>
</svg>
