<svg width="33" height="35" viewBox="0 0 33 35" fill="none" xmlns="http://www.w3.org/2000/svg">
<path d="M3.5625 6.375H0.339844V3.98438H9.80859V6.375H6.59766V24H3.5625V6.375ZM13.5394 3.98438H16.5745C16.9573 3.98438 17.3753 4.00391 17.8284 4.04297C18.2894 4.07422 18.7464 4.15625 19.1995 4.28906C19.6605 4.41406 20.1019 4.60937 20.5238 4.875C20.9534 5.14063 21.3323 5.50391 21.6605 5.96484C21.9886 6.41797 22.2503 6.98828 22.4456 7.67578C22.6488 8.36328 22.7503 9.19922 22.7503 10.1836V10.8867C22.7503 11.957 22.6566 12.875 22.4691 13.6406C22.2894 14.3984 22.0472 15.0391 21.7425 15.5625C21.4378 16.0781 21.0823 16.4922 20.6761 16.8047C20.2777 17.1172 19.8597 17.3555 19.4222 17.5195C18.9925 17.6758 18.555 17.7812 18.1097 17.8359C17.6722 17.8828 17.2581 17.9062 16.8675 17.9062H16.5745V24H13.5394V3.98438ZM16.7269 15.6797C17.2738 15.6797 17.7347 15.6016 18.1097 15.4453C18.4847 15.2812 18.7816 15.0312 19.0003 14.6953C19.2269 14.3516 19.387 13.9141 19.4808 13.3828C19.5823 12.8438 19.6331 12.1992 19.6331 11.4492V9.64453C19.6331 9.05078 19.5902 8.53906 19.5042 8.10938C19.4183 7.67188 19.262 7.3125 19.0355 7.03125C18.8167 6.75 18.5198 6.54297 18.1448 6.41016C17.7698 6.26953 17.2972 6.19922 16.7269 6.19922H16.5745V15.6797H16.7269Z" fill="black"/>
<path d="M31.2891 28.0156L28.2539 28.0156L28.2539 8L31.2891 8L31.2891 28.0156Z" fill="black"/>
<rect x="28" y="32" width="4" height="3" fill="black"/>
</svg>
