<svg width="139" height="34" viewBox="0 0 139 34" fill="none" xmlns="http://www.w3.org/2000/svg">
<g clip-path="url(#clip0)">
<path d="M3.91406 5.48438H7.40625L11.1094 25.5H8.03906L7.48828 21.9141H3.83203L3.30469 25.5H0.222656L3.91406 5.48438ZM7.13672 19.6289L5.73047 9.65625H5.60156L4.18359 19.6289H7.13672ZM14.7347 5.48438H17.7698V23.1094H21.9066V25.5H14.7347V5.48438ZM27.36 7.875H24.1373V5.48438H33.6061V7.875H30.3952V25.5H27.36V7.875ZM37.3369 5.48438H44.7548V7.875H40.372V13.8633H43.7588V16.2539H40.372V23.1094H44.872V25.5H37.3369V5.48438ZM48.7434 5.48438H52.0364C52.4114 5.48438 52.8216 5.5 53.2669 5.53125C53.72 5.5625 54.1692 5.64062 54.6145 5.76562C55.0677 5.88281 55.5013 6.0625 55.9153 6.30469C56.3372 6.54688 56.7083 6.87891 57.0286 7.30078C57.3567 7.72266 57.6184 8.25391 57.8138 8.89453C58.0091 9.52734 58.1067 10.2969 58.1067 11.2031V11.707C58.1067 13.2305 57.888 14.4727 57.4505 15.4336C57.013 16.3867 56.3684 17.0742 55.5169 17.4961L58.7278 25.5H55.5169L52.8567 18.0117H51.72V25.5H48.7434V5.48438ZM52.177 15.8203C52.7083 15.8203 53.1575 15.7617 53.5247 15.6445C53.8919 15.5273 54.1888 15.332 54.4153 15.0586C54.6419 14.7773 54.8059 14.4102 54.9075 13.957C55.0091 13.4961 55.0598 12.9297 55.0598 12.2578V10.6758C55.0598 10.1602 55.013 9.71484 54.9192 9.33984C54.8255 8.96484 54.6653 8.65625 54.4388 8.41406C54.22 8.17188 53.927 7.99219 53.5598 7.875C53.1927 7.75781 52.7317 7.69922 52.177 7.69922H51.72V15.8203H52.177ZM62.7047 5.48438H65.1656L70.0172 18.8789H70.0875C70.0641 18.5664 70.0328 18.2188 69.9938 17.8359C69.9547 17.4531 69.9195 17.0195 69.8883 16.5352C69.857 16.043 69.8297 15.4883 69.8063 14.8711C69.7828 14.2539 69.7711 13.5586 69.7711 12.7852V5.48438H72.4898V25.5H70.0055L65.1773 12.457H65.0836C65.107 12.8086 65.1383 13.1914 65.1773 13.6055C65.2164 14.0117 65.2516 14.4922 65.2828 15.0469C65.3141 15.6016 65.3414 16.25 65.3648 16.9922C65.3883 17.7266 65.4 18.6016 65.4 19.6172V25.5H62.7047V5.48438ZM79.8066 5.48438H83.2988L87.0019 25.5H83.9316L83.3808 21.9141H79.7245L79.1972 25.5H76.1152L79.8066 5.48438ZM83.0292 19.6289L81.623 9.65625H81.4941L80.0761 19.6289H83.0292ZM92.4788 7.875H89.2561V5.48438H98.7248V7.875H95.5139V25.5H92.4788V7.875Z" fill="white"/>
<path d="M108.289 27.0156L105.254 27.0156L105.254 7L108.289 7L108.289 27.0156Z" fill="white"/>
<rect x="105" y="31" width="4" height="3" fill="white"/>
</g>
<path d="M114.223 5.98438H117.328L119.531 21.8398H119.66L121.875 5.98438H124.969L121.324 26H117.855L114.223 5.98438ZM128.594 5.98438H136.012V8.375H131.629V14.3633H135.016V16.7539H131.629V23.6094H136.129V26H128.594V5.98438Z" fill="white"/>
<defs>
<clipPath id="clip0">
<rect width="110" height="34" fill="white"/>
</clipPath>
</defs>
</svg>
