<svg width="328" height="292" viewBox="0 0 328 292" fill="none" xmlns="http://www.w3.org/2000/svg">
<path d="M47.9531 34.9688H0.956055V0.105469H139.042V34.9688H92.2158V292H47.9531V34.9688ZM193.449 0.105469H237.712C243.295 0.105469 249.39 0.390299 255.998 0.959961C262.72 1.41569 269.385 2.61198 275.993 4.54883C282.715 6.37174 289.152 9.22005 295.305 13.0938C301.571 16.9674 307.097 22.2653 311.882 28.9873C316.667 35.5954 320.484 43.9124 323.332 53.9385C326.294 63.9645 327.775 76.1553 327.775 90.5107V100.765C327.775 116.373 326.408 129.76 323.674 140.926C321.053 151.977 317.521 161.32 313.078 168.953C308.635 176.473 303.451 182.511 297.526 187.068C291.716 191.626 285.62 195.101 279.24 197.493C272.974 199.772 266.594 201.31 260.1 202.107C253.719 202.791 247.681 203.133 241.984 203.133H237.712V292H193.449V0.105469ZM239.934 170.662C247.909 170.662 254.631 169.523 260.1 167.244C265.568 164.852 269.898 161.206 273.088 156.307C276.392 151.294 278.728 144.913 280.095 137.166C281.576 129.305 282.316 119.905 282.316 108.968V82.6494C282.316 73.9906 281.69 66.528 280.437 60.2617C279.183 53.8815 276.905 48.6406 273.601 44.5391C270.41 40.4375 266.081 37.4183 260.612 35.4814C255.144 33.4307 248.251 32.4053 239.934 32.4053H237.712V170.662H239.934Z" fill="white"/>
</svg>
